<?xml version="1.0" encoding="utf-8"?>
<!-- Generator: Adobe Illustrator 16.0.0, SVG Export Plug-In . SVG Version: 6.00 Build 0)  -->
<!DOCTYPE svg PUBLIC "-//W3C//DTD SVG 1.1//EN" "http://www.w3.org/Graphics/SVG/1.1/DTD/svg11.dtd">
<svg version="1.1" xmlns="http://www.w3.org/2000/svg" xmlns:xlink="http://www.w3.org/1999/xlink" x="0px" y="0px" width="100%"
	 height="100%" viewBox="0 0 360 360" enable-background="new 0 0 360 360" xml:space="preserve" class="c-infographic-svg">
<g id="Layer_1">
	<g>
		<rect fill="#F6F6F6" width="360" height="360"/>
	</g>
	<g id="building">
		<path fill="#A6A8AB" d="M193.536,86.153v-8.71l-12.246-7.129v-7.106h12.019v-9.345h-10.858h-3.829v16.494l-11.792,7.087v8.71
			h-21.366v37.36h69.44v-37.36H193.536z M156.096,118.783h-4.75v-7.129h4.75V118.783z M156.096,106.113h-4.75v-7.125h4.75V106.113z
			 M166.39,118.783h-4.75v-7.129h4.75V118.783z M166.39,106.113h-4.75v-7.125h4.75V106.113z M198.73,118.783h-4.748v-7.129h4.748
			V118.783z M198.73,106.113h-4.748v-7.125h4.748V106.113z M209.024,118.783h-4.751v-7.129h4.751V118.783z M209.024,106.113h-4.751
			v-7.125h4.751V106.113z"/>
	</g>
	<g id="person">
		<g>
			<path fill="#0074A8" d="M194.935,109.785c0,1.097-0.514,1.738-1.499,2.021l-0.503,0.138c-1.08,0-1.76-0.495-2.029-1.512
				c-0.078-0.337-0.382-1.31-0.784-2.852c-0.473-1.559-0.959-3.18-1.503-4.896c-0.545-1.707-1.185-3.881-1.958-6.574h-1.233
				l7.11,24.009h-6.733v18.236c0,0.715-0.204,1.307-0.744,1.735c-0.48,0.449-1.054,0.665-1.77,0.665
				c-0.741,0-1.29-0.216-1.761-0.665c-0.445-0.429-0.639-1.021-0.639-1.735v-18.236h-1.237v18.236c0,0.715-0.242,1.307-0.683,1.735
				c-0.444,0.449-1.024,0.665-1.732,0.665c-0.717,0-1.33-0.216-1.807-0.665c-0.508-0.429-0.74-1.021-0.74-1.735v-18.236h-6.838
				l7.106-24.005h-1.218c-0.782,2.689-1.436,4.859-1.948,6.57c-0.465,1.716-0.982,3.338-1.42,4.896
				c-0.512,1.542-0.851,2.515-0.881,2.852c-0.316,1.017-0.983,1.512-2.038,1.512l-0.548-0.126c-0.982-0.369-1.466-1.008-1.466-1.916
				c0-0.248,0.035-0.453,0.143-0.658c0.066-0.174,0.269-0.78,0.512-1.803c0.276-1.016,0.64-2.273,1.086-3.743
				c0.442-1.493,0.922-3.104,1.426-4.838c0.515-1.743,0.985-3.415,1.565-5.03c0.34-1.239,1.081-2.367,2.24-3.339
				c1.148-1.009,2.354-1.469,3.6-1.469h8.362c1.295,0,2.551,0.46,3.674,1.469c1.09,0.982,1.873,2.101,2.308,3.339
				c0.473,1.615,0.954,3.287,1.425,5.03c0.488,1.734,0.991,3.345,1.403,4.838c0.434,1.47,0.814,2.728,1.083,3.743
				c0.265,1.023,0.441,1.629,0.541,1.803L194.935,109.785z M180.323,87.518c1.43,0,2.659-0.465,3.612-1.444
				c0.982-1.007,1.489-2.257,1.489-3.755c0-1.432-0.507-2.66-1.489-3.68c-0.945-1.041-2.182-1.556-3.612-1.556
				c-1.524,0-2.788,0.515-3.84,1.556c-1.022,1.013-1.526,2.248-1.526,3.68c0,1.498,0.504,2.748,1.528,3.755
				C177.542,87.053,178.804,87.518,180.323,87.518"/>
		</g>
	</g>
	<g id="left-number-group">
		<g>
			<g>
				<path fill="#0074A8" d="M58.011,88.205h2.559v4.808h-2.559v6.541h-5.84v-6.541h-9.945l-0.268-3.744L52.15,69.511h5.86V88.205z
					 M47.632,88.205h4.539V78.156l-0.124,0.227L47.632,88.205z"/>
			</g>
			<g>
				<path fill="#0074A8" d="M74.477,87.937c-1.238,1.266-2.593,1.898-4.065,1.898c-2.283,0-4.082-0.918-5.396-2.754
					c-1.314-1.836-1.971-4.288-1.971-7.356c0-1.981,0.372-3.793,1.114-5.437c0.743-1.644,1.778-2.919,3.105-3.828
					c1.327-0.908,2.81-1.362,4.446-1.362c1.692,0,3.198,0.502,4.519,1.506c1.321,1.004,2.345,2.445,3.075,4.323
					c0.729,1.878,1.093,4.013,1.093,6.407v2.125c0,5.117-1.125,9.117-3.374,11.999s-5.437,4.35-9.563,4.405h-0.599v-5.035h0.392
					c2.283-0.014,4-0.605,5.148-1.774C73.552,91.885,74.243,90.179,74.477,87.937z M71.898,85.254c1.127,0,2.015-0.773,2.662-2.319
					v-2.692c0-1.974-0.268-3.524-0.805-4.649c-0.536-1.125-1.231-1.688-2.084-1.688c-0.839,0-1.517,0.556-2.032,1.667
					c-0.516,1.111-0.774,2.468-0.774,4.069c0,1.74,0.268,3.11,0.805,4.11C70.206,84.754,70.949,85.254,71.898,85.254z"/>
			</g>
			<g>
				<path fill="#0074A8" d="M101.137,87.132c0,4.154-0.753,7.332-2.259,9.533c-1.506,2.201-3.656,3.301-6.448,3.301
					c-2.765,0-4.901-1.069-6.407-3.208c-1.506-2.139-2.287-5.203-2.342-9.192v-5.674c0-4.14,0.75-7.308,2.249-9.502
					c1.499-2.194,3.652-3.291,6.458-3.291s4.958,1.087,6.458,3.26c1.499,2.174,2.263,5.275,2.29,9.306V87.132z M95.277,81.032
					c0-2.375-0.234-4.157-0.702-5.344s-1.196-1.782-2.187-1.782c-1.857,0-2.82,2.175-2.889,6.525v7.519
					c0,2.431,0.237,4.24,0.711,5.427s1.214,1.781,2.219,1.781c0.949,0,1.653-0.556,2.115-1.667c0.46-1.112,0.705-2.813,0.732-5.106
					V81.032z"/>
			</g>
		</g>
		<g opacity="0.6">
			<g>
				<rect x="34.713" y="107.086" fill="#66ABCB" width="75.061" height="0.75"/>
			</g>
		</g>
		<g>
			<g>
				<path fill="#404041" d="M41.809,118.312v2.76h-0.932v-6.88h2.633c0.733,0,1.305,0.189,1.713,0.567
					c0.408,0.378,0.612,0.876,0.612,1.494c0,0.624-0.204,1.123-0.612,1.498c-0.408,0.375-0.979,0.563-1.713,0.563H41.809z
					 M41.809,117.584h1.701c0.466,0,0.814-0.125,1.044-0.376s0.345-0.566,0.345-0.947s-0.115-0.699-0.347-0.955
					c-0.232-0.255-0.579-0.383-1.042-0.383h-1.701V117.584z"/>
			</g>
			<g>
				<path fill="#404041" d="M49.738,119.3h-2.589l-0.614,1.772h-0.95l2.481-6.88h0.798l2.429,6.88h-0.95L49.738,119.3z
					 M47.417,118.52h2.056l-1.001-2.954h-0.028L47.417,118.52z"/>
			</g>
			<g>
				<path fill="#404041" d="M53.041,118.09v2.982H52.11v-6.875h2.354c0.753,0,1.328,0.167,1.725,0.5
					c0.396,0.334,0.595,0.819,0.595,1.456c0,0.353-0.092,0.66-0.276,0.921c-0.184,0.262-0.453,0.47-0.806,0.624
					c0.378,0.123,0.65,0.322,0.815,0.598c0.166,0.276,0.248,0.617,0.248,1.023v0.647c0,0.214,0.024,0.407,0.071,0.577
					c0.047,0.17,0.129,0.309,0.246,0.416v0.113h-0.959c-0.123-0.107-0.201-0.265-0.236-0.473c-0.034-0.208-0.052-0.422-0.052-0.643
					v-0.628c0-0.372-0.108-0.671-0.326-0.898c-0.217-0.227-0.509-0.34-0.874-0.34H53.041z M53.041,117.357h1.328
					c0.526,0,0.905-0.1,1.137-0.3c0.231-0.2,0.347-0.505,0.347-0.915c0-0.388-0.112-0.688-0.338-0.9
					c-0.225-0.212-0.575-0.319-1.051-0.319h-1.423V117.357z"/>
			</g>
			<g>
				<path fill="#404041" d="M62.507,114.924h-2.268v6.148h-0.931v-6.148h-2.24v-0.732h5.439V114.924z"/>
			</g>
			<g>
				<path fill="#404041" d="M64.321,121.072h-0.936v-6.88h0.936V121.072z"/>
			</g>
			<g>
				<path fill="#404041" d="M70.744,118.87l0.009,0.028c0.012,0.646-0.214,1.186-0.68,1.621c-0.467,0.435-1.083,0.652-1.848,0.652
					c-0.778,0-1.413-0.275-1.902-0.827c-0.49-0.551-0.735-1.251-0.735-2.098v-1.224c0-0.847,0.245-1.547,0.735-2.101
					c0.49-0.553,1.124-0.829,1.902-0.829c0.778,0,1.396,0.207,1.856,0.621c0.46,0.415,0.684,0.963,0.671,1.647l-0.009,0.028h-0.894
					c0-0.482-0.142-0.863-0.425-1.144c-0.284-0.28-0.684-0.42-1.2-0.42c-0.521,0-0.935,0.209-1.243,0.628s-0.463,0.939-0.463,1.56
					v1.233c0,0.627,0.154,1.15,0.463,1.569s0.723,0.628,1.243,0.628c0.517,0,0.917-0.14,1.2-0.418
					c0.283-0.279,0.425-0.664,0.425-1.155H70.744z"/>
			</g>
			<g>
				<path fill="#404041" d="M72.8,121.072h-0.936v-6.88H72.8V121.072z"/>
			</g>
			<g>
				<path fill="#404041" d="M75.243,118.312v2.76h-0.931v-6.88h2.632c0.734,0,1.305,0.189,1.713,0.567
					c0.408,0.378,0.612,0.876,0.612,1.494c0,0.624-0.204,1.123-0.612,1.498c-0.408,0.375-0.979,0.563-1.713,0.563H75.243z
					 M75.243,117.584h1.701c0.466,0,0.814-0.125,1.044-0.376c0.23-0.25,0.345-0.566,0.345-0.947s-0.116-0.699-0.347-0.955
					s-0.579-0.383-1.042-0.383h-1.701V117.584z"/>
			</g>
			<g>
				<path fill="#404041" d="M83.172,119.3h-2.589l-0.614,1.772h-0.95l2.481-6.88h0.798l2.429,6.88h-0.95L83.172,119.3z
					 M80.852,118.52h2.056l-1.001-2.954h-0.028L80.852,118.52z"/>
			</g>
			<g>
				<path fill="#404041" d="M90.748,121.072h-0.931l-3.313-5.255l-0.028,0.01v5.245h-0.931v-6.88h0.931l3.313,5.25l0.028-0.009
					v-5.241h0.931V121.072z"/>
			</g>
			<g>
				<path fill="#404041" d="M96.839,114.924h-2.268v6.148H93.64v-6.148H91.4v-0.732h5.439V114.924z"/>
			</g>
			<g>
				<path fill="#404041" d="M101.215,119.337c0-0.312-0.112-0.573-0.335-0.784c-0.224-0.211-0.618-0.391-1.182-0.539
					c-0.699-0.173-1.245-0.428-1.637-0.765c-0.392-0.337-0.588-0.761-0.588-1.271c0-0.539,0.211-0.987,0.633-1.347
					c0.422-0.359,0.971-0.539,1.645-0.539c0.725,0,1.302,0.206,1.732,0.617c0.43,0.411,0.639,0.891,0.626,1.439l-0.014,0.028h-0.888
					c0-0.391-0.137-0.714-0.409-0.969c-0.272-0.255-0.621-0.383-1.047-0.383c-0.435,0-0.768,0.105-0.999,0.316
					c-0.231,0.211-0.348,0.485-0.348,0.822c0,0.299,0.127,0.549,0.381,0.749c0.253,0.2,0.665,0.376,1.235,0.527
					c0.693,0.18,1.221,0.444,1.583,0.794s0.544,0.781,0.544,1.295c0,0.554-0.219,1-0.655,1.337
					c-0.436,0.337-1.006,0.505-1.708,0.505c-0.665,0-1.251-0.186-1.76-0.558c-0.509-0.372-0.756-0.869-0.74-1.493l0.009-0.028h0.889
					c0,0.432,0.164,0.765,0.491,1s0.698,0.352,1.11,0.352c0.441,0,0.79-0.099,1.047-0.298
					C101.087,119.947,101.215,119.678,101.215,119.337z"/>
			</g>
			<g>
				<path fill="#404041" d="M47.437,132.685h-0.936v-6.88h0.936V132.685z"/>
			</g>
			<g>
				<path fill="#404041" d="M54.151,132.685h-0.931l-3.313-5.255l-0.028,0.01v5.245h-0.932v-6.88h0.932l3.313,5.25l0.028-0.009
					v-5.241h0.931V132.685z"/>
			</g>
			<g>
				<path fill="#404041" d="M62.592,126.537h-2.269v6.148h-0.931v-6.148h-2.24v-0.732h5.439V126.537z"/>
			</g>
			<g>
				<path fill="#404041" d="M64.308,129.703v2.982h-0.932v-6.875h2.354c0.753,0,1.328,0.167,1.725,0.5
					c0.397,0.334,0.595,0.819,0.595,1.456c0,0.353-0.092,0.66-0.276,0.921c-0.185,0.262-0.453,0.47-0.806,0.624
					c0.378,0.123,0.649,0.322,0.815,0.598c0.165,0.276,0.248,0.617,0.248,1.023v0.647c0,0.214,0.023,0.407,0.07,0.577
					c0.048,0.17,0.129,0.309,0.246,0.416v0.113h-0.959c-0.123-0.107-0.202-0.265-0.236-0.473c-0.035-0.208-0.052-0.422-0.052-0.643
					v-0.628c0-0.372-0.109-0.671-0.326-0.898c-0.217-0.227-0.509-0.34-0.875-0.34H64.308z M64.308,128.971h1.328
					c0.526,0,0.905-0.1,1.136-0.3c0.231-0.2,0.348-0.505,0.348-0.915c0-0.388-0.113-0.688-0.338-0.9
					c-0.226-0.212-0.576-0.319-1.052-0.319h-1.422V128.971z"/>
			</g>
			<g>
				<path fill="#404041" d="M72.894,130.913h-2.589l-0.614,1.772h-0.95l2.48-6.88h0.799l2.429,6.88h-0.949L72.894,130.913z
					 M70.573,130.133h2.056l-1.001-2.954h-0.028L70.573,130.133z"/>
			</g>
			<g>
				<path fill="#404041" d="M76.296,132.685h-0.936v-6.88h0.936V132.685z"/>
			</g>
			<g>
				<path fill="#404041" d="M83.012,132.685h-0.931l-3.313-5.255l-0.028,0.01v5.245h-0.931v-6.88h0.931l3.313,5.25l0.028-0.009
					v-5.241h0.931V132.685z"/>
			</g>
			<g>
				<path fill="#404041" d="M85.46,132.685h-0.936v-6.88h0.936V132.685z"/>
			</g>
			<g>
				<path fill="#404041" d="M92.175,132.685h-0.931l-3.313-5.255l-0.028,0.01v5.245h-0.932v-6.88h0.932l3.313,5.25l0.028-0.009
					v-5.241h0.931V132.685z"/>
			</g>
			<g>
				<path fill="#404041" d="M98.54,131.759c-0.164,0.255-0.448,0.49-0.853,0.704c-0.405,0.214-0.931,0.321-1.576,0.321
					c-0.794,0-1.451-0.263-1.971-0.789c-0.52-0.526-0.779-1.207-0.779-2.042v-1.417c0-0.835,0.25-1.515,0.751-2.042
					c0.501-0.526,1.146-0.789,1.938-0.789c0.766,0,1.371,0.204,1.814,0.612c0.444,0.408,0.66,0.927,0.647,1.557l-0.009,0.028h-0.893
					c0-0.419-0.136-0.768-0.406-1.047c-0.271-0.279-0.655-0.418-1.153-0.418c-0.526,0-0.95,0.197-1.271,0.591
					c-0.321,0.394-0.482,0.893-0.482,1.498v1.427c0,0.611,0.17,1.115,0.51,1.51c0.34,0.396,0.775,0.593,1.304,0.593
					c0.406,0,0.729-0.053,0.966-0.158s0.415-0.231,0.532-0.376v-1.55h-1.56v-0.728h2.49V131.759z"/>
			</g>
			<g>
				<path fill="#404041" d="M42.175,141.539v2.76h-0.931v-6.88h2.632c0.734,0,1.305,0.189,1.713,0.567
					c0.408,0.378,0.612,0.876,0.612,1.494c0,0.624-0.204,1.123-0.612,1.498c-0.408,0.375-0.979,0.563-1.713,0.563H42.175z
					 M42.175,140.812h1.701c0.466,0,0.814-0.125,1.044-0.376c0.23-0.25,0.345-0.566,0.345-0.947s-0.116-0.699-0.347-0.955
					s-0.579-0.383-1.042-0.383h-1.701V140.812z"/>
			</g>
			<g>
				<path fill="#404041" d="M48.134,141.317v2.982h-0.931v-6.875h2.354c0.753,0,1.328,0.167,1.725,0.5
					c0.396,0.334,0.595,0.819,0.595,1.456c0,0.353-0.092,0.66-0.276,0.921c-0.184,0.262-0.453,0.47-0.806,0.624
					c0.378,0.123,0.65,0.322,0.815,0.598c0.165,0.276,0.248,0.617,0.248,1.023v0.647c0,0.214,0.023,0.407,0.071,0.577
					s0.129,0.309,0.246,0.416v0.113h-0.959c-0.123-0.107-0.202-0.265-0.236-0.473s-0.052-0.422-0.052-0.643v-0.628
					c0-0.372-0.109-0.671-0.326-0.898c-0.218-0.227-0.509-0.34-0.875-0.34H48.134z M48.134,140.584h1.328
					c0.525,0,0.904-0.1,1.136-0.3c0.231-0.2,0.347-0.505,0.347-0.915c0-0.388-0.112-0.688-0.338-0.9
					c-0.225-0.212-0.576-0.319-1.051-0.319h-1.422V140.584z"/>
			</g>
			<g>
				<path fill="#404041" d="M58.422,141.473c0,0.841-0.261,1.539-0.782,2.093s-1.198,0.832-2.03,0.832
					c-0.803,0-1.456-0.277-1.958-0.832c-0.503-0.555-0.754-1.252-0.754-2.093v-1.224c0-0.838,0.251-1.536,0.754-2.093
					c0.502-0.558,1.155-0.836,1.958-0.836c0.832,0,1.508,0.278,2.03,0.834s0.782,1.254,0.782,2.096V141.473z M57.491,140.24
					c0-0.63-0.17-1.147-0.51-1.55c-0.34-0.403-0.797-0.604-1.371-0.604c-0.542,0-0.974,0.202-1.297,0.604
					c-0.323,0.403-0.484,0.92-0.484,1.55v1.233c0,0.636,0.162,1.156,0.484,1.559c0.323,0.403,0.756,0.605,1.297,0.605
					c0.577,0,1.034-0.201,1.373-0.603c0.339-0.401,0.508-0.922,0.508-1.562V140.24z"/>
			</g>
			<g>
				<path fill="#404041" d="M64.518,143.373c-0.164,0.255-0.448,0.49-0.853,0.704c-0.405,0.214-0.931,0.321-1.576,0.321
					c-0.794,0-1.451-0.263-1.971-0.789c-0.52-0.526-0.779-1.207-0.779-2.042v-1.417c0-0.835,0.25-1.515,0.751-2.042
					c0.501-0.526,1.146-0.789,1.938-0.789c0.766,0,1.371,0.204,1.814,0.612c0.444,0.408,0.66,0.927,0.647,1.557l-0.009,0.028h-0.893
					c0-0.419-0.136-0.768-0.406-1.047c-0.271-0.279-0.655-0.418-1.153-0.418c-0.526,0-0.95,0.197-1.271,0.591
					c-0.321,0.394-0.482,0.893-0.482,1.498v1.427c0,0.611,0.17,1.115,0.51,1.51c0.34,0.396,0.775,0.593,1.304,0.593
					c0.406,0,0.729-0.053,0.966-0.158s0.415-0.231,0.532-0.376v-1.55h-1.56v-0.728h2.49V143.373z"/>
			</g>
			<g>
				<path fill="#404041" d="M66.862,141.317v2.982h-0.931v-6.875h2.354c0.753,0,1.328,0.167,1.725,0.5
					c0.397,0.334,0.596,0.819,0.596,1.456c0,0.353-0.092,0.66-0.276,0.921c-0.185,0.262-0.453,0.47-0.806,0.624
					c0.378,0.123,0.649,0.322,0.815,0.598c0.166,0.276,0.248,0.617,0.248,1.023v0.647c0,0.214,0.024,0.407,0.071,0.577
					c0.047,0.17,0.129,0.309,0.246,0.416v0.113h-0.959c-0.123-0.107-0.202-0.265-0.236-0.473s-0.052-0.422-0.052-0.643v-0.628
					c0-0.372-0.108-0.671-0.326-0.898c-0.217-0.227-0.509-0.34-0.874-0.34H66.862z M66.862,140.584h1.328
					c0.526,0,0.905-0.1,1.137-0.3c0.231-0.2,0.347-0.505,0.347-0.915c0-0.388-0.113-0.688-0.338-0.9
					c-0.225-0.212-0.576-0.319-1.051-0.319h-1.422V140.584z"/>
			</g>
			<g>
				<path fill="#404041" d="M75.448,142.527h-2.59l-0.614,1.772h-0.95l2.481-6.88h0.799l2.429,6.88h-0.95L75.448,142.527z
					 M73.128,141.747h2.056l-1.002-2.954h-0.028L73.128,141.747z"/>
			</g>
			<g>
				<path fill="#404041" d="M81.232,143.009h0.028l2.197-5.59h1.158v6.88h-0.931v-5.156l-0.028-0.004l-2.084,5.16h-0.647
					l-2.145-5.331l-0.028,0.005v5.326H77.82v-6.88h1.225L81.232,143.009z"/>
			</g>
			<g>
				<path fill="#404041" d="M89.445,143.009h0.029l2.197-5.59h1.158v6.88h-0.931v-5.156l-0.028-0.004l-2.084,5.16h-0.647
					l-2.146-5.331l-0.028,0.005v5.326h-0.931v-6.88h1.224L89.445,143.009z"/>
			</g>
			<g>
				<path fill="#404041" d="M98.004,141.109h-2.826v2.462h3.308v0.728h-4.239v-6.88h4.187v0.732h-3.256v2.226h2.826V141.109z"/>
			</g>
			<g>
				<path fill="#404041" d="M103.061,142.564c0-0.312-0.112-0.573-0.336-0.784c-0.224-0.211-0.617-0.391-1.181-0.539
					c-0.699-0.173-1.245-0.428-1.637-0.765c-0.393-0.337-0.588-0.761-0.588-1.271c0-0.539,0.211-0.987,0.633-1.347
					c0.422-0.359,0.97-0.539,1.645-0.539c0.725,0,1.302,0.206,1.731,0.617c0.431,0.411,0.639,0.891,0.626,1.439l-0.014,0.028h-0.889
					c0-0.391-0.136-0.714-0.408-0.969c-0.273-0.255-0.622-0.383-1.047-0.383c-0.435,0-0.768,0.105-1,0.316
					c-0.232,0.211-0.347,0.485-0.347,0.822c0,0.299,0.126,0.549,0.38,0.749c0.254,0.2,0.666,0.376,1.236,0.527
					c0.692,0.18,1.221,0.444,1.583,0.794s0.543,0.781,0.543,1.295c0,0.554-0.218,1-0.654,1.337
					c-0.437,0.337-1.006,0.505-1.708,0.505c-0.665,0-1.252-0.186-1.761-0.558c-0.509-0.372-0.755-0.869-0.739-1.493l0.009-0.028
					h0.888c0,0.432,0.164,0.765,0.492,1s0.698,0.352,1.111,0.352c0.44,0,0.79-0.099,1.046-0.298
					C102.932,143.174,103.061,142.905,103.061,142.564z"/>
			</g>
		</g>
		<g opacity="0.6">
			<path fill="#66ABCB" d="M71.369,162.995c-32.511,0-58.96-26.449-58.96-58.96c0-32.51,26.449-58.959,58.96-58.959
				c32.51,0,58.959,26.449,58.959,58.959C130.328,136.546,103.879,162.995,71.369,162.995z M71.369,47.076
				c-31.408,0-56.96,25.552-56.96,56.959s25.552,56.96,56.96,56.96c31.408,0,56.959-25.552,56.959-56.96
				S102.776,47.076,71.369,47.076z"/>
		</g>
	</g>
	<g id="right-number-group">
		<g>
			<g>
				<path fill="#404041" d="M259.74,118.87l0.009,0.028c0.012,0.646-0.214,1.186-0.68,1.621c-0.467,0.435-1.083,0.652-1.848,0.652
					c-0.778,0-1.413-0.275-1.902-0.827c-0.49-0.551-0.735-1.251-0.735-2.098v-1.224c0-0.847,0.245-1.547,0.735-2.101
					c0.49-0.553,1.124-0.829,1.902-0.829c0.778,0,1.396,0.207,1.856,0.621c0.46,0.415,0.684,0.963,0.671,1.647l-0.009,0.028h-0.894
					c0-0.482-0.142-0.863-0.425-1.144c-0.284-0.28-0.684-0.42-1.2-0.42c-0.521,0-0.935,0.209-1.243,0.628s-0.463,0.939-0.463,1.56
					v1.233c0,0.627,0.154,1.15,0.463,1.569s0.723,0.628,1.243,0.628c0.517,0,0.917-0.14,1.2-0.418
					c0.283-0.279,0.425-0.664,0.425-1.155H259.74z"/>
			</g>
			<g>
				<path fill="#404041" d="M264.319,119.3h-2.59l-0.614,1.772h-0.95l2.481-6.88h0.798l2.429,6.88h-0.95L264.319,119.3z
					 M261.999,118.52h2.056l-1.002-2.954h-0.028L261.999,118.52z"/>
			</g>
			<g>
				<path fill="#404041" d="M271.895,121.072h-0.931l-3.313-5.255l-0.028,0.01v5.245h-0.931v-6.88h0.931l3.313,5.25l0.028-0.009
					v-5.241h0.931V121.072z"/>
			</g>
			<g>
				<path fill="#404041" d="M273.313,121.072v-6.88h2.164c0.898,0,1.62,0.276,2.167,0.829c0.546,0.553,0.819,1.268,0.819,2.143v0.94
					c0,0.879-0.273,1.593-0.819,2.143c-0.547,0.55-1.269,0.825-2.167,0.825H273.313z M274.243,114.924v5.42h1.233
					c0.637,0,1.138-0.209,1.505-0.629c0.367-0.419,0.551-0.956,0.551-1.611v-0.95c0-0.649-0.184-1.183-0.551-1.602
					c-0.367-0.419-0.868-0.628-1.505-0.628H274.243z"/>
			</g>
			<g>
				<path fill="#404041" d="M280.703,121.072h-0.936v-6.88h0.936V121.072z"/>
			</g>
			<g>
				<path fill="#404041" d="M282.216,121.072v-6.88h2.164c0.898,0,1.62,0.276,2.167,0.829c0.546,0.553,0.819,1.268,0.819,2.143v0.94
					c0,0.879-0.273,1.593-0.819,2.143c-0.547,0.55-1.269,0.825-2.167,0.825H282.216z M283.146,114.924v5.42h1.233
					c0.637,0,1.138-0.209,1.505-0.629c0.367-0.419,0.551-0.956,0.551-1.611v-0.95c0-0.649-0.184-1.183-0.551-1.602
					c-0.367-0.419-0.868-0.628-1.505-0.628H283.146z"/>
			</g>
			<g>
				<path fill="#404041" d="M292.031,119.3h-2.59l-0.614,1.772h-0.95l2.481-6.88h0.798l2.429,6.88h-0.95L292.031,119.3z
					 M289.711,118.52h2.056l-1.002-2.954h-0.028L289.711,118.52z"/>
			</g>
			<g>
				<path fill="#404041" d="M298.604,114.924h-2.269v6.148h-0.931v-6.148h-2.24v-0.732h5.439V114.924z"/>
			</g>
			<g>
				<path fill="#404041" d="M303.146,117.882h-2.825v2.462h3.308v0.728h-4.239v-6.88h4.188v0.732h-3.256v2.226h2.825V117.882z"/>
			</g>
			<g>
				<path fill="#404041" d="M308.203,119.337c0-0.312-0.112-0.573-0.335-0.784c-0.224-0.211-0.618-0.391-1.182-0.539
					c-0.699-0.173-1.245-0.428-1.637-0.765c-0.392-0.337-0.588-0.761-0.588-1.271c0-0.539,0.211-0.987,0.633-1.347
					c0.422-0.359,0.971-0.539,1.645-0.539c0.725,0,1.302,0.206,1.732,0.617c0.43,0.411,0.639,0.891,0.626,1.439l-0.014,0.028h-0.888
					c0-0.391-0.137-0.714-0.409-0.969c-0.272-0.255-0.621-0.383-1.047-0.383c-0.435,0-0.768,0.105-0.999,0.316
					c-0.231,0.211-0.348,0.485-0.348,0.822c0,0.299,0.127,0.549,0.381,0.749c0.253,0.2,0.665,0.376,1.235,0.527
					c0.693,0.18,1.221,0.444,1.583,0.794s0.544,0.781,0.544,1.295c0,0.554-0.219,1-0.655,1.337
					c-0.436,0.337-1.006,0.505-1.708,0.505c-0.665,0-1.251-0.186-1.76-0.558c-0.509-0.372-0.756-0.869-0.74-1.493l0.009-0.028h0.889
					c0,0.432,0.164,0.765,0.491,1s0.698,0.352,1.11,0.352c0.441,0,0.79-0.099,1.047-0.298
					C308.074,119.947,308.203,119.678,308.203,119.337z"/>
			</g>
			<g>
				<path fill="#404041" d="M313.5,121.072h-0.936v-6.88h0.936V121.072z"/>
			</g>
			<g>
				<path fill="#404041" d="M320.215,121.072h-0.931l-3.313-5.255l-0.028,0.01v5.245h-0.931v-6.88h0.931l3.313,5.25l0.028-0.009
					v-5.241h0.931V121.072z"/>
			</g>
			<g>
				<path fill="#404041" d="M251.005,131.958h3.355v0.728h-4.286v-6.88h0.931V131.958z"/>
			</g>
			<g>
				<path fill="#404041" d="M260.149,129.859c0,0.841-0.261,1.539-0.782,2.093c-0.521,0.555-1.198,0.832-2.03,0.832
					c-0.803,0-1.456-0.277-1.958-0.832s-0.753-1.252-0.753-2.093v-1.224c0-0.838,0.251-1.536,0.753-2.093s1.156-0.836,1.958-0.836
					c0.832,0,1.509,0.278,2.03,0.834c0.521,0.556,0.782,1.254,0.782,2.096V129.859z M259.218,128.626c0-0.63-0.17-1.147-0.51-1.55
					c-0.341-0.403-0.797-0.604-1.371-0.604c-0.542,0-0.974,0.202-1.297,0.604c-0.323,0.403-0.484,0.92-0.484,1.55v1.233
					c0,0.636,0.161,1.156,0.484,1.559c0.323,0.403,0.755,0.605,1.297,0.605c0.577,0,1.034-0.201,1.373-0.603
					c0.339-0.401,0.508-0.922,0.508-1.562V128.626z"/>
			</g>
			<g>
				<path fill="#404041" d="M266.207,130.483l0.01,0.028c0.013,0.646-0.214,1.186-0.681,1.621c-0.466,0.435-1.082,0.652-1.848,0.652
					c-0.778,0-1.412-0.275-1.902-0.827s-0.735-1.251-0.735-2.098v-1.224c0-0.847,0.245-1.547,0.735-2.101
					c0.49-0.553,1.124-0.829,1.902-0.829s1.397,0.207,1.857,0.621c0.46,0.415,0.684,0.963,0.671,1.647l-0.01,0.028h-0.893
					c0-0.482-0.142-0.863-0.426-1.144c-0.283-0.28-0.684-0.42-1.2-0.42c-0.52,0-0.934,0.209-1.243,0.628
					c-0.309,0.419-0.463,0.939-0.463,1.56v1.233c0,0.627,0.154,1.15,0.463,1.569c0.309,0.419,0.723,0.628,1.243,0.628
					c0.517,0,0.917-0.14,1.2-0.418c0.284-0.279,0.426-0.664,0.426-1.155H266.207z"/>
			</g>
			<g>
				<path fill="#404041" d="M270.787,130.913h-2.589l-0.614,1.772h-0.95l2.481-6.88h0.798l2.429,6.88h-0.95L270.787,130.913z
					 M268.466,130.133h2.056l-1.001-2.954h-0.028L268.466,130.133z"/>
			</g>
			<g>
				<path fill="#404041" d="M274.09,131.958h3.355v0.728h-4.286v-6.88h0.931V131.958z"/>
			</g>
			<g>
				<path fill="#404041" d="M284.255,129.495h-2.826v2.462h3.308v0.728h-4.239v-6.88h4.187v0.732h-3.256v2.226h2.826V129.495z"/>
			</g>
			<g>
				<path fill="#404041" d="M286.575,131.958h3.355v0.728h-4.286v-6.88h0.931V131.958z"/>
			</g>
			<g>
				<path fill="#404041" d="M294.528,129.495h-2.825v2.462h3.308v0.728h-4.239v-6.88h4.188v0.732h-3.256v2.226h2.825V129.495z"/>
			</g>
			<g>
				<path fill="#404041" d="M300.828,130.483l0.01,0.028c0.012,0.646-0.215,1.186-0.681,1.621c-0.466,0.435-1.082,0.652-1.848,0.652
					c-0.778,0-1.412-0.275-1.902-0.827c-0.49-0.551-0.734-1.251-0.734-2.098v-1.224c0-0.847,0.245-1.547,0.734-2.101
					c0.49-0.553,1.124-0.829,1.902-0.829s1.397,0.207,1.857,0.621c0.46,0.415,0.684,0.963,0.671,1.647l-0.01,0.028h-0.893
					c0-0.482-0.142-0.863-0.425-1.144s-0.684-0.42-1.2-0.42c-0.52,0-0.935,0.209-1.243,0.628s-0.463,0.939-0.463,1.56v1.233
					c0,0.627,0.154,1.15,0.463,1.569s0.723,0.628,1.243,0.628c0.517,0,0.917-0.14,1.2-0.418s0.425-0.664,0.425-1.155H300.828z"/>
			</g>
			<g>
				<path fill="#404041" d="M306.527,126.537h-2.269v6.148h-0.931v-6.148h-2.24v-0.732h5.439V126.537z"/>
			</g>
			<g>
				<path fill="#404041" d="M308.342,132.685h-0.936v-6.88h0.936V132.685z"/>
			</g>
			<g>
				<path fill="#404041" d="M315.109,129.859c0,0.841-0.261,1.539-0.782,2.093s-1.198,0.832-2.03,0.832
					c-0.803,0-1.456-0.277-1.958-0.832c-0.503-0.555-0.754-1.252-0.754-2.093v-1.224c0-0.838,0.251-1.536,0.754-2.093
					c0.502-0.558,1.155-0.836,1.958-0.836c0.832,0,1.508,0.278,2.03,0.834s0.782,1.254,0.782,2.096V129.859z M314.178,128.626
					c0-0.63-0.17-1.147-0.51-1.55c-0.34-0.403-0.797-0.604-1.371-0.604c-0.542,0-0.974,0.202-1.297,0.604
					c-0.323,0.403-0.484,0.92-0.484,1.55v1.233c0,0.636,0.162,1.156,0.484,1.559c0.323,0.403,0.756,0.605,1.297,0.605
					c0.577,0,1.034-0.201,1.373-0.603c0.339-0.401,0.508-0.922,0.508-1.562V128.626z"/>
			</g>
			<g>
				<path fill="#404041" d="M321.46,132.685h-0.931l-3.313-5.255l-0.028,0.01v5.245h-0.931v-6.88h0.931l3.313,5.25l0.028-0.009
					v-5.241h0.931V132.685z"/>
			</g>
			<g>
				<path fill="#404041" d="M326.545,130.951c0-0.312-0.112-0.573-0.335-0.784c-0.224-0.211-0.618-0.391-1.182-0.539
					c-0.699-0.173-1.245-0.428-1.637-0.765c-0.392-0.337-0.588-0.761-0.588-1.271c0-0.539,0.211-0.987,0.633-1.347
					c0.422-0.359,0.971-0.539,1.645-0.539c0.725,0,1.302,0.206,1.732,0.617c0.43,0.411,0.639,0.891,0.626,1.439l-0.014,0.028h-0.888
					c0-0.391-0.137-0.714-0.409-0.969c-0.272-0.255-0.621-0.383-1.047-0.383c-0.435,0-0.768,0.105-0.999,0.316
					c-0.231,0.211-0.348,0.485-0.348,0.822c0,0.299,0.127,0.549,0.381,0.749c0.253,0.2,0.665,0.376,1.235,0.527
					c0.693,0.18,1.221,0.444,1.583,0.794s0.544,0.781,0.544,1.295c0,0.554-0.219,1-0.655,1.337
					c-0.436,0.337-1.006,0.505-1.708,0.505c-0.665,0-1.251-0.186-1.76-0.558c-0.509-0.372-0.756-0.869-0.74-1.493l0.009-0.028h0.889
					c0,0.432,0.164,0.765,0.491,1s0.698,0.352,1.11,0.352c0.441,0,0.79-0.099,1.047-0.298
					C326.417,131.561,326.545,131.291,326.545,130.951z"/>
			</g>
		</g>
		<g>
			<g>
				<path fill="#0074A8" d="M290.455,96.854h-19.383v-4.48l8.901-11.356c1.13-1.572,1.962-2.951,2.496-4.138
					c0.535-1.187,0.802-2.324,0.802-3.413c0-1.466-0.252-2.615-0.757-3.447c-0.504-0.831-1.231-1.247-2.18-1.247
					c-1.039,0-1.863,0.486-2.474,1.458c-0.61,0.972-0.915,2.338-0.915,4.1h-6.416c0-2.018,0.418-3.863,1.254-5.535
					c0.836-1.671,2.011-2.971,3.524-3.897c1.514-0.926,3.227-1.389,5.14-1.389c2.937,0,5.215,0.81,6.834,2.429
					c1.618,1.619,2.428,3.919,2.428,6.901c0,1.853-0.448,3.731-1.344,5.637c-0.896,1.905-2.519,4.257-4.868,7.056l-4.225,6.059
					h11.183V96.854z"/>
			</g>
			<g>
				<path fill="#0074A8" d="M311.275,83.253c0,4.549-0.825,8.028-2.474,10.438c-1.649,2.41-4.003,3.614-7.06,3.614
					c-3.027,0-5.366-1.171-7.015-3.513s-2.504-5.697-2.564-10.064v-6.212c0-4.533,0.82-8.001,2.462-10.403
					c1.641-2.402,3.999-3.604,7.071-3.604c3.073,0,5.43,1.19,7.071,3.569c1.642,2.38,2.478,5.776,2.508,10.189V83.253z
					 M304.859,76.574c0-2.601-0.256-4.551-0.768-5.851c-0.512-1.3-1.31-1.951-2.395-1.951c-2.033,0-3.087,2.382-3.163,7.144v8.232
					c0,2.661,0.26,4.642,0.78,5.942c0.52,1.3,1.329,1.95,2.428,1.95c1.04,0,1.811-0.608,2.316-1.826
					c0.504-1.217,0.771-3.081,0.802-5.59V76.574z"/>
			</g>
		</g>
		<g opacity="0.6">
			<g>
				<rect x="248.083" y="106.612" fill="#66ABCB" width="86.807" height="0.75"/>
			</g>
		</g>
		<g opacity="0.6">
			<path fill="#66ABCB" d="M288.632,162.995c-32.511,0-58.96-26.449-58.96-58.96c0-32.51,26.45-58.959,58.96-58.959
				s58.96,26.449,58.96,58.959C347.592,136.546,321.143,162.995,288.632,162.995z M288.632,47.076
				c-31.408,0-56.96,25.552-56.96,56.959s25.552,56.96,56.96,56.96c31.408,0,56.96-25.552,56.96-56.96S320.04,47.076,288.632,47.076
				z"/>
		</g>
	</g>
	<g id="arrow-up">
		<path fill="#66ABCB" d="M229.89,42.083l13.847-2.443l-5.107-13.094l-1.472,2.615l2.749,7.049
			C215.6,21.249,186.1,17.05,158.564,24.756c-12.388,3.471-23.833,9.117-34.013,16.787c-0.542,0.409-0.652,1.18-0.241,1.724
			c0.241,0.32,0.611,0.489,0.984,0.489c0.257,0,0.518-0.08,0.739-0.248c9.933-7.482,21.103-12.994,33.195-16.381
			c26.813-7.516,55.539-3.442,79.234,11.084l-7.097,1.252L229.89,42.083z"/>
	</g>
	<g id="arrow-down">
		<path fill="#66ABCB" d="M242.059,200.271l-5.571,5.043l6.731,6.452l-0.194-1.935l-3.624-3.474
			c16.211,2.579,31.221-2.58,41.345-14.302c4.556-5.274,7.945-11.599,10.078-18.796c0.114-0.384-0.094-0.87-0.465-1.088
			c-0.217-0.125-0.444-0.133-0.617-0.035c-0.118,0.066-0.212,0.183-0.257,0.34c-2.082,7.022-5.391,13.193-9.837,18.342
			c-9.855,11.423-24.466,16.456-40.25,13.976l2.855-2.584L242.059,200.271z"/>
	</g>
</g>
<g id="Layer_2">
	<g>
		<g>
			<g>
				<path fill="#799DC4" d="M140.105,332.285h-7.492l-1.777,5.127h-2.748l7.178-19.906h2.311l7.027,19.906h-2.748L140.105,332.285z
					 M133.393,330.029h5.947l-2.898-8.545h-0.082L133.393,330.029z"/>
			</g>
			<g>
				<path fill="#799DC4" d="M154.16,324.998l-1.381-0.082c-0.711,0-1.311,0.169-1.798,0.506c-0.488,0.337-0.864,0.812-1.128,1.422
					v10.568h-2.693v-14.793h2.406l0.26,2.16c0.419-0.766,0.937-1.362,1.552-1.791c0.615-0.428,1.324-0.643,2.126-0.643
					c0.2,0,0.392,0.016,0.574,0.048c0.182,0.032,0.333,0.066,0.451,0.103L154.16,324.998z"/>
			</g>
			<g>
				<path fill="#799DC4" d="M159.369,322.619l0.191,1.941c0.483-0.702,1.096-1.246,1.839-1.634c0.743-0.387,1.606-0.581,2.591-0.581
					s1.83,0.228,2.536,0.684c0.706,0.456,1.237,1.14,1.593,2.051c0.474-0.848,1.091-1.515,1.853-2.003
					c0.761-0.487,1.652-0.731,2.673-0.731c1.504,0,2.693,0.518,3.568,1.552c0.875,1.035,1.313,2.591,1.313,4.669v8.846h-2.693
					v-8.873c0-1.458-0.251-2.49-0.752-3.097c-0.501-0.606-1.249-0.909-2.242-0.909c-0.921,0-1.666,0.319-2.235,0.957
					c-0.57,0.638-0.905,1.445-1.005,2.42v0.109v9.393h-2.707v-8.873c0-1.385-0.258-2.399-0.772-3.042
					c-0.515-0.643-1.256-0.964-2.222-0.964c-0.82,0-1.495,0.169-2.023,0.506c-0.529,0.337-0.935,0.812-1.217,1.422v10.951h-2.693
					v-14.793H159.369z"/>
			</g>
			<g>
				<path fill="#799DC4" d="M187.561,337.699c-2.124,0-3.78-0.679-4.97-2.037c-1.189-1.358-1.784-3.145-1.784-5.359v-0.602
					c0-2.124,0.613-3.88,1.839-5.271c1.226-1.39,2.723-2.085,4.491-2.085c1.978,0,3.461,0.615,4.45,1.846
					c0.989,1.23,1.483,2.867,1.483,4.908v1.422h-9.461l-0.041,0.068c0,1.486,0.328,2.691,0.984,3.616
					c0.656,0.925,1.659,1.388,3.008,1.388c0.911,0,1.711-0.13,2.399-0.39c0.688-0.26,1.278-0.617,1.771-1.073l1.053,1.75
					c-0.529,0.511-1.226,0.941-2.092,1.292C189.825,337.523,188.782,337.699,187.561,337.699z M187.137,324.464
					c-0.939,0-1.716,0.362-2.331,1.087s-0.991,1.652-1.128,2.782l0.027,0.068h6.672v-0.219c0-1.075-0.265-1.964-0.793-2.666
					C189.055,324.815,188.239,324.464,187.137,324.464z"/>
			</g>
			<g>
				<path fill="#799DC4" d="M198.498,322.619l0.191,2.201c0.492-0.784,1.109-1.392,1.853-1.825c0.743-0.433,1.588-0.649,2.536-0.649
					c1.595,0,2.83,0.467,3.705,1.401c0.875,0.935,1.313,2.377,1.313,4.327v9.338h-2.693v-9.283c0-1.303-0.258-2.229-0.772-2.775
					c-0.515-0.547-1.301-0.82-2.358-0.82c-0.83,0-1.534,0.167-2.112,0.499c-0.579,0.333-1.037,0.8-1.374,1.401v10.979h-2.693
					v-14.793H198.498z"/>
			</g>
			<g>
				<path fill="#799DC4" d="M214.918,318.832h-2.693v-2.748h2.693V318.832z M214.918,337.412h-2.693v-14.793h2.693V337.412z"/>
			</g>
			<g>
				<path fill="#799DC4" d="M228.152,337.412c-0.091-0.446-0.162-0.841-0.212-1.183c-0.05-0.342-0.08-0.686-0.089-1.032
					c-0.501,0.711-1.155,1.306-1.962,1.784s-1.675,0.718-2.604,0.718c-1.541,0-2.714-0.394-3.521-1.183
					c-0.807-0.788-1.21-1.875-1.21-3.261c0-1.413,0.572-2.518,1.716-3.315c1.144-0.797,2.695-1.196,4.655-1.196h2.926v-1.463
					c0-0.866-0.265-1.552-0.793-2.058c-0.529-0.506-1.276-0.759-2.242-0.759c-0.875,0-1.582,0.219-2.119,0.656
					c-0.538,0.438-0.807,0.962-0.807,1.572l-2.557,0.027l-0.027-0.082c-0.064-1.075,0.439-2.06,1.511-2.953
					c1.071-0.893,2.454-1.34,4.149-1.34c1.677,0,3.026,0.426,4.047,1.278c1.021,0.853,1.531,2.081,1.531,3.685v7.123
					c0,0.529,0.027,1.039,0.082,1.531s0.155,0.976,0.301,1.449H228.152z M223.682,335.443c0.975,0,1.854-0.25,2.639-0.752
					c0.784-0.501,1.294-1.075,1.531-1.723v-2.406h-3.021c-1.085,0-1.953,0.273-2.604,0.82c-0.652,0.547-0.978,1.189-0.978,1.928
					c0,0.656,0.205,1.176,0.615,1.559S222.879,335.443,223.682,335.443z"/>
			</g>
		</g>
		<g>
			<g>
				<path fill="#A7A9AC" d="M103.723,277.604v4.848h-1.635v-12.086h4.624c1.29,0,2.292,0.332,3.009,0.996
					c0.716,0.664,1.075,1.538,1.075,2.623c0,1.096-0.358,1.973-1.075,2.631c-0.717,0.659-1.72,0.988-3.009,0.988H103.723z
					 M103.723,276.326h2.988c0.819,0,1.431-0.22,1.834-0.66c0.404-0.439,0.606-0.994,0.606-1.664s-0.204-1.229-0.61-1.677
					c-0.407-0.448-1.017-0.672-1.831-0.672h-2.988V276.326z"/>
			</g>
			<g>
				<path fill="#A7A9AC" d="M117.25,282.452c-0.055-0.271-0.098-0.511-0.129-0.718c-0.03-0.208-0.048-0.417-0.054-0.627
					c-0.304,0.432-0.701,0.793-1.191,1.083c-0.489,0.291-1.017,0.436-1.581,0.436c-0.935,0-1.647-0.239-2.138-0.718
					c-0.489-0.479-0.734-1.139-0.734-1.979c0-0.857,0.347-1.528,1.042-2.013c0.694-0.484,1.636-0.727,2.826-0.727h1.776v-0.888
					c0-0.526-0.161-0.942-0.481-1.25c-0.321-0.307-0.775-0.461-1.361-0.461c-0.531,0-0.96,0.133-1.287,0.398s-0.49,0.584-0.49,0.955
					l-1.552,0.017l-0.017-0.05c-0.039-0.653,0.267-1.251,0.917-1.793c0.65-0.542,1.49-0.813,2.519-0.813
					c1.018,0,1.837,0.259,2.457,0.776s0.93,1.263,0.93,2.236v4.325c0,0.321,0.017,0.631,0.05,0.93s0.094,0.592,0.183,0.88H117.25z
					 M114.536,281.257c0.592,0,1.126-0.152,1.602-0.457c0.476-0.304,0.786-0.652,0.93-1.045v-1.461h-1.834
					c-0.659,0-1.186,0.166-1.582,0.498c-0.396,0.332-0.593,0.722-0.593,1.17c0,0.398,0.125,0.714,0.374,0.946
					S114.049,281.257,114.536,281.257z"/>
			</g>
			<g>
				<path fill="#A7A9AC" d="M124.477,274.915l-0.838-0.05c-0.432,0-0.795,0.103-1.092,0.308c-0.296,0.204-0.524,0.492-0.685,0.863
					v6.416h-1.635v-8.981h1.461l0.158,1.312c0.254-0.465,0.568-0.827,0.942-1.088c0.373-0.26,0.804-0.39,1.291-0.39
					c0.122,0,0.238,0.01,0.349,0.029s0.202,0.04,0.274,0.062L124.477,274.915z"/>
			</g>
			<g>
				<path fill="#A7A9AC" d="M127.744,271.304v2.167h1.702v1.212h-1.702v5.453c0,0.421,0.087,0.717,0.261,0.889
					c0.175,0.172,0.406,0.258,0.693,0.258c0.094,0,0.199-0.013,0.315-0.038c0.116-0.024,0.213-0.051,0.291-0.079l0.224,1.121
					c-0.122,0.1-0.302,0.182-0.54,0.245s-0.473,0.095-0.706,0.095c-0.664,0-1.192-0.2-1.585-0.602s-0.589-1.03-0.589-1.889v-5.453
					h-1.428v-1.212h1.428v-2.167H127.744z"/>
			</g>
			<g>
				<path fill="#A7A9AC" d="M132.115,271.171h-1.635v-1.668h1.635V271.171z M132.115,282.452h-1.635v-8.981h1.635V282.452z"/>
			</g>
			<g>
				<path fill="#A7A9AC" d="M137.35,281.349c0.503,0,0.943-0.168,1.32-0.503s0.564-0.745,0.564-1.232h1.478l0.025,0.05
					c0.022,0.774-0.31,1.462-0.996,2.063s-1.483,0.9-2.391,0.9c-1.262,0-2.236-0.429-2.922-1.286s-1.029-1.926-1.029-3.204v-0.349
					c0-1.268,0.344-2.331,1.034-3.191c0.688-0.86,1.661-1.291,2.917-1.291c1.001,0,1.822,0.31,2.461,0.93
					c0.639,0.62,0.947,1.381,0.925,2.282l-0.017,0.051h-1.486c0-0.549-0.179-1.015-0.535-1.399
					c-0.357-0.385-0.807-0.577-1.349-0.577c-0.802,0-1.388,0.312-1.755,0.935c-0.368,0.622-0.552,1.376-0.552,2.262v0.349
					c0,0.902,0.181,1.663,0.543,2.283C135.948,281.038,136.536,281.349,137.35,281.349z"/>
			</g>
			<g>
				<path fill="#A7A9AC" d="M143.597,271.171h-1.635v-1.668h1.635V271.171z M143.597,282.452h-1.635v-8.981h1.635V282.452z"/>
			</g>
			<g>
				<path fill="#A7A9AC" d="M152.915,278.302c0,1.295-0.31,2.34-0.93,3.134s-1.475,1.19-2.565,1.19
					c-0.553,0-1.039-0.092-1.457-0.277c-0.417-0.186-0.773-0.464-1.066-0.834v4.391h-1.635v-12.435h1.253l0.257,1.162
					c0.293-0.432,0.659-0.761,1.096-0.987c0.437-0.228,0.946-0.341,1.527-0.341c1.112,0,1.977,0.441,2.594,1.324
					c0.617,0.883,0.925,2.049,0.925,3.499V278.302z M151.28,278.128c0-1.019-0.201-1.855-0.602-2.512
					c-0.401-0.655-0.992-0.983-1.772-0.983c-0.47,0-0.872,0.106-1.204,0.319s-0.601,0.505-0.805,0.876v4.341
					c0.205,0.371,0.473,0.66,0.805,0.868c0.332,0.207,0.739,0.312,1.22,0.312c0.775,0,1.361-0.284,1.76-0.852
					s0.598-1.299,0.598-2.195V278.128z"/>
			</g>
			<g>
				<path fill="#A7A9AC" d="M159.594,282.452c-0.055-0.271-0.098-0.511-0.129-0.718c-0.03-0.208-0.048-0.417-0.054-0.627
					c-0.304,0.432-0.701,0.793-1.191,1.083c-0.489,0.291-1.017,0.436-1.581,0.436c-0.935,0-1.647-0.239-2.138-0.718
					c-0.489-0.479-0.734-1.139-0.734-1.979c0-0.857,0.347-1.528,1.042-2.013c0.694-0.484,1.636-0.727,2.826-0.727h1.776v-0.888
					c0-0.526-0.161-0.942-0.481-1.25c-0.321-0.307-0.775-0.461-1.361-0.461c-0.531,0-0.96,0.133-1.287,0.398s-0.49,0.584-0.49,0.955
					l-1.552,0.017l-0.017-0.05c-0.039-0.653,0.267-1.251,0.917-1.793c0.65-0.542,1.49-0.813,2.519-0.813
					c1.018,0,1.837,0.259,2.457,0.776s0.93,1.263,0.93,2.236v4.325c0,0.321,0.017,0.631,0.05,0.93s0.094,0.592,0.183,0.88H159.594z
					 M156.88,281.257c0.592,0,1.126-0.152,1.602-0.457c0.476-0.304,0.786-0.652,0.93-1.045v-1.461h-1.834
					c-0.659,0-1.186,0.166-1.582,0.498c-0.396,0.332-0.593,0.722-0.593,1.17c0,0.398,0.125,0.714,0.374,0.946
					S156.393,281.257,156.88,281.257z"/>
			</g>
			<g>
				<path fill="#A7A9AC" d="M164.845,271.304v2.167h1.702v1.212h-1.702v5.453c0,0.421,0.087,0.717,0.261,0.889
					c0.175,0.172,0.406,0.258,0.693,0.258c0.094,0,0.199-0.013,0.315-0.038c0.116-0.024,0.213-0.051,0.291-0.079l0.224,1.121
					c-0.122,0.1-0.302,0.182-0.54,0.245s-0.473,0.095-0.706,0.095c-0.664,0-1.192-0.2-1.585-0.602s-0.589-1.03-0.589-1.889v-5.453
					h-1.428v-1.212h1.428v-2.167H164.845z"/>
			</g>
			<g>
				<path fill="#A7A9AC" d="M169.216,271.171h-1.635v-1.668h1.635V271.171z M169.216,282.452h-1.635v-8.981h1.635V282.452z"/>
			</g>
			<g>
				<path fill="#A7A9AC" d="M170.5,277.878c0-1.328,0.36-2.422,1.079-3.282s1.696-1.291,2.93-1.291c1.245,0,2.229,0.429,2.951,1.286
					c0.722,0.858,1.083,1.954,1.083,3.287v0.184c0,1.339-0.36,2.435-1.079,3.287c-0.719,0.852-1.699,1.277-2.938,1.277
					s-2.221-0.427-2.942-1.282c-0.723-0.854-1.083-1.949-1.083-3.282V277.878z M172.135,278.062c0,0.951,0.201,1.737,0.602,2.357
					c0.401,0.619,0.998,0.93,1.789,0.93c0.78,0,1.373-0.311,1.776-0.93c0.404-0.62,0.606-1.406,0.606-2.357v-0.184
					c0-0.94-0.204-1.724-0.61-2.349c-0.407-0.625-1.003-0.938-1.789-0.938c-0.78,0-1.371,0.313-1.772,0.938
					c-0.401,0.625-0.602,1.408-0.602,2.349V278.062z"/>
			</g>
			<g>
				<path fill="#A7A9AC" d="M181.154,273.471l0.116,1.337c0.299-0.477,0.674-0.846,1.125-1.108c0.451-0.263,0.964-0.395,1.54-0.395
					c0.968,0,1.718,0.283,2.25,0.851s0.797,1.443,0.797,2.627v5.67h-1.635v-5.637c0-0.791-0.156-1.353-0.469-1.685
					c-0.313-0.332-0.79-0.498-1.432-0.498c-0.503,0-0.931,0.101-1.283,0.303c-0.351,0.202-0.629,0.485-0.834,0.851v6.666h-1.635
					v-8.981H181.154z"/>
			</g>
			<g>
				<path fill="#A7A9AC" d="M191.499,277.878c0-1.328,0.36-2.422,1.079-3.282s1.696-1.291,2.93-1.291
					c1.245,0,2.229,0.429,2.951,1.286c0.722,0.858,1.083,1.954,1.083,3.287v0.184c0,1.339-0.36,2.435-1.079,3.287
					c-0.719,0.852-1.699,1.277-2.938,1.277s-2.221-0.427-2.942-1.282c-0.723-0.854-1.083-1.949-1.083-3.282V277.878z
					 M193.134,278.062c0,0.951,0.201,1.737,0.602,2.357c0.401,0.619,0.998,0.93,1.789,0.93c0.78,0,1.373-0.311,1.776-0.93
					c0.404-0.62,0.606-1.406,0.606-2.357v-0.184c0-0.94-0.204-1.724-0.61-2.349c-0.407-0.625-1.003-0.938-1.789-0.938
					c-0.78,0-1.371,0.313-1.772,0.938c-0.401,0.625-0.602,1.408-0.602,2.349V278.062z"/>
			</g>
			<g>
				<path fill="#A7A9AC" d="M201.374,282.452v-7.77h-1.403v-1.212h1.403v-1.138c0-0.957,0.25-1.697,0.751-2.22
					c0.5-0.523,1.199-0.784,2.096-0.784c0.188,0,0.378,0.015,0.568,0.045c0.191,0.03,0.403,0.073,0.635,0.129l-0.199,1.245
					c-0.1-0.022-0.22-0.042-0.361-0.058c-0.142-0.018-0.29-0.025-0.444-0.025c-0.476,0-0.83,0.143-1.063,0.428
					s-0.349,0.698-0.349,1.24v1.138h1.627v1.212h-1.627v7.77H201.374z"/>
			</g>
			<g>
				<path fill="#A7A9AC" d="M211.112,279.182l0.208,1.153h0.05l0.216-1.153l1.793-5.711h1.312l1.801,5.711l0.232,1.286h0.05
					l0.266-1.286l1.328-5.711h1.71l-2.606,8.981h-1.32l-1.776-5.471l-0.34-1.428h-0.05l-0.315,1.428l-1.743,5.471h-1.32
					l-2.606-8.981h1.702L211.112,279.182z"/>
			</g>
			<g>
				<path fill="#A7A9AC" d="M220.447,277.878c0-1.328,0.36-2.422,1.079-3.282s1.696-1.291,2.93-1.291
					c1.245,0,2.229,0.429,2.951,1.286c0.722,0.858,1.083,1.954,1.083,3.287v0.184c0,1.339-0.36,2.435-1.079,3.287
					c-0.719,0.852-1.699,1.277-2.938,1.277s-2.221-0.427-2.942-1.282c-0.723-0.854-1.083-1.949-1.083-3.282V277.878z
					 M222.083,278.062c0,0.951,0.201,1.737,0.602,2.357c0.401,0.619,0.998,0.93,1.789,0.93c0.78,0,1.373-0.311,1.776-0.93
					c0.404-0.62,0.606-1.406,0.606-2.357v-0.184c0-0.94-0.204-1.724-0.61-2.349c-0.407-0.625-1.003-0.938-1.789-0.938
					c-0.78,0-1.371,0.313-1.772,0.938c-0.401,0.625-0.602,1.408-0.602,2.349V278.062z"/>
			</g>
			<g>
				<path fill="#A7A9AC" d="M231.102,273.471l0.116,1.179c0.293-0.426,0.666-0.757,1.117-0.992c0.451-0.235,0.975-0.353,1.573-0.353
					s1.111,0.139,1.54,0.415c0.429,0.276,0.751,0.691,0.967,1.245c0.288-0.515,0.663-0.92,1.125-1.216
					c0.462-0.296,1.003-0.444,1.623-0.444c0.913,0,1.635,0.314,2.167,0.942s0.797,1.572,0.797,2.834v5.371h-1.635v-5.387
					c0-0.886-0.152-1.513-0.457-1.881s-0.758-0.552-1.361-0.552c-0.559,0-1.011,0.193-1.357,0.581
					c-0.346,0.388-0.549,0.877-0.61,1.469v0.066v5.703h-1.644v-5.387c0-0.842-0.156-1.457-0.469-1.848
					c-0.313-0.39-0.763-0.585-1.349-0.585c-0.498,0-0.908,0.103-1.229,0.308c-0.321,0.204-0.567,0.492-0.739,0.863v6.648h-1.635
					v-8.981H231.102z"/>
			</g>
			<g>
				<path fill="#A7A9AC" d="M247.368,282.626c-1.29,0-2.295-0.412-3.017-1.236c-0.723-0.824-1.083-1.909-1.083-3.254v-0.365
					c0-1.289,0.372-2.356,1.117-3.2c0.744-0.844,1.653-1.266,2.727-1.266c1.201,0,2.102,0.374,2.702,1.12
					c0.6,0.748,0.9,1.741,0.9,2.98v0.863h-5.744l-0.025,0.041c0,0.902,0.199,1.635,0.598,2.196s1.007,0.843,1.826,0.843
					c0.553,0,1.039-0.079,1.457-0.237c0.418-0.157,0.776-0.375,1.075-0.651l0.639,1.063c-0.321,0.31-0.744,0.571-1.27,0.784
					S248.11,282.626,247.368,282.626z M247.111,274.591c-0.57,0-1.042,0.221-1.415,0.66c-0.374,0.44-0.602,1.003-0.685,1.689
					l0.017,0.041h4.051v-0.133c0-0.652-0.161-1.192-0.481-1.618S247.78,274.591,247.111,274.591z"/>
			</g>
			<g>
				<path fill="#A7A9AC" d="M253.159,273.471l0.116,1.337c0.299-0.477,0.674-0.846,1.125-1.108c0.451-0.263,0.964-0.395,1.54-0.395
					c0.968,0,1.718,0.283,2.25,0.851s0.797,1.443,0.797,2.627v5.67h-1.635v-5.637c0-0.791-0.156-1.353-0.469-1.685
					c-0.313-0.332-0.79-0.498-1.432-0.498c-0.503,0-0.931,0.101-1.283,0.303c-0.351,0.202-0.629,0.485-0.834,0.851v6.666h-1.635
					v-8.981H253.159z"/>
			</g>
			<g>
				<path fill="#A7A9AC" d="M112.488,291.571h-1.635v-1.668h1.635V291.571z M112.488,302.853h-1.635v-8.981h1.635V302.853z"/>
			</g>
			<g>
				<path fill="#A7A9AC" d="M115.614,293.871l0.116,1.337c0.299-0.477,0.674-0.846,1.125-1.108c0.451-0.263,0.964-0.395,1.54-0.395
					c0.968,0,1.718,0.283,2.25,0.851s0.797,1.443,0.797,2.627v5.67h-1.635v-5.637c0-0.791-0.156-1.353-0.469-1.685
					c-0.313-0.332-0.79-0.498-1.432-0.498c-0.503,0-0.931,0.101-1.283,0.303c-0.351,0.202-0.629,0.485-0.834,0.851v6.666h-1.635
					v-8.981H115.614z"/>
			</g>
			<g>
				<path fill="#A7A9AC" d="M128.2,301.574h5.894v1.278h-7.529v-12.086h1.635V301.574z"/>
			</g>
			<g>
				<path fill="#A7A9AC" d="M134.455,298.278c0-1.328,0.36-2.422,1.079-3.282s1.696-1.291,2.93-1.291
					c1.245,0,2.229,0.429,2.951,1.286c0.722,0.858,1.083,1.954,1.083,3.287v0.184c0,1.339-0.36,2.435-1.079,3.287
					c-0.719,0.852-1.699,1.277-2.938,1.277s-2.221-0.427-2.942-1.282c-0.723-0.854-1.083-1.949-1.083-3.282V298.278z
					 M136.09,298.462c0,0.951,0.201,1.737,0.602,2.357c0.401,0.619,0.998,0.93,1.789,0.93c0.78,0,1.373-0.311,1.776-0.93
					c0.404-0.62,0.606-1.406,0.606-2.357v-0.184c0-0.94-0.204-1.724-0.61-2.349c-0.407-0.625-1.003-0.938-1.789-0.938
					c-0.78,0-1.371,0.313-1.772,0.938c-0.401,0.625-0.602,1.408-0.602,2.349V298.462z"/>
			</g>
			<g>
				<path fill="#A7A9AC" d="M147.218,301.749c0.503,0,0.943-0.168,1.32-0.503s0.564-0.745,0.564-1.232h1.478l0.025,0.05
					c0.022,0.774-0.31,1.462-0.996,2.063s-1.483,0.9-2.391,0.9c-1.262,0-2.236-0.429-2.922-1.286s-1.029-1.926-1.029-3.204v-0.349
					c0-1.268,0.344-2.331,1.034-3.191c0.688-0.86,1.661-1.291,2.917-1.291c1.001,0,1.822,0.31,2.461,0.93
					c0.639,0.62,0.947,1.381,0.925,2.282l-0.017,0.051h-1.486c0-0.549-0.179-1.015-0.535-1.399
					c-0.357-0.385-0.807-0.577-1.349-0.577c-0.802,0-1.388,0.312-1.755,0.935c-0.368,0.622-0.552,1.376-0.552,2.262v0.349
					c0,0.902,0.181,1.663,0.543,2.283C145.817,301.438,146.405,301.749,147.218,301.749z"/>
			</g>
			<g>
				<path fill="#A7A9AC" d="M157.217,302.853c-0.055-0.271-0.098-0.511-0.129-0.718c-0.03-0.208-0.048-0.417-0.054-0.627
					c-0.304,0.432-0.701,0.793-1.191,1.083c-0.489,0.291-1.017,0.436-1.581,0.436c-0.935,0-1.647-0.239-2.138-0.718
					c-0.489-0.479-0.734-1.139-0.734-1.979c0-0.857,0.347-1.528,1.042-2.013c0.694-0.484,1.636-0.727,2.826-0.727h1.776v-0.888
					c0-0.526-0.161-0.942-0.481-1.25c-0.321-0.307-0.775-0.461-1.361-0.461c-0.531,0-0.96,0.133-1.287,0.398s-0.49,0.584-0.49,0.955
					l-1.552,0.017l-0.017-0.05c-0.039-0.653,0.267-1.251,0.917-1.793c0.65-0.542,1.49-0.813,2.519-0.813
					c1.018,0,1.837,0.259,2.457,0.776s0.93,1.263,0.93,2.236v4.325c0,0.321,0.017,0.631,0.05,0.93s0.094,0.592,0.183,0.88H157.217z
					 M154.503,301.657c0.592,0,1.126-0.152,1.602-0.457c0.476-0.304,0.786-0.652,0.93-1.045v-1.461H155.2
					c-0.659,0-1.186,0.166-1.582,0.498c-0.396,0.332-0.593,0.722-0.593,1.17c0,0.398,0.125,0.714,0.374,0.946
					S154.016,301.657,154.503,301.657z"/>
			</g>
			<g>
				<path fill="#A7A9AC" d="M161.962,302.853h-1.635v-12.949h1.635V302.853z"/>
			</g>
			<g>
				<path fill="#A7A9AC" d="M175.917,301.226c-0.288,0.448-0.787,0.86-1.499,1.236c-0.711,0.377-1.634,0.564-2.768,0.564
					c-1.395,0-2.548-0.462-3.461-1.386s-1.37-2.119-1.37-3.586v-2.49c0-1.467,0.44-2.662,1.32-3.586s2.014-1.386,3.403-1.386
					c1.345,0,2.407,0.357,3.188,1.074s1.159,1.629,1.137,2.735l-0.017,0.05h-1.569c0-0.736-0.238-1.349-0.714-1.839
					c-0.476-0.489-1.151-0.734-2.025-0.734c-0.924,0-1.668,0.346-2.233,1.038c-0.564,0.691-0.847,1.568-0.847,2.631v2.507
					c0,1.073,0.299,1.958,0.896,2.652s1.361,1.042,2.291,1.042c0.714,0,1.28-0.093,1.698-0.278c0.417-0.186,0.729-0.405,0.934-0.66
					v-2.723h-2.739v-1.278h4.375V301.226z"/>
			</g>
			<g>
				<path fill="#A7A9AC" d="M177.284,298.278c0-1.328,0.36-2.422,1.079-3.282s1.696-1.291,2.93-1.291
					c1.245,0,2.229,0.429,2.951,1.286c0.722,0.858,1.083,1.954,1.083,3.287v0.184c0,1.339-0.36,2.435-1.079,3.287
					c-0.719,0.852-1.699,1.277-2.938,1.277s-2.221-0.427-2.942-1.282c-0.723-0.854-1.083-1.949-1.083-3.282V298.278z
					 M178.919,298.462c0,0.951,0.201,1.737,0.602,2.357c0.401,0.619,0.998,0.93,1.789,0.93c0.78,0,1.373-0.311,1.776-0.93
					c0.404-0.62,0.606-1.406,0.606-2.357v-0.184c0-0.94-0.204-1.724-0.61-2.349c-0.407-0.625-1.003-0.938-1.789-0.938
					c-0.78,0-1.371,0.313-1.772,0.938c-0.401,0.625-0.602,1.408-0.602,2.349V298.462z"/>
			</g>
			<g>
				<path fill="#A7A9AC" d="M189.35,300.204l0.141,0.631h0.05l0.158-0.631l2.067-6.333h1.668l-3.304,8.981h-1.237l-3.345-8.981
					h1.677L189.35,300.204z"/>
			</g>
			<g>
				<path fill="#A7A9AC" d="M197.664,303.026c-1.29,0-2.295-0.412-3.017-1.236c-0.723-0.824-1.083-1.909-1.083-3.254v-0.365
					c0-1.289,0.372-2.356,1.117-3.2c0.744-0.844,1.653-1.266,2.727-1.266c1.201,0,2.102,0.374,2.702,1.12
					c0.6,0.748,0.9,1.741,0.9,2.98v0.863h-5.744l-0.025,0.041c0,0.902,0.199,1.635,0.598,2.196s1.007,0.843,1.826,0.843
					c0.553,0,1.039-0.079,1.457-0.237c0.418-0.157,0.776-0.375,1.075-0.651l0.639,1.063c-0.321,0.31-0.744,0.571-1.27,0.784
					S198.405,303.026,197.664,303.026z M197.406,294.991c-0.57,0-1.042,0.221-1.415,0.66c-0.374,0.44-0.602,1.003-0.685,1.689
					l0.017,0.041h4.051v-0.133c0-0.652-0.161-1.192-0.481-1.618S198.076,294.991,197.406,294.991z"/>
			</g>
			<g>
				<path fill="#A7A9AC" d="M206.244,295.315l-0.838-0.05c-0.432,0-0.795,0.103-1.092,0.308c-0.296,0.204-0.524,0.492-0.685,0.863
					v6.416h-1.635v-8.981h1.461l0.158,1.312c0.254-0.465,0.568-0.827,0.942-1.088c0.373-0.26,0.804-0.39,1.291-0.39
					c0.122,0,0.238,0.01,0.349,0.029s0.202,0.04,0.274,0.062L206.244,295.315z"/>
			</g>
			<g>
				<path fill="#A7A9AC" d="M208.556,293.871l0.116,1.337c0.299-0.477,0.674-0.846,1.125-1.108c0.451-0.263,0.964-0.395,1.54-0.395
					c0.968,0,1.718,0.283,2.25,0.851s0.797,1.443,0.797,2.627v5.67h-1.635v-5.637c0-0.791-0.156-1.353-0.469-1.685
					c-0.313-0.332-0.79-0.498-1.432-0.498c-0.503,0-0.931,0.101-1.283,0.303c-0.351,0.202-0.629,0.485-0.834,0.851v6.666h-1.635
					v-8.981H208.556z"/>
			</g>
			<g>
				<path fill="#A7A9AC" d="M217.368,293.871l0.116,1.179c0.293-0.426,0.666-0.757,1.117-0.992c0.451-0.235,0.975-0.353,1.573-0.353
					s1.111,0.139,1.54,0.415c0.429,0.276,0.751,0.691,0.967,1.245c0.288-0.515,0.663-0.92,1.125-1.216
					c0.462-0.296,1.003-0.444,1.623-0.444c0.913,0,1.635,0.314,2.167,0.942s0.797,1.572,0.797,2.834v5.371h-1.635v-5.387
					c0-0.886-0.152-1.513-0.457-1.881s-0.758-0.552-1.361-0.552c-0.559,0-1.011,0.193-1.357,0.581
					c-0.346,0.388-0.549,0.877-0.61,1.469v0.066v5.703h-1.644v-5.387c0-0.842-0.156-1.457-0.469-1.848
					c-0.313-0.39-0.763-0.585-1.349-0.585c-0.498,0-0.908,0.103-1.229,0.308c-0.321,0.204-0.567,0.492-0.739,0.863v6.648h-1.635
					v-8.981H217.368z"/>
			</g>
			<g>
				<path fill="#A7A9AC" d="M233.634,303.026c-1.29,0-2.295-0.412-3.017-1.236c-0.723-0.824-1.083-1.909-1.083-3.254v-0.365
					c0-1.289,0.372-2.356,1.117-3.2c0.744-0.844,1.653-1.266,2.727-1.266c1.201,0,2.102,0.374,2.702,1.12
					c0.6,0.748,0.9,1.741,0.9,2.98v0.863h-5.744l-0.025,0.041c0,0.902,0.199,1.635,0.598,2.196s1.007,0.843,1.826,0.843
					c0.553,0,1.039-0.079,1.457-0.237c0.418-0.157,0.776-0.375,1.075-0.651l0.639,1.063c-0.321,0.31-0.744,0.571-1.27,0.784
					S234.376,303.026,233.634,303.026z M233.377,294.991c-0.57,0-1.042,0.221-1.415,0.66c-0.374,0.44-0.602,1.003-0.685,1.689
					l0.017,0.041h4.051v-0.133c0-0.652-0.161-1.192-0.481-1.618S234.046,294.991,233.377,294.991z"/>
			</g>
			<g>
				<path fill="#A7A9AC" d="M239.425,293.871l0.116,1.337c0.299-0.477,0.674-0.846,1.125-1.108c0.451-0.263,0.964-0.395,1.54-0.395
					c0.968,0,1.718,0.283,2.25,0.851s0.797,1.443,0.797,2.627v5.67h-1.635v-5.637c0-0.791-0.156-1.353-0.469-1.685
					c-0.313-0.332-0.79-0.498-1.432-0.498c-0.503,0-0.931,0.101-1.283,0.303c-0.351,0.202-0.629,0.485-0.834,0.851v6.666h-1.635
					v-8.981H239.425z"/>
			</g>
			<g>
				<path fill="#A7A9AC" d="M249.051,291.704v2.167h1.702v1.212h-1.702v5.453c0,0.421,0.087,0.717,0.261,0.889
					c0.175,0.172,0.406,0.258,0.693,0.258c0.094,0,0.199-0.013,0.315-0.038c0.116-0.024,0.213-0.051,0.291-0.079l0.224,1.121
					c-0.122,0.1-0.302,0.182-0.54,0.245s-0.473,0.095-0.706,0.095c-0.664,0-1.192-0.2-1.585-0.602s-0.589-1.03-0.589-1.889v-5.453
					h-1.428v-1.212h1.428v-2.167H249.051z"/>
			</g>
		</g>
	</g>
	<g>
		<g>
			<g>
				<path fill="#0074A8" d="M114.264,246.167l0.22,1.679l0.053,0.009l0.299-1.688l2.268-8.358h1.696l2.285,8.358l0.299,1.714h0.053
					l0.237-1.714l1.828-8.358h1.881l-3.094,12.797h-1.547l-2.558-8.877l-0.193-1.151h-0.053l-0.185,1.151l-2.593,8.877h-1.547
					l-3.085-12.797h1.872L114.264,246.167z"/>
			</g>
			<g>
				<path fill="#0074A8" d="M136.606,245.35c0,1.564-0.485,2.862-1.455,3.894s-2.228,1.547-3.775,1.547
					c-1.494,0-2.708-0.516-3.643-1.547s-1.402-2.329-1.402-3.894v-2.276c0-1.559,0.467-2.856,1.402-3.894s2.149-1.556,3.643-1.556
					c1.547,0,2.805,0.517,3.775,1.551s1.455,2.333,1.455,3.898V245.35z M134.875,243.056c0-1.172-0.316-2.133-0.949-2.883
					s-1.482-1.125-2.549-1.125c-1.008,0-1.812,0.375-2.413,1.125s-0.901,1.711-0.901,2.883v2.294c0,1.184,0.3,2.15,0.901,2.9
					s1.405,1.125,2.413,1.125c1.072,0,1.923-0.374,2.553-1.121s0.945-1.715,0.945-2.905V243.056z"/>
			</g>
			<g>
				<path fill="#0074A8" d="M145.088,248.206h0.053l4.087-10.397h2.153v12.797h-1.731v-9.589l-0.053-0.009l-3.876,9.598h-1.204
					l-3.99-9.914l-0.053,0.009v9.905h-1.731v-12.797h2.276L145.088,248.206z"/>
			</g>
			<g>
				<path fill="#0074A8" d="M161.005,244.673h-5.256v4.579h6.152v1.354h-7.884v-12.797h7.787v1.362h-6.056v4.14h5.256V244.673z"/>
			</g>
			<g>
				<path fill="#0074A8" d="M173.267,250.605h-1.731l-6.161-9.773l-0.053,0.018v9.756h-1.731v-12.797h1.731l6.161,9.765l0.053-0.018
					v-9.747h1.731V250.605z"/>
			</g>
			<g>
				<path fill="#0074A8" d="M187.004,244.673h-5.256v4.579h6.152v1.354h-7.884v-12.797h7.787v1.362h-6.056v4.14h5.256V244.673z"/>
			</g>
			<g>
				<path fill="#0074A8" d="M191.32,249.252h6.24v1.354h-7.972v-12.797h1.731V249.252z"/>
			</g>
			<g>
				<path fill="#0074A8" d="M206.112,244.673h-5.256v4.579h6.152v1.354h-7.884v-12.797h7.787v1.362h-6.056v4.14h5.256V244.673z"/>
			</g>
			<g>
				<path fill="#0074A8" d="M217.829,246.51l0.018,0.053c0.023,1.201-0.398,2.206-1.266,3.015s-2.013,1.213-3.437,1.213
					c-1.447,0-2.626-0.513-3.538-1.538s-1.367-2.326-1.367-3.902v-2.276c0-1.576,0.456-2.878,1.367-3.907s2.09-1.542,3.538-1.542
					s2.599,0.385,3.454,1.156s1.271,1.792,1.248,3.063l-0.018,0.053h-1.661c0-0.896-0.264-1.605-0.791-2.127
					s-1.271-0.782-2.232-0.782c-0.967,0-1.737,0.39-2.312,1.169s-0.861,1.746-0.861,2.9v2.294c0,1.166,0.287,2.139,0.861,2.918
					s1.345,1.169,2.312,1.169c0.961,0,1.705-0.259,2.232-0.778s0.791-1.235,0.791-2.149H217.829z"/>
			</g>
			<g>
				<path fill="#0074A8" d="M228.429,239.171h-4.219v11.435h-1.731v-11.435h-4.166v-1.362h10.116V239.171z"/>
			</g>
			<g>
				<path fill="#0074A8" d="M236.875,244.673h-5.256v4.579h6.152v1.354h-7.884v-12.797h7.787v1.362h-6.056v4.14h5.256V244.673z"/>
			</g>
			<g>
				<path fill="#0074A8" d="M239.459,250.605v-12.797h4.025c1.67,0,3.013,0.514,4.03,1.542s1.525,2.357,1.525,3.986v1.749
					c0,1.635-0.508,2.963-1.525,3.986s-2.36,1.534-4.03,1.534H239.459z M241.191,239.171v10.081h2.294
					c1.184,0,2.117-0.39,2.799-1.169s1.024-1.778,1.024-2.997v-1.767c0-1.207-0.341-2.2-1.024-2.979s-1.616-1.169-2.799-1.169
					H241.191z"/>
			</g>
		</g>
		<g>
			<g>
				<path fill="#0074A8" d="M172.209,214.969h-10.262v-40.18l-10.009,3.866v-8.527l19.187-7.841h1.084V214.969z"/>
			</g>
			<g>
				<path fill="#0074A8" d="M203.27,194.626c-2.168,2.216-4.541,3.324-7.118,3.324c-3.999,0-7.149-1.608-9.449-4.824
					s-3.45-7.509-3.45-12.881c0-3.469,0.65-6.642,1.951-9.521c1.301-2.878,3.113-5.113,5.438-6.703s4.92-2.385,7.787-2.385
					c2.963,0,5.601,0.879,7.913,2.638c2.313,1.759,4.106,4.282,5.384,7.57c1.276,3.288,1.915,7.028,1.915,11.219v3.722
					c0,8.961-1.97,15.965-5.908,21.011c-3.938,5.047-9.521,7.618-16.747,7.714h-1.048v-8.816h0.687
					c3.998-0.024,7.003-1.06,9.015-3.107C201.649,201.54,202.859,198.553,203.27,194.626z M198.753,189.929
					c1.975,0,3.528-1.354,4.661-4.062v-4.715c0-3.457-0.47-6.171-1.409-8.141s-2.156-2.956-3.649-2.956
					c-1.47,0-2.656,0.973-3.56,2.919c-0.903,1.947-1.354,4.322-1.354,7.126c0,3.046,0.47,5.446,1.409,7.198
					C195.79,189.053,197.091,189.929,198.753,189.929z"/>
			</g>
		</g>
		<g opacity="0.6">
			<g>
				<rect x="144" y="222.955" fill="#66ABCB" width="72" height="3"/>
			</g>
		</g>
	</g>
</g>
</svg>
