<?xml version="1.0" encoding="utf-8"?>
<!-- Generator: Adobe Illustrator 16.0.0, SVG Export Plug-In . SVG Version: 6.00 Build 0)  -->
<!DOCTYPE svg PUBLIC "-//W3C//DTD SVG 1.1//EN" "http://www.w3.org/Graphics/SVG/1.1/DTD/svg11.dtd">
<svg version="1.1" id="Layer_1" xmlns="http://www.w3.org/2000/svg" xmlns:xlink="http://www.w3.org/1999/xlink" x="0px" y="0px"
	 width="360px" height="190px" viewBox="0 0 360 190" enable-background="new 0 0 360 190" xml:space="preserve">
<g>
	<rect fill="#FABBBD" width="360" height="190"/>
</g>
<g>
	<g>
		<path fill="#EF353C" d="M155.082,76.375c0.001,0.023,0.004,0.048,0.004,0.078c-0.004-0.011-0.01-0.025-0.015-0.038
			C155.074,76.402,155.079,76.388,155.082,76.375"/>
	</g>
	<g id="phone">
		<g>
			<path fill="#EF353C" d="M156.27,46.007c0.054-0.022,0.108-0.045,0.164-0.059c0.06-0.021,0.118-0.034,0.177-0.041
				c0.949-0.099,1.89-0.197,2.838-0.294c1.971-0.205,3.943-0.41,5.915-0.613c0.106,0.136,0.211,0.279,0.318,0.413
				c0.594,0.31,1.234,0.587,1.612,1.141c0.564,0.833,1.238,1.65,1.716,2.533c0.446,0.818,0.749,1.749,1.114,2.606
				c0.28,0.659,0.662,1.333,0.84,2.03c0.431,1.712,1.005,3.427,1.183,5.188c0.182,1.848,0.406,3.669,0.406,5.519v3.454
				c0,0.745-0.238,1.527-0.367,2.263c-0.053,0.317-0.158,2.169-0.464,2.282c-0.894,0.328-1.786,0.65-2.675,0.974
				c-1.84,0.672-3.664,1.371-5.528,1.954c-0.105,0.031-0.205,0.069-0.301,0.117c-0.043,0.021-0.086,0.043-0.127,0.067
				c-0.048,0.028-0.096,0.052-0.144,0.082c-0.057,0.034-0.112,0.073-0.167,0.109c-0.024,0.018-0.05,0.036-0.078,0.056
				c-0.068,0.048-0.131,0.098-0.195,0.153l-6.24-29.931L156.27,46.007 M184.532,117.272c-0.265,0.177-0.528,0.355-0.792,0.533
				l15.084,25.566c0.081-0.009,0.17-0.015,0.26-0.027c0.006-0.001,0.012-0.001,0.019-0.001c0.046-0.007,0.09-0.019,0.137-0.03
				c0.014-0.004,0.027-0.007,0.039-0.01c0.051-0.018,0.102-0.039,0.143-0.07c1.676-1.304,3.355-2.603,5.031-3.902
				c0.386-0.3,0.634-0.71,0.925-1.105c0.76-1.026,1.524-2.047,2.285-3.075c0.528-0.71,1.057-1.42,1.585-2.133
				c0.192-0.26-0.342-1.694-0.406-1.995c-0.392-1.775-0.523-3.745-1.517-5.29c-0.564-0.886-1.132-1.771-1.698-2.657
				c-0.5-0.778-1.312-1.467-1.931-2.158c-1.204-1.345-2.567-2.521-3.907-3.74c-0.856-0.783-2.09-1.337-3.074-1.958
				c-1.021-0.649-1.921-1.06-3.059-1.498c-0.411-0.161-0.95-0.492-1.394-0.516c-0.359-0.02-0.718-0.042-1.079-0.061
				c-0.158-0.008-0.682-0.129-0.825-0.042c-0.483,0.318-0.971,0.63-1.458,0.941c-0.485,0.271-0.968,0.539-1.45,0.808
				c-0.697,0.39-1.339,0.998-1.964,1.573c-0.237-0.034-0.906,0.659-1.11,0.813C184.427,117.249,184.482,117.261,184.532,117.272
				 M148.255,95.783c1.753,3.966,3.506,7.927,5.262,11.894c0.598,1.357,1.552,2.635,2.309,3.908
				c1.112,1.884,2.226,3.764,3.344,5.646c0.531,0.892,1.186,1.726,1.782,2.582c1.466,2.115,2.938,4.231,4.405,6.34
				c1.487,2.143,2.908,4.298,4.524,6.322c0.346,0.535,0.717,1.058,1.157,1.468c0.141,0.135,0.287,0.273,0.43,0.408
				c1.378,1.55,2.757,3.101,4.136,4.649c1.089,1.222,2.446,2.269,3.649,3.378c0.865,0.797,2.771,2.554,2.842,2.621l13.778-0.157
				c0.025-0.002,0.053-0.005,0.076-0.006l-15.09-25.566c-0.072,0.048-0.146,0.097-0.218,0.146c-0.623-0.189-1.289-0.381-1.781-0.742
				c-0.872-0.636-1.744-1.273-2.616-1.91c-0.448-0.328-0.794-1.239-1.084-1.702c-0.944-1.499-2.042-2.973-2.852-4.551
				c-0.806-1.569-1.61-3.135-2.417-4.705c-3.698-7.196-7.335-14.417-10.956-21.657c-0.505-1.013-1.011-2.026-1.519-3.038
				c0.012-0.038,0.025-0.076,0.039-0.116c0.244-0.794,0.342-1.87,0.961-2.441c0.405-0.368,0.788-0.8,1.214-1.151L153.39,47.47
				c-0.409,0.184-0.806,0.56-1.133,0.779c-1.449,0.957-2.935,1.818-4.196,3.007c-0.937,0.881-1.865,1.767-2.801,2.651
				c-0.443,0.417-1.098,0.854-1.432,1.367c-1.156,1.784-2.313,3.567-3.469,5.354c-0.396,0.615-0.31,1.424-0.374,2.146
				c-0.047,0.494-0.153,0.974-0.047,1.461c0.922,4.319,1.842,8.638,2.761,12.952c0.628,2.941,1.179,5.837,2.118,8.692
				C145.899,89.199,146.842,92.584,148.255,95.783"/>
		</g>
	</g>
	<g id="sos">
		<g>
			<path fill="#EF353C" d="M188.36,84.872l-2.635,0.685c0-3.33-1.042-4.997-3.129-4.997c-1.279,0-1.92,0.78-1.92,2.342
				c0,1.153,1.101,2.391,3.304,3.716c3.376,2.051,5.067,4.654,5.067,7.809c0,5.029-2.152,7.544-6.451,7.544
				c-4.548,0-6.824-2.515-6.824-7.544l2.799-0.841c-0.038,0.488-0.056,0.945-0.056,1.373c0,1.295,0.362,2.426,1.094,3.386
				c0.728,0.957,1.589,1.435,2.582,1.435c1.311,0,1.97-0.827,1.97-2.476c0-1.108-1.06-2.331-3.176-3.672
				c-3.188-2.038-4.782-4.646-4.782-7.83c0-2.108,0.611-3.838,1.833-5.188c1.221-1.35,2.792-2.023,4.709-2.023
				C186.153,78.591,188.024,80.684,188.36,84.872 M197.94,80.536c1.211,0,1.818,3.238,1.818,9.71c0,6.475-0.606,9.709-1.818,9.709
				c-1.201,0-1.803-3.234-1.803-9.709C196.138,83.774,196.739,80.536,197.94,80.536 M197.955,78.564
				c-4.975,0-7.463,3.894-7.463,11.682c0,7.785,2.489,11.679,7.463,11.679c4.966,0,7.449-3.894,7.449-11.679
				C205.404,82.458,202.921,78.564,197.955,78.564 M219.424,84.872c-0.337-4.188-2.211-6.281-5.617-6.281
				c-1.917,0-3.485,0.673-4.705,2.023c-1.225,1.35-1.835,3.08-1.835,5.188c0,3.184,1.593,5.792,4.78,7.83
				c2.118,1.341,3.174,2.563,3.174,3.672c0,1.649-0.656,2.476-1.968,2.476c-0.991,0-1.853-0.478-2.58-1.435
				c-0.731-0.96-1.098-2.091-1.098-3.386c0-0.427,0.022-0.885,0.062-1.373l-2.804,0.841c0,5.029,2.278,7.544,6.827,7.544
				c4.298,0,6.448-2.515,6.448-7.544c0-3.155-1.686-5.758-5.064-7.809c-2.203-1.325-3.305-2.563-3.305-3.716
				c0-1.562,0.637-2.342,1.922-2.342c2.084,0,3.127,1.667,3.127,4.997L219.424,84.872"/>
		</g>
	</g>
</g>
</svg>
