<?xml version="1.0" encoding="utf-8"?>
<!-- Generator: Adobe Illustrator 16.0.0, SVG Export Plug-In . SVG Version: 6.00 Build 0)  -->
<!DOCTYPE svg PUBLIC "-//W3C//DTD SVG 1.1//EN" "http://www.w3.org/Graphics/SVG/1.1/DTD/svg11.dtd">
<svg version="1.1" xmlns="http://www.w3.org/2000/svg" xmlns:xlink="http://www.w3.org/1999/xlink" x="0px" y="0px" width="100%"
	 height="100%" viewBox="0 0 360 360" enable-background="new 0 0 360 360" xml:space="preserve" class="c-infographic-svg">
<g id="Layer_1">
	<g>
		<rect fill="#B7C7DF" width="360" height="360"/>
	</g>
	<g>
		<g id="person-left">
			<g>
				<path fill="#799DC4" d="M148.389,120.953l4.861-5.255c1.144-1.248,3.117-1.262,4.261-0.018l4.864,5.273H148.389z
					 M155.907,93.834l-2.609-0.648l-17.269,39.279l-17.262-39.271l-2.506,0.64c-10.254,2.566-17.407,11.772-17.407,22.341v13.872
					c0,2.732,2.143,4.917,4.87,4.917h64.623c2.729,0,5.048-2.185,5.048-4.917v-13.872C173.396,105.606,166.149,96.4,155.907,93.834
					 M136.199,125.279l5.768-14.643l-2.68-2.676c1.697-0.216,2.877-1.867,2.46-3.577l-1.18-4.93
					c-0.318-1.315-1.488-2.252-2.839-2.252h-3.17c-1.35,0-2.516,0.937-2.838,2.252l-1.184,4.922c-0.41,1.711,0.771,3.361,2.46,3.58
					l-2.68,2.676L136.199,125.279z M162.955,78.074c-0.072-3.432-0.416-6.66-0.912-9.622c-0.016-1.565-0.282-2.767-0.719-3.687
					c-1.324-5.937-3.131-10.363-4.204-12.732c-0.765-2.476-1.771-5.069-2.967-6.069h0.006c-1.788-3-5.644-5.866-8.022-7.311
					c-15.608-9.529-24.069,2.61-25.042,4.13c-1.077,0.382-6.372,2.67-7.859,9.664c-0.084,0.394-0.151,0.798-0.209,1.222
					c-0.914,2.762-3.342,11.261-3.622,24.41c-0.209,9.733-7.43,3.282-7.43,3.282c0.293,2.837,2.417,7.773,7.255,8.633
					c7.981,1.428,11.407-3.797,11.407-3.797l-0.053-0.244c4.018,5.133,9.388,8.638,15.388,8.638c6.245,0,11.799-3.792,15.863-9.262
					l-0.108,0.867c0,0,3.429,5.225,11.402,3.797c4.835-0.859,6.963-5.797,7.252-8.635C170.383,81.357,163.167,87.808,162.955,78.074
					z M135.973,90.289c-9.194,0-16.785-11.225-18.225-21.856c0.687-3.825,2.808-12.059,8.9-18.136
					c4.68,5.063,13.248,10.887,27.661,10.392c0.083,1.145,0.123,2.381,0.132,3.683l-0.947,7.615
					C151.048,81.42,144.149,90.289,135.973,90.289z"/>
			</g>
		</g>
		<g id="person-right">
			<g>
				<path fill="#1073A8" d="M236.139,120.953l4.861-5.255c1.144-1.248,3.117-1.262,4.261-0.018l4.864,5.273H236.139z
					 M243.657,93.834l-2.609-0.648l-17.269,39.279l-17.262-39.271l-2.506,0.64c-10.254,2.566-17.407,11.772-17.407,22.341v13.872
					c0,2.732,2.143,4.917,4.87,4.917h64.623c2.729,0,5.048-2.185,5.048-4.917v-13.872C261.146,105.606,253.899,96.4,243.657,93.834
					 M223.949,125.279l5.768-14.643l-2.68-2.676c1.697-0.216,2.877-1.867,2.46-3.577l-1.18-4.93
					c-0.318-1.315-1.488-2.252-2.839-2.252h-3.17c-1.35,0-2.516,0.937-2.838,2.252l-1.184,4.922c-0.41,1.711,0.771,3.361,2.46,3.58
					l-2.68,2.676L223.949,125.279z M250.705,78.074c-0.072-3.432-0.416-6.66-0.912-9.622c-0.016-1.565-0.282-2.767-0.719-3.687
					c-1.324-5.937-3.131-10.363-4.204-12.732c-0.765-2.476-1.771-5.069-2.967-6.069h0.006c-1.788-3-5.644-5.866-8.022-7.311
					c-15.608-9.529-24.069,2.61-25.042,4.13c-1.077,0.382-6.372,2.67-7.859,9.664c-0.084,0.394-0.151,0.798-0.209,1.222
					c-0.914,2.762-3.342,11.261-3.622,24.41c-0.209,9.733-7.43,3.282-7.43,3.282c0.293,2.837,2.417,7.773,7.255,8.633
					c7.981,1.428,11.407-3.797,11.407-3.797l-0.053-0.244c4.018,5.133,9.388,8.638,15.388,8.638c6.245,0,11.799-3.792,15.863-9.262
					l-0.108,0.867c0,0,3.429,5.225,11.402,3.797c4.835-0.859,6.963-5.797,7.252-8.635C258.133,81.357,250.917,87.808,250.705,78.074
					z M223.723,90.289c-9.194,0-16.785-11.225-18.225-21.856c0.687-3.825,2.808-12.059,8.9-18.136
					c4.68,5.063,13.248,10.887,27.661,10.392c0.083,1.145,0.123,2.381,0.132,3.683l-0.947,7.615
					C238.798,81.42,231.899,90.289,223.723,90.289z"/>
			</g>
		</g>
	</g>
</g>
<g id="Layer_2">
	<g>
		<path fill="#1073A8" d="M86.152,297.201h-5.391v14.611h-2.212v-14.611h-5.323v-1.741h12.926V297.201z"/>
		<path fill="#1073A8" d="M90.386,301.289c0.419-0.584,0.934-1.039,1.544-1.365c0.61-0.325,1.286-0.488,2.027-0.488
			c1.295,0,2.304,0.389,3.026,1.168c0.723,0.779,1.084,1.977,1.084,3.594v7.614h-2.212v-7.637c0-1.003-0.215-1.745-0.646-2.224
			c-0.43-0.479-1.072-0.719-1.926-0.719c-0.659,0-1.231,0.129-1.718,0.388c-0.487,0.258-0.88,0.619-1.179,1.083v9.108h-2.212v-17.52
			h2.212V301.289z"/>
		<path fill="#1073A8" d="M106.277,312.048c-1.745,0-3.105-0.558-4.083-1.673c-0.977-1.116-1.465-2.583-1.465-4.402v-0.494
			c0-1.745,0.503-3.188,1.51-4.329c1.007-1.142,2.237-1.713,3.689-1.713c1.625,0,2.843,0.505,3.655,1.516
			c0.813,1.011,1.219,2.354,1.219,4.032v1.168h-7.771l-0.034,0.056c0,1.22,0.27,2.21,0.809,2.97c0.539,0.76,1.363,1.14,2.471,1.14
			c0.749,0,1.406-0.107,1.971-0.32c0.565-0.214,1.05-0.507,1.454-0.882l0.865,1.438c-0.434,0.419-1.007,0.773-1.718,1.062
			C108.138,311.904,107.281,312.048,106.277,312.048z M105.929,301.177c-0.771,0-1.409,0.297-1.915,0.893
			c-0.505,0.595-0.814,1.357-0.926,2.285l0.022,0.056h5.48v-0.18c0-0.883-0.217-1.613-0.651-2.19S106.835,301.177,105.929,301.177z"
			/>
		<path fill="#1073A8" d="M119.922,311.812V301.3h-1.898v-1.64h1.898v-1.539c0-1.295,0.339-2.296,1.016-3.004
			c0.678-0.707,1.623-1.061,2.836-1.061c0.254,0,0.511,0.021,0.77,0.062c0.258,0.041,0.544,0.099,0.859,0.174l-0.27,1.685
			c-0.135-0.03-0.297-0.056-0.489-0.079c-0.19-0.022-0.391-0.034-0.601-0.034c-0.644,0-1.123,0.193-1.438,0.578
			c-0.314,0.386-0.472,0.945-0.472,1.679v1.539h2.201v1.64h-2.201v10.512H119.922z"/>
		<path fill="#1073A8" d="M126.054,305.624c0-1.797,0.487-3.277,1.46-4.442c0.973-1.164,2.295-1.746,3.964-1.746
			c1.685,0,3.016,0.58,3.992,1.741c0.978,1.161,1.466,2.643,1.466,4.447v0.247c0,1.812-0.487,3.294-1.46,4.447
			s-2.298,1.729-3.976,1.729s-3.004-0.579-3.981-1.735c-0.977-1.157-1.465-2.638-1.465-4.442V305.624z M128.267,305.871
			c0,1.288,0.271,2.351,0.814,3.189c0.542,0.838,1.349,1.258,2.42,1.258c1.056,0,1.857-0.419,2.403-1.258s0.82-1.902,0.82-3.189
			v-0.247c0-1.273-0.275-2.332-0.826-3.178c-0.55-0.846-1.357-1.269-2.42-1.269c-1.056,0-1.855,0.423-2.397,1.269
			c-0.543,0.846-0.814,1.905-0.814,3.178V305.871z"/>
		<path fill="#1073A8" d="M145.393,301.615l-1.134-0.067c-0.584,0-1.076,0.139-1.477,0.416c-0.401,0.277-0.709,0.667-0.927,1.168
			v8.681h-2.212v-12.151h1.977l0.213,1.774c0.344-0.629,0.77-1.119,1.274-1.471c0.506-0.352,1.088-0.528,1.747-0.528
			c0.165,0,0.322,0.013,0.472,0.039c0.15,0.026,0.273,0.055,0.371,0.084L145.393,301.615z"/>
		<path fill="#1073A8" d="M149.672,299.661l0.157,1.595c0.397-0.577,0.9-1.024,1.51-1.342c0.61-0.318,1.32-0.478,2.128-0.478
			s1.503,0.187,2.083,0.562c0.58,0.375,1.016,0.936,1.308,1.685c0.389-0.696,0.896-1.245,1.522-1.646
			c0.625-0.4,1.357-0.601,2.195-0.601c1.235,0,2.212,0.425,2.931,1.274c0.719,0.85,1.078,2.128,1.078,3.835v7.266h-2.212v-7.289
			c0-1.198-0.206-2.046-0.618-2.543c-0.412-0.498-1.026-0.747-1.842-0.747c-0.756,0-1.368,0.262-1.836,0.786
			c-0.468,0.524-0.743,1.187-0.825,1.988v0.09v7.715h-2.224v-7.289c0-1.138-0.211-1.971-0.635-2.499
			c-0.423-0.528-1.031-0.792-1.825-0.792c-0.674,0-1.228,0.139-1.662,0.416s-0.768,0.667-1,1.168v8.996h-2.212v-12.151H149.672z"/>
		<path fill="#1073A8" d="M172.829,312.048c-1.745,0-3.105-0.558-4.083-1.673c-0.977-1.116-1.465-2.583-1.465-4.402v-0.494
			c0-1.745,0.503-3.188,1.51-4.329c1.007-1.142,2.237-1.713,3.689-1.713c1.625,0,2.843,0.505,3.655,1.516
			c0.813,1.011,1.219,2.354,1.219,4.032v1.168h-7.771l-0.034,0.056c0,1.22,0.27,2.21,0.809,2.97c0.539,0.76,1.363,1.14,2.471,1.14
			c0.749,0,1.406-0.107,1.971-0.32c0.565-0.214,1.05-0.507,1.454-0.882l0.865,1.438c-0.434,0.419-1.007,0.773-1.718,1.062
			C174.689,311.904,173.833,312.048,172.829,312.048z M172.481,301.177c-0.771,0-1.409,0.297-1.915,0.893
			c-0.505,0.595-0.814,1.357-0.926,2.285l0.022,0.056h5.48v-0.18c0-0.883-0.217-1.613-0.651-2.19S173.387,301.177,172.481,301.177z"
			/>
		<path fill="#1073A8" d="M185.587,301.615l-1.134-0.067c-0.584,0-1.076,0.139-1.477,0.416c-0.401,0.277-0.709,0.667-0.927,1.168
			v8.681h-2.212v-12.151h1.977l0.213,1.774c0.344-0.629,0.77-1.119,1.274-1.471c0.506-0.352,1.088-0.528,1.747-0.528
			c0.165,0,0.322,0.013,0.472,0.039c0.15,0.026,0.273,0.055,0.371,0.084L185.587,301.615z"/>
		<path fill="#1073A8" d="M199.243,303.771l4.268-8.311h2.527l-5.739,10.602v5.75h-2.201v-5.918l-5.649-10.433h2.527
			L199.243,303.771z"/>
		<path fill="#1073A8" d="M215.426,310.015c-0.382,0.651-0.872,1.153-1.471,1.505s-1.292,0.528-2.078,0.528
			c-1.325,0-2.358-0.423-3.1-1.269s-1.112-2.164-1.112-3.953v-7.165h2.212v7.188c0,1.295,0.191,2.186,0.573,2.673
			s0.977,0.73,1.786,0.73c0.786,0,1.436-0.159,1.948-0.477c0.513-0.318,0.9-0.77,1.163-1.354v-8.76h2.212v12.151h-1.988
			L215.426,310.015z"/>
		<path fill="#1073A8" d="M220.39,305.961c0-1.954,0.417-3.53,1.252-4.728c0.835-1.198,2.001-1.797,3.499-1.797
			c0.771,0,1.449,0.155,2.033,0.466c0.584,0.311,1.074,0.758,1.471,1.342l0.27-1.583h1.763v12.219c0,1.557-0.453,2.753-1.359,3.588
			c-0.906,0.835-2.212,1.252-3.919,1.252c-0.584,0-1.215-0.081-1.893-0.242c-0.677-0.161-1.274-0.38-1.791-0.657l0.337-1.718
			c0.427,0.225,0.941,0.406,1.544,0.545c0.603,0.138,1.196,0.208,1.78,0.208c1.078,0,1.862-0.245,2.353-0.736
			c0.491-0.49,0.736-1.237,0.736-2.24v-1.381c-0.397,0.509-0.872,0.895-1.426,1.157s-1.194,0.393-1.92,0.393
			c-1.482,0-2.641-0.537-3.476-1.612c-0.834-1.074-1.252-2.487-1.252-4.239V305.961z M222.603,306.197
			c0,1.22,0.251,2.201,0.752,2.942s1.276,1.112,2.325,1.112c0.667,0,1.224-0.152,1.673-0.455c0.449-0.304,0.82-0.732,1.112-1.286
			v-5.593c-0.285-0.517-0.655-0.927-1.112-1.229c-0.457-0.304-1.007-0.455-1.651-0.455c-1.056,0-1.836,0.438-2.341,1.314
			c-0.506,0.876-0.758,2.014-0.758,3.414V306.197z"/>
		<path fill="#1073A8" d="M233.339,305.624c0-1.797,0.487-3.277,1.46-4.442c0.973-1.164,2.295-1.746,3.964-1.746
			c1.685,0,3.016,0.58,3.992,1.741c0.978,1.161,1.466,2.643,1.466,4.447v0.247c0,1.812-0.487,3.294-1.46,4.447
			s-2.298,1.729-3.976,1.729s-3.004-0.579-3.981-1.735c-0.977-1.157-1.465-2.638-1.465-4.442V305.624z M235.551,305.871
			c0,1.288,0.271,2.351,0.814,3.189c0.542,0.838,1.349,1.258,2.42,1.258c1.056,0,1.857-0.419,2.403-1.258s0.82-1.902,0.82-3.189
			v-0.247c0-1.273-0.275-2.332-0.826-3.178c-0.55-0.846-1.357-1.269-2.42-1.269c-1.056,0-1.855,0.423-2.397,1.269
			c-0.543,0.846-0.814,1.905-0.814,3.178V305.871z"/>
		<path fill="#1073A8" d="M253.992,308.544c0-0.487-0.186-0.883-0.556-1.19c-0.371-0.307-1.073-0.577-2.106-0.809
			c-1.43-0.307-2.529-0.737-3.296-1.292c-0.767-0.554-1.151-1.295-1.151-2.224c0-0.988,0.421-1.834,1.263-2.538
			c0.843-0.704,1.934-1.056,3.274-1.056c1.377,0,2.493,0.375,3.347,1.123s1.262,1.621,1.224,2.617l-0.022,0.067h-2.111
			c0-0.524-0.23-1-0.69-1.426c-0.461-0.427-1.043-0.64-1.747-0.64c-0.779,0-1.361,0.176-1.747,0.528
			c-0.385,0.352-0.578,0.771-0.578,1.258c0,0.479,0.167,0.85,0.5,1.112c0.333,0.262,1.02,0.501,2.061,0.719
			c1.49,0.314,2.621,0.76,3.392,1.336s1.157,1.329,1.157,2.257c0,1.078-0.436,1.958-1.308,2.639
			c-0.873,0.681-2.012,1.022-3.42,1.022c-1.55,0-2.77-0.393-3.661-1.179s-1.314-1.703-1.269-2.751l0.022-0.067h2.111
			c0.038,0.786,0.33,1.361,0.876,1.724c0.546,0.363,1.187,0.544,1.92,0.544c0.786,0,1.402-0.167,1.848-0.5
			C253.769,309.485,253.992,309.061,253.992,308.544z"/>
		<path fill="#1073A8" d="M261.348,311.812h-2.212v-17.52h2.212V311.812z"/>
		<path fill="#1073A8" d="M272.219,311.812c-0.075-0.367-0.133-0.69-0.174-0.972c-0.042-0.28-0.066-0.563-0.073-0.848
			c-0.412,0.584-0.949,1.072-1.611,1.466c-0.663,0.393-1.376,0.589-2.14,0.589c-1.265,0-2.229-0.324-2.892-0.971
			c-0.663-0.648-0.994-1.541-0.994-2.679c0-1.161,0.47-2.068,1.409-2.724c0.94-0.655,2.214-0.982,3.824-0.982h2.403v-1.202
			c0-0.711-0.217-1.275-0.651-1.69c-0.434-0.416-1.048-0.624-1.842-0.624c-0.719,0-1.299,0.18-1.741,0.539s-0.663,0.79-0.663,1.292
			l-2.1,0.022l-0.022-0.067c-0.052-0.883,0.361-1.692,1.241-2.426c0.88-0.734,2.016-1.101,3.409-1.101
			c1.377,0,2.486,0.35,3.324,1.05c0.838,0.7,1.258,1.709,1.258,3.027v5.851c0,0.434,0.022,0.854,0.067,1.258s0.127,0.801,0.247,1.19
			H272.219z M268.546,310.195c0.801,0,1.523-0.206,2.167-0.618s1.063-0.883,1.258-1.415v-1.977h-2.482
			c-0.891,0-1.604,0.225-2.139,0.674c-0.536,0.449-0.803,0.977-0.803,1.583c0,0.539,0.168,0.966,0.505,1.28
			S267.888,310.195,268.546,310.195z"/>
		<path fill="#1073A8" d="M281.282,308.229l0.191,0.854h0.067l0.213-0.854l2.796-8.569h2.257l-4.47,12.151h-1.673l-4.526-12.151
			h2.269L281.282,308.229z"/>
		<path fill="#1073A8" d="M41.395,328.785v8.627h-2.693V317.52h6.809c2.178,0,3.842,0.483,4.99,1.449
			c1.148,0.966,1.723,2.37,1.723,4.211c0,1.021-0.267,1.91-0.8,2.666c-0.533,0.757-1.311,1.358-2.331,1.805
			c1.094,0.355,1.88,0.932,2.358,1.729c0.479,0.798,0.718,1.784,0.718,2.96v1.873c0,0.62,0.068,1.176,0.205,1.668
			s0.374,0.894,0.711,1.203v0.328h-2.775c-0.355-0.31-0.583-0.766-0.684-1.367c-0.101-0.602-0.15-1.221-0.15-1.859v-1.818
			c0-1.075-0.314-1.941-0.943-2.598s-1.472-0.984-2.529-0.984H41.395z M41.395,326.666h3.842c1.522,0,2.618-0.289,3.288-0.868
			c0.67-0.579,1.005-1.46,1.005-2.646c0-1.121-0.326-1.989-0.978-2.604c-0.652-0.615-1.666-0.923-3.042-0.923h-4.115V326.666z"/>
		<path fill="#1073A8" d="M62.271,337.699c-2.124,0-3.78-0.679-4.97-2.037c-1.189-1.358-1.784-3.145-1.784-5.359v-0.602
			c0-2.124,0.613-3.88,1.839-5.271c1.226-1.39,2.723-2.085,4.491-2.085c1.978,0,3.461,0.615,4.45,1.846
			c0.989,1.23,1.483,2.867,1.483,4.908v1.422H58.32l-0.041,0.068c0,1.486,0.328,2.691,0.984,3.616
			c0.656,0.925,1.659,1.388,3.008,1.388c0.911,0,1.711-0.13,2.399-0.39c0.688-0.26,1.278-0.617,1.771-1.073l1.053,1.75
			c-0.529,0.511-1.226,0.941-2.092,1.292C64.536,337.523,63.493,337.699,62.271,337.699z M61.848,324.465
			c-0.939,0-1.716,0.362-2.331,1.087s-0.991,1.652-1.128,2.782l0.027,0.068h6.672v-0.219c0-1.075-0.265-1.964-0.793-2.666
			C63.766,324.816,62.95,324.465,61.848,324.465z"/>
		<path fill="#1073A8" d="M83.408,330.576c0,2.133-0.511,3.854-1.531,5.161c-1.021,1.308-2.429,1.962-4.225,1.962
			c-0.912,0-1.711-0.153-2.399-0.458c-0.688-0.305-1.274-0.763-1.757-1.374v7.232h-2.693v-20.48h2.064l0.424,1.914
			c0.483-0.711,1.084-1.253,1.805-1.627c0.72-0.374,1.559-0.561,2.516-0.561c1.832,0,3.256,0.727,4.272,2.181
			c1.016,1.454,1.524,3.375,1.524,5.763V330.576z M80.715,330.289c0-1.677-0.331-3.056-0.991-4.136
			c-0.661-1.08-1.634-1.62-2.919-1.62c-0.775,0-1.436,0.176-1.982,0.526c-0.547,0.351-0.989,0.832-1.326,1.442v7.15
			c0.337,0.611,0.779,1.087,1.326,1.429s1.217,0.513,2.01,0.513c1.276,0,2.242-0.467,2.898-1.401
			c0.656-0.934,0.984-2.14,0.984-3.616V330.289z"/>
		<path fill="#1073A8" d="M96.109,335.225c-0.465,0.793-1.062,1.404-1.791,1.832c-0.729,0.428-1.572,0.643-2.529,0.643
			c-1.613,0-2.871-0.515-3.773-1.545c-0.902-1.03-1.354-2.634-1.354-4.813v-8.723h2.693v8.75c0,1.577,0.232,2.662,0.697,3.254
			c0.465,0.593,1.189,0.889,2.174,0.889c0.957,0,1.748-0.193,2.372-0.581c0.624-0.387,1.096-0.937,1.415-1.647v-10.664h2.693v14.793
			h-2.42L96.109,335.225z"/>
		<path fill="#1073A8" d="M115.264,330.576c0,2.133-0.513,3.854-1.538,5.161c-1.025,1.308-2.436,1.962-4.231,1.962
			c-0.984,0-1.839-0.194-2.563-0.581s-1.324-0.959-1.798-1.716l-0.438,2.01h-2.064v-21.328h2.693v8.285
			c0.465-0.656,1.041-1.157,1.729-1.504c0.688-0.346,1.492-0.52,2.413-0.52c1.823,0,3.245,0.729,4.266,2.188
			c1.021,1.458,1.531,3.377,1.531,5.756V330.576z M112.57,330.289c0-1.695-0.313-3.078-0.937-4.149
			c-0.625-1.071-1.575-1.606-2.851-1.606c-0.83,0-1.529,0.203-2.099,0.608c-0.57,0.406-1.023,0.95-1.36,1.634v6.412
			c0.346,0.729,0.8,1.299,1.36,1.709s1.269,0.615,2.126,0.615c1.267,0,2.21-0.451,2.83-1.354c0.62-0.902,0.93-2.096,0.93-3.582
			V330.289z"/>
		<path fill="#1073A8" d="M121.457,337.412h-2.693v-21.328h2.693V337.412z"/>
		<path fill="#1073A8" d="M128.512,318.832h-2.693v-2.748h2.693V318.832z M128.512,337.412h-2.693v-14.793h2.693V337.412z"/>
		<path fill="#1073A8" d="M138.533,335.594c0.829,0,1.554-0.275,2.174-0.827c0.62-0.551,0.93-1.228,0.93-2.03h2.434l0.041,0.082
			c0.036,1.276-0.511,2.409-1.641,3.397c-1.13,0.989-2.443,1.483-3.938,1.483c-2.078,0-3.683-0.706-4.813-2.119
			c-1.13-1.413-1.695-3.172-1.695-5.277v-0.574c0-2.087,0.567-3.839,1.702-5.257c1.135-1.417,2.736-2.126,4.806-2.126
			c1.649,0,3.001,0.511,4.054,1.531c1.053,1.021,1.561,2.274,1.524,3.76l-0.027,0.082h-2.447c0-0.902-0.294-1.67-0.882-2.304
			c-0.588-0.633-1.329-0.95-2.222-0.95c-1.322,0-2.286,0.513-2.892,1.538c-0.606,1.025-0.909,2.268-0.909,3.726v0.574
			c0,1.486,0.298,2.739,0.896,3.76C136.225,335.083,137.193,335.594,138.533,335.594z"/>
		<path fill="#1073A8" d="M153.641,329.879c0-2.188,0.592-3.99,1.777-5.407c1.185-1.417,2.793-2.126,4.826-2.126
			c2.051,0,3.671,0.707,4.86,2.119c1.189,1.413,1.784,3.218,1.784,5.414v0.301c0,2.206-0.593,4.011-1.777,5.414
			c-1.185,1.404-2.798,2.105-4.84,2.105c-2.042,0-3.657-0.704-4.847-2.112s-1.784-3.21-1.784-5.407V329.879z M156.334,330.18
			c0,1.568,0.33,2.862,0.991,3.883c0.661,1.021,1.643,1.531,2.946,1.531c1.285,0,2.26-0.51,2.926-1.531
			c0.665-1.021,0.998-2.315,0.998-3.883v-0.301c0-1.549-0.335-2.839-1.005-3.869c-0.67-1.03-1.652-1.545-2.946-1.545
			c-1.285,0-2.258,0.515-2.919,1.545c-0.661,1.03-0.991,2.32-0.991,3.869V330.18z"/>
		<path fill="#1073A8" d="M171.305,337.412v-12.797h-2.311v-1.996h2.311v-1.873c0-1.577,0.412-2.796,1.237-3.657
			c0.825-0.861,1.976-1.292,3.452-1.292c0.31,0,0.622,0.025,0.937,0.075c0.314,0.05,0.663,0.121,1.046,0.212l-0.328,2.051
			c-0.164-0.036-0.362-0.068-0.595-0.096s-0.477-0.041-0.731-0.041c-0.784,0-1.367,0.235-1.75,0.704
			c-0.383,0.47-0.574,1.151-0.574,2.044v1.873h2.68v1.996h-2.68v12.797H171.305z"/>
		<path fill="#1073A8" d="M196.598,333.68h0.082l6.357-16.174h3.35v19.906h-2.693v-14.916l-0.082-0.014l-6.029,14.93h-1.873
			l-6.207-15.422l-0.082,0.014v15.408h-2.693v-19.906h3.541L196.598,333.68z"/>
		<path fill="#1073A8" d="M219.771,337.412c-0.091-0.446-0.162-0.841-0.212-1.183c-0.05-0.342-0.08-0.686-0.089-1.032
			c-0.501,0.711-1.155,1.306-1.962,1.784s-1.675,0.718-2.604,0.718c-1.541,0-2.714-0.394-3.521-1.183
			c-0.807-0.788-1.21-1.875-1.21-3.261c0-1.413,0.572-2.518,1.716-3.315c1.144-0.797,2.695-1.196,4.655-1.196h2.926v-1.463
			c0-0.866-0.265-1.552-0.793-2.058c-0.529-0.506-1.276-0.759-2.242-0.759c-0.875,0-1.582,0.219-2.119,0.656
			c-0.538,0.438-0.807,0.962-0.807,1.572l-2.557,0.027l-0.027-0.082c-0.064-1.075,0.439-2.06,1.511-2.953
			c1.071-0.893,2.454-1.34,4.149-1.34c1.677,0,3.026,0.426,4.047,1.278c1.021,0.853,1.531,2.081,1.531,3.685v7.123
			c0,0.529,0.027,1.039,0.082,1.531s0.155,0.976,0.301,1.449H219.771z M215.301,335.443c0.975,0,1.854-0.25,2.639-0.752
			c0.784-0.501,1.294-1.075,1.531-1.723v-2.406h-3.021c-1.085,0-1.953,0.273-2.604,0.82c-0.652,0.547-0.978,1.189-0.978,1.928
			c0,0.656,0.205,1.176,0.615,1.559S214.499,335.443,215.301,335.443z"/>
		<path fill="#1073A8" d="M231.953,335.594c0.829,0,1.554-0.275,2.174-0.827c0.62-0.551,0.93-1.228,0.93-2.03h2.434l0.041,0.082
			c0.036,1.276-0.511,2.409-1.641,3.397c-1.13,0.989-2.443,1.483-3.938,1.483c-2.078,0-3.683-0.706-4.813-2.119
			c-1.13-1.413-1.695-3.172-1.695-5.277v-0.574c0-2.087,0.567-3.839,1.702-5.257c1.135-1.417,2.736-2.126,4.806-2.126
			c1.649,0,3.001,0.511,4.054,1.531c1.053,1.021,1.561,2.274,1.524,3.76l-0.027,0.082h-2.447c0-0.902-0.294-1.67-0.882-2.304
			c-0.588-0.633-1.329-0.95-2.222-0.95c-1.322,0-2.286,0.513-2.892,1.538c-0.606,1.025-0.909,2.268-0.909,3.726v0.574
			c0,1.486,0.298,2.739,0.896,3.76C229.645,335.083,230.613,335.594,231.953,335.594z"/>
		<path fill="#1073A8" d="M246.855,337.699c-2.124,0-3.78-0.679-4.97-2.037c-1.189-1.358-1.784-3.145-1.784-5.359v-0.602
			c0-2.124,0.613-3.88,1.839-5.271c1.226-1.39,2.723-2.085,4.491-2.085c1.978,0,3.461,0.615,4.45,1.846
			c0.989,1.23,1.483,2.867,1.483,4.908v1.422h-9.461l-0.041,0.068c0,1.486,0.328,2.691,0.984,3.616
			c0.656,0.925,1.659,1.388,3.008,1.388c0.911,0,1.711-0.13,2.399-0.39c0.688-0.26,1.278-0.617,1.771-1.073l1.053,1.75
			c-0.529,0.511-1.226,0.941-2.092,1.292C249.12,337.523,248.077,337.699,246.855,337.699z M246.432,324.465
			c-0.939,0-1.716,0.362-2.331,1.087s-0.991,1.652-1.128,2.782l0.027,0.068h6.672v-0.219c0-1.075-0.265-1.964-0.793-2.666
			C248.35,324.816,247.534,324.465,246.432,324.465z"/>
		<path fill="#1073A8" d="M254.771,330.289c0-2.379,0.508-4.297,1.524-5.756c1.016-1.458,2.44-2.188,4.272-2.188
			c0.866,0,1.634,0.16,2.304,0.479c0.67,0.319,1.242,0.784,1.716,1.395v-8.135h2.693v21.328h-2.064l-0.41-1.873
			c-0.483,0.711-1.08,1.249-1.791,1.613s-1.536,0.547-2.475,0.547c-1.805,0-3.218-0.654-4.238-1.962
			c-1.021-1.308-1.531-3.028-1.531-5.161V330.289z M257.465,330.576c0,1.495,0.305,2.691,0.916,3.589
			c0.61,0.898,1.559,1.347,2.844,1.347c0.802,0,1.477-0.182,2.023-0.547c0.547-0.364,0.993-0.875,1.34-1.531v-6.904
			c-0.347-0.61-0.795-1.096-1.347-1.456c-0.552-0.36-1.215-0.54-1.989-0.54c-1.294,0-2.249,0.533-2.864,1.6
			s-0.923,2.452-0.923,4.156V330.576z"/>
		<path fill="#1073A8" d="M270.672,329.879c0-2.188,0.592-3.99,1.777-5.407c1.185-1.417,2.793-2.126,4.826-2.126
			c2.051,0,3.671,0.707,4.86,2.119c1.189,1.413,1.784,3.218,1.784,5.414v0.301c0,2.206-0.593,4.011-1.777,5.414
			c-1.185,1.404-2.798,2.105-4.84,2.105c-2.042,0-3.657-0.704-4.847-2.112s-1.784-3.21-1.784-5.407V329.879z M273.365,330.18
			c0,1.568,0.33,2.862,0.991,3.883c0.661,1.021,1.643,1.531,2.946,1.531c1.285,0,2.26-0.51,2.926-1.531
			c0.665-1.021,0.998-2.315,0.998-3.883v-0.301c0-1.549-0.335-2.839-1.005-3.869c-0.67-1.03-1.652-1.545-2.946-1.545
			c-1.285,0-2.258,0.515-2.919,1.545c-0.661,1.03-0.991,2.32-0.991,3.869V330.18z"/>
		<path fill="#1073A8" d="M289.621,322.619l0.191,2.201c0.492-0.784,1.109-1.392,1.853-1.825c0.743-0.433,1.588-0.649,2.536-0.649
			c1.595,0,2.83,0.467,3.705,1.401c0.875,0.935,1.313,2.377,1.313,4.327v9.338h-2.693v-9.283c0-1.303-0.258-2.229-0.772-2.775
			c-0.515-0.547-1.301-0.82-2.358-0.82c-0.83,0-1.534,0.167-2.112,0.499c-0.579,0.333-1.037,0.8-1.374,1.401v10.979h-2.693v-14.793
			H289.621z"/>
		<path fill="#1073A8" d="M306.041,318.832h-2.693v-2.748h2.693V318.832z M306.041,337.412h-2.693v-14.793h2.693V337.412z"/>
		<path fill="#1073A8" d="M319.275,337.412c-0.091-0.446-0.162-0.841-0.212-1.183c-0.05-0.342-0.08-0.686-0.089-1.032
			c-0.501,0.711-1.155,1.306-1.962,1.784s-1.675,0.718-2.604,0.718c-1.541,0-2.714-0.394-3.521-1.183
			c-0.807-0.788-1.21-1.875-1.21-3.261c0-1.413,0.572-2.518,1.716-3.315c1.144-0.797,2.695-1.196,4.655-1.196h2.926v-1.463
			c0-0.866-0.265-1.552-0.793-2.058c-0.529-0.506-1.276-0.759-2.242-0.759c-0.875,0-1.582,0.219-2.119,0.656
			c-0.538,0.438-0.807,0.962-0.807,1.572l-2.557,0.027l-0.027-0.082c-0.064-1.075,0.439-2.06,1.511-2.953
			c1.071-0.893,2.454-1.34,4.149-1.34c1.677,0,3.026,0.426,4.047,1.278c1.021,0.853,1.531,2.081,1.531,3.685v7.123
			c0,0.529,0.027,1.039,0.082,1.531s0.155,0.976,0.301,1.449H319.275z M314.805,335.443c0.975,0,1.854-0.25,2.639-0.752
			c0.784-0.501,1.294-1.075,1.531-1.723v-2.406h-3.021c-1.085,0-1.953,0.273-2.604,0.82c-0.652,0.547-0.978,1.189-0.978,1.928
			c0,0.656,0.205,1.176,0.615,1.559S314.002,335.443,314.805,335.443z"/>
	</g>
	<g>
		<path fill="#555658" d="M134.962,261.452h-1.644v-12.086h1.644V261.452z"/>
		<path fill="#555658" d="M138.346,252.471l0.116,1.337c0.299-0.477,0.674-0.846,1.125-1.108c0.451-0.263,0.964-0.395,1.54-0.395
			c0.968,0,1.718,0.283,2.25,0.851s0.797,1.443,0.797,2.627v5.67h-1.635v-5.637c0-0.791-0.156-1.353-0.469-1.685
			c-0.313-0.332-0.79-0.498-1.432-0.498c-0.503,0-0.931,0.101-1.283,0.303c-0.351,0.202-0.629,0.485-0.834,0.851v6.666h-1.635
			v-8.981H138.346z"/>
		<path fill="#555658" d="M149.266,260.349c0.503,0,0.943-0.168,1.32-0.503s0.564-0.745,0.564-1.232h1.478l0.025,0.05
			c0.022,0.774-0.31,1.462-0.996,2.063s-1.483,0.9-2.391,0.9c-1.262,0-2.236-0.429-2.922-1.286s-1.029-1.926-1.029-3.204v-0.349
			c0-1.268,0.344-2.331,1.034-3.191c0.688-0.86,1.661-1.291,2.917-1.291c1.001,0,1.822,0.31,2.461,0.93
			c0.639,0.62,0.947,1.381,0.925,2.282l-0.017,0.051h-1.486c0-0.549-0.179-1.015-0.535-1.399c-0.357-0.385-0.807-0.577-1.349-0.577
			c-0.802,0-1.388,0.312-1.755,0.935c-0.368,0.622-0.552,1.376-0.552,2.262v0.349c0,0.902,0.181,1.663,0.543,2.283
			C147.865,260.038,148.453,260.349,149.266,260.349z"/>
		<path fill="#555658" d="M157.996,253.915l-0.838-0.05c-0.432,0-0.795,0.103-1.092,0.308c-0.296,0.204-0.524,0.492-0.685,0.863
			v6.416h-1.635v-8.981h1.461l0.158,1.312c0.254-0.465,0.568-0.827,0.942-1.088c0.373-0.26,0.804-0.39,1.291-0.39
			c0.122,0,0.238,0.01,0.349,0.029s0.202,0.04,0.274,0.062L157.996,253.915z"/>
		<path fill="#555658" d="M162.408,261.626c-1.29,0-2.295-0.412-3.017-1.236c-0.723-0.824-1.083-1.909-1.083-3.254v-0.365
			c0-1.289,0.372-2.356,1.117-3.2c0.744-0.844,1.653-1.266,2.727-1.266c1.201,0,2.102,0.374,2.702,1.12
			c0.6,0.748,0.9,1.741,0.9,2.98v0.863h-5.744l-0.025,0.041c0,0.902,0.199,1.635,0.598,2.196s1.007,0.843,1.826,0.843
			c0.553,0,1.039-0.079,1.457-0.237c0.418-0.157,0.776-0.375,1.075-0.651l0.639,1.063c-0.321,0.31-0.744,0.571-1.27,0.784
			S163.15,261.626,162.408,261.626z M162.151,253.591c-0.57,0-1.042,0.221-1.415,0.66c-0.374,0.44-0.602,1.003-0.685,1.689
			l0.017,0.041h4.051v-0.133c0-0.652-0.161-1.192-0.481-1.618S162.82,253.591,162.151,253.591z"/>
		<path fill="#555658" d="M172.258,261.452c-0.055-0.271-0.098-0.511-0.129-0.718c-0.03-0.208-0.048-0.417-0.054-0.627
			c-0.304,0.432-0.701,0.793-1.191,1.083c-0.489,0.291-1.017,0.436-1.581,0.436c-0.935,0-1.647-0.239-2.138-0.718
			c-0.489-0.479-0.734-1.139-0.734-1.979c0-0.857,0.347-1.528,1.042-2.013c0.694-0.484,1.636-0.727,2.826-0.727h1.776v-0.888
			c0-0.526-0.161-0.942-0.481-1.25c-0.321-0.307-0.775-0.461-1.361-0.461c-0.531,0-0.96,0.133-1.287,0.398s-0.49,0.584-0.49,0.955
			l-1.552,0.017l-0.017-0.05c-0.039-0.653,0.267-1.251,0.917-1.793c0.65-0.542,1.49-0.813,2.519-0.813
			c1.018,0,1.837,0.259,2.457,0.776s0.93,1.263,0.93,2.236v4.325c0,0.321,0.017,0.631,0.05,0.93s0.094,0.592,0.183,0.88H172.258z
			 M169.543,260.257c0.592,0,1.126-0.152,1.602-0.457c0.476-0.304,0.786-0.652,0.93-1.045v-1.461h-1.834
			c-0.659,0-1.186,0.166-1.582,0.498c-0.396,0.332-0.593,0.722-0.593,1.17c0,0.398,0.125,0.714,0.374,0.946
			S169.057,260.257,169.543,260.257z"/>
		<path fill="#555658" d="M180.456,259.036c0-0.359-0.137-0.652-0.411-0.879c-0.273-0.228-0.792-0.427-1.556-0.598
			c-1.057-0.228-1.869-0.546-2.436-0.955c-0.567-0.409-0.851-0.957-0.851-1.644c0-0.73,0.311-1.355,0.934-1.876
			c0.622-0.521,1.429-0.78,2.419-0.78c1.018,0,1.843,0.276,2.474,0.83s0.933,1.198,0.905,1.935l-0.017,0.049h-1.561
			c0-0.387-0.17-0.738-0.511-1.054c-0.34-0.315-0.771-0.474-1.291-0.474c-0.576,0-1.006,0.131-1.291,0.391
			c-0.285,0.26-0.428,0.57-0.428,0.93c0,0.354,0.123,0.628,0.369,0.822c0.247,0.193,0.754,0.37,1.523,0.531
			c1.101,0.232,1.937,0.562,2.507,0.987s0.855,0.982,0.855,1.669c0,0.797-0.322,1.446-0.967,1.95
			c-0.645,0.504-1.487,0.755-2.527,0.755c-1.146,0-2.047-0.29-2.706-0.871s-0.971-1.259-0.938-2.033l0.017-0.051h1.561
			c0.028,0.582,0.244,1.006,0.647,1.274s0.877,0.403,1.419,0.403c0.581,0,1.036-0.124,1.365-0.37
			C180.291,259.732,180.456,259.419,180.456,259.036z"/>
		<path fill="#555658" d="M185.042,250.171h-1.635v-1.668h1.635V250.171z M185.042,261.452h-1.635v-8.981h1.635V261.452z"/>
		<path fill="#555658" d="M188.169,252.471l0.116,1.337c0.299-0.477,0.674-0.846,1.125-1.108c0.451-0.263,0.964-0.395,1.54-0.395
			c0.968,0,1.718,0.283,2.25,0.851s0.797,1.443,0.797,2.627v5.67h-1.635v-5.637c0-0.791-0.156-1.353-0.469-1.685
			c-0.313-0.332-0.79-0.498-1.432-0.498c-0.503,0-0.931,0.101-1.283,0.303c-0.351,0.202-0.629,0.485-0.834,0.851v6.666h-1.635
			v-8.981H188.169z"/>
		<path fill="#555658" d="M195.229,257.128c0-1.445,0.309-2.609,0.926-3.495c0.617-0.886,1.479-1.328,2.585-1.328
			c0.57,0,1.071,0.115,1.502,0.345s0.794,0.561,1.087,0.992l0.199-1.171h1.303v9.031c0,1.151-0.335,2.035-1.004,2.652
			s-1.635,0.925-2.897,0.925c-0.432,0-0.898-0.059-1.398-0.178c-0.501-0.119-0.942-0.281-1.324-0.486l0.249-1.27
			c0.315,0.166,0.696,0.3,1.142,0.402c0.445,0.103,0.884,0.154,1.315,0.154c0.797,0,1.376-0.182,1.739-0.544
			c0.362-0.362,0.543-0.915,0.543-1.656v-1.021c-0.293,0.376-0.645,0.661-1.054,0.854s-0.883,0.29-1.419,0.29
			c-1.096,0-1.952-0.396-2.569-1.19c-0.617-0.794-0.926-1.839-0.926-3.134V257.128z M196.865,257.302
			c0,0.902,0.186,1.627,0.556,2.175s0.943,0.821,1.718,0.821c0.493,0,0.905-0.111,1.237-0.336c0.332-0.224,0.606-0.541,0.822-0.95
			v-4.134c-0.21-0.382-0.484-0.685-0.822-0.909c-0.337-0.224-0.744-0.336-1.22-0.336c-0.78,0-1.357,0.323-1.731,0.972
			c-0.373,0.646-0.56,1.488-0.56,2.523V257.302z"/>
		<path fill="#555658" d="M209.981,250.304v2.167h1.702v1.212h-1.702v5.453c0,0.421,0.087,0.717,0.261,0.889
			c0.175,0.172,0.406,0.258,0.693,0.258c0.094,0,0.199-0.013,0.315-0.038c0.116-0.024,0.213-0.051,0.291-0.079l0.224,1.121
			c-0.122,0.1-0.302,0.182-0.54,0.245s-0.473,0.095-0.706,0.095c-0.664,0-1.192-0.2-1.585-0.602s-0.589-1.03-0.589-1.889v-5.453
			h-1.428v-1.212h1.428v-2.167H209.981z"/>
		<path fill="#555658" d="M214.22,253.675c0.31-0.432,0.69-0.769,1.142-1.009c0.451-0.241,0.95-0.361,1.498-0.361
			c0.958,0,1.703,0.288,2.237,0.863c0.534,0.575,0.801,1.461,0.801,2.656v5.628h-1.635v-5.645c0-0.741-0.159-1.289-0.477-1.644
			c-0.318-0.354-0.793-0.531-1.424-0.531c-0.487,0-0.91,0.096-1.27,0.286c-0.36,0.191-0.65,0.458-0.872,0.801v6.732h-1.635v-12.949
			h1.635V253.675z"/>
		<path fill="#555658" d="M225.116,261.626c-1.29,0-2.295-0.412-3.017-1.236c-0.723-0.824-1.083-1.909-1.083-3.254v-0.365
			c0-1.289,0.372-2.356,1.117-3.2c0.744-0.844,1.653-1.266,2.727-1.266c1.201,0,2.102,0.374,2.702,1.12
			c0.6,0.748,0.9,1.741,0.9,2.98v0.863h-5.744l-0.025,0.041c0,0.902,0.199,1.635,0.598,2.196s1.007,0.843,1.826,0.843
			c0.553,0,1.039-0.079,1.457-0.237c0.418-0.157,0.776-0.375,1.075-0.651l0.639,1.063c-0.321,0.31-0.744,0.571-1.27,0.784
			S225.857,261.626,225.116,261.626z M224.858,253.591c-0.57,0-1.042,0.221-1.415,0.66c-0.374,0.44-0.602,1.003-0.685,1.689
			l0.017,0.041h4.051v-0.133c0-0.652-0.161-1.192-0.481-1.618S225.528,253.591,224.858,253.591z"/>
		<path fill="#555658" d="M68.453,277.702c0,1.295-0.31,2.34-0.93,3.134s-1.475,1.19-2.565,1.19c-0.553,0-1.039-0.092-1.457-0.277
			c-0.417-0.186-0.773-0.464-1.066-0.834v4.391H60.8v-12.435h1.253l0.257,1.162c0.293-0.432,0.659-0.761,1.096-0.987
			c0.437-0.228,0.946-0.341,1.527-0.341c1.112,0,1.977,0.441,2.594,1.324c0.617,0.883,0.925,2.049,0.925,3.499V277.702z
			 M66.818,277.528c0-1.019-0.201-1.855-0.602-2.512c-0.401-0.655-0.992-0.983-1.772-0.983c-0.47,0-0.872,0.106-1.204,0.319
			s-0.601,0.505-0.805,0.876v4.341c0.205,0.371,0.473,0.66,0.805,0.868c0.332,0.207,0.739,0.312,1.22,0.312
			c0.775,0,1.361-0.284,1.76-0.852s0.598-1.299,0.598-2.195V277.528z"/>
		<path fill="#555658" d="M75.132,281.853c-0.055-0.271-0.098-0.511-0.129-0.718c-0.03-0.208-0.048-0.417-0.054-0.627
			c-0.304,0.432-0.701,0.793-1.191,1.083c-0.489,0.291-1.017,0.436-1.581,0.436c-0.935,0-1.647-0.239-2.138-0.718
			c-0.489-0.479-0.734-1.139-0.734-1.979c0-0.857,0.347-1.528,1.042-2.013c0.694-0.484,1.636-0.727,2.826-0.727h1.776v-0.888
			c0-0.526-0.161-0.942-0.481-1.25c-0.321-0.307-0.775-0.461-1.361-0.461c-0.531,0-0.96,0.133-1.287,0.398s-0.49,0.584-0.49,0.955
			l-1.552,0.017l-0.017-0.05c-0.039-0.653,0.267-1.251,0.917-1.793c0.65-0.542,1.49-0.813,2.519-0.813
			c1.018,0,1.837,0.259,2.457,0.776s0.93,1.263,0.93,2.236v4.325c0,0.321,0.017,0.631,0.05,0.93s0.094,0.592,0.183,0.88H75.132z
			 M72.417,280.657c0.592,0,1.126-0.152,1.602-0.457c0.476-0.304,0.786-0.652,0.93-1.045v-1.461h-1.834
			c-0.659,0-1.186,0.166-1.582,0.498c-0.396,0.332-0.593,0.722-0.593,1.17c0,0.398,0.125,0.714,0.374,0.946
			S71.931,280.657,72.417,280.657z"/>
		<path fill="#555658" d="M82.358,274.315l-0.838-0.05c-0.432,0-0.795,0.103-1.092,0.308c-0.296,0.204-0.524,0.492-0.685,0.863
			v6.416h-1.635v-8.981h1.461l0.158,1.312c0.254-0.465,0.568-0.827,0.942-1.088c0.373-0.26,0.804-0.39,1.291-0.39
			c0.122,0,0.238,0.01,0.349,0.029s0.202,0.04,0.274,0.062L82.358,274.315z"/>
		<path fill="#555658" d="M85.626,270.704v2.167h1.702v1.212h-1.702v5.453c0,0.421,0.087,0.717,0.261,0.889
			c0.175,0.172,0.406,0.258,0.693,0.258c0.094,0,0.199-0.013,0.315-0.038c0.116-0.024,0.213-0.051,0.291-0.079l0.224,1.121
			c-0.122,0.1-0.302,0.182-0.54,0.245s-0.473,0.095-0.706,0.095c-0.664,0-1.192-0.2-1.585-0.602s-0.589-1.03-0.589-1.889v-5.453
			h-1.428v-1.212h1.428v-2.167H85.626z"/>
		<path fill="#555658" d="M89.997,270.571h-1.635v-1.668h1.635V270.571z M89.997,281.853h-1.635v-8.981h1.635V281.853z"/>
		<path fill="#555658" d="M95.231,280.749c0.503,0,0.943-0.168,1.32-0.503s0.564-0.745,0.564-1.232h1.478l0.025,0.05
			c0.022,0.774-0.31,1.462-0.996,2.063s-1.483,0.9-2.391,0.9c-1.262,0-2.236-0.429-2.922-1.286s-1.029-1.926-1.029-3.204v-0.349
			c0-1.268,0.344-2.331,1.034-3.191c0.688-0.86,1.661-1.291,2.917-1.291c1.001,0,1.822,0.31,2.461,0.93
			c0.639,0.62,0.947,1.381,0.925,2.282l-0.017,0.051h-1.486c0-0.549-0.179-1.015-0.535-1.399c-0.357-0.385-0.807-0.577-1.349-0.577
			c-0.802,0-1.388,0.312-1.755,0.935c-0.368,0.622-0.552,1.376-0.552,2.262v0.349c0,0.902,0.181,1.663,0.543,2.283
			C93.83,280.438,94.418,280.749,95.231,280.749z"/>
		<path fill="#555658" d="M101.479,270.571h-1.635v-1.668h1.635V270.571z M101.479,281.853h-1.635v-8.981h1.635V281.853z"/>
		<path fill="#555658" d="M110.797,277.702c0,1.295-0.31,2.34-0.93,3.134s-1.475,1.19-2.565,1.19c-0.553,0-1.039-0.092-1.457-0.277
			c-0.417-0.186-0.773-0.464-1.066-0.834v4.391h-1.635v-12.435h1.253l0.257,1.162c0.293-0.432,0.659-0.761,1.096-0.987
			c0.437-0.228,0.946-0.341,1.527-0.341c1.112,0,1.977,0.441,2.594,1.324c0.617,0.883,0.925,2.049,0.925,3.499V277.702z
			 M109.162,277.528c0-1.019-0.201-1.855-0.602-2.512c-0.401-0.655-0.992-0.983-1.772-0.983c-0.47,0-0.872,0.106-1.204,0.319
			s-0.601,0.505-0.805,0.876v4.341c0.205,0.371,0.473,0.66,0.805,0.868c0.332,0.207,0.739,0.312,1.22,0.312
			c0.775,0,1.361-0.284,1.76-0.852s0.598-1.299,0.598-2.195V277.528z"/>
		<path fill="#555658" d="M117.476,281.853c-0.055-0.271-0.098-0.511-0.129-0.718c-0.03-0.208-0.048-0.417-0.054-0.627
			c-0.304,0.432-0.701,0.793-1.191,1.083c-0.489,0.291-1.017,0.436-1.581,0.436c-0.935,0-1.647-0.239-2.138-0.718
			c-0.489-0.479-0.734-1.139-0.734-1.979c0-0.857,0.347-1.528,1.042-2.013c0.694-0.484,1.636-0.727,2.826-0.727h1.776v-0.888
			c0-0.526-0.161-0.942-0.481-1.25c-0.321-0.307-0.775-0.461-1.361-0.461c-0.531,0-0.96,0.133-1.287,0.398s-0.49,0.584-0.49,0.955
			l-1.552,0.017l-0.017-0.05c-0.039-0.653,0.267-1.251,0.917-1.793c0.65-0.542,1.49-0.813,2.519-0.813
			c1.018,0,1.837,0.259,2.457,0.776s0.93,1.263,0.93,2.236v4.325c0,0.321,0.017,0.631,0.05,0.93s0.094,0.592,0.183,0.88H117.476z
			 M114.762,280.657c0.592,0,1.126-0.152,1.602-0.457c0.476-0.304,0.786-0.652,0.93-1.045v-1.461h-1.834
			c-0.659,0-1.186,0.166-1.582,0.498c-0.396,0.332-0.593,0.722-0.593,1.17c0,0.398,0.125,0.714,0.374,0.946
			S114.275,280.657,114.762,280.657z"/>
		<path fill="#555658" d="M122.727,270.704v2.167h1.702v1.212h-1.702v5.453c0,0.421,0.087,0.717,0.261,0.889
			c0.175,0.172,0.406,0.258,0.693,0.258c0.094,0,0.199-0.013,0.315-0.038c0.116-0.024,0.213-0.051,0.291-0.079l0.224,1.121
			c-0.122,0.1-0.302,0.182-0.54,0.245s-0.473,0.095-0.706,0.095c-0.664,0-1.192-0.2-1.585-0.602s-0.589-1.03-0.589-1.889v-5.453
			h-1.428v-1.212h1.428v-2.167H122.727z"/>
		<path fill="#555658" d="M127.098,270.571h-1.635v-1.668h1.635V270.571z M127.098,281.853h-1.635v-8.981h1.635V281.853z"/>
		<path fill="#555658" d="M128.381,277.278c0-1.328,0.36-2.422,1.079-3.282s1.696-1.291,2.93-1.291c1.245,0,2.229,0.429,2.951,1.286
			c0.722,0.858,1.083,1.954,1.083,3.287v0.184c0,1.339-0.36,2.435-1.079,3.287c-0.719,0.852-1.699,1.277-2.938,1.277
			s-2.221-0.427-2.942-1.282c-0.723-0.854-1.083-1.949-1.083-3.282V277.278z M130.017,277.462c0,0.951,0.201,1.737,0.602,2.357
			c0.401,0.619,0.998,0.93,1.789,0.93c0.78,0,1.373-0.311,1.776-0.93c0.404-0.62,0.606-1.406,0.606-2.357v-0.184
			c0-0.94-0.204-1.724-0.61-2.349c-0.407-0.625-1.003-0.938-1.789-0.938c-0.78,0-1.371,0.313-1.772,0.938
			c-0.401,0.625-0.602,1.408-0.602,2.349V277.462z"/>
		<path fill="#555658" d="M139.036,272.871l0.116,1.337c0.299-0.477,0.674-0.846,1.125-1.108c0.451-0.263,0.964-0.395,1.54-0.395
			c0.968,0,1.718,0.283,2.25,0.851s0.797,1.443,0.797,2.627v5.67h-1.635v-5.637c0-0.791-0.156-1.353-0.469-1.685
			c-0.313-0.332-0.79-0.498-1.432-0.498c-0.503,0-0.931,0.101-1.283,0.303c-0.351,0.202-0.629,0.485-0.834,0.851v6.666h-1.635
			v-8.981H139.036z"/>
		<path fill="#555658" d="M149.381,277.278c0-1.328,0.36-2.422,1.079-3.282s1.696-1.291,2.93-1.291c1.245,0,2.229,0.429,2.951,1.286
			c0.722,0.858,1.083,1.954,1.083,3.287v0.184c0,1.339-0.36,2.435-1.079,3.287c-0.719,0.852-1.699,1.277-2.938,1.277
			s-2.221-0.427-2.942-1.282c-0.723-0.854-1.083-1.949-1.083-3.282V277.278z M151.016,277.462c0,0.951,0.201,1.737,0.602,2.357
			c0.401,0.619,0.998,0.93,1.789,0.93c0.78,0,1.373-0.311,1.776-0.93c0.404-0.62,0.606-1.406,0.606-2.357v-0.184
			c0-0.94-0.204-1.724-0.61-2.349c-0.407-0.625-1.003-0.938-1.789-0.938c-0.78,0-1.371,0.313-1.772,0.938
			c-0.401,0.625-0.602,1.408-0.602,2.349V277.462z"/>
		<path fill="#555658" d="M159.255,281.853v-7.77h-1.403v-1.212h1.403v-1.138c0-0.957,0.25-1.697,0.751-2.22
			c0.5-0.523,1.199-0.784,2.096-0.784c0.188,0,0.378,0.015,0.568,0.045c0.191,0.03,0.403,0.073,0.635,0.129l-0.199,1.245
			c-0.1-0.022-0.22-0.042-0.361-0.058c-0.142-0.018-0.29-0.025-0.444-0.025c-0.476,0-0.83,0.143-1.063,0.428
			s-0.349,0.698-0.349,1.24v1.138h1.627v1.212h-1.627v7.77H159.255z"/>
		<path fill="#555658" d="M168.994,278.582l0.208,1.153h0.05l0.216-1.153l1.793-5.711h1.312l1.801,5.711l0.232,1.286h0.05
			l0.266-1.286l1.328-5.711h1.71l-2.606,8.981h-1.32l-1.776-5.471l-0.34-1.428h-0.05l-0.315,1.428l-1.743,5.471h-1.32l-2.606-8.981
			h1.702L168.994,278.582z"/>
		<path fill="#555658" d="M178.329,277.278c0-1.328,0.36-2.422,1.079-3.282s1.696-1.291,2.93-1.291c1.245,0,2.229,0.429,2.951,1.286
			c0.722,0.858,1.083,1.954,1.083,3.287v0.184c0,1.339-0.36,2.435-1.079,3.287c-0.719,0.852-1.699,1.277-2.938,1.277
			s-2.221-0.427-2.942-1.282c-0.723-0.854-1.083-1.949-1.083-3.282V277.278z M179.964,277.462c0,0.951,0.201,1.737,0.602,2.357
			c0.401,0.619,0.998,0.93,1.789,0.93c0.78,0,1.373-0.311,1.776-0.93c0.404-0.62,0.606-1.406,0.606-2.357v-0.184
			c0-0.94-0.204-1.724-0.61-2.349c-0.407-0.625-1.003-0.938-1.789-0.938c-0.78,0-1.371,0.313-1.772,0.938
			c-0.401,0.625-0.602,1.408-0.602,2.349V277.462z"/>
		<path fill="#555658" d="M188.984,272.871l0.116,1.179c0.293-0.426,0.666-0.757,1.117-0.992c0.451-0.235,0.975-0.353,1.573-0.353
			s1.111,0.139,1.54,0.415c0.429,0.276,0.751,0.691,0.967,1.245c0.288-0.515,0.663-0.92,1.125-1.216
			c0.462-0.296,1.003-0.444,1.623-0.444c0.913,0,1.635,0.314,2.167,0.942s0.797,1.572,0.797,2.834v5.371h-1.635v-5.387
			c0-0.886-0.152-1.513-0.457-1.881s-0.758-0.552-1.361-0.552c-0.559,0-1.011,0.193-1.357,0.581
			c-0.346,0.388-0.549,0.877-0.61,1.469v0.066v5.703h-1.644v-5.387c0-0.842-0.156-1.457-0.469-1.848
			c-0.313-0.39-0.763-0.585-1.349-0.585c-0.498,0-0.908,0.103-1.229,0.308c-0.321,0.204-0.567,0.492-0.739,0.863v6.648h-1.635
			v-8.981H188.984z"/>
		<path fill="#555658" d="M205.25,282.026c-1.29,0-2.295-0.412-3.017-1.236c-0.723-0.824-1.083-1.909-1.083-3.254v-0.365
			c0-1.289,0.372-2.356,1.117-3.2c0.744-0.844,1.653-1.266,2.727-1.266c1.201,0,2.102,0.374,2.702,1.12
			c0.6,0.748,0.9,1.741,0.9,2.98v0.863h-5.744l-0.025,0.041c0,0.902,0.199,1.635,0.598,2.196s1.007,0.843,1.826,0.843
			c0.553,0,1.039-0.079,1.457-0.237c0.418-0.157,0.776-0.375,1.075-0.651l0.639,1.063c-0.321,0.31-0.744,0.571-1.27,0.784
			S205.992,282.026,205.25,282.026z M204.993,273.991c-0.57,0-1.042,0.221-1.415,0.66c-0.374,0.44-0.602,1.003-0.685,1.689
			l0.017,0.041h4.051v-0.133c0-0.652-0.161-1.192-0.481-1.618S205.662,273.991,204.993,273.991z"/>
		<path fill="#555658" d="M211.041,272.871l0.116,1.337c0.299-0.477,0.674-0.846,1.125-1.108c0.451-0.263,0.964-0.395,1.54-0.395
			c0.968,0,1.718,0.283,2.25,0.851s0.797,1.443,0.797,2.627v5.67h-1.635v-5.637c0-0.791-0.156-1.353-0.469-1.685
			c-0.313-0.332-0.79-0.498-1.432-0.498c-0.503,0-0.931,0.101-1.283,0.303c-0.351,0.202-0.629,0.485-0.834,0.851v6.666h-1.635
			v-8.981H211.041z"/>
		<path fill="#555658" d="M223.535,270.571H221.9v-1.668h1.635V270.571z M223.535,281.853H221.9v-8.981h1.635V281.853z"/>
		<path fill="#555658" d="M226.661,272.871l0.116,1.337c0.299-0.477,0.674-0.846,1.125-1.108c0.451-0.263,0.964-0.395,1.54-0.395
			c0.968,0,1.718,0.283,2.25,0.851s0.797,1.443,0.797,2.627v5.67h-1.635v-5.637c0-0.791-0.156-1.353-0.469-1.685
			c-0.313-0.332-0.79-0.498-1.432-0.498c-0.503,0-0.931,0.101-1.283,0.303c-0.351,0.202-0.629,0.485-0.834,0.851v6.666H225.2v-8.981
			H226.661z"/>
		<path fill="#555658" d="M245.041,277.702c0,1.295-0.31,2.34-0.93,3.134s-1.475,1.19-2.565,1.19c-0.553,0-1.039-0.092-1.457-0.277
			c-0.417-0.186-0.773-0.464-1.066-0.834v4.391h-1.635v-12.435h1.253l0.257,1.162c0.293-0.432,0.659-0.761,1.096-0.987
			c0.437-0.228,0.946-0.341,1.527-0.341c1.112,0,1.977,0.441,2.594,1.324c0.617,0.883,0.925,2.049,0.925,3.499V277.702z
			 M243.405,277.528c0-1.019-0.201-1.855-0.602-2.512c-0.401-0.655-0.992-0.983-1.772-0.983c-0.47,0-0.872,0.106-1.204,0.319
			s-0.601,0.505-0.805,0.876v4.341c0.205,0.371,0.473,0.66,0.805,0.868c0.332,0.207,0.739,0.312,1.22,0.312
			c0.775,0,1.361-0.284,1.76-0.852s0.598-1.299,0.598-2.195V277.528z"/>
		<path fill="#555658" d="M251.902,280.524c-0.282,0.481-0.645,0.853-1.087,1.112s-0.955,0.39-1.536,0.39
			c-0.979,0-1.743-0.313-2.291-0.938s-0.822-1.6-0.822-2.922v-5.296h1.635v5.313c0,0.957,0.141,1.616,0.423,1.976
			s0.722,0.539,1.32,0.539c0.581,0,1.061-0.117,1.44-0.353c0.379-0.235,0.665-0.568,0.859-1v-6.475h1.635v8.981h-1.469
			L251.902,280.524z"/>
		<path fill="#555658" d="M262.682,277.702c0,1.295-0.311,2.34-0.934,3.134c-0.622,0.794-1.479,1.19-2.569,1.19
			c-0.598,0-1.117-0.117-1.556-0.353c-0.44-0.235-0.804-0.582-1.092-1.042l-0.266,1.221h-1.253v-12.949h1.635v5.03
			c0.282-0.398,0.632-0.703,1.05-0.913c0.418-0.21,0.906-0.315,1.465-0.315c1.107,0,1.97,0.442,2.59,1.328s0.93,2.05,0.93,3.495
			V277.702z M261.046,277.528c0-1.029-0.189-1.869-0.568-2.52c-0.379-0.65-0.956-0.976-1.731-0.976
			c-0.503,0-0.928,0.123-1.274,0.369c-0.346,0.246-0.622,0.577-0.826,0.992v3.894c0.21,0.442,0.485,0.788,0.826,1.037
			c0.34,0.249,0.771,0.373,1.291,0.373c0.769,0,1.342-0.273,1.718-0.821s0.564-1.272,0.564-2.175V277.528z"/>
		<path fill="#555658" d="M265.592,281.853h-1.635v-12.949h1.635V281.853z"/>
		<path fill="#555658" d="M269.025,270.571h-1.635v-1.668h1.635V270.571z M269.025,281.853h-1.635v-8.981h1.635V281.853z"/>
		<path fill="#555658" d="M274.259,280.749c0.503,0,0.943-0.168,1.32-0.503s0.564-0.745,0.564-1.232h1.478l0.025,0.05
			c0.022,0.774-0.31,1.462-0.996,2.063s-1.483,0.9-2.391,0.9c-1.262,0-2.236-0.429-2.922-1.286s-1.029-1.926-1.029-3.204v-0.349
			c0-1.268,0.344-2.331,1.034-3.191c0.688-0.86,1.661-1.291,2.917-1.291c1.001,0,1.822,0.31,2.461,0.93
			c0.639,0.62,0.947,1.381,0.925,2.282l-0.017,0.051h-1.486c0-0.549-0.179-1.015-0.535-1.399c-0.357-0.385-0.807-0.577-1.349-0.577
			c-0.802,0-1.388,0.312-1.755,0.935c-0.368,0.622-0.552,1.376-0.552,2.262v0.349c0,0.902,0.181,1.663,0.543,2.283
			C272.858,280.438,273.446,280.749,274.259,280.749z"/>
		<path fill="#555658" d="M283.882,281.853h-1.635v-12.949h1.635V281.853z"/>
		<path fill="#555658" d="M287.315,270.571h-1.635v-1.668h1.635V270.571z M287.315,281.853h-1.635v-8.981h1.635V281.853z"/>
		<path fill="#555658" d="M289.661,281.853v-7.77h-1.403v-1.212h1.403v-1.138c0-0.957,0.25-1.697,0.751-2.22
			c0.5-0.523,1.199-0.784,2.096-0.784c0.188,0,0.378,0.015,0.568,0.045c0.191,0.03,0.403,0.073,0.635,0.129l-0.199,1.245
			c-0.1-0.022-0.22-0.042-0.361-0.058c-0.142-0.018-0.29-0.025-0.444-0.025c-0.476,0-0.83,0.143-1.063,0.428
			s-0.349,0.698-0.349,1.24v1.138h1.627v1.212h-1.627v7.77H289.661z"/>
		<path fill="#555658" d="M297.244,282.026c-1.29,0-2.295-0.412-3.017-1.236c-0.723-0.824-1.083-1.909-1.083-3.254v-0.365
			c0-1.289,0.372-2.356,1.117-3.2c0.744-0.844,1.653-1.266,2.727-1.266c1.201,0,2.102,0.374,2.702,1.12
			c0.6,0.748,0.9,1.741,0.9,2.98v0.863h-5.744l-0.025,0.041c0,0.902,0.199,1.635,0.598,2.196s1.007,0.843,1.826,0.843
			c0.553,0,1.039-0.079,1.457-0.237c0.418-0.157,0.776-0.375,1.075-0.651l0.639,1.063c-0.321,0.31-0.744,0.571-1.27,0.784
			S297.986,282.026,297.244,282.026z M296.987,273.991c-0.57,0-1.042,0.221-1.415,0.66c-0.374,0.44-0.602,1.003-0.685,1.689
			l0.017,0.041h4.051v-0.133c0-0.652-0.161-1.192-0.481-1.618S297.656,273.991,296.987,273.991z"/>
	</g>
	<g>
		<g>
			<path fill="#0074A8" d="M195.222,194.845h4.031v7.575h-4.031v10.306h-9.2V202.42h-15.67l-0.422-5.898l16.06-31.13h9.232V194.845z
				 M178.869,194.845h7.152v-15.832l-0.195,0.357L178.869,194.845z"/>
			<path fill="#0074A8" d="M232.153,193.155c0,6.545-1.187,11.552-3.56,15.02c-2.374,3.468-5.76,5.202-10.16,5.202
				c-4.356,0-7.721-1.685-10.094-5.056c-2.374-3.37-3.604-8.197-3.69-14.483v-8.94c0-6.523,1.182-11.514,3.544-14.971
				c2.362-3.457,5.754-5.185,10.176-5.185c4.421,0,7.813,1.712,10.175,5.137c2.362,3.424,3.565,8.312,3.609,14.662V193.155z
				 M222.92,183.543c0-3.742-0.368-6.549-1.105-8.42c-0.737-1.872-1.886-2.807-3.446-2.807c-2.926,0-4.443,3.427-4.552,10.281
				v11.847c0,3.83,0.374,6.68,1.122,8.551c0.748,1.871,1.913,2.806,3.495,2.806c1.496,0,2.606-0.875,3.333-2.627
				s1.11-4.433,1.154-8.045V183.543z"/>
			<path fill="#0074A8" d="M238.395,174.494c0-2.882,0.797-5.234,2.39-7.055c1.593-1.82,3.744-2.731,6.453-2.731
				c2.709,0,4.871,0.894,6.485,2.682c1.615,1.788,2.422,4.199,2.422,7.233v2.374c0,2.926-0.802,5.277-2.406,7.054
				c-1.604,1.777-3.75,2.666-6.437,2.666c-2.666,0-4.817-0.889-6.453-2.666c-1.637-1.777-2.455-4.193-2.455-7.25V174.494z
				 M244.376,176.998c0,1.3,0.276,2.335,0.829,3.104c0.552,0.77,1.251,1.154,2.097,1.154c0.867,0,1.555-0.401,2.064-1.203
				c0.509-0.802,0.764-1.853,0.764-3.153v-2.406c0-1.257-0.26-2.292-0.78-3.104c-0.521-0.813-1.225-1.219-2.113-1.219
				c-0.867,0-1.561,0.406-2.081,1.219c-0.52,0.813-0.78,1.88-0.78,3.202V176.998z M248.96,209.182l-4.356-2.471l19.409-36.996
				l4.389,2.471L248.96,209.182z M257.055,201.12c0-2.926,0.813-5.283,2.438-7.071c1.626-1.788,3.771-2.682,6.438-2.682
				c2.687,0,4.844,0.883,6.469,2.649c1.625,1.767,2.438,4.189,2.438,7.266v2.373c0,2.905-0.791,5.25-2.373,7.039
				s-3.738,2.682-6.47,2.682c-2.752,0-4.931-0.899-6.534-2.699c-1.604-1.798-2.406-4.182-2.406-7.152V201.12z M263.069,203.655
				c0,1.214,0.287,2.232,0.862,3.056c0.574,0.824,1.262,1.235,2.064,1.235c1.799,0,2.742-1.29,2.829-3.869v-2.958
				c0-1.279-0.266-2.313-0.796-3.104c-0.531-0.791-1.23-1.187-2.097-1.187c-1.908,0-2.861,1.658-2.861,4.974V203.655z"/>
		</g>
		<g>
			<path fill="#0074A8" d="M88.058,193.826h2.265c0.86,0,1.491-0.302,1.894-0.906s0.604-1.41,0.604-2.418
				c0-0.964-0.207-1.715-0.62-2.252c-0.413-0.538-0.967-0.806-1.662-0.806c-0.651,0-1.182,0.257-1.596,0.771
				c-0.414,0.513-0.62,1.16-0.62,1.941h-4.68c0-1.257,0.29-2.384,0.868-3.381s1.389-1.778,2.431-2.34
				c1.042-0.563,2.197-0.843,3.464-0.843c2.216,0,3.952,0.612,5.208,1.835c1.257,1.224,1.885,2.899,1.885,5.027
				c0,1.091-0.284,2.103-0.852,3.034c-0.568,0.932-1.314,1.645-2.241,2.141c1.135,0.485,1.981,1.213,2.539,2.183
				c0.556,0.97,0.835,2.117,0.835,3.439c0,2.139-0.681,3.853-2.042,5.143c-1.362,1.29-3.15,1.935-5.366,1.935
				c-2.062,0-3.734-0.636-5.019-1.91s-1.926-2.946-1.926-5.019h4.679c0,0.869,0.226,1.599,0.678,2.189
				c0.452,0.591,1.025,0.886,1.72,0.886c0.805,0,1.441-0.299,1.91-0.897s0.703-1.396,0.703-2.393c0-2.381-0.921-3.578-2.762-3.589
				h-2.298V193.826z"/>
			<path fill="#0074A8" d="M115.011,198.042c0,3.33-0.604,5.876-1.811,7.64s-2.93,2.646-5.167,2.646
				c-2.216,0-3.927-0.857-5.134-2.571c-1.208-1.714-1.833-4.169-1.877-7.366v-4.547c0-3.318,0.601-5.856,1.802-7.615
				c1.202-1.758,2.927-2.637,5.176-2.637s3.974,0.871,5.176,2.612c1.201,1.742,1.813,4.228,1.835,7.458V198.042z M110.315,193.153
				c0-1.903-0.188-3.331-0.562-4.283c-0.375-0.952-0.959-1.428-1.753-1.428c-1.488,0-2.26,1.743-2.315,5.229v6.026
				c0,1.948,0.19,3.397,0.571,4.349c0.38,0.952,0.973,1.428,1.777,1.428c0.761,0,1.325-0.445,1.695-1.336
				c0.369-0.891,0.565-2.255,0.587-4.092V193.153z"/>
			<path fill="#0074A8" d="M118.186,188.551c0-1.466,0.405-2.662,1.216-3.588c0.81-0.926,1.904-1.389,3.282-1.389
				c1.378,0,2.478,0.455,3.299,1.364c0.821,0.909,1.231,2.136,1.231,3.679v1.207c0,1.488-0.408,2.684-1.224,3.588
				c-0.815,0.904-1.907,1.356-3.273,1.356c-1.356,0-2.45-0.452-3.283-1.356c-0.833-0.904-1.249-2.133-1.249-3.688V188.551z
				 M121.229,189.824c0,0.661,0.141,1.188,0.421,1.579s0.637,0.587,1.067,0.587c0.44,0,0.791-0.204,1.05-0.612
				c0.259-0.408,0.389-0.942,0.389-1.604v-1.224c0-0.639-0.133-1.166-0.397-1.579c-0.265-0.414-0.623-0.62-1.075-0.62
				c-0.441,0-0.794,0.207-1.059,0.62s-0.396,0.957-0.396,1.629V189.824z M123.56,206.194l-2.216-1.257l9.872-18.817l2.232,1.257
				L123.56,206.194z M127.677,202.093c0-1.488,0.414-2.687,1.24-3.596c0.827-0.91,1.918-1.364,3.274-1.364
				c1.367,0,2.464,0.449,3.291,1.348s1.24,2.13,1.24,3.696v1.207c0,1.477-0.402,2.67-1.207,3.58c-0.805,0.91-1.901,1.364-3.29,1.364
				c-1.4,0-2.508-0.457-3.324-1.372c-0.815-0.915-1.224-2.127-1.224-3.638V202.093z M130.736,203.383
				c0,0.617,0.146,1.135,0.438,1.554c0.292,0.419,0.642,0.628,1.05,0.628c0.915,0,1.395-0.656,1.438-1.968v-1.505
				c0-0.65-0.135-1.176-0.405-1.579c-0.271-0.402-0.626-0.604-1.066-0.604c-0.97,0-1.455,0.843-1.455,2.53V203.383z"/>
		</g>
		<g opacity="0.6">
			<g>
				<rect x="172.811" y="223.315" fill="#799DC4" width="100.023" height="3"/>
			</g>
		</g>
		<g>
			<g>
				<g>
					<polygon fill="#0074A8" points="159.216,198.265 152.54,192.794 152.54,194.036 157.696,198.265 152.54,202.495 
						152.54,203.741 159.037,198.416 159.037,198.412 					"/>
				</g>
			</g>
			<g>
				<rect x="148.716" y="197.661" fill="#0074A8" width="9.247" height="1.081"/>
			</g>
		</g>
		<g opacity="0.6">
			<g>
				<rect x="82.236" y="215.541" fill="#799DC4" width="56.058" height="3"/>
			</g>
		</g>
	</g>
</g>
</svg>
