<?xml version="1.0" encoding="utf-8"?>
<!-- Generator: Adobe Illustrator 16.0.0, SVG Export Plug-In . SVG Version: 6.00 Build 0)  -->
<!DOCTYPE svg PUBLIC "-//W3C//DTD SVG 1.1//EN" "http://www.w3.org/Graphics/SVG/1.1/DTD/svg11.dtd">
<svg version="1.1" xmlns="http://www.w3.org/2000/svg" xmlns:xlink="http://www.w3.org/1999/xlink" x="0px" y="0px" width="360px"
	 height="360px" viewBox="0 0 360 360" enable-background="new 0 0 360 360" xml:space="preserve">
<g id="Layer_1">
	<g>
		<rect fill="#FABEA7" width="360" height="360"/>
	</g>
	<g>
		<g>
			<path fill="#EF4331" d="M180.001,19c-38.666,0-70,31.342-70,70.002c0,38.659,31.334,69.998,70,69.998
				c38.658,0,69.998-31.339,69.998-69.998C249.999,50.342,218.659,19,180.001,19z"/>
		</g>
		<g>
			<g id="petal-15">
				<path fill="#F1F1F2" d="M144.998,36.619c3.65-2.436,8.623-1.11,10.566,2.83l15.612,31.657c0.577,1.179,0.196,2.612-0.903,3.341
					c-1.093,0.736-2.561,0.541-3.431-0.45L143.57,47.46C140.674,44.158,141.349,39.057,144.998,36.619z"/>
			</g>
			<g id="petal-14">
				<path fill="#F1F1F2" d="M127.618,54.002c2.435-3.651,7.54-4.327,10.842-1.431l26.536,23.273
					c0.988,0.869,1.184,2.336,0.449,3.436c-0.73,1.094-2.158,1.476-3.341,0.897l-31.655-15.613
					C126.506,62.623,125.177,57.649,127.618,54.002z"/>
			</g>
			<g id="petal-13">
				<path fill="#F1F1F2" d="M118.209,76.712c0.858-4.305,5.31-6.885,9.471-5.471l33.426,11.343c1.244,0.424,1.986,1.709,1.728,3
					c-0.253,1.295-1.431,2.197-2.749,2.109l-35.22-2.308C120.481,85.101,117.354,81.014,118.209,76.712z"/>
			</g>
			<g id="petal-12">
				<path fill="#F1F1F2" d="M118.209,101.292c-0.854-4.303,2.272-8.39,6.656-8.676l35.226-2.31c1.312-0.087,2.489,0.813,2.743,2.108
					c0.258,1.292-0.484,2.576-1.728,3l-33.426,11.346C123.519,108.173,119.067,105.595,118.209,101.292z"/>
			</g>
			<g id="petal-11">
				<path fill="#F1F1F2" d="M127.618,124c-2.441-3.646-1.112-8.62,2.831-10.563l31.655-15.612c1.184-0.581,2.611-0.198,3.341,0.895
					c0.734,1.1,0.544,2.568-0.449,3.439L138.46,125.43C135.157,128.325,130.053,127.649,127.618,124z"/>
			</g>
			<g id="petal-10">
				<path fill="#F1F1F2" d="M144.998,141.381c-3.649-2.438-4.323-7.538-1.427-10.841l23.271-26.538
					c0.87-0.989,2.338-1.184,3.431-0.45c1.099,0.731,1.486,2.163,0.903,3.343l-15.612,31.658
					C153.621,142.494,148.647,143.821,144.998,141.381z"/>
			</g>
			<g id="petal-9">
				<path fill="#F1F1F2" d="M176.382,144.133c-0.285,4.385-4.372,7.514-8.671,6.656c-4.308-0.856-6.887-5.31-5.469-9.47
					l11.342-33.425c0.422-1.243,1.712-1.986,3.001-1.729c1.29,0.255,2.192,1.433,2.107,2.747L176.382,144.133z"/>
			</g>
			<g id="petal-16">
				<path fill="#F1F1F2" d="M176.586,71.837c-1.289,0.256-2.579-0.486-3.001-1.729l-11.346-33.425
					c-1.414-4.162,1.165-8.615,5.465-9.471c4.306-0.854,8.394,2.273,8.678,6.657l2.311,35.224
					C178.778,70.402,177.876,71.58,176.586,71.837z"/>
			</g>
			<g id="petal-4">
				<path fill="#F1F1F2" d="M241.785,76.708c0.858,4.304-2.27,8.392-6.654,8.678l-35.222,2.308
					c-1.312,0.088-2.489-0.814-2.747-2.109c-0.258-1.291,0.482-2.576,1.732-2.998l33.422-11.345
					C236.478,69.828,240.933,72.407,241.785,76.708z"/>
			</g>
			<g id="petal-3">
				<path fill="#F1F1F2" d="M232.378,54.002c2.439,3.645,1.11,8.618-2.833,10.563l-31.655,15.613
					c-1.178,0.579-2.605,0.196-3.339-0.897c-0.736-1.1-0.539-2.567,0.453-3.436l26.536-23.273
					C224.843,49.675,229.945,50.351,232.378,54.002z"/>
			</g>
			<g id="petal-2">
				<path fill="#F1F1F2" d="M214.996,36.619c3.651,2.438,4.324,7.539,1.432,10.841l-23.273,26.538
					c-0.87,0.989-2.338,1.187-3.437,0.45c-1.089-0.731-1.476-2.16-0.898-3.341l15.615-31.66
					C206.379,35.508,211.347,34.184,214.996,36.619z"/>
			</g>
			<g id="petal-1">
				<path fill="#F1F1F2" d="M183.612,33.869c0.285-4.383,4.373-7.515,8.673-6.657c4.306,0.856,6.885,5.309,5.473,9.469
					l-11.343,33.424c-0.428,1.246-1.71,1.987-3.006,1.731c-1.29-0.257-2.192-1.434-2.107-2.745L183.612,33.869z"/>
			</g>
			<g id="petal-8">
				<path fill="#F1F1F2" d="M192.285,150.789c-4.3,0.858-8.388-2.271-8.673-6.656l-2.311-35.221
					c-0.085-1.313,0.817-2.492,2.107-2.747c1.296-0.257,2.579,0.485,3.006,1.729l11.343,33.425
					C199.169,145.479,196.597,149.934,192.285,150.789z"/>
			</g>
			<g id="petal-7">
				<path fill="#F1F1F2" d="M214.996,141.381c-3.649,2.44-8.617,1.111-10.562-2.828l-15.615-31.658
					c-0.578-1.179-0.19-2.612,0.898-3.343c1.099-0.733,2.567-0.539,3.437,0.45l23.273,26.538
					C219.32,133.844,218.647,138.943,214.996,141.381z"/>
			</g>
			<g id="petal-6">
				<path fill="#F1F1F2" d="M232.378,124c-2.433,3.649-7.536,4.325-10.838,1.43l-26.536-23.271c-0.992-0.872-1.189-2.34-0.453-3.439
					c0.734-1.092,2.162-1.476,3.339-0.895l31.655,15.61C233.488,115.38,234.817,120.351,232.378,124z"/>
			</g>
			<g id="petal-5">
				<path fill="#F1F1F2" d="M241.785,101.292c-0.853,4.301-5.308,6.88-9.469,5.469l-33.422-11.346c-1.25-0.424-1.99-1.708-1.732-3
					c0.257-1.295,1.429-2.195,2.741-2.108l35.228,2.31C239.515,92.902,242.644,96.987,241.785,101.292z"/>
			</g>
		</g>
	</g>
</g>
<g id="Layer_2">
	<g>
		<g>
			<path fill="#F4777C" d="M138.103,333.68h0.082l6.357-16.174h3.35v19.906h-2.693v-14.916l-0.082-0.014l-6.029,14.93h-1.873
				l-6.207-15.422l-0.082,0.014v15.408h-2.693v-19.906h3.541L138.103,333.68z"/>
			<path fill="#F4777C" d="M151.556,329.879c0-2.188,0.592-3.99,1.777-5.407c1.185-1.417,2.793-2.126,4.826-2.126
				c2.051,0,3.671,0.707,4.86,2.119c1.189,1.413,1.784,3.218,1.784,5.414v0.301c0,2.206-0.593,4.011-1.777,5.414
				c-1.185,1.404-2.798,2.105-4.84,2.105c-2.042,0-3.657-0.704-4.847-2.112s-1.784-3.21-1.784-5.407V329.879z M154.249,330.18
				c0,1.568,0.33,2.862,0.991,3.883c0.661,1.021,1.643,1.531,2.946,1.531c1.285,0,2.26-0.51,2.926-1.531
				c0.665-1.021,0.998-2.315,0.998-3.883v-0.301c0-1.549-0.335-2.839-1.005-3.869c-0.67-1.03-1.652-1.545-2.946-1.545
				c-1.285,0-2.258,0.515-2.919,1.545c-0.661,1.03-0.991,2.32-0.991,3.869V330.18z"/>
			<path fill="#F4777C" d="M171.011,337.412h-2.693v-21.328h2.693V337.412z"/>
			<path fill="#F4777C" d="M174.538,330.289c0-2.379,0.508-4.297,1.524-5.756c1.016-1.458,2.44-2.188,4.272-2.188
				c0.866,0,1.634,0.16,2.304,0.479c0.67,0.319,1.242,0.784,1.716,1.395v-8.135h2.693v21.328h-2.064l-0.41-1.873
				c-0.483,0.711-1.08,1.249-1.791,1.613s-1.536,0.547-2.475,0.547c-1.805,0-3.218-0.654-4.238-1.962
				c-1.021-1.308-1.531-3.028-1.531-5.161V330.289z M177.231,330.576c0,1.495,0.305,2.691,0.916,3.589
				c0.61,0.898,1.559,1.347,2.844,1.347c0.802,0,1.477-0.182,2.023-0.547c0.547-0.364,0.993-0.875,1.34-1.531v-6.904
				c-0.347-0.61-0.795-1.096-1.347-1.456c-0.552-0.36-1.215-0.54-1.989-0.54c-1.294,0-2.249,0.533-2.864,1.6
				s-0.923,2.452-0.923,4.156V330.576z"/>
			<path fill="#F4777C" d="M190.438,329.879c0-2.188,0.592-3.99,1.777-5.407c1.185-1.417,2.793-2.126,4.826-2.126
				c2.051,0,3.671,0.707,4.86,2.119c1.189,1.413,1.784,3.218,1.784,5.414v0.301c0,2.206-0.593,4.011-1.777,5.414
				c-1.185,1.404-2.798,2.105-4.84,2.105c-2.042,0-3.657-0.704-4.847-2.112s-1.784-3.21-1.784-5.407V329.879z M193.132,330.18
				c0,1.568,0.33,2.862,0.991,3.883c0.661,1.021,1.643,1.531,2.946,1.531c1.285,0,2.26-0.51,2.926-1.531
				c0.665-1.021,0.998-2.315,0.998-3.883v-0.301c0-1.549-0.335-2.839-1.005-3.869c-0.67-1.03-1.652-1.545-2.946-1.545
				c-1.285,0-2.258,0.515-2.919,1.545c-0.661,1.03-0.991,2.32-0.991,3.869V330.18z"/>
			<path fill="#F4777C" d="M211.712,333.051l0.232,1.039h0.082l0.26-1.039l3.404-10.432h2.748l-5.441,14.793h-2.037l-5.51-14.793
				h2.762L211.712,333.051z"/>
			<path fill="#F4777C" d="M229.745,337.412c-0.091-0.446-0.162-0.841-0.212-1.183c-0.05-0.342-0.08-0.686-0.089-1.032
				c-0.501,0.711-1.155,1.306-1.962,1.784s-1.675,0.718-2.604,0.718c-1.541,0-2.714-0.394-3.521-1.183
				c-0.807-0.788-1.21-1.875-1.21-3.261c0-1.413,0.572-2.518,1.716-3.315c1.144-0.797,2.695-1.196,4.655-1.196h2.926v-1.463
				c0-0.866-0.265-1.552-0.793-2.058c-0.529-0.506-1.276-0.759-2.242-0.759c-0.875,0-1.582,0.219-2.119,0.656
				c-0.538,0.438-0.807,0.962-0.807,1.572l-2.557,0.027l-0.027-0.082c-0.064-1.075,0.439-2.06,1.511-2.953
				c1.071-0.893,2.454-1.34,4.149-1.34c1.677,0,3.026,0.426,4.047,1.278c1.021,0.853,1.531,2.081,1.531,3.685v7.123
				c0,0.529,0.027,1.039,0.082,1.531s0.155,0.976,0.301,1.449H229.745z M225.274,335.443c0.975,0,1.854-0.25,2.639-0.752
				c0.784-0.501,1.294-1.075,1.531-1.723v-2.406h-3.021c-1.085,0-1.953,0.273-2.604,0.82c-0.652,0.547-0.978,1.189-0.978,1.928
				c0,0.656,0.205,1.176,0.615,1.559S224.472,335.443,225.274,335.443z"/>
		</g>
		<g>
			<path fill="#555658" d="M80.438,296.305v5.238h-1.635v-12.078h4.134c1.323,0,2.333,0.294,3.03,0.881
				c0.697,0.586,1.046,1.438,1.046,2.557c0,0.619-0.162,1.159-0.486,1.618c-0.323,0.459-0.795,0.824-1.415,1.096
				c0.664,0.216,1.142,0.565,1.432,1.05c0.291,0.484,0.436,1.084,0.436,1.797v1.138c0,0.376,0.042,0.714,0.125,1.013
				s0.227,0.542,0.432,0.73v0.199h-1.685c-0.216-0.188-0.354-0.465-0.415-0.83s-0.091-0.741-0.091-1.129v-1.104
				c0-0.653-0.191-1.18-0.573-1.578s-0.894-0.598-1.536-0.598H80.438z M80.438,295.019h2.333c0.924,0,1.59-0.176,1.996-0.527
				c0.407-0.352,0.61-0.887,0.61-1.606c0-0.68-0.198-1.207-0.594-1.581c-0.396-0.373-1.011-0.56-1.847-0.56h-2.499V295.019z"/>
			<path fill="#555658" d="M88.163,296.969c0-1.328,0.36-2.422,1.079-3.282s1.696-1.291,2.93-1.291c1.245,0,2.229,0.429,2.951,1.286
				c0.722,0.858,1.083,1.954,1.083,3.287v0.184c0,1.339-0.36,2.435-1.079,3.287c-0.719,0.852-1.699,1.277-2.938,1.277
				s-2.221-0.427-2.942-1.282c-0.723-0.854-1.083-1.949-1.083-3.282V296.969z M89.798,297.152c0,0.951,0.201,1.737,0.602,2.357
				c0.401,0.619,0.998,0.93,1.789,0.93c0.78,0,1.373-0.311,1.776-0.93c0.404-0.62,0.606-1.406,0.606-2.357v-0.184
				c0-0.94-0.204-1.724-0.61-2.349c-0.407-0.625-1.003-0.938-1.789-0.938c-0.78,0-1.371,0.313-1.772,0.938
				c-0.401,0.625-0.602,1.408-0.602,2.349V297.152z"/>
			<path fill="#555658" d="M98.818,292.562l0.116,1.179c0.293-0.426,0.666-0.757,1.117-0.992c0.451-0.235,0.975-0.353,1.573-0.353
				s1.111,0.139,1.54,0.415c0.429,0.276,0.751,0.691,0.967,1.245c0.288-0.515,0.663-0.92,1.125-1.216
				c0.462-0.296,1.003-0.444,1.623-0.444c0.913,0,1.635,0.314,2.167,0.942s0.797,1.572,0.797,2.834v5.371h-1.635v-5.387
				c0-0.886-0.152-1.513-0.457-1.881s-0.758-0.552-1.361-0.552c-0.559,0-1.011,0.193-1.357,0.581
				c-0.346,0.388-0.549,0.877-0.61,1.469v0.066v5.703h-1.644v-5.387c0-0.842-0.156-1.457-0.469-1.848
				c-0.313-0.39-0.763-0.585-1.349-0.585c-0.498,0-0.908,0.103-1.229,0.308c-0.321,0.204-0.567,0.492-0.739,0.863v6.648h-1.635
				v-8.981H98.818z"/>
			<path fill="#555658" d="M116.886,301.543c-0.055-0.271-0.098-0.511-0.129-0.718c-0.03-0.208-0.048-0.417-0.054-0.627
				c-0.304,0.432-0.701,0.793-1.191,1.083c-0.489,0.291-1.017,0.436-1.581,0.436c-0.935,0-1.647-0.239-2.138-0.718
				c-0.489-0.479-0.734-1.139-0.734-1.979c0-0.857,0.347-1.528,1.042-2.013c0.694-0.484,1.636-0.727,2.826-0.727h1.776v-0.888
				c0-0.526-0.161-0.942-0.481-1.25c-0.321-0.307-0.775-0.461-1.361-0.461c-0.531,0-0.96,0.133-1.287,0.398s-0.49,0.584-0.49,0.955
				l-1.552,0.017l-0.017-0.05c-0.039-0.653,0.267-1.251,0.917-1.793c0.65-0.542,1.49-0.813,2.519-0.813
				c1.018,0,1.837,0.259,2.457,0.776s0.93,1.263,0.93,2.236v4.325c0,0.321,0.017,0.631,0.05,0.93s0.094,0.592,0.183,0.88H116.886z
				 M114.171,300.348c0.592,0,1.126-0.152,1.602-0.457c0.476-0.304,0.786-0.652,0.93-1.045v-1.461h-1.834
				c-0.659,0-1.186,0.166-1.582,0.498c-0.396,0.332-0.593,0.722-0.593,1.17c0,0.398,0.125,0.714,0.374,0.946
				S113.685,300.348,114.171,300.348z"/>
			<path fill="#555658" d="M126.234,298.895l0.141,0.631h0.05l0.158-0.631l2.067-6.333h1.668l-3.304,8.981h-1.237l-3.345-8.981
				h1.677L126.234,298.895z"/>
			<path fill="#555658" d="M130.431,296.969c0-1.328,0.36-2.422,1.079-3.282s1.696-1.291,2.93-1.291
				c1.245,0,2.229,0.429,2.951,1.286c0.722,0.858,1.083,1.954,1.083,3.287v0.184c0,1.339-0.36,2.435-1.079,3.287
				c-0.719,0.852-1.699,1.277-2.938,1.277s-2.221-0.427-2.942-1.282c-0.723-0.854-1.083-1.949-1.083-3.282V296.969z
				 M132.066,297.152c0,0.951,0.201,1.737,0.602,2.357c0.401,0.619,0.998,0.93,1.789,0.93c0.78,0,1.373-0.311,1.776-0.93
				c0.404-0.62,0.606-1.406,0.606-2.357v-0.184c0-0.94-0.204-1.724-0.61-2.349c-0.407-0.625-1.003-0.938-1.789-0.938
				c-0.78,0-1.371,0.313-1.772,0.938c-0.401,0.625-0.602,1.408-0.602,2.349V297.152z"/>
			<path fill="#555658" d="M141.899,290.395v2.167h1.702v1.212h-1.702v5.453c0,0.421,0.087,0.717,0.261,0.889
				c0.175,0.172,0.406,0.258,0.693,0.258c0.094,0,0.199-0.013,0.315-0.038c0.116-0.024,0.213-0.051,0.291-0.079l0.224,1.121
				c-0.122,0.1-0.302,0.182-0.54,0.245s-0.473,0.095-0.706,0.095c-0.664,0-1.192-0.2-1.585-0.602s-0.589-1.03-0.589-1.889v-5.453
				h-1.428v-1.212h1.428v-2.167H141.899z"/>
			<path fill="#555658" d="M148.221,301.717c-1.29,0-2.295-0.412-3.017-1.236c-0.723-0.824-1.083-1.909-1.083-3.254v-0.365
				c0-1.289,0.372-2.356,1.117-3.2c0.744-0.844,1.653-1.266,2.727-1.266c1.201,0,2.102,0.374,2.702,1.12
				c0.6,0.748,0.9,1.741,0.9,2.98v0.863h-5.744l-0.025,0.041c0,0.902,0.199,1.635,0.598,2.196s1.007,0.843,1.826,0.843
				c0.553,0,1.039-0.079,1.457-0.237c0.418-0.157,0.776-0.375,1.075-0.651l0.639,1.063c-0.321,0.31-0.744,0.571-1.27,0.784
				S148.963,301.717,148.221,301.717z M147.964,293.682c-0.57,0-1.042,0.221-1.415,0.66c-0.374,0.44-0.602,1.003-0.685,1.689
				l0.017,0.041h4.051v-0.133c0-0.652-0.161-1.192-0.481-1.618S148.633,293.682,147.964,293.682z"/>
			<path fill="#555658" d="M156.801,294.006l-0.838-0.05c-0.432,0-0.795,0.103-1.092,0.308c-0.296,0.204-0.524,0.492-0.685,0.863
				v6.416h-1.635v-8.981h1.461l0.158,1.312c0.254-0.465,0.568-0.827,0.942-1.088c0.373-0.26,0.804-0.39,1.291-0.39
				c0.122,0,0.238,0.01,0.349,0.029s0.202,0.04,0.274,0.062L156.801,294.006z"/>
			<path fill="#555658" d="M162.874,299.127c0-0.359-0.137-0.652-0.411-0.879c-0.273-0.228-0.792-0.427-1.556-0.598
				c-1.057-0.228-1.869-0.546-2.436-0.955c-0.567-0.409-0.851-0.957-0.851-1.644c0-0.73,0.311-1.355,0.934-1.876
				c0.622-0.521,1.429-0.78,2.419-0.78c1.018,0,1.843,0.276,2.474,0.83s0.933,1.198,0.905,1.935l-0.017,0.049h-1.561
				c0-0.387-0.17-0.738-0.511-1.054c-0.34-0.315-0.771-0.474-1.291-0.474c-0.576,0-1.006,0.131-1.291,0.391
				c-0.285,0.26-0.428,0.57-0.428,0.93c0,0.354,0.123,0.628,0.369,0.822c0.247,0.193,0.754,0.37,1.523,0.531
				c1.101,0.232,1.937,0.562,2.507,0.987s0.855,0.982,0.855,1.669c0,0.797-0.322,1.446-0.967,1.95
				c-0.645,0.504-1.487,0.755-2.527,0.755c-1.146,0-2.047-0.29-2.706-0.871s-0.971-1.259-0.938-2.033l0.017-0.051h1.561
				c0.028,0.582,0.244,1.006,0.647,1.274s0.877,0.403,1.419,0.403c0.581,0,1.036-0.124,1.365-0.37
				C162.709,299.823,162.874,299.51,162.874,299.127z"/>
			<path fill="#555658" d="M174.717,290.395v2.167h1.702v1.212h-1.702v5.453c0,0.421,0.087,0.717,0.261,0.889
				c0.175,0.172,0.406,0.258,0.693,0.258c0.094,0,0.199-0.013,0.315-0.038c0.116-0.024,0.213-0.051,0.291-0.079l0.224,1.121
				c-0.122,0.1-0.302,0.182-0.54,0.245s-0.473,0.095-0.706,0.095c-0.664,0-1.192-0.2-1.585-0.602s-0.589-1.03-0.589-1.889v-5.453
				h-1.428v-1.212h1.428v-2.167H174.717z"/>
			<path fill="#555658" d="M183.023,300.215c-0.282,0.481-0.645,0.853-1.087,1.112s-0.955,0.39-1.536,0.39
				c-0.979,0-1.743-0.313-2.291-0.938s-0.822-1.6-0.822-2.922v-5.296h1.635v5.313c0,0.957,0.141,1.616,0.423,1.976
				s0.722,0.539,1.32,0.539c0.581,0,1.061-0.117,1.44-0.353c0.379-0.235,0.665-0.568,0.859-1v-6.475h1.635v8.981h-1.469
				L183.023,300.215z"/>
			<path fill="#555658" d="M190.382,294.006l-0.838-0.05c-0.432,0-0.795,0.103-1.092,0.308c-0.296,0.204-0.524,0.492-0.685,0.863
				v6.416h-1.635v-8.981h1.461l0.158,1.312c0.254-0.465,0.568-0.827,0.942-1.088c0.373-0.26,0.804-0.39,1.291-0.39
				c0.122,0,0.238,0.01,0.349,0.029s0.202,0.04,0.274,0.062L190.382,294.006z"/>
			<path fill="#555658" d="M192.695,292.562l0.116,1.337c0.299-0.477,0.674-0.846,1.125-1.108c0.451-0.263,0.964-0.395,1.54-0.395
				c0.968,0,1.718,0.283,2.25,0.851s0.797,1.443,0.797,2.627v5.67h-1.635v-5.637c0-0.791-0.156-1.353-0.469-1.685
				c-0.313-0.332-0.79-0.498-1.432-0.498c-0.503,0-0.931,0.101-1.283,0.303c-0.351,0.202-0.629,0.485-0.834,0.851v6.666h-1.635
				v-8.981H192.695z"/>
			<path fill="#555658" d="M199.664,296.969c0-1.328,0.36-2.422,1.079-3.282s1.696-1.291,2.93-1.291
				c1.245,0,2.229,0.429,2.951,1.286c0.722,0.858,1.083,1.954,1.083,3.287v0.184c0,1.339-0.36,2.435-1.079,3.287
				c-0.719,0.852-1.699,1.277-2.938,1.277s-2.221-0.427-2.942-1.282c-0.723-0.854-1.083-1.949-1.083-3.282V296.969z
				 M201.299,297.152c0,0.951,0.201,1.737,0.602,2.357c0.401,0.619,0.998,0.93,1.789,0.93c0.78,0,1.373-0.311,1.776-0.93
				c0.404-0.62,0.606-1.406,0.606-2.357v-0.184c0-0.94-0.204-1.724-0.61-2.349c-0.407-0.625-1.003-0.938-1.789-0.938
				c-0.78,0-1.371,0.313-1.772,0.938c-0.401,0.625-0.602,1.408-0.602,2.349V297.152z"/>
			<path fill="#555658" d="M214.561,300.215c-0.282,0.481-0.645,0.853-1.087,1.112s-0.955,0.39-1.536,0.39
				c-0.979,0-1.743-0.313-2.291-0.938s-0.822-1.6-0.822-2.922v-5.296h1.635v5.313c0,0.957,0.141,1.616,0.423,1.976
				s0.722,0.539,1.32,0.539c0.581,0,1.061-0.117,1.44-0.353c0.379-0.235,0.665-0.568,0.859-1v-6.475h1.635v8.981h-1.469
				L214.561,300.215z"/>
			<path fill="#555658" d="M219.945,290.395v2.167h1.702v1.212h-1.702v5.453c0,0.421,0.087,0.717,0.261,0.889
				c0.175,0.172,0.406,0.258,0.693,0.258c0.094,0,0.199-0.013,0.315-0.038c0.116-0.024,0.213-0.051,0.291-0.079l0.224,1.121
				c-0.122,0.1-0.302,0.182-0.54,0.245s-0.473,0.095-0.706,0.095c-0.664,0-1.192-0.2-1.585-0.602s-0.589-1.03-0.589-1.889v-5.453
				h-1.428v-1.212h1.428v-2.167H219.945z"/>
			<path fill="#555658" d="M227.691,290.262h-1.635v-1.668h1.635V290.262z M227.691,301.543h-1.635v-8.981h1.635V301.543z"/>
			<path fill="#555658" d="M230.817,292.562l0.116,1.337c0.299-0.477,0.674-0.846,1.125-1.108c0.451-0.263,0.964-0.395,1.54-0.395
				c0.968,0,1.718,0.283,2.25,0.851s0.797,1.443,0.797,2.627v5.67h-1.635v-5.637c0-0.791-0.156-1.353-0.469-1.685
				c-0.313-0.332-0.79-0.498-1.432-0.498c-0.503,0-0.931,0.101-1.283,0.303c-0.351,0.202-0.629,0.485-0.834,0.851v6.666h-1.635
				v-8.981H230.817z"/>
			<path fill="#555658" d="M241.738,300.439c0.503,0,0.943-0.168,1.32-0.503s0.564-0.745,0.564-1.232h1.478l0.025,0.05
				c0.022,0.774-0.31,1.462-0.996,2.063s-1.483,0.9-2.391,0.9c-1.262,0-2.236-0.429-2.922-1.286s-1.029-1.926-1.029-3.204v-0.349
				c0-1.268,0.344-2.331,1.034-3.191c0.688-0.86,1.661-1.291,2.917-1.291c1.001,0,1.822,0.31,2.461,0.93
				c0.639,0.62,0.947,1.381,0.925,2.282l-0.017,0.051h-1.486c0-0.549-0.179-1.015-0.535-1.399c-0.357-0.385-0.807-0.577-1.349-0.577
				c-0.802,0-1.388,0.312-1.755,0.935c-0.368,0.622-0.552,1.376-0.552,2.262v0.349c0,0.902,0.181,1.663,0.543,2.283
				C240.336,300.129,240.924,300.439,241.738,300.439z"/>
			<path fill="#555658" d="M250.467,294.006l-0.838-0.05c-0.432,0-0.795,0.103-1.092,0.308c-0.296,0.204-0.524,0.492-0.685,0.863
				v6.416h-1.635v-8.981h1.461l0.158,1.312c0.254-0.465,0.568-0.827,0.942-1.088c0.373-0.26,0.804-0.39,1.291-0.39
				c0.122,0,0.238,0.01,0.349,0.029s0.202,0.04,0.274,0.062L250.467,294.006z"/>
			<path fill="#555658" d="M254.879,301.717c-1.29,0-2.295-0.412-3.017-1.236c-0.723-0.824-1.083-1.909-1.083-3.254v-0.365
				c0-1.289,0.372-2.356,1.117-3.2c0.744-0.844,1.653-1.266,2.727-1.266c1.201,0,2.102,0.374,2.702,1.12
				c0.6,0.748,0.9,1.741,0.9,2.98v0.863h-5.744l-0.025,0.041c0,0.902,0.199,1.635,0.598,2.196s1.007,0.843,1.826,0.843
				c0.553,0,1.039-0.079,1.457-0.237c0.418-0.157,0.776-0.375,1.075-0.651l0.639,1.063c-0.321,0.31-0.744,0.571-1.27,0.784
				S255.621,301.717,254.879,301.717z M254.622,293.682c-0.57,0-1.042,0.221-1.415,0.66c-0.374,0.44-0.602,1.003-0.685,1.689
				l0.017,0.041h4.051v-0.133c0-0.652-0.161-1.192-0.481-1.618S255.292,293.682,254.622,293.682z"/>
			<path fill="#555658" d="M264.729,301.543c-0.055-0.271-0.098-0.511-0.129-0.718c-0.03-0.208-0.048-0.417-0.054-0.627
				c-0.304,0.432-0.701,0.793-1.191,1.083c-0.489,0.291-1.017,0.436-1.581,0.436c-0.935,0-1.647-0.239-2.138-0.718
				c-0.489-0.479-0.734-1.139-0.734-1.979c0-0.857,0.347-1.528,1.042-2.013c0.694-0.484,1.636-0.727,2.826-0.727h1.776v-0.888
				c0-0.526-0.161-0.942-0.481-1.25c-0.321-0.307-0.775-0.461-1.361-0.461c-0.531,0-0.96,0.133-1.287,0.398s-0.49,0.584-0.49,0.955
				l-1.552,0.017l-0.017-0.05c-0.039-0.653,0.267-1.251,0.917-1.793c0.65-0.542,1.49-0.813,2.519-0.813
				c1.018,0,1.837,0.259,2.457,0.776s0.93,1.263,0.93,2.236v4.325c0,0.321,0.017,0.631,0.05,0.93s0.094,0.592,0.183,0.88H264.729z
				 M262.015,300.348c0.592,0,1.126-0.152,1.602-0.457c0.476-0.304,0.786-0.652,0.93-1.045v-1.461h-1.834
				c-0.659,0-1.186,0.166-1.582,0.498c-0.396,0.332-0.593,0.722-0.593,1.17c0,0.398,0.125,0.714,0.374,0.946
				S261.528,300.348,262.015,300.348z"/>
			<path fill="#555658" d="M272.927,299.127c0-0.359-0.137-0.652-0.411-0.879c-0.273-0.228-0.792-0.427-1.556-0.598
				c-1.057-0.228-1.869-0.546-2.436-0.955c-0.567-0.409-0.851-0.957-0.851-1.644c0-0.73,0.311-1.355,0.934-1.876
				c0.622-0.521,1.429-0.78,2.419-0.78c1.018,0,1.843,0.276,2.474,0.83s0.933,1.198,0.905,1.935l-0.017,0.049h-1.561
				c0-0.387-0.17-0.738-0.511-1.054c-0.34-0.315-0.771-0.474-1.291-0.474c-0.576,0-1.006,0.131-1.291,0.391
				c-0.285,0.26-0.428,0.57-0.428,0.93c0,0.354,0.123,0.628,0.369,0.822c0.247,0.193,0.754,0.37,1.523,0.531
				c1.101,0.232,1.937,0.562,2.507,0.987s0.855,0.982,0.855,1.669c0,0.797-0.322,1.446-0.967,1.95
				c-0.645,0.504-1.487,0.755-2.527,0.755c-1.146,0-2.047-0.29-2.706-0.871s-0.971-1.259-0.938-2.033l0.017-0.051H269
				c0.028,0.582,0.244,1.006,0.647,1.274s0.877,0.403,1.419,0.403c0.581,0,1.036-0.124,1.365-0.37
				C272.762,299.823,272.927,299.51,272.927,299.127z"/>
			<path fill="#555658" d="M279.465,301.717c-1.29,0-2.295-0.412-3.017-1.236c-0.723-0.824-1.083-1.909-1.083-3.254v-0.365
				c0-1.289,0.372-2.356,1.117-3.2c0.744-0.844,1.653-1.266,2.727-1.266c1.201,0,2.102,0.374,2.702,1.12
				c0.6,0.748,0.9,1.741,0.9,2.98v0.863h-5.744l-0.025,0.041c0,0.902,0.199,1.635,0.598,2.196s1.007,0.843,1.826,0.843
				c0.553,0,1.039-0.079,1.457-0.237c0.418-0.157,0.776-0.375,1.075-0.651l0.639,1.063c-0.321,0.31-0.744,0.571-1.27,0.784
				S280.207,301.717,279.465,301.717z M279.208,293.682c-0.57,0-1.042,0.221-1.415,0.66c-0.374,0.44-0.602,1.003-0.685,1.689
				l0.017,0.041h4.051v-0.133c0-0.652-0.161-1.192-0.481-1.618S279.877,293.682,279.208,293.682z"/>
		</g>
	</g>
	<g>
		<g>
			<g>
				<g>
					<polygon fill="#FFFFFF" points="180.201,241.998 171.875,235.175 171.875,236.724 178.308,241.998 171.875,247.273 
						171.875,248.826 179.977,242.185 179.977,242.181 					"/>
				</g>
			</g>
			<g>
				<rect x="167.103" y="241.245" fill="#FFFFFF" width="11.535" height="1.349"/>
			</g>
		</g>
		<g>
			<g>
				<path fill="#EF4331" d="M229.975,181.333v8.41h-0.561c-3.714,0.023-6.664,1.139-8.848,3.347
					c-2.185,2.208-3.51,5.297-3.978,9.269c2.125-2.43,4.789-3.645,7.99-3.645c3.691,0,6.641,1.577,8.849,4.73
					c2.208,3.154,3.312,7.359,3.312,12.616c0,3.341-0.631,6.354-1.893,9.041s-3.031,4.771-5.309,6.255
					c-2.278,1.484-4.854,2.225-7.728,2.225c-4.625,0-8.334-1.857-11.126-5.572c-2.792-3.714-4.188-8.713-4.188-14.998v-3.68
					c0-5.63,0.882-10.559,2.646-14.788c1.763-4.228,4.31-7.481,7.639-9.759s7.213-3.428,11.652-3.452H229.975z M221.459,206.879
					c-1.261,0-2.319,0.399-3.171,1.198c-0.853,0.799-1.489,1.786-1.91,2.96v3.595c0,3.619,0.479,6.321,1.437,8.106
					c0.958,1.786,2.219,2.678,3.785,2.678c1.588,0,2.861-0.864,3.82-2.591c0.958-1.727,1.437-3.941,1.437-6.643
					c0-2.749-0.497-4.986-1.49-6.713C224.374,207.742,223.071,206.879,221.459,206.879z"/>
				<path fill="#EF4331" d="M268.683,211.785c0,7.056-1.279,12.452-3.837,16.19c-2.558,3.738-6.208,5.606-10.951,5.606
					c-4.696,0-8.323-1.816-10.881-5.449s-3.884-8.836-3.977-15.612v-9.637c0-7.032,1.272-12.411,3.819-16.137
					c2.546-3.726,6.203-5.589,10.969-5.589c4.766,0,8.421,1.846,10.968,5.537c2.546,3.692,3.843,8.959,3.89,15.805V211.785z
					 M258.731,201.424c0-4.034-0.398-7.059-1.192-9.076s-2.032-3.026-3.714-3.026c-3.154,0-4.79,3.694-4.906,11.082v12.77
					c0,4.128,0.403,7.2,1.209,9.217s2.062,3.025,3.767,3.025c1.612,0,2.809-0.944,3.592-2.832c0.783-1.888,1.197-4.778,1.244-8.672
					V201.424z"/>
				<path fill="#EF4331" d="M271.823,191.67c0-3.106,0.858-5.642,2.575-7.604c1.717-1.962,4.036-2.944,6.956-2.944
					c2.92,0,5.25,0.964,6.991,2.891c1.74,1.928,2.61,4.527,2.61,7.797v2.558c0,3.154-0.864,5.689-2.593,7.604
					c-1.729,1.916-4.042,2.874-6.938,2.874c-2.873,0-5.192-0.958-6.956-2.874c-1.765-1.915-2.646-4.521-2.646-7.814V191.67z
					 M278.271,194.369c0,1.401,0.298,2.518,0.894,3.346c0.596,0.83,1.35,1.244,2.26,1.244c0.935,0,1.676-0.432,2.226-1.296
					c0.548-0.864,0.823-1.998,0.823-3.399v-2.593c0-1.354-0.28-2.47-0.841-3.346s-1.32-1.314-2.278-1.314
					c-0.935,0-1.682,0.438-2.243,1.314s-0.841,2.027-0.841,3.452V194.369z M283.212,229.061l-4.696-2.663l20.92-39.878l4.731,2.663
					L283.212,229.061z M291.938,220.37c0-3.154,0.876-5.694,2.628-7.622c1.752-1.928,4.065-2.891,6.938-2.891
					c2.896,0,5.222,0.952,6.974,2.856c1.752,1.904,2.628,4.515,2.628,7.832v2.558c0,3.131-0.854,5.659-2.559,7.587
					c-1.706,1.927-4.03,2.891-6.973,2.891c-2.967,0-5.315-0.969-7.043-2.908c-1.729-1.939-2.593-4.509-2.593-7.709V220.37z
					 M298.42,223.104c0,1.309,0.309,2.406,0.929,3.294c0.619,0.888,1.36,1.332,2.225,1.332c1.939,0,2.955-1.39,3.049-4.17v-3.189
					c0-1.378-0.287-2.494-0.859-3.347c-0.573-0.853-1.326-1.279-2.26-1.279c-2.056,0-3.083,1.787-3.083,5.361V223.104z"/>
			</g>
			<g>
				<path fill="#EF4331" d="M213.978,265.326h-5.997v-0.896l3.031-3.615c0.54-0.655,0.906-1.175,1.098-1.563
					c0.192-0.387,0.289-0.777,0.289-1.171c0-0.446-0.13-0.813-0.392-1.098c-0.261-0.285-0.621-0.428-1.081-0.428
					c-0.57,0-1.005,0.175-1.304,0.524c-0.298,0.349-0.448,0.785-0.448,1.307h-1.26l-0.013-0.04c-0.022-0.787,0.241-1.454,0.79-2
					c0.548-0.546,1.293-0.819,2.235-0.819c0.862,0,1.541,0.239,2.037,0.716c0.495,0.478,0.743,1.095,0.743,1.851
					c0,0.508-0.14,1.006-0.421,1.492c-0.281,0.487-0.709,1.097-1.284,1.831l-2.435,2.853l0.013,0.033h4.398V265.326z"/>
				<path fill="#EF4331" d="M221.262,261.917c0,1.092-0.278,1.957-0.833,2.594c-0.555,0.637-1.301,0.955-2.239,0.955
					c-0.933,0-1.679-0.318-2.239-0.955s-0.839-1.501-0.839-2.594v-2.839c0-1.083,0.278-1.946,0.833-2.587
					c0.555-0.641,1.299-0.962,2.232-0.962c0.938,0,1.686,0.321,2.245,0.962c0.56,0.641,0.84,1.503,0.84,2.587V261.917z
					 M219.955,258.805c0-0.694-0.155-1.243-0.464-1.645s-0.748-0.604-1.313-0.604c-0.562,0-0.995,0.201-1.3,0.604
					s-0.458,0.951-0.458,1.645v3.376c0,0.694,0.156,1.245,0.468,1.652c0.312,0.407,0.746,0.61,1.303,0.61
					c0.566,0,1.001-0.202,1.307-0.607c0.305-0.405,0.458-0.956,0.458-1.655V258.805z"/>
				<path fill="#EF4331" d="M226.449,265.326h-1.313v-8.451l-2.103,0.02v-1.008l3.417-0.358V265.326z"/>
				<path fill="#EF4331" d="M230.277,261.034l0.557-5.367h4.836v1.161h-3.734l-0.312,2.779c0.208-0.155,0.438-0.282,0.689-0.381
					s0.54-0.151,0.862-0.156c0.894-0.009,1.593,0.271,2.1,0.839c0.506,0.568,0.76,1.348,0.76,2.338c0,0.969-0.26,1.747-0.779,2.335
					c-0.52,0.588-1.277,0.882-2.272,0.882c-0.818,0-1.499-0.223-2.043-0.67s-0.805-1.104-0.783-1.97l0.013-0.04h1.181
					c0,0.526,0.151,0.934,0.455,1.224c0.303,0.29,0.695,0.435,1.177,0.435c0.553,0,0.982-0.194,1.287-0.583s0.458-0.922,0.458-1.599
					c0-0.614-0.154-1.112-0.461-1.492s-0.735-0.571-1.284-0.571c-0.513,0-0.884,0.078-1.114,0.232s-0.4,0.394-0.511,0.716
					L230.277,261.034z"/>
				<path fill="#EF4331" d="M245.999,260.849h-3.967v3.456h4.644v1.021h-5.95v-9.659h5.877v1.028h-4.571v3.125h3.967V260.849z"/>
				<path fill="#EF4331" d="M249.257,264.305h4.71v1.021h-6.017v-9.659h1.307V264.305z"/>
				<path fill="#EF4331" d="M260.421,260.849h-3.967v3.456h4.644v1.021h-5.951v-9.659h5.878v1.028h-4.571v3.125h3.967V260.849z"/>
				<path fill="#EF4331" d="M269.265,262.235l0.013,0.04c0.018,0.906-0.301,1.665-0.955,2.275c-0.654,0.61-1.519,0.916-2.594,0.916
					c-1.092,0-1.982-0.387-2.67-1.161s-1.031-1.756-1.031-2.945v-1.718c0-1.189,0.344-2.172,1.031-2.949
					c0.688-0.776,1.578-1.164,2.67-1.164c1.093,0,1.961,0.291,2.607,0.872c0.646,0.582,0.959,1.353,0.941,2.312l-0.013,0.04h-1.254
					c0-0.677-0.199-1.212-0.597-1.605s-0.959-0.59-1.685-0.59c-0.729,0-1.311,0.294-1.744,0.882c-0.434,0.588-0.65,1.318-0.65,2.189
					v1.731c0,0.88,0.217,1.614,0.65,2.202c0.433,0.588,1.015,0.882,1.744,0.882c0.726,0,1.287-0.196,1.685-0.587
					c0.398-0.392,0.597-0.932,0.597-1.622H269.265z"/>
				<path fill="#EF4331" d="M277.265,256.696h-3.184v8.63h-1.307v-8.63h-3.144v-1.028h7.635V256.696z"/>
				<path fill="#EF4331" d="M279.813,265.326h-1.313v-9.659h1.313V265.326z"/>
				<path fill="#EF4331" d="M289.313,261.359c0,1.181-0.366,2.16-1.098,2.938s-1.682,1.167-2.849,1.167
					c-1.128,0-2.044-0.389-2.75-1.167c-0.705-0.778-1.058-1.758-1.058-2.938v-1.718c0-1.176,0.353-2.156,1.058-2.939
					c0.706-0.783,1.622-1.174,2.75-1.174c1.167,0,2.117,0.39,2.849,1.171c0.732,0.78,1.098,1.761,1.098,2.942V261.359z
					 M288.005,259.628c0-0.885-0.239-1.61-0.716-2.176c-0.478-0.566-1.119-0.849-1.924-0.849c-0.761,0-1.368,0.283-1.821,0.849
					c-0.453,0.566-0.68,1.291-0.68,2.176v1.731c0,0.893,0.227,1.623,0.68,2.189c0.454,0.566,1.061,0.849,1.821,0.849
					c0.81,0,1.452-0.282,1.927-0.846c0.476-0.564,0.713-1.295,0.713-2.192V259.628z"/>
				<path fill="#EF4331" d="M298.228,265.326h-1.307l-4.65-7.376l-0.04,0.013v7.363h-1.307v-9.659h1.307l4.65,7.37l0.04-0.013
					v-7.357h1.307V265.326z"/>
				<path fill="#EF4331" d="M305.366,262.892c0-0.438-0.157-0.805-0.471-1.101s-0.867-0.548-1.659-0.756
					c-0.981-0.243-1.748-0.602-2.298-1.075c-0.55-0.473-0.826-1.068-0.826-1.784c0-0.756,0.296-1.387,0.889-1.891
					c0.593-0.504,1.362-0.756,2.309-0.756c1.017,0,1.828,0.289,2.431,0.866c0.604,0.577,0.897,1.25,0.879,2.02l-0.021,0.04h-1.247
					c0-0.548-0.191-1.001-0.573-1.36c-0.383-0.358-0.873-0.537-1.47-0.537c-0.61,0-1.078,0.148-1.403,0.444
					c-0.325,0.296-0.487,0.681-0.487,1.154c0,0.42,0.178,0.771,0.534,1.051c0.355,0.281,0.934,0.527,1.734,0.74
					c0.973,0.252,1.714,0.624,2.223,1.114c0.508,0.491,0.763,1.097,0.763,1.818c0,0.778-0.306,1.404-0.919,1.877
					c-0.612,0.473-1.412,0.709-2.398,0.709c-0.933,0-1.757-0.261-2.471-0.783c-0.714-0.521-1.06-1.221-1.038-2.096l0.014-0.04h1.247
					c0,0.606,0.229,1.073,0.689,1.403s0.979,0.494,1.559,0.494c0.619,0,1.109-0.139,1.469-0.418
					C305.186,263.748,305.366,263.369,305.366,262.892z"/>
			</g>
			<g opacity="0.6">
				<g>
					<rect x="197.935" y="242.824" fill="#F7979A" width="118.24" height="3"/>
				</g>
			</g>
		</g>
		<g>
			<g>
				<path fill="#EF4331" d="M62.711,233.221H48.022v-3.395l6.745-8.606c0.856-1.191,1.486-2.236,1.892-3.136
					s0.608-1.761,0.608-2.586c0-1.111-0.191-1.981-0.574-2.612c-0.382-0.63-0.933-0.945-1.652-0.945
					c-0.788,0-1.412,0.369-1.875,1.105c-0.462,0.736-0.693,1.772-0.693,3.106h-4.862c0-1.529,0.317-2.927,0.95-4.194
					c0.633-1.267,1.523-2.251,2.67-2.953c1.147-0.702,2.445-1.053,3.895-1.053c2.226,0,3.952,0.614,5.179,1.84
					c1.227,1.227,1.841,2.97,1.841,5.23c0,1.404-0.34,2.828-1.019,4.271s-1.909,3.226-3.689,5.347l-3.202,4.591h8.474V233.221z"/>
				<path fill="#EF4331" d="M78.488,222.915c0,3.447-0.625,6.083-1.875,7.909c-1.25,1.826-3.033,2.739-5.35,2.739
					c-2.294,0-4.066-0.887-5.316-2.662c-1.25-1.774-1.897-4.317-1.943-7.626v-4.708c0-3.435,0.622-6.063,1.866-7.884
					c1.244-1.82,3.03-2.73,5.358-2.73c2.328,0,4.114,0.902,5.358,2.705c1.244,1.803,1.877,4.377,1.9,7.721V222.915z M73.626,217.854
					c0-1.97-0.194-3.448-0.582-4.434c-0.388-0.986-0.993-1.479-1.814-1.479c-1.541,0-2.34,1.805-2.397,5.414v6.238
					c0,2.017,0.197,3.518,0.591,4.503s1.007,1.478,1.84,1.478c0.788,0,1.372-0.461,1.754-1.383c0.383-0.922,0.585-2.334,0.608-4.237
					V217.854z"/>
				<path fill="#EF4331" d="M88.839,224.559h-8.371v-4.04h8.371V224.559z"/>
				<path fill="#EF4331" d="M105.661,233.221H90.972v-3.395l6.745-8.606c0.856-1.191,1.486-2.236,1.892-3.136
					c0.405-0.899,0.608-1.761,0.608-2.586c0-1.111-0.191-1.981-0.574-2.612c-0.382-0.63-0.933-0.945-1.652-0.945
					c-0.788,0-1.413,0.369-1.875,1.105c-0.462,0.736-0.693,1.772-0.693,3.106h-4.862c0-1.529,0.317-2.927,0.95-4.194
					c0.633-1.267,1.524-2.251,2.671-2.953c1.147-0.702,2.445-1.053,3.895-1.053c2.226,0,3.952,0.614,5.179,1.84
					c1.227,1.227,1.84,2.97,1.84,5.23c0,1.404-0.34,2.828-1.019,4.271c-0.679,1.444-1.909,3.226-3.689,5.347l-3.201,4.591h8.474
					V233.221z"/>
				<path fill="#EF4331" d="M107.451,220.963l1.233-12.668h12.069v4.143h-8.098l-0.445,5.341c0.936-0.627,1.9-0.941,2.893-0.941
					c2.054,0,3.638,0.73,4.75,2.191s1.669,3.526,1.669,6.197c0,2.499-0.662,4.514-1.985,6.043c-1.324,1.53-3.093,2.294-5.307,2.294
					c-1.313,0-2.528-0.311-3.646-0.933c-1.119-0.622-2-1.486-2.645-2.593c-0.645-1.107-0.973-2.363-0.984-3.767h4.793
					c0.08,1.05,0.336,1.863,0.77,2.439s0.993,0.865,1.678,0.865c0.799,0,1.415-0.387,1.849-1.16
					c0.434-0.773,0.651-1.928,0.651-3.463c0-1.444-0.26-2.532-0.779-3.265c-0.52-0.733-1.247-1.1-2.183-1.1
					c-0.913,0-1.621,0.314-2.123,0.941l-0.308,0.428L107.451,220.963z"/>
				<path fill="#EF4331" d="M122.972,213.088c0-1.518,0.419-2.756,1.258-3.715c0.839-0.958,1.971-1.438,3.398-1.438
					s2.565,0.471,3.416,1.413c0.85,0.941,1.275,2.211,1.275,3.809v1.25c0,1.541-0.422,2.779-1.267,3.715
					c-0.845,0.936-1.975,1.404-3.39,1.404c-1.404,0-2.537-0.468-3.398-1.404c-0.862-0.936-1.292-2.208-1.292-3.817V213.088z
					 M126.122,214.407c0,0.685,0.146,1.23,0.437,1.635c0.291,0.405,0.659,0.608,1.104,0.608c0.457,0,0.819-0.211,1.087-0.633
					c0.268-0.422,0.402-0.976,0.402-1.661v-1.267c0-0.662-0.137-1.207-0.411-1.635c-0.274-0.428-0.645-0.642-1.113-0.642
					c-0.457,0-0.822,0.214-1.096,0.642c-0.274,0.428-0.411,0.99-0.411,1.687V214.407z M128.536,231.355l-2.294-1.301l10.22-19.482
					l2.312,1.301L128.536,231.355z M132.799,227.109c0-1.541,0.428-2.782,1.284-3.723c0.856-0.942,1.986-1.413,3.39-1.413
					c1.415,0,2.551,0.465,3.407,1.395c0.856,0.931,1.284,2.206,1.284,3.827v1.25c0,1.529-0.417,2.765-1.25,3.707
					c-0.833,0.941-1.969,1.412-3.407,1.412c-1.449,0-2.596-0.473-3.441-1.421c-0.845-0.947-1.267-2.203-1.267-3.766V227.109z
					 M135.966,228.445c0,0.639,0.151,1.176,0.454,1.609c0.302,0.434,0.665,0.65,1.087,0.65c0.947,0,1.444-0.679,1.49-2.037v-1.558
					c0-0.673-0.14-1.218-0.42-1.635c-0.279-0.417-0.647-0.625-1.104-0.625c-1.004,0-1.506,0.873-1.506,2.62V228.445z"/>
			</g>
			<g>
				<path fill="#EF4331" d="M51.205,264.432h-5.997v-0.896l3.031-3.615c0.54-0.655,0.906-1.175,1.098-1.563
					c0.192-0.387,0.289-0.777,0.289-1.171c0-0.446-0.13-0.813-0.392-1.098c-0.261-0.285-0.621-0.428-1.081-0.428
					c-0.57,0-1.005,0.175-1.304,0.524c-0.298,0.349-0.448,0.785-0.448,1.307h-1.26l-0.013-0.04c-0.022-0.787,0.241-1.454,0.79-2
					c0.548-0.546,1.293-0.819,2.235-0.819c0.862,0,1.541,0.239,2.037,0.716c0.495,0.478,0.743,1.095,0.743,1.851
					c0,0.508-0.14,1.006-0.421,1.492c-0.281,0.487-0.709,1.097-1.284,1.831l-2.435,2.853l0.013,0.033h4.398V264.432z"/>
				<path fill="#EF4331" d="M58.489,261.022c0,1.092-0.277,1.957-0.833,2.594c-0.555,0.637-1.301,0.955-2.239,0.955
					c-0.933,0-1.679-0.318-2.239-0.955s-0.839-1.501-0.839-2.594v-2.839c0-1.083,0.278-1.946,0.833-2.587
					c0.555-0.641,1.299-0.962,2.232-0.962c0.938,0,1.686,0.321,2.245,0.962c0.56,0.641,0.839,1.503,0.839,2.587V261.022z
					 M57.182,257.911c0-0.694-0.155-1.243-0.464-1.645s-0.748-0.604-1.313-0.604c-0.562,0-0.995,0.201-1.3,0.604
					s-0.458,0.951-0.458,1.645v3.376c0,0.694,0.156,1.245,0.468,1.652c0.312,0.407,0.746,0.61,1.303,0.61
					c0.566,0,1.001-0.202,1.307-0.607c0.305-0.405,0.458-0.956,0.458-1.655V257.911z"/>
				<path fill="#EF4331" d="M63.677,264.432h-1.313v-8.451L60.26,256v-1.008l3.417-0.358V264.432z"/>
				<path fill="#EF4331" d="M72.268,261.181h1.333v1.021h-1.333v2.229h-1.3v-2.229h-4.146v-0.736l4.066-6.693h1.38V261.181z
					 M68.221,261.181h2.747v-4.531l-0.04-0.007l-0.126,0.332L68.221,261.181z"/>
				<path fill="#EF4331" d="M83.227,259.954H79.26v3.456h4.644v1.021h-5.95v-9.659h5.877v1.028H79.26v3.125h3.967V259.954z"/>
				<path fill="#EF4331" d="M86.484,263.41h4.71v1.021h-6.017v-9.659h1.307V263.41z"/>
				<path fill="#EF4331" d="M97.649,259.954h-3.967v3.456h4.644v1.021h-5.951v-9.659h5.877v1.028h-4.57v3.125h3.967V259.954z"/>
				<path fill="#EF4331" d="M106.492,261.34l0.013,0.04c0.018,0.906-0.301,1.665-0.955,2.275c-0.654,0.61-1.519,0.916-2.594,0.916
					c-1.092,0-1.982-0.387-2.67-1.161s-1.032-1.756-1.032-2.945v-1.718c0-1.189,0.344-2.172,1.032-2.949
					c0.688-0.776,1.578-1.164,2.67-1.164s1.961,0.291,2.607,0.872c0.646,0.582,0.959,1.353,0.941,2.312l-0.013,0.04h-1.254
					c0-0.677-0.199-1.212-0.597-1.605s-0.959-0.59-1.685-0.59c-0.729,0-1.311,0.294-1.745,0.882c-0.433,0.588-0.65,1.318-0.65,2.189
					v1.731c0,0.88,0.217,1.614,0.65,2.202c0.434,0.588,1.015,0.882,1.745,0.882c0.726,0,1.287-0.196,1.685-0.587
					c0.398-0.392,0.597-0.932,0.597-1.622H106.492z"/>
				<path fill="#EF4331" d="M114.492,255.801h-3.184v8.63h-1.307v-8.63h-3.145v-1.028h7.635V255.801z"/>
				<path fill="#EF4331" d="M117.04,264.432h-1.313v-9.659h1.313V264.432z"/>
				<path fill="#EF4331" d="M126.54,260.465c0,1.181-0.366,2.16-1.098,2.938s-1.682,1.167-2.849,1.167
					c-1.128,0-2.044-0.389-2.75-1.167c-0.705-0.778-1.058-1.758-1.058-2.938v-1.718c0-1.176,0.353-2.156,1.058-2.939
					c0.706-0.783,1.622-1.174,2.75-1.174c1.167,0,2.117,0.39,2.849,1.171c0.732,0.78,1.098,1.761,1.098,2.942V260.465z
					 M125.233,258.733c0-0.885-0.239-1.61-0.716-2.176c-0.478-0.566-1.119-0.849-1.924-0.849c-0.761,0-1.368,0.283-1.821,0.849
					c-0.453,0.566-0.68,1.291-0.68,2.176v1.731c0,0.893,0.227,1.623,0.68,2.189c0.454,0.566,1.061,0.849,1.821,0.849
					c0.809,0,1.451-0.282,1.927-0.846s0.713-1.295,0.713-2.192V258.733z"/>
				<path fill="#EF4331" d="M135.456,264.432h-1.307l-4.65-7.376l-0.04,0.013v7.363h-1.307v-9.659h1.307l4.65,7.37l0.04-0.013
					v-7.357h1.307V264.432z"/>
				<path fill="#EF4331" d="M142.594,261.997c0-0.438-0.157-0.805-0.471-1.101s-0.867-0.548-1.658-0.756
					c-0.982-0.243-1.748-0.602-2.298-1.075c-0.551-0.473-0.826-1.068-0.826-1.784c0-0.756,0.296-1.387,0.889-1.891
					c0.593-0.504,1.362-0.756,2.309-0.756c1.018,0,1.828,0.289,2.432,0.866c0.604,0.577,0.896,1.25,0.879,2.02l-0.02,0.04h-1.247
					c0-0.548-0.191-1.001-0.574-1.36c-0.383-0.358-0.873-0.537-1.47-0.537c-0.61,0-1.078,0.148-1.403,0.444
					c-0.325,0.296-0.488,0.681-0.488,1.154c0,0.42,0.178,0.771,0.534,1.051s0.934,0.527,1.735,0.74
					c0.973,0.252,1.713,0.624,2.222,1.114c0.508,0.491,0.763,1.097,0.763,1.818c0,0.778-0.306,1.404-0.918,1.877
					c-0.613,0.473-1.412,0.709-2.398,0.709c-0.934,0-1.757-0.261-2.471-0.783c-0.714-0.521-1.061-1.221-1.039-2.096l0.014-0.04
					h1.247c0,0.606,0.23,1.073,0.69,1.403c0.459,0.33,0.979,0.494,1.559,0.494c0.619,0,1.108-0.139,1.469-0.418
					C142.414,262.853,142.594,262.475,142.594,261.997z"/>
			</g>
			<g opacity="0.6">
				<g>
					<rect x="43.826" y="242.825" fill="#F7979A" width="100.913" height="3"/>
				</g>
			</g>
		</g>
	</g>
</g>
</svg>
