<?xml version="1.0" encoding="utf-8"?>
<!-- Generator: Adobe Illustrator 16.0.0, SVG Export Plug-In . SVG Version: 6.00 Build 0)  -->
<!DOCTYPE svg PUBLIC "-//W3C//DTD SVG 1.1//EN" "http://www.w3.org/Graphics/SVG/1.1/DTD/svg11.dtd">
<svg version="1.1" id="Layer_1" xmlns="http://www.w3.org/2000/svg" xmlns:xlink="http://www.w3.org/1999/xlink" x="0px" y="0px"
	 width="360px" height="190px" viewBox="0 0 360 190" enable-background="new 0 0 360 190" xml:space="preserve">
<g>
	<rect fill="#B2D5E5" width="360" height="190"/>
</g>
<g>
	<g id="person-left">
		<path fill="#66ABCB" d="M148.389,130.953l4.861-5.255c1.144-1.248,3.117-1.262,4.261-0.018l4.864,5.273H148.389z M155.907,103.834
			l-2.609-0.648l-17.269,39.279l-17.262-39.271l-2.506,0.64c-10.254,2.566-17.407,11.772-17.407,22.341v13.872
			c0,2.732,2.143,4.917,4.87,4.917h64.623c2.729,0,5.048-2.185,5.048-4.917v-13.872C173.396,115.606,166.149,106.4,155.907,103.834
			 M136.199,135.279l5.768-14.643l-2.68-2.676c1.697-0.216,2.877-1.867,2.46-3.577l-1.18-4.93c-0.318-1.315-1.488-2.252-2.839-2.252
			h-3.17c-1.35,0-2.516,0.937-2.838,2.252l-1.184,4.922c-0.41,1.711,0.771,3.361,2.46,3.58l-2.68,2.676L136.199,135.279z
			 M162.955,88.074c-0.072-3.432-0.416-6.66-0.912-9.622c-0.016-1.565-0.282-2.767-0.719-3.687
			c-1.324-5.937-3.131-10.363-4.204-12.732c-0.765-2.476-1.771-5.069-2.967-6.069h0.006c-1.788-3-5.644-5.866-8.022-7.311
			c-15.608-9.529-24.069,2.61-25.042,4.13c-1.077,0.382-6.372,2.67-7.859,9.664c-0.084,0.394-0.151,0.798-0.209,1.222
			c-0.914,2.762-3.342,11.261-3.622,24.41c-0.209,9.733-7.43,3.282-7.43,3.282c0.293,2.837,2.417,7.773,7.255,8.633
			c7.981,1.428,11.407-3.797,11.407-3.797l-0.053-0.244c4.018,5.133,9.388,8.638,15.388,8.638c6.245,0,11.799-3.792,15.863-9.262
			l-0.108,0.867c0,0,3.429,5.225,11.402,3.797c4.835-0.859,6.963-5.797,7.252-8.635C170.383,91.357,163.167,97.808,162.955,88.074z
			 M135.973,100.289c-9.194,0-16.785-11.225-18.225-21.856c0.687-3.825,2.808-12.059,8.9-18.136
			c4.68,5.063,13.248,10.887,27.661,10.392c0.083,1.145,0.123,2.381,0.132,3.683l-0.947,7.615
			C151.048,91.42,144.149,100.289,135.973,100.289z"/>
	</g>
	<g id="person-right">
		<path fill="#66ABCB" d="M236.139,130.953l4.861-5.255c1.144-1.248,3.117-1.262,4.261-0.018l4.864,5.273H236.139z M243.657,103.834
			l-2.609-0.648l-17.269,39.279l-17.262-39.271l-2.506,0.64c-10.254,2.566-17.407,11.772-17.407,22.341v13.872
			c0,2.732,2.143,4.917,4.87,4.917h64.623c2.729,0,5.048-2.185,5.048-4.917v-13.872C261.146,115.606,253.899,106.4,243.657,103.834
			 M223.949,135.279l5.768-14.643l-2.68-2.676c1.697-0.216,2.877-1.867,2.46-3.577l-1.18-4.93c-0.318-1.315-1.488-2.252-2.839-2.252
			h-3.17c-1.35,0-2.516,0.937-2.838,2.252l-1.184,4.922c-0.41,1.711,0.771,3.361,2.46,3.58l-2.68,2.676L223.949,135.279z
			 M250.705,88.074c-0.072-3.432-0.416-6.66-0.912-9.622c-0.016-1.565-0.282-2.767-0.719-3.687
			c-1.324-5.937-3.131-10.363-4.204-12.732c-0.765-2.476-1.771-5.069-2.967-6.069h0.006c-1.788-3-5.644-5.866-8.022-7.311
			c-15.608-9.529-24.069,2.61-25.042,4.13c-1.077,0.382-6.372,2.67-7.859,9.664c-0.084,0.394-0.151,0.798-0.209,1.222
			c-0.914,2.762-3.342,11.261-3.622,24.41c-0.209,9.733-7.43,3.282-7.43,3.282c0.293,2.837,2.417,7.773,7.255,8.633
			c7.981,1.428,11.407-3.797,11.407-3.797l-0.053-0.244c4.018,5.133,9.388,8.638,15.388,8.638c6.245,0,11.799-3.792,15.863-9.262
			l-0.108,0.867c0,0,3.429,5.225,11.402,3.797c4.835-0.859,6.963-5.797,7.252-8.635C258.133,91.357,250.917,97.808,250.705,88.074z
			 M223.723,100.289c-9.194,0-16.785-11.225-18.225-21.856c0.687-3.825,2.808-12.059,8.9-18.136
			c4.68,5.063,13.248,10.887,27.661,10.392c0.083,1.145,0.123,2.381,0.132,3.683l-0.947,7.615
			C238.798,91.42,231.899,100.289,223.723,100.289z"/>
	</g>
</g>
</svg>
