<?xml version="1.0" encoding="utf-8"?>
<!-- Generator: Adobe Illustrator 16.0.0, SVG Export Plug-In . SVG Version: 6.00 Build 0)  -->
<!DOCTYPE svg PUBLIC "-//W3C//DTD SVG 1.1//EN" "http://www.w3.org/Graphics/SVG/1.1/DTD/svg11.dtd">
<svg version="1.1" id="Layer_1" xmlns="http://www.w3.org/2000/svg" xmlns:xlink="http://www.w3.org/1999/xlink" x="0px" y="0px"
	 width="360px" height="190px" viewBox="0 0 360 190" enable-background="new 0 0 360 190" xml:space="preserve">
<g>
	<rect fill="#F2F3F3" width="360" height="190"/>
</g>
<g id="building">
	<path fill="#808184" d="M199.372,64.646V53.241l-16.033-9.333v-9.305h15.735V22.367h-14.216h-5.011v21.594l-15.44,9.28v11.404
		h-27.974v48.916h90.917V64.646H199.372z M150.352,107.368h-6.218v-9.333h6.218V107.368z M150.352,90.778h-6.218V81.45h6.218V90.778
		z M163.83,107.368h-6.218v-9.333h6.218V107.368z M163.83,90.778h-6.218V81.45h6.218V90.778z M206.172,107.368h-6.216v-9.333h6.216
		V107.368z M206.172,90.778h-6.216V81.45h6.216V90.778z M219.65,107.368h-6.22v-9.333h6.22V107.368z M219.65,90.778h-6.22V81.45
		h6.22V90.778z"/>
</g>
<g id="person">
	<path fill="#F2F3F3" d="M195.735,87.695c0,1.028-0.481,1.63-1.407,1.896l-0.473,0.13c-1.013,0-1.65-0.464-1.903-1.418
		c-0.073-0.317-0.36-1.23-0.736-2.679c-0.443-1.462-0.9-2.983-1.411-4.596c-0.511-1.602-1.11-3.644-1.839-6.171h-1.158l6.674,22.537
		h-6.32v17.116c0,0.671-0.19,1.228-0.697,1.631c-0.451,0.421-0.99,0.623-1.663,0.623c-0.697,0-1.21-0.202-1.652-0.623
		c-0.418-0.403-0.601-0.96-0.601-1.631V97.395h-1.161v17.116c0,0.671-0.225,1.228-0.64,1.631c-0.417,0.421-0.961,0.623-1.626,0.623
		c-0.673,0-1.248-0.202-1.695-0.623c-0.477-0.403-0.695-0.96-0.695-1.631V97.395h-6.418l6.67-22.534h-1.143
		c-0.733,2.524-1.348,4.562-1.831,6.167c-0.436,1.612-0.92,3.134-1.333,4.596c-0.48,1.448-0.798,2.361-0.828,2.679
		c-0.296,0.954-0.922,1.418-1.912,1.418l-0.516-0.119c-0.921-0.345-1.375-0.946-1.375-1.798c0-0.231,0.033-0.425,0.133-0.618
		c0.063-0.162,0.253-0.731,0.48-1.691c0.258-0.954,0.603-2.136,1.02-3.514c0.414-1.402,0.865-2.913,1.339-4.541
		c0.482-1.637,0.921-3.206,1.467-4.723c0.32-1.161,1.015-2.223,2.104-3.133c1.078-0.947,2.209-1.38,3.38-1.38h7.849
		c1.216,0,2.395,0.433,3.447,1.38c1.024,0.921,1.761,1.972,2.168,3.133c0.444,1.517,0.896,3.085,1.337,4.723
		c0.458,1.628,0.93,3.139,1.318,4.541c0.405,1.378,0.765,2.561,1.018,3.514c0.247,0.96,0.414,1.529,0.506,1.691L195.735,87.695z
		 M182.021,66.793c1.343,0,2.495-0.438,3.391-1.357c0.92-0.945,1.397-2.117,1.397-3.523c0-1.344-0.477-2.496-1.397-3.453
		c-0.886-0.979-2.048-1.46-3.391-1.46c-1.431,0-2.618,0.48-3.604,1.46c-0.96,0.949-1.433,2.109-1.433,3.453
		c0,1.406,0.473,2.578,1.434,3.523C179.411,66.355,180.595,66.793,182.021,66.793"/>
</g>
<g id="left-number-group">
	<g id="text">
		<path fill="#404041" d="M22.646,154.461l0.017,0.048c0.021,1.107-0.368,2.034-1.167,2.779c-0.8,0.745-1.855,1.118-3.168,1.118
			c-1.334,0-2.421-0.472-3.261-1.417c-0.84-0.945-1.26-2.145-1.26-3.598v-2.098c0-1.453,0.42-2.654,1.26-3.602
			c0.84-0.948,1.927-1.422,3.261-1.422s2.396,0.355,3.184,1.065s1.172,1.651,1.151,2.824l-0.017,0.048h-1.531
			c0-0.826-0.243-1.48-0.729-1.961c-0.486-0.48-1.172-0.721-2.058-0.721c-0.891,0-1.602,0.359-2.131,1.078s-0.794,1.609-0.794,2.673
			v2.115c0,1.075,0.265,1.972,0.794,2.69c0.529,0.719,1.24,1.078,2.131,1.078c0.886,0,1.572-0.239,2.058-0.717
			c0.486-0.478,0.729-1.139,0.729-1.981H22.646z"/>
		<path fill="#404041" d="M33.414,153.392c0,1.442-0.447,2.639-1.341,3.589c-0.895,0.951-2.054,1.426-3.48,1.426
			c-1.377,0-2.497-0.475-3.358-1.426c-0.861-0.951-1.292-2.147-1.292-3.589v-2.098c0-1.437,0.431-2.633,1.292-3.589
			c0.862-0.956,1.981-1.434,3.358-1.434c1.426,0,2.586,0.477,3.48,1.43c0.894,0.954,1.341,2.151,1.341,3.594V153.392z
			 M31.817,151.277c0-1.08-0.291-1.966-0.875-2.657c-0.583-0.691-1.366-1.037-2.35-1.037c-0.929,0-1.67,0.346-2.224,1.037
			s-0.831,1.577-0.831,2.657v2.115c0,1.091,0.277,1.982,0.831,2.674s1.295,1.037,2.224,1.037c0.989,0,1.773-0.344,2.354-1.033
			c0.581-0.688,0.871-1.581,0.871-2.678V151.277z"/>
		<path fill="#404041" d="M41.232,156.025h0.049l3.768-9.585h1.985v11.797h-1.597v-8.839l-0.048-0.008l-3.573,8.848h-1.11
			l-3.678-9.139l-0.049,0.008v9.131h-1.596V146.44h2.099L41.232,156.025z"/>
		<path fill="#404041" d="M55.314,156.025h0.049l3.768-9.585h1.985v11.797H59.52v-8.839l-0.049-0.008l-3.573,8.848h-1.11
			l-3.679-9.139l-0.049,0.008v9.131h-1.596V146.44h2.099L55.314,156.025z"/>
		<path fill="#404041" d="M72.249,146.44v7.835c0,1.296-0.421,2.309-1.264,3.038c-0.842,0.729-1.928,1.094-3.257,1.094
			c-1.28,0-2.328-0.366-3.144-1.098s-1.224-1.743-1.224-3.034v-7.835h1.596v7.835c0,0.902,0.258,1.608,0.774,2.119
			c0.516,0.51,1.182,0.766,1.997,0.766c0.864,0,1.568-0.255,2.11-0.766c0.543-0.51,0.814-1.217,0.814-2.119v-7.835H72.249z"/>
		<path fill="#404041" d="M83.365,158.237h-1.597l-5.679-9.01l-0.049,0.016v8.994h-1.596V146.44h1.596l5.68,9.001l0.048-0.016
			v-8.985h1.597V158.237z"/>
		<path fill="#404041" d="M87.563,158.237h-1.604V146.44h1.604V158.237z"/>
		<path fill="#404041" d="M98.168,147.696h-3.889v10.541h-1.596v-10.541h-3.84v-1.256h9.326V147.696z"/>
		<path fill="#404041" d="M101.28,158.237h-1.604V146.44h1.604V158.237z"/>
		<path fill="#404041" d="M110.314,152.768h-4.846v4.221h5.672v1.248h-7.268V146.44h7.179v1.256h-5.583v3.816h4.846V152.768z"/>
		<path fill="#404041" d="M118.983,155.263c0-0.535-0.191-0.983-0.575-1.345c-0.383-0.362-1.059-0.67-2.025-0.924
			c-1.199-0.297-2.135-0.734-2.808-1.313c-0.672-0.578-1.008-1.304-1.008-2.18c0-0.923,0.362-1.693,1.085-2.309
			s1.664-0.923,2.82-0.923c1.242,0,2.232,0.353,2.969,1.057c0.737,0.705,1.095,1.527,1.074,2.467l-0.024,0.048h-1.523
			c0-0.669-0.234-1.223-0.701-1.661c-0.467-0.438-1.065-0.656-1.794-0.656c-0.746,0-1.317,0.181-1.713,0.542
			c-0.397,0.362-0.596,0.832-0.596,1.41c0,0.513,0.217,0.941,0.652,1.284c0.435,0.343,1.141,0.644,2.118,0.903
			c1.188,0.308,2.093,0.762,2.715,1.361c0.621,0.599,0.932,1.339,0.932,2.22c0,0.951-0.374,1.715-1.122,2.293
			c-0.749,0.578-1.725,0.867-2.929,0.867c-1.14,0-2.146-0.318-3.018-0.956c-0.872-0.637-1.295-1.491-1.268-2.56l0.016-0.049h1.523
			c0,0.74,0.281,1.312,0.843,1.714c0.562,0.402,1.196,0.604,1.904,0.604c0.756,0,1.354-0.17,1.794-0.51
			S118.983,155.847,118.983,155.263z"/>
	</g>
	<g id="number">
		<path fill="#0074A8" d="M50.293,87.02h4.053c1.538,0,2.666-0.54,3.386-1.62c0.72-1.08,1.08-2.522,1.08-4.326
			c0-1.725-0.37-3.067-1.109-4.029c-0.739-0.961-1.73-1.442-2.973-1.442c-1.163,0-2.114,0.459-2.854,1.378
			c-0.739,0.918-1.109,2.076-1.109,3.473h-8.371c0-2.248,0.518-4.264,1.553-6.049c1.035-1.785,2.484-3.18,4.348-4.186
			c1.863-1.005,3.929-1.508,6.196-1.508c3.964,0,7.069,1.094,9.317,3.283c2.248,2.188,3.372,5.186,3.372,8.992
			c0,1.952-0.508,3.761-1.523,5.428c-1.016,1.667-2.352,2.943-4.008,3.83c2.03,0.868,3.544,2.169,4.54,3.904
			c0.995,1.735,1.494,3.786,1.494,6.152c0,3.826-1.218,6.892-3.653,9.199c-2.436,2.307-5.635,3.461-9.598,3.461
			c-3.688,0-6.68-1.139-8.977-3.417c-2.297-2.277-3.446-5.27-3.446-8.977h8.371c0,1.555,0.404,2.86,1.213,3.917
			c0.808,1.056,1.834,1.584,3.076,1.584c1.439,0,2.578-0.535,3.416-1.604c0.838-1.07,1.257-2.497,1.257-4.28
			c0-4.26-1.646-6.4-4.939-6.42h-4.111V87.02z"/>
		<path fill="#0074A8" d="M95.713,74.083l-13.605,38.286h-8.844l13.665-36.174H69.655v-6.892h26.058V74.083z"/>
	</g>
	<g opacity="0.6" id="line">
		<g>
			<rect x="40.998" y="129.817" fill="#66ABCB" width="53.008" height="3"/>
		</g>
	</g>
</g>
<g id="right-number-group">
	<g id="text">
		<path fill="#404041" d="M261.912,154.464l0.016,0.048c0.021,1.107-0.368,2.034-1.167,2.779c-0.8,0.745-1.855,1.118-3.168,1.118
			c-1.334,0-2.421-0.472-3.261-1.417c-0.84-0.945-1.26-2.145-1.26-3.598v-2.098c0-1.453,0.42-2.654,1.26-3.602
			c0.84-0.948,1.927-1.422,3.261-1.422c1.334,0,2.396,0.355,3.184,1.065c0.789,0.71,1.172,1.651,1.151,2.824l-0.016,0.048h-1.531
			c0-0.826-0.243-1.48-0.729-1.961c-0.486-0.48-1.172-0.721-2.058-0.721c-0.892,0-1.602,0.359-2.131,1.078s-0.794,1.609-0.794,2.673
			v2.115c0,1.075,0.265,1.972,0.794,2.69c0.529,0.719,1.239,1.078,2.131,1.078c0.886,0,1.571-0.239,2.058-0.717
			s0.729-1.139,0.729-1.981H261.912z"/>
		<path fill="#404041" d="M269.764,155.201h-4.44l-1.053,3.038h-1.629l4.254-11.797h1.369l4.164,11.797h-1.628L269.764,155.201z
			 M265.785,153.864h3.524l-1.718-5.064h-0.048L265.785,153.864z"/>
		<path fill="#404041" d="M282.751,158.239h-1.596l-5.68-9.01l-0.049,0.016v8.994h-1.596v-11.797h1.596l5.68,9.001l0.049-0.016
			v-8.985h1.596V158.239z"/>
		<path fill="#404041" d="M285.183,158.239v-11.797h3.711c1.539,0,2.777,0.474,3.715,1.422c0.937,0.948,1.405,2.173,1.405,3.674
			v1.612c0,1.507-0.469,2.732-1.405,3.674c-0.938,0.943-2.176,1.414-3.715,1.414H285.183z M286.778,147.698v9.293h2.115
			c1.091,0,1.951-0.359,2.58-1.078c0.629-0.718,0.944-1.64,0.944-2.763v-1.628c0-1.113-0.315-2.028-0.944-2.747
			c-0.629-0.718-1.489-1.078-2.58-1.078H286.778z"/>
		<path fill="#404041" d="M297.854,158.239h-1.604v-11.797h1.604V158.239z"/>
		<path fill="#404041" d="M300.448,158.239v-11.797h3.71c1.54,0,2.778,0.474,3.715,1.422c0.938,0.948,1.406,2.173,1.406,3.674v1.612
			c0,1.507-0.469,2.732-1.406,3.674c-0.937,0.943-2.175,1.414-3.715,1.414H300.448z M302.044,147.698v9.293h2.114
			c1.091,0,1.951-0.359,2.581-1.078c0.629-0.718,0.943-1.64,0.943-2.763v-1.628c0-1.113-0.314-2.028-0.943-2.747
			c-0.63-0.718-1.49-1.078-2.581-1.078H302.044z"/>
		<path fill="#404041" d="M317.276,155.201h-4.44l-1.053,3.038h-1.629l4.254-11.797h1.369l4.164,11.797h-1.628L317.276,155.201z
			 M313.298,153.864h3.524l-1.718-5.064h-0.048L313.298,153.864z"/>
		<path fill="#404041" d="M328.547,147.698h-3.89v10.541h-1.596v-10.541h-3.841v-1.256h9.326V147.698z"/>
		<path fill="#404041" d="M336.333,152.771h-4.845v4.221h5.671v1.248h-7.268v-11.797h7.178v1.256h-5.582v3.816h4.845V152.771z"/>
		<path fill="#404041" d="M345.003,155.266c0-0.535-0.192-0.983-0.575-1.345c-0.384-0.362-1.059-0.67-2.025-0.924
			c-1.199-0.297-2.135-0.734-2.808-1.313c-0.673-0.578-1.009-1.304-1.009-2.18c0-0.923,0.362-1.693,1.086-2.309
			c0.724-0.616,1.663-0.923,2.819-0.923c1.242,0,2.232,0.353,2.97,1.057c0.737,0.705,1.095,1.527,1.073,2.467l-0.024,0.048h-1.523
			c0-0.669-0.233-1.223-0.701-1.661s-1.065-0.656-1.794-0.656c-0.746,0-1.316,0.181-1.714,0.542
			c-0.396,0.362-0.596,0.832-0.596,1.41c0,0.513,0.218,0.941,0.652,1.284c0.435,0.343,1.142,0.644,2.119,0.903
			c1.188,0.308,2.093,0.762,2.714,1.361c0.621,0.599,0.932,1.339,0.932,2.22c0,0.951-0.374,1.715-1.122,2.293
			s-1.725,0.867-2.929,0.867c-1.14,0-2.146-0.318-3.018-0.956c-0.873-0.637-1.295-1.491-1.268-2.56l0.017-0.049h1.523
			c0,0.74,0.281,1.312,0.842,1.714c0.562,0.402,1.196,0.604,1.904,0.604c0.756,0,1.354-0.17,1.795-0.51
			C344.783,156.311,345.003,155.849,345.003,155.266z"/>
	</g>
	<g id="number">
		<path fill="#0074A8" d="M301.278,112.369H275.9v-5.865l11.654-14.869c1.479-2.058,2.568-3.864,3.269-5.418
			c0.7-1.554,1.05-3.042,1.05-4.468c0-1.92-0.33-3.424-0.991-4.513c-0.661-1.088-1.612-1.633-2.854-1.633
			c-1.361,0-2.44,0.636-3.239,1.909s-1.198,3.062-1.198,5.368h-8.4c0-2.642,0.547-5.058,1.642-7.247
			c1.094-2.189,2.632-3.89,4.614-5.103c1.982-1.212,4.225-1.819,6.729-1.819c3.845,0,6.828,1.06,8.947,3.18s3.18,5.132,3.18,9.036
			c0,2.425-0.587,4.885-1.76,7.379c-1.173,2.495-3.298,5.574-6.374,9.238l-5.531,7.933h14.642V112.369z"/>
		<path fill="#0074A8" d="M328.537,94.563c0,5.956-1.08,10.511-3.239,13.665c-2.159,3.155-5.241,4.733-9.243,4.733
			c-3.963,0-7.025-1.533-9.184-4.6c-2.159-3.066-3.278-7.458-3.357-13.177V87.05c0-5.935,1.075-10.475,3.225-13.621
			c2.148-3.145,5.235-4.718,9.258-4.718s7.108,1.558,9.258,4.673c2.149,3.116,3.243,7.562,3.283,13.34V94.563z M320.137,85.818
			c0-3.405-0.335-5.958-1.005-7.661c-0.67-1.702-1.715-2.554-3.135-2.554c-2.662,0-4.043,3.118-4.141,9.354v10.779
			c0,3.484,0.34,6.077,1.021,7.78s1.74,2.553,3.18,2.553c1.361,0,2.371-0.796,3.032-2.39c0.66-1.594,1.01-4.033,1.05-7.32V85.818z"
			/>
	</g>
	<g opacity="0.6" id="line">
		<g>
			<rect x="271.948" y="129.817" fill="#66ABCB" width="57.001" height="3"/>
		</g>
	</g>
</g>
</svg>
