<?xml version="1.0" encoding="utf-8"?>
<!-- Generator: Adobe Illustrator 16.0.0, SVG Export Plug-In . SVG Version: 6.00 Build 0)  -->
<!DOCTYPE svg PUBLIC "-//W3C//DTD SVG 1.1//EN" "http://www.w3.org/Graphics/SVG/1.1/DTD/svg11.dtd">
<svg version="1.1" id="Layer_1" xmlns="http://www.w3.org/2000/svg" xmlns:xlink="http://www.w3.org/1999/xlink" x="0px" y="0px"
	 width="220px" height="190px" viewBox="0 0 220 190" enable-background="new 0 0 220 190" xml:space="preserve">
<g>
	<g id="femaleMiddle">
		<g>
			<path fill-rule="evenodd" clip-rule="evenodd" fill="#C0C2C2" d="M110.374,36.903c3.884,0,7.213-1.267,9.809-3.927
				c2.667-2.734,4.045-6.117,4.045-10.19c0-3.886-1.378-7.223-4.045-9.981c-2.566-2.83-5.925-4.231-9.809-4.231
				c-4.13,0-7.566,1.401-10.423,4.231c-2.776,2.749-4.122,6.095-4.124,9.981c0,4.073,1.348,7.458,4.124,10.19
				C102.807,35.636,106.244,36.903,110.374,36.903z M149.69,95.887c-0.263-0.481-0.741-2.119-1.48-4.894
				c-0.712-2.761-1.744-6.173-2.934-10.167c-1.112-4.047-2.487-8.421-3.811-13.126c-1.268-4.734-2.593-9.267-3.858-13.661
				c-1.191-3.356-3.307-6.399-6.271-9.065c-3.034-2.741-6.449-3.982-9.966-3.982H98.655c-3.385,0-6.639,1.241-9.755,3.982
				c-3.146,2.642-5.182,5.708-6.109,9.065c-1.558,4.394-2.83,8.926-4.23,13.658c-1.377,4.708-2.67,9.082-3.861,13.129
				c-1.218,3.995-2.219,7.404-2.962,10.169c-0.66,2.774-1.217,4.411-1.403,4.891c-0.262,0.554-0.367,1.114-0.367,1.787
				c0,2.458,1.321,4.202,3.994,5.193l1.453,0.345c2.881,0,4.708-1.336,5.551-4.1c0.083-0.912,1.007-3.553,2.38-7.749
				c1.215-4.231,2.621-8.635,3.861-13.285c1.4-4.654,3.175-10.537,5.288-17.835h3.334l-19.306,65.166h18.564v49.498
				c0,1.946,0.634,3.559,2.01,4.724c1.294,1.218,2.958,1.801,4.89,1.799c1.929,0.002,3.517-0.581,4.708-1.799
				c1.214-1.165,1.852-2.777,1.852-4.724v-49.498h3.358v49.498c0,1.946,0.529,3.561,1.743,4.724
				c1.271,1.218,2.751,1.799,4.787,1.799c1.93,0,3.495-0.581,4.786-1.799c1.481-1.163,2.034-2.777,2.034-4.724v-49.498h18.248
				l-19.276-65.18h3.33c2.114,7.313,3.858,13.207,5.34,17.85c1.458,4.65,2.779,9.051,4.075,13.285
				c1.086,4.193,1.899,6.837,2.113,7.747c0.739,2.767,2.595,4.104,5.528,4.102l1.374-0.371c2.67-0.762,4.047-2.512,4.045-5.484
				L149.69,95.887z"/>
		</g>
	</g>
	<g>
		<g id="femaleLeft">
			<g>
				<path fill-rule="evenodd" clip-rule="evenodd" fill="#C0C2C2" d="M35.945,51.563c2.905,0,5.394-0.946,7.334-2.936
					c1.995-2.044,3.025-4.573,3.025-7.619c0-2.905-1.03-5.399-3.025-7.462c-1.918-2.116-4.429-3.164-7.334-3.164
					c-3.087,0-5.656,1.048-7.792,3.164c-2.076,2.055-3.082,4.557-3.083,7.462c0,3.046,1.007,5.577,3.083,7.619
					C30.289,50.616,32.858,51.563,35.945,51.563z M65.34,95.664c-0.196-0.36-0.553-1.584-1.106-3.66
					c-0.532-2.063-1.305-4.614-2.193-7.602c-0.831-3.026-1.859-6.296-2.849-9.814c-0.947-3.54-1.938-6.929-2.885-10.213
					c-0.891-2.51-2.473-4.785-4.688-6.778c-2.269-2.05-4.821-2.978-7.452-2.978H27.185c-2.532,0-4.965,0.928-7.294,2.978
					c-2.353,1.975-3.875,4.268-4.568,6.778c-1.165,3.284-2.116,6.673-3.162,10.211c-1.03,3.52-1.997,6.79-2.887,9.816
					c-0.911,2.987-1.659,5.536-2.215,7.603c-0.493,2.074-0.909,3.298-1.05,3.657c-0.195,0.414-0.274,0.833-0.274,1.336
					c0,1.837,0.988,3.142,2.986,3.882l1.087,0.259c2.154,0,3.521-1,4.15-3.066c0.062-0.682,0.753-2.657,1.779-5.793
					c0.909-3.164,1.959-6.456,2.887-9.933c1.047-3.479,2.374-7.878,3.954-13.334h2.492l-14.434,48.722h13.879v37.008
					c0,1.455,0.475,2.66,1.504,3.531c0.967,0.91,2.211,1.347,3.655,1.345c1.442,0.002,2.63-0.435,3.52-1.345
					c0.907-0.871,1.386-2.076,1.386-3.531v-37.008h2.509v37.008c0,1.455,0.396,2.662,1.304,3.531c0.952,0.91,2.057,1.345,3.58,1.345
					c1.443,0,2.613-0.435,3.578-1.345c1.108-0.87,1.521-2.076,1.521-3.531v-37.008h13.643L46.304,69.002h2.488
					c1.582,5.467,2.886,9.875,3.993,13.345c1.091,3.478,2.078,6.768,3.048,9.933c0.811,3.135,1.419,5.112,1.579,5.792
					c0.552,2.069,1.939,3.069,4.133,3.068l1.028-0.278c1.996-0.569,3.025-1.878,3.024-4.1L65.34,95.664z"/>
			</g>
		</g>
		<g id="femaleRight">
			<g>
				<path fill-rule="evenodd" clip-rule="evenodd" fill="#C0C2C2" d="M184.612,51.563c2.905,0,5.394-0.946,7.334-2.936
					c1.995-2.044,3.025-4.573,3.025-7.619c0-2.905-1.03-5.399-3.025-7.462c-1.918-2.116-4.429-3.164-7.334-3.164
					c-3.087,0-5.656,1.048-7.791,3.164c-2.076,2.055-3.083,4.557-3.084,7.462c0,3.046,1.008,5.577,3.084,7.619
					C178.956,50.616,181.525,51.563,184.612,51.563z M214.007,95.664c-0.195-0.36-0.553-1.584-1.106-3.66
					c-0.532-2.063-1.305-4.614-2.193-7.602c-0.831-3.026-1.859-6.296-2.849-9.814c-0.947-3.54-1.938-6.929-2.885-10.213
					c-0.891-2.51-2.473-4.785-4.688-6.778c-2.269-2.05-4.821-2.978-7.452-2.978h-16.981c-2.531,0-4.965,0.928-7.294,2.978
					c-2.353,1.975-3.874,4.268-4.568,6.778c-1.165,3.284-2.116,6.673-3.162,10.211c-1.03,3.52-1.997,6.79-2.887,9.816
					c-0.911,2.987-1.659,5.536-2.215,7.603c-0.493,2.074-0.909,3.298-1.05,3.657c-0.195,0.414-0.273,0.833-0.273,1.336
					c0,1.837,0.988,3.142,2.986,3.882l1.086,0.259c2.154,0,3.521-1,4.15-3.066c0.063-0.682,0.753-2.657,1.779-5.793
					c0.909-3.164,1.959-6.456,2.887-9.933c1.047-3.479,2.374-7.878,3.954-13.334h2.492l-14.434,48.722h13.88v37.008
					c0,1.455,0.474,2.66,1.501,3.531c0.969,0.91,2.213,1.347,3.657,1.345c1.442,0.002,2.63-0.435,3.52-1.345
					c0.907-0.871,1.386-2.076,1.386-3.531v-37.008h2.509v37.008c0,1.455,0.396,2.662,1.304,3.531c0.952,0.91,2.057,1.345,3.58,1.345
					c1.443,0,2.613-0.435,3.578-1.345c1.108-0.87,1.521-2.076,1.521-3.531v-37.008h13.643l-14.411-48.733h2.488
					c1.582,5.467,2.886,9.875,3.993,13.345c1.091,3.478,2.078,6.768,3.048,9.933c0.812,3.135,1.419,5.112,1.579,5.792
					c0.552,2.069,1.939,3.069,4.133,3.068l1.028-0.278c1.996-0.569,3.025-1.878,3.024-4.1L214.007,95.664z"/>
			</g>
		</g>
	</g>
</g>
</svg>
