<?xml version="1.0" encoding="utf-8"?>
<!-- Generator: Adobe Illustrator 16.0.0, SVG Export Plug-In . SVG Version: 6.00 Build 0)  -->
<!DOCTYPE svg PUBLIC "-//W3C//DTD SVG 1.1//EN" "http://www.w3.org/Graphics/SVG/1.1/DTD/svg11.dtd">
<svg version="1.1" id="Layer_1" xmlns="http://www.w3.org/2000/svg" xmlns:xlink="http://www.w3.org/1999/xlink" x="0px" y="0px"
	 width="360px" height="190px" viewBox="0 0 360 190" enable-background="new 0 0 360 190" xml:space="preserve">
<g>
	<rect fill="#EAEBEC" width="360" height="190"/>
</g>
<g id="left-group">
	<g id="left-group-text">
		<path fill="#404041" d="M40.029,134.781v-10.766h3.283c1.316,0,2.404,0.439,3.264,1.316s1.291,2.003,1.291,3.379v1.383
			c0,1.375-0.43,2.5-1.291,3.375s-1.948,1.313-3.264,1.313H40.029z M40.916,124.77v9.265h2.396c1.065,0,1.942-0.373,2.632-1.117
			c0.69-0.744,1.035-1.686,1.035-2.824v-1.405c0-1.124-0.347-2.058-1.039-2.802c-0.692-0.744-1.568-1.116-2.628-1.116H40.916z"/>
		<path fill="#404041" d="M55.394,131.779h-4.725l-1.087,3.002h-0.917l3.956-10.766h0.836l3.926,10.766h-0.917L55.394,131.779z
			 M50.95,130.988h4.155l-2.041-5.708h-0.044L50.95,130.988z"/>
		<path fill="#404041" d="M61.294,129.998l3.334-5.982h1.028l-3.927,6.832v3.934h-0.88v-3.971l-3.896-6.795h1.028L61.294,129.998z"
			/>
		<path fill="#404041" d="M72.984,132.164c0-0.552-0.219-1.008-0.658-1.368s-1.183-0.697-2.233-1.013
			c-1.148-0.315-2.022-0.709-2.621-1.18s-0.898-1.11-0.898-1.918c0-0.823,0.335-1.5,1.006-2.03c0.67-0.53,1.525-0.795,2.565-0.795
			c1.094,0,1.974,0.299,2.64,0.898c0.665,0.599,0.988,1.359,0.969,2.281l-0.015,0.044h-0.828c0-0.709-0.258-1.298-0.773-1.767
			c-0.515-0.468-1.179-0.702-1.993-0.702c-0.838,0-1.495,0.198-1.971,0.595c-0.476,0.396-0.713,0.883-0.713,1.46
			c0,0.547,0.215,0.997,0.647,1.35s1.191,0.682,2.281,0.987c1.134,0.33,1.999,0.737,2.595,1.22c0.597,0.483,0.895,1.124,0.895,1.922
			c0,0.838-0.349,1.512-1.046,2.022s-1.576,0.765-2.636,0.765s-1.984-0.27-2.772-0.81c-0.789-0.54-1.171-1.327-1.146-2.362
			l0.015-0.044h0.821c0,0.833,0.313,1.453,0.938,1.859s1.341,0.61,2.145,0.61c0.823,0,1.494-0.189,2.011-0.566
			C72.726,133.247,72.984,132.76,72.984,132.164z"/>
	</g>
	<g id="left-group-number">
		<path fill="#0074A8" d="M65.681,74.298l-9.704,27.304h-6.307l9.745-25.798H47.097v-4.915h18.584V74.298z"/>
	</g>
	<g opacity="0.6" id="left-group-line">
		<g>
			<rect x="12.282" y="113.805" fill="#66ABCB" width="88.262" height="3"/>
		</g>
	</g>
</g>
<g id="right-group">
	<g id="right-group-text">
		<path fill="#404041" d="M283.949,129.568h-4.829v4.466h5.583v0.747h-6.47v-10.766h6.433v0.754h-5.545v4.044h4.829V129.568z"/>
		<path fill="#404041" d="M289.31,132.896l0.215,0.754h0.044l0.215-0.754l3.238-8.88h0.954l-4.008,10.766h-0.843l-4.008-10.766
			h0.961L289.31,132.896z"/>
		<path fill="#404041" d="M300.978,129.568h-4.828v4.466h5.583v0.747h-6.47v-10.766h6.433v0.754h-5.545v4.044h4.828V129.568z"/>
		<path fill="#404041" d="M311.241,134.781h-0.887l-6.115-9.213l-0.044,0.007v9.206h-0.887v-10.766h0.887l6.115,9.191l0.044-0.008
			v-9.183h0.887V134.781z"/>
		<path fill="#404041" d="M320.794,124.77h-3.667v10.011h-0.88V124.77h-3.793v-0.754h8.34V124.77z"/>
		<path fill="#404041" d="M328.173,132.164c0-0.552-0.219-1.008-0.658-1.368c-0.439-0.36-1.184-0.697-2.233-1.013
			c-1.148-0.315-2.022-0.709-2.621-1.18c-0.599-0.471-0.898-1.11-0.898-1.918c0-0.823,0.335-1.5,1.006-2.03
			c0.67-0.53,1.525-0.795,2.565-0.795c1.095,0,1.975,0.299,2.64,0.898c0.666,0.599,0.988,1.359,0.969,2.281l-0.015,0.044H328.1
			c0-0.709-0.258-1.298-0.772-1.767c-0.516-0.468-1.18-0.702-1.993-0.702c-0.838,0-1.495,0.198-1.97,0.595
			c-0.476,0.396-0.713,0.883-0.713,1.46c0,0.547,0.215,0.997,0.646,1.35c0.432,0.353,1.192,0.682,2.281,0.987
			c1.134,0.33,1.999,0.737,2.595,1.22c0.596,0.483,0.895,1.124,0.895,1.922c0,0.838-0.349,1.512-1.046,2.022
			c-0.698,0.51-1.576,0.765-2.636,0.765c-1.06,0-1.984-0.27-2.772-0.81c-0.789-0.54-1.171-1.327-1.146-2.362l0.015-0.044h0.821
			c0,0.833,0.313,1.453,0.939,1.859s1.341,0.61,2.144,0.61c0.823,0,1.494-0.189,2.011-0.566
			C327.915,133.247,328.173,132.76,328.173,132.164z"/>
	</g>
	<g id="right-group-number">
		<path fill="#0074A8" d="M278.717,83.524h2.89c1.097,0,1.902-0.385,2.416-1.155s0.77-1.799,0.77-3.085
			c0-1.23-0.264-2.188-0.791-2.873s-1.234-1.028-2.12-1.028c-0.83,0-1.508,0.328-2.036,0.982s-0.791,1.48-0.791,2.477h-5.97
			c0-1.604,0.369-3.041,1.107-4.314c0.738-1.272,1.772-2.268,3.101-2.985s2.802-1.076,4.419-1.076c2.827,0,5.042,0.78,6.645,2.341
			s2.405,3.699,2.405,6.413c0,1.393-0.362,2.683-1.086,3.871s-1.677,2.099-2.858,2.731c1.448,0.619,2.528,1.547,3.238,2.785
			c0.71,1.238,1.065,2.7,1.065,4.388c0,2.729-0.868,4.915-2.605,6.56c-1.737,1.646-4.019,2.468-6.845,2.468
			c-2.63,0-4.764-0.812-6.402-2.437c-1.638-1.624-2.457-3.758-2.457-6.402h5.97c0,1.108,0.288,2.04,0.864,2.793
			c0.577,0.754,1.308,1.13,2.194,1.13c1.026,0,1.838-0.381,2.437-1.145c0.597-0.763,0.896-1.78,0.896-3.052
			c0-3.038-1.175-4.564-3.523-4.579h-2.932V83.524z"/>
		<path fill="#0074A8" d="M295.866,86.499l1.519-15.61h14.872v5.105h-9.978l-0.549,6.581c1.153-0.773,2.342-1.16,3.565-1.16
			c2.531,0,4.482,0.9,5.854,2.7c1.371,1.8,2.057,4.346,2.057,7.636c0,3.08-0.815,5.562-2.447,7.446
			c-1.631,1.885-3.811,2.827-6.539,2.827c-1.617,0-3.115-0.383-4.493-1.149c-1.378-0.767-2.465-1.832-3.259-3.196
			c-0.795-1.364-1.199-2.911-1.213-4.641h5.906c0.098,1.293,0.415,2.295,0.949,3.006c0.534,0.71,1.224,1.065,2.067,1.065
			c0.984,0,1.743-0.476,2.278-1.429c0.534-0.953,0.801-2.375,0.801-4.267c0-1.778-0.32-3.12-0.959-4.023
			c-0.641-0.903-1.537-1.355-2.689-1.355c-1.125,0-1.997,0.387-2.616,1.16l-0.379,0.528L295.866,86.499z"/>
		<path fill="#0074A8" d="M334.954,88.904c0,4.247-0.77,7.496-2.31,9.746s-3.737,3.375-6.592,3.375c-2.827,0-5.01-1.093-6.55-3.28
			c-1.54-2.187-2.338-5.319-2.395-9.397v-5.801c0-4.233,0.767-7.471,2.299-9.714c1.533-2.243,3.734-3.364,6.603-3.364
			s5.07,1.111,6.603,3.333s2.313,5.393,2.341,9.513V88.904z M328.964,82.667c0-2.428-0.24-4.249-0.718-5.463
			s-1.223-1.821-2.236-1.821c-1.898,0-2.883,2.224-2.953,6.67v7.687c0,2.485,0.243,4.334,0.728,5.549
			c0.485,1.214,1.241,1.821,2.268,1.821c0.97,0,1.69-0.568,2.162-1.705c0.471-1.137,0.72-2.876,0.749-5.22V82.667z"/>
	</g>
	<g opacity="0.6"  id="right-group-line">
		<g>
			<rect x="259.458" y="113.805" fill="#66ABCB" width="88.26" height="3"/>
		</g>
	</g>
</g>
<g  id="calendar">
	<g>
		<path fill="#808184" d="M224.001,52H212V41.207c0-1.899-1.603-3.438-3.5-3.438c-1.9,0-3.5,1.539-3.5,3.438V52h-64V41.207
			c0-1.899-1.602-3.438-3.5-3.438c-1.896,0-3.5,1.539-3.5,3.438V52h-7.406C121.87,52,118,55.5,118,60.227v78.721
			c0,4.727,3.87,9.052,8.594,9.052h97.407c4.724,0,8.999-4.325,8.999-9.052V60.227C233,55.5,228.725,52,224.001,52z M226,138.948
			c0,1.226-0.775,3.052-1.999,3.052h-97.407c-1.223,0-2.594-1.826-2.594-3.052V60.227C124,59,125.372,59,126.594,59h97.407
			c1.224,0,1.999,0,1.999,1.227V138.948z"/>
	</g>
	<g>
		<g>
			<g>
				<rect x="142.61" y="70.095" fill="#808184" width="11.734" height="11.733"/>
			</g>
			<g>
				<rect x="142.61" y="87.1" fill="#808184" width="11.734" height="11.734"/>
			</g>
			<g>
				<rect x="142.61" y="104.106" fill="#808184" width="11.734" height="11.734"/>
			</g>
			<g>
				<rect x="142.61" y="121.113" fill="#808184" width="11.734" height="11.734"/>
			</g>
			<g>
				<rect x="160.594" y="70.095" fill="#808184" width="11.734" height="11.733"/>
			</g>
			<g>
				<rect x="160.594" y="87.1" fill="#808184" width="11.734" height="11.734"/>
			</g>
			<g>
				<rect x="160.594" y="104.106" fill="#808184" width="11.734" height="11.734"/>
			</g>
			<g>
				<rect x="160.594" y="121.113" fill="#808184" width="11.734" height="11.734"/>
			</g>
			<g>
				<rect x="178.578" y="70.095" fill="#808184" width="11.734" height="11.733"/>
			</g>
			<g>
				<rect x="178.578" y="87.1" fill="#808184" width="11.734" height="11.734"/>
			</g>
			<g>
				<rect x="178.578" y="104.106" fill="#808184" width="11.734" height="11.734"/>
			</g>
			<g>
				<rect x="178.578" y="121.113" fill="#808184" width="11.734" height="11.734"/>
			</g>
			<g>
				<rect x="196.562" y="70.095" fill="#808184" width="11.734" height="11.733"/>
			</g>
			<g>
				<rect x="196.562" y="87.1" fill="#808184" width="11.734" height="11.734"/>
			</g>
			<g>
				<rect x="196.562" y="104.106" fill="#808184" width="11.734" height="11.734"/>
			</g>
			<g>
				<rect x="196.562" y="121.113" fill="#808184" width="11.734" height="11.734"/>
			</g>
		</g>
		<g id="calendar-colored-square">
			<rect x="178.578" y="104.106" fill="#0074A7" width="11.734" height="11.734"/>
		</g>
	</g>
</g>
</svg>
