<?xml version="1.0" encoding="utf-8"?>
<!-- Generator: Adobe Illustrator 16.0.0, SVG Export Plug-In . SVG Version: 6.00 Build 0)  -->
<!DOCTYPE svg PUBLIC "-//W3C//DTD SVG 1.1//EN" "http://www.w3.org/Graphics/SVG/1.1/DTD/svg11.dtd">
<svg version="1.1" id="Layer_1" xmlns="http://www.w3.org/2000/svg" xmlns:xlink="http://www.w3.org/1999/xlink" x="0px" y="0px"
	 width="360px" height="190px" viewBox="0 0 360 190" enable-background="new 0 0 360 190" xml:space="preserve">
<g>
	<rect fill="#B2D5E5" width="360" height="190"/>
</g>
<g id="group-left">
    <g id="group-left-text">
        <path fill="#404041" d="M17.551,115.086v4.492H16.66v-10.811h3.728c1.133,0,2.011,0.29,2.632,0.869s0.932,1.341,0.932,2.287
		    c0,0.96-0.311,1.728-0.932,2.302s-1.499,0.861-2.632,0.861H17.551z M17.551,114.329h2.837c0.891,0,1.559-0.227,2.005-0.68
		    c0.445-0.453,0.668-1.023,0.668-1.711c0-0.693-0.223-1.269-0.668-1.727c-0.446-0.458-1.114-0.687-2.005-0.687h-2.837V114.329z" />
        <path fill="#404041" d="M26.603,114.692v4.886h-0.891v-10.804h3.601c1.158,0,2.046,0.253,2.666,0.761
		    c0.619,0.507,0.928,1.249,0.928,2.224c0,0.574-0.165,1.088-0.494,1.541c-0.329,0.453-0.796,0.784-1.4,0.992
		    c0.668,0.168,1.15,0.469,1.444,0.902c0.294,0.434,0.442,0.977,0.442,1.63v1.018c0,0.336,0.04,0.638,0.119,0.906
		    c0.079,0.267,0.21,0.485,0.394,0.653v0.178h-0.906c-0.184-0.178-0.312-0.428-0.386-0.75s-0.111-0.656-0.111-1.002v-0.987
		    c0-0.664-0.214-1.187-0.642-1.571c-0.429-0.383-1.026-0.575-1.793-0.575H26.603z M26.603,113.935h2.606
		    c0.975,0,1.688-0.197,2.139-0.59c0.45-0.394,0.676-0.925,0.676-1.593c0-0.713-0.225-1.261-0.672-1.645
		    c-0.448-0.383-1.127-0.575-2.038-0.575h-2.71V113.935z" />
        <path fill="#404041" d="M43.28,115.056c0,1.396-0.383,2.524-1.147,3.386s-1.791,1.292-3.078,1.292
		    c-1.267,0-2.279-0.431-3.034-1.292s-1.132-1.99-1.132-3.386v-1.76c0-1.391,0.376-2.52,1.128-3.386
		    c0.752-0.866,1.762-1.299,3.03-1.299c1.287,0,2.314,0.433,3.081,1.299c0.768,0.867,1.151,1.995,1.151,3.386V115.056z
		     M42.396,113.281c0-1.168-0.296-2.108-0.888-2.821c-0.591-0.713-1.412-1.069-2.461-1.069c-1.03,0-1.832,0.356-2.406,1.069
		    s-0.861,1.653-0.861,2.821v1.775c0,1.178,0.289,2.124,0.865,2.836s1.38,1.069,2.41,1.069c1.054,0,1.875-0.355,2.461-1.065
		    c0.587-0.71,0.88-1.657,0.88-2.84V113.281z" />
        <path fill="#404041" d="M48.159,117.685l0.215,0.757h0.045l0.215-0.757l3.253-8.917h0.958l-4.024,10.811h-0.847l-4.024-10.811
		    h0.965L48.159,117.685z" />
        <path fill="#404041" d="M55.258,119.578h-0.891v-10.811h0.891V119.578z" />
        <path fill="#404041" d="M65.913,119.578h-0.891l-6.141-9.252l-0.045,0.007v9.245h-0.891v-10.811h0.891l6.141,9.229l0.045-0.007
		    v-9.222h0.891V119.578z" />
        <path fill="#404041" d="M75.819,116.2l0.015,0.044c0.02,1.06-0.327,1.906-1.04,2.54s-1.648,0.95-2.807,0.95
		    c-1.203,0-2.173-0.434-2.911-1.303c-0.738-0.869-1.106-1.994-1.106-3.375v-1.76c0-1.376,0.368-2.501,1.106-3.375
		    c0.738-0.874,1.708-1.311,2.911-1.311c1.173,0,2.112,0.31,2.818,0.928c0.705,0.619,1.048,1.47,1.028,2.554l-0.015,0.045h-0.832
		    c0-0.872-0.266-1.551-0.798-2.039c-0.532-0.487-1.266-0.731-2.202-0.731c-0.945,0-1.704,0.367-2.275,1.099
		    c-0.572,0.733-0.858,1.671-0.858,2.814v1.775c0,1.158,0.286,2.103,0.858,2.833c0.571,0.73,1.33,1.095,2.275,1.095
		    c0.936,0,1.67-0.237,2.202-0.712c0.532-0.476,0.798-1.166,0.798-2.072H75.819z" />
        <path fill="#404041" d="M83.557,114.343h-4.849v4.485h5.605v0.75h-6.497v-10.811h6.46v0.757h-5.568v4.062h4.849V114.343z" />
        <path fill="#404041" d="M91.992,116.95c0-0.555-0.221-1.012-0.661-1.374c-0.44-0.361-1.188-0.7-2.242-1.017
		    c-1.154-0.317-2.031-0.711-2.633-1.184c-0.601-0.473-0.902-1.115-0.902-1.927c0-0.827,0.336-1.506,1.01-2.038
		    s1.532-0.798,2.577-0.798c1.099,0,1.982,0.301,2.651,0.902s0.993,1.365,0.973,2.291l-0.015,0.045h-0.831
		    c0-0.713-0.259-1.305-0.776-1.775s-1.185-0.706-2.001-0.706c-0.842,0-1.501,0.2-1.979,0.598c-0.478,0.398-0.717,0.887-0.717,1.466
		    c0,0.549,0.216,1.001,0.649,1.355c0.434,0.354,1.197,0.685,2.291,0.991c1.139,0.332,2.007,0.74,2.606,1.225
		    c0.599,0.485,0.898,1.129,0.898,1.931c0,0.842-0.351,1.519-1.051,2.031c-0.701,0.513-1.583,0.769-2.647,0.769
		    s-1.992-0.271-2.784-0.813s-1.176-1.333-1.151-2.372l0.015-0.045h0.824c0,0.837,0.314,1.459,0.943,1.868
		    c0.629,0.408,1.347,0.612,2.153,0.612c0.827,0,1.5-0.189,2.02-0.568C91.732,118.038,91.992,117.548,91.992,116.95z" />
    </g>
    <g id="group-left-number">
        <path fill="#0074A8" d="M48.532,86.255h-6.016V62.699l-5.868,2.267v-4.999l11.248-4.597h0.636V86.255z" />
        <path fill="#0074A8" d="M70.479,86.255h-6.016V62.699l-5.868,2.267v-4.999l11.249-4.597h0.635V86.255z" />
    </g>
    <g opacity="0.6" id="group-left-line">
        <g>
        <rect x="12.176" y="98.521" fill="#66ABCB" width="88.635" height="3" />
	    </g>
    </g>
</g>
<g id="group-right">
    <g id="group-right-text">
        <path fill="#404041" d="M269.144,115.086v4.492h-0.892v-10.811h3.728c1.134,0,2.011,0.29,2.633,0.869
		    c0.621,0.579,0.932,1.341,0.932,2.287c0,0.96-0.311,1.728-0.932,2.302c-0.622,0.574-1.499,0.861-2.633,0.861H269.144z
		     M269.144,114.329h2.836c0.892,0,1.56-0.227,2.005-0.68c0.445-0.453,0.668-1.023,0.668-1.711c0-0.693-0.223-1.269-0.668-1.727
		    c-0.445-0.458-1.113-0.687-2.005-0.687h-2.836V114.329z" />
        <path fill="#404041" d="M278.195,114.692v4.886h-0.891v-10.804h3.602c1.158,0,2.047,0.253,2.666,0.761
		    c0.619,0.507,0.928,1.249,0.928,2.224c0,0.574-0.165,1.088-0.494,1.541c-0.329,0.453-0.795,0.784-1.399,0.992
		    c0.668,0.168,1.149,0.469,1.444,0.902c0.294,0.434,0.442,0.977,0.442,1.63v1.018c0,0.336,0.04,0.638,0.119,0.906
		    c0.079,0.267,0.21,0.485,0.394,0.653v0.178h-0.906c-0.183-0.178-0.312-0.428-0.386-0.75s-0.111-0.656-0.111-1.002v-0.987
		    c0-0.664-0.214-1.187-0.643-1.571c-0.428-0.383-1.025-0.575-1.793-0.575H278.195z M278.195,113.935h2.606
		    c0.975,0,1.688-0.197,2.138-0.59c0.451-0.394,0.676-0.925,0.676-1.593c0-0.713-0.224-1.261-0.672-1.645
		    c-0.448-0.383-1.127-0.575-2.038-0.575h-2.71V113.935z" />
        <path fill="#404041" d="M294.872,115.056c0,1.396-0.382,2.524-1.147,3.386c-0.765,0.861-1.791,1.292-3.078,1.292
		    c-1.268,0-2.278-0.431-3.033-1.292s-1.133-1.99-1.133-3.386v-1.76c0-1.391,0.376-2.52,1.129-3.386
		    c0.752-0.866,1.762-1.299,3.029-1.299c1.287,0,2.314,0.433,3.082,1.299c0.767,0.867,1.15,1.995,1.15,3.386V115.056z
		     M293.989,113.281c0-1.168-0.296-2.108-0.887-2.821c-0.592-0.713-1.412-1.069-2.462-1.069c-1.029,0-1.831,0.356-2.405,1.069
		    s-0.861,1.653-0.861,2.821v1.775c0,1.178,0.288,2.124,0.865,2.836s1.38,1.069,2.41,1.069c1.054,0,1.875-0.355,2.461-1.065
		    c0.586-0.71,0.88-1.657,0.88-2.84V113.281z" />
        <path fill="#404041" d="M301.578,108.767h0.891v7.678c0,1.005-0.293,1.804-0.88,2.398c-0.587,0.594-1.345,0.891-2.276,0.891
		    c-0.99,0-1.775-0.262-2.354-0.787c-0.579-0.524-0.856-1.292-0.831-2.302l0.015-0.044h0.832c0,0.812,0.199,1.412,0.598,1.801
		    s0.979,0.583,1.741,0.583c0.659,0,1.201-0.229,1.626-0.687c0.425-0.458,0.638-1.076,0.638-1.853V108.767z" />
        <path fill="#404041" d="M310.637,114.343h-4.849v4.485h5.606v0.75h-6.497v-10.811h6.46v0.757h-5.569v4.062h4.849V114.343z" />
        <path fill="#404041" d="M320.424,116.2l0.015,0.044c0.02,1.06-0.327,1.906-1.04,2.54s-1.648,0.95-2.807,0.95
		    c-1.203,0-2.173-0.434-2.911-1.303c-0.738-0.869-1.106-1.994-1.106-3.375v-1.76c0-1.376,0.369-2.501,1.106-3.375
		    c0.737-0.874,1.708-1.311,2.911-1.311c1.173,0,2.112,0.31,2.818,0.928c0.705,0.619,1.048,1.47,1.028,2.554l-0.015,0.045h-0.832
		    c0-0.872-0.266-1.551-0.798-2.039c-0.532-0.487-1.266-0.731-2.202-0.731c-0.946,0-1.704,0.367-2.276,1.099
		    c-0.572,0.733-0.857,1.671-0.857,2.814v1.775c0,1.158,0.286,2.103,0.857,2.833c0.572,0.73,1.33,1.095,2.276,1.095
		    c0.936,0,1.669-0.237,2.202-0.712c0.532-0.476,0.798-1.166,0.798-2.072H320.424z" />
        <path fill="#404041" d="M329.557,109.524h-3.683v10.054h-0.884v-10.054h-3.809v-0.757h8.375V109.524z" />
        <path fill="#404041" d="M336.968,116.95c0-0.555-0.22-1.012-0.661-1.374c-0.441-0.361-1.188-0.7-2.243-1.017
		    c-1.153-0.317-2.03-0.711-2.632-1.184s-0.902-1.115-0.902-1.927c0-0.827,0.337-1.506,1.01-2.038s1.532-0.798,2.577-0.798
		    c1.099,0,1.982,0.301,2.651,0.902c0.668,0.602,0.992,1.365,0.973,2.291l-0.015,0.045h-0.832c0-0.713-0.259-1.305-0.776-1.775
		    s-1.184-0.706-2.001-0.706c-0.841,0-1.501,0.2-1.979,0.598s-0.716,0.887-0.716,1.466c0,0.549,0.216,1.001,0.65,1.355
		    c0.433,0.354,1.196,0.685,2.291,0.991c1.138,0.332,2.007,0.74,2.606,1.225c0.599,0.485,0.898,1.129,0.898,1.931
		    c0,0.842-0.35,1.519-1.051,2.031c-0.7,0.513-1.583,0.769-2.646,0.769c-1.064,0-1.993-0.271-2.785-0.813
		    c-0.792-0.542-1.176-1.333-1.151-2.372l0.015-0.045h0.824c0,0.837,0.314,1.459,0.943,1.868c0.628,0.408,1.346,0.612,2.153,0.612
		    c0.826,0,1.5-0.189,2.02-0.568C336.708,118.038,336.968,117.548,336.968,116.95z" />
    </g>
    <g id="group-right-number">
        <path fill="#0074A8" d="M300.831,86.253h-18.176v-4.201l8.346-10.649c1.06-1.474,1.84-2.767,2.341-3.88
		    c0.501-1.113,0.752-2.179,0.752-3.2c0-1.375-0.237-2.452-0.709-3.232c-0.474-0.78-1.155-1.169-2.044-1.169
		    c-0.975,0-1.748,0.456-2.32,1.367c-0.572,0.912-0.858,2.193-0.858,3.844h-6.016c0-1.892,0.392-3.622,1.176-5.19
		    c0.784-1.567,1.885-2.786,3.305-3.654c1.419-0.868,3.025-1.303,4.819-1.303c2.754,0,4.89,0.759,6.408,2.277
		    c1.518,1.518,2.277,3.675,2.277,6.472c0,1.737-0.421,3.499-1.261,5.286c-0.84,1.787-2.362,3.992-4.565,6.616l-3.961,5.681h10.486
		    V86.253z" />
        <path fill="#0074A8" d="M322.523,73.5c0,4.266-0.773,7.528-2.32,9.787c-1.546,2.26-3.753,3.39-6.62,3.39
		    c-2.838,0-5.031-1.098-6.577-3.294c-1.547-2.196-2.348-5.341-2.404-9.438V68.12c0-4.251,0.77-7.502,2.309-9.755
		    c1.539-2.252,3.75-3.379,6.631-3.379s5.091,1.116,6.631,3.347c1.539,2.231,2.322,5.416,2.351,9.554V73.5z M316.507,67.237
		    c0-2.438-0.24-4.267-0.721-5.486c-0.48-1.22-1.229-1.829-2.245-1.829c-1.906,0-2.896,2.233-2.966,6.699v7.719
		    c0,2.496,0.244,4.353,0.731,5.572c0.487,1.219,1.246,1.829,2.277,1.829c0.975,0,1.698-0.571,2.172-1.712
		    c0.473-1.141,0.724-2.889,0.752-5.242V67.237z" />
    </g>
    <g opacity="0.6" id="group-right-line">
        <g>
        <rect x="260.396" y="98.521" fill="#66ABCB" width="88.637" height="3" />
	    </g>
    </g>
</g>
<g id="person">
	<path fill="#66ABCB" d="M194.293,93.329c-2.857-1.994-6.035-3.672-9.439-5.033c-0.002,0.013-0.006,0.027-0.009,0.04
		c-3.033-1.232-6.245-2.215-9.607-2.899c1.571-1.131,3.017-2.465,4.319-3.979l22.09-10.229c1.112-0.519,1.724-1.711,1.491-2.912
		c-0.083-0.435-2.181-10.856-8.029-21.445c-7.983-14.419-19.123-22.045-32.219-22.045c-13.086,0-24.226,7.626-32.212,22.045
		c-5.856,10.589-7.94,21.011-8.029,21.445c-0.236,1.201,0.375,2.394,1.491,2.912l22.099,10.229c1.292,1.514,2.742,2.848,4.311,3.979
		c-7.116,1.442-13.645,4.118-19.052,7.892C122.797,99.395,118,107.584,118,116.33c0,1.469,1.194,2.67,2.676,2.67h43.787h15.373
		h25.281c1.482,0,2.676-1.201,2.676-2.67C207.792,107.584,202.995,99.395,194.293,93.329z M144.778,62.343
		c0-1.464-1.192-2.641-2.676-2.641c-1.471,0-2.669,1.177-2.669,2.641c0,3.94,0.722,7.679,2.032,11.062l-13.097-6.063
		c0.878-3.437,3.046-10.782,7.065-18.026c7.077-12.737,16.317-19.192,27.457-19.192c11.182,0,20.438,6.495,27.521,19.297
		c4.005,7.236,6.144,14.508,7.006,17.922l-13.095,6.063c1.312-3.383,2.036-7.121,2.036-11.062c0-1.464-1.201-2.641-2.681-2.641
		c-1.474,0-2.675,1.177-2.675,2.641c0,12.058-8.125,21.875-18.112,21.875C152.903,84.218,144.778,74.4,144.778,62.343z
		 M174.771,90.746c-2.901,1.923-7.33,4.123-12.276,4.018c-3.741-0.083-7.294-1.488-10.612-4.193
		c3.529-0.698,7.226-1.059,11.007-1.059C166.983,89.512,170.979,89.939,174.771,90.746z M186,114v-7.772
		c0-1.464-1.026-2.646-2.505-2.646c-1.476,0-2.495,1.182-2.495,2.646V114h-2.735h-12.879H145v-7.772c0-1.464-1.52-2.646-2.995-2.646
		c-1.479,0-3.005,1.182-3.005,2.646V114h-15.458c0.884-6,4.725-11.765,11.042-16.178c3.296-2.297,7.072-4.23,11.183-5.576
		c4.966,5.121,10.564,7.74,16.661,7.853c0.137,0.006,0.274-0.015,0.409-0.015c8.842,0,15.925-5.409,18.346-7.507
		c1.995,0.708,3.881,1.558,5.691,2.503c0.003-0.007,0.007-0.016,0.01-0.023c1.514,0.792,2.963,1.818,4.323,2.767
		C197.525,102.236,201.367,108,202.25,114H186z"/>
</g>
<g id="document">
	<g>
		<path fill="#B2D5E5" d="M227.182,88.577h-32.613c-0.286,0-0.559,0.064-0.807,0.187l-13.914,13.567
			c-0.194,0.295-0.558,0.637-0.558,0.997v49.552c0,2.947,2.91,5.698,5.86,5.698h18.283h5.468h18.282c2.95,0,4.996-2.751,4.996-5.698
			v-23.585v-1.762v-33.62C232.179,90.965,230.127,88.577,227.182,88.577z"/>
	</g>
	<g>
		<g>
			<path fill="#0074A8" d="M185.149,160.577c-4.113,0-7.86-3.669-7.86-7.698v-49.552c0-0.95,0.52-1.621,0.8-1.981l0.089-0.117
				l0.111-0.162l0.162-0.169l14.142-13.788l0.284-0.141c0.529-0.26,1.098-0.393,1.691-0.393h32.613c3.989,0,6.997,3.153,6.997,7.335
				v58.966c0,4.245-3.139,7.698-6.996,7.698H185.149z M226.547,152.948c0.001-0.022,0.002-23.598,0.002-23.598
				c-0.688,1.009-1.848,1.672-3.16,1.672h-19.747c0.537,0.657,0.859,1.495,0.859,2.407c0,2.104-1.715,3.814-3.824,3.814h-10.966
				c-2.109,0-3.825-1.711-3.825-3.814c0-1.282,0.638-2.418,1.614-3.11c-0.976-0.692-1.614-1.828-1.614-3.11
				c0-1.283,0.638-2.421,1.615-3.113c-0.976-0.693-1.613-1.831-1.613-3.115c0-1.281,0.637-2.416,1.612-3.107
				c-0.975-0.692-1.612-1.828-1.612-3.11c0-2.104,1.715-3.816,3.824-3.816h15.9c-0.538-0.658-0.86-1.497-0.86-2.411
				c0-2.102,1.713-3.812,3.819-3.812h14.818c1.312,0,2.471,0.663,3.16,1.671v-11.67h-27.63v5.141c0,4.24-3.511,7.822-7.666,7.822
				c0,0-5.803,0-5.815,0v45.19c0.002,0.014,0.013,0.041,0.027,0.069H226.547z M225.597,124.095c0.372,0.264,0.695,0.593,0.952,0.969
				v-1.939C226.292,123.502,225.969,123.832,225.597,124.095z M225.599,117.873c0.371,0.263,0.693,0.591,0.95,0.967v-1.935
				C226.292,117.281,225.97,117.609,225.599,117.873z M225.597,111.65c0.372,0.264,0.695,0.593,0.952,0.969v-1.939
				C226.292,111.058,225.969,111.387,225.597,111.65z M190.764,100.059c0.004-0.057,0.007-0.121,0.007-0.192v-0.467l-0.603,0.659
				H190.764z"/>
		</g>
		<g>
			<path fill="#B2D5E5" d="M227.182,88.577c2.945,0,4.997,2.388,4.997,5.335v33.62v1.762v23.585c0,2.947-2.046,5.698-4.996,5.698
				H208.9h-5.468h-18.283c-2.95,0-5.86-2.751-5.86-5.698v-49.552c0-0.36,0.364-0.701,0.558-0.997l13.914-13.567
				c0.248-0.122,0.521-0.187,0.807-0.187H227.182 M185.475,105.688c-0.698,0-1.519-0.212-2.037-0.244v47.435
				c0,0.939,0.774,2.069,1.712,2.069h18.325h5.383h18.325c0.938,0,1.366-1.129,1.366-2.069v-23.08V93.913
				c0-0.938-0.428-1.187-1.367-1.187h-30.22c-0.044,0.518-0.043,0.717-0.043,1.363v5.778c0,3.125-2.538,5.822-5.666,5.822H185.475
				 M185.632,102.059h5.621c1.117,0,1.519-1.074,1.519-2.192v-5.62L185.632,102.059 M223.389,106.725
				c1.006,0,1.821,0.809,1.821,1.812c0,1.009-0.814,1.817-1.821,1.817h-14.818c-1.008,0-1.819-0.808-1.819-1.817
				c0-1.003,0.811-1.812,1.819-1.812H223.389 M223.389,112.947c1.006,0,1.821,0.81,1.821,1.816c0,1.008-0.814,1.814-1.821,1.814
				h-33.678c-1.007,0-1.824-0.806-1.824-1.814c0-1.006,0.816-1.816,1.824-1.816H223.389 M223.389,119.169
				c1.006,0,1.821,0.808,1.821,1.811c0,1.008-0.814,1.819-1.821,1.819h-33.678c-1.007,0-1.824-0.811-1.824-1.819
				c0-1.003,0.816-1.811,1.824-1.811H223.389 M223.389,125.392c1.006,0,1.821,0.808,1.821,1.816c0,1.005-0.814,1.814-1.821,1.814
				h-33.678c-1.007,0-1.825-0.809-1.825-1.814c0-1.008,0.818-1.816,1.825-1.816H223.389 M200.678,131.614
				c1.008,0,1.824,0.811,1.824,1.814c0,1.007-0.816,1.814-1.824,1.814h-10.966c-1.007,0-1.825-0.808-1.825-1.814
				c0-1.004,0.818-1.814,1.825-1.814H200.678 M227.182,84.577h-32.613c-0.903,0-1.77,0.201-2.576,0.599l-0.569,0.281l-0.454,0.442
				l-13.914,13.567l-0.313,0.305l-0.202,0.308l-0.031,0.041c-0.365,0.47-1.22,1.572-1.22,3.207v49.552c0,5.076,4.7,9.698,9.86,9.698
				h18.283h5.468h18.282c4.96,0,8.996-4.351,8.996-9.698v-23.585v-1.762v-33.62C236.179,88.678,232.227,84.577,227.182,84.577
				L227.182,84.577z M200.919,96.726h23.63v6.115c-0.375-0.076-0.763-0.116-1.16-0.116h-14.818c-3.208,0-5.819,2.607-5.819,5.812
				c0,0.138,0.005,0.275,0.014,0.411h-7.829c3.507-1.475,5.982-4.99,5.982-9.081V96.726L200.919,96.726z M206.487,133.022h16.902
				c0.397,0,0.785-0.04,1.16-0.116v18.042h-15.691h-5.383h-16.037v-12.166c0.699,0.297,1.468,0.461,2.274,0.461h10.966
				c3.211,0,5.824-2.608,5.824-5.814C206.501,133.292,206.497,133.156,206.487,133.022L206.487,133.022z"/>
		</g>
	</g>
</g>
</svg>
