<?xml version="1.0" encoding="utf-8"?>
<!-- Generator: Adobe Illustrator 16.0.0, SVG Export Plug-In . SVG Version: 6.00 Build 0)  -->
<!DOCTYPE svg PUBLIC "-//W3C//DTD SVG 1.1//EN" "http://www.w3.org/Graphics/SVG/1.1/DTD/svg11.dtd">
<svg version="1.1" xmlns="http://www.w3.org/2000/svg" xmlns:xlink="http://www.w3.org/1999/xlink" x="0px" y="0px" width="100%"
	 height="100%" viewBox="0 0 360 360" enable-background="new 0 0 360 360" xml:space="preserve" class="c-infographic-svg">
<g id="Layer_1">
	<g>
		<rect fill="#B7C7DF" width="360" height="360"/>
	</g>
	<g>
        <g id="hammer">
            <g>
            <g>
            <path fill="#1073A8" d="M161.699,28.008l32.53,20.159c0.904,0.55,2.054,0.223,2.567-0.744l0.941-1.74
					c0.514-0.959,0.221-2.196-0.684-2.756l-32.542-20.157c-0.892-0.557-2.042-0.228-2.568,0.734l-0.929,1.744
					C160.489,26.219,160.807,27.451,161.699,28.008" />
			</g>
		</g>
            <g>
            <g>
            <path fill="#1073A8" d="M133.523,80.387l32.529,20.163c0.905,0.547,2.056,0.217,2.569-0.739l0.941-1.741
					c0.526-0.962,0.207-2.202-0.687-2.756l-32.528-20.158c-0.905-0.561-2.054-0.224-2.569,0.733l-0.94,1.748
					C132.313,78.597,132.619,79.823,133.523,80.387" />
			</g>
		</g>
            <g>
            <g>
            <path fill="#1073A8" d="M248.257,105.02l-65.123-36.222l8.759-16.271c0.527-0.96,0.193-2.195-0.683-2.755L161.92,31.63
					c-0.895-0.557-2.054-0.224-2.568,0.742l-20.667,38.406c-0.501,0.957-0.209,2.197,0.696,2.749l29.277,18.15
					c0.905,0.557,2.054,0.224,2.568-0.741l8.756-16.268l61.78,42.413c0.881,0.597,2.019,0.3,2.521-0.666l4.696-8.726
					C249.491,106.728,249.162,105.525,248.257,105.02" />
			</g>
		</g>
        </g>
		<g id="base">
			<g>
				<path fill="#1073A8" d="M183.822,137.92h-65.254c-1.786,0-3.253-1.582-3.253-3.501v-3.501c0-1.926,1.467-3.504,3.253-3.498
					h65.254c1.786,0,3.265,1.571,3.253,3.489l0.012,3.51C187.075,136.346,185.608,137.92,183.822,137.92 M188.225,122.55h-3.925
					c0.501-0.597,0.831-1.36,0.831-2.221v-3.312c0-1.829-1.394-3.328-3.092-3.328h-61.965c-1.712,0-3.095,1.5-3.095,3.328v3.312
					c0,0.86,0.331,1.624,0.819,2.221h-3.926c-1.698,0-3.093,1.498-3.093,3.318v13.308c0,1.825,1.395,3.324,3.093,3.324h74.354
					c1.712,0,3.106-1.499,3.106-3.324v-13.308C191.331,124.048,189.937,122.55,188.225,122.55"/>
			</g>
		</g>
	</g>
</g>
<g id="Layer_2">
	<g>
		<g>
			<path fill="#1073A8" d="M135.396,319.625h-6.563v17.787h-2.693v-17.787h-6.48v-2.119h15.736V319.625z"/>
		</g>
		<g>
			<path fill="#1073A8" d="M145.403,337.412c-0.091-0.446-0.162-0.841-0.212-1.183c-0.05-0.342-0.08-0.686-0.089-1.032
				c-0.501,0.711-1.155,1.306-1.962,1.784s-1.675,0.718-2.604,0.718c-1.541,0-2.714-0.394-3.521-1.183
				c-0.807-0.788-1.21-1.875-1.21-3.261c0-1.413,0.572-2.518,1.716-3.315c1.144-0.797,2.695-1.196,4.655-1.196h2.926v-1.463
				c0-0.866-0.265-1.552-0.793-2.058c-0.529-0.506-1.276-0.759-2.242-0.759c-0.875,0-1.582,0.219-2.119,0.656
				c-0.538,0.438-0.807,0.962-0.807,1.572l-2.557,0.027l-0.027-0.082c-0.064-1.075,0.439-2.06,1.511-2.953
				c1.071-0.893,2.454-1.34,4.149-1.34c1.677,0,3.026,0.426,4.047,1.278c1.021,0.853,1.531,2.081,1.531,3.685v7.123
				c0,0.529,0.027,1.039,0.082,1.531s0.155,0.976,0.301,1.449H145.403z M140.933,335.443c0.975,0,1.854-0.25,2.639-0.752
				c0.784-0.501,1.294-1.075,1.531-1.723v-2.406h-3.021c-1.085,0-1.953,0.273-2.604,0.82c-0.652,0.547-0.978,1.189-0.978,1.928
				c0,0.656,0.205,1.176,0.615,1.559S140.13,335.443,140.933,335.443z"/>
		</g>
		<g>
			<path fill="#1073A8" d="M154.81,322.619v16.01c0,1.522-0.392,2.695-1.176,3.521c-0.784,0.825-1.873,1.237-3.268,1.237
				c-0.283,0-0.54-0.021-0.772-0.062s-0.48-0.103-0.745-0.185l0.191-2.119c0.128,0.045,0.31,0.084,0.547,0.116
				c0.237,0.032,0.433,0.048,0.588,0.048c0.592,0,1.064-0.201,1.415-0.602c0.351-0.401,0.526-1.053,0.526-1.955v-16.01H154.81z
				 M154.728,318.777h-2.693v-2.693h2.693V318.777z"/>
		</g>
		<g>
			<path fill="#1073A8" d="M161.864,318.832h-2.693v-2.748h2.693V318.832z M161.864,337.412h-2.693v-14.793h2.693V337.412z"/>
		</g>
		<g>
			<path fill="#1073A8" d="M170.095,330.59h-1.381v6.822h-2.693v-21.328h2.693v12.359h1.354l4.443-5.824h3.227l-5.373,6.822
				l5.838,7.971h-3.186L170.095,330.59z"/>
		</g>
		<g>
			<path fill="#1073A8" d="M183.274,318.832h-2.693v-2.748h2.693V318.832z M183.274,337.412h-2.693v-14.793h2.693V337.412z"/>
		</g>
		<g>
			<path fill="#1073A8" d="M196.017,333.434c0-0.592-0.226-1.075-0.677-1.449c-0.451-0.374-1.306-0.702-2.563-0.984
				c-1.741-0.374-3.079-0.897-4.013-1.572c-0.935-0.674-1.401-1.577-1.401-2.707c0-1.203,0.513-2.233,1.538-3.09
				c1.025-0.856,2.354-1.285,3.985-1.285c1.677,0,3.035,0.456,4.074,1.367c1.039,0.912,1.536,1.974,1.49,3.186l-0.027,0.082h-2.57
				c0-0.638-0.28-1.217-0.841-1.736s-1.27-0.779-2.126-0.779c-0.948,0-1.657,0.214-2.126,0.643c-0.47,0.429-0.704,0.939-0.704,1.531
				c0,0.583,0.203,1.035,0.608,1.354c0.405,0.319,1.242,0.611,2.509,0.875c1.813,0.383,3.19,0.925,4.129,1.627
				c0.938,0.702,1.408,1.618,1.408,2.748c0,1.313-0.531,2.384-1.593,3.213c-1.062,0.83-2.45,1.244-4.163,1.244
				c-1.887,0-3.373-0.479-4.457-1.436c-1.085-0.957-1.6-2.073-1.545-3.35l0.027-0.082h2.57c0.045,0.957,0.401,1.657,1.066,2.099
				c0.665,0.442,1.444,0.663,2.338,0.663c0.957,0,1.707-0.203,2.249-0.608C195.745,334.58,196.017,334.063,196.017,333.434z"/>
		</g>
		<g>
			<path fill="#1073A8" d="M205.806,319.051v3.568h2.803v1.996h-2.803v8.982c0,0.693,0.144,1.181,0.431,1.463
				c0.287,0.283,0.667,0.424,1.142,0.424c0.155,0,0.328-0.021,0.52-0.062s0.351-0.084,0.479-0.13l0.369,1.846
				c-0.201,0.164-0.497,0.298-0.889,0.403c-0.392,0.104-0.779,0.157-1.162,0.157c-1.094,0-1.964-0.33-2.611-0.991
				c-0.647-0.661-0.971-1.697-0.971-3.11v-8.982h-2.352v-1.996h2.352v-3.568H205.806z"/>
		</g>
		<g>
			<path fill="#1073A8" d="M220.585,337.412c-0.091-0.446-0.162-0.841-0.212-1.183c-0.05-0.342-0.08-0.686-0.089-1.032
				c-0.501,0.711-1.155,1.306-1.962,1.784s-1.675,0.718-2.604,0.718c-1.541,0-2.714-0.394-3.521-1.183
				c-0.807-0.788-1.21-1.875-1.21-3.261c0-1.413,0.572-2.518,1.716-3.315c1.144-0.797,2.695-1.196,4.655-1.196h2.926v-1.463
				c0-0.866-0.265-1.552-0.793-2.058c-0.529-0.506-1.276-0.759-2.242-0.759c-0.875,0-1.582,0.219-2.119,0.656
				c-0.538,0.438-0.807,0.962-0.807,1.572l-2.557,0.027l-0.027-0.082c-0.064-1.075,0.439-2.06,1.511-2.953
				c1.071-0.893,2.454-1.34,4.149-1.34c1.677,0,3.026,0.426,4.047,1.278c1.021,0.853,1.531,2.081,1.531,3.685v7.123
				c0,0.529,0.027,1.039,0.082,1.531s0.155,0.976,0.301,1.449H220.585z M216.114,335.443c0.975,0,1.854-0.25,2.639-0.752
				c0.784-0.501,1.294-1.075,1.531-1.723v-2.406h-3.021c-1.085,0-1.953,0.273-2.604,0.82c-0.652,0.547-0.978,1.189-0.978,1.928
				c0,0.656,0.205,1.176,0.615,1.559S215.312,335.443,216.114,335.443z"/>
		</g>
		<g>
			<path fill="#1073A8" d="M229.294,322.619l0.191,2.201c0.492-0.784,1.109-1.392,1.853-1.825c0.743-0.433,1.588-0.649,2.536-0.649
				c1.595,0,2.83,0.467,3.705,1.401c0.875,0.935,1.313,2.377,1.313,4.327v9.338h-2.693v-9.283c0-1.303-0.258-2.229-0.772-2.775
				c-0.515-0.547-1.301-0.82-2.358-0.82c-0.83,0-1.534,0.167-2.112,0.499c-0.579,0.333-1.037,0.8-1.374,1.401v10.979h-2.693v-14.793
				H229.294z"/>
		</g>
	</g>
	<g>
		<g>
			<path fill="#555658" d="M108.962,296.305v5.238h-1.635v-12.078h4.134c1.323,0,2.333,0.294,3.03,0.881
				c0.697,0.586,1.046,1.438,1.046,2.557c0,0.619-0.162,1.159-0.486,1.618c-0.323,0.459-0.795,0.824-1.415,1.096
				c0.664,0.216,1.142,0.565,1.432,1.05c0.291,0.484,0.436,1.084,0.436,1.797v1.138c0,0.376,0.042,0.714,0.125,1.013
				s0.227,0.542,0.432,0.73v0.199h-1.685c-0.216-0.188-0.354-0.465-0.415-0.83s-0.091-0.741-0.091-1.129v-1.104
				c0-0.653-0.191-1.18-0.573-1.578s-0.894-0.598-1.536-0.598H108.962z M108.962,295.019h2.333c0.924,0,1.59-0.176,1.996-0.527
				c0.407-0.352,0.61-0.887,0.61-1.606c0-0.68-0.198-1.207-0.594-1.581c-0.396-0.373-1.011-0.56-1.847-0.56h-2.499V295.019z"/>
		</g>
		<g>
			<path fill="#555658" d="M120.788,301.717c-1.29,0-2.295-0.412-3.017-1.236c-0.723-0.824-1.083-1.909-1.083-3.254v-0.365
				c0-1.289,0.372-2.356,1.117-3.2c0.744-0.844,1.653-1.266,2.727-1.266c1.201,0,2.102,0.374,2.702,1.12
				c0.6,0.748,0.9,1.741,0.9,2.98v0.863h-5.744l-0.025,0.041c0,0.902,0.199,1.635,0.598,2.196s1.007,0.843,1.826,0.843
				c0.553,0,1.039-0.079,1.457-0.237c0.418-0.157,0.776-0.375,1.075-0.651l0.639,1.063c-0.321,0.31-0.744,0.571-1.27,0.784
				S121.529,301.717,120.788,301.717z M120.53,293.682c-0.57,0-1.042,0.221-1.415,0.66c-0.374,0.44-0.602,1.003-0.685,1.689
				l0.017,0.041h4.051v-0.133c0-0.652-0.161-1.192-0.481-1.618S121.2,293.682,120.53,293.682z"/>
		</g>
		<g>
			<path fill="#555658" d="M128.687,300.439c0.503,0,0.943-0.168,1.32-0.503s0.564-0.745,0.564-1.232h1.478l0.025,0.05
				c0.022,0.774-0.31,1.462-0.996,2.063s-1.483,0.9-2.391,0.9c-1.262,0-2.236-0.429-2.922-1.286s-1.029-1.926-1.029-3.204v-0.349
				c0-1.268,0.344-2.331,1.034-3.191c0.688-0.86,1.661-1.291,2.917-1.291c1.001,0,1.822,0.31,2.461,0.93
				c0.639,0.62,0.947,1.381,0.925,2.282l-0.017,0.051h-1.486c0-0.549-0.179-1.015-0.535-1.399c-0.357-0.385-0.807-0.577-1.349-0.577
				c-0.802,0-1.388,0.312-1.755,0.935c-0.368,0.622-0.552,1.376-0.552,2.262v0.349c0,0.902,0.181,1.663,0.543,2.283
				C127.285,300.129,127.873,300.439,128.687,300.439z"/>
		</g>
		<g>
			<path fill="#555658" d="M134.934,290.262h-1.635v-1.668h1.635V290.262z M134.934,301.543h-1.635v-8.981h1.635V301.543z"/>
		</g>
		<g>
			<path fill="#555658" d="M144.252,297.393c0,1.295-0.31,2.34-0.93,3.134s-1.475,1.19-2.565,1.19c-0.553,0-1.039-0.092-1.457-0.277
				c-0.417-0.186-0.773-0.464-1.066-0.834v4.391h-1.635v-12.435h1.253l0.257,1.162c0.293-0.432,0.659-0.761,1.096-0.987
				c0.437-0.228,0.946-0.341,1.527-0.341c1.112,0,1.977,0.441,2.594,1.324c0.617,0.883,0.925,2.049,0.925,3.499V297.393z
				 M142.617,297.219c0-1.019-0.201-1.855-0.602-2.512c-0.401-0.655-0.992-0.983-1.772-0.983c-0.47,0-0.872,0.106-1.204,0.319
				s-0.601,0.505-0.805,0.876v4.341c0.205,0.371,0.473,0.66,0.805,0.868c0.332,0.207,0.739,0.312,1.22,0.312
				c0.775,0,1.361-0.284,1.76-0.852s0.598-1.299,0.598-2.195V297.219z"/>
		</g>
		<g>
			<path fill="#555658" d="M147.179,290.262h-1.635v-1.668h1.635V290.262z M147.179,301.543h-1.635v-8.981h1.635V301.543z"/>
		</g>
		<g>
			<path fill="#555658" d="M152.563,301.717c-1.29,0-2.295-0.412-3.017-1.236c-0.723-0.824-1.083-1.909-1.083-3.254v-0.365
				c0-1.289,0.372-2.356,1.117-3.2c0.744-0.844,1.653-1.266,2.727-1.266c1.201,0,2.102,0.374,2.702,1.12
				c0.6,0.748,0.9,1.741,0.9,2.98v0.863h-5.744l-0.025,0.041c0,0.902,0.199,1.635,0.598,2.196s1.007,0.843,1.826,0.843
				c0.553,0,1.039-0.079,1.457-0.237c0.418-0.157,0.776-0.375,1.075-0.651l0.639,1.063c-0.321,0.31-0.744,0.571-1.27,0.784
				S153.305,301.717,152.563,301.717z M152.306,293.682c-0.57,0-1.042,0.221-1.415,0.66c-0.374,0.44-0.602,1.003-0.685,1.689
				l0.017,0.041h4.051v-0.133c0-0.652-0.161-1.192-0.481-1.618S152.975,293.682,152.306,293.682z"/>
		</g>
		<g>
			<path fill="#555658" d="M158.354,292.562l0.116,1.337c0.299-0.477,0.674-0.846,1.125-1.108c0.451-0.263,0.964-0.395,1.54-0.395
				c0.968,0,1.718,0.283,2.25,0.851s0.797,1.443,0.797,2.627v5.67h-1.635v-5.637c0-0.791-0.156-1.353-0.469-1.685
				c-0.313-0.332-0.79-0.498-1.432-0.498c-0.503,0-0.931,0.101-1.283,0.303c-0.351,0.202-0.629,0.485-0.834,0.851v6.666h-1.635
				v-8.981H158.354z"/>
		</g>
		<g>
			<path fill="#555658" d="M167.979,290.395v2.167h1.702v1.212h-1.702v5.453c0,0.421,0.087,0.717,0.261,0.889
				c0.175,0.172,0.406,0.258,0.693,0.258c0.094,0,0.199-0.013,0.315-0.038c0.116-0.024,0.213-0.051,0.291-0.079l0.224,1.121
				c-0.122,0.1-0.302,0.182-0.54,0.245s-0.473,0.095-0.706,0.095c-0.664,0-1.192-0.2-1.585-0.602s-0.589-1.03-0.589-1.889v-5.453
				h-1.428v-1.212h1.428v-2.167H167.979z"/>
		</g>
		<g>
			<path fill="#555658" d="M175.804,299.127c0-0.359-0.137-0.652-0.411-0.879c-0.273-0.228-0.792-0.427-1.556-0.598
				c-1.057-0.228-1.869-0.546-2.436-0.955c-0.567-0.409-0.851-0.957-0.851-1.644c0-0.73,0.311-1.355,0.934-1.876
				c0.622-0.521,1.429-0.78,2.419-0.78c1.018,0,1.843,0.276,2.474,0.83s0.933,1.198,0.905,1.935l-0.017,0.049h-1.561
				c0-0.387-0.17-0.738-0.511-1.054c-0.34-0.315-0.771-0.474-1.291-0.474c-0.576,0-1.006,0.131-1.291,0.391
				c-0.285,0.26-0.428,0.57-0.428,0.93c0,0.354,0.123,0.628,0.369,0.822c0.247,0.193,0.754,0.37,1.523,0.531
				c1.101,0.232,1.937,0.562,2.507,0.987s0.855,0.982,0.855,1.669c0,0.797-0.322,1.446-0.967,1.95
				c-0.645,0.504-1.487,0.755-2.527,0.755c-1.146,0-2.047-0.29-2.706-0.871s-0.971-1.259-0.938-2.033l0.017-0.051h1.561
				c0.028,0.582,0.244,1.006,0.647,1.274s0.877,0.403,1.419,0.403c0.581,0,1.036-0.124,1.365-0.37
				C175.639,299.823,175.804,299.51,175.804,299.127z"/>
		</g>
		<g>
			<path fill="#555658" d="M181.616,296.969c0-1.328,0.36-2.422,1.079-3.282s1.696-1.291,2.93-1.291
				c1.245,0,2.229,0.429,2.951,1.286c0.722,0.858,1.083,1.954,1.083,3.287v0.184c0,1.339-0.36,2.435-1.079,3.287
				c-0.719,0.852-1.699,1.277-2.938,1.277s-2.221-0.427-2.942-1.282c-0.723-0.854-1.083-1.949-1.083-3.282V296.969z
				 M183.251,297.152c0,0.951,0.201,1.737,0.602,2.357c0.401,0.619,0.998,0.93,1.789,0.93c0.78,0,1.373-0.311,1.776-0.93
				c0.404-0.62,0.606-1.406,0.606-2.357v-0.184c0-0.94-0.204-1.724-0.61-2.349c-0.407-0.625-1.003-0.938-1.789-0.938
				c-0.78,0-1.371,0.313-1.772,0.938c-0.401,0.625-0.602,1.408-0.602,2.349V297.152z"/>
		</g>
		<g>
			<path fill="#555658" d="M191.49,301.543v-7.77h-1.403v-1.212h1.403v-1.138c0-0.957,0.25-1.697,0.751-2.22
				c0.5-0.523,1.199-0.784,2.096-0.784c0.188,0,0.378,0.015,0.568,0.045c0.191,0.03,0.403,0.073,0.635,0.129l-0.199,1.245
				c-0.1-0.022-0.22-0.042-0.361-0.058c-0.142-0.018-0.29-0.025-0.444-0.025c-0.476,0-0.83,0.143-1.063,0.428
				s-0.349,0.698-0.349,1.24v1.138h1.627v1.212h-1.627v7.77H191.49z"/>
		</g>
		<g>
			<path fill="#555658" d="M200.698,301.543h-1.635v-12.949h1.635V301.543z"/>
		</g>
		<g>
			<path fill="#555658" d="M206.082,301.717c-1.29,0-2.295-0.412-3.017-1.236c-0.723-0.824-1.083-1.909-1.083-3.254v-0.365
				c0-1.289,0.372-2.356,1.117-3.2c0.744-0.844,1.653-1.266,2.727-1.266c1.201,0,2.102,0.374,2.702,1.12
				c0.6,0.748,0.9,1.741,0.9,2.98v0.863h-5.744l-0.025,0.041c0,0.902,0.199,1.635,0.598,2.196s1.007,0.843,1.826,0.843
				c0.553,0,1.039-0.079,1.457-0.237c0.418-0.157,0.776-0.375,1.075-0.651l0.639,1.063c-0.321,0.31-0.744,0.571-1.27,0.784
				S206.823,301.717,206.082,301.717z M205.824,293.682c-0.57,0-1.042,0.221-1.415,0.66c-0.374,0.44-0.602,1.003-0.685,1.689
				l0.017,0.041h4.051v-0.133c0-0.652-0.161-1.192-0.481-1.618S206.494,293.682,205.824,293.682z"/>
		</g>
		<g>
			<path fill="#555658" d="M210.121,297.219c0-1.445,0.309-2.609,0.926-3.495c0.617-0.886,1.479-1.328,2.585-1.328
				c0.57,0,1.071,0.115,1.502,0.345s0.794,0.561,1.087,0.992l0.199-1.171h1.303v9.031c0,1.151-0.335,2.035-1.004,2.652
				s-1.635,0.925-2.897,0.925c-0.432,0-0.898-0.059-1.398-0.178c-0.501-0.119-0.942-0.281-1.324-0.486l0.249-1.27
				c0.315,0.166,0.696,0.3,1.142,0.402c0.445,0.103,0.884,0.154,1.315,0.154c0.797,0,1.376-0.182,1.739-0.544
				c0.362-0.362,0.543-0.915,0.543-1.656v-1.021c-0.293,0.376-0.645,0.661-1.054,0.854s-0.883,0.29-1.419,0.29
				c-1.096,0-1.952-0.396-2.569-1.19c-0.617-0.794-0.926-1.839-0.926-3.134V297.219z M211.756,297.393
				c0,0.902,0.186,1.627,0.556,2.175s0.943,0.821,1.718,0.821c0.493,0,0.905-0.111,1.237-0.336c0.332-0.224,0.606-0.541,0.822-0.95
				v-4.134c-0.21-0.382-0.484-0.685-0.822-0.909c-0.337-0.224-0.744-0.336-1.22-0.336c-0.78,0-1.357,0.323-1.731,0.972
				c-0.373,0.646-0.56,1.488-0.56,2.523V297.393z"/>
		</g>
		<g>
			<path fill="#555658" d="M224.743,301.543c-0.055-0.271-0.098-0.511-0.129-0.718c-0.03-0.208-0.048-0.417-0.054-0.627
				c-0.304,0.432-0.701,0.793-1.191,1.083c-0.489,0.291-1.017,0.436-1.581,0.436c-0.935,0-1.647-0.239-2.138-0.718
				c-0.489-0.479-0.734-1.139-0.734-1.979c0-0.857,0.347-1.528,1.042-2.013c0.694-0.484,1.636-0.727,2.826-0.727h1.776v-0.888
				c0-0.526-0.161-0.942-0.481-1.25c-0.321-0.307-0.775-0.461-1.361-0.461c-0.531,0-0.96,0.133-1.287,0.398s-0.49,0.584-0.49,0.955
				l-1.552,0.017l-0.017-0.05c-0.039-0.653,0.267-1.251,0.917-1.793c0.65-0.542,1.49-0.813,2.519-0.813
				c1.018,0,1.837,0.259,2.457,0.776s0.93,1.263,0.93,2.236v4.325c0,0.321,0.017,0.631,0.05,0.93s0.094,0.592,0.183,0.88H224.743z
				 M222.029,300.348c0.592,0,1.126-0.152,1.602-0.457c0.476-0.304,0.786-0.652,0.93-1.045v-1.461h-1.834
				c-0.659,0-1.186,0.166-1.582,0.498c-0.396,0.332-0.593,0.722-0.593,1.17c0,0.398,0.125,0.714,0.374,0.946
				S221.542,300.348,222.029,300.348z"/>
		</g>
		<g>
			<path fill="#555658" d="M229.488,301.543h-1.635v-12.949h1.635V301.543z"/>
		</g>
		<g>
			<path fill="#555658" d="M240.048,301.543c-0.055-0.271-0.098-0.511-0.129-0.718c-0.03-0.208-0.048-0.417-0.054-0.627
				c-0.304,0.432-0.701,0.793-1.191,1.083c-0.489,0.291-1.017,0.436-1.581,0.436c-0.935,0-1.647-0.239-2.138-0.718
				c-0.489-0.479-0.734-1.139-0.734-1.979c0-0.857,0.347-1.528,1.042-2.013c0.694-0.484,1.636-0.727,2.826-0.727h1.776v-0.888
				c0-0.526-0.161-0.942-0.481-1.25c-0.321-0.307-0.775-0.461-1.361-0.461c-0.531,0-0.96,0.133-1.287,0.398s-0.49,0.584-0.49,0.955
				l-1.552,0.017l-0.017-0.05c-0.039-0.653,0.267-1.251,0.917-1.793c0.65-0.542,1.49-0.813,2.519-0.813
				c1.018,0,1.837,0.259,2.457,0.776s0.93,1.263,0.93,2.236v4.325c0,0.321,0.017,0.631,0.05,0.93s0.094,0.592,0.183,0.88H240.048z
				 M237.334,300.348c0.592,0,1.126-0.152,1.602-0.457c0.476-0.304,0.786-0.652,0.93-1.045v-1.461h-1.834
				c-0.659,0-1.186,0.166-1.582,0.498c-0.396,0.332-0.593,0.722-0.593,1.17c0,0.398,0.125,0.714,0.374,0.946
				S236.847,300.348,237.334,300.348z"/>
		</g>
		<g>
			<path fill="#555658" d="M244.793,290.262h-1.635v-1.668h1.635V290.262z M244.793,301.543h-1.635v-8.981h1.635V301.543z"/>
		</g>
		<g>
			<path fill="#555658" d="M246.084,297.219c0-1.445,0.309-2.609,0.926-3.495c0.617-0.886,1.481-1.328,2.594-1.328
				c0.526,0,0.992,0.097,1.398,0.29c0.407,0.194,0.754,0.477,1.042,0.848v-4.939h1.635v12.949h-1.253l-0.249-1.137
				c-0.293,0.432-0.656,0.758-1.087,0.979c-0.432,0.222-0.933,0.332-1.502,0.332c-1.096,0-1.954-0.396-2.573-1.19
				s-0.93-1.839-0.93-3.134V297.219z M247.72,297.393c0,0.907,0.186,1.634,0.556,2.179s0.946,0.817,1.727,0.817
				c0.487,0,0.896-0.11,1.229-0.332c0.332-0.221,0.603-0.531,0.813-0.93v-4.191c-0.21-0.371-0.483-0.665-0.817-0.884
				c-0.335-0.219-0.738-0.328-1.208-0.328c-0.786,0-1.365,0.323-1.739,0.972c-0.373,0.646-0.56,1.488-0.56,2.523V297.393z"/>
		</g>
	</g>
	<g>
		<g>
			<g>
				<path fill="#0074A8" d="M40.446,253.298v-12.056h3.933c1.258,0,2.244,0.272,2.956,0.815c0.712,0.544,1.068,1.359,1.068,2.447
					c0,0.519-0.16,0.984-0.48,1.396c-0.32,0.411-0.745,0.725-1.275,0.94c0.789,0.11,1.414,0.453,1.875,1.026
					c0.461,0.574,0.691,1.25,0.691,2.029c0,1.104-0.358,1.947-1.076,2.53s-1.689,0.874-2.915,0.874H40.446z M42.077,246.367h2.642
					c0.607,0,1.102-0.167,1.482-0.501s0.571-0.799,0.571-1.396c0-0.651-0.206-1.138-0.617-1.461
					c-0.411-0.323-1.003-0.484-1.776-0.484h-2.302V246.367z M42.077,247.643v4.38h3.146c0.746,0,1.324-0.183,1.735-0.55
					c0.412-0.367,0.617-0.887,0.617-1.561c0-0.668-0.21-1.206-0.629-1.615c-0.42-0.408-0.985-0.626-1.697-0.654h-0.108H42.077z"/>
			</g>
			<g>
				<path fill="#0074A8" d="M57.471,247.708H52.52v4.314h5.796v1.275h-7.427v-12.056h7.336v1.283H52.52v3.9h4.951V247.708z"/>
			</g>
			<g>
				<path fill="#0074A8" d="M68.335,242.525H64.36v10.773h-1.631v-10.773h-3.925v-1.283h9.53V242.525z"/>
			</g>
			<g>
				<path fill="#0074A8" d="M72.252,249.116l0.207,1.582l0.05,0.008l0.281-1.59l2.137-7.875h1.598l2.153,7.875l0.281,1.615h0.05
					l0.224-1.615l1.722-7.875h1.772l-2.915,12.056h-1.458l-2.409-8.363l-0.183-1.084h-0.049l-0.174,1.084l-2.443,8.363h-1.458
					l-2.906-12.056h1.764L72.252,249.116z"/>
			</g>
			<g>
				<path fill="#0074A8" d="M90.676,247.708h-4.952v4.314h5.796v1.275h-7.427v-12.056h7.336v1.283h-5.705v3.9h4.952V247.708z"/>
			</g>
			<g>
				<path fill="#0074A8" d="M99.694,247.708h-4.952v4.314h5.796v1.275h-7.427v-12.056h7.336v1.283h-5.705v3.9h4.952V247.708z"/>
			</g>
			<g>
				<path fill="#0074A8" d="M111.246,253.298h-1.631l-5.805-9.208l-0.05,0.017v9.191h-1.631v-12.056h1.631l5.805,9.199l0.05-0.017
					v-9.183h1.631V253.298z"/>
			</g>
			<g>
				<path fill="#0074A8" d="M124.925,253.298h-7.485v-1.118l3.784-4.513c0.673-0.817,1.13-1.467,1.371-1.95
					c0.24-0.483,0.36-0.97,0.36-1.461c0-0.558-0.163-1.015-0.488-1.371s-0.776-0.534-1.35-0.534c-0.712,0-1.254,0.218-1.627,0.654
					s-0.559,0.98-0.559,1.631h-1.573l-0.017-0.05c-0.028-0.982,0.301-1.815,0.985-2.497c0.684-0.682,1.614-1.022,2.79-1.022
					c1.077,0,1.924,0.298,2.542,0.894c0.618,0.596,0.927,1.366,0.927,2.31c0,0.635-0.175,1.256-0.526,1.863
					c-0.351,0.607-0.885,1.369-1.602,2.286l-3.039,3.561l0.017,0.041h5.49V253.298z"/>
			</g>
			<g>
				<path fill="#0074A8" d="M134.018,249.042c0,1.364-0.347,2.443-1.039,3.238c-0.693,0.795-1.625,1.192-2.795,1.192
					c-1.165,0-2.096-0.397-2.794-1.192s-1.047-1.874-1.047-3.238v-3.544c0-1.352,0.346-2.429,1.039-3.229
					c0.693-0.801,1.622-1.201,2.786-1.201c1.17,0,2.104,0.4,2.803,1.201c0.698,0.8,1.047,1.877,1.047,3.229V249.042z
					 M132.386,245.158c0-0.867-0.193-1.551-0.58-2.054c-0.386-0.502-0.933-0.753-1.64-0.753c-0.701,0-1.242,0.251-1.623,0.753
					c-0.381,0.502-0.572,1.187-0.572,2.054v4.215c0,0.867,0.195,1.554,0.584,2.062c0.389,0.508,0.932,0.762,1.627,0.762
					c0.707,0,1.25-0.253,1.631-0.758c0.381-0.505,0.571-1.194,0.571-2.066V245.158z"/>
			</g>
			<g>
				<path fill="#0074A8" d="M140.493,253.298h-1.64v-10.549l-2.625,0.025v-1.259l4.265-0.447V253.298z"/>
			</g>
			<g>
				<path fill="#0074A8" d="M151.217,249.24h1.664v1.275h-1.664v2.782h-1.623v-2.782h-5.175v-0.919l5.076-8.355h1.723V249.24z
					 M146.166,249.24h3.428v-5.655l-0.05-0.008l-0.157,0.414L146.166,249.24z"/>
			</g>
			<g>
				<path fill="#0074A8" d="M164.541,250.193h-4.538l-1.077,3.105h-1.665l4.348-12.056h1.399l4.256,12.056h-1.664L164.541,250.193z
					 M160.475,248.827h3.602l-1.755-5.175h-0.05L160.475,248.827z"/>
			</g>
			<g>
				<path fill="#0074A8" d="M177.814,253.298h-1.631l-5.805-9.208l-0.049,0.017v9.191h-1.631v-12.056h1.631l5.804,9.199l0.05-0.017
					v-9.183h1.631V253.298z"/>
			</g>
			<g>
				<path fill="#0074A8" d="M180.299,253.298v-12.056h3.792c1.573,0,2.838,0.484,3.796,1.453s1.437,2.221,1.437,3.755v1.647
					c0,1.54-0.479,2.792-1.437,3.755s-2.223,1.445-3.796,1.445H180.299z M181.93,242.525v9.498h2.161
					c1.115,0,1.994-0.367,2.637-1.101c0.643-0.734,0.965-1.675,0.965-2.824v-1.664c0-1.137-0.322-2.073-0.965-2.807
					c-0.643-0.734-1.522-1.102-2.637-1.102H181.93z"/>
			</g>
			<g>
				<path fill="#0074A8" d="M204.437,253.298h-1.631l-5.805-9.208l-0.05,0.017v9.191h-1.631v-12.056h1.631l5.805,9.199l0.05-0.017
					v-9.183h1.631V253.298z"/>
			</g>
			<g>
				<path fill="#0074A8" d="M216.129,248.346c0,1.474-0.457,2.697-1.37,3.668c-0.914,0.972-2.1,1.458-3.557,1.458
					c-1.408,0-2.552-0.486-3.433-1.458c-0.88-0.971-1.32-2.194-1.32-3.668v-2.145c0-1.468,0.44-2.691,1.32-3.668
					c0.881-0.977,2.025-1.465,3.433-1.465c1.457,0,2.643,0.487,3.557,1.461c0.913,0.974,1.37,2.198,1.37,3.672V248.346z
					 M214.498,246.185c0-1.104-0.298-2.009-0.894-2.716c-0.597-0.707-1.396-1.06-2.401-1.06c-0.95,0-1.707,0.354-2.273,1.06
					s-0.849,1.612-0.849,2.716v2.161c0,1.115,0.283,2.026,0.849,2.732s1.323,1.06,2.273,1.06c1.01,0,1.812-0.352,2.405-1.056
					c0.594-0.704,0.89-1.616,0.89-2.737V246.185z"/>
			</g>
			<g>
				<path fill="#0074A8" d="M221.619,250.135l0.273,1.002h0.05l0.273-1.002l3.114-8.893h1.764l-4.48,12.056h-1.399l-4.48-12.056
					h1.772L221.619,250.135z"/>
			</g>
			<g>
				<path fill="#0074A8" d="M234.926,247.708h-4.951v4.314h5.796v1.275h-7.427v-12.056h7.336v1.283h-5.705v3.9h4.951V247.708z"/>
			</g>
			<g>
				<path fill="#0074A8" d="M243.339,251.037h0.049l3.851-9.795h2.029v12.056h-1.631v-9.034l-0.05-0.008l-3.651,9.042h-1.135
					l-3.759-9.34l-0.05,0.008v9.332h-1.631v-12.056h2.145L243.339,251.037z"/>
			</g>
			<g>
				<path fill="#0074A8" d="M251.753,253.298v-12.056h3.933c1.259,0,2.244,0.272,2.956,0.815c0.712,0.544,1.068,1.359,1.068,2.447
					c0,0.519-0.16,0.984-0.48,1.396c-0.32,0.411-0.745,0.725-1.275,0.94c0.79,0.11,1.415,0.453,1.875,1.026
					c0.461,0.574,0.691,1.25,0.691,2.029c0,1.104-0.359,1.947-1.076,2.53c-0.718,0.583-1.689,0.874-2.915,0.874H251.753z
					 M253.384,246.367h2.642c0.607,0,1.102-0.167,1.482-0.501s0.571-0.799,0.571-1.396c0-0.651-0.206-1.138-0.617-1.461
					c-0.411-0.323-1.003-0.484-1.776-0.484h-2.302V246.367z M253.384,247.643v4.38h3.146c0.745,0,1.323-0.183,1.735-0.55
					c0.411-0.367,0.617-0.887,0.617-1.561c0-0.668-0.21-1.206-0.629-1.615c-0.42-0.408-0.985-0.626-1.698-0.654h-0.108H253.384z"/>
			</g>
			<g>
				<path fill="#0074A8" d="M268.777,247.708h-4.952v4.314h5.796v1.275h-7.428v-12.056h7.337v1.283h-5.706v3.9h4.952V247.708z"/>
			</g>
			<g>
				<path fill="#0074A8" d="M272.843,248.073v5.225h-1.631V241.25h4.124c1.319,0,2.327,0.292,3.022,0.877
					c0.695,0.585,1.043,1.436,1.043,2.55c0,0.619-0.161,1.157-0.484,1.615c-0.323,0.458-0.794,0.823-1.412,1.093
					c0.663,0.215,1.139,0.564,1.429,1.047s0.435,1.081,0.435,1.792v1.135c0,0.375,0.042,0.712,0.124,1.01
					c0.083,0.298,0.227,0.541,0.431,0.729v0.199h-1.681c-0.215-0.188-0.354-0.464-0.414-0.828s-0.091-0.74-0.091-1.126v-1.102
					c0-0.651-0.19-1.176-0.571-1.573s-0.892-0.596-1.532-0.596H272.843z M272.843,246.79h2.327c0.922,0,1.586-0.175,1.992-0.526
					s0.609-0.885,0.609-1.602c0-0.679-0.198-1.205-0.592-1.578c-0.395-0.373-1.009-0.559-1.842-0.559h-2.493V246.79z"/>
			</g>
			<g>
				<path fill="#0074A8" d="M292.858,253.298h-7.486v-1.118l3.784-4.513c0.674-0.817,1.131-1.467,1.371-1.95
					c0.24-0.483,0.36-0.97,0.36-1.461c0-0.558-0.163-1.015-0.489-1.371c-0.326-0.356-0.775-0.534-1.35-0.534
					c-0.712,0-1.254,0.218-1.627,0.654s-0.559,0.98-0.559,1.631h-1.573l-0.017-0.05c-0.028-0.982,0.301-1.815,0.986-2.497
					c0.684-0.682,1.614-1.022,2.79-1.022c1.077,0,1.924,0.298,2.542,0.894s0.928,1.366,0.928,2.31c0,0.635-0.176,1.256-0.526,1.863
					c-0.351,0.607-0.885,1.369-1.602,2.286l-3.039,3.561l0.017,0.041h5.49V253.298z"/>
			</g>
			<g>
				<path fill="#0074A8" d="M301.95,249.042c0,1.364-0.347,2.443-1.039,3.238c-0.693,0.795-1.625,1.192-2.795,1.192
					c-1.165,0-2.097-0.397-2.795-1.192s-1.047-1.874-1.047-3.238v-3.544c0-1.352,0.346-2.429,1.039-3.229
					c0.692-0.801,1.621-1.201,2.786-1.201c1.17,0,2.104,0.4,2.803,1.201c0.698,0.8,1.048,1.877,1.048,3.229V249.042z
					 M300.319,245.158c0-0.867-0.193-1.551-0.58-2.054c-0.387-0.502-0.933-0.753-1.64-0.753c-0.701,0-1.242,0.251-1.623,0.753
					c-0.381,0.502-0.571,1.187-0.571,2.054v4.215c0,0.867,0.194,1.554,0.584,2.062c0.389,0.508,0.932,0.762,1.627,0.762
					c0.707,0,1.25-0.253,1.631-0.758c0.381-0.505,0.572-1.194,0.572-2.066V245.158z"/>
			</g>
			<g>
				<path fill="#0074A8" d="M308.426,253.298h-1.64v-10.549l-2.625,0.025v-1.259l4.265-0.447V253.298z"/>
			</g>
			<g>
				<path fill="#0074A8" d="M317.063,241.068c0.475,0,0.944,0.047,1.407,0.141c0.464,0.094,0.848,0.212,1.151,0.356l-0.348,1.25
					c-0.315-0.138-0.646-0.25-0.994-0.335c-0.348-0.085-0.753-0.128-1.217-0.128c-0.757,0-1.371,0.323-1.843,0.969
					c-0.472,0.646-0.708,1.463-0.708,2.451v0.936c0.337-0.336,0.736-0.602,1.197-0.795c0.461-0.193,0.957-0.29,1.486-0.29
					c1.038,0,1.859,0.348,2.463,1.043c0.604,0.696,0.907,1.609,0.907,2.741c0,1.236-0.338,2.223-1.014,2.96
					c-0.677,0.737-1.589,1.105-2.737,1.105c-1.115,0-2.048-0.423-2.799-1.271c-0.75-0.847-1.126-2.005-1.126-3.474v-2.774
					c0-1.413,0.402-2.581,1.205-3.502C314.897,241.529,315.887,241.068,317.063,241.068z M316.673,246.839
					c-0.513,0-0.953,0.109-1.32,0.327c-0.367,0.218-0.647,0.512-0.841,0.882v0.836c0,1.021,0.223,1.829,0.667,2.422
					c0.444,0.593,0.989,0.89,1.635,0.89c0.679,0,1.202-0.258,1.569-0.774s0.551-1.188,0.551-2.016c0-0.784-0.197-1.408-0.592-1.872
					S317.391,246.839,316.673,246.839z"/>
			</g>
		</g>
		<g>
			<g>
				<path fill="#0074A8" d="M113.752,190.917h3.639c1.381,0,2.394-0.485,3.041-1.455c0.646-0.97,0.969-2.265,0.969-3.884
					c0-1.548-0.332-2.754-0.996-3.618c-0.664-0.863-1.554-1.294-2.669-1.294c-1.045,0-1.899,0.413-2.563,1.237
					c-0.664,0.825-0.996,1.864-0.996,3.119h-7.516c0-2.019,0.465-3.829,1.395-5.431c0.929-1.602,2.23-2.855,3.904-3.758
					s3.528-1.354,5.564-1.354c3.559,0,6.347,0.982,8.365,2.948c2.019,1.965,3.028,4.657,3.028,8.074
					c0,1.753-0.456,3.377-1.368,4.874c-0.912,1.496-2.111,2.642-3.599,3.439c1.823,0.779,3.183,1.948,4.077,3.506
					s1.341,3.399,1.341,5.524c0,3.435-1.094,6.188-3.28,8.259c-2.187,2.072-5.059,3.107-8.618,3.107
					c-3.311,0-5.998-1.022-8.061-3.067s-3.094-4.731-3.094-8.061h7.516c0,1.396,0.363,2.568,1.089,3.517
					c0.726,0.948,1.647,1.423,2.762,1.423c1.292,0,2.314-0.48,3.067-1.441c0.752-0.96,1.129-2.242,1.129-3.843
					c0-3.825-1.479-5.747-4.436-5.764h-3.691V190.917z"/>
			</g>
			<g>
				<path fill="#0074A8" d="M157.253,179.301l-12.216,34.376h-7.941l12.27-32.48h-15.51v-6.188h23.397V179.301z"/>
			</g>
			<g>
				<path fill="#0074A8" d="M164.53,223.423l-4.01-2.098l1.009-1.885c1.133-2.089,1.717-4.196,1.753-6.321v-5.976h6.533
					l-0.026,5.338c-0.018,1.876-0.496,3.825-1.435,5.843C167.416,220.343,166.141,222.042,164.53,223.423z"/>
			</g>
			<g>
				<path fill="#0074A8" d="M193.372,174.61v6.374h-0.425c-2.815,0.018-5.051,0.863-6.706,2.536
					c-1.656,1.673-2.66,4.015-3.014,7.024c1.611-1.841,3.629-2.762,6.055-2.762c2.797,0,5.033,1.195,6.706,3.585
					c1.673,2.39,2.509,5.577,2.509,9.561c0,2.532-0.478,4.816-1.434,6.852c-0.956,2.037-2.297,3.617-4.023,4.741
					c-1.726,1.125-3.678,1.687-5.856,1.687c-3.505,0-6.316-1.408-8.432-4.223c-2.116-2.815-3.174-6.604-3.174-11.367v-2.789
					c0-4.267,0.668-8.003,2.005-11.208c1.336-3.204,3.267-5.67,5.79-7.396c2.523-1.726,5.466-2.598,8.831-2.616H193.372z
					 M186.918,193.971c-0.956,0-1.757,0.303-2.403,0.909c-0.646,0.605-1.129,1.353-1.448,2.243v2.724
					c0,2.743,0.363,4.791,1.089,6.144c0.726,1.354,1.682,2.03,2.869,2.03c1.204,0,2.168-0.654,2.895-1.963
					c0.726-1.309,1.089-2.987,1.089-5.035c0-2.083-0.376-3.779-1.128-5.088C189.127,194.625,188.14,193.971,186.918,193.971z"/>
			</g>
			<g>
				<path fill="#0074A8" d="M224.631,185.272c0,1.875-0.398,3.536-1.195,4.986c-0.797,1.45-1.895,2.608-3.293,3.475
					c1.593,0.904,2.85,2.149,3.771,3.736c0.92,1.586,1.381,3.452,1.381,5.597c0,3.439-0.992,6.156-2.974,8.15
					c-1.983,1.995-4.684,2.992-8.101,2.992s-6.135-0.997-8.153-2.992c-2.019-1.994-3.028-4.711-3.028-8.15
					c0-2.145,0.46-4.015,1.381-5.61c0.921-1.595,2.187-2.836,3.798-3.723c-1.417-0.867-2.523-2.025-3.319-3.475
					c-0.797-1.45-1.195-3.112-1.195-4.986c0-3.377,0.947-6.021,2.842-7.93c1.894-1.91,4.435-2.864,7.622-2.864
					c3.222,0,5.771,0.964,7.648,2.891C223.692,179.296,224.631,181.93,224.631,185.272z M214.22,208.02
					c1.133,0,2.005-0.487,2.616-1.461c0.611-0.975,0.916-2.329,0.916-4.063s-0.318-3.092-0.956-4.076
					c-0.637-0.983-1.514-1.475-2.629-1.475c-1.116,0-1.997,0.492-2.643,1.475c-0.646,0.984-0.969,2.342-0.969,4.076
					s0.323,3.088,0.969,4.063C212.17,207.533,213.069,208.02,214.22,208.02z M217.142,185.658c0-1.512-0.244-2.722-0.73-3.63
					c-0.487-0.908-1.235-1.362-2.244-1.362c-0.956,0-1.683,0.44-2.178,1.322c-0.496,0.881-0.744,2.104-0.744,3.67
					c0,1.531,0.248,2.764,0.744,3.698c0.495,0.935,1.239,1.402,2.23,1.402c0.992,0,1.727-0.467,2.205-1.402
					C216.902,188.421,217.142,187.189,217.142,185.658z"/>
			</g>
			<g>
				<path fill="#0074A8" d="M253.26,213.677h-22.787v-5.266l10.464-13.351c1.328-1.848,2.306-3.469,2.935-4.864
					c0.628-1.396,0.943-2.732,0.943-4.012c0-1.724-0.297-3.074-0.89-4.052c-0.593-0.977-1.447-1.466-2.563-1.466
					c-1.222,0-2.191,0.571-2.908,1.714c-0.717,1.142-1.076,2.749-1.076,4.819h-7.542c0-2.373,0.491-4.542,1.474-6.507
					c0.982-1.965,2.363-3.492,4.143-4.581c1.78-1.089,3.793-1.633,6.042-1.633c3.453,0,6.13,0.952,8.034,2.855
					c1.903,1.903,2.855,4.608,2.855,8.113c0,2.178-0.527,4.387-1.58,6.626c-1.054,2.24-2.961,5.004-5.723,8.294l-4.966,7.123h13.146
					V213.677z"/>
			</g>
		</g>
		<g opacity="0.6">
			<g>
				<rect x="109.629" y="227.195" fill="#799DC4" width="140.743" height="3"/>
			</g>
		</g>
	</g>
</g>
</svg>
