<?xml version="1.0" encoding="utf-8"?>
<!-- Generator: Adobe Illustrator 16.0.0, SVG Export Plug-In . SVG Version: 6.00 Build 0)  -->
<!DOCTYPE svg PUBLIC "-//W3C//DTD SVG 1.1//EN" "http://www.w3.org/Graphics/SVG/1.1/DTD/svg11.dtd">
<svg version="1.1" id="Layer_1" xmlns="http://www.w3.org/2000/svg" xmlns:xlink="http://www.w3.org/1999/xlink" x="0px" y="0px"
	 width="360px" height="190px" viewBox="0 0 360 190" enable-background="new 0 0 360 190" xml:space="preserve">
<g>
	<rect fill="#FFF1E5" width="360" height="190"/>
</g>
<g>
	<g id="bullet-1">
		<path fill="#FCD0A6" d="M119.992,72.8h-18.904c1.01-15.812,5.719-26.614,5.938-27.119l3.515-7.933l3.516,7.933
			C114.283,46.186,118.996,56.988,119.992,72.8z M99.496,80.493v7.692h1.83h19.791h0.477v-7.692H99.496z M122.791,95.881H99.664
			H97.24v61.706h26.609V95.881H122.791z"/>
	</g>
    <g id="bullet-2">
        <path fill="#FCD0A6" d="M154.297,72.8h-18.902c0.998-15.812,5.709-26.614,5.937-27.119l3.516-7.933l3.514,7.933
			C148.588,46.186,153.301,56.988,154.297,72.8z M133.795,80.493v7.692h3.43h18.678v-7.692H133.795z M135.549,95.881h-4.004v61.706
			h26.602V95.881H135.549z" />
	</g>
	<g id="bullet-3">
		<path fill="#FCD0A6" d="M188.596,72.8h-18.906c0.998-15.812,5.707-26.614,5.938-27.119l3.516-7.933l3.512,7.933
			C182.885,46.186,187.596,56.988,188.596,72.8z M168.088,80.493v7.692h5.023h17.084v-7.692H168.088z M171.438,95.881h-5.596v61.706
			h26.6V95.881H171.438z"/>
	</g>
	<g id="bullet-4">
		<path fill="#FCD0A6" d="M222.889,72.8h-18.904c0.996-15.812,5.709-26.614,5.938-27.119l3.516-7.933l3.516,7.933
			C217.18,46.186,221.893,56.988,222.889,72.8z M202.383,80.493v7.692h6.613h15.484v-7.692H202.383z M207.322,95.881h-7.186v61.706
			h26.602V95.881H207.322z"/>
	</g>
	<g id="bullet-5">
		<path fill="#FCD0A6" d="M258.91,72.8h-18.904c0.996-15.812,5.709-26.614,5.938-27.119l3.516-7.933l3.514,7.933
			C253.191,46.186,257.902,56.988,258.91,72.8z M238.404,80.493v7.692h6.613h15.484v-7.692H238.404z M243.344,95.881h-7.186v61.706
			h26.602V95.881H243.344z"/>
	</g>
</g>
</svg>
