<?xml version="1.0" encoding="utf-8"?>
<!-- Generator: Adobe Illustrator 16.0.0, SVG Export Plug-In . SVG Version: 6.00 Build 0)  -->
<!DOCTYPE svg PUBLIC "-//W3C//DTD SVG 1.1//EN" "http://www.w3.org/Graphics/SVG/1.1/DTD/svg11.dtd">
<svg version="1.1" id="Layer_1" xmlns="http://www.w3.org/2000/svg" xmlns:xlink="http://www.w3.org/1999/xlink" x="0px" y="0px"
	 width="360px" height="190px" viewBox="0 0 360 190" enable-background="new 0 0 360 190" xml:space="preserve">
<g>
	<rect fill="#EAEBEC" width="360" height="190"/>
</g>
<g>
    <g id="hammer">
        <g>
            <path fill="#808184" d="M160.937,38.238l33.886,20.999c0.942,0.573,2.14,0.233,2.675-0.774l0.98-1.812
	        c0.536-0.999,0.23-2.288-0.712-2.872l-33.898-20.997c-0.929-0.58-2.128-0.237-2.675,0.765l-0.968,1.817
	        C159.676,36.374,160.007,37.657,160.937,38.238" />
        </g>
        <g>
            <path fill="#808184" d="M131.587,92.799l33.885,21.003c0.942,0.569,2.141,0.226,2.676-0.77l0.981-1.814
	        c0.548-1.002,0.216-2.294-0.715-2.871L134.53,87.35c-0.942-0.584-2.14-0.234-2.676,0.764l-0.979,1.821
	        C130.325,90.934,130.645,92.211,131.587,92.799" />
        </g>
        <g>
            <path fill="#808184" d="M251.102,118.458l-67.836-37.731l9.124-16.95c0.548-1,0.201-2.287-0.712-2.87l-30.511-18.897
	        c-0.932-0.58-2.14-0.233-2.675,0.773L136.963,82.79c-0.521,0.997-0.217,2.288,0.725,2.863l30.498,18.906
	        c0.943,0.581,2.14,0.234,2.675-0.772l9.121-16.945l64.355,44.18c0.918,0.622,2.103,0.313,2.626-0.693l4.892-9.09
	        C252.387,120.238,252.044,118.985,251.102,118.458" />
        </g>
    </g>
	<g id="base">
		<g>
			<path fill="#808184" d="M183.981,152.729h-67.973c-1.86,0-3.388-1.647-3.388-3.647v-3.647c0-2.006,1.528-3.65,3.388-3.643h67.973
				c1.86,0,3.401,1.637,3.389,3.634l0.013,3.656C187.37,151.089,185.842,152.729,183.981,152.729 M188.567,136.719h-4.089
				c0.522-0.622,0.865-1.417,0.865-2.313v-3.45c0-1.905-1.452-3.467-3.221-3.467h-64.547c-1.783,0-3.224,1.562-3.224,3.467v3.45
				c0,0.896,0.345,1.691,0.854,2.313h-4.09c-1.769,0-3.222,1.561-3.222,3.456v13.862c0,1.901,1.453,3.462,3.222,3.462h77.452
				c1.783,0,3.235-1.562,3.235-3.462v-13.862C191.803,138.28,190.351,136.719,188.567,136.719"/>
		</g>
	</g>
</g>
</svg>
