<?xml version="1.0" encoding="utf-8"?>
<!-- Generator: Adobe Illustrator 16.0.0, SVG Export Plug-In . SVG Version: 6.00 Build 0)  -->
<!DOCTYPE svg PUBLIC "-//W3C//DTD SVG 1.1//EN" "http://www.w3.org/Graphics/SVG/1.1/DTD/svg11.dtd">
<svg version="1.1" xmlns="http://www.w3.org/2000/svg" xmlns:xlink="http://www.w3.org/1999/xlink" x="0px" y="0px" width="360px"
	 height="360px" viewBox="0 0 360 360" enable-background="new 0 0 360 360" xml:space="preserve">
<g id="Layer_1">
	<g>
		<rect fill="#FEF1E1" width="360" height="360"/>
	</g>
	<g>
		<g id="lybra">
			<g>
				<g>
					<path fill="#FDD1A7" d="M200.518,36.764c1.944,0,3.526,1.58,3.526,3.524c0,1.94-1.582,3.521-3.526,3.521
						c-1.939,0-3.521-1.581-3.521-3.521C196.996,38.344,198.578,36.764,200.518,36.764 M167.868,43.684
						c0.165,1.401,1.442,2.4,2.844,2.23l23.109-2.805c0.661,1.568,1.856,2.857,3.36,3.637v34.431
						c-8.754,0.661-10.486,3.867-10.486,7.726h27.607c0-3.858-1.69-7.064-10.445-7.726V46.746c2.012-1.043,3.476-2.998,3.843-5.32
						l23.243-2.819c1.401-0.171,2.399-1.444,2.229-2.843c-0.171-1.401-1.442-2.398-2.844-2.23l-23.662,2.871
						c-1.288-2.033-3.558-3.386-6.148-3.386c-3.206,0-5.937,2.08-6.898,4.97l-23.522,2.853
						C168.695,41.012,167.697,42.285,167.868,43.684"/>
				</g>
			</g>
			<g>
				<g>
					<path fill="#FDD1A7" d="M176.55,54.559c0.373-0.507,1.128-0.507,1.5,0c1.458,1.996,4.633,6.55,5.646,9.709h-12.793
						C171.917,61.108,175.092,56.555,176.55,54.559 M177.3,75.956c5.585,0,10.114-4.527,10.114-10.112
						c0-4.426-6.35-13.557-8.987-17.162c-0.558-0.76-1.695-0.76-2.254,0c-2.638,3.605-8.987,12.736-8.987,17.162
						C167.186,71.429,171.715,75.956,177.3,75.956"/>
				</g>
			</g>
			<g>
				<g>
					<path fill="#FDD1A7" d="M217.344,57.644c1.008-3.157,4.188-7.712,5.646-9.707c0.372-0.507,1.127-0.507,1.5,0
						c1.458,1.995,4.632,6.55,5.646,9.707H217.344z M222.612,42.061c-2.637,3.602-8.986,12.734-8.986,17.16
						c0,5.586,4.529,10.111,10.114,10.111c5.584,0,10.114-4.525,10.114-10.111c0-4.426-6.35-13.559-8.987-17.16
						C224.309,41.298,223.171,41.298,222.612,42.061"/>
				</g>
			</g>
		</g>
		<g id="hand">
			<g>
				<path fill="#FDD1A7" d="M243.395,102.134c6.443,4.938-4.809,13.201-8.175,16.27c-13.119,11.958-24.36,16.553-42.133,18.257
					c-9.406,0.9-17.044-1.387-26.336-2.063c-6.66-0.483-11.102,0.764-15.125,3.226l-15.259-23.462
					c1.064-0.747,2.13-1.496,3.19-2.243c9.287-5.805,17.933-11.747,29.469-11.448c8.656,0.221,15.9,2.113,24.707,1.933
					c3.847-0.079,16.95-2.603,14.209,5.906c-1.81,5.623-18.982,6.499-23.196,7.386c11.086,2.409,27.204,1.208,39.195-5.418
					C228.611,107.896,238.896,98.686,243.395,102.134 M132.866,114.354l-18.217,12.037l19.4,30.591l16.107-10.326
					c1.428-1.002,1.8-2.954,0.854-4.412L132.866,114.354z"/>
			</g>
		</g>
	</g>
</g>
<g id="Layer_2">
	<g>
		<g>
			<path fill="#F48466" d="M86.32,328.416h-1.75v8.996h-2.693v-19.906h2.693v8.805h1.477l7.383-8.805h3.035l0.027,0.068l-8.066,9.42
				l8.641,10.35l-0.027,0.068h-3.268L86.32,328.416z"/>
			<path fill="#F48466" d="M103.287,331.929l0.479,1.859h0.082l3.637-11.17h2.994l-6.221,17.063
				c-0.374,0.993-0.909,1.859-1.606,2.598s-1.639,1.107-2.823,1.107c-0.219,0-0.497-0.025-0.834-0.075
				c-0.337-0.05-0.597-0.098-0.779-0.144l0.273-2.119c-0.055-0.009,0.107,0,0.485,0.027c0.378,0.027,0.617,0.041,0.718,0.041
				c0.574,0,1.043-0.255,1.408-0.766c0.364-0.511,0.67-1.076,0.916-1.695l0.643-1.545l-5.496-14.492h3.008L103.287,331.929z"/>
			<path fill="#F48466" d="M119.844,324.998l-1.381-0.082c-0.711,0-1.311,0.169-1.798,0.506c-0.488,0.337-0.864,0.812-1.128,1.422
				v10.568h-2.693v-14.793h2.406l0.26,2.16c0.419-0.766,0.937-1.362,1.552-1.791c0.615-0.428,1.324-0.643,2.126-0.643
				c0.2,0,0.392,0.016,0.574,0.048c0.182,0.032,0.333,0.066,0.451,0.103L119.844,324.998z"/>
			<path fill="#F48466" d="M121.908,330.289c0-2.379,0.508-4.297,1.524-5.756c1.016-1.458,2.436-2.188,4.259-2.188
				c0.938,0,1.764,0.189,2.475,0.567c0.711,0.378,1.308,0.923,1.791,1.634l0.328-1.928h2.146v14.875
				c0,1.896-0.552,3.352-1.654,4.368c-1.103,1.016-2.693,1.524-4.771,1.524c-0.711,0-1.479-0.098-2.304-0.294
				c-0.825-0.196-1.552-0.463-2.181-0.8l0.41-2.092c0.52,0.273,1.146,0.494,1.88,0.663c0.733,0.168,1.456,0.253,2.167,0.253
				c1.313,0,2.267-0.299,2.864-0.896c0.597-0.597,0.896-1.506,0.896-2.728v-1.682c-0.483,0.62-1.062,1.089-1.736,1.408
				c-0.675,0.319-1.454,0.479-2.338,0.479c-1.805,0-3.215-0.654-4.231-1.962c-1.017-1.308-1.524-3.028-1.524-5.161V330.289z
				 M124.602,330.576c0,1.486,0.305,2.68,0.916,3.582c0.61,0.902,1.554,1.354,2.83,1.354c0.811,0,1.49-0.185,2.037-0.554
				s0.998-0.891,1.354-1.565v-6.809c-0.347-0.629-0.798-1.128-1.354-1.497c-0.556-0.369-1.226-0.554-2.01-0.554
				c-1.285,0-2.235,0.533-2.851,1.6s-0.923,2.452-0.923,4.156V330.576z"/>
			<path fill="#F48466" d="M142.826,331.929l0.479,1.859h0.082l3.637-11.17h2.994l-6.221,17.063
				c-0.374,0.993-0.909,1.859-1.606,2.598s-1.639,1.107-2.823,1.107c-0.219,0-0.497-0.025-0.834-0.075
				c-0.337-0.05-0.597-0.098-0.779-0.144l0.273-2.119c-0.055-0.009,0.107,0,0.485,0.027c0.378,0.027,0.617,0.041,0.718,0.041
				c0.574,0,1.043-0.255,1.408-0.766c0.364-0.511,0.67-1.076,0.916-1.695l0.643-1.545l-5.496-14.492h3.008L142.826,331.929z"/>
			<path fill="#F48466" d="M154.926,335.306h8.545v2.105h-11.758v-1.887l7.998-10.773h-7.902v-2.133h11.197v1.832L154.926,335.306z"
				/>
			<path fill="#F48466" d="M176.486,328.785v8.627h-2.693v-19.893h6.809c2.178,0,3.842,0.483,4.99,1.449
				c1.148,0.966,1.723,2.37,1.723,4.211c0,1.021-0.267,1.91-0.8,2.666c-0.533,0.757-1.311,1.358-2.331,1.805
				c1.094,0.355,1.88,0.932,2.358,1.729c0.479,0.798,0.718,1.784,0.718,2.96v1.873c0,0.62,0.068,1.176,0.205,1.668
				s0.374,0.894,0.711,1.203v0.328H185.4c-0.355-0.31-0.583-0.766-0.684-1.367c-0.101-0.602-0.15-1.221-0.15-1.859v-1.818
				c0-1.075-0.314-1.941-0.943-2.598s-1.472-0.984-2.529-0.984H176.486z M176.486,326.666h3.842c1.522,0,2.618-0.289,3.288-0.868
				c0.67-0.579,1.005-1.46,1.005-2.646c0-1.121-0.326-1.989-0.978-2.604c-0.652-0.615-1.666-0.923-3.042-0.923h-4.115V326.666z"/>
			<path fill="#F48466" d="M197.363,337.699c-2.124,0-3.78-0.679-4.97-2.037c-1.189-1.358-1.784-3.145-1.784-5.359v-0.602
				c0-2.124,0.613-3.88,1.839-5.271c1.226-1.39,2.723-2.085,4.491-2.085c1.978,0,3.461,0.615,4.45,1.846
				c0.989,1.23,1.483,2.867,1.483,4.908v1.422h-9.461l-0.041,0.068c0,1.486,0.328,2.691,0.984,3.616
				c0.656,0.925,1.659,1.388,3.008,1.388c0.911,0,1.711-0.13,2.399-0.39c0.688-0.26,1.278-0.617,1.771-1.073l1.053,1.75
				c-0.529,0.511-1.226,0.941-2.092,1.292C199.628,337.523,198.584,337.699,197.363,337.699z M196.939,324.464
				c-0.939,0-1.716,0.362-2.331,1.087s-0.991,1.652-1.128,2.782l0.027,0.068h6.672v-0.219c0-1.075-0.265-1.964-0.793-2.666
				C198.858,324.815,198.042,324.464,196.939,324.464z"/>
			<path fill="#F48466" d="M218.5,330.576c0,2.133-0.511,3.854-1.531,5.161c-1.021,1.308-2.429,1.962-4.225,1.962
				c-0.912,0-1.711-0.153-2.399-0.458c-0.688-0.305-1.274-0.763-1.757-1.374v7.232h-2.693v-20.48h2.064l0.424,1.914
				c0.483-0.711,1.084-1.253,1.805-1.627c0.72-0.374,1.559-0.561,2.516-0.561c1.832,0,3.256,0.727,4.272,2.181
				c1.016,1.454,1.524,3.375,1.524,5.763V330.576z M215.807,330.289c0-1.677-0.331-3.056-0.991-4.136
				c-0.661-1.08-1.634-1.62-2.919-1.62c-0.775,0-1.436,0.176-1.982,0.526c-0.547,0.351-0.989,0.832-1.326,1.442v7.15
				c0.337,0.611,0.779,1.087,1.326,1.429s1.217,0.513,2.01,0.513c1.276,0,2.242-0.467,2.898-1.401
				c0.656-0.934,0.984-2.14,0.984-3.616V330.289z"/>
			<path fill="#F48466" d="M231.201,335.224c-0.465,0.793-1.062,1.404-1.791,1.832c-0.729,0.428-1.572,0.643-2.529,0.643
				c-1.613,0-2.871-0.515-3.773-1.545c-0.902-1.03-1.354-2.634-1.354-4.813v-8.723h2.693v8.75c0,1.577,0.232,2.662,0.697,3.254
				c0.465,0.593,1.189,0.889,2.174,0.889c0.957,0,1.748-0.193,2.372-0.581c0.624-0.387,1.096-0.937,1.415-1.647v-10.664h2.693
				v14.793h-2.42L231.201,335.224z"/>
			<path fill="#F48466" d="M250.355,330.576c0,2.133-0.513,3.854-1.538,5.161c-1.025,1.308-2.436,1.962-4.231,1.962
				c-0.984,0-1.839-0.194-2.563-0.581s-1.324-0.959-1.798-1.716l-0.438,2.01h-2.064v-21.328h2.693v8.285
				c0.465-0.656,1.041-1.157,1.729-1.504c0.688-0.346,1.492-0.52,2.413-0.52c1.823,0,3.245,0.729,4.266,2.188
				c1.021,1.458,1.531,3.377,1.531,5.756V330.576z M247.662,330.289c0-1.695-0.313-3.078-0.937-4.149
				c-0.625-1.071-1.575-1.606-2.851-1.606c-0.83,0-1.529,0.203-2.099,0.608c-0.57,0.406-1.023,0.95-1.36,1.634v6.412
				c0.346,0.729,0.8,1.299,1.36,1.709s1.269,0.615,2.126,0.615c1.267,0,2.21-0.451,2.83-1.354c0.62-0.902,0.93-2.096,0.93-3.582
				V330.289z"/>
			<path fill="#F48466" d="M256.549,337.412h-2.693v-21.328h2.693V337.412z"/>
			<path fill="#F48466" d="M263.604,318.832h-2.693v-2.748h2.693V318.832z M263.604,337.412h-2.693v-14.793h2.693V337.412z"/>
			<path fill="#F48466" d="M273.625,335.593c0.829,0,1.554-0.275,2.174-0.827c0.62-0.551,0.93-1.228,0.93-2.03h2.434l0.041,0.082
				c0.036,1.276-0.511,2.409-1.641,3.397c-1.13,0.989-2.443,1.483-3.938,1.483c-2.078,0-3.683-0.706-4.813-2.119
				c-1.13-1.413-1.695-3.172-1.695-5.277v-0.574c0-2.087,0.567-3.839,1.702-5.257c1.135-1.417,2.736-2.126,4.806-2.126
				c1.649,0,3.001,0.511,4.054,1.531c1.053,1.021,1.561,2.274,1.524,3.76l-0.027,0.082h-2.447c0-0.902-0.294-1.67-0.882-2.304
				c-0.588-0.633-1.329-0.95-2.222-0.95c-1.322,0-2.286,0.513-2.892,1.538c-0.606,1.025-0.909,2.268-0.909,3.726v0.574
				c0,1.486,0.298,2.739,0.896,3.76C271.316,335.083,272.285,335.593,273.625,335.593z"/>
		</g>
		<g>
			<path fill="#58585A" d="M105.729,296.305v5.238h-1.635v-12.078h4.134c1.323,0,2.333,0.294,3.03,0.881
				c0.697,0.586,1.046,1.438,1.046,2.557c0,0.619-0.162,1.159-0.486,1.618c-0.323,0.459-0.795,0.824-1.415,1.096
				c0.664,0.216,1.142,0.565,1.432,1.05c0.291,0.484,0.436,1.084,0.436,1.797v1.138c0,0.376,0.042,0.714,0.125,1.013
				s0.227,0.542,0.432,0.73v0.199h-1.685c-0.216-0.188-0.354-0.465-0.415-0.83s-0.091-0.741-0.091-1.129v-1.104
				c0-0.653-0.191-1.18-0.573-1.578s-0.894-0.598-1.536-0.598H105.729z M105.729,295.019h2.333c0.924,0,1.59-0.176,1.996-0.527
				c0.407-0.352,0.61-0.887,0.61-1.606c0-0.68-0.198-1.207-0.594-1.581c-0.396-0.373-1.011-0.56-1.847-0.56h-2.499V295.019z"/>
			<path fill="#58585A" d="M117.555,301.717c-1.29,0-2.295-0.412-3.017-1.236c-0.723-0.824-1.083-1.909-1.083-3.254v-0.365
				c0-1.289,0.372-2.356,1.117-3.2c0.744-0.844,1.653-1.266,2.727-1.266c1.201,0,2.102,0.374,2.702,1.12
				c0.6,0.748,0.9,1.741,0.9,2.98v0.863h-5.744l-0.025,0.041c0,0.902,0.199,1.635,0.598,2.196s1.007,0.843,1.826,0.843
				c0.553,0,1.039-0.079,1.457-0.237c0.418-0.157,0.776-0.375,1.075-0.651l0.639,1.063c-0.321,0.31-0.744,0.571-1.27,0.784
				S118.296,301.717,117.555,301.717z M117.297,293.682c-0.57,0-1.042,0.221-1.415,0.66c-0.374,0.44-0.602,1.003-0.685,1.689
				l0.017,0.041h4.051v-0.133c0-0.652-0.161-1.192-0.481-1.618S117.967,293.682,117.297,293.682z"/>
			<path fill="#58585A" d="M125.454,300.439c0.503,0,0.943-0.168,1.32-0.503s0.564-0.745,0.564-1.232h1.478l0.025,0.05
				c0.022,0.774-0.31,1.462-0.996,2.063s-1.483,0.9-2.391,0.9c-1.262,0-2.236-0.429-2.922-1.286s-1.029-1.926-1.029-3.204v-0.349
				c0-1.268,0.344-2.331,1.034-3.191c0.688-0.86,1.661-1.291,2.917-1.291c1.001,0,1.822,0.31,2.461,0.93
				c0.639,0.62,0.947,1.381,0.925,2.282l-0.017,0.051h-1.486c0-0.549-0.179-1.015-0.535-1.399c-0.357-0.385-0.807-0.577-1.349-0.577
				c-0.802,0-1.388,0.312-1.755,0.935c-0.368,0.622-0.552,1.376-0.552,2.262v0.349c0,0.902,0.181,1.663,0.543,2.283
				C124.052,300.129,124.64,300.439,125.454,300.439z"/>
			<path fill="#58585A" d="M131.701,290.262h-1.635v-1.668h1.635V290.262z M131.701,301.543h-1.635v-8.981h1.635V301.543z"/>
			<path fill="#58585A" d="M141.02,297.393c0,1.295-0.31,2.34-0.93,3.134s-1.475,1.19-2.565,1.19c-0.553,0-1.039-0.092-1.457-0.277
				c-0.417-0.186-0.773-0.464-1.066-0.834v4.391h-1.635v-12.435h1.253l0.257,1.162c0.293-0.432,0.659-0.761,1.096-0.987
				c0.437-0.228,0.946-0.341,1.527-0.341c1.112,0,1.977,0.441,2.594,1.324c0.617,0.883,0.925,2.049,0.925,3.499V297.393z
				 M139.384,297.219c0-1.019-0.201-1.855-0.602-2.512c-0.401-0.655-0.992-0.983-1.772-0.983c-0.47,0-0.872,0.106-1.204,0.319
				s-0.601,0.505-0.805,0.876v4.341c0.205,0.371,0.473,0.66,0.805,0.868c0.332,0.207,0.739,0.312,1.22,0.312
				c0.775,0,1.361-0.284,1.76-0.852s0.598-1.299,0.598-2.195V297.219z"/>
			<path fill="#58585A" d="M143.946,290.262h-1.635v-1.668h1.635V290.262z M143.946,301.543h-1.635v-8.981h1.635V301.543z"/>
			<path fill="#58585A" d="M149.33,301.717c-1.29,0-2.295-0.412-3.017-1.236c-0.723-0.824-1.083-1.909-1.083-3.254v-0.365
				c0-1.289,0.372-2.356,1.117-3.2c0.744-0.844,1.653-1.266,2.727-1.266c1.201,0,2.102,0.374,2.702,1.12
				c0.6,0.748,0.9,1.741,0.9,2.98v0.863h-5.744l-0.025,0.041c0,0.902,0.199,1.635,0.598,2.196s1.007,0.843,1.826,0.843
				c0.553,0,1.039-0.079,1.457-0.237c0.418-0.157,0.776-0.375,1.075-0.651l0.639,1.063c-0.321,0.31-0.744,0.571-1.27,0.784
				S150.072,301.717,149.33,301.717z M149.073,293.682c-0.57,0-1.042,0.221-1.415,0.66c-0.374,0.44-0.602,1.003-0.685,1.689
				l0.017,0.041h4.051v-0.133c0-0.652-0.161-1.192-0.481-1.618S149.742,293.682,149.073,293.682z"/>
			<path fill="#58585A" d="M155.121,292.562l0.116,1.337c0.299-0.477,0.674-0.846,1.125-1.108c0.451-0.263,0.964-0.395,1.54-0.395
				c0.968,0,1.718,0.283,2.25,0.851s0.797,1.443,0.797,2.627v5.67h-1.635v-5.637c0-0.791-0.156-1.353-0.469-1.685
				c-0.313-0.332-0.79-0.498-1.432-0.498c-0.503,0-0.931,0.101-1.283,0.303c-0.351,0.202-0.629,0.485-0.834,0.851v6.666h-1.635
				v-8.981H155.121z"/>
			<path fill="#58585A" d="M164.747,290.395v2.167h1.702v1.212h-1.702v5.453c0,0.421,0.087,0.717,0.261,0.889
				c0.175,0.172,0.406,0.258,0.693,0.258c0.094,0,0.199-0.013,0.315-0.038c0.116-0.024,0.213-0.051,0.291-0.079l0.224,1.121
				c-0.122,0.1-0.302,0.182-0.54,0.245s-0.473,0.095-0.706,0.095c-0.664,0-1.192-0.2-1.585-0.602s-0.589-1.03-0.589-1.889v-5.453
				h-1.428v-1.212h1.428v-2.167H164.747z"/>
			<path fill="#58585A" d="M172.571,299.127c0-0.359-0.137-0.652-0.411-0.879c-0.273-0.228-0.792-0.427-1.556-0.598
				c-1.057-0.228-1.869-0.546-2.436-0.955c-0.567-0.409-0.851-0.957-0.851-1.644c0-0.73,0.311-1.355,0.934-1.876
				c0.622-0.521,1.429-0.78,2.419-0.78c1.018,0,1.843,0.276,2.474,0.83s0.933,1.198,0.905,1.935l-0.017,0.049h-1.561
				c0-0.387-0.17-0.738-0.511-1.054c-0.34-0.315-0.771-0.474-1.291-0.474c-0.576,0-1.006,0.131-1.291,0.391
				c-0.285,0.26-0.428,0.57-0.428,0.93c0,0.354,0.123,0.628,0.369,0.822c0.247,0.193,0.754,0.37,1.523,0.531
				c1.101,0.232,1.937,0.562,2.507,0.987s0.855,0.982,0.855,1.669c0,0.797-0.322,1.446-0.967,1.95
				c-0.645,0.504-1.487,0.755-2.527,0.755c-1.146,0-2.047-0.29-2.706-0.871s-0.971-1.259-0.938-2.033l0.017-0.051h1.561
				c0.028,0.582,0.244,1.006,0.647,1.274s0.877,0.403,1.419,0.403c0.581,0,1.036-0.124,1.365-0.37
				C172.406,299.823,172.571,299.51,172.571,299.127z"/>
			<path fill="#58585A" d="M178.383,296.969c0-1.328,0.36-2.422,1.079-3.282s1.696-1.291,2.93-1.291
				c1.245,0,2.229,0.429,2.951,1.286c0.722,0.858,1.083,1.954,1.083,3.287v0.184c0,1.339-0.36,2.435-1.079,3.287
				c-0.719,0.852-1.699,1.277-2.938,1.277s-2.221-0.427-2.942-1.282c-0.723-0.854-1.083-1.949-1.083-3.282V296.969z
				 M180.018,297.152c0,0.951,0.201,1.737,0.602,2.357c0.401,0.619,0.998,0.93,1.789,0.93c0.78,0,1.373-0.311,1.776-0.93
				c0.404-0.62,0.606-1.406,0.606-2.357v-0.184c0-0.94-0.204-1.724-0.61-2.349c-0.407-0.625-1.003-0.938-1.789-0.938
				c-0.78,0-1.371,0.313-1.772,0.938c-0.401,0.625-0.602,1.408-0.602,2.349V297.152z"/>
			<path fill="#58585A" d="M188.257,301.543v-7.77h-1.403v-1.212h1.403v-1.138c0-0.957,0.25-1.697,0.751-2.22
				c0.5-0.523,1.199-0.784,2.096-0.784c0.188,0,0.378,0.015,0.568,0.045c0.191,0.03,0.403,0.073,0.635,0.129l-0.199,1.245
				c-0.1-0.022-0.22-0.042-0.361-0.058c-0.142-0.018-0.29-0.025-0.444-0.025c-0.476,0-0.83,0.143-1.063,0.428
				s-0.349,0.698-0.349,1.24v1.138h1.627v1.212h-1.627v7.77H188.257z"/>
			<path fill="#58585A" d="M197.556,300.265h5.894v1.278h-7.529v-12.086h1.635V300.265z"/>
			<path fill="#58585A" d="M207.912,301.717c-1.29,0-2.295-0.412-3.017-1.236c-0.723-0.824-1.083-1.909-1.083-3.254v-0.365
				c0-1.289,0.372-2.356,1.117-3.2c0.744-0.844,1.653-1.266,2.727-1.266c1.201,0,2.102,0.374,2.702,1.12
				c0.6,0.748,0.9,1.741,0.9,2.98v0.863h-5.744l-0.025,0.041c0,0.902,0.199,1.635,0.598,2.196s1.007,0.843,1.826,0.843
				c0.553,0,1.039-0.079,1.457-0.237c0.418-0.157,0.776-0.375,1.075-0.651l0.639,1.063c-0.321,0.31-0.744,0.571-1.27,0.784
				S208.654,301.717,207.912,301.717z M207.655,293.682c-0.57,0-1.042,0.221-1.415,0.66c-0.374,0.44-0.602,1.003-0.685,1.689
				l0.017,0.041h4.051v-0.133c0-0.652-0.161-1.192-0.481-1.618S208.324,293.682,207.655,293.682z"/>
			<path fill="#58585A" d="M211.951,297.219c0-1.445,0.309-2.609,0.926-3.495c0.617-0.886,1.479-1.328,2.585-1.328
				c0.57,0,1.071,0.115,1.502,0.345s0.794,0.561,1.087,0.992l0.199-1.171h1.303v9.031c0,1.151-0.335,2.035-1.004,2.652
				s-1.635,0.925-2.897,0.925c-0.432,0-0.898-0.059-1.398-0.178c-0.501-0.119-0.942-0.281-1.324-0.486l0.249-1.27
				c0.315,0.166,0.696,0.3,1.142,0.402c0.445,0.103,0.884,0.154,1.315,0.154c0.797,0,1.376-0.182,1.739-0.544
				c0.362-0.362,0.543-0.915,0.543-1.656v-1.021c-0.293,0.376-0.645,0.661-1.054,0.854s-0.883,0.29-1.419,0.29
				c-1.096,0-1.952-0.396-2.569-1.19c-0.617-0.794-0.926-1.839-0.926-3.134V297.219z M213.586,297.393
				c0,0.902,0.186,1.627,0.556,2.175s0.943,0.821,1.718,0.821c0.493,0,0.905-0.111,1.237-0.336c0.332-0.224,0.606-0.541,0.822-0.95
				v-4.134c-0.21-0.382-0.484-0.685-0.822-0.909c-0.337-0.224-0.744-0.336-1.22-0.336c-0.78,0-1.357,0.323-1.731,0.972
				c-0.373,0.646-0.56,1.488-0.56,2.523V297.393z"/>
			<path fill="#58585A" d="M226.574,301.543c-0.055-0.271-0.098-0.511-0.129-0.718c-0.03-0.208-0.048-0.417-0.054-0.627
				c-0.304,0.432-0.701,0.793-1.191,1.083c-0.489,0.291-1.017,0.436-1.581,0.436c-0.935,0-1.647-0.239-2.138-0.718
				c-0.489-0.479-0.734-1.139-0.734-1.979c0-0.857,0.347-1.528,1.042-2.013c0.694-0.484,1.636-0.727,2.826-0.727h1.776v-0.888
				c0-0.526-0.161-0.942-0.481-1.25c-0.321-0.307-0.775-0.461-1.361-0.461c-0.531,0-0.96,0.133-1.287,0.398s-0.49,0.584-0.49,0.955
				l-1.552,0.017l-0.017-0.05c-0.039-0.653,0.267-1.251,0.917-1.793c0.65-0.542,1.49-0.813,2.519-0.813
				c1.018,0,1.837,0.259,2.457,0.776s0.93,1.263,0.93,2.236v4.325c0,0.321,0.017,0.631,0.05,0.93s0.094,0.592,0.183,0.88H226.574z
				 M223.859,300.348c0.592,0,1.126-0.152,1.602-0.457c0.476-0.304,0.786-0.652,0.93-1.045v-1.461h-1.834
				c-0.659,0-1.186,0.166-1.582,0.498c-0.396,0.332-0.593,0.722-0.593,1.17c0,0.398,0.125,0.714,0.374,0.946
				S223.373,300.348,223.859,300.348z"/>
			<path fill="#58585A" d="M231.319,301.543h-1.635v-12.949h1.635V301.543z"/>
			<path fill="#58585A" d="M242.825,298.43h-4.549l-1.079,3.113h-1.668l4.358-12.086h1.403l4.267,12.086h-1.668L242.825,298.43z
				 M238.75,297.061h3.611l-1.76-5.188h-0.05L238.75,297.061z"/>
			<path fill="#58585A" d="M248.026,290.262h-1.635v-1.668h1.635V290.262z M248.026,301.543h-1.635v-8.981h1.635V301.543z"/>
			<path fill="#58585A" d="M249.318,297.219c0-1.445,0.309-2.609,0.926-3.495c0.617-0.886,1.481-1.328,2.594-1.328
				c0.526,0,0.992,0.097,1.398,0.29c0.407,0.194,0.754,0.477,1.042,0.848v-4.939h1.635v12.949h-1.253l-0.249-1.137
				c-0.293,0.432-0.656,0.758-1.087,0.979c-0.432,0.222-0.933,0.332-1.502,0.332c-1.096,0-1.954-0.396-2.573-1.19
				s-0.93-1.839-0.93-3.134V297.219z M250.953,297.393c0,0.907,0.186,1.634,0.556,2.179s0.946,0.817,1.727,0.817
				c0.487,0,0.896-0.11,1.229-0.332c0.332-0.221,0.603-0.531,0.813-0.93v-4.191c-0.21-0.371-0.483-0.665-0.817-0.884
				c-0.335-0.219-0.738-0.328-1.208-0.328c-0.786,0-1.365,0.323-1.739,0.972c-0.373,0.646-0.56,1.488-0.56,2.523V297.393z"/>
		</g>
	</g>
	<g>
		<g>
			<g>
				<path fill="#F48466" d="M223.22,222.091h-7.631v-29.879l-7.443,2.875v-6.341l14.268-5.831h0.806V222.091z"/>
				<path fill="#F48466" d="M254.867,193.353c0,1.896-0.403,3.578-1.209,5.045c-0.807,1.467-1.917,2.639-3.332,3.515
					c1.612,0.915,2.884,2.175,3.815,3.78c0.931,1.605,1.397,3.493,1.397,5.663c0,3.48-1.004,6.229-3.01,8.246
					c-2.006,2.018-4.738,3.027-8.195,3.027s-6.207-1.009-8.249-3.027c-2.042-2.018-3.063-4.766-3.063-8.246
					c0-2.169,0.465-4.062,1.397-5.676c0.931-1.614,2.212-2.87,3.842-3.767c-1.434-0.876-2.553-2.048-3.358-3.515
					c-0.807-1.467-1.209-3.148-1.209-5.045c0-3.417,0.958-6.091,2.875-8.023c1.917-1.932,4.487-2.898,7.711-2.898
					c3.26,0,5.84,0.975,7.738,2.925S254.867,189.972,254.867,193.353z M244.334,216.368c1.146,0,2.029-0.493,2.646-1.479
					c0.618-0.986,0.927-2.356,0.927-4.11c0-1.754-0.322-3.128-0.967-4.124c-0.645-0.995-1.531-1.492-2.66-1.492
					c-1.128,0-2.02,0.498-2.673,1.492c-0.654,0.995-0.981,2.37-0.981,4.124c0,1.754,0.327,3.125,0.981,4.11
					C242.261,215.875,243.169,216.368,244.334,216.368z M247.29,193.743c0-1.53-0.247-2.754-0.739-3.673
					c-0.493-0.918-1.249-1.378-2.271-1.378c-0.967,0-1.702,0.446-2.203,1.337c-0.502,0.892-0.752,2.129-0.752,3.714
					c0,1.549,0.25,2.795,0.752,3.741c0.501,0.945,1.254,1.418,2.257,1.418s1.747-0.473,2.23-1.418
					C247.048,196.539,247.29,195.292,247.29,193.743z"/>
				<path fill="#F48466" d="M266.174,199.063h3.681c1.397,0,2.422-0.49,3.077-1.472c0.653-0.981,0.98-2.291,0.98-3.93
					c0-1.566-0.336-2.787-1.008-3.66c-0.671-0.873-1.571-1.31-2.7-1.31c-1.057,0-1.921,0.417-2.593,1.252
					c-0.672,0.834-1.008,1.886-1.008,3.155H259c0-2.042,0.47-3.874,1.41-5.495s2.257-2.889,3.95-3.802
					c1.692-0.914,3.569-1.37,5.629-1.37c3.601,0,6.422,0.994,8.464,2.982s3.063,4.711,3.063,8.168c0,1.773-0.462,3.417-1.384,4.93
					c-0.923,1.514-2.137,2.674-3.641,3.48c1.845,0.788,3.22,1.971,4.125,3.546c0.904,1.577,1.357,3.439,1.357,5.589
					c0,3.476-1.106,6.261-3.318,8.356c-2.212,2.096-5.119,3.144-8.719,3.144c-3.35,0-6.068-1.035-8.155-3.104
					c-2.087-2.069-3.13-4.787-3.13-8.155h7.604c0,1.412,0.367,2.598,1.102,3.558c0.734,0.959,1.666,1.439,2.794,1.439
					c1.308,0,2.342-0.486,3.104-1.458c0.761-0.972,1.142-2.268,1.142-3.888c0-3.87-1.496-5.814-4.487-5.832h-3.735V199.063z"/>
				<path fill="#F48466" d="M285.917,190.492c0-2.382,0.658-4.326,1.975-5.831c1.316-1.505,3.094-2.257,5.333-2.257
					s4.026,0.739,5.361,2.217c1.334,1.478,2.001,3.471,2.001,5.978v1.962c0,2.418-0.663,4.362-1.988,5.831s-3.099,2.203-5.32,2.203
					c-2.203,0-3.981-0.734-5.333-2.203c-1.353-1.469-2.029-3.466-2.029-5.992V190.492z M290.861,192.562
					c0,1.075,0.229,1.93,0.686,2.566c0.457,0.636,1.034,0.954,1.732,0.954c0.717,0,1.285-0.331,1.707-0.994
					c0.42-0.663,0.631-1.531,0.631-2.606v-1.988c0-1.039-0.215-1.894-0.645-2.566c-0.43-0.672-1.013-1.008-1.747-1.008
					c-0.716,0-1.29,0.336-1.72,1.008c-0.43,0.672-0.645,1.554-0.645,2.646V192.562z M294.65,219.162l-3.6-2.042l16.041-30.578
					l3.627,2.042L294.65,219.162z M301.34,212.499c0-2.418,0.672-4.366,2.015-5.844c1.344-1.478,3.117-2.217,5.32-2.217
					c2.221,0,4.004,0.73,5.347,2.19s2.015,3.462,2.015,6.005v1.961c0,2.4-0.654,4.339-1.961,5.817
					c-1.308,1.478-3.09,2.217-5.347,2.217c-2.275,0-4.075-0.743-5.4-2.23c-1.326-1.486-1.989-3.457-1.989-5.911V212.499z
					 M306.312,214.594c0,1.003,0.237,1.845,0.712,2.526s1.043,1.021,1.706,1.021c1.486,0,2.266-1.065,2.338-3.198v-2.445
					c0-1.057-0.22-1.912-0.658-2.566c-0.439-0.654-1.017-0.981-1.733-0.981c-1.576,0-2.364,1.37-2.364,4.111V214.594z"/>
			</g>
			<g>
				<path fill="#F48466" d="M194.912,254.756h-1.356v-9.973h1.356V254.756z"/>
				<path fill="#F48466" d="M204.646,254.756h-1.349l-4.801-7.617l-0.041,0.014v7.603h-1.35v-9.973h1.35l4.801,7.61l0.041-0.014
					v-7.596h1.349V254.756z"/>
				<path fill="#F48466" d="M213.817,251.564l0.014,0.041c0.018,0.937-0.311,1.719-0.986,2.35c-0.676,0.63-1.568,0.945-2.678,0.945
					c-1.128,0-2.047-0.4-2.757-1.199c-0.71-0.799-1.065-1.813-1.065-3.041v-1.774c0-1.228,0.355-2.243,1.065-3.044
					s1.629-1.202,2.757-1.202s2.025,0.3,2.692,0.901c0.667,0.601,0.991,1.396,0.973,2.387l-0.014,0.041h-1.295
					c0-0.699-0.205-1.251-0.616-1.658c-0.411-0.406-0.991-0.609-1.74-0.609c-0.753,0-1.354,0.304-1.801,0.911
					c-0.448,0.607-0.671,1.361-0.671,2.26v1.788c0,0.909,0.224,1.667,0.671,2.274c0.447,0.607,1.048,0.911,1.801,0.911
					c0.749,0,1.329-0.202,1.74-0.606s0.616-0.962,0.616-1.675H213.817z"/>
				<path fill="#F48466" d="M216.653,250.434v4.322h-1.35v-9.966h3.411c1.091,0,1.925,0.242,2.5,0.726s0.863,1.188,0.863,2.109
					c0,0.512-0.134,0.957-0.401,1.336c-0.267,0.379-0.656,0.68-1.167,0.904c0.548,0.178,0.942,0.467,1.182,0.867
					s0.359,0.894,0.359,1.483v0.938c0,0.311,0.035,0.589,0.103,0.835s0.187,0.448,0.356,0.603v0.165h-1.39
					c-0.178-0.155-0.292-0.384-0.343-0.685s-0.075-0.612-0.075-0.931v-0.911c0-0.539-0.158-0.973-0.473-1.301
					c-0.315-0.329-0.737-0.493-1.267-0.493H216.653z M216.653,249.372h1.925c0.762,0,1.312-0.145,1.647-0.435
					s0.503-0.732,0.503-1.326c0-0.562-0.163-0.997-0.49-1.305s-0.834-0.462-1.524-0.462h-2.062V249.372z"/>
				<path fill="#F48466" d="M229.393,250.132h-4.096v3.569h4.795v1.055h-6.144v-9.973h6.069v1.062h-4.72v3.226h4.096V250.132z"/>
				<path fill="#F48466" d="M236.558,252.188h-3.753l-0.891,2.568h-1.377l3.596-9.973h1.158l3.521,9.973h-1.377L236.558,252.188z
					 M233.195,251.057h2.979l-1.452-4.281h-0.041L233.195,251.057z"/>
				<path fill="#F48466" d="M245.312,252.242c0-0.452-0.162-0.831-0.486-1.137c-0.324-0.306-0.895-0.566-1.712-0.781
					c-1.014-0.251-1.805-0.621-2.374-1.109c-0.568-0.489-0.853-1.103-0.853-1.843c0-0.781,0.306-1.431,0.918-1.952
					c0.612-0.521,1.406-0.781,2.384-0.781c1.05,0,1.887,0.298,2.51,0.894c0.624,0.596,0.926,1.291,0.908,2.085l-0.021,0.042h-1.288
					c0-0.566-0.197-1.035-0.593-1.404c-0.395-0.37-0.9-0.555-1.517-0.555c-0.63,0-1.113,0.153-1.449,0.459
					c-0.335,0.306-0.503,0.703-0.503,1.191c0,0.434,0.184,0.796,0.551,1.086s0.964,0.544,1.791,0.764
					c1.004,0.26,1.769,0.644,2.294,1.15s0.788,1.133,0.788,1.877c0,0.804-0.316,1.45-0.949,1.938
					c-0.632,0.488-1.458,0.733-2.476,0.733c-0.964,0-1.814-0.27-2.552-0.809c-0.737-0.539-1.095-1.26-1.072-2.164l0.014-0.042h1.288
					c0,0.626,0.237,1.109,0.712,1.449c0.475,0.34,1.011,0.51,1.61,0.51c0.639,0,1.145-0.144,1.517-0.431
					C245.125,253.125,245.312,252.735,245.312,252.242z"/>
				<path fill="#F48466" d="M253.736,250.132h-4.096v3.569h4.794v1.055h-6.144v-9.973h6.068v1.062h-4.719v3.226h4.096V250.132z"/>
				<path fill="#F48466" d="M264.511,250.345h-4.205v4.411h-1.35v-9.973h6.253v1.062h-4.904v3.438h4.205V250.345z"/>
				<path fill="#F48466" d="M267.765,250.434v4.322h-1.35v-9.966h3.411c1.092,0,1.925,0.242,2.5,0.726s0.863,1.188,0.863,2.109
					c0,0.512-0.134,0.957-0.401,1.336s-0.656,0.68-1.167,0.904c0.548,0.178,0.941,0.467,1.182,0.867
					c0.239,0.399,0.359,0.894,0.359,1.483v0.938c0,0.311,0.034,0.589,0.103,0.835s0.188,0.448,0.356,0.603v0.165h-1.391
					c-0.178-0.155-0.292-0.384-0.343-0.685c-0.05-0.301-0.075-0.612-0.075-0.931v-0.911c0-0.539-0.157-0.973-0.473-1.301
					c-0.315-0.329-0.737-0.493-1.267-0.493H267.765z M267.765,249.372h1.925c0.763,0,1.312-0.145,1.647-0.435
					c0.335-0.29,0.503-0.732,0.503-1.326c0-0.562-0.163-0.997-0.489-1.305c-0.327-0.308-0.835-0.462-1.524-0.462h-2.062V249.372z"/>
				<path fill="#F48466" d="M282.676,250.66c0,1.219-0.378,2.23-1.134,3.034c-0.755,0.804-1.736,1.206-2.941,1.206
					c-1.165,0-2.111-0.402-2.839-1.206c-0.729-0.804-1.093-1.815-1.093-3.034v-1.774c0-1.214,0.364-2.226,1.093-3.034
					c0.728-0.808,1.674-1.212,2.839-1.212c1.205,0,2.186,0.403,2.941,1.209c0.756,0.806,1.134,1.819,1.134,3.038V250.66z
					 M281.327,248.872c0-0.913-0.247-1.662-0.74-2.247c-0.493-0.584-1.155-0.876-1.986-0.876c-0.785,0-1.412,0.292-1.88,0.876
					c-0.469,0.585-0.702,1.333-0.702,2.247v1.788c0,0.922,0.233,1.676,0.702,2.26c0.468,0.584,1.095,0.876,1.88,0.876
					c0.835,0,1.499-0.291,1.99-0.873c0.491-0.583,0.736-1.337,0.736-2.264V248.872z"/>
				<path fill="#F48466" d="M289.286,252.886h0.041l3.185-8.103h1.678v9.973h-1.349v-7.473l-0.041-0.007l-3.021,7.479h-0.938
					l-3.11-7.726l-0.041,0.007v7.719h-1.349v-9.973h1.774L289.286,252.886z"/>
				<path fill="#F48466" d="M305.506,254.756h-6.192v-0.925l3.13-3.733c0.557-0.676,0.935-1.213,1.133-1.613
					c0.199-0.399,0.298-0.803,0.298-1.209c0-0.461-0.135-0.839-0.404-1.134c-0.27-0.294-0.642-0.441-1.117-0.441
					c-0.589,0-1.038,0.18-1.346,0.541c-0.308,0.361-0.462,0.811-0.462,1.349h-1.302l-0.014-0.041
					c-0.022-0.813,0.249-1.501,0.815-2.065c0.566-0.564,1.335-0.846,2.308-0.846c0.89,0,1.591,0.247,2.103,0.74
					s0.767,1.13,0.767,1.911c0,0.525-0.145,1.039-0.435,1.541c-0.29,0.502-0.732,1.133-1.325,1.891l-2.514,2.945l0.014,0.034h4.542
					V254.756z"/>
				<path fill="#F48466" d="M313.026,251.235c0,1.128-0.287,2.021-0.859,2.678c-0.573,0.657-1.344,0.986-2.312,0.986
					c-0.964,0-1.734-0.329-2.312-0.986c-0.578-0.658-0.867-1.55-0.867-2.678v-2.932c0-1.119,0.287-2.009,0.86-2.671
					c0.573-0.662,1.341-0.993,2.305-0.993c0.968,0,1.74,0.332,2.318,0.993c0.577,0.662,0.866,1.553,0.866,2.671V251.235z
					 M311.677,248.023c0-0.717-0.16-1.283-0.479-1.699c-0.319-0.416-0.771-0.623-1.355-0.623c-0.58,0-1.028,0.208-1.343,0.623
					c-0.315,0.416-0.473,0.982-0.473,1.699v3.486c0,0.717,0.161,1.286,0.483,1.706s0.771,0.63,1.346,0.63
					c0.584,0,1.034-0.208,1.349-0.626c0.315-0.418,0.473-0.987,0.473-1.709V248.023z"/>
				<path fill="#F48466" d="M318.383,254.756h-1.356v-8.726l-2.171,0.021v-1.041l3.527-0.37V254.756z"/>
				<path fill="#F48466" d="M327.253,251.4h1.377v1.055h-1.377v2.301h-1.342v-2.301h-4.281v-0.76l4.199-6.911h1.424V251.4z
					 M323.075,251.4h2.835v-4.678l-0.041-0.007l-0.13,0.342L323.075,251.4z"/>
			</g>
			<g opacity="0.6">
				<g>
					<rect x="189.387" y="229.542" fill="#FCD6D7" width="142.233" height="3"/>
				</g>
			</g>
		</g>
		<g>
			<g opacity="0.6">
				<g>
					<rect x="38.756" y="229.882" fill="#FCD6D7" width="114.344" height="3"/>
				</g>
			</g>
			<g>
				<path fill="#F48466" d="M43.359,218.449h-6.847v-26.811l-6.679,2.58v-5.69l12.803-5.232h0.723V218.449z"/>
				<path fill="#F48466" d="M70.069,205.188h2.99v5.618h-2.99v7.643h-6.823v-7.643H51.624l-0.313-4.375l11.911-23.088h6.847V205.188
					z M57.941,205.188h5.304v-11.742l-0.145,0.265L57.941,205.188z"/>
				<path fill="#F48466" d="M78.045,227.298l-3.641-1.905l0.917-1.712c1.028-1.897,1.559-3.81,1.591-5.738v-5.425h5.932
					l-0.024,4.846c-0.016,1.704-0.45,3.472-1.302,5.304C80.664,224.501,79.507,226.044,78.045,227.298z"/>
				<path fill="#F48466" d="M102.994,182.982v5.787h-0.386c-2.556,0.016-4.585,0.783-6.088,2.302s-2.415,3.645-2.736,6.377
					c1.462-1.671,3.295-2.507,5.497-2.507c2.54,0,4.569,1.085,6.088,3.255c1.52,2.17,2.279,5.063,2.279,8.68
					c0,2.299-0.434,4.373-1.302,6.221c-0.868,1.849-2.085,3.283-3.652,4.304c-1.567,1.021-3.34,1.531-5.316,1.531
					c-3.183,0-5.735-1.278-7.655-3.834c-1.921-2.556-2.881-5.995-2.881-10.319v-2.532c0-3.874,0.606-7.265,1.82-10.174
					c1.213-2.909,2.965-5.148,5.256-6.715c2.29-1.567,4.962-2.359,8.017-2.375H102.994z M97.136,200.559
					c-0.868,0-1.596,0.275-2.182,0.825c-0.587,0.549-1.025,1.229-1.314,2.037v2.473c0,2.49,0.329,4.349,0.988,5.578
					s1.527,1.842,2.604,1.842c1.093,0,1.969-0.594,2.628-1.782c0.659-1.188,0.988-2.711,0.988-4.571
					c0-1.891-0.342-3.431-1.024-4.619C99.141,201.153,98.245,200.559,97.136,200.559z"/>
				<path fill="#F48466" d="M111.163,201.186l1.736-17.842h16.998v5.835h-11.405l-0.626,7.522c1.317-0.884,2.676-1.326,4.074-1.326
					c2.894,0,5.124,1.029,6.691,3.086c1.567,2.058,2.351,4.967,2.351,8.728c0,3.52-0.933,6.357-2.797,8.511
					c-1.865,2.154-4.356,3.231-7.475,3.231c-1.849,0-3.561-0.438-5.136-1.314c-1.575-0.875-2.817-2.093-3.725-3.652
					c-0.909-1.559-1.371-3.328-1.387-5.305h6.751c0.112,1.479,0.474,2.623,1.085,3.436c0.611,0.812,1.398,1.218,2.363,1.218
					c1.125,0,1.993-0.544,2.604-1.633c0.611-1.089,0.916-2.715,0.916-4.877c0-2.033-0.365-3.565-1.097-4.598
					s-1.756-1.549-3.074-1.549c-1.286,0-2.283,0.442-2.99,1.326l-0.434,0.603L111.163,201.186z"/>
				<path fill="#F48466" d="M152.195,205.188h2.99v5.618h-2.99v7.643h-6.823v-7.643H133.75l-0.313-4.375l11.911-23.088h6.847
					V205.188z M140.067,205.188h5.304v-11.742l-0.145,0.265L140.067,205.188z"/>
			</g>
			<g>
				<path fill="#F48466" d="M75.108,254.344h-1.356v-9.973h1.356V254.344z"/>
				<path fill="#F48466" d="M84.842,254.344h-1.35l-4.802-7.617l-0.041,0.014v7.603H77.3v-9.973h1.349l4.802,7.61l0.041-0.014
					v-7.596h1.35V254.344z"/>
				<path fill="#F48466" d="M96.157,254.344h-6.192v-0.925l3.13-3.733c0.557-0.676,0.935-1.213,1.133-1.613
					c0.199-0.399,0.298-0.803,0.298-1.209c0-0.461-0.135-0.839-0.404-1.134c-0.27-0.294-0.642-0.441-1.117-0.441
					c-0.589,0-1.038,0.18-1.346,0.541c-0.308,0.361-0.462,0.811-0.462,1.349h-1.302l-0.014-0.041
					c-0.022-0.813,0.249-1.501,0.815-2.065c0.566-0.564,1.335-0.846,2.308-0.846c0.89,0,1.591,0.247,2.103,0.74
					s0.767,1.13,0.767,1.911c0,0.525-0.145,1.039-0.435,1.541c-0.29,0.502-0.732,1.133-1.325,1.891l-2.514,2.945l0.014,0.034h4.542
					V254.344z"/>
				<path fill="#F48466" d="M103.678,250.823c0,1.128-0.286,2.021-0.859,2.678c-0.573,0.657-1.344,0.986-2.312,0.986
					c-0.964,0-1.734-0.329-2.312-0.986c-0.578-0.658-0.867-1.55-0.867-2.678v-2.932c0-1.119,0.287-2.009,0.86-2.671
					c0.573-0.662,1.341-0.993,2.305-0.993c0.968,0,1.741,0.332,2.318,0.993c0.578,0.662,0.866,1.553,0.866,2.671V250.823z
					 M102.329,247.611c0-0.717-0.16-1.283-0.479-1.699s-0.772-0.623-1.356-0.623c-0.58,0-1.027,0.208-1.343,0.623
					c-0.315,0.416-0.473,0.982-0.473,1.699v3.486c0,0.717,0.161,1.286,0.483,1.706c0.321,0.42,0.771,0.63,1.346,0.63
					c0.584,0,1.034-0.208,1.349-0.626s0.473-0.987,0.473-1.709V247.611z"/>
				<path fill="#F48466" d="M109.034,254.344h-1.356v-8.726l-2.171,0.021v-1.041l3.527-0.37V254.344z"/>
				<path fill="#F48466" d="M112.987,249.912l0.575-5.541h4.993v1.199h-3.856l-0.322,2.87c0.215-0.16,0.452-0.291,0.712-0.394
					c0.26-0.103,0.557-0.156,0.891-0.161c0.922-0.009,1.645,0.28,2.167,0.867c0.523,0.586,0.784,1.392,0.784,2.414
					c0,1-0.268,1.804-0.805,2.411c-0.536,0.607-1.318,0.911-2.346,0.911c-0.845,0-1.548-0.231-2.109-0.692
					c-0.562-0.461-0.831-1.139-0.809-2.034l0.014-0.042h1.22c0,0.543,0.156,0.965,0.469,1.264c0.313,0.299,0.718,0.448,1.216,0.448
					c0.571,0,1.014-0.201,1.329-0.603c0.314-0.402,0.472-0.952,0.472-1.651c0-0.634-0.159-1.148-0.476-1.541
					c-0.317-0.393-0.759-0.589-1.325-0.589c-0.53,0-0.913,0.08-1.15,0.24c-0.238,0.16-0.414,0.406-0.527,0.74L112.987,249.912z"/>
			</g>
		</g>
		<g>
			<g>
				<g>
					<circle fill="#FCD0A6" cx="164.289" cy="233.875" r="1.9"/>
				</g>
			</g>
			<g>
				<g>
					<circle fill="#FCD0A6" cx="170.49" cy="233.875" r="1.901"/>
				</g>
			</g>
			<g>
				<g>
					<circle fill="#FCD0A6" cx="176.692" cy="233.875" r="1.9"/>
				</g>
			</g>
		</g>
	</g>
</g>
</svg>
