<?xml version="1.0" encoding="utf-8"?>
<!-- Generator: Adobe Illustrator 16.0.0, SVG Export Plug-In . SVG Version: 6.00 Build 0)  -->
<!DOCTYPE svg PUBLIC "-//W3C//DTD SVG 1.1//EN" "http://www.w3.org/Graphics/SVG/1.1/DTD/svg11.dtd">
<svg version="1.1" id="Layer_1" xmlns="http://www.w3.org/2000/svg" xmlns:xlink="http://www.w3.org/1999/xlink" x="0px" y="0px"
	 width="360px" height="190px" viewBox="0 0 360 190" enable-background="new 0 0 360 190" xml:space="preserve">
<g>
	<rect fill="#FFF1E5" width="360" height="190"/>
</g>
<g>
	<g id="lybra">
		<g>
			<path fill="#FCD0A6" d="M200.518,36.764c1.944,0,3.526,1.58,3.526,3.524c0,1.94-1.582,3.521-3.526,3.521
				c-1.939,0-3.521-1.581-3.521-3.521C196.996,38.344,198.578,36.764,200.518,36.764 M167.868,43.684
				c0.165,1.401,1.442,2.4,2.844,2.23l23.109-2.805c0.661,1.568,1.856,2.857,3.36,3.637v34.431
				c-8.754,0.661-10.486,3.867-10.486,7.726h27.607c0-3.858-1.69-7.064-10.445-7.726V46.746c2.012-1.043,3.476-2.998,3.843-5.32
				l23.243-2.819c1.401-0.171,2.399-1.444,2.229-2.843c-0.171-1.401-1.442-2.398-2.844-2.23l-23.662,2.871
				c-1.288-2.033-3.558-3.386-6.148-3.386c-3.206,0-5.937,2.08-6.898,4.97l-23.522,2.853
				C168.695,41.012,167.697,42.285,167.868,43.684"/>
		</g>
		<g>
			<path fill="#FCD0A6" d="M176.55,54.559c0.373-0.507,1.128-0.507,1.5,0c1.458,1.996,4.633,6.55,5.646,9.709h-12.793
				C171.917,61.108,175.092,56.555,176.55,54.559 M177.3,75.956c5.585,0,10.114-4.527,10.114-10.112
				c0-4.426-6.35-13.557-8.987-17.162c-0.558-0.76-1.695-0.76-2.254,0c-2.638,3.605-8.987,12.736-8.987,17.162
				C167.186,71.429,171.715,75.956,177.3,75.956"/>
		</g>
		<g>
			<path fill="#FCD0A6" d="M217.344,57.644c1.008-3.157,4.188-7.712,5.646-9.707c0.372-0.507,1.127-0.507,1.5,0
				c1.458,1.995,4.632,6.55,5.646,9.707H217.344z M222.612,42.061c-2.637,3.602-8.986,12.734-8.986,17.16
				c0,5.586,4.529,10.111,10.114,10.111c5.584,0,10.114-4.525,10.114-10.111c0-4.426-6.35-13.559-8.987-17.16
				C224.309,41.298,223.171,41.298,222.612,42.061"/>
		</g>
	</g>
	<g id="hand">
		<path fill="#FCD0A6" d="M243.395,102.134c6.443,4.938-4.809,13.201-8.175,16.27c-13.119,11.958-24.36,16.553-42.133,18.257
			c-9.406,0.9-17.044-1.387-26.336-2.063c-6.66-0.483-11.102,0.764-15.125,3.226l-15.259-23.462c1.064-0.747,2.13-1.496,3.19-2.243
			c9.287-5.805,17.933-11.747,29.469-11.448c8.656,0.221,15.9,2.113,24.707,1.933c3.847-0.079,16.95-2.603,14.209,5.906
			c-1.81,5.623-18.982,6.499-23.196,7.386c11.086,2.409,27.204,1.208,39.195-5.418C228.611,107.896,238.896,98.686,243.395,102.134
			 M132.866,114.354l-18.217,12.037l19.4,30.591l16.107-10.326c1.428-1.002,1.8-2.954,0.854-4.412L132.866,114.354z"/>
	</g>
</g>
</svg>
