<?xml version="1.0" encoding="utf-8"?>
<!-- Generator: Adobe Illustrator 16.0.0, SVG Export Plug-In . SVG Version: 6.00 Build 0)  -->
<!DOCTYPE svg PUBLIC "-//W3C//DTD SVG 1.1//EN" "http://www.w3.org/Graphics/SVG/1.1/DTD/svg11.dtd">
<svg version="1.1" xmlns="http://www.w3.org/2000/svg" xmlns:xlink="http://www.w3.org/1999/xlink" x="0px" y="0px" width="360px"
	 height="360px" viewBox="0 0 360 360" enable-background="new 0 0 360 360" xml:space="preserve">
<g id="Layer_1">
	<g>
		<rect fill="#383839" width="360" height="360"/>
	</g>
	<g>
		<g id="shield-outer">
			<g>
				<path fill="#818285" d="M180.004,139.145c-17.481-8.401-41.345-22.319-42.657-75.338l42.657-13.319l42.649,13.319
					C221.34,116.825,197.479,130.744,180.004,139.145 M230.938,53.104L181.891,37.79c-1.229-0.386-2.548-0.386-3.781,0
					l-49.048,15.314c-2.651,0.832-4.451,3.279-4.451,6.053c0,67.823,34.267,84.032,52.676,92.744
					c0.864,0.397,1.782,0.599,2.718,0.599c0.925,0,1.849-0.201,2.706-0.599c18.413-8.712,52.68-24.921,52.68-92.744
					C235.39,56.383,233.587,53.936,230.938,53.104"/>
			</g>
		</g>
		<g id="shield-inner">
			<g>
				<path fill="#F48466" d="M179.412,56.85l17.293,5.403l-43.16,43.157c-5.505-9.496-9.58-21.826-9.58-37.487L179.412,56.85z
					 M179.412,130.795c12.122-5.44,34.923-23.684,35.434-61.57l-50.372,50.362C170.287,125.381,175.973,128.996,179.412,130.795"/>
			</g>
		</g>
	</g>
</g>
<g id="Layer_2">
	<g>
		<path fill="#F48466" d="M148.944,317.505v13.221c0,2.188-0.711,3.896-2.133,5.127s-3.254,1.846-5.496,1.846
			c-2.16,0-3.929-0.617-5.305-1.853c-1.376-1.235-2.064-2.941-2.064-5.12v-13.221h2.693v13.221c0,1.522,0.435,2.714,1.306,3.575
			c0.87,0.861,1.994,1.292,3.37,1.292c1.458,0,2.646-0.431,3.562-1.292s1.374-2.053,1.374-3.575v-13.221H148.944z"/>
		<path fill="#F48466" d="M156.929,330.589h-1.381v6.822h-2.693v-21.328h2.693v12.359h1.354l4.443-5.824h3.227l-5.373,6.822
			l5.838,7.971h-3.186L156.929,330.589z"/>
		<path fill="#F48466" d="M174.196,324.998l-1.381-0.082c-0.711,0-1.311,0.169-1.798,0.506c-0.488,0.337-0.864,0.812-1.128,1.422
			v10.568h-2.693v-14.793h2.406l0.26,2.16c0.419-0.766,0.937-1.362,1.552-1.791c0.615-0.428,1.324-0.643,2.126-0.643
			c0.2,0,0.392,0.016,0.574,0.048c0.182,0.032,0.333,0.066,0.451,0.103L174.196,324.998z"/>
		<path fill="#F48466" d="M186.091,337.412c-0.091-0.446-0.162-0.841-0.212-1.183c-0.05-0.342-0.08-0.686-0.089-1.032
			c-0.501,0.711-1.155,1.306-1.962,1.784s-1.675,0.718-2.604,0.718c-1.541,0-2.714-0.394-3.521-1.183
			c-0.807-0.788-1.21-1.875-1.21-3.261c0-1.413,0.572-2.518,1.716-3.315c1.144-0.797,2.695-1.196,4.655-1.196h2.926v-1.463
			c0-0.866-0.265-1.552-0.793-2.058c-0.529-0.506-1.276-0.759-2.242-0.759c-0.875,0-1.582,0.219-2.119,0.656
			c-0.538,0.438-0.807,0.962-0.807,1.572l-2.557,0.027l-0.027-0.082c-0.064-1.075,0.439-2.06,1.511-2.953
			c1.071-0.893,2.454-1.34,4.149-1.34c1.677,0,3.026,0.426,4.047,1.278c1.021,0.853,1.531,2.081,1.531,3.685v7.123
			c0,0.529,0.027,1.039,0.082,1.531s0.155,0.976,0.301,1.449H186.091z M181.62,335.443c0.975,0,1.854-0.25,2.639-0.752
			c0.784-0.501,1.294-1.075,1.531-1.723v-2.406h-3.021c-1.085,0-1.953,0.273-2.604,0.82c-0.652,0.547-0.978,1.189-0.978,1.928
			c0,0.656,0.205,1.176,0.615,1.559S180.818,335.443,181.62,335.443z"/>
		<path fill="#F48466" d="M195.306,318.832h-2.693v-2.748h2.693V318.832z M195.306,337.412h-2.693v-14.793h2.693V337.412z"/>
		<path fill="#F48466" d="M201.854,322.619l0.191,2.201c0.492-0.784,1.109-1.392,1.853-1.825c0.743-0.433,1.588-0.649,2.536-0.649
			c1.595,0,2.83,0.467,3.705,1.401c0.875,0.935,1.313,2.377,1.313,4.327v9.338h-2.693v-9.283c0-1.303-0.258-2.229-0.772-2.775
			c-0.515-0.547-1.301-0.82-2.358-0.82c-0.83,0-1.534,0.167-2.112,0.499c-0.579,0.333-1.037,0.8-1.374,1.401v10.979h-2.693v-14.793
			H201.854z"/>
		<path fill="#F48466" d="M221.487,337.699c-2.124,0-3.78-0.679-4.97-2.037c-1.189-1.358-1.784-3.145-1.784-5.359v-0.602
			c0-2.124,0.613-3.88,1.839-5.271c1.226-1.39,2.723-2.085,4.491-2.085c1.978,0,3.461,0.615,4.45,1.846
			c0.989,1.23,1.483,2.867,1.483,4.908v1.422h-9.461l-0.041,0.068c0,1.486,0.328,2.691,0.984,3.616
			c0.656,0.925,1.659,1.388,3.008,1.388c0.911,0,1.711-0.13,2.399-0.39c0.688-0.26,1.278-0.617,1.771-1.073l1.053,1.75
			c-0.529,0.511-1.226,0.941-2.092,1.292C223.752,337.523,222.708,337.699,221.487,337.699z M221.063,324.464
			c-0.939,0-1.716,0.362-2.331,1.087s-0.991,1.652-1.128,2.782l0.027,0.068h6.672v-0.219c0-1.075-0.265-1.964-0.793-2.666
			C222.982,324.815,222.166,324.464,221.063,324.464z"/>
	</g>
	<g>
		<path fill="#A7A9AC" d="M118.404,276.849h-4.964v4.325h5.811v1.278h-7.446v-12.086h7.354v1.287h-5.719v3.909h4.964V276.849z"/>
		<path fill="#A7A9AC" d="M125.332,280.036c0-0.359-0.137-0.652-0.411-0.879c-0.273-0.228-0.792-0.427-1.556-0.598
			c-1.057-0.228-1.869-0.546-2.436-0.955c-0.567-0.409-0.851-0.957-0.851-1.644c0-0.73,0.311-1.355,0.934-1.876
			c0.622-0.521,1.429-0.78,2.419-0.78c1.018,0,1.843,0.276,2.474,0.83s0.933,1.198,0.905,1.935l-0.017,0.049h-1.561
			c0-0.387-0.17-0.738-0.511-1.054c-0.34-0.315-0.771-0.474-1.291-0.474c-0.576,0-1.006,0.131-1.291,0.391
			c-0.285,0.26-0.428,0.57-0.428,0.93c0,0.354,0.123,0.628,0.369,0.822c0.247,0.193,0.754,0.37,1.523,0.531
			c1.101,0.232,1.937,0.562,2.507,0.987s0.855,0.982,0.855,1.669c0,0.797-0.322,1.446-0.967,1.95
			c-0.645,0.504-1.487,0.755-2.527,0.755c-1.146,0-2.047-0.29-2.706-0.871s-0.971-1.259-0.938-2.033l0.017-0.051h1.561
			c0.028,0.582,0.244,1.006,0.647,1.274s0.877,0.403,1.419,0.403c0.581,0,1.036-0.124,1.365-0.37
			C125.167,280.732,125.332,280.419,125.332,280.036z"/>
		<path fill="#A7A9AC" d="M130.425,271.304v2.167h1.702v1.212h-1.702v5.453c0,0.421,0.087,0.717,0.261,0.889
			c0.175,0.172,0.406,0.258,0.693,0.258c0.094,0,0.199-0.013,0.315-0.038c0.116-0.024,0.213-0.051,0.291-0.079l0.224,1.121
			c-0.122,0.1-0.302,0.182-0.54,0.245s-0.473,0.095-0.706,0.095c-0.664,0-1.192-0.2-1.585-0.602s-0.589-1.03-0.589-1.889v-5.453
			h-1.428v-1.212h1.428v-2.167H130.425z"/>
		<path fill="#A7A9AC" d="M138.548,282.452c-0.055-0.271-0.098-0.511-0.129-0.718c-0.03-0.208-0.048-0.417-0.054-0.627
			c-0.304,0.432-0.701,0.793-1.191,1.083c-0.489,0.291-1.017,0.436-1.581,0.436c-0.935,0-1.647-0.239-2.138-0.718
			c-0.489-0.479-0.734-1.139-0.734-1.979c0-0.857,0.347-1.528,1.042-2.013c0.694-0.484,1.636-0.727,2.826-0.727h1.776v-0.888
			c0-0.526-0.161-0.942-0.481-1.25c-0.321-0.307-0.775-0.461-1.361-0.461c-0.531,0-0.96,0.133-1.287,0.398s-0.49,0.584-0.49,0.955
			l-1.552,0.017l-0.017-0.05c-0.039-0.653,0.267-1.251,0.917-1.793c0.65-0.542,1.49-0.813,2.519-0.813
			c1.018,0,1.837,0.259,2.457,0.776s0.93,1.263,0.93,2.236v4.325c0,0.321,0.017,0.631,0.05,0.93s0.094,0.592,0.183,0.88H138.548z
			 M135.834,281.257c0.592,0,1.126-0.152,1.602-0.457c0.476-0.304,0.786-0.652,0.93-1.045v-1.461h-1.834
			c-0.659,0-1.186,0.166-1.582,0.498c-0.396,0.332-0.593,0.722-0.593,1.17c0,0.398,0.125,0.714,0.374,0.946
			S135.347,281.257,135.834,281.257z"/>
		<path fill="#A7A9AC" d="M149.195,278.302c0,1.295-0.311,2.34-0.934,3.134c-0.622,0.794-1.479,1.19-2.569,1.19
			c-0.598,0-1.117-0.117-1.556-0.353c-0.44-0.235-0.804-0.582-1.092-1.042l-0.266,1.221h-1.253v-12.949h1.635v5.03
			c0.282-0.398,0.632-0.703,1.05-0.913c0.418-0.21,0.906-0.315,1.465-0.315c1.107,0,1.97,0.442,2.59,1.328s0.93,2.05,0.93,3.495
			V278.302z M147.56,278.128c0-1.029-0.189-1.869-0.568-2.52c-0.379-0.65-0.956-0.976-1.731-0.976c-0.503,0-0.928,0.123-1.274,0.369
			c-0.346,0.246-0.622,0.577-0.826,0.992v3.894c0.21,0.442,0.485,0.788,0.826,1.037c0.34,0.249,0.771,0.373,1.291,0.373
			c0.769,0,1.342-0.273,1.718-0.821s0.564-1.272,0.564-2.175V278.128z"/>
		<path fill="#A7A9AC" d="M152.105,282.452h-1.635v-12.949h1.635V282.452z"/>
		<path fill="#A7A9AC" d="M155.538,271.171h-1.635v-1.668h1.635V271.171z M155.538,282.452h-1.635v-8.981h1.635V282.452z"/>
		<path fill="#A7A9AC" d="M162.424,280.036c0-0.359-0.137-0.652-0.411-0.879c-0.273-0.228-0.792-0.427-1.556-0.598
			c-1.057-0.228-1.869-0.546-2.436-0.955c-0.567-0.409-0.851-0.957-0.851-1.644c0-0.73,0.311-1.355,0.934-1.876
			c0.622-0.521,1.429-0.78,2.419-0.78c1.018,0,1.843,0.276,2.474,0.83s0.933,1.198,0.905,1.935l-0.017,0.049h-1.561
			c0-0.387-0.17-0.738-0.511-1.054c-0.34-0.315-0.771-0.474-1.291-0.474c-0.576,0-1.006,0.131-1.291,0.391
			c-0.285,0.26-0.428,0.57-0.428,0.93c0,0.354,0.123,0.628,0.369,0.822c0.247,0.193,0.754,0.37,1.523,0.531
			c1.101,0.232,1.937,0.562,2.507,0.987s0.855,0.982,0.855,1.669c0,0.797-0.322,1.446-0.967,1.95
			c-0.645,0.504-1.487,0.755-2.527,0.755c-1.146,0-2.047-0.29-2.706-0.871s-0.971-1.259-0.938-2.033l0.017-0.051h1.561
			c0.028,0.582,0.244,1.006,0.647,1.274s0.877,0.403,1.419,0.403c0.581,0,1.036-0.124,1.365-0.37
			C162.26,280.732,162.424,280.419,162.424,280.036z"/>
		<path fill="#A7A9AC" d="M166.879,274.675c0.31-0.432,0.69-0.769,1.142-1.009c0.451-0.241,0.95-0.361,1.498-0.361
			c0.958,0,1.703,0.288,2.237,0.863c0.534,0.575,0.801,1.461,0.801,2.656v5.628h-1.635v-5.645c0-0.741-0.159-1.289-0.477-1.644
			c-0.318-0.354-0.793-0.531-1.424-0.531c-0.487,0-0.91,0.096-1.27,0.286c-0.36,0.191-0.65,0.458-0.872,0.801v6.732h-1.635v-12.949
			h1.635V274.675z"/>
		<path fill="#A7A9AC" d="M175.517,273.471l0.116,1.179c0.293-0.426,0.666-0.757,1.117-0.992c0.451-0.235,0.975-0.353,1.573-0.353
			s1.111,0.139,1.54,0.415c0.429,0.276,0.751,0.691,0.967,1.245c0.288-0.515,0.663-0.92,1.125-1.216
			c0.462-0.296,1.003-0.444,1.623-0.444c0.913,0,1.635,0.314,2.167,0.942s0.797,1.572,0.797,2.834v5.371h-1.635v-5.387
			c0-0.886-0.152-1.513-0.457-1.881s-0.758-0.552-1.361-0.552c-0.559,0-1.011,0.193-1.357,0.581
			c-0.346,0.388-0.549,0.877-0.61,1.469v0.066v5.703h-1.644v-5.387c0-0.842-0.156-1.457-0.469-1.848
			c-0.313-0.39-0.763-0.585-1.349-0.585c-0.498,0-0.908,0.103-1.229,0.308c-0.321,0.204-0.567,0.492-0.739,0.863v6.648h-1.635
			v-8.981H175.517z"/>
		<path fill="#A7A9AC" d="M191.783,282.626c-1.29,0-2.295-0.412-3.017-1.236c-0.723-0.824-1.083-1.909-1.083-3.254v-0.365
			c0-1.289,0.372-2.356,1.117-3.2c0.744-0.844,1.653-1.266,2.727-1.266c1.201,0,2.102,0.374,2.702,1.12
			c0.6,0.748,0.9,1.741,0.9,2.98v0.863h-5.744l-0.025,0.041c0,0.902,0.199,1.635,0.598,2.196s1.007,0.843,1.826,0.843
			c0.553,0,1.039-0.079,1.457-0.237c0.418-0.157,0.776-0.375,1.075-0.651l0.639,1.063c-0.321,0.31-0.744,0.571-1.27,0.784
			S192.524,282.626,191.783,282.626z M191.525,274.591c-0.57,0-1.042,0.221-1.415,0.66c-0.374,0.44-0.602,1.003-0.685,1.689
			l0.017,0.041h4.051v-0.133c0-0.652-0.161-1.192-0.481-1.618S192.195,274.591,191.525,274.591z"/>
		<path fill="#A7A9AC" d="M197.573,273.471l0.116,1.337c0.299-0.477,0.674-0.846,1.125-1.108c0.451-0.263,0.964-0.395,1.54-0.395
			c0.968,0,1.718,0.283,2.25,0.851s0.797,1.443,0.797,2.627v5.67h-1.635v-5.637c0-0.791-0.156-1.353-0.469-1.685
			c-0.313-0.332-0.79-0.498-1.432-0.498c-0.503,0-0.931,0.101-1.283,0.303c-0.351,0.202-0.629,0.485-0.834,0.851v6.666h-1.635
			v-8.981H197.573z"/>
		<path fill="#A7A9AC" d="M207.199,271.304v2.167h1.702v1.212h-1.702v5.453c0,0.421,0.087,0.717,0.261,0.889
			c0.175,0.172,0.406,0.258,0.693,0.258c0.094,0,0.199-0.013,0.315-0.038c0.116-0.024,0.213-0.051,0.291-0.079l0.224,1.121
			c-0.122,0.1-0.302,0.182-0.54,0.245s-0.473,0.095-0.706,0.095c-0.664,0-1.192-0.2-1.585-0.602s-0.589-1.03-0.589-1.889v-5.453
			h-1.428v-1.212h1.428v-2.167H207.199z"/>
		<path fill="#A7A9AC" d="M212.795,277.878c0-1.328,0.36-2.422,1.079-3.282s1.696-1.291,2.93-1.291c1.245,0,2.229,0.429,2.951,1.286
			c0.722,0.858,1.083,1.954,1.083,3.287v0.184c0,1.339-0.36,2.435-1.079,3.287c-0.719,0.852-1.699,1.277-2.938,1.277
			s-2.221-0.427-2.942-1.282c-0.723-0.854-1.083-1.949-1.083-3.282V277.878z M214.431,278.062c0,0.951,0.201,1.737,0.602,2.357
			c0.401,0.619,0.998,0.93,1.789,0.93c0.78,0,1.373-0.311,1.776-0.93c0.404-0.62,0.606-1.406,0.606-2.357v-0.184
			c0-0.94-0.204-1.724-0.61-2.349c-0.407-0.625-1.003-0.938-1.789-0.938c-0.78,0-1.371,0.313-1.772,0.938
			c-0.401,0.625-0.602,1.408-0.602,2.349V278.062z"/>
		<path fill="#A7A9AC" d="M222.67,282.452v-7.77h-1.403v-1.212h1.403v-1.138c0-0.957,0.25-1.697,0.751-2.22
			c0.5-0.523,1.199-0.784,2.096-0.784c0.188,0,0.378,0.015,0.568,0.045c0.191,0.03,0.403,0.073,0.635,0.129l-0.199,1.245
			c-0.1-0.022-0.22-0.042-0.361-0.058c-0.142-0.018-0.29-0.025-0.444-0.025c-0.476,0-0.83,0.143-1.063,0.428
			s-0.349,0.698-0.349,1.24v1.138h1.627v1.212h-1.627v7.77H222.67z"/>
		<path fill="#A7A9AC" d="M235.629,282.452c-0.055-0.271-0.098-0.511-0.129-0.718c-0.03-0.208-0.048-0.417-0.054-0.627
			c-0.304,0.432-0.701,0.793-1.191,1.083c-0.489,0.291-1.017,0.436-1.581,0.436c-0.935,0-1.647-0.239-2.138-0.718
			c-0.489-0.479-0.734-1.139-0.734-1.979c0-0.857,0.347-1.528,1.042-2.013c0.694-0.484,1.636-0.727,2.826-0.727h1.776v-0.888
			c0-0.526-0.161-0.942-0.481-1.25c-0.321-0.307-0.775-0.461-1.361-0.461c-0.531,0-0.96,0.133-1.287,0.398s-0.49,0.584-0.49,0.955
			l-1.552,0.017l-0.017-0.05c-0.039-0.653,0.267-1.251,0.917-1.793c0.65-0.542,1.49-0.813,2.519-0.813
			c1.018,0,1.837,0.259,2.457,0.776s0.93,1.263,0.93,2.236v4.325c0,0.321,0.017,0.631,0.05,0.93s0.094,0.592,0.183,0.88H235.629z
			 M232.915,281.257c0.592,0,1.126-0.152,1.602-0.457c0.476-0.304,0.786-0.652,0.93-1.045v-1.461h-1.834
			c-0.659,0-1.186,0.166-1.582,0.498c-0.396,0.332-0.593,0.722-0.593,1.17c0,0.398,0.125,0.714,0.374,0.946
			S232.428,281.257,232.915,281.257z"/>
		<path fill="#A7A9AC" d="M240.067,273.471l0.116,1.337c0.299-0.477,0.674-0.846,1.125-1.108c0.451-0.263,0.964-0.395,1.54-0.395
			c0.968,0,1.718,0.283,2.25,0.851s0.797,1.443,0.797,2.627v5.67h-1.635v-5.637c0-0.791-0.156-1.353-0.469-1.685
			c-0.313-0.332-0.79-0.498-1.432-0.498c-0.503,0-0.931,0.101-1.283,0.303c-0.351,0.202-0.629,0.485-0.834,0.851v6.666h-1.635
			v-8.981H240.067z"/>
		<path fill="#A7A9AC" d="M109.073,299.739h-4.549l-1.079,3.113h-1.668l4.358-12.086h1.403l4.267,12.086h-1.668L109.073,299.739z
			 M104.997,298.37h3.611l-1.76-5.188h-0.05L104.997,298.37z"/>
		<path fill="#A7A9AC" d="M113.967,293.871l0.116,1.337c0.299-0.477,0.674-0.846,1.125-1.108c0.451-0.263,0.964-0.395,1.54-0.395
			c0.968,0,1.718,0.283,2.25,0.851s0.797,1.443,0.797,2.627v5.67h-1.635v-5.637c0-0.791-0.156-1.353-0.469-1.685
			c-0.313-0.332-0.79-0.498-1.432-0.498c-0.503,0-0.931,0.101-1.283,0.303c-0.351,0.202-0.629,0.485-0.834,0.851v6.666h-1.635
			v-8.981H113.967z"/>
		<path fill="#A7A9AC" d="M123.592,291.704v2.167h1.702v1.212h-1.702v5.453c0,0.421,0.087,0.717,0.261,0.889
			c0.175,0.172,0.406,0.258,0.693,0.258c0.094,0,0.199-0.013,0.315-0.038c0.116-0.024,0.213-0.051,0.291-0.079l0.224,1.121
			c-0.122,0.1-0.302,0.182-0.54,0.245s-0.473,0.095-0.706,0.095c-0.664,0-1.192-0.2-1.585-0.602s-0.589-1.03-0.589-1.889v-5.453
			h-1.428v-1.212h1.428v-2.167H123.592z"/>
		<path fill="#A7A9AC" d="M127.964,291.571h-1.635v-1.668h1.635V291.571z M127.964,302.853h-1.635v-8.981h1.635V302.853z"/>
		<path fill="#A7A9AC" d="M134.726,298.387h-4.897v-1.278h4.897V298.387z"/>
		<path fill="#A7A9AC" d="M145.289,298.984l0.017,0.05c0.022,1.135-0.376,2.084-1.195,2.848s-1.901,1.145-3.246,1.145
			c-1.367,0-2.48-0.483-3.341-1.452c-0.861-0.969-1.291-2.197-1.291-3.686v-2.149c0-1.489,0.43-2.719,1.291-3.69
			c0.86-0.971,1.974-1.456,3.341-1.456s2.454,0.363,3.262,1.091s1.201,1.692,1.179,2.894l-0.017,0.049h-1.569
			c0-0.846-0.249-1.516-0.747-2.008c-0.498-0.493-1.201-0.739-2.108-0.739c-0.913,0-1.641,0.368-2.183,1.104
			c-0.542,0.735-0.813,1.648-0.813,2.738v2.167c0,1.102,0.271,2.02,0.813,2.756s1.27,1.104,2.183,1.104
			c0.908,0,1.61-0.245,2.108-0.735c0.498-0.489,0.747-1.166,0.747-2.029H145.289z"/>
		<path fill="#A7A9AC" d="M145.975,298.278c0-1.328,0.36-2.422,1.079-3.282s1.696-1.291,2.93-1.291c1.245,0,2.229,0.429,2.951,1.286
			c0.722,0.858,1.083,1.954,1.083,3.287v0.184c0,1.339-0.36,2.435-1.079,3.287c-0.719,0.852-1.699,1.277-2.938,1.277
			s-2.221-0.427-2.942-1.282c-0.723-0.854-1.083-1.949-1.083-3.282V298.278z M147.61,298.462c0,0.951,0.201,1.737,0.602,2.357
			c0.401,0.619,0.998,0.93,1.789,0.93c0.78,0,1.373-0.311,1.776-0.93c0.404-0.62,0.606-1.406,0.606-2.357v-0.184
			c0-0.94-0.204-1.724-0.61-2.349c-0.407-0.625-1.003-0.938-1.789-0.938c-0.78,0-1.371,0.313-1.772,0.938
			c-0.401,0.625-0.602,1.408-0.602,2.349V298.462z"/>
		<path fill="#A7A9AC" d="M159.418,295.315l-0.838-0.05c-0.432,0-0.795,0.103-1.092,0.308c-0.296,0.204-0.524,0.492-0.685,0.863
			v6.416h-1.635v-8.981h1.461l0.158,1.312c0.254-0.465,0.568-0.827,0.942-1.088c0.373-0.26,0.804-0.39,1.291-0.39
			c0.122,0,0.238,0.01,0.349,0.029s0.202,0.04,0.274,0.062L159.418,295.315z"/>
		<path fill="#A7A9AC" d="M164.521,295.315l-0.838-0.05c-0.432,0-0.795,0.103-1.092,0.308c-0.296,0.204-0.524,0.492-0.685,0.863
			v6.416h-1.635v-8.981h1.461l0.158,1.312c0.254-0.465,0.568-0.827,0.942-1.088c0.373-0.26,0.804-0.39,1.291-0.39
			c0.122,0,0.238,0.01,0.349,0.029s0.202,0.04,0.274,0.062L164.521,295.315z"/>
		<path fill="#A7A9AC" d="M171.075,301.524c-0.282,0.481-0.645,0.853-1.087,1.112s-0.955,0.39-1.536,0.39
			c-0.979,0-1.743-0.313-2.291-0.938s-0.822-1.6-0.822-2.922v-5.296h1.635v5.313c0,0.957,0.141,1.616,0.423,1.976
			s0.722,0.539,1.32,0.539c0.581,0,1.061-0.117,1.44-0.353c0.379-0.235,0.665-0.568,0.859-1v-6.475h1.635v8.981h-1.469
			L171.075,301.524z"/>
		<path fill="#A7A9AC" d="M181.837,298.702c0,1.295-0.31,2.34-0.93,3.134s-1.475,1.19-2.565,1.19c-0.553,0-1.039-0.092-1.457-0.277
			c-0.417-0.186-0.773-0.464-1.066-0.834v4.391h-1.635v-12.435h1.253l0.257,1.162c0.293-0.432,0.659-0.761,1.096-0.987
			c0.437-0.228,0.946-0.341,1.527-0.341c1.112,0,1.977,0.441,2.594,1.324c0.617,0.883,0.925,2.049,0.925,3.499V298.702z
			 M180.202,298.528c0-1.019-0.201-1.855-0.602-2.512c-0.401-0.655-0.992-0.983-1.772-0.983c-0.47,0-0.872,0.106-1.204,0.319
			s-0.601,0.505-0.805,0.876v4.341c0.205,0.371,0.473,0.66,0.805,0.868c0.332,0.207,0.739,0.312,1.22,0.312
			c0.775,0,1.361-0.284,1.76-0.852s0.598-1.299,0.598-2.195V298.528z"/>
		<path fill="#A7A9AC" d="M185.271,291.704v2.167h1.702v1.212h-1.702v5.453c0,0.421,0.087,0.717,0.261,0.889
			c0.175,0.172,0.406,0.258,0.693,0.258c0.094,0,0.199-0.013,0.315-0.038c0.116-0.024,0.213-0.051,0.291-0.079l0.224,1.121
			c-0.122,0.1-0.302,0.182-0.54,0.245s-0.473,0.095-0.706,0.095c-0.664,0-1.192-0.2-1.585-0.602s-0.589-1.03-0.589-1.889v-5.453
			h-1.428v-1.212h1.428v-2.167H185.271z"/>
		<path fill="#A7A9AC" d="M189.642,291.571h-1.635v-1.668h1.635V291.571z M189.642,302.853h-1.635v-8.981h1.635V302.853z"/>
		<path fill="#A7A9AC" d="M190.925,298.278c0-1.328,0.36-2.422,1.079-3.282s1.696-1.291,2.93-1.291c1.245,0,2.229,0.429,2.951,1.286
			c0.722,0.858,1.083,1.954,1.083,3.287v0.184c0,1.339-0.36,2.435-1.079,3.287c-0.719,0.852-1.699,1.277-2.938,1.277
			s-2.221-0.427-2.942-1.282c-0.723-0.854-1.083-1.949-1.083-3.282V298.278z M192.561,298.462c0,0.951,0.201,1.737,0.602,2.357
			c0.401,0.619,0.998,0.93,1.789,0.93c0.78,0,1.373-0.311,1.776-0.93c0.404-0.62,0.606-1.406,0.606-2.357v-0.184
			c0-0.94-0.204-1.724-0.61-2.349c-0.407-0.625-1.003-0.938-1.789-0.938c-0.78,0-1.371,0.313-1.772,0.938
			c-0.401,0.625-0.602,1.408-0.602,2.349V298.462z"/>
		<path fill="#A7A9AC" d="M201.58,293.871l0.116,1.337c0.299-0.477,0.674-0.846,1.125-1.108c0.451-0.263,0.964-0.395,1.54-0.395
			c0.968,0,1.718,0.283,2.25,0.851s0.797,1.443,0.797,2.627v5.67h-1.635v-5.637c0-0.791-0.156-1.353-0.469-1.685
			c-0.313-0.332-0.79-0.498-1.432-0.498c-0.503,0-0.931,0.101-1.283,0.303c-0.351,0.202-0.629,0.485-0.834,0.851v6.666h-1.635
			v-8.981H201.58z"/>
		<path fill="#A7A9AC" d="M218.972,299.806c0-0.547-0.196-1.007-0.589-1.377c-0.393-0.371-1.084-0.687-2.075-0.947
			c-1.229-0.304-2.187-0.752-2.876-1.344c-0.688-0.593-1.033-1.337-1.033-2.233c0-0.946,0.371-1.735,1.112-2.366
			s1.705-0.945,2.889-0.945c1.273,0,2.287,0.36,3.042,1.083c0.756,0.722,1.122,1.564,1.1,2.527l-0.025,0.05h-1.561
			c0-0.687-0.239-1.254-0.718-1.701c-0.479-0.449-1.092-0.673-1.839-0.673c-0.764,0-1.349,0.186-1.756,0.556
			c-0.406,0.371-0.61,0.853-0.61,1.445c0,0.525,0.223,0.964,0.668,1.315c0.445,0.352,1.169,0.659,2.17,0.925
			c1.217,0.316,2.145,0.781,2.781,1.395c0.636,0.615,0.955,1.373,0.955,2.275c0,0.974-0.383,1.757-1.15,2.349
			c-0.766,0.592-1.767,0.888-3,0.888c-1.167,0-2.198-0.326-3.092-0.979c-0.894-0.653-1.327-1.527-1.299-2.623l0.017-0.051h1.561
			c0,0.759,0.288,1.344,0.863,1.756s1.226,0.619,1.951,0.619c0.775,0,1.388-0.175,1.838-0.523
			C218.746,300.877,218.972,300.403,218.972,299.806z"/>
		<path fill="#A7A9AC" d="M225.418,301.749c0.503,0,0.943-0.168,1.32-0.503s0.564-0.745,0.564-1.232h1.478l0.025,0.05
			c0.022,0.774-0.31,1.462-0.996,2.063s-1.483,0.9-2.391,0.9c-1.262,0-2.236-0.429-2.922-1.286s-1.029-1.926-1.029-3.204v-0.349
			c0-1.268,0.344-2.331,1.034-3.191c0.688-0.86,1.661-1.291,2.917-1.291c1.001,0,1.822,0.31,2.461,0.93
			c0.639,0.62,0.947,1.381,0.925,2.282l-0.017,0.051h-1.486c0-0.549-0.179-1.015-0.535-1.399c-0.357-0.385-0.807-0.577-1.349-0.577
			c-0.802,0-1.388,0.312-1.755,0.935c-0.368,0.622-0.552,1.376-0.552,2.262v0.349c0,0.902,0.181,1.663,0.543,2.283
			C224.017,301.438,224.604,301.749,225.418,301.749z"/>
		<path fill="#A7A9AC" d="M231.533,295.075c0.31-0.432,0.69-0.769,1.142-1.009c0.451-0.241,0.95-0.361,1.498-0.361
			c0.958,0,1.703,0.288,2.237,0.863c0.534,0.575,0.801,1.461,0.801,2.656v5.628h-1.635v-5.645c0-0.741-0.159-1.289-0.477-1.644
			c-0.318-0.354-0.793-0.531-1.424-0.531c-0.487,0-0.91,0.096-1.27,0.286c-0.36,0.191-0.65,0.458-0.872,0.801v6.732h-1.635v-12.949
			h1.635V295.075z"/>
		<path fill="#A7A9AC" d="M238.328,298.278c0-1.328,0.36-2.422,1.079-3.282s1.696-1.291,2.93-1.291c1.245,0,2.229,0.429,2.951,1.286
			c0.722,0.858,1.083,1.954,1.083,3.287v0.184c0,1.339-0.36,2.435-1.079,3.287c-0.719,0.852-1.699,1.277-2.938,1.277
			s-2.221-0.427-2.942-1.282c-0.723-0.854-1.083-1.949-1.083-3.282V298.278z M239.963,298.462c0,0.951,0.201,1.737,0.602,2.357
			c0.401,0.619,0.998,0.93,1.789,0.93c0.78,0,1.373-0.311,1.776-0.93c0.404-0.62,0.606-1.406,0.606-2.357v-0.184
			c0-0.94-0.204-1.724-0.61-2.349c-0.407-0.625-1.003-0.938-1.789-0.938c-0.78,0-1.371,0.313-1.772,0.938
			c-0.401,0.625-0.602,1.408-0.602,2.349V298.462z"/>
		<path fill="#A7A9AC" d="M247.14,298.278c0-1.328,0.36-2.422,1.079-3.282s1.696-1.291,2.93-1.291c1.245,0,2.229,0.429,2.951,1.286
			c0.722,0.858,1.083,1.954,1.083,3.287v0.184c0,1.339-0.36,2.435-1.079,3.287c-0.719,0.852-1.699,1.277-2.938,1.277
			s-2.221-0.427-2.942-1.282c-0.723-0.854-1.083-1.949-1.083-3.282V298.278z M248.775,298.462c0,0.951,0.201,1.737,0.602,2.357
			c0.401,0.619,0.998,0.93,1.789,0.93c0.78,0,1.373-0.311,1.776-0.93c0.404-0.62,0.606-1.406,0.606-2.357v-0.184
			c0-0.94-0.204-1.724-0.61-2.349c-0.407-0.625-1.003-0.938-1.789-0.938c-0.78,0-1.371,0.313-1.772,0.938
			c-0.401,0.625-0.602,1.408-0.602,2.349V298.462z"/>
		<path fill="#A7A9AC" d="M258.102,302.853h-1.635v-12.949h1.635V302.853z"/>
	</g>
	<g>
		<g>
			<path fill="#A6A8AB" d="M71.897,243.87h-0.786v-9.538h0.786V243.87z"/>
			<path fill="#A6A8AB" d="M81.298,243.87h-0.786l-5.417-8.162l-0.04,0.006v8.155h-0.786v-9.538h0.786l5.417,8.143l0.04-0.007
				v-8.136h0.786V243.87z"/>
			<path fill="#A6A8AB" d="M86.46,243.87v-9.538h2.908c1.166,0,2.13,0.389,2.892,1.166s1.143,1.775,1.143,2.994v1.225
				c0,1.218-0.381,2.215-1.143,2.99c-0.762,0.775-1.726,1.163-2.892,1.163H86.46z M87.246,235.001v8.208h2.122
				c0.943,0,1.721-0.33,2.332-0.989c0.611-0.659,0.917-1.493,0.917-2.502v-1.245c0-0.996-0.307-1.823-0.92-2.483
				c-0.614-0.659-1.39-0.989-2.329-0.989H87.246z"/>
			<path fill="#A6A8AB" d="M101.919,234.333v6.334c0,1.048-0.321,1.867-0.963,2.457c-0.642,0.589-1.467,0.884-2.476,0.884
				c-0.996,0-1.809-0.296-2.44-0.888s-0.946-1.409-0.946-2.453v-6.334h0.786v6.334c0,0.821,0.244,1.473,0.73,1.955
				c0.487,0.483,1.11,0.724,1.87,0.724c0.777,0,1.415-0.24,1.913-0.721s0.747-1.133,0.747-1.958v-6.334H101.919z"/>
			<path fill="#A6A8AB" d="M103.95,243.87v-9.538h2.784c0.992,0,1.765,0.209,2.319,0.626s0.832,1.044,0.832,1.883
				c0,0.476-0.135,0.894-0.403,1.251s-0.63,0.611-1.084,0.76c0.603,0.074,1.095,0.336,1.478,0.786
				c0.382,0.45,0.573,0.976,0.573,1.579c0,0.852-0.276,1.506-0.829,1.965s-1.292,0.688-2.217,0.688H103.95z M104.736,238.61h2.292
				c0.659-0.013,1.169-0.171,1.53-0.475c0.36-0.304,0.541-0.744,0.541-1.32c0-0.603-0.201-1.056-0.603-1.359
				c-0.402-0.303-0.989-0.455-1.763-0.455h-1.998V238.61z M104.736,239.271v3.937h2.666c0.703,0,1.255-0.173,1.657-0.521
				s0.603-0.833,0.603-1.458c0-0.572-0.198-1.036-0.593-1.392c-0.396-0.356-0.925-0.545-1.589-0.567h-0.104H104.736z"/>
			<path fill="#A6A8AB" d="M112.944,243.87h-0.786v-9.538h0.786V243.87z"/>
			<path fill="#A6A8AB" d="M122.311,239.881c0,1.231-0.337,2.227-1.012,2.987c-0.674,0.76-1.58,1.14-2.715,1.14
				c-1.118,0-2.01-0.38-2.676-1.14c-0.666-0.76-0.999-1.755-0.999-2.987v-1.552c0-1.227,0.332-2.223,0.996-2.987
				c0.664-0.764,1.555-1.146,2.672-1.146c1.136,0,2.042,0.382,2.719,1.146c0.677,0.765,1.015,1.76,1.015,2.987V239.881z
				 M121.532,238.315c0-1.031-0.261-1.86-0.783-2.489c-0.522-0.629-1.246-0.943-2.172-0.943c-0.908,0-1.615,0.314-2.122,0.943
				s-0.76,1.458-0.76,2.489v1.565c0,1.04,0.254,1.874,0.763,2.502s1.218,0.943,2.126,0.943c0.93,0,1.654-0.313,2.171-0.94
				c0.518-0.626,0.776-1.461,0.776-2.505V238.315z"/>
			<path fill="#A6A8AB" d="M130.774,234.333v6.334c0,1.048-0.321,1.867-0.963,2.457c-0.642,0.589-1.467,0.884-2.476,0.884
				c-0.996,0-1.81-0.296-2.44-0.888s-0.946-1.409-0.946-2.453v-6.334h0.786v6.334c0,0.821,0.243,1.473,0.73,1.955
				c0.486,0.483,1.11,0.724,1.87,0.724c0.777,0,1.415-0.24,1.913-0.721c0.498-0.48,0.747-1.133,0.747-1.958v-6.334H130.774z"/>
			<path fill="#A6A8AB" d="M138.184,241.551c0-0.489-0.194-0.893-0.583-1.212s-1.048-0.618-1.979-0.897
				c-1.018-0.279-1.792-0.627-2.322-1.044c-0.53-0.417-0.796-0.984-0.796-1.7c0-0.729,0.297-1.329,0.891-1.798
				s1.352-0.704,2.273-0.704c0.97,0,1.749,0.265,2.339,0.796c0.589,0.53,0.875,1.204,0.858,2.021l-0.013,0.04h-0.733
				c0-0.629-0.229-1.151-0.685-1.566c-0.457-0.415-1.045-0.622-1.766-0.622c-0.742,0-1.324,0.176-1.746,0.527
				s-0.632,0.783-0.632,1.293c0,0.485,0.191,0.883,0.573,1.196c0.382,0.312,1.056,0.604,2.021,0.875
				c1.004,0.292,1.771,0.653,2.299,1.081c0.528,0.428,0.792,0.996,0.792,1.703c0,0.743-0.309,1.34-0.927,1.792
				c-0.618,0.452-1.396,0.678-2.335,0.678s-1.758-0.239-2.456-0.717c-0.699-0.479-1.038-1.176-1.016-2.093l0.013-0.04h0.727
				c0,0.738,0.277,1.287,0.832,1.647s1.188,0.541,1.899,0.541c0.729,0,1.323-0.167,1.782-0.501
				C137.954,242.511,138.184,242.08,138.184,241.551z"/>
			<path fill="#A6A8AB" d="M150.197,240.89l0.013,0.04c0.017,0.935-0.288,1.681-0.917,2.24c-0.629,0.559-1.454,0.838-2.476,0.838
				c-1.062,0-1.917-0.383-2.568-1.15c-0.651-0.766-0.976-1.759-0.976-2.977v-1.552c0-1.214,0.325-2.207,0.976-2.978
				c0.651-0.771,1.506-1.156,2.568-1.156c1.035,0,1.863,0.273,2.486,0.819s0.924,1.297,0.907,2.253l-0.013,0.04h-0.733
				c0-0.769-0.235-1.368-0.704-1.798c-0.47-0.43-1.117-0.645-1.942-0.645c-0.834,0-1.503,0.323-2.008,0.969
				c-0.504,0.646-0.757,1.474-0.757,2.483v1.565c0,1.022,0.252,1.855,0.757,2.499s1.174,0.966,2.008,0.966
				c0.825,0,1.473-0.21,1.942-0.629c0.469-0.419,0.704-1.028,0.704-1.828H150.197z"/>
			<path fill="#A6A8AB" d="M158.956,239.881c0,1.231-0.337,2.227-1.012,2.987c-0.674,0.76-1.58,1.14-2.715,1.14
				c-1.118,0-2.01-0.38-2.676-1.14c-0.666-0.76-0.999-1.755-0.999-2.987v-1.552c0-1.227,0.332-2.223,0.996-2.987
				c0.664-0.764,1.555-1.146,2.672-1.146c1.136,0,2.042,0.382,2.719,1.146c0.677,0.765,1.015,1.76,1.015,2.987V239.881z
				 M158.176,238.315c0-1.031-0.261-1.86-0.783-2.489c-0.522-0.629-1.246-0.943-2.172-0.943c-0.908,0-1.615,0.314-2.122,0.943
				s-0.76,1.458-0.76,2.489v1.565c0,1.04,0.254,1.874,0.763,2.502s1.218,0.943,2.126,0.943c0.93,0,1.654-0.313,2.171-0.94
				c0.518-0.626,0.776-1.461,0.776-2.505V238.315z"/>
			<path fill="#A6A8AB" d="M167.747,243.87h-0.786l-5.417-8.162l-0.039,0.006v8.155h-0.786v-9.538h0.786l5.417,8.143l0.04-0.007
				v-8.136h0.786V243.87z"/>
			<path fill="#A6A8AB" d="M176.21,235.001h-3.249v8.869h-0.779v-8.869h-3.36v-0.668h7.389V235.001z"/>
			<path fill="#A6A8AB" d="M178.241,239.56v4.31h-0.786v-9.531h3.177c1.021,0,1.806,0.224,2.352,0.671s0.819,1.102,0.819,1.962
				c0,0.506-0.145,0.959-0.436,1.359c-0.291,0.4-0.702,0.691-1.235,0.875c0.59,0.148,1.014,0.414,1.274,0.796
				c0.26,0.382,0.39,0.861,0.39,1.438v0.897c0,0.297,0.035,0.563,0.104,0.799c0.07,0.236,0.186,0.428,0.347,0.577v0.157h-0.799
				c-0.161-0.157-0.275-0.377-0.34-0.662c-0.066-0.284-0.098-0.579-0.098-0.884v-0.871c0-0.585-0.189-1.047-0.567-1.386
				c-0.377-0.338-0.905-0.507-1.582-0.507H178.241z M178.241,238.892h2.299c0.86,0,1.489-0.173,1.887-0.521s0.596-0.815,0.596-1.405
				c0-0.629-0.197-1.112-0.593-1.451c-0.395-0.338-0.994-0.508-1.798-0.508h-2.391V238.892z"/>
			<path fill="#A6A8AB" d="M190.949,241.21h-4.186l-0.963,2.66h-0.812l3.504-9.538h0.74l3.479,9.538h-0.813L190.949,241.21z
				 M187.012,240.51h3.682l-1.808-5.057h-0.04L187.012,240.51z"/>
			<path fill="#A6A8AB" d="M200.414,240.89l0.014,0.04c0.017,0.935-0.288,1.681-0.917,2.24c-0.629,0.559-1.454,0.838-2.477,0.838
				c-1.061,0-1.917-0.383-2.567-1.15c-0.651-0.766-0.976-1.759-0.976-2.977v-1.552c0-1.214,0.325-2.207,0.976-2.978
				c0.65-0.771,1.506-1.156,2.567-1.156c1.035,0,1.864,0.273,2.486,0.819c0.622,0.546,0.924,1.297,0.907,2.253l-0.014,0.04h-0.733
				c0-0.769-0.234-1.368-0.704-1.798c-0.47-0.43-1.117-0.645-1.942-0.645c-0.834,0-1.503,0.323-2.008,0.969
				c-0.504,0.646-0.756,1.474-0.756,2.483v1.565c0,1.022,0.252,1.855,0.756,2.499c0.505,0.644,1.174,0.966,2.008,0.966
				c0.826,0,1.473-0.21,1.942-0.629c0.47-0.419,0.704-1.028,0.704-1.828H200.414z"/>
			<path fill="#A6A8AB" d="M208.472,235.001h-3.249v8.869h-0.779v-8.869h-3.36v-0.668h7.389V235.001z"/>
			<path fill="#A6A8AB" d="M215.009,241.551c0-0.489-0.194-0.893-0.583-1.212s-1.048-0.618-1.978-0.897
				c-1.018-0.279-1.792-0.627-2.322-1.044s-0.796-0.984-0.796-1.7c0-0.729,0.297-1.329,0.891-1.798
				c0.594-0.469,1.352-0.704,2.273-0.704c0.969,0,1.749,0.265,2.338,0.796c0.589,0.53,0.875,1.204,0.858,2.021l-0.013,0.04h-0.734
				c0-0.629-0.228-1.151-0.685-1.566c-0.457-0.415-1.044-0.622-1.765-0.622c-0.743,0-1.324,0.176-1.746,0.527
				c-0.421,0.352-0.632,0.783-0.632,1.293c0,0.485,0.191,0.883,0.573,1.196c0.382,0.312,1.056,0.604,2.021,0.875
				c1.005,0.292,1.771,0.653,2.299,1.081c0.528,0.428,0.792,0.996,0.792,1.703c0,0.743-0.309,1.34-0.927,1.792
				c-0.618,0.452-1.396,0.678-2.335,0.678c-0.939,0-1.758-0.239-2.457-0.717c-0.699-0.479-1.038-1.176-1.015-2.093l0.013-0.04h0.728
				c0,0.738,0.277,1.287,0.832,1.647c0.555,0.36,1.188,0.541,1.9,0.541c0.729,0,1.323-0.167,1.781-0.501
				C214.78,242.511,215.009,242.08,215.009,241.551z"/>
			<path fill="#A6A8AB" d="M227.023,240.89l0.013,0.04c0.018,0.935-0.288,1.681-0.917,2.24c-0.629,0.559-1.454,0.838-2.476,0.838
				c-1.062,0-1.917-0.383-2.568-1.15c-0.65-0.766-0.976-1.759-0.976-2.977v-1.552c0-1.214,0.325-2.207,0.976-2.978
				c0.651-0.771,1.507-1.156,2.568-1.156c1.035,0,1.863,0.273,2.485,0.819c0.623,0.546,0.925,1.297,0.907,2.253l-0.013,0.04h-0.734
				c0-0.769-0.235-1.368-0.704-1.798c-0.469-0.43-1.117-0.645-1.942-0.645c-0.834,0-1.504,0.323-2.008,0.969
				c-0.505,0.646-0.757,1.474-0.757,2.483v1.565c0,1.022,0.252,1.855,0.757,2.499c0.504,0.644,1.173,0.966,2.008,0.966
				c0.825,0,1.473-0.21,1.942-0.629c0.469-0.419,0.704-1.028,0.704-1.828H227.023z"/>
			<path fill="#A6A8AB" d="M233.777,241.21h-4.186l-0.963,2.66h-0.813l3.504-9.538h0.74l3.478,9.538h-0.812L233.777,241.21z
				 M229.84,240.51h3.681l-1.808-5.057h-0.039L229.84,240.51z"/>
			<path fill="#A6A8AB" d="M243.773,243.87h-0.786l-5.417-8.162l-0.04,0.006v8.155h-0.786v-9.538h0.786l5.417,8.143l0.039-0.007
				v-8.136h0.786V243.87z"/>
			<path fill="#A6A8AB" d="M252.512,240.89l0.013,0.04c0.017,0.935-0.288,1.681-0.917,2.24c-0.629,0.559-1.454,0.838-2.476,0.838
				c-1.062,0-1.917-0.383-2.568-1.15c-0.651-0.766-0.976-1.759-0.976-2.977v-1.552c0-1.214,0.325-2.207,0.976-2.978
				c0.651-0.771,1.506-1.156,2.568-1.156c1.035,0,1.863,0.273,2.486,0.819s0.924,1.297,0.907,2.253l-0.013,0.04h-0.733
				c0-0.769-0.235-1.368-0.704-1.798c-0.47-0.43-1.117-0.645-1.942-0.645c-0.834,0-1.503,0.323-2.008,0.969
				c-0.504,0.646-0.757,1.474-0.757,2.483v1.565c0,1.022,0.252,1.855,0.757,2.499s1.174,0.966,2.008,0.966
				c0.825,0,1.473-0.21,1.942-0.629c0.469-0.419,0.704-1.028,0.704-1.828H252.512z"/>
			<path fill="#A6A8AB" d="M259.337,239.252h-4.277v3.957h4.946v0.662h-5.732v-9.538h5.699v0.668h-4.913v3.583h4.277V239.252z"/>
			<path fill="#A6A8AB" d="M262.188,243.208h4.926v0.662h-5.712v-9.538h0.786V243.208z"/>
			<path fill="#A6A8AB" d="M269.308,243.208h4.926v0.662h-5.712v-9.538h0.786V243.208z"/>
			<path fill="#A6A8AB" d="M280.706,239.252h-4.277v3.957h4.945v0.662h-5.731v-9.538h5.699v0.668h-4.913v3.583h4.277V239.252z"/>
			<path fill="#A6A8AB" d="M282.77,243.87v-9.538h2.908c1.166,0,2.13,0.389,2.892,1.166s1.143,1.775,1.143,2.994v1.225
				c0,1.218-0.381,2.215-1.143,2.99c-0.762,0.775-1.726,1.163-2.892,1.163H282.77z M283.556,235.001v8.208h2.122
				c0.943,0,1.721-0.33,2.332-0.989c0.611-0.659,0.917-1.493,0.917-2.502v-1.245c0-0.996-0.307-1.823-0.92-2.483
				c-0.614-0.659-1.39-0.989-2.329-0.989H283.556z"/>
		</g>
		<g>
			<path fill="#F48466" d="M92.413,181.905v17.775c-0.023,2.669-0.758,4.711-2.204,6.128s-3.521,2.125-6.225,2.125
				c-2.751,0-4.853-0.717-6.304-2.151c-1.452-1.434-2.178-3.509-2.178-6.225v-17.651h5.219v17.669c0,1.458,0.235,2.499,0.706,3.121
				c0.47,0.624,1.322,0.935,2.557,0.935s2.081-0.309,2.539-0.926s0.693-1.631,0.706-3.042v-17.757H92.413z"/>
			<path fill="#F48466" d="M107.19,200.844c0-1.046-0.268-1.836-0.803-2.372c-0.535-0.535-1.508-1.09-2.918-1.667
				c-2.575-0.976-4.426-2.119-5.555-3.43c-1.129-1.311-1.693-2.859-1.693-4.646c0-2.163,0.768-3.9,2.302-5.211
				c1.534-1.311,3.482-1.966,5.845-1.966c1.575,0,2.98,0.332,4.214,0.996c1.234,0.665,2.184,1.602,2.848,2.813
				c0.664,1.211,0.997,2.586,0.997,4.126h-5.167c0-1.199-0.256-2.113-0.767-2.742c-0.511-0.628-1.25-0.943-2.213-0.943
				c-0.905,0-1.61,0.268-2.116,0.802c-0.505,0.535-0.758,1.255-0.758,2.16c0,0.706,0.282,1.343,0.847,1.914
				c0.564,0.57,1.563,1.161,2.998,1.772c2.504,0.905,4.323,2.017,5.458,3.333s1.702,2.992,1.702,5.025
				c0,2.234-0.711,3.979-2.133,5.237c-1.423,1.258-3.356,1.887-5.802,1.887c-1.658,0-3.168-0.341-4.532-1.022
				c-1.363-0.682-2.431-1.658-3.2-2.927c-0.771-1.27-1.155-2.769-1.155-4.497h5.202c0,1.481,0.288,2.557,0.864,3.227
				c0.576,0.67,1.517,1.005,2.821,1.005C106.285,203.718,107.19,202.76,107.19,200.844z"/>
			<path fill="#F48466" d="M125.371,200.809c0-0.976-0.2-1.746-0.6-2.31c-0.4-0.564-1.058-1.093-1.975-1.587
				c-1.799-0.799-3.13-1.566-3.994-2.301c-0.864-0.734-1.508-1.575-1.931-2.521c-0.423-0.946-0.635-2.072-0.635-3.377
				c0-1.951,0.541-3.565,1.622-4.84s2.51-2.031,4.285-2.266v-3.773h2.663v3.844c1.763,0.341,3.136,1.234,4.118,2.68
				s1.473,3.28,1.473,5.501h-4.991c0-1.411-0.203-2.462-0.608-3.156c-0.406-0.693-0.932-1.041-1.578-1.041
				c-0.624,0-1.111,0.271-1.463,0.812c-0.353,0.541-0.529,1.293-0.529,2.257c0,0.835,0.182,1.528,0.547,2.081
				c0.364,0.553,1.058,1.128,2.081,1.728c1.881,0.894,3.236,1.708,4.065,2.442c0.828,0.735,1.442,1.566,1.843,2.495
				c0.399,0.929,0.599,2.028,0.599,3.297c0,1.987-0.526,3.604-1.578,4.849c-1.052,1.247-2.507,1.993-4.365,2.24v3.509h-2.645v-3.509
				c-2.034-0.294-3.604-1.161-4.708-2.601c-1.105-1.44-1.658-3.359-1.658-5.757h4.99c0,1.387,0.224,2.454,0.67,3.2
				c0.447,0.747,1.117,1.12,2.01,1.12c0.717,0,1.278-0.268,1.684-0.802C125.168,202.487,125.371,201.75,125.371,200.809z"/>
			<path fill="#F48466" d="M144.715,207.58h-5.008v-19.609l-4.885,1.887v-4.161l9.363-3.827h0.529V207.58z"/>
			<path fill="#F48466" d="M152.544,205.041c0-0.799,0.267-1.458,0.802-1.975c0.535-0.517,1.231-0.776,2.09-0.776
				c0.834,0,1.528,0.255,2.081,0.767c0.552,0.511,0.829,1.172,0.829,1.984c0,0.823-0.279,1.484-0.837,1.983
				c-0.559,0.5-1.25,0.75-2.072,0.75c-0.835,0-1.525-0.252-2.072-0.758C152.817,206.51,152.544,205.852,152.544,205.041z"/>
			<path fill="#F48466" d="M177.637,207.58h-15.129v-3.497l6.948-8.865c0.882-1.227,1.531-2.304,1.948-3.23s0.626-1.814,0.626-2.664
				c0-1.145-0.197-2.042-0.591-2.69c-0.394-0.649-0.961-0.974-1.701-0.974c-0.812,0-1.455,0.379-1.931,1.138
				c-0.476,0.758-0.714,1.825-0.714,3.2h-5.008c0-1.575,0.326-3.015,0.979-4.32c0.652-1.305,1.569-2.319,2.751-3.042
				c1.182-0.723,2.519-1.084,4.012-1.084c2.292,0,4.07,0.632,5.334,1.896s1.896,3.06,1.896,5.387c0,1.446-0.35,2.913-1.049,4.399
				c-0.699,1.487-1.966,3.323-3.8,5.507l-3.298,4.729h8.729V207.58z"/>
			<path fill="#F48466" d="M193.931,188.5l0.141,1.763c1.117-1.411,2.592-2.116,4.426-2.116c1.904,0,3.25,0.858,4.038,2.575
				c1.093-1.716,2.65-2.575,4.673-2.575c3.339,0,5.049,2.31,5.131,6.93v12.502h-4.99v-12.185c0-1.105-0.153-1.893-0.458-2.363
				s-0.823-0.706-1.552-0.706c-0.929,0-1.622,0.57-2.081,1.71l0.035,0.6v12.943h-4.99v-12.15c0-1.093-0.147-1.884-0.44-2.372
				c-0.294-0.488-0.817-0.732-1.569-0.732c-0.858,0-1.541,0.465-2.046,1.393v13.86h-4.99V188.5H193.931z"/>
			<path fill="#F48466" d="M216.025,183.563c0-0.776,0.247-1.411,0.741-1.905c0.493-0.494,1.152-0.74,1.975-0.74
				s1.481,0.247,1.975,0.74c0.494,0.494,0.741,1.129,0.741,1.905c0,0.764-0.244,1.399-0.732,1.904
				c-0.488,0.506-1.149,0.758-1.984,0.758s-1.496-0.252-1.983-0.758C216.27,184.962,216.025,184.327,216.025,183.563z
				 M221.263,207.58h-5.008V188.5h5.008V207.58z"/>
			<path fill="#F48466" d="M230.362,207.58h-5.008v-27.085h5.008V207.58z"/>
			<path fill="#F48466" d="M239.461,207.58h-5.008v-27.085h5.008V207.58z"/>
			<path fill="#F48466" d="M243.323,183.563c0-0.776,0.247-1.411,0.741-1.905c0.494-0.494,1.152-0.74,1.975-0.74
				s1.481,0.247,1.975,0.74c0.493,0.494,0.74,1.129,0.74,1.905c0,0.764-0.244,1.399-0.731,1.904
				c-0.488,0.506-1.149,0.758-1.984,0.758c-0.835,0-1.497-0.252-1.984-0.758C243.566,184.962,243.323,184.327,243.323,183.563z
				 M248.56,207.58h-5.008V188.5h5.008V207.58z"/>
			<path fill="#F48466" d="M251.84,197.423c0-2.892,0.682-5.161,2.045-6.807c1.364-1.646,3.25-2.469,5.661-2.469
				c2.434,0,4.332,0.823,5.695,2.469c1.364,1.646,2.046,3.927,2.046,6.842v1.216c0,2.904-0.676,5.173-2.028,6.807
				c-1.352,1.634-3.244,2.451-5.678,2.451c-2.445,0-4.347-0.82-5.705-2.46c-1.358-1.64-2.037-3.917-2.037-6.833V197.423z
				 M256.848,198.679c0,3.431,0.911,5.146,2.733,5.146c1.681,0,2.586-1.431,2.716-4.293l0.018-2.112c0-1.75-0.241-3.048-0.723-3.894
				s-1.164-1.269-2.045-1.269c-0.847,0-1.508,0.423-1.984,1.269s-0.714,2.144-0.714,3.894V198.679z"/>
			<path fill="#F48466" d="M274.958,188.5l0.141,1.887c1.129-1.493,2.604-2.24,4.427-2.24c3.279,0,4.966,2.299,5.061,6.895v12.538
				h-5.008v-12.167c0-1.081-0.162-1.866-0.485-2.354s-0.891-0.732-1.701-0.732c-0.905,0-1.611,0.465-2.116,1.393v13.86h-5.008V188.5
				H274.958z"/>
		</g>
		<g>
			<rect x="69.321" y="219.365" fill="#F48466" width="221.357" height="3"/>
		</g>
	</g>
</g>
</svg>
