<?xml version="1.0" encoding="utf-8"?>
<!-- Generator: Adobe Illustrator 16.0.0, SVG Export Plug-In . SVG Version: 6.00 Build 0)  -->
<!DOCTYPE svg PUBLIC "-//W3C//DTD SVG 1.1//EN" "http://www.w3.org/Graphics/SVG/1.1/DTD/svg11.dtd">
<svg version="1.1" id="Layer_1" xmlns="http://www.w3.org/2000/svg" xmlns:xlink="http://www.w3.org/1999/xlink" x="0px" y="0px"
	 width="360px" height="190px" viewBox="0 0 360 190" enable-background="new 0 0 360 190" xml:space="preserve">
<g>
	<g id="ASHE">
		<circle fill="#C0C2C2" cx="12.241" cy="176.075" r="5.71"/>
		<circle fill="#C0C2C2" cx="26.53" cy="176.075" r="5.71"/>
		<circle fill="#C0C2C2" cx="40.831" cy="176.075" r="5.71"/>
		<circle fill="#C0C2C2" cx="55.13" cy="176.075" r="5.71"/>
		<circle fill="#C0C2C2" cx="69.43" cy="176.075" r="5.71"/>
		<circle fill="#C0C2C2" cx="83.741" cy="176.075" r="5.71"/>
		<circle fill="#C0C2C2" cx="98.06" cy="176.075" r="5.71"/>
		<circle fill="#C0C2C2" cx="14.081" cy="156.325" r="5.71"/>
		<circle fill="#C0C2C2" cx="28.51" cy="156.565" r="5.71"/>
		<circle fill="#C0C2C2" cx="43.13" cy="155.935" r="5.71"/>
		<circle fill="#C0C2C2" cx="57.65" cy="156.185" r="5.71"/>
		<circle fill="#C0C2C2" cx="72.21" cy="156.515" r="5.71"/>
		<circle fill="#C0C2C2" cx="18.241" cy="136.935" r="5.71"/>
		<circle fill="#C0C2C2" cx="87.201" cy="155.585" r="5.71"/>
		<circle fill="#C0C2C2" cx="32.96" cy="137.455" r="5.71"/>
		<circle fill="#C0C2C2" cx="102.02" cy="155.965" r="5.71"/>
		<circle fill="#C0C2C2" cx="48.34" cy="136.335" r="5.71"/>
		<circle fill="#C0C2C2" cx="63.31" cy="136.955" r="5.71"/>
		<circle fill="#C0C2C2" cx="24.661" cy="118.175" r="5.71"/>
		<circle fill="#C0C2C2" cx="78.42" cy="137.745" r="5.71"/>
		<circle fill="#C0C2C2" cx="39.81" cy="119.085" r="5.71"/>
		<circle fill="#C0C2C2" cx="56.331" cy="117.705" r="5.71"/>
		<circle fill="#C0C2C2" cx="94.97" cy="136.306" r="5.71"/>
		<circle fill="#C0C2C2" cx="33.25" cy="100.295" r="5.71"/>
		<circle fill="#C0C2C2" cx="71.98" cy="118.886" r="5.71"/>
		<circle fill="#C0C2C2" cx="48.951" cy="101.726" r="5.71"/>
		<circle fill="#C0C2C2" cx="110.84" cy="137.465" r="5.71"/>
		<circle fill="#C0C2C2" cx="87.871" cy="120.396" r="5.71"/>
		<circle fill="#C0C2C2" cx="66.951" cy="100.425" r="5.71"/>
		<circle fill="#C0C2C2" cx="43.88" cy="83.555" r="5.71"/>
		<circle fill="#C0C2C2" cx="60.22" cy="85.675" r="5.71"/>
		<circle fill="#C0C2C2" cx="83.42" cy="102.425" r="5.71"/>
		<circle fill="#C0C2C2" cx="106.69" cy="119.146" r="5.71"/>
		<circle fill="#C0C2C2" cx="56.42" cy="68.195" r="5.71"/>
		<circle fill="#C0C2C2" cx="100.25" cy="104.995" r="5.71"/>
		<circle fill="#C0C2C2" cx="79.96" cy="84.875" r="5.71"/>
		<circle fill="#C0C2C2" cx="73.451" cy="71.195" r="5.71"/>
		<circle fill="#C0C2C2" cx="123.97" cy="121.715" r="5.71"/>
		<circle fill="#C0C2C2" cx="97.35" cy="88.005" r="5.71"/>
		<circle fill="#C0C2C2" cx="70.68" cy="54.405" r="5.71"/>
		<circle fill="#C0C2C2" cx="95.081" cy="71.375" r="5.71"/>
		<circle fill="#C0C2C2" cx="121.81" cy="104.896" r="5.71"/>
		<circle fill="#C0C2C2" cx="88.411" cy="58.515" r="5.71"/>
		<circle fill="#C0C2C2" cx="115.17" cy="92.035" r="5.71"/>
		<circle fill="#C0C2C2" cx="86.46" cy="42.405" r="5.71"/>
		<circle fill="#C0C2C2" cx="113.4" cy="76.005" r="5.71"/>
		<circle fill="#C0C2C2" cx="104.871" cy="47.845" r="5.71"/>
		<circle fill="#C0C2C2" cx="112.01" cy="60.215" r="5.71"/>
		<circle fill="#C0C2C2" cx="140.59" cy="109.715" r="5.71"/>
		<circle fill="#C0C2C2" cx="103.55" cy="32.345" r="5.71"/>
		<circle fill="#C0C2C2" cx="132.161" cy="81.945" r="5.71"/>
		<circle fill="#C0C2C2" cx="139.64" cy="94.215" r="5.71"/>
		<circle fill="#C0C2C2" cx="131.17" cy="66.715" r="5.71"/>
		<circle fill="#C0C2C2" cx="122.55" cy="39.365" r="5.71"/>
		<circle fill="#C0C2C2" cx="130.38" cy="51.635" r="5.71"/>
		<circle fill="#C0C2C2" cx="121.71" cy="24.375" r="5.71"/>
		<circle fill="#C0C2C2" cx="150.67" cy="75.025" r="5.71"/>
		<circle fill="#C0C2C2" cx="141.17" cy="33.205" r="5.71"/>
		<circle fill="#C0C2C2" cx="159.661" cy="102.205" r="5.71"/>
		<circle fill="#C0C2C2" cx="150.19" cy="60.395" r="5.71"/>
		<circle fill="#C0C2C2" cx="140.68" cy="18.595" r="5.71"/>
		<circle fill="#C0C2C2" cx="149.8" cy="45.815" r="5.71"/>
		<circle fill="#C0C2C2" cx="159.34" cy="87.595" r="5.71"/>
		<circle fill="#C0C2C2" cx="160.43" cy="29.465" r="5.71"/>
		<circle fill="#C0C2C2" cx="160.201" cy="15.095" r="5.71"/>
		<circle fill="#C0C2C2" cx="170.121" cy="71.515" r="5.71"/>
		<circle fill="#C0C2C2" cx="169.98" cy="57.185" r="5.71"/>
		<circle fill="#C0C2C2" cx="169.86" cy="42.865" r="5.71"/>
		<circle fill="#C0C2C2" cx="180" cy="13.925" r="5.71"/>
		<circle fill="#C0C2C2" cx="180" cy="85.355" r="5.71"/>
		<circle fill="#C0C2C2" cx="180" cy="99.645" r="5.71"/>
		<circle fill="#C0C2C2" cx="180" cy="28.215" r="5.71"/>
		<circle fill="#C0C2C2" cx="190.14" cy="42.865" r="5.71"/>
		<circle fill="#C0C2C2" cx="190.02" cy="57.185" r="5.71"/>
		<circle fill="#C0C2C2" cx="189.88" cy="71.515" r="5.71"/>
		<circle fill="#C0C2C2" cx="199.8" cy="15.095" r="5.71"/>
		<circle fill="#C0C2C2" cx="199.57" cy="29.465" r="5.71"/>
		<circle fill="#C0C2C2" cx="200.661" cy="87.595" r="5.71"/>
		<circle fill="#C0C2C2" cx="210.201" cy="45.815" r="5.71"/>
		<circle fill="#C0C2C2" cx="219.32" cy="18.595" r="5.71"/>
		<circle fill="#C0C2C2" cx="209.81" cy="60.395" r="5.71"/>
		<circle fill="#C0C2C2" cx="200.34" cy="102.205" r="5.71"/>
		<circle fill="#C0C2C2" cx="218.831" cy="33.205" r="5.71"/>
		<circle fill="#C0C2C2" cx="209.331" cy="75.025" r="5.71"/>
	</g>
	<g id="APMI">
		<circle fill="#C0C2C2" cx="238.291" cy="24.375" r="5.71"/>
		<circle fill="#C0C2C2" cx="229.621" cy="51.635" r="5.71"/>
		<circle fill="#C0C2C2" cx="237.451" cy="39.365" r="5.71"/>
		<circle fill="#C0C2C2" cx="228.831" cy="66.715" r="5.71"/>
		<circle fill="#C0C2C2" cx="220.36" cy="94.215" r="5.71"/>
		<circle fill="#C0C2C2" cx="227.84" cy="81.945" r="5.71"/>
		<circle fill="#C0C2C2" cx="256.451" cy="32.345" r="5.71"/>
		<circle fill="#C0C2C2" cx="219.411" cy="109.715" r="5.71"/>
		<circle fill="#C0C2C2" cx="247.991" cy="60.215" r="5.71"/>
		<circle fill="#C0C2C2" cx="255.13" cy="47.845" r="5.71"/>
		<circle fill="#C0C2C2" cx="246.6" cy="76.005" r="5.71"/>
		<circle fill="#C0C2C2" cx="273.541" cy="42.405" r="5.71"/>
		<circle fill="#C0C2C2" cx="244.831" cy="92.035" r="5.71"/>
		<circle fill="#C0C2C2" cx="271.59" cy="58.515" r="5.71"/>
		<circle fill="#C0C2C2" cx="238.19" cy="104.896" r="5.71"/>
		<circle fill="#C0C2C2" cx="264.92" cy="71.375" r="5.71"/>
		<circle fill="#C0C2C2" cx="289.32" cy="54.405" r="5.71"/>
		<circle fill="#C0C2C2" cx="262.65" cy="88.005" r="5.71"/>
		<circle fill="#C0C2C2" cx="236.03" cy="121.715" r="5.71"/>
		<circle fill="#C0C2C2" cx="286.55" cy="71.195" r="5.71"/>
		<circle fill="#C0C2C2" cx="280.041" cy="84.875" r="5.71"/>
		<circle fill="#C0C2C2" cx="259.75" cy="104.995" r="5.71"/>
		<circle fill="#C0C2C2" cx="303.581" cy="68.195" r="5.71"/>
		<circle fill="#C0C2C2" cx="253.31" cy="119.146" r="5.71"/>
		<circle fill="#C0C2C2" cx="276.581" cy="102.425" r="5.71"/>
		<circle fill="#C0C2C2" cx="299.78" cy="85.675" r="5.71"/>
		<circle fill="#C0C2C2" cx="316.12" cy="83.555" r="5.71"/>
		<circle fill="#C0C2C2" cx="293.05" cy="100.425" r="5.71"/>
		<circle fill="#C0C2C2" cx="272.13" cy="120.396" r="5.71"/>
		<circle fill="#C0C2C2" cx="249.161" cy="137.465" r="5.71"/>
		<circle fill="#C0C2C2" cx="311.05" cy="101.726" r="5.71"/>
		<circle fill="#C0C2C2" cx="288.02" cy="118.886" r="5.71"/>
		<circle fill="#C0C2C2" cx="326.75" cy="100.295" r="5.71"/>
		<circle fill="#C0C2C2" cx="265.03" cy="136.306" r="5.71"/>
		<circle fill="#C0C2C2" cx="303.67" cy="117.705" r="5.71"/>
		<circle fill="#C0C2C2" cx="320.19" cy="119.085" r="5.71"/>
		<circle fill="#C0C2C2" cx="281.581" cy="137.745" r="5.71"/>
		<circle fill="#C0C2C2" cx="335.34" cy="118.175" r="5.71"/>
		<circle fill="#C0C2C2" cx="296.69" cy="136.955" r="5.71"/>
		<circle fill="#C0C2C2" cx="311.66" cy="136.335" r="5.71"/>
		<circle fill="#C0C2C2" cx="257.98" cy="155.965" r="5.71"/>
		<circle fill="#C0C2C2" cx="327.04" cy="137.455" r="5.71"/>
		<circle fill="#C0C2C2" cx="272.8" cy="155.585" r="5.71"/>
		<circle fill="#C0C2C2" cx="341.76" cy="136.935" r="5.71"/>
		<circle fill="#C0C2C2" cx="287.791" cy="156.515" r="5.71"/>
		<circle fill="#C0C2C2" cx="302.35" cy="156.185" r="5.71"/>
		<circle fill="#C0C2C2" cx="316.87" cy="155.935" r="5.71"/>
		<circle fill="#C0C2C2" cx="331.49" cy="156.565" r="5.71"/>
		<circle fill="#C0C2C2" cx="345.92" cy="156.325" r="5.71"/>
		<circle fill="#C0C2C2" cx="261.94" cy="176.075" r="5.71"/>
		<circle fill="#C0C2C2" cx="276.26" cy="176.075" r="5.71"/>
		<circle fill="#C0C2C2" cx="290.57" cy="176.075" r="5.71"/>
		<circle fill="#C0C2C2" cx="304.871" cy="176.075" r="5.71"/>
		<circle fill="#C0C2C2" cx="319.17" cy="176.075" r="5.71"/>
		<circle fill="#C0C2C2" cx="333.47" cy="176.075" r="5.71"/>
		<circle fill="#C0C2C2" cx="347.76" cy="176.075" r="5.71"/>
	</g>
</g>
</svg>
