<?xml version="1.0" encoding="utf-8"?>
<!-- Generator: Adobe Illustrator 16.0.0, SVG Export Plug-In . SVG Version: 6.00 Build 0)  -->
<!DOCTYPE svg PUBLIC "-//W3C//DTD SVG 1.1//EN" "http://www.w3.org/Graphics/SVG/1.1/DTD/svg11.dtd">
<svg version="1.1" xmlns="http://www.w3.org/2000/svg" xmlns:xlink="http://www.w3.org/1999/xlink" x="0px" y="0px" width="100%"
	 height="100%" viewBox="0 0 360 360" enable-background="new 0 0 360 360" xml:space="preserve" class="c-infographic-svg">
<g id="Layer_1">
	<g>
		<rect fill="#FABEA7" width="360" height="360"/>
	</g>
	<g id="building">
		<g id="roof">
			<path fill="#EF4331" d="M184.005,34.014V22.741h-8.009v11.272C162.543,35.955,152.2,47.527,152.2,61.52h55.602
				C207.801,47.53,197.461,35.958,184.005,34.014z"/>
		</g>
		<g id="base">
			<path fill="#EF4331" d="M210.865,81.62v-16.9h-61.732v16.9h-27.354v50.134h23.99v6.2h68.462v-6.2h23.989V81.62H210.865z
				 M155.333,70.919h49.335V81.62H193.05l-13.295-9.206l-13.087,9.206h-11.335V70.919z M148.403,94.464l-2.633,1.852v3.22v26.017
				H127.98V87.82h29.871L148.403,94.464z M208.031,131.754h-8.006v-25.469h-8.012v25.469h-8.009v-25.469h-8.009v25.469h-8.009
				v-25.469h-8.016v25.469h-8.002V99.537l27.814-19.561l28.248,19.561V131.754z M232.021,125.554h-17.789V99.537v-3.25l-2.67-1.849
				l-9.56-6.618h30.019V125.554z"/>
		</g>
	</g>
</g>
<g id="Layer_2">
	<g>
		<g>
			<path fill="#F4777C" d="M152.964,332.394c0-0.902-0.324-1.659-0.971-2.27c-0.647-0.61-1.787-1.13-3.418-1.559
				c-2.023-0.501-3.603-1.239-4.737-2.215c-1.135-0.975-1.702-2.201-1.702-3.678c0-1.559,0.61-2.857,1.832-3.896
				c1.221-1.039,2.807-1.559,4.758-1.559c2.096,0,3.767,0.595,5.011,1.784s1.848,2.577,1.812,4.163l-0.041,0.082h-2.57
				c0-1.13-0.395-2.064-1.183-2.803c-0.789-0.738-1.798-1.107-3.028-1.107c-1.258,0-2.222,0.306-2.892,0.916
				c-0.67,0.611-1.005,1.404-1.005,2.379c0,0.866,0.367,1.588,1.101,2.167c0.733,0.579,1.925,1.087,3.575,1.524
				c2.005,0.52,3.532,1.285,4.58,2.297c1.048,1.012,1.572,2.261,1.572,3.746c0,1.604-0.631,2.894-1.894,3.869
				c-1.263,0.976-2.91,1.463-4.942,1.463c-1.923,0-3.621-0.538-5.093-1.613c-1.472-1.075-2.186-2.516-2.14-4.32l0.027-0.082h2.57
				c0,1.249,0.474,2.213,1.422,2.892c0.948,0.679,2.019,1.019,3.213,1.019c1.276,0,2.285-0.287,3.028-0.861
				C152.592,334.158,152.964,333.378,152.964,332.394z"/>
		</g>
		<g>
			<path fill="#F4777C" d="M165.228,337.699c-2.124,0-3.78-0.679-4.97-2.037c-1.189-1.358-1.784-3.145-1.784-5.359v-0.602
				c0-2.124,0.613-3.88,1.839-5.271c1.226-1.39,2.723-2.085,4.491-2.085c1.978,0,3.461,0.615,4.45,1.846
				c0.989,1.23,1.483,2.867,1.483,4.908v1.422h-9.461l-0.041,0.068c0,1.486,0.328,2.691,0.984,3.616
				c0.656,0.925,1.659,1.388,3.008,1.388c0.911,0,1.711-0.13,2.399-0.39c0.688-0.26,1.278-0.617,1.771-1.073l1.053,1.75
				c-0.529,0.511-1.226,0.941-2.092,1.292C167.492,337.523,166.449,337.699,165.228,337.699z M164.804,324.464
				c-0.939,0-1.716,0.362-2.331,1.087s-0.991,1.652-1.128,2.782l0.027,0.068h6.672v-0.219c0-1.075-0.265-1.964-0.793-2.666
				C166.722,324.815,165.906,324.464,164.804,324.464z"/>
		</g>
		<g>
			<path fill="#F4777C" d="M180.759,324.998l-1.381-0.082c-0.711,0-1.311,0.169-1.798,0.506c-0.488,0.337-0.864,0.812-1.128,1.422
				v10.568h-2.693v-14.793h2.406l0.26,2.16c0.419-0.766,0.937-1.362,1.552-1.791c0.615-0.428,1.324-0.643,2.126-0.643
				c0.2,0,0.392,0.016,0.574,0.048c0.182,0.032,0.333,0.066,0.451,0.103L180.759,324.998z"/>
		</g>
		<g>
			<path fill="#F4777C" d="M196.194,330.576c0,2.133-0.513,3.854-1.538,5.161c-1.025,1.308-2.436,1.962-4.231,1.962
				c-0.984,0-1.839-0.194-2.563-0.581s-1.324-0.959-1.798-1.716l-0.438,2.01h-2.064v-21.328h2.693v8.285
				c0.465-0.656,1.041-1.157,1.729-1.504c0.688-0.346,1.492-0.52,2.413-0.52c1.823,0,3.245,0.729,4.266,2.188
				c1.021,1.458,1.531,3.377,1.531,5.756V330.576z M193.501,330.289c0-1.695-0.313-3.078-0.937-4.149
				c-0.625-1.071-1.575-1.606-2.851-1.606c-0.83,0-1.529,0.203-2.099,0.608c-0.57,0.406-1.023,0.95-1.36,1.634v6.412
				c0.346,0.729,0.8,1.299,1.36,1.709s1.269,0.615,2.126,0.615c1.267,0,2.21-0.451,2.83-1.354c0.62-0.902,0.93-2.096,0.93-3.582
				V330.289z"/>
		</g>
		<g>
			<path fill="#F4777C" d="M202.388,318.832h-2.693v-2.748h2.693V318.832z M202.388,337.412h-2.693v-14.793h2.693V337.412z"/>
		</g>
		<g>
			<path fill="#F4777C" d="M215.622,337.412c-0.091-0.446-0.162-0.841-0.212-1.183c-0.05-0.342-0.08-0.686-0.089-1.032
				c-0.501,0.711-1.155,1.306-1.962,1.784s-1.675,0.718-2.604,0.718c-1.541,0-2.714-0.394-3.521-1.183
				c-0.807-0.788-1.21-1.875-1.21-3.261c0-1.413,0.572-2.518,1.716-3.315c1.144-0.797,2.695-1.196,4.655-1.196h2.926v-1.463
				c0-0.866-0.265-1.552-0.793-2.058c-0.529-0.506-1.276-0.759-2.242-0.759c-0.875,0-1.582,0.219-2.119,0.656
				c-0.538,0.438-0.807,0.962-0.807,1.572l-2.557,0.027l-0.027-0.082c-0.064-1.075,0.439-2.06,1.511-2.953
				c1.071-0.893,2.454-1.34,4.149-1.34c1.677,0,3.026,0.426,4.047,1.278c1.021,0.853,1.531,2.081,1.531,3.685v7.123
				c0,0.529,0.027,1.039,0.082,1.531s0.155,0.976,0.301,1.449H215.622z M211.151,335.443c0.975,0,1.854-0.25,2.639-0.752
				c0.784-0.501,1.294-1.075,1.531-1.723v-2.406H212.3c-1.085,0-1.953,0.273-2.604,0.82c-0.652,0.547-0.978,1.189-0.978,1.928
				c0,0.656,0.205,1.176,0.615,1.559S210.349,335.443,211.151,335.443z"/>
		</g>
	</g>
	<g>
		<g>
			<path fill="#555658" d="M49.767,282.452h-1.644v-12.086h1.644V282.452z"/>
		</g>
		<g>
			<path fill="#555658" d="M53.15,273.471l0.116,1.179c0.293-0.426,0.666-0.757,1.117-0.992c0.451-0.235,0.975-0.353,1.573-0.353
				s1.111,0.139,1.54,0.415c0.429,0.276,0.751,0.691,0.967,1.245c0.288-0.515,0.663-0.92,1.125-1.216
				c0.462-0.296,1.003-0.444,1.623-0.444c0.913,0,1.635,0.314,2.167,0.942s0.797,1.572,0.797,2.834v5.371h-1.635v-5.387
				c0-0.886-0.152-1.513-0.457-1.881s-0.758-0.552-1.361-0.552c-0.559,0-1.011,0.193-1.357,0.581
				c-0.346,0.388-0.549,0.877-0.61,1.469v0.066v5.703h-1.644v-5.387c0-0.842-0.156-1.457-0.469-1.848
				c-0.313-0.39-0.763-0.585-1.349-0.585c-0.498,0-0.908,0.103-1.229,0.308c-0.321,0.204-0.567,0.492-0.739,0.863v6.648h-1.635
				v-8.981H53.15z"/>
		</g>
		<g>
			<path fill="#555658" d="M73.351,278.302c0,1.295-0.31,2.34-0.93,3.134s-1.475,1.19-2.565,1.19c-0.553,0-1.039-0.092-1.457-0.277
				c-0.417-0.186-0.773-0.464-1.066-0.834v4.391h-1.635v-12.435h1.253l0.257,1.162c0.293-0.432,0.659-0.761,1.096-0.987
				c0.437-0.228,0.946-0.341,1.527-0.341c1.112,0,1.977,0.441,2.594,1.324c0.617,0.883,0.925,2.049,0.925,3.499V278.302z
				 M71.715,278.128c0-1.019-0.201-1.855-0.602-2.512c-0.401-0.655-0.992-0.983-1.772-0.983c-0.47,0-0.872,0.106-1.204,0.319
				s-0.601,0.505-0.805,0.876v4.341c0.205,0.371,0.473,0.66,0.805,0.868c0.332,0.207,0.739,0.312,1.22,0.312
				c0.775,0,1.361-0.284,1.76-0.852s0.598-1.299,0.598-2.195V278.128z"/>
		</g>
		<g>
			<path fill="#555658" d="M78.76,274.915l-0.838-0.05c-0.432,0-0.795,0.103-1.092,0.308c-0.296,0.204-0.524,0.492-0.685,0.863
				v6.416H74.51v-8.981h1.461l0.158,1.312c0.254-0.465,0.568-0.827,0.942-1.088c0.373-0.26,0.804-0.39,1.291-0.39
				c0.122,0,0.238,0.01,0.349,0.029s0.202,0.04,0.274,0.062L78.76,274.915z"/>
		</g>
		<g>
			<path fill="#555658" d="M79.063,277.878c0-1.328,0.36-2.422,1.079-3.282s1.696-1.291,2.93-1.291c1.245,0,2.229,0.429,2.951,1.286
				c0.722,0.858,1.083,1.954,1.083,3.287v0.184c0,1.339-0.36,2.435-1.079,3.287c-0.719,0.852-1.699,1.277-2.938,1.277
				s-2.221-0.427-2.942-1.282c-0.723-0.854-1.083-1.949-1.083-3.282V277.878z M80.699,278.062c0,0.951,0.201,1.737,0.602,2.357
				c0.401,0.619,0.998,0.93,1.789,0.93c0.78,0,1.373-0.311,1.776-0.93c0.404-0.62,0.606-1.406,0.606-2.357v-0.184
				c0-0.94-0.204-1.724-0.61-2.349c-0.407-0.625-1.003-0.938-1.789-0.938c-0.78,0-1.371,0.313-1.772,0.938
				c-0.401,0.625-0.602,1.408-0.602,2.349V278.062z"/>
		</g>
		<g>
			<path fill="#555658" d="M91.129,279.804l0.141,0.631h0.05l0.158-0.631l2.067-6.333h1.668l-3.304,8.981h-1.237l-3.345-8.981h1.677
				L91.129,279.804z"/>
		</g>
		<g>
			<path fill="#555658" d="M97.601,271.171h-1.635v-1.668h1.635V271.171z M97.601,282.452h-1.635v-8.981h1.635V282.452z"/>
		</g>
		<g>
			<path fill="#555658" d="M100.727,273.471l0.116,1.337c0.299-0.477,0.674-0.846,1.125-1.108c0.451-0.263,0.964-0.395,1.54-0.395
				c0.968,0,1.718,0.283,2.25,0.851s0.797,1.443,0.797,2.627v5.67h-1.635v-5.637c0-0.791-0.156-1.353-0.469-1.685
				c-0.313-0.332-0.79-0.498-1.432-0.498c-0.503,0-0.931,0.101-1.283,0.303c-0.351,0.202-0.629,0.485-0.834,0.851v6.666h-1.635
				v-8.981H100.727z"/>
		</g>
		<g>
			<path fill="#555658" d="M107.788,278.128c0-1.445,0.309-2.609,0.926-3.495c0.617-0.886,1.479-1.328,2.585-1.328
				c0.57,0,1.071,0.115,1.502,0.345s0.794,0.561,1.087,0.992l0.199-1.171h1.303v9.031c0,1.151-0.335,2.035-1.004,2.652
				s-1.635,0.925-2.897,0.925c-0.432,0-0.898-0.059-1.398-0.178c-0.501-0.119-0.942-0.281-1.324-0.486l0.249-1.27
				c0.315,0.166,0.696,0.3,1.142,0.402c0.445,0.103,0.884,0.154,1.315,0.154c0.797,0,1.376-0.182,1.739-0.544
				c0.362-0.362,0.543-0.915,0.543-1.656v-1.021c-0.293,0.376-0.645,0.661-1.054,0.854s-0.883,0.29-1.419,0.29
				c-1.096,0-1.952-0.396-2.569-1.19c-0.617-0.794-0.926-1.839-0.926-3.134V278.128z M109.423,278.302
				c0,0.902,0.186,1.627,0.556,2.175s0.943,0.821,1.718,0.821c0.493,0,0.905-0.111,1.237-0.336c0.332-0.224,0.606-0.541,0.822-0.95
				v-4.134c-0.21-0.382-0.484-0.685-0.822-0.909c-0.337-0.224-0.744-0.336-1.22-0.336c-0.78,0-1.357,0.323-1.731,0.972
				c-0.373,0.646-0.56,1.488-0.56,2.523V278.302z"/>
		</g>
		<g>
			<path fill="#555658" d="M122.54,271.304v2.167h1.702v1.212h-1.702v5.453c0,0.421,0.087,0.717,0.261,0.889
				c0.175,0.172,0.406,0.258,0.693,0.258c0.094,0,0.199-0.013,0.315-0.038c0.116-0.024,0.213-0.051,0.291-0.079l0.224,1.121
				c-0.122,0.1-0.302,0.182-0.54,0.245s-0.473,0.095-0.706,0.095c-0.664,0-1.192-0.2-1.585-0.602s-0.589-1.03-0.589-1.889v-5.453
				h-1.428v-1.212h1.428v-2.167H122.54z"/>
		</g>
		<g>
			<path fill="#555658" d="M129.393,274.915l-0.838-0.05c-0.432,0-0.795,0.103-1.092,0.308c-0.296,0.204-0.524,0.492-0.685,0.863
				v6.416h-1.635v-8.981h1.461l0.158,1.312c0.254-0.465,0.568-0.827,0.942-1.088c0.373-0.26,0.804-0.39,1.291-0.39
				c0.122,0,0.238,0.01,0.349,0.029s0.202,0.04,0.274,0.062L129.393,274.915z"/>
		</g>
		<g>
			<path fill="#555658" d="M135.764,282.452c-0.055-0.271-0.098-0.511-0.129-0.718c-0.03-0.208-0.048-0.417-0.054-0.627
				c-0.304,0.432-0.701,0.793-1.191,1.083c-0.489,0.291-1.017,0.436-1.581,0.436c-0.935,0-1.647-0.239-2.138-0.718
				c-0.489-0.479-0.734-1.139-0.734-1.979c0-0.857,0.347-1.528,1.042-2.013c0.694-0.484,1.636-0.727,2.826-0.727h1.776v-0.888
				c0-0.526-0.161-0.942-0.481-1.25c-0.321-0.307-0.775-0.461-1.361-0.461c-0.531,0-0.96,0.133-1.287,0.398s-0.49,0.584-0.49,0.955
				l-1.552,0.017l-0.017-0.05c-0.039-0.653,0.267-1.251,0.917-1.793c0.65-0.542,1.49-0.813,2.519-0.813
				c1.018,0,1.837,0.259,2.457,0.776s0.93,1.263,0.93,2.236v4.325c0,0.321,0.017,0.631,0.05,0.93s0.094,0.592,0.183,0.88H135.764z
				 M133.05,281.257c0.592,0,1.126-0.152,1.602-0.457c0.476-0.304,0.786-0.652,0.93-1.045v-1.461h-1.834
				c-0.659,0-1.186,0.166-1.582,0.498c-0.396,0.332-0.593,0.722-0.593,1.17c0,0.398,0.125,0.714,0.374,0.946
				S132.563,281.257,133.05,281.257z"/>
		</g>
		<g>
			<path fill="#555658" d="M140.202,273.471l0.116,1.337c0.299-0.477,0.674-0.846,1.125-1.108c0.451-0.263,0.964-0.395,1.54-0.395
				c0.968,0,1.718,0.283,2.25,0.851s0.797,1.443,0.797,2.627v5.67h-1.635v-5.637c0-0.791-0.156-1.353-0.469-1.685
				c-0.313-0.332-0.79-0.498-1.432-0.498c-0.503,0-0.931,0.101-1.283,0.303c-0.351,0.202-0.629,0.485-0.834,0.851v6.666h-1.635
				v-8.981H140.202z"/>
		</g>
		<g>
			<path fill="#555658" d="M152.774,280.036c0-0.359-0.137-0.652-0.411-0.879c-0.273-0.228-0.792-0.427-1.556-0.598
				c-1.057-0.228-1.869-0.546-2.436-0.955c-0.567-0.409-0.851-0.957-0.851-1.644c0-0.73,0.311-1.355,0.934-1.876
				c0.622-0.521,1.429-0.78,2.419-0.78c1.018,0,1.843,0.276,2.474,0.83s0.933,1.198,0.905,1.935l-0.017,0.049h-1.561
				c0-0.387-0.17-0.738-0.511-1.054c-0.34-0.315-0.771-0.474-1.291-0.474c-0.576,0-1.006,0.131-1.291,0.391
				c-0.285,0.26-0.428,0.57-0.428,0.93c0,0.354,0.123,0.628,0.369,0.822c0.247,0.193,0.754,0.37,1.523,0.531
				c1.101,0.232,1.937,0.562,2.507,0.987s0.855,0.982,0.855,1.669c0,0.797-0.322,1.446-0.967,1.95
				c-0.645,0.504-1.487,0.755-2.527,0.755c-1.146,0-2.047-0.29-2.706-0.871s-0.971-1.259-0.938-2.033l0.017-0.051h1.561
				c0.028,0.582,0.244,1.006,0.647,1.274s0.877,0.403,1.419,0.403c0.581,0,1.036-0.124,1.365-0.37
				C152.61,280.732,152.774,280.419,152.774,280.036z"/>
		</g>
		<g>
			<path fill="#555658" d="M163.247,278.302c0,1.295-0.31,2.34-0.93,3.134s-1.475,1.19-2.565,1.19c-0.553,0-1.039-0.092-1.457-0.277
				c-0.417-0.186-0.773-0.464-1.066-0.834v4.391h-1.635v-12.435h1.253l0.257,1.162c0.293-0.432,0.659-0.761,1.096-0.987
				c0.437-0.228,0.946-0.341,1.527-0.341c1.112,0,1.977,0.441,2.594,1.324c0.617,0.883,0.925,2.049,0.925,3.499V278.302z
				 M161.611,278.128c0-1.019-0.201-1.855-0.602-2.512c-0.401-0.655-0.992-0.983-1.772-0.983c-0.47,0-0.872,0.106-1.204,0.319
				s-0.601,0.505-0.805,0.876v4.341c0.205,0.371,0.473,0.66,0.805,0.868c0.332,0.207,0.739,0.312,1.22,0.312
				c0.775,0,1.361-0.284,1.76-0.852s0.598-1.299,0.598-2.195V278.128z"/>
		</g>
		<g>
			<path fill="#555658" d="M169.925,282.452c-0.055-0.271-0.098-0.511-0.129-0.718c-0.03-0.208-0.048-0.417-0.054-0.627
				c-0.304,0.432-0.701,0.793-1.191,1.083c-0.489,0.291-1.017,0.436-1.581,0.436c-0.935,0-1.647-0.239-2.138-0.718
				c-0.489-0.479-0.734-1.139-0.734-1.979c0-0.857,0.347-1.528,1.042-2.013c0.694-0.484,1.636-0.727,2.826-0.727h1.776v-0.888
				c0-0.526-0.161-0.942-0.481-1.25c-0.321-0.307-0.775-0.461-1.361-0.461c-0.531,0-0.96,0.133-1.287,0.398s-0.49,0.584-0.49,0.955
				l-1.552,0.017l-0.017-0.05c-0.039-0.653,0.267-1.251,0.917-1.793c0.65-0.542,1.49-0.813,2.519-0.813
				c1.018,0,1.837,0.259,2.457,0.776s0.93,1.263,0.93,2.236v4.325c0,0.321,0.017,0.631,0.05,0.93s0.094,0.592,0.183,0.88H169.925z
				 M167.211,281.257c0.592,0,1.126-0.152,1.602-0.457c0.476-0.304,0.786-0.652,0.93-1.045v-1.461h-1.834
				c-0.659,0-1.186,0.166-1.582,0.498c-0.396,0.332-0.593,0.722-0.593,1.17c0,0.398,0.125,0.714,0.374,0.946
				S166.724,281.257,167.211,281.257z"/>
		</g>
		<g>
			<path fill="#555658" d="M177.152,274.915l-0.838-0.05c-0.432,0-0.795,0.103-1.092,0.308c-0.296,0.204-0.524,0.492-0.685,0.863
				v6.416h-1.635v-8.981h1.461l0.158,1.312c0.254-0.465,0.568-0.827,0.942-1.088c0.373-0.26,0.804-0.39,1.291-0.39
				c0.122,0,0.238,0.01,0.349,0.029s0.202,0.04,0.274,0.062L177.152,274.915z"/>
		</g>
		<g>
			<path fill="#555658" d="M181.565,282.626c-1.29,0-2.295-0.412-3.017-1.236c-0.723-0.824-1.083-1.909-1.083-3.254v-0.365
				c0-1.289,0.372-2.356,1.117-3.2c0.744-0.844,1.653-1.266,2.727-1.266c1.201,0,2.102,0.374,2.702,1.12
				c0.6,0.748,0.9,1.741,0.9,2.98v0.863h-5.744l-0.025,0.041c0,0.902,0.199,1.635,0.598,2.196s1.007,0.843,1.826,0.843
				c0.553,0,1.039-0.079,1.457-0.237c0.418-0.157,0.776-0.375,1.075-0.651l0.639,1.063c-0.321,0.31-0.744,0.571-1.27,0.784
				S182.307,282.626,181.565,282.626z M181.308,274.591c-0.57,0-1.042,0.221-1.415,0.66c-0.374,0.44-0.602,1.003-0.685,1.689
				l0.017,0.041h4.051v-0.133c0-0.652-0.161-1.192-0.481-1.618S181.977,274.591,181.308,274.591z"/>
		</g>
		<g>
			<path fill="#555658" d="M187.355,273.471l0.116,1.337c0.299-0.477,0.674-0.846,1.125-1.108c0.451-0.263,0.964-0.395,1.54-0.395
				c0.968,0,1.718,0.283,2.25,0.851s0.797,1.443,0.797,2.627v5.67h-1.635v-5.637c0-0.791-0.156-1.353-0.469-1.685
				c-0.313-0.332-0.79-0.498-1.432-0.498c-0.503,0-0.931,0.101-1.283,0.303c-0.351,0.202-0.629,0.485-0.834,0.851v6.666h-1.635
				v-8.981H187.355z"/>
		</g>
		<g>
			<path fill="#555658" d="M198.276,281.349c0.503,0,0.943-0.168,1.32-0.503s0.564-0.745,0.564-1.232h1.478l0.025,0.05
				c0.022,0.774-0.31,1.462-0.996,2.063s-1.483,0.9-2.391,0.9c-1.262,0-2.236-0.429-2.922-1.286s-1.029-1.926-1.029-3.204v-0.349
				c0-1.268,0.344-2.331,1.034-3.191c0.688-0.86,1.661-1.291,2.917-1.291c1.001,0,1.822,0.31,2.461,0.93
				c0.639,0.62,0.947,1.381,0.925,2.282l-0.017,0.051h-1.486c0-0.549-0.179-1.015-0.535-1.399c-0.357-0.385-0.807-0.577-1.349-0.577
				c-0.802,0-1.388,0.312-1.755,0.935c-0.368,0.622-0.552,1.376-0.552,2.262v0.349c0,0.902,0.181,1.663,0.543,2.283
				C196.875,281.038,197.462,281.349,198.276,281.349z"/>
		</g>
		<g>
			<path fill="#555658" d="M205.502,279.124l0.291,1.129h0.05l2.208-6.782h1.818l-3.777,10.359
				c-0.227,0.604-0.552,1.129-0.975,1.577c-0.424,0.448-0.995,0.672-1.714,0.672c-0.133,0-0.302-0.015-0.506-0.045
				s-0.362-0.06-0.473-0.088l0.166-1.286c-0.033-0.006,0.065,0,0.294,0.017c0.23,0.017,0.375,0.025,0.436,0.025
				c0.349,0,0.634-0.155,0.855-0.465c0.221-0.311,0.407-0.653,0.556-1.029l0.39-0.938l-3.337-8.799h1.826L205.502,279.124z"/>
		</g>
		<g>
			<path fill="#555658" d="M219.35,282.452c-0.055-0.271-0.098-0.511-0.129-0.718c-0.03-0.208-0.048-0.417-0.054-0.627
				c-0.304,0.432-0.701,0.793-1.191,1.083c-0.489,0.291-1.017,0.436-1.581,0.436c-0.935,0-1.647-0.239-2.138-0.718
				c-0.489-0.479-0.734-1.139-0.734-1.979c0-0.857,0.347-1.528,1.042-2.013c0.694-0.484,1.636-0.727,2.826-0.727h1.776v-0.888
				c0-0.526-0.161-0.942-0.481-1.25c-0.321-0.307-0.775-0.461-1.361-0.461c-0.531,0-0.96,0.133-1.287,0.398s-0.49,0.584-0.49,0.955
				l-1.552,0.017l-0.017-0.05c-0.039-0.653,0.267-1.251,0.917-1.793c0.65-0.542,1.49-0.813,2.519-0.813
				c1.018,0,1.837,0.259,2.457,0.776s0.93,1.263,0.93,2.236v4.325c0,0.321,0.017,0.631,0.05,0.93s0.094,0.592,0.183,0.88H219.35z
				 M216.636,281.257c0.592,0,1.126-0.152,1.602-0.457c0.476-0.304,0.786-0.652,0.93-1.045v-1.461h-1.834
				c-0.659,0-1.186,0.166-1.582,0.498c-0.396,0.332-0.593,0.722-0.593,1.17c0,0.398,0.125,0.714,0.374,0.946
				S216.149,281.257,216.636,281.257z"/>
		</g>
		<g>
			<path fill="#555658" d="M223.788,273.471l0.116,1.337c0.299-0.477,0.674-0.846,1.125-1.108c0.451-0.263,0.964-0.395,1.54-0.395
				c0.968,0,1.718,0.283,2.25,0.851s0.797,1.443,0.797,2.627v5.67h-1.635v-5.637c0-0.791-0.156-1.353-0.469-1.685
				c-0.313-0.332-0.79-0.498-1.432-0.498c-0.503,0-0.931,0.101-1.283,0.303c-0.351,0.202-0.629,0.485-0.834,0.851v6.666h-1.635
				v-8.981H223.788z"/>
		</g>
		<g>
			<path fill="#555658" d="M230.765,278.128c0-1.445,0.309-2.609,0.926-3.495c0.617-0.886,1.481-1.328,2.594-1.328
				c0.526,0,0.992,0.097,1.398,0.29c0.407,0.194,0.754,0.477,1.042,0.848v-4.939h1.635v12.949h-1.253l-0.249-1.137
				c-0.293,0.432-0.656,0.758-1.087,0.979c-0.432,0.222-0.933,0.332-1.502,0.332c-1.096,0-1.954-0.396-2.573-1.19
				s-0.93-1.839-0.93-3.134V278.128z M232.4,278.302c0,0.907,0.186,1.634,0.556,2.179s0.946,0.817,1.727,0.817
				c0.487,0,0.896-0.11,1.229-0.332c0.332-0.221,0.603-0.531,0.813-0.93v-4.191c-0.21-0.371-0.483-0.665-0.817-0.884
				c-0.335-0.219-0.738-0.328-1.208-0.328c-0.786,0-1.365,0.323-1.739,0.972c-0.373,0.646-0.56,1.488-0.56,2.523V278.302z"/>
		</g>
		<g>
			<path fill="#555658" d="M250.979,278.302c0,1.295-0.31,2.34-0.93,3.134s-1.475,1.19-2.565,1.19c-0.553,0-1.039-0.092-1.457-0.277
				c-0.417-0.186-0.773-0.464-1.066-0.834v4.391h-1.635v-12.435h1.253l0.257,1.162c0.293-0.432,0.659-0.761,1.096-0.987
				c0.437-0.228,0.946-0.341,1.527-0.341c1.112,0,1.977,0.441,2.594,1.324c0.617,0.883,0.925,2.049,0.925,3.499V278.302z
				 M249.344,278.128c0-1.019-0.201-1.855-0.602-2.512c-0.401-0.655-0.992-0.983-1.772-0.983c-0.47,0-0.872,0.106-1.204,0.319
				s-0.601,0.505-0.805,0.876v4.341c0.205,0.371,0.473,0.66,0.805,0.868c0.332,0.207,0.739,0.312,1.22,0.312
				c0.775,0,1.361-0.284,1.76-0.852s0.598-1.299,0.598-2.195V278.128z"/>
		</g>
		<g>
			<path fill="#555658" d="M256.388,274.915l-0.838-0.05c-0.432,0-0.795,0.103-1.092,0.308c-0.296,0.204-0.524,0.492-0.685,0.863
				v6.416h-1.635v-8.981h1.461l0.158,1.312c0.254-0.465,0.568-0.827,0.942-1.088c0.373-0.26,0.804-0.39,1.291-0.39
				c0.122,0,0.238,0.01,0.349,0.029s0.202,0.04,0.274,0.062L256.388,274.915z"/>
		</g>
		<g>
			<path fill="#555658" d="M256.692,277.878c0-1.328,0.36-2.422,1.079-3.282s1.696-1.291,2.93-1.291
				c1.245,0,2.229,0.429,2.951,1.286c0.722,0.858,1.083,1.954,1.083,3.287v0.184c0,1.339-0.36,2.435-1.079,3.287
				c-0.719,0.852-1.699,1.277-2.938,1.277s-2.221-0.427-2.942-1.282c-0.723-0.854-1.083-1.949-1.083-3.282V277.878z
				 M258.327,278.062c0,0.951,0.201,1.737,0.602,2.357c0.401,0.619,0.998,0.93,1.789,0.93c0.78,0,1.373-0.311,1.776-0.93
				c0.404-0.62,0.606-1.406,0.606-2.357v-0.184c0-0.94-0.204-1.724-0.61-2.349c-0.407-0.625-1.003-0.938-1.789-0.938
				c-0.78,0-1.371,0.313-1.772,0.938c-0.401,0.625-0.602,1.408-0.602,2.349V278.062z"/>
		</g>
		<g>
			<path fill="#555658" d="M267.347,273.471l0.116,1.179c0.293-0.426,0.666-0.757,1.117-0.992c0.451-0.235,0.975-0.353,1.573-0.353
				s1.111,0.139,1.54,0.415c0.429,0.276,0.751,0.691,0.967,1.245c0.288-0.515,0.663-0.92,1.125-1.216
				c0.462-0.296,1.003-0.444,1.623-0.444c0.913,0,1.635,0.314,2.167,0.942s0.797,1.572,0.797,2.834v5.371h-1.635v-5.387
				c0-0.886-0.152-1.513-0.457-1.881s-0.758-0.552-1.361-0.552c-0.559,0-1.011,0.193-1.357,0.581
				c-0.346,0.388-0.549,0.877-0.61,1.469v0.066v5.703h-1.644v-5.387c0-0.842-0.156-1.457-0.469-1.848
				c-0.313-0.39-0.763-0.585-1.349-0.585c-0.498,0-0.908,0.103-1.229,0.308c-0.321,0.204-0.567,0.492-0.739,0.863v6.648h-1.635
				v-8.981H267.347z"/>
		</g>
		<g>
			<path fill="#555658" d="M279.512,277.878c0-1.328,0.36-2.422,1.079-3.282s1.696-1.291,2.93-1.291
				c1.245,0,2.229,0.429,2.951,1.286c0.722,0.858,1.083,1.954,1.083,3.287v0.184c0,1.339-0.36,2.435-1.079,3.287
				c-0.719,0.852-1.699,1.277-2.938,1.277s-2.221-0.427-2.942-1.282c-0.723-0.854-1.083-1.949-1.083-3.282V277.878z
				 M281.147,278.062c0,0.951,0.201,1.737,0.602,2.357c0.401,0.619,0.998,0.93,1.789,0.93c0.78,0,1.373-0.311,1.776-0.93
				c0.404-0.62,0.606-1.406,0.606-2.357v-0.184c0-0.94-0.204-1.724-0.61-2.349c-0.407-0.625-1.003-0.938-1.789-0.938
				c-0.78,0-1.371,0.313-1.772,0.938c-0.401,0.625-0.602,1.408-0.602,2.349V278.062z"/>
		</g>
		<g>
			<path fill="#555658" d="M290.98,271.304v2.167h1.702v1.212h-1.702v5.453c0,0.421,0.087,0.717,0.261,0.889
				c0.175,0.172,0.406,0.258,0.693,0.258c0.094,0,0.199-0.013,0.315-0.038c0.116-0.024,0.213-0.051,0.291-0.079l0.224,1.121
				c-0.122,0.1-0.302,0.182-0.54,0.245s-0.473,0.095-0.706,0.095c-0.664,0-1.192-0.2-1.585-0.602s-0.589-1.03-0.589-1.889v-5.453
				h-1.428v-1.212h1.428v-2.167H290.98z"/>
		</g>
		<g>
			<path fill="#555658" d="M295.352,271.171h-1.635v-1.668h1.635V271.171z M295.352,282.452h-1.635v-8.981h1.635V282.452z"/>
		</g>
		<g>
			<path fill="#555658" d="M296.635,277.878c0-1.328,0.36-2.422,1.079-3.282s1.696-1.291,2.93-1.291
				c1.245,0,2.229,0.429,2.951,1.286c0.722,0.858,1.083,1.954,1.083,3.287v0.184c0,1.339-0.36,2.435-1.079,3.287
				c-0.719,0.852-1.699,1.277-2.938,1.277s-2.221-0.427-2.942-1.282c-0.723-0.854-1.083-1.949-1.083-3.282V277.878z
				 M298.271,278.062c0,0.951,0.201,1.737,0.602,2.357c0.401,0.619,0.998,0.93,1.789,0.93c0.78,0,1.373-0.311,1.776-0.93
				c0.404-0.62,0.606-1.406,0.606-2.357v-0.184c0-0.94-0.204-1.724-0.61-2.349c-0.407-0.625-1.003-0.938-1.789-0.938
				c-0.78,0-1.371,0.313-1.772,0.938c-0.401,0.625-0.602,1.408-0.602,2.349V278.062z"/>
		</g>
		<g>
			<path fill="#555658" d="M307.29,273.471l0.116,1.337c0.299-0.477,0.674-0.846,1.125-1.108c0.451-0.263,0.964-0.395,1.54-0.395
				c0.968,0,1.718,0.283,2.25,0.851s0.797,1.443,0.797,2.627v5.67h-1.635v-5.637c0-0.791-0.156-1.353-0.469-1.685
				c-0.313-0.332-0.79-0.498-1.432-0.498c-0.503,0-0.931,0.101-1.283,0.303c-0.351,0.202-0.629,0.485-0.834,0.851v6.666h-1.635
				v-8.981H307.29z"/>
		</g>
		<g>
			<path fill="#555658" d="M39.844,298.278c0-1.328,0.36-2.422,1.079-3.282s1.696-1.291,2.93-1.291c1.245,0,2.229,0.429,2.951,1.286
				c0.722,0.858,1.083,1.954,1.083,3.287v0.184c0,1.339-0.36,2.435-1.079,3.287c-0.719,0.852-1.699,1.277-2.938,1.277
				s-2.221-0.427-2.942-1.282c-0.723-0.854-1.083-1.949-1.083-3.282V298.278z M41.479,298.462c0,0.951,0.201,1.737,0.602,2.357
				c0.401,0.619,0.998,0.93,1.789,0.93c0.78,0,1.373-0.311,1.776-0.93c0.404-0.62,0.606-1.406,0.606-2.357v-0.184
				c0-0.94-0.204-1.724-0.61-2.349c-0.407-0.625-1.003-0.938-1.789-0.938c-0.78,0-1.371,0.313-1.772,0.938
				c-0.401,0.625-0.602,1.408-0.602,2.349V298.462z"/>
		</g>
		<g>
			<path fill="#555658" d="M49.719,302.853v-7.77h-1.403v-1.212h1.403v-1.138c0-0.957,0.25-1.697,0.751-2.22
				c0.5-0.523,1.199-0.784,2.096-0.784c0.188,0,0.378,0.015,0.568,0.045c0.191,0.03,0.403,0.073,0.635,0.129l-0.199,1.245
				c-0.1-0.022-0.22-0.042-0.361-0.058c-0.142-0.018-0.29-0.025-0.444-0.025c-0.476,0-0.83,0.143-1.063,0.428
				s-0.349,0.698-0.349,1.24v1.138h1.627v1.212h-1.627v7.77H49.719z"/>
		</g>
		<g>
			<path fill="#555658" d="M64.812,298.702c0,1.295-0.31,2.34-0.93,3.134s-1.475,1.19-2.565,1.19c-0.553,0-1.039-0.092-1.457-0.277
				c-0.417-0.186-0.773-0.464-1.066-0.834v4.391h-1.635v-12.435h1.253l0.257,1.162c0.293-0.432,0.659-0.761,1.096-0.987
				c0.437-0.228,0.946-0.341,1.527-0.341c1.112,0,1.977,0.441,2.594,1.324c0.617,0.883,0.925,2.049,0.925,3.499V298.702z
				 M63.176,298.528c0-1.019-0.201-1.855-0.602-2.512c-0.401-0.655-0.992-0.983-1.772-0.983c-0.47,0-0.872,0.106-1.204,0.319
				s-0.601,0.505-0.805,0.876v4.341c0.205,0.371,0.473,0.66,0.805,0.868c0.332,0.207,0.739,0.312,1.22,0.312
				c0.775,0,1.361-0.284,1.76-0.852s0.598-1.299,0.598-2.195V298.528z"/>
		</g>
		<g>
			<path fill="#555658" d="M71.673,301.524c-0.282,0.481-0.645,0.853-1.087,1.112s-0.955,0.39-1.536,0.39
				c-0.979,0-1.743-0.313-2.291-0.938s-0.822-1.6-0.822-2.922v-5.296h1.635v5.313c0,0.957,0.141,1.616,0.423,1.976
				s0.722,0.539,1.32,0.539c0.581,0,1.061-0.117,1.44-0.353c0.379-0.235,0.665-0.568,0.859-1v-6.475h1.635v8.981h-1.469
				L71.673,301.524z"/>
		</g>
		<g>
			<path fill="#555658" d="M82.452,298.702c0,1.295-0.311,2.34-0.934,3.134c-0.622,0.794-1.479,1.19-2.569,1.19
				c-0.598,0-1.117-0.117-1.556-0.353c-0.44-0.235-0.804-0.582-1.092-1.042l-0.266,1.221h-1.253v-12.949h1.635v5.03
				c0.282-0.398,0.632-0.703,1.05-0.913c0.418-0.21,0.906-0.315,1.465-0.315c1.107,0,1.97,0.442,2.59,1.328s0.93,2.05,0.93,3.495
				V298.702z M80.817,298.528c0-1.029-0.189-1.869-0.568-2.52c-0.379-0.65-0.956-0.976-1.731-0.976
				c-0.503,0-0.928,0.123-1.274,0.369c-0.346,0.246-0.622,0.577-0.826,0.992v3.894c0.21,0.442,0.485,0.788,0.826,1.037
				c0.34,0.249,0.771,0.373,1.291,0.373c0.769,0,1.342-0.273,1.718-0.821s0.564-1.272,0.564-2.175V298.528z"/>
		</g>
		<g>
			<path fill="#555658" d="M85.362,302.853h-1.635v-12.949h1.635V302.853z"/>
		</g>
		<g>
			<path fill="#555658" d="M88.795,291.571H87.16v-1.668h1.635V291.571z M88.795,302.853H87.16v-8.981h1.635V302.853z"/>
		</g>
		<g>
			<path fill="#555658" d="M94.03,301.749c0.503,0,0.943-0.168,1.32-0.503s0.564-0.745,0.564-1.232h1.478l0.025,0.05
				c0.022,0.774-0.31,1.462-0.996,2.063s-1.483,0.9-2.391,0.9c-1.262,0-2.236-0.429-2.922-1.286s-1.029-1.926-1.029-3.204v-0.349
				c0-1.268,0.344-2.331,1.034-3.191c0.688-0.86,1.661-1.291,2.917-1.291c1.001,0,1.822,0.31,2.461,0.93
				c0.639,0.62,0.947,1.381,0.925,2.282l-0.017,0.051h-1.486c0-0.549-0.179-1.015-0.535-1.399c-0.357-0.385-0.807-0.577-1.349-0.577
				c-0.802,0-1.388,0.312-1.755,0.935c-0.368,0.622-0.552,1.376-0.552,2.262v0.349c0,0.902,0.181,1.663,0.543,2.283
				C92.629,301.438,93.217,301.749,94.03,301.749z"/>
		</g>
		<g>
			<path fill="#555658" d="M109.538,298.702c0,1.295-0.31,2.34-0.93,3.134s-1.475,1.19-2.565,1.19c-0.553,0-1.039-0.092-1.457-0.277
				c-0.417-0.186-0.773-0.464-1.066-0.834v4.391h-1.635v-12.435h1.253l0.257,1.162c0.293-0.432,0.659-0.761,1.096-0.987
				c0.437-0.228,0.946-0.341,1.527-0.341c1.112,0,1.977,0.441,2.594,1.324c0.617,0.883,0.925,2.049,0.925,3.499V298.702z
				 M107.902,298.528c0-1.019-0.201-1.855-0.602-2.512c-0.401-0.655-0.992-0.983-1.772-0.983c-0.47,0-0.872,0.106-1.204,0.319
				s-0.601,0.505-0.805,0.876v4.341c0.205,0.371,0.473,0.66,0.805,0.868c0.332,0.207,0.739,0.312,1.22,0.312
				c0.775,0,1.361-0.284,1.76-0.852s0.598-1.299,0.598-2.195V298.528z"/>
		</g>
		<g>
			<path fill="#555658" d="M116.216,302.853c-0.055-0.271-0.098-0.511-0.129-0.718c-0.03-0.208-0.048-0.417-0.054-0.627
				c-0.304,0.432-0.701,0.793-1.191,1.083c-0.489,0.291-1.017,0.436-1.581,0.436c-0.935,0-1.647-0.239-2.138-0.718
				c-0.489-0.479-0.734-1.139-0.734-1.979c0-0.857,0.347-1.528,1.042-2.013c0.694-0.484,1.636-0.727,2.826-0.727h1.776v-0.888
				c0-0.526-0.161-0.942-0.481-1.25c-0.321-0.307-0.775-0.461-1.361-0.461c-0.531,0-0.96,0.133-1.287,0.398s-0.49,0.584-0.49,0.955
				l-1.552,0.017l-0.017-0.05c-0.039-0.653,0.267-1.251,0.917-1.793c0.65-0.542,1.49-0.813,2.519-0.813
				c1.018,0,1.837,0.259,2.457,0.776s0.93,1.263,0.93,2.236v4.325c0,0.321,0.017,0.631,0.05,0.93s0.094,0.592,0.183,0.88H116.216z
				 M113.502,301.657c0.592,0,1.126-0.152,1.602-0.457c0.476-0.304,0.786-0.652,0.93-1.045v-1.461h-1.834
				c-0.659,0-1.186,0.166-1.582,0.498c-0.396,0.332-0.593,0.722-0.593,1.17c0,0.398,0.125,0.714,0.374,0.946
				S113.015,301.657,113.502,301.657z"/>
		</g>
		<g>
			<path fill="#555658" d="M123.443,295.315l-0.838-0.05c-0.432,0-0.795,0.103-1.092,0.308c-0.296,0.204-0.524,0.492-0.685,0.863
				v6.416h-1.635v-8.981h1.461l0.158,1.312c0.254-0.465,0.568-0.827,0.942-1.088c0.373-0.26,0.804-0.39,1.291-0.39
				c0.122,0,0.238,0.01,0.349,0.029s0.202,0.04,0.274,0.062L123.443,295.315z"/>
		</g>
		<g>
			<path fill="#555658" d="M126.71,291.704v2.167h1.702v1.212h-1.702v5.453c0,0.421,0.087,0.717,0.261,0.889
				c0.175,0.172,0.406,0.258,0.693,0.258c0.094,0,0.199-0.013,0.315-0.038c0.116-0.024,0.213-0.051,0.291-0.079l0.224,1.121
				c-0.122,0.1-0.302,0.182-0.54,0.245s-0.473,0.095-0.706,0.095c-0.664,0-1.192-0.2-1.585-0.602s-0.589-1.03-0.589-1.889v-5.453
				h-1.428v-1.212h1.428v-2.167H126.71z"/>
		</g>
		<g>
			<path fill="#555658" d="M131.082,291.571h-1.635v-1.668h1.635V291.571z M131.082,302.853h-1.635v-8.981h1.635V302.853z"/>
		</g>
		<g>
			<path fill="#555658" d="M136.316,301.749c0.503,0,0.943-0.168,1.32-0.503s0.564-0.745,0.564-1.232h1.478l0.025,0.05
				c0.022,0.774-0.31,1.462-0.996,2.063s-1.483,0.9-2.391,0.9c-1.262,0-2.236-0.429-2.922-1.286s-1.029-1.926-1.029-3.204v-0.349
				c0-1.268,0.344-2.331,1.034-3.191c0.688-0.86,1.661-1.291,2.917-1.291c1.001,0,1.822,0.31,2.461,0.93
				c0.639,0.62,0.947,1.381,0.925,2.282l-0.017,0.051H138.2c0-0.549-0.179-1.015-0.535-1.399c-0.357-0.385-0.807-0.577-1.349-0.577
				c-0.802,0-1.388,0.312-1.755,0.935c-0.368,0.622-0.552,1.376-0.552,2.262v0.349c0,0.902,0.181,1.663,0.543,2.283
				C134.915,301.438,135.502,301.749,136.316,301.749z"/>
		</g>
		<g>
			<path fill="#555658" d="M142.563,291.571h-1.635v-1.668h1.635V291.571z M142.563,302.853h-1.635v-8.981h1.635V302.853z"/>
		</g>
		<g>
			<path fill="#555658" d="M151.881,298.702c0,1.295-0.31,2.34-0.93,3.134s-1.475,1.19-2.565,1.19c-0.553,0-1.039-0.092-1.457-0.277
				c-0.417-0.186-0.773-0.464-1.066-0.834v4.391h-1.635v-12.435h1.253l0.257,1.162c0.293-0.432,0.659-0.761,1.096-0.987
				c0.437-0.228,0.946-0.341,1.527-0.341c1.112,0,1.977,0.441,2.594,1.324c0.617,0.883,0.925,2.049,0.925,3.499V298.702z
				 M150.246,298.528c0-1.019-0.201-1.855-0.602-2.512c-0.401-0.655-0.992-0.983-1.772-0.983c-0.47,0-0.872,0.106-1.204,0.319
				s-0.601,0.505-0.805,0.876v4.341c0.205,0.371,0.473,0.66,0.805,0.868c0.332,0.207,0.739,0.312,1.22,0.312
				c0.775,0,1.361-0.284,1.76-0.852s0.598-1.299,0.598-2.195V298.528z"/>
		</g>
		<g>
			<path fill="#555658" d="M158.561,302.853c-0.055-0.271-0.098-0.511-0.129-0.718c-0.03-0.208-0.048-0.417-0.054-0.627
				c-0.304,0.432-0.701,0.793-1.191,1.083c-0.489,0.291-1.017,0.436-1.581,0.436c-0.935,0-1.647-0.239-2.138-0.718
				c-0.489-0.479-0.734-1.139-0.734-1.979c0-0.857,0.347-1.528,1.042-2.013c0.694-0.484,1.636-0.727,2.826-0.727h1.776v-0.888
				c0-0.526-0.161-0.942-0.481-1.25c-0.321-0.307-0.775-0.461-1.361-0.461c-0.531,0-0.96,0.133-1.287,0.398s-0.49,0.584-0.49,0.955
				l-1.552,0.017l-0.017-0.05c-0.039-0.653,0.267-1.251,0.917-1.793c0.65-0.542,1.49-0.813,2.519-0.813
				c1.018,0,1.837,0.259,2.457,0.776s0.93,1.263,0.93,2.236v4.325c0,0.321,0.017,0.631,0.05,0.93s0.094,0.592,0.183,0.88H158.561z
				 M155.846,301.657c0.592,0,1.126-0.152,1.602-0.457c0.476-0.304,0.786-0.652,0.93-1.045v-1.461h-1.834
				c-0.659,0-1.186,0.166-1.582,0.498c-0.396,0.332-0.593,0.722-0.593,1.17c0,0.398,0.125,0.714,0.374,0.946
				S155.359,301.657,155.846,301.657z"/>
		</g>
		<g>
			<path fill="#555658" d="M163.812,291.704v2.167h1.702v1.212h-1.702v5.453c0,0.421,0.087,0.717,0.261,0.889
				c0.175,0.172,0.406,0.258,0.693,0.258c0.094,0,0.199-0.013,0.315-0.038c0.116-0.024,0.213-0.051,0.291-0.079l0.224,1.121
				c-0.122,0.1-0.302,0.182-0.54,0.245s-0.473,0.095-0.706,0.095c-0.664,0-1.192-0.2-1.585-0.602s-0.589-1.03-0.589-1.889v-5.453
				h-1.428v-1.212h1.428v-2.167H163.812z"/>
		</g>
		<g>
			<path fill="#555658" d="M168.183,291.571h-1.635v-1.668h1.635V291.571z M168.183,302.853h-1.635v-8.981h1.635V302.853z"/>
		</g>
		<g>
			<path fill="#555658" d="M169.466,298.278c0-1.328,0.36-2.422,1.079-3.282s1.696-1.291,2.93-1.291
				c1.245,0,2.229,0.429,2.951,1.286c0.722,0.858,1.083,1.954,1.083,3.287v0.184c0,1.339-0.36,2.435-1.079,3.287
				c-0.719,0.852-1.699,1.277-2.938,1.277s-2.221-0.427-2.942-1.282c-0.723-0.854-1.083-1.949-1.083-3.282V298.278z
				 M171.101,298.462c0,0.951,0.201,1.737,0.602,2.357c0.401,0.619,0.998,0.93,1.789,0.93c0.78,0,1.373-0.311,1.776-0.93
				c0.404-0.62,0.606-1.406,0.606-2.357v-0.184c0-0.94-0.204-1.724-0.61-2.349c-0.407-0.625-1.003-0.938-1.789-0.938
				c-0.78,0-1.371,0.313-1.772,0.938c-0.401,0.625-0.602,1.408-0.602,2.349V298.462z"/>
		</g>
		<g>
			<path fill="#555658" d="M180.121,293.871l0.116,1.337c0.299-0.477,0.674-0.846,1.125-1.108c0.451-0.263,0.964-0.395,1.54-0.395
				c0.968,0,1.718,0.283,2.25,0.851s0.797,1.443,0.797,2.627v5.67h-1.635v-5.637c0-0.791-0.156-1.353-0.469-1.685
				c-0.313-0.332-0.79-0.498-1.432-0.498c-0.503,0-0.931,0.101-1.283,0.303c-0.351,0.202-0.629,0.485-0.834,0.851v6.666h-1.635
				v-8.981H180.121z"/>
		</g>
		<g>
			<path fill="#555658" d="M192.615,291.571h-1.635v-1.668h1.635V291.571z M192.615,302.853h-1.635v-8.981h1.635V302.853z"/>
		</g>
		<g>
			<path fill="#555658" d="M195.741,293.871l0.116,1.337c0.299-0.477,0.674-0.846,1.125-1.108c0.451-0.263,0.964-0.395,1.54-0.395
				c0.968,0,1.718,0.283,2.25,0.851s0.797,1.443,0.797,2.627v5.67h-1.635v-5.637c0-0.791-0.156-1.353-0.469-1.685
				c-0.313-0.332-0.79-0.498-1.432-0.498c-0.503,0-0.931,0.101-1.283,0.303c-0.351,0.202-0.629,0.485-0.834,0.851v6.666h-1.635
				v-8.981H195.741z"/>
		</g>
		<g>
			<path fill="#555658" d="M206.094,298.528c0-1.445,0.309-2.609,0.926-3.495c0.617-0.886,1.481-1.328,2.594-1.328
				c0.526,0,0.992,0.097,1.398,0.29c0.407,0.194,0.754,0.477,1.042,0.848v-4.939h1.635v12.949h-1.253l-0.249-1.137
				c-0.293,0.432-0.656,0.758-1.087,0.979c-0.432,0.222-0.933,0.332-1.502,0.332c-1.096,0-1.954-0.396-2.573-1.19
				s-0.93-1.839-0.93-3.134V298.528z M207.729,298.702c0,0.907,0.186,1.634,0.556,2.179s0.946,0.817,1.727,0.817
				c0.487,0,0.896-0.11,1.229-0.332c0.332-0.221,0.603-0.531,0.813-0.93v-4.191c-0.21-0.371-0.483-0.665-0.817-0.884
				c-0.335-0.219-0.738-0.328-1.208-0.328c-0.786,0-1.365,0.323-1.739,0.972c-0.373,0.646-0.56,1.488-0.56,2.523V298.702z"/>
		</g>
		<g>
			<path fill="#555658" d="M218.999,303.026c-1.29,0-2.295-0.412-3.017-1.236c-0.723-0.824-1.083-1.909-1.083-3.254v-0.365
				c0-1.289,0.372-2.356,1.117-3.2c0.744-0.844,1.653-1.266,2.727-1.266c1.201,0,2.102,0.374,2.702,1.12
				c0.6,0.748,0.9,1.741,0.9,2.98v0.863H216.6l-0.025,0.041c0,0.902,0.199,1.635,0.598,2.196s1.007,0.843,1.826,0.843
				c0.553,0,1.039-0.079,1.457-0.237c0.418-0.157,0.776-0.375,1.075-0.651l0.639,1.063c-0.321,0.31-0.744,0.571-1.27,0.784
				S219.74,303.026,218.999,303.026z M218.741,294.991c-0.57,0-1.042,0.221-1.415,0.66c-0.374,0.44-0.602,1.003-0.685,1.689
				l0.017,0.041h4.051v-0.133c0-0.652-0.161-1.192-0.481-1.618S219.411,294.991,218.741,294.991z"/>
		</g>
		<g>
			<path fill="#555658" d="M226.897,301.749c0.503,0,0.943-0.168,1.32-0.503s0.564-0.745,0.564-1.232h1.478l0.025,0.05
				c0.022,0.774-0.31,1.462-0.996,2.063s-1.483,0.9-2.391,0.9c-1.262,0-2.236-0.429-2.922-1.286s-1.029-1.926-1.029-3.204v-0.349
				c0-1.268,0.344-2.331,1.034-3.191c0.688-0.86,1.661-1.291,2.917-1.291c1.001,0,1.822,0.31,2.461,0.93
				c0.639,0.62,0.947,1.381,0.925,2.282l-0.017,0.051h-1.486c0-0.549-0.179-1.015-0.535-1.399c-0.357-0.385-0.807-0.577-1.349-0.577
				c-0.802,0-1.388,0.312-1.755,0.935c-0.368,0.622-0.552,1.376-0.552,2.262v0.349c0,0.902,0.181,1.663,0.543,2.283
				C225.496,301.438,226.084,301.749,226.897,301.749z"/>
		</g>
		<g>
			<path fill="#555658" d="M233.145,291.571h-1.635v-1.668h1.635V291.571z M233.145,302.853h-1.635v-8.981h1.635V302.853z"/>
		</g>
		<g>
			<path fill="#555658" d="M240.031,300.437c0-0.359-0.137-0.652-0.411-0.879c-0.273-0.228-0.792-0.427-1.556-0.598
				c-1.057-0.228-1.869-0.546-2.436-0.955c-0.567-0.409-0.851-0.957-0.851-1.644c0-0.73,0.311-1.355,0.934-1.876
				c0.622-0.521,1.429-0.78,2.419-0.78c1.018,0,1.843,0.276,2.474,0.83s0.933,1.198,0.905,1.935l-0.017,0.049h-1.561
				c0-0.387-0.17-0.738-0.511-1.054c-0.34-0.315-0.771-0.474-1.291-0.474c-0.576,0-1.006,0.131-1.291,0.391
				c-0.285,0.26-0.428,0.57-0.428,0.93c0,0.354,0.123,0.628,0.369,0.822c0.247,0.193,0.754,0.37,1.523,0.531
				c1.101,0.232,1.937,0.562,2.507,0.987s0.855,0.982,0.855,1.669c0,0.797-0.322,1.446-0.967,1.95
				c-0.645,0.504-1.487,0.755-2.527,0.755c-1.146,0-2.047-0.29-2.706-0.871s-0.971-1.259-0.938-2.033l0.017-0.051h1.561
				c0.028,0.582,0.244,1.006,0.647,1.274s0.877,0.403,1.419,0.403c0.581,0,1.036-0.124,1.365-0.37
				C239.866,301.133,240.031,300.819,240.031,300.437z"/>
		</g>
		<g>
			<path fill="#555658" d="M244.618,291.571h-1.635v-1.668h1.635V291.571z M244.618,302.853h-1.635v-8.981h1.635V302.853z"/>
		</g>
		<g>
			<path fill="#555658" d="M245.901,298.278c0-1.328,0.36-2.422,1.079-3.282s1.696-1.291,2.93-1.291
				c1.245,0,2.229,0.429,2.951,1.286c0.722,0.858,1.083,1.954,1.083,3.287v0.184c0,1.339-0.36,2.435-1.079,3.287
				c-0.719,0.852-1.699,1.277-2.938,1.277s-2.221-0.427-2.942-1.282c-0.723-0.854-1.083-1.949-1.083-3.282V298.278z
				 M247.537,298.462c0,0.951,0.201,1.737,0.602,2.357c0.401,0.619,0.998,0.93,1.789,0.93c0.78,0,1.373-0.311,1.776-0.93
				c0.404-0.62,0.606-1.406,0.606-2.357v-0.184c0-0.94-0.204-1.724-0.61-2.349c-0.407-0.625-1.003-0.938-1.789-0.938
				c-0.78,0-1.371,0.313-1.772,0.938c-0.401,0.625-0.602,1.408-0.602,2.349V298.462z"/>
		</g>
		<g>
			<path fill="#555658" d="M256.556,293.871l0.116,1.337c0.299-0.477,0.674-0.846,1.125-1.108c0.451-0.263,0.964-0.395,1.54-0.395
				c0.968,0,1.718,0.283,2.25,0.851s0.797,1.443,0.797,2.627v5.67h-1.635v-5.637c0-0.791-0.156-1.353-0.469-1.685
				c-0.313-0.332-0.79-0.498-1.432-0.498c-0.503,0-0.931,0.101-1.283,0.303c-0.351,0.202-0.629,0.485-0.834,0.851v6.666h-1.635
				v-8.981H256.556z"/>
		</g>
		<g>
			<path fill="#555658" d="M269.004,298.387h-4.897v-1.278h4.897V298.387z"/>
		</g>
		<g>
			<path fill="#555658" d="M272.18,293.871l0.116,1.179c0.293-0.426,0.666-0.757,1.117-0.992c0.451-0.235,0.975-0.353,1.573-0.353
				s1.111,0.139,1.54,0.415c0.429,0.276,0.751,0.691,0.967,1.245c0.288-0.515,0.663-0.92,1.125-1.216
				c0.462-0.296,1.003-0.444,1.623-0.444c0.913,0,1.635,0.314,2.167,0.942s0.797,1.572,0.797,2.834v5.371h-1.635v-5.387
				c0-0.886-0.152-1.513-0.457-1.881s-0.758-0.552-1.361-0.552c-0.559,0-1.011,0.193-1.357,0.581
				c-0.346,0.388-0.549,0.877-0.61,1.469v0.066v5.703h-1.644v-5.387c0-0.842-0.156-1.457-0.469-1.848
				c-0.313-0.39-0.763-0.585-1.349-0.585c-0.498,0-0.908,0.103-1.229,0.308c-0.321,0.204-0.567,0.492-0.739,0.863v6.648h-1.635
				v-8.981H272.18z"/>
		</g>
		<g>
			<path fill="#555658" d="M290.247,302.853c-0.055-0.271-0.098-0.511-0.129-0.718c-0.03-0.208-0.048-0.417-0.054-0.627
				c-0.304,0.432-0.701,0.793-1.191,1.083c-0.489,0.291-1.017,0.436-1.581,0.436c-0.935,0-1.647-0.239-2.138-0.718
				c-0.489-0.479-0.734-1.139-0.734-1.979c0-0.857,0.347-1.528,1.042-2.013c0.694-0.484,1.636-0.727,2.826-0.727h1.776v-0.888
				c0-0.526-0.161-0.942-0.481-1.25c-0.321-0.307-0.775-0.461-1.361-0.461c-0.531,0-0.96,0.133-1.287,0.398s-0.49,0.584-0.49,0.955
				l-1.552,0.017l-0.017-0.05c-0.039-0.653,0.267-1.251,0.917-1.793c0.65-0.542,1.49-0.813,2.519-0.813
				c1.018,0,1.837,0.259,2.457,0.776s0.93,1.263,0.93,2.236v4.325c0,0.321,0.017,0.631,0.05,0.93s0.094,0.592,0.183,0.88H290.247z
				 M287.533,301.657c0.592,0,1.126-0.152,1.602-0.457c0.476-0.304,0.786-0.652,0.93-1.045v-1.461h-1.834
				c-0.659,0-1.186,0.166-1.582,0.498c-0.396,0.332-0.593,0.722-0.593,1.17c0,0.398,0.125,0.714,0.374,0.946
				S287.046,301.657,287.533,301.657z"/>
		</g>
		<g>
			<path fill="#555658" d="M295.706,298.71h-0.838v4.143h-1.635v-12.949h1.635v7.504h0.822l2.698-3.536h1.959l-3.262,4.142
				l3.544,4.84h-1.934L295.706,298.71z"/>
		</g>
		<g>
			<path fill="#555658" d="M302.858,291.571h-1.635v-1.668h1.635V291.571z M302.858,302.853h-1.635v-8.981h1.635V302.853z"/>
		</g>
		<g>
			<path fill="#555658" d="M305.984,293.871l0.116,1.337c0.299-0.477,0.674-0.846,1.125-1.108c0.451-0.263,0.964-0.395,1.54-0.395
				c0.968,0,1.718,0.283,2.25,0.851s0.797,1.443,0.797,2.627v5.67h-1.635v-5.637c0-0.791-0.156-1.353-0.469-1.685
				c-0.313-0.332-0.79-0.498-1.432-0.498c-0.503,0-0.931,0.101-1.283,0.303c-0.351,0.202-0.629,0.485-0.834,0.851v6.666h-1.635
				v-8.981H305.984z"/>
		</g>
		<g>
			<path fill="#555658" d="M313.044,298.528c0-1.445,0.309-2.609,0.926-3.495c0.617-0.886,1.479-1.328,2.585-1.328
				c0.57,0,1.071,0.115,1.502,0.345s0.794,0.561,1.087,0.992l0.199-1.171h1.303v9.031c0,1.151-0.335,2.035-1.004,2.652
				s-1.635,0.925-2.897,0.925c-0.432,0-0.898-0.059-1.398-0.178c-0.501-0.119-0.942-0.281-1.324-0.486l0.249-1.27
				c0.315,0.166,0.696,0.3,1.142,0.402c0.445,0.103,0.884,0.154,1.315,0.154c0.797,0,1.376-0.182,1.739-0.544
				c0.362-0.362,0.543-0.915,0.543-1.656v-1.021c-0.293,0.376-0.645,0.661-1.054,0.854s-0.883,0.29-1.419,0.29
				c-1.096,0-1.952-0.396-2.569-1.19c-0.617-0.794-0.926-1.839-0.926-3.134V298.528z M314.68,298.702
				c0,0.902,0.186,1.627,0.556,2.175s0.943,0.821,1.718,0.821c0.493,0,0.905-0.111,1.237-0.336c0.332-0.224,0.606-0.541,0.822-0.95
				v-4.134c-0.21-0.382-0.484-0.685-0.822-0.909c-0.337-0.224-0.744-0.336-1.22-0.336c-0.78,0-1.357,0.323-1.731,0.972
				c-0.373,0.646-0.56,1.488-0.56,2.523V298.702z"/>
		</g>
	</g>
	<g>
		<g>
			<g>
				<path fill="#FFFFFF" d="M180.58,217.033h8.294v2.098h-8.294v9.026h-2.263v-9.026h-8.129v-2.098h8.129v-8.725h2.263V217.033z"/>
			</g>
		</g>
		<g>
			<g>
				<g>
					<path fill="#EE282F" d="M39.589,232.373v4.049h-1.366v-10.096h3.862c1.077,0,1.915,0.278,2.514,0.833s0.898,1.285,0.898,2.191
						c0,0.916-0.3,1.648-0.898,2.198s-1.437,0.825-2.514,0.825H39.589z M39.589,231.305h2.496c0.685,0,1.195-0.184,1.533-0.551
						c0.337-0.368,0.506-0.831,0.506-1.391c0-0.559-0.17-1.026-0.51-1.4s-0.85-0.562-1.529-0.562h-2.496V231.305z"/>
				</g>
				<g>
					<path fill="#EE282F" d="M54.414,226.326v6.706c0,1.109-0.36,1.976-1.082,2.6s-1.65,0.936-2.788,0.936
						c-1.096,0-1.992-0.313-2.69-0.939s-1.047-1.492-1.047-2.597v-6.706h1.366v6.706c0,0.772,0.221,1.376,0.662,1.813
						c0.441,0.437,1.011,0.655,1.709,0.655c0.74,0,1.342-0.218,1.807-0.655c0.464-0.437,0.697-1.041,0.697-1.813v-6.706H54.414z"/>
				</g>
				<g>
					<path fill="#EE282F" d="M56.293,236.422v-10.096h3.293c1.054,0,1.879,0.228,2.476,0.683c0.597,0.456,0.895,1.139,0.895,2.049
						c0,0.435-0.134,0.824-0.402,1.168c-0.268,0.345-0.624,0.607-1.067,0.787c0.661,0.093,1.185,0.379,1.57,0.86
						c0.386,0.481,0.579,1.047,0.579,1.699c0,0.925-0.301,1.631-0.901,2.119c-0.601,0.488-1.415,0.731-2.441,0.731H56.293z
						 M57.659,230.618h2.212c0.508,0,0.922-0.14,1.241-0.419s0.478-0.669,0.478-1.168c0-0.545-0.172-0.954-0.517-1.224
						c-0.344-0.27-0.84-0.405-1.487-0.405h-1.928V230.618z M57.659,231.686v3.668h2.635c0.624,0,1.108-0.154,1.453-0.461
						c0.345-0.308,0.517-0.743,0.517-1.307c0-0.56-0.176-1.01-0.527-1.352c-0.351-0.342-0.825-0.525-1.421-0.548h-0.09H57.659z"/>
				</g>
				<g>
					<path fill="#EE282F" d="M66.403,235.354h4.924v1.068h-6.29v-10.096h1.366V235.354z"/>
				</g>
				<g>
					<path fill="#EE282F" d="M74.073,236.422H72.7v-10.096h1.373V236.422z"/>
				</g>
				<g>
					<path fill="#EE282F" d="M83.497,233.19l0.014,0.042c0.018,0.947-0.314,1.74-0.999,2.378c-0.684,0.638-1.588,0.957-2.711,0.957
						c-1.142,0-2.072-0.404-2.791-1.213s-1.078-1.835-1.078-3.079v-1.796c0-1.244,0.359-2.271,1.078-3.082
						c0.719-0.812,1.649-1.217,2.791-1.217s2.05,0.304,2.725,0.912c0.675,0.608,1.003,1.413,0.985,2.417l-0.014,0.042h-1.311
						c0-0.708-0.208-1.267-0.624-1.678c-0.416-0.411-1.003-0.617-1.761-0.617c-0.763,0-1.371,0.308-1.824,0.922
						c-0.453,0.615-0.679,1.377-0.679,2.288v1.81c0,0.92,0.226,1.688,0.679,2.302c0.453,0.615,1.061,0.922,1.824,0.922
						c0.758,0,1.345-0.205,1.761-0.613c0.416-0.409,0.624-0.975,0.624-1.696H83.497z"/>
				</g>
				<g>
					<path fill="#EE282F" d="M95.881,236.422h-1.366v-4.458h-4.903v4.458h-1.366v-10.096h1.366v4.563h4.903v-4.563h1.366V236.422z"
						/>
				</g>
				<g>
					<path fill="#EE282F" d="M103.468,231.741h-4.147v3.613h4.854v1.068h-6.22v-10.096h6.144v1.075h-4.778v3.266h4.147V231.741z"/>
				</g>
				<g>
					<path fill="#EE282F" d="M110.721,233.822h-3.8l-0.901,2.6h-1.394l3.64-10.096h1.172l3.564,10.096h-1.394L110.721,233.822z
						 M107.316,232.678h3.016l-1.47-4.334h-0.042L107.316,232.678z"/>
				</g>
				<g>
					<path fill="#EE282F" d="M115.568,232.046v4.375h-1.366v-10.089h3.453c1.104,0,1.948,0.245,2.531,0.735
						c0.583,0.49,0.874,1.202,0.874,2.136c0,0.518-0.135,0.968-0.405,1.352s-0.665,0.689-1.183,0.916
						c0.555,0.18,0.954,0.473,1.196,0.877c0.243,0.405,0.364,0.905,0.364,1.501v0.95c0,0.314,0.034,0.596,0.104,0.846
						c0.069,0.25,0.189,0.453,0.361,0.61v0.167h-1.408c-0.18-0.157-0.296-0.388-0.347-0.693s-0.076-0.62-0.076-0.943v-0.922
						c0-0.545-0.159-0.985-0.479-1.317c-0.319-0.333-0.747-0.5-1.283-0.5H115.568z M115.568,230.972h1.949
						c0.771,0,1.328-0.146,1.667-0.44c0.34-0.293,0.51-0.741,0.51-1.342c0-0.568-0.166-1.009-0.496-1.321
						c-0.331-0.312-0.845-0.468-1.543-0.468h-2.087V230.972z"/>
				</g>
				<g>
					<path fill="#EE282F" d="M124.465,236.422h-1.373v-10.096h1.373V236.422z"/>
				</g>
				<g>
					<path fill="#EE282F" d="M134.318,236.422h-1.366l-4.861-7.71l-0.042,0.014v7.697h-1.366v-10.096h1.366l4.86,7.704l0.042-0.014
						v-7.69h1.366V236.422z"/>
				</g>
				<g>
					<path fill="#EE282F" d="M143.658,235.063c-0.24,0.374-0.657,0.719-1.251,1.033c-0.594,0.314-1.365,0.471-2.313,0.471
						c-1.165,0-2.128-0.386-2.891-1.158s-1.145-1.771-1.145-2.996v-2.08c0-1.225,0.368-2.224,1.103-2.996
						c0.735-0.772,1.683-1.158,2.843-1.158c1.124,0,2.011,0.299,2.663,0.898c0.651,0.599,0.968,1.36,0.95,2.285l-0.014,0.042h-1.311
						c0-0.615-0.199-1.127-0.596-1.536s-0.962-0.614-1.692-0.614c-0.771,0-1.394,0.289-1.865,0.867
						c-0.471,0.578-0.707,1.31-0.707,2.198v2.094c0,0.897,0.25,1.635,0.749,2.215s1.137,0.87,1.914,0.87
						c0.596,0,1.069-0.077,1.418-0.232c0.349-0.155,0.608-0.339,0.78-0.551v-2.274h-2.289v-1.068h3.654V235.063z"/>
				</g>
				<g>
					<path fill="#EE282F" d="M151.113,233.877c0-0.458-0.164-0.841-0.492-1.151c-0.329-0.31-0.906-0.573-1.734-0.791
						c-1.026-0.254-1.827-0.628-2.402-1.124c-0.575-0.494-0.863-1.116-0.863-1.865c0-0.79,0.31-1.449,0.929-1.976
						s1.423-0.791,2.413-0.791c1.063,0,1.91,0.302,2.542,0.905c0.631,0.604,0.937,1.307,0.918,2.112l-0.021,0.042h-1.304
						c0-0.573-0.2-1.047-0.6-1.421c-0.399-0.375-0.912-0.562-1.536-0.562c-0.638,0-1.127,0.155-1.466,0.465
						c-0.34,0.31-0.51,0.712-0.51,1.207c0,0.439,0.186,0.806,0.558,1.099s0.977,0.551,1.813,0.773
						c1.017,0.264,1.791,0.652,2.323,1.165c0.531,0.513,0.797,1.146,0.797,1.9c0,0.813-0.32,1.468-0.96,1.962
						c-0.641,0.495-1.476,0.742-2.507,0.742c-0.976,0-1.836-0.272-2.583-0.818c-0.746-0.545-1.108-1.276-1.085-2.191l0.014-0.042
						h1.304c0,0.633,0.24,1.122,0.721,1.466c0.481,0.345,1.024,0.517,1.629,0.517c0.647,0,1.159-0.146,1.536-0.437
						C150.924,234.771,151.113,234.376,151.113,233.877z"/>
				</g>
			</g>
			<g>
				<g>
					<path fill="#EF353C" d="M73.534,179.425h4.268c1.62,0,2.809-0.569,3.567-1.707c0.758-1.138,1.137-2.656,1.137-4.557
						c0-1.816-0.39-3.23-1.168-4.243c-0.779-1.012-1.823-1.519-3.131-1.519c-1.226,0-2.228,0.484-3.006,1.451
						c-0.779,0.967-1.168,2.187-1.168,3.658h-8.816c0-2.368,0.545-4.491,1.635-6.371c1.091-1.879,2.617-3.349,4.58-4.408
						c1.962-1.059,4.138-1.588,6.526-1.588c4.174,0,7.445,1.152,9.813,3.458c2.367,2.306,3.551,5.462,3.551,9.471
						c0,2.056-0.535,3.961-1.604,5.716c-1.07,1.755-2.477,3.1-4.222,4.034c2.139,0.914,3.733,2.285,4.782,4.112
						c1.048,1.828,1.573,3.988,1.573,6.48c0,4.029-1.283,7.258-3.848,9.688c-2.565,2.43-5.935,3.645-10.108,3.645
						c-3.884,0-7.036-1.199-9.455-3.598c-2.419-2.398-3.629-5.55-3.629-9.455h8.816c0,1.637,0.425,3.013,1.277,4.125
						c0.852,1.113,1.932,1.669,3.24,1.669c1.516,0,2.715-0.563,3.598-1.69c0.883-1.127,1.324-2.63,1.324-4.508
						c0-4.487-1.734-6.741-5.202-6.762h-4.33V179.425z"/>
				</g>
				<g>
					<path fill="#EF353C" d="M121.197,188.988h3.863v7.259h-3.863v9.875h-8.816v-9.875H97.365l-0.405-5.652l15.389-29.83h8.847
						V188.988z M105.527,188.988h6.854v-15.171l-0.187,0.343L105.527,188.988z"/>
				</g>
			</g>
			<g opacity="0.6">
				<g>
					<rect x="61.365" y="214.114" fill="#F7979A" width="67.263" height="3"/>
				</g>
			</g>
		</g>
		<g>
			<g>
				<g>
					<path fill="#EE282F" d="M199.525,234.529h0.042l3.224-8.203h1.699v10.096h-1.366v-7.565l-0.042-0.007l-3.058,7.572h-0.95
						l-3.147-7.822l-0.042,0.007v7.814h-1.366v-10.096h1.796L199.525,234.529z"/>
				</g>
				<g>
					<path fill="#EE282F" d="M214.281,232.275c0,1.234-0.383,2.258-1.147,3.072c-0.766,0.813-1.758,1.22-2.979,1.22
						c-1.179,0-2.137-0.407-2.874-1.22s-1.106-1.837-1.106-3.072v-1.796c0-1.229,0.369-2.253,1.106-3.072s1.695-1.228,2.874-1.228
						c1.221,0,2.213,0.408,2.979,1.224c0.765,0.816,1.147,1.841,1.147,3.075V232.275z M212.915,230.465
						c0-0.924-0.25-1.683-0.749-2.274c-0.499-0.592-1.169-0.888-2.011-0.888c-0.795,0-1.43,0.296-1.903,0.888
						c-0.474,0.591-0.711,1.35-0.711,2.274v1.81c0,0.934,0.237,1.696,0.711,2.288s1.108,0.888,1.903,0.888
						c0.846,0,1.518-0.295,2.015-0.884c0.497-0.589,0.745-1.353,0.745-2.292V230.465z"/>
				</g>
				<g>
					<path fill="#EE282F" d="M215.966,236.422v-10.096h3.293c1.054,0,1.879,0.228,2.476,0.683c0.597,0.456,0.895,1.139,0.895,2.049
						c0,0.435-0.134,0.824-0.402,1.168c-0.268,0.345-0.624,0.607-1.067,0.787c0.661,0.093,1.185,0.379,1.57,0.86
						c0.386,0.481,0.579,1.047,0.579,1.699c0,0.925-0.301,1.631-0.901,2.119c-0.601,0.488-1.415,0.731-2.441,0.731H215.966z
						 M217.332,230.618h2.212c0.508,0,0.922-0.14,1.241-0.419s0.478-0.669,0.478-1.168c0-0.545-0.172-0.954-0.517-1.224
						c-0.344-0.27-0.84-0.405-1.487-0.405h-1.928V230.618z M217.332,231.686v3.668h2.635c0.624,0,1.108-0.154,1.453-0.461
						c0.345-0.308,0.517-0.743,0.517-1.307c0-0.56-0.176-1.01-0.527-1.352c-0.351-0.342-0.825-0.525-1.421-0.548h-0.09H217.332z"/>
				</g>
				<g>
					<path fill="#EE282F" d="M226.222,236.422h-1.373v-10.096h1.373V236.422z"/>
				</g>
				<g>
					<path fill="#EE282F" d="M229.807,235.354h4.923v1.068h-6.289v-10.096h1.366V235.354z"/>
				</g>
				<g>
					<path fill="#EE282F" d="M241.478,231.741h-4.146v3.613h4.854v1.068h-6.22v-10.096h6.144v1.075h-4.777v3.266h4.146V231.741z"/>
				</g>
				<g>
					<path fill="#EE282F" d="M253.966,233.19l0.014,0.042c0.018,0.947-0.314,1.74-0.999,2.378c-0.684,0.638-1.588,0.957-2.711,0.957
						c-1.142,0-2.072-0.404-2.791-1.213s-1.078-1.835-1.078-3.079v-1.796c0-1.244,0.359-2.271,1.078-3.082
						c0.719-0.812,1.649-1.217,2.791-1.217s2.05,0.304,2.725,0.912c0.675,0.608,1.003,1.413,0.985,2.417l-0.014,0.042h-1.311
						c0-0.708-0.208-1.267-0.624-1.678c-0.416-0.411-1.003-0.617-1.761-0.617c-0.763,0-1.371,0.308-1.824,0.922
						c-0.453,0.615-0.679,1.377-0.679,2.288v1.81c0,0.92,0.226,1.688,0.679,2.302c0.453,0.615,1.061,0.922,1.824,0.922
						c0.758,0,1.345-0.205,1.761-0.613c0.416-0.409,0.624-0.975,0.624-1.696H253.966z"/>
				</g>
				<g>
					<path fill="#EE282F" d="M263.182,232.275c0,1.234-0.382,2.258-1.147,3.072c-0.765,0.813-1.758,1.22-2.978,1.22
						c-1.179,0-2.137-0.407-2.875-1.22s-1.105-1.837-1.105-3.072v-1.796c0-1.229,0.368-2.253,1.105-3.072s1.696-1.228,2.875-1.228
						c1.22,0,2.213,0.408,2.978,1.224c0.765,0.816,1.147,1.841,1.147,3.075V232.275z M261.816,230.465
						c0-0.924-0.25-1.683-0.749-2.274c-0.5-0.592-1.17-0.888-2.011-0.888c-0.795,0-1.43,0.296-1.903,0.888
						c-0.474,0.591-0.71,1.35-0.71,2.274v1.81c0,0.934,0.236,1.696,0.71,2.288c0.474,0.592,1.108,0.888,1.903,0.888
						c0.846,0,1.517-0.295,2.014-0.884s0.746-1.353,0.746-2.292V230.465z"/>
				</g>
				<g>
					<path fill="#EE282F" d="M269.873,234.529h0.042l3.225-8.203h1.698v10.096h-1.366v-7.565l-0.042-0.007l-3.058,7.572h-0.95
						l-3.148-7.822l-0.042,0.007v7.814h-1.366v-10.096h1.796L269.873,234.529z"/>
				</g>
				<g>
					<path fill="#EE282F" d="M281.925,234.529h0.042l3.225-8.203h1.698v10.096h-1.366v-7.565l-0.042-0.007l-3.058,7.572h-0.95
						l-3.148-7.822l-0.042,0.007v7.814h-1.366v-10.096h1.796L281.925,234.529z"/>
				</g>
				<g>
					<path fill="#EE282F" d="M290.482,236.422h-1.373v-10.096h1.373V236.422z"/>
				</g>
				<g>
					<path fill="#EE282F" d="M299.559,227.401h-3.328v9.021h-1.366v-9.021h-3.286v-1.075h7.98V227.401z"/>
				</g>
				<g>
					<path fill="#EE282F" d="M307.88,227.401h-3.328v9.021h-1.366v-9.021h-3.287v-1.075h7.981V227.401z"/>
				</g>
				<g>
					<path fill="#EE282F" d="M314.544,231.741h-4.146v3.613h4.854v1.068h-6.22v-10.096h6.144v1.075h-4.777v3.266h4.146V231.741z"/>
				</g>
				<g>
					<path fill="#EE282F" d="M322.095,231.741h-4.147v3.613h4.854v1.068h-6.22v-10.096h6.144v1.075h-4.778v3.266h4.147V231.741z"/>
				</g>
				<g>
					<path fill="#EE282F" d="M232.716,250.918c0-0.458-0.164-0.841-0.492-1.151s-0.906-0.573-1.733-0.791
						c-1.026-0.254-1.827-0.628-2.402-1.124c-0.576-0.494-0.863-1.116-0.863-1.865c0-0.79,0.31-1.449,0.929-1.976
						c0.62-0.527,1.424-0.791,2.413-0.791c1.063,0,1.91,0.302,2.542,0.905c0.631,0.604,0.937,1.307,0.918,2.112l-0.021,0.042h-1.304
						c0-0.573-0.2-1.047-0.6-1.421c-0.4-0.375-0.912-0.562-1.536-0.562c-0.638,0-1.127,0.155-1.466,0.465
						c-0.34,0.31-0.51,0.712-0.51,1.207c0,0.439,0.186,0.806,0.558,1.099s0.977,0.551,1.813,0.773
						c1.017,0.264,1.791,0.652,2.323,1.165s0.797,1.146,0.797,1.9c0,0.813-0.32,1.468-0.96,1.962
						c-0.641,0.495-1.477,0.742-2.507,0.742c-0.976,0-1.837-0.272-2.583-0.818c-0.747-0.545-1.108-1.276-1.085-2.191l0.014-0.042
						h1.304c0,0.633,0.24,1.122,0.721,1.466c0.481,0.345,1.024,0.517,1.63,0.517c0.647,0,1.159-0.146,1.536-0.437
						C232.527,251.813,232.716,251.417,232.716,250.918z"/>
				</g>
				<g>
					<path fill="#EE282F" d="M241.245,248.782h-4.146v3.613h4.854v1.068h-6.22v-10.096h6.144v1.075h-4.777v3.266h4.146V248.782z"/>
				</g>
				<g>
					<path fill="#EE282F" d="M248.665,250.918c0-0.458-0.164-0.841-0.492-1.151c-0.329-0.31-0.906-0.573-1.734-0.791
						c-1.026-0.254-1.827-0.628-2.403-1.124c-0.575-0.494-0.863-1.116-0.863-1.865c0-0.79,0.31-1.449,0.93-1.976
						c0.619-0.527,1.423-0.791,2.413-0.791c1.063,0,1.91,0.302,2.541,0.905c0.631,0.604,0.937,1.307,0.919,2.112l-0.021,0.042
						h-1.304c0-0.573-0.2-1.047-0.6-1.421s-0.912-0.562-1.536-0.562c-0.638,0-1.127,0.155-1.467,0.465s-0.51,0.712-0.51,1.207
						c0,0.439,0.186,0.806,0.558,1.099s0.977,0.551,1.813,0.773c1.018,0.264,1.792,0.652,2.323,1.165
						c0.531,0.513,0.797,1.146,0.797,1.9c0,0.813-0.32,1.468-0.96,1.962c-0.64,0.495-1.476,0.742-2.507,0.742
						c-0.975,0-1.836-0.272-2.583-0.818s-1.108-1.276-1.085-2.191l0.014-0.042h1.303c0,0.633,0.24,1.122,0.722,1.466
						c0.48,0.345,1.023,0.517,1.629,0.517c0.647,0,1.159-0.146,1.536-0.437C248.477,251.813,248.665,251.417,248.665,250.918z"/>
				</g>
				<g>
					<path fill="#EE282F" d="M257.063,250.918c0-0.458-0.164-0.841-0.492-1.151c-0.329-0.31-0.906-0.573-1.734-0.791
						c-1.026-0.254-1.827-0.628-2.403-1.124c-0.575-0.494-0.863-1.116-0.863-1.865c0-0.79,0.31-1.449,0.93-1.976
						c0.619-0.527,1.423-0.791,2.413-0.791c1.063,0,1.91,0.302,2.541,0.905c0.631,0.604,0.937,1.307,0.919,2.112l-0.021,0.042
						h-1.304c0-0.573-0.2-1.047-0.6-1.421s-0.912-0.562-1.536-0.562c-0.638,0-1.127,0.155-1.467,0.465s-0.51,0.712-0.51,1.207
						c0,0.439,0.186,0.806,0.558,1.099s0.977,0.551,1.813,0.773c1.018,0.264,1.792,0.652,2.323,1.165
						c0.531,0.513,0.797,1.146,0.797,1.9c0,0.813-0.32,1.468-0.96,1.962c-0.64,0.495-1.476,0.742-2.507,0.742
						c-0.975,0-1.836-0.272-2.583-0.818s-1.108-1.276-1.085-2.191l0.014-0.042h1.303c0,0.633,0.24,1.122,0.722,1.466
						c0.48,0.345,1.023,0.517,1.629,0.517c0.647,0,1.159-0.146,1.536-0.437C256.874,251.813,257.063,251.417,257.063,250.918z"/>
				</g>
				<g>
					<path fill="#EE282F" d="M261.591,253.463h-1.373v-10.096h1.373V253.463z"/>
				</g>
				<g>
					<path fill="#EE282F" d="M271.521,249.316c0,1.234-0.383,2.258-1.147,3.072c-0.766,0.813-1.758,1.22-2.979,1.22
						c-1.179,0-2.137-0.407-2.874-1.22s-1.106-1.837-1.106-3.072v-1.796c0-1.229,0.369-2.253,1.106-3.072s1.695-1.228,2.874-1.228
						c1.221,0,2.213,0.408,2.979,1.224c0.765,0.816,1.147,1.841,1.147,3.075V249.316z M270.154,247.506
						c0-0.924-0.25-1.683-0.749-2.274c-0.499-0.592-1.169-0.888-2.011-0.888c-0.795,0-1.43,0.296-1.903,0.888
						c-0.474,0.591-0.711,1.35-0.711,2.274v1.81c0,0.934,0.237,1.696,0.711,2.288s1.108,0.888,1.903,0.888
						c0.846,0,1.518-0.295,2.015-0.884c0.497-0.589,0.745-1.353,0.745-2.292V247.506z"/>
				</g>
				<g>
					<path fill="#EE282F" d="M280.84,253.463h-1.366l-4.86-7.71l-0.042,0.014v7.697h-1.366v-10.096h1.366l4.861,7.704l0.042-0.014
						v-7.69h1.366V253.463z"/>
				</g>
				<g>
					<path fill="#EE282F" d="M288.301,250.918c0-0.458-0.164-0.841-0.492-1.151c-0.329-0.31-0.906-0.573-1.734-0.791
						c-1.026-0.254-1.827-0.628-2.402-1.124c-0.575-0.494-0.863-1.116-0.863-1.865c0-0.79,0.31-1.449,0.929-1.976
						s1.423-0.791,2.413-0.791c1.063,0,1.91,0.302,2.542,0.905c0.631,0.604,0.937,1.307,0.918,2.112l-0.021,0.042h-1.304
						c0-0.573-0.2-1.047-0.6-1.421c-0.399-0.375-0.912-0.562-1.536-0.562c-0.638,0-1.127,0.155-1.466,0.465
						c-0.34,0.31-0.51,0.712-0.51,1.207c0,0.439,0.186,0.806,0.558,1.099s0.977,0.551,1.813,0.773
						c1.017,0.264,1.791,0.652,2.323,1.165c0.531,0.513,0.797,1.146,0.797,1.9c0,0.813-0.32,1.468-0.96,1.962
						c-0.641,0.495-1.476,0.742-2.507,0.742c-0.976,0-1.836-0.272-2.583-0.818c-0.746-0.545-1.108-1.276-1.085-2.191l0.014-0.042
						h1.304c0,0.633,0.24,1.122,0.721,1.466c0.481,0.345,1.024,0.517,1.629,0.517c0.647,0,1.159-0.146,1.536-0.437
						C288.113,251.813,288.301,251.417,288.301,250.918z"/>
				</g>
			</g>
			<g>
				<g>
					<path fill="#EF353C" d="M248.241,206.604h-8.847v-34.641l-8.629,3.333v-7.352l16.542-6.76h0.935V206.604z"/>
				</g>
				<g>
					<path fill="#EF353C" d="M286.527,173.285c0,2.199-0.467,4.148-1.402,5.849s-2.222,3.059-3.863,4.075
						c1.869,1.061,3.344,2.521,4.424,4.383c1.079,1.861,1.62,4.05,1.62,6.565c0,4.034-1.164,7.221-3.489,9.561
						c-2.326,2.339-5.494,3.509-9.502,3.509c-4.008,0-7.196-1.169-9.563-3.509c-2.367-2.339-3.551-5.526-3.551-9.561
						c0-2.516,0.54-4.709,1.62-6.581s2.565-3.327,4.455-4.367c-1.662-1.016-2.959-2.375-3.894-4.075s-1.402-3.65-1.402-5.849
						c0-3.961,1.11-7.062,3.333-9.302c2.222-2.24,5.203-3.36,8.941-3.36c3.78,0,6.77,1.13,8.972,3.391
						C285.426,166.275,286.527,169.365,286.527,173.285z M274.315,199.969c1.329,0,2.353-0.572,3.069-1.714
						c0.716-1.143,1.075-2.731,1.075-4.766c0-2.034-0.374-3.627-1.122-4.781c-0.748-1.153-1.776-1.73-3.084-1.73
						s-2.342,0.577-3.1,1.73c-0.758,1.154-1.137,2.747-1.137,4.781c0,2.034,0.379,3.623,1.137,4.766
						C271.912,199.397,272.965,199.969,274.315,199.969z M277.742,173.738c0-1.774-0.285-3.193-0.856-4.258
						s-1.448-1.598-2.632-1.598c-1.122,0-1.973,0.517-2.554,1.55c-0.582,1.034-0.873,2.469-0.873,4.306
						c0,1.796,0.291,3.241,0.873,4.337c0.581,1.096,1.453,1.645,2.616,1.645s2.025-0.548,2.586-1.645
						S277.742,175.534,277.742,173.738z"/>
				</g>
			</g>
			<g opacity="0.6">
				<g>
					<rect x="224.514" y="213.596" fill="#F7979A" width="67.269" height="3"/>
				</g>
			</g>
		</g>
	</g>
</g>
</svg>
