<?xml version="1.0" encoding="utf-8"?>
<!-- Generator: Adobe Illustrator 16.0.0, SVG Export Plug-In . SVG Version: 6.00 Build 0)  -->
<!DOCTYPE svg PUBLIC "-//W3C//DTD SVG 1.1//EN" "http://www.w3.org/Graphics/SVG/1.1/DTD/svg11.dtd">
<svg version="1.1" id="Layer_1" xmlns="http://www.w3.org/2000/svg" xmlns:xlink="http://www.w3.org/1999/xlink" x="0px" y="0px"
	 width="360px" height="190px" viewBox="0 0 360 190" enable-background="new 0 0 360 190" xml:space="preserve">
<g>
	<rect fill="#FABBBD" width="360" height="190"/>
</g>
<g>
	<g id="circle-element">
		<path fill="#EF353C" d="M180.001,25c-38.666,0-70,31.342-70,70.002c0,38.659,31.334,69.998,70,69.998
			c38.658,0,69.998-31.339,69.998-69.998C249.999,56.342,218.659,25,180.001,25z"/>
	</g>
	<g>
		<g id="petal-15" class="fourty">
			<path fill="#F1F1F2" d="M144.998,42.619c3.65-2.436,8.623-1.11,10.566,2.83l15.612,31.657c0.577,1.179,0.196,2.612-0.903,3.341
				c-1.093,0.736-2.561,0.541-3.431-0.45L143.57,53.46C140.674,50.158,141.349,45.057,144.998,42.619z"/>
		</g>
		<g id="petal-14" class="fourty">
			<path fill="#F1F1F2" d="M127.618,60.002c2.435-3.651,7.54-4.327,10.842-1.431l26.536,23.273c0.988,0.869,1.184,2.336,0.449,3.436
				c-0.73,1.094-2.158,1.476-3.341,0.897l-31.655-15.613C126.506,68.623,125.177,63.649,127.618,60.002z"/>
		</g>
		<g id="petal-13" class="sixty">
			<path fill="#F1F1F2" d="M118.209,82.712c0.858-4.305,5.31-6.885,9.471-5.471l33.426,11.343c1.244,0.424,1.986,1.709,1.728,3
				c-0.253,1.295-1.431,2.197-2.749,2.109l-35.22-2.308C120.481,91.101,117.354,87.014,118.209,82.712z"/>
		</g>
		<g id="petal-12" class="sixty">
			<path fill="#F1F1F2" d="M118.209,107.292c-0.854-4.303,2.272-8.39,6.656-8.676l35.226-2.31c1.312-0.087,2.489,0.813,2.743,2.108
				c0.258,1.292-0.484,2.576-1.728,3l-33.426,11.346C123.519,114.173,119.067,111.595,118.209,107.292z"/>
		</g>
		<g id="petal-11" class="sixty">
			<path fill="#F1F1F2" d="M127.618,130c-2.441-3.646-1.112-8.62,2.831-10.563l31.655-15.612c1.184-0.581,2.611-0.198,3.341,0.895
				c0.734,1.1,0.544,2.568-0.449,3.439L138.46,131.43C135.157,134.325,130.053,133.649,127.618,130z"/>
		</g>
		<g id="petal-10" class="sixty">
			<path fill="#F1F1F2" d="M144.998,147.381c-3.649-2.438-4.323-7.538-1.427-10.841l23.271-26.538
				c0.87-0.989,2.338-1.184,3.431-0.45c1.099,0.731,1.486,2.163,0.903,3.343l-15.612,31.658
				C153.621,148.494,148.647,149.821,144.998,147.381z"/>
		</g>
		<g id="petal-9" class="sixty">
			<path fill="#F1F1F2" d="M176.382,150.133c-0.285,4.385-4.372,7.514-8.671,6.656c-4.308-0.856-6.887-5.31-5.469-9.47
				l11.342-33.425c0.422-1.243,1.712-1.986,3.001-1.729c1.29,0.255,2.192,1.433,2.107,2.747L176.382,150.133z"/>
		</g>
		<g id="petal-16" class="sixty">
			<path fill="#F1F1F2" d="M176.586,77.837c-1.289,0.256-2.579-0.486-3.001-1.729l-11.346-33.425
				c-1.414-4.162,1.165-8.615,5.465-9.471c4.306-0.854,8.394,2.273,8.678,6.657l2.311,35.224
				C178.778,76.402,177.876,77.58,176.586,77.837z"/>
		</g>
		<g id="petal-4" class="sixty">
			<path fill="#F1F1F2" d="M241.785,82.708c0.858,4.304-2.27,8.392-6.654,8.678l-35.222,2.308c-1.312,0.088-2.489-0.814-2.747-2.109
				c-0.258-1.291,0.482-2.576,1.732-2.998l33.422-11.345C236.478,75.828,240.933,78.407,241.785,82.708z"/>
		</g>
		<g id="petal-3" class="sixty">
			<path fill="#F1F1F2" d="M232.378,60.002c2.439,3.645,1.11,8.618-2.833,10.563l-31.655,15.613
				c-1.178,0.579-2.605,0.196-3.339-0.897c-0.736-1.1-0.539-2.567,0.453-3.436l26.536-23.273
				C224.843,55.675,229.945,56.351,232.378,60.002z"/>
		</g>
		<g id="petal-2" class="sixty">
			<path fill="#F1F1F2" d="M214.996,42.619c3.651,2.438,4.324,7.539,1.432,10.841l-23.273,26.538
				c-0.87,0.989-2.338,1.187-3.437,0.45c-1.089-0.731-1.476-2.16-0.898-3.341l15.615-31.66
				C206.379,41.508,211.347,40.184,214.996,42.619z"/>
		</g>
		<g id="petal-1" class="sixty">
			<path fill="#F1F1F2" d="M183.612,39.869c0.285-4.383,4.373-7.515,8.673-6.657c4.306,0.856,6.885,5.309,5.473,9.469
				l-11.343,33.424c-0.428,1.246-1.71,1.987-3.006,1.731c-1.29-0.257-2.192-1.434-2.107-2.745L183.612,39.869z"/>
		</g>
		<g id="petal-8" class="sixty">
			<path fill="#F1F1F2" d="M192.285,156.789c-4.3,0.858-8.388-2.271-8.673-6.656l-2.311-35.221
				c-0.085-1.313,0.817-2.492,2.107-2.747c1.296-0.257,2.579,0.485,3.006,1.729l11.343,33.425
				C199.169,151.479,196.597,155.934,192.285,156.789z"/>
		</g>
		<g id="petal-7" class="sixty">
			<path fill="#F1F1F2" d="M214.996,147.381c-3.649,2.44-8.617,1.111-10.562-2.828l-15.615-31.658
				c-0.578-1.179-0.19-2.612,0.898-3.343c1.099-0.733,2.567-0.539,3.437,0.45l23.273,26.538
				C219.32,139.844,218.647,144.943,214.996,147.381z"/>
		</g>
		<g id="petal-6" class="sixty">
			<path fill="#F1F1F2" d="M232.378,130c-2.433,3.649-7.536,4.325-10.838,1.43l-26.536-23.271c-0.992-0.872-1.189-2.34-0.453-3.439
				c0.734-1.092,2.162-1.476,3.339-0.895l31.655,15.61C233.488,121.38,234.817,126.351,232.378,130z"/>
		</g>
		<g id="petal-5" class="sixty">
			<path fill="#F1F1F2" d="M241.785,107.292c-0.853,4.301-5.308,6.88-9.469,5.469l-33.422-11.346c-1.25-0.424-1.99-1.708-1.732-3
				c0.257-1.295,1.429-2.195,2.741-2.108l35.228,2.31C239.515,98.902,242.644,102.987,241.785,107.292z"/>
		</g>
	</g>
</g>
</svg>
