<?xml version="1.0" encoding="utf-8"?>
<!-- Generator: Adobe Illustrator 16.0.0, SVG Export Plug-In . SVG Version: 6.00 Build 0)  -->
<!DOCTYPE svg PUBLIC "-//W3C//DTD SVG 1.1//EN" "http://www.w3.org/Graphics/SVG/1.1/DTD/svg11.dtd">
<svg version="1.1" xmlns="http://www.w3.org/2000/svg" xmlns:xlink="http://www.w3.org/1999/xlink" x="0px" y="0px" width="360px"
	 height="360px" viewBox="0 0 360 360" enable-background="new 0 0 360 360" xml:space="preserve">
<g id="Layer_1">
	<g>
		<rect fill="#383839" width="360" height="360"/>
	</g>
	<g>
		<g id="building">
			<g>
				<path fill="#808184" d="M214,132H101v-8h4v-5h106v5h3V132z M97,136v7h123v-7H97z"/>
			</g>
			<g>
				<g>
					<rect x="109.649" y="75.942" fill="#808184" width="7.54" height="45.309"/>
				</g>
				<g>
					<rect x="126.258" y="75.942" fill="#808184" width="6.042" height="45.309"/>
				</g>
				<g>
					<rect x="139.854" y="75.942" fill="#808184" width="7.552" height="45.309"/>
				</g>
				<g>
					<rect x="154.953" y="75.942" fill="#808184" width="7.552" height="45.309"/>
				</g>
				<g>
					<rect x="171.578" y="75.942" fill="#808184" width="7.543" height="45.309"/>
				</g>
				<g>
					<rect x="185.163" y="75.942" fill="#808184" width="7.553" height="45.309"/>
				</g>
				<g>
					<rect x="201.777" y="75.942" fill="#808184" width="6.042" height="45.309"/>
				</g>
			</g>
			<g>
				<path fill="#808184" d="M159.266,47.496c-3.623,0-6.568,2.938-6.568,6.569c0,3.626,2.945,6.566,6.568,6.566
					c3.627,0,6.568-2.94,6.568-6.566C165.833,50.434,162.893,47.496,159.266,47.496 M217.15,75.942h-57.808H101.32l-3.11-7.857
					L159.343,37.5l60.961,30.533L217.15,75.942z"/>
			</g>
		</g>
        <g id="person">
            <g>
            <path fill="#383839" d="M234.997,123.839l-2.5-0.619c2.202-2.848,4.181-6.06,5.865-9.615c5.539-2.332,9.072-7.774,9.683-15.204
				c0.638-7.772-1.837-12.128-4.618-14.557c-0.74-9.39-3.058-16.708-7.044-22.303c-4.014-6.169-11.905-11.089-12.796-11.631
				c-6.315-3.853-12.569-5.808-18.588-5.808c-12.255,0-19.785,7.875-22.746,11.75c-6.742,3.348-15.201,12.248-12.998,28.793
				c-2.486,2.589-4.352,6.827-3.788,13.763c0.589,7.088,3.914,12.432,9.104,14.915c1.72,3.664,3.77,6.992,6.075,9.929l-2.307,0.589
				c-16.697,4.183-28.355,19.15-28.355,36.398v18.736c0,7.182,5.817,13.023,12.968,13.023h87.324
				c7.284,0,13.211-5.841,13.211-13.023v-18.736C263.486,143.012,251.777,128.044,234.997,123.839z" />
		</g>
            <g>
            <g>
            <path fill="#F48466" d="M206.524,125.256c-12.421,0-22.676-15.179-24.622-29.538c0.93-5.167,3.79-16.296,12.02-24.502
					c6.331,6.834,17.901,14.706,37.381,14.031c0.127,1.76,0.188,3.653,0.188,5.68C231.492,106.475,220.355,125.256,206.524,125.256
					 M237.241,87.475c-0.397-10.575-2.692-17.563-6.145-22.337h0.004c-2.413-3.784-7.625-7.813-10.839-9.775
					c-21.092-12.868-32.525,3.589-33.835,5.641c-1.949,0.69-14.012,6.012-10.524,24.792c-0.039,0.629-0.072,1.263-0.088,1.912
					c-2.566,1.183-4.49,3.936-3.984,10.174c0.551,6.604,3.871,9.579,7.482,10.355c5.095,12.504,15.231,22.829,27.212,22.829
					c11.958,0,22.068-10.272,27.188-22.735c3.793-0.608,7.399-3.539,7.965-10.45C242.22,91.285,240.036,88.541,237.241,87.475
					 M223.307,166.692l6.564-7.112c1.557-1.679,4.213-1.698,5.759-0.011l6.571,7.123H223.307z M233.463,130.039l-3.522-0.872
					l-23.336,53.078l-23.324-53.069l-3.392,0.863c-13.854,3.471-23.52,15.911-23.52,30.202v18.736c0,3.695,2.894,6.637,6.581,6.637
					h87.324c3.691,0,6.825-2.942,6.825-6.637v-18.736C257.099,145.95,247.31,133.51,233.463,130.039 M206.834,172.542l7.792-19.791
					l-3.615-3.62c2.28-0.29,3.879-2.52,3.32-4.835l-1.595-6.659c-0.433-1.778-2.012-3.043-3.834-3.043h-4.282
					c-1.829,0-3.405,1.265-3.843,3.043l-1.593,6.654c-0.561,2.313,1.038,4.548,3.321,4.837l-3.62,3.62L206.834,172.542z" />
			</g>
		</g>
        </g>
	</g>
</g>
<g id="Layer_2">
	<g>
		<path fill="#F48466" d="M109.74,319.625h-6.563v17.787h-2.693v-17.787h-6.48v-2.119h15.736V319.625z"/>
		<path fill="#F48466" d="M120.295,335.225c-0.465,0.793-1.062,1.404-1.791,1.832c-0.729,0.428-1.572,0.643-2.529,0.643
			c-1.613,0-2.871-0.515-3.773-1.545c-0.902-1.03-1.354-2.634-1.354-4.813v-8.723h2.693v8.75c0,1.577,0.232,2.662,0.697,3.254
			c0.465,0.593,1.189,0.889,2.174,0.889c0.957,0,1.748-0.193,2.372-0.581c0.624-0.387,1.096-0.937,1.415-1.647v-10.664h2.693v14.793
			h-2.42L120.295,335.225z"/>
		<path fill="#F48466" d="M133.816,324.998l-1.381-0.082c-0.711,0-1.311,0.169-1.798,0.506c-0.488,0.337-0.864,0.812-1.128,1.422
			v10.568h-2.693v-14.793h2.406l0.26,2.16c0.419-0.766,0.937-1.362,1.552-1.791c0.615-0.428,1.324-0.643,2.126-0.643
			c0.2,0,0.392,0.016,0.574,0.048c0.182,0.032,0.333,0.066,0.451,0.103L133.816,324.998z"/>
		<path fill="#F48466" d="M140.707,330.59h-1.381v6.822h-2.693v-21.328h2.693v12.359h1.354l4.443-5.824h3.227l-5.373,6.822
			l5.838,7.971h-3.186L140.707,330.59z"/>
		<path fill="#F48466" d="M153.381,322.619l0.191,1.941c0.483-0.702,1.096-1.246,1.839-1.634c0.743-0.387,1.606-0.581,2.591-0.581
			s1.83,0.228,2.536,0.684c0.706,0.456,1.237,1.14,1.593,2.051c0.474-0.848,1.091-1.515,1.853-2.003
			c0.761-0.487,1.652-0.731,2.673-0.731c1.504,0,2.693,0.518,3.568,1.552c0.875,1.035,1.313,2.591,1.313,4.669v8.846h-2.693v-8.873
			c0-1.458-0.251-2.49-0.752-3.097c-0.501-0.606-1.249-0.909-2.242-0.909c-0.921,0-1.666,0.319-2.235,0.957
			c-0.57,0.638-0.905,1.445-1.005,2.42v0.109v9.393h-2.707v-8.873c0-1.385-0.258-2.399-0.772-3.042
			c-0.515-0.643-1.256-0.964-2.222-0.964c-0.82,0-1.495,0.169-2.023,0.506c-0.529,0.337-0.935,0.812-1.217,1.422v10.951h-2.693
			v-14.793H153.381z"/>
		<path fill="#F48466" d="M181.572,337.699c-2.124,0-3.78-0.679-4.97-2.037c-1.189-1.358-1.784-3.145-1.784-5.359v-0.602
			c0-2.124,0.613-3.88,1.839-5.271c1.226-1.39,2.723-2.085,4.491-2.085c1.978,0,3.461,0.615,4.45,1.846
			c0.989,1.23,1.483,2.867,1.483,4.908v1.422h-9.461l-0.041,0.068c0,1.486,0.328,2.691,0.984,3.616
			c0.656,0.925,1.659,1.388,3.008,1.388c0.911,0,1.711-0.13,2.399-0.39c0.688-0.26,1.278-0.617,1.771-1.073l1.053,1.75
			c-0.529,0.511-1.226,0.941-2.092,1.292C183.837,337.523,182.793,337.699,181.572,337.699z M181.148,324.465
			c-0.939,0-1.716,0.362-2.331,1.087s-0.991,1.652-1.128,2.782l0.027,0.068h6.672v-0.219c0-1.075-0.265-1.964-0.793-2.666
			C183.067,324.816,182.251,324.465,181.148,324.465z"/>
		<path fill="#F48466" d="M192.51,322.619l0.191,2.201c0.492-0.784,1.109-1.392,1.853-1.825c0.743-0.433,1.588-0.649,2.536-0.649
			c1.595,0,2.83,0.467,3.705,1.401c0.875,0.935,1.313,2.377,1.313,4.327v9.338h-2.693v-9.283c0-1.303-0.258-2.229-0.772-2.775
			c-0.515-0.547-1.301-0.82-2.358-0.82c-0.83,0-1.534,0.167-2.112,0.499c-0.579,0.333-1.037,0.8-1.374,1.401v10.979h-2.693v-14.793
			H192.51z"/>
		<path fill="#F48466" d="M208.93,318.832h-2.693v-2.748h2.693V318.832z M208.93,337.412h-2.693v-14.793h2.693V337.412z"/>
		<path fill="#F48466" d="M221.672,333.434c0-0.592-0.226-1.075-0.677-1.449c-0.451-0.374-1.306-0.702-2.563-0.984
			c-1.741-0.374-3.079-0.897-4.013-1.572c-0.935-0.674-1.401-1.577-1.401-2.707c0-1.203,0.513-2.233,1.538-3.09
			c1.025-0.856,2.354-1.285,3.985-1.285c1.677,0,3.035,0.456,4.074,1.367c1.039,0.912,1.536,1.974,1.49,3.186l-0.027,0.082h-2.57
			c0-0.638-0.28-1.217-0.841-1.736s-1.27-0.779-2.126-0.779c-0.948,0-1.657,0.214-2.126,0.643c-0.47,0.429-0.704,0.939-0.704,1.531
			c0,0.583,0.203,1.035,0.608,1.354c0.405,0.319,1.242,0.611,2.509,0.875c1.813,0.383,3.19,0.925,4.129,1.627
			c0.938,0.702,1.408,1.618,1.408,2.748c0,1.313-0.531,2.384-1.593,3.213c-1.062,0.83-2.45,1.244-4.163,1.244
			c-1.887,0-3.373-0.479-4.457-1.436c-1.085-0.957-1.6-2.073-1.545-3.35l0.027-0.082h2.57c0.045,0.957,0.401,1.657,1.066,2.099
			c0.665,0.442,1.444,0.663,2.338,0.663c0.957,0,1.707-0.203,2.249-0.608C221.4,334.58,221.672,334.063,221.672,333.434z"/>
		<path fill="#F48466" d="M231.461,319.051v3.568h2.803v1.996h-2.803v8.982c0,0.693,0.144,1.181,0.431,1.463
			c0.287,0.283,0.667,0.424,1.142,0.424c0.155,0,0.328-0.021,0.52-0.062s0.351-0.084,0.479-0.13l0.369,1.846
			c-0.201,0.164-0.497,0.298-0.889,0.403c-0.392,0.104-0.779,0.157-1.162,0.157c-1.094,0-1.964-0.33-2.611-0.991
			c-0.647-0.661-0.971-1.697-0.971-3.11v-8.982h-2.352v-1.996h2.352v-3.568H231.461z"/>
		<path fill="#F48466" d="M246.24,337.412c-0.091-0.446-0.162-0.841-0.212-1.183c-0.05-0.342-0.08-0.686-0.089-1.032
			c-0.501,0.711-1.155,1.306-1.962,1.784s-1.675,0.718-2.604,0.718c-1.541,0-2.714-0.394-3.521-1.183
			c-0.807-0.788-1.21-1.875-1.21-3.261c0-1.413,0.572-2.518,1.716-3.315c1.144-0.797,2.695-1.196,4.655-1.196h2.926v-1.463
			c0-0.866-0.265-1.552-0.793-2.058c-0.529-0.506-1.276-0.759-2.242-0.759c-0.875,0-1.582,0.219-2.119,0.656
			c-0.538,0.438-0.807,0.962-0.807,1.572l-2.557,0.027l-0.027-0.082c-0.064-1.075,0.439-2.06,1.511-2.953
			c1.071-0.893,2.454-1.34,4.149-1.34c1.677,0,3.026,0.426,4.047,1.278c1.021,0.853,1.531,2.081,1.531,3.685v7.123
			c0,0.529,0.027,1.039,0.082,1.531s0.155,0.976,0.301,1.449H246.24z M241.77,335.443c0.975,0,1.854-0.25,2.639-0.752
			c0.784-0.501,1.294-1.075,1.531-1.723v-2.406h-3.021c-1.085,0-1.953,0.273-2.604,0.82c-0.652,0.547-0.978,1.189-0.978,1.928
			c0,0.656,0.205,1.176,0.615,1.559S240.967,335.443,241.77,335.443z"/>
		<path fill="#F48466" d="M254.949,322.619l0.191,2.201c0.492-0.784,1.109-1.392,1.853-1.825c0.743-0.433,1.588-0.649,2.536-0.649
			c1.595,0,2.83,0.467,3.705,1.401c0.875,0.935,1.313,2.377,1.313,4.327v9.338h-2.693v-9.283c0-1.303-0.258-2.229-0.772-2.775
			c-0.515-0.547-1.301-0.82-2.358-0.82c-0.83,0-1.534,0.167-2.112,0.499c-0.579,0.333-1.037,0.8-1.374,1.401v10.979h-2.693v-14.793
			H254.949z"/>
	</g>
	<g>
		<path fill="#A7A9AC" d="M97.283,279.405c0-0.547-0.196-1.007-0.589-1.377c-0.393-0.371-1.084-0.687-2.075-0.947
			c-1.229-0.304-2.187-0.752-2.876-1.344c-0.688-0.593-1.033-1.337-1.033-2.233c0-0.946,0.371-1.735,1.112-2.366
			s1.705-0.945,2.889-0.945c1.273,0,2.287,0.36,3.042,1.083c0.756,0.722,1.122,1.564,1.1,2.527l-0.025,0.05h-1.561
			c0-0.687-0.239-1.254-0.718-1.701c-0.479-0.449-1.092-0.673-1.839-0.673c-0.764,0-1.349,0.186-1.756,0.556
			c-0.406,0.371-0.61,0.853-0.61,1.445c0,0.525,0.223,0.964,0.668,1.315c0.445,0.352,1.169,0.659,2.17,0.925
			c1.217,0.316,2.145,0.781,2.781,1.395c0.636,0.615,0.955,1.373,0.955,2.275c0,0.974-0.383,1.757-1.15,2.349
			c-0.766,0.592-1.767,0.888-3,0.888c-1.167,0-2.198-0.326-3.092-0.979c-0.894-0.653-1.327-1.527-1.299-2.623l0.017-0.051h1.561
			c0,0.759,0.288,1.344,0.863,1.756s1.226,0.619,1.951,0.619c0.775,0,1.388-0.175,1.838-0.523
			C97.057,280.477,97.283,280.003,97.283,279.405z"/>
		<path fill="#A7A9AC" d="M105.862,281.124c-0.282,0.481-0.645,0.853-1.087,1.112s-0.955,0.39-1.536,0.39
			c-0.979,0-1.743-0.313-2.291-0.938s-0.822-1.6-0.822-2.922v-5.296h1.635v5.313c0,0.957,0.141,1.616,0.423,1.976
			s0.722,0.539,1.32,0.539c0.581,0,1.061-0.117,1.44-0.353c0.379-0.235,0.665-0.568,0.859-1v-6.475h1.635v8.981h-1.469
			L105.862,281.124z"/>
		<path fill="#A7A9AC" d="M116.625,278.302c0,1.295-0.31,2.34-0.93,3.134s-1.475,1.19-2.565,1.19c-0.553,0-1.039-0.092-1.457-0.277
			c-0.417-0.186-0.773-0.464-1.066-0.834v4.391h-1.635v-12.435h1.253l0.257,1.162c0.293-0.432,0.659-0.761,1.096-0.987
			c0.437-0.228,0.946-0.341,1.527-0.341c1.112,0,1.977,0.441,2.594,1.324c0.617,0.883,0.925,2.049,0.925,3.499V278.302z
			 M114.99,278.128c0-1.019-0.201-1.855-0.602-2.512c-0.401-0.655-0.992-0.983-1.772-0.983c-0.47,0-0.872,0.106-1.204,0.319
			s-0.601,0.505-0.805,0.876v4.341c0.205,0.371,0.473,0.66,0.805,0.868c0.332,0.207,0.739,0.312,1.22,0.312
			c0.775,0,1.361-0.284,1.76-0.852s0.598-1.299,0.598-2.195V278.128z"/>
		<path fill="#A7A9AC" d="M125.438,278.302c0,1.295-0.31,2.34-0.93,3.134s-1.475,1.19-2.565,1.19c-0.553,0-1.039-0.092-1.457-0.277
			c-0.417-0.186-0.773-0.464-1.066-0.834v4.391h-1.635v-12.435h1.253l0.257,1.162c0.293-0.432,0.659-0.761,1.096-0.987
			c0.437-0.228,0.946-0.341,1.527-0.341c1.112,0,1.977,0.441,2.594,1.324c0.617,0.883,0.925,2.049,0.925,3.499V278.302z
			 M123.802,278.128c0-1.019-0.201-1.855-0.602-2.512c-0.401-0.655-0.992-0.983-1.772-0.983c-0.47,0-0.872,0.106-1.204,0.319
			s-0.601,0.505-0.805,0.876v4.341c0.205,0.371,0.473,0.66,0.805,0.868c0.332,0.207,0.739,0.312,1.22,0.312
			c0.775,0,1.361-0.284,1.76-0.852s0.598-1.299,0.598-2.195V278.128z"/>
		<path fill="#A7A9AC" d="M126.214,277.878c0-1.328,0.36-2.422,1.079-3.282s1.696-1.291,2.93-1.291c1.245,0,2.229,0.429,2.951,1.286
			c0.722,0.858,1.083,1.954,1.083,3.287v0.184c0,1.339-0.36,2.435-1.079,3.287c-0.719,0.852-1.699,1.277-2.938,1.277
			s-2.221-0.427-2.942-1.282c-0.723-0.854-1.083-1.949-1.083-3.282V277.878z M127.85,278.062c0,0.951,0.201,1.737,0.602,2.357
			c0.401,0.619,0.998,0.93,1.789,0.93c0.78,0,1.373-0.311,1.776-0.93c0.404-0.62,0.606-1.406,0.606-2.357v-0.184
			c0-0.94-0.204-1.724-0.61-2.349c-0.407-0.625-1.003-0.938-1.789-0.938c-0.78,0-1.371,0.313-1.772,0.938
			c-0.401,0.625-0.602,1.408-0.602,2.349V278.062z"/>
		<path fill="#A7A9AC" d="M139.658,274.915l-0.838-0.05c-0.432,0-0.795,0.103-1.092,0.308c-0.296,0.204-0.524,0.492-0.685,0.863
			v6.416h-1.635v-8.981h1.461l0.158,1.312c0.254-0.465,0.568-0.827,0.942-1.088c0.373-0.26,0.804-0.39,1.291-0.39
			c0.122,0,0.238,0.01,0.349,0.029s0.202,0.04,0.274,0.062L139.658,274.915z"/>
		<path fill="#A7A9AC" d="M142.925,271.304v2.167h1.702v1.212h-1.702v5.453c0,0.421,0.087,0.717,0.261,0.889
			c0.175,0.172,0.406,0.258,0.693,0.258c0.094,0,0.199-0.013,0.315-0.038c0.116-0.024,0.213-0.051,0.291-0.079l0.224,1.121
			c-0.122,0.1-0.302,0.182-0.54,0.245s-0.473,0.095-0.706,0.095c-0.664,0-1.192-0.2-1.585-0.602s-0.589-1.03-0.589-1.889v-5.453
			h-1.428v-1.212h1.428v-2.167H142.925z"/>
		<path fill="#A7A9AC" d="M151.178,271.304v2.167h1.702v1.212h-1.702v5.453c0,0.421,0.087,0.717,0.261,0.889
			c0.175,0.172,0.406,0.258,0.693,0.258c0.094,0,0.199-0.013,0.315-0.038c0.116-0.024,0.213-0.051,0.291-0.079l0.224,1.121
			c-0.122,0.1-0.302,0.182-0.54,0.245s-0.473,0.095-0.706,0.095c-0.664,0-1.192-0.2-1.585-0.602s-0.589-1.03-0.589-1.889v-5.453
			h-1.428v-1.212h1.428v-2.167H151.178z"/>
		<path fill="#A7A9AC" d="M155.417,274.675c0.31-0.432,0.69-0.769,1.142-1.009c0.451-0.241,0.95-0.361,1.498-0.361
			c0.958,0,1.703,0.288,2.237,0.863c0.534,0.575,0.801,1.461,0.801,2.656v5.628h-1.635v-5.645c0-0.741-0.159-1.289-0.477-1.644
			c-0.318-0.354-0.793-0.531-1.424-0.531c-0.487,0-0.91,0.096-1.27,0.286c-0.36,0.191-0.65,0.458-0.872,0.801v6.732h-1.635v-12.949
			h1.635V274.675z"/>
		<path fill="#A7A9AC" d="M166.312,282.626c-1.29,0-2.295-0.412-3.017-1.236c-0.723-0.824-1.083-1.909-1.083-3.254v-0.365
			c0-1.289,0.372-2.356,1.117-3.2c0.744-0.844,1.653-1.266,2.727-1.266c1.201,0,2.102,0.374,2.702,1.12
			c0.6,0.748,0.9,1.741,0.9,2.98v0.863h-5.744l-0.025,0.041c0,0.902,0.199,1.635,0.598,2.196s1.007,0.843,1.826,0.843
			c0.553,0,1.039-0.079,1.457-0.237c0.418-0.157,0.776-0.375,1.075-0.651l0.639,1.063c-0.321,0.31-0.744,0.571-1.27,0.784
			S167.054,282.626,166.312,282.626z M166.055,274.591c-0.57,0-1.042,0.221-1.415,0.66c-0.374,0.44-0.602,1.003-0.685,1.689
			l0.017,0.041h4.051v-0.133c0-0.652-0.161-1.192-0.481-1.618S166.724,274.591,166.055,274.591z"/>
		<path fill="#A7A9AC" d="M177.735,282.626c-1.29,0-2.295-0.412-3.017-1.236c-0.723-0.824-1.083-1.909-1.083-3.254v-0.365
			c0-1.289,0.372-2.356,1.117-3.2c0.744-0.844,1.653-1.266,2.727-1.266c1.201,0,2.102,0.374,2.702,1.12
			c0.6,0.748,0.9,1.741,0.9,2.98v0.863h-5.744l-0.025,0.041c0,0.902,0.199,1.635,0.598,2.196s1.007,0.843,1.826,0.843
			c0.553,0,1.039-0.079,1.457-0.237c0.418-0.157,0.776-0.375,1.075-0.651l0.639,1.063c-0.321,0.31-0.744,0.571-1.27,0.784
			S178.477,282.626,177.735,282.626z M177.478,274.591c-0.57,0-1.042,0.221-1.415,0.66c-0.374,0.44-0.602,1.003-0.685,1.689
			l0.017,0.041h4.051v-0.133c0-0.652-0.161-1.192-0.481-1.618S178.147,274.591,177.478,274.591z"/>
		<path fill="#A7A9AC" d="M187.287,280.036c0-0.359-0.137-0.652-0.411-0.879c-0.273-0.228-0.792-0.427-1.556-0.598
			c-1.057-0.228-1.869-0.546-2.436-0.955c-0.567-0.409-0.851-0.957-0.851-1.644c0-0.73,0.311-1.355,0.934-1.876
			c0.622-0.521,1.429-0.78,2.419-0.78c1.018,0,1.843,0.276,2.474,0.83s0.933,1.198,0.905,1.935l-0.017,0.049h-1.561
			c0-0.387-0.17-0.738-0.511-1.054c-0.34-0.315-0.771-0.474-1.291-0.474c-0.576,0-1.006,0.131-1.291,0.391
			c-0.285,0.26-0.428,0.57-0.428,0.93c0,0.354,0.123,0.628,0.369,0.822c0.247,0.193,0.754,0.37,1.523,0.531
			c1.101,0.232,1.937,0.562,2.507,0.987s0.855,0.982,0.855,1.669c0,0.797-0.322,1.446-0.967,1.95
			c-0.645,0.504-1.487,0.755-2.527,0.755c-1.146,0-2.047-0.29-2.706-0.871s-0.971-1.259-0.938-2.033l0.017-0.051h1.561
			c0.028,0.582,0.244,1.006,0.647,1.274s0.877,0.403,1.419,0.403c0.581,0,1.036-0.124,1.365-0.37
			C187.122,280.732,187.287,280.419,187.287,280.036z"/>
		<path fill="#A7A9AC" d="M192.38,271.304v2.167h1.702v1.212h-1.702v5.453c0,0.421,0.087,0.717,0.261,0.889
			c0.175,0.172,0.406,0.258,0.693,0.258c0.094,0,0.199-0.013,0.315-0.038c0.116-0.024,0.213-0.051,0.291-0.079l0.224,1.121
			c-0.122,0.1-0.302,0.182-0.54,0.245s-0.473,0.095-0.706,0.095c-0.664,0-1.192-0.2-1.585-0.602s-0.589-1.03-0.589-1.889v-5.453
			h-1.428v-1.212h1.428v-2.167H192.38z"/>
		<path fill="#A7A9AC" d="M200.503,282.452c-0.055-0.271-0.098-0.511-0.129-0.718c-0.03-0.208-0.048-0.417-0.054-0.627
			c-0.304,0.432-0.701,0.793-1.191,1.083c-0.489,0.291-1.017,0.436-1.581,0.436c-0.935,0-1.647-0.239-2.138-0.718
			c-0.489-0.479-0.734-1.139-0.734-1.979c0-0.857,0.347-1.528,1.042-2.013c0.694-0.484,1.636-0.727,2.826-0.727h1.776v-0.888
			c0-0.526-0.161-0.942-0.481-1.25c-0.321-0.307-0.775-0.461-1.361-0.461c-0.531,0-0.96,0.133-1.287,0.398s-0.49,0.584-0.49,0.955
			l-1.552,0.017l-0.017-0.05c-0.039-0.653,0.267-1.251,0.917-1.793c0.65-0.542,1.49-0.813,2.519-0.813
			c1.018,0,1.837,0.259,2.457,0.776s0.93,1.263,0.93,2.236v4.325c0,0.321,0.017,0.631,0.05,0.93s0.094,0.592,0.183,0.88H200.503z
			 M197.789,281.257c0.592,0,1.126-0.152,1.602-0.457c0.476-0.304,0.786-0.652,0.93-1.045v-1.461h-1.834
			c-0.659,0-1.186,0.166-1.582,0.498c-0.396,0.332-0.593,0.722-0.593,1.17c0,0.398,0.125,0.714,0.374,0.946
			S197.302,281.257,197.789,281.257z"/>
		<path fill="#A7A9AC" d="M211.149,278.302c0,1.295-0.311,2.34-0.934,3.134c-0.622,0.794-1.479,1.19-2.569,1.19
			c-0.598,0-1.117-0.117-1.556-0.353c-0.44-0.235-0.804-0.582-1.092-1.042l-0.266,1.221h-1.253v-12.949h1.635v5.03
			c0.282-0.398,0.632-0.703,1.05-0.913c0.418-0.21,0.906-0.315,1.465-0.315c1.107,0,1.97,0.442,2.59,1.328s0.93,2.05,0.93,3.495
			V278.302z M209.514,278.128c0-1.029-0.189-1.869-0.568-2.52c-0.379-0.65-0.956-0.976-1.731-0.976
			c-0.503,0-0.928,0.123-1.274,0.369c-0.346,0.246-0.622,0.577-0.826,0.992v3.894c0.21,0.442,0.485,0.788,0.826,1.037
			c0.34,0.249,0.771,0.373,1.291,0.373c0.769,0,1.342-0.273,1.718-0.821s0.564-1.272,0.564-2.175V278.128z"/>
		<path fill="#A7A9AC" d="M214.06,282.452h-1.635v-12.949h1.635V282.452z"/>
		<path fill="#A7A9AC" d="M217.493,271.171h-1.635v-1.668h1.635V271.171z M217.493,282.452h-1.635v-8.981h1.635V282.452z"/>
		<path fill="#A7A9AC" d="M224.379,280.036c0-0.359-0.137-0.652-0.411-0.879c-0.273-0.228-0.792-0.427-1.556-0.598
			c-1.057-0.228-1.869-0.546-2.436-0.955c-0.567-0.409-0.851-0.957-0.851-1.644c0-0.73,0.311-1.355,0.934-1.876
			c0.622-0.521,1.429-0.78,2.419-0.78c1.018,0,1.843,0.276,2.474,0.83s0.933,1.198,0.905,1.935l-0.017,0.049h-1.561
			c0-0.387-0.17-0.738-0.511-1.054c-0.34-0.315-0.771-0.474-1.291-0.474c-0.576,0-1.006,0.131-1.291,0.391
			c-0.285,0.26-0.428,0.57-0.428,0.93c0,0.354,0.123,0.628,0.369,0.822c0.247,0.193,0.754,0.37,1.523,0.531
			c1.101,0.232,1.937,0.562,2.507,0.987s0.855,0.982,0.855,1.669c0,0.797-0.322,1.446-0.967,1.95
			c-0.645,0.504-1.487,0.755-2.527,0.755c-1.146,0-2.047-0.29-2.706-0.871s-0.971-1.259-0.938-2.033l0.017-0.051h1.561
			c0.028,0.582,0.244,1.006,0.647,1.274s0.877,0.403,1.419,0.403c0.581,0,1.036-0.124,1.365-0.37
			C224.215,280.732,224.379,280.419,224.379,280.036z"/>
		<path fill="#A7A9AC" d="M228.833,274.675c0.31-0.432,0.69-0.769,1.142-1.009c0.451-0.241,0.95-0.361,1.498-0.361
			c0.958,0,1.703,0.288,2.237,0.863c0.534,0.575,0.801,1.461,0.801,2.656v5.628h-1.635v-5.645c0-0.741-0.159-1.289-0.477-1.644
			c-0.318-0.354-0.793-0.531-1.424-0.531c-0.487,0-0.91,0.096-1.27,0.286c-0.36,0.191-0.65,0.458-0.872,0.801v6.732h-1.635v-12.949
			h1.635V274.675z"/>
		<path fill="#A7A9AC" d="M237.471,273.471l0.116,1.179c0.293-0.426,0.666-0.757,1.117-0.992c0.451-0.235,0.975-0.353,1.573-0.353
			s1.111,0.139,1.54,0.415c0.429,0.276,0.751,0.691,0.967,1.245c0.288-0.515,0.663-0.92,1.125-1.216
			c0.462-0.296,1.003-0.444,1.623-0.444c0.913,0,1.635,0.314,2.167,0.942s0.797,1.572,0.797,2.834v5.371h-1.635v-5.387
			c0-0.886-0.152-1.513-0.457-1.881s-0.758-0.552-1.361-0.552c-0.559,0-1.011,0.193-1.357,0.581
			c-0.346,0.388-0.549,0.877-0.61,1.469v0.066v5.703h-1.644v-5.387c0-0.842-0.156-1.457-0.469-1.848
			c-0.313-0.39-0.763-0.585-1.349-0.585c-0.498,0-0.908,0.103-1.229,0.308c-0.321,0.204-0.567,0.492-0.739,0.863v6.648h-1.635
			v-8.981H237.471z"/>
		<path fill="#A7A9AC" d="M253.737,282.626c-1.29,0-2.295-0.412-3.017-1.236c-0.723-0.824-1.083-1.909-1.083-3.254v-0.365
			c0-1.289,0.372-2.356,1.117-3.2c0.744-0.844,1.653-1.266,2.727-1.266c1.201,0,2.102,0.374,2.702,1.12
			c0.6,0.748,0.9,1.741,0.9,2.98v0.863h-5.744l-0.025,0.041c0,0.902,0.199,1.635,0.598,2.196s1.007,0.843,1.826,0.843
			c0.553,0,1.039-0.079,1.457-0.237c0.418-0.157,0.776-0.375,1.075-0.651l0.639,1.063c-0.321,0.31-0.744,0.571-1.27,0.784
			S254.479,282.626,253.737,282.626z M253.48,274.591c-0.57,0-1.042,0.221-1.415,0.66c-0.374,0.44-0.602,1.003-0.685,1.689
			l0.017,0.041h4.051v-0.133c0-0.652-0.161-1.192-0.481-1.618S254.149,274.591,253.48,274.591z"/>
		<path fill="#A7A9AC" d="M259.528,273.471l0.116,1.337c0.299-0.477,0.674-0.846,1.125-1.108c0.451-0.263,0.964-0.395,1.54-0.395
			c0.968,0,1.718,0.283,2.25,0.851s0.797,1.443,0.797,2.627v5.67h-1.635v-5.637c0-0.791-0.156-1.353-0.469-1.685
			c-0.313-0.332-0.79-0.498-1.432-0.498c-0.503,0-0.931,0.101-1.283,0.303c-0.351,0.202-0.629,0.485-0.834,0.851v6.666h-1.635
			v-8.981H259.528z"/>
		<path fill="#A7A9AC" d="M269.154,271.304v2.167h1.702v1.212h-1.702v5.453c0,0.421,0.087,0.717,0.261,0.889
			c0.175,0.172,0.406,0.258,0.693,0.258c0.094,0,0.199-0.013,0.315-0.038c0.116-0.024,0.213-0.051,0.291-0.079l0.224,1.121
			c-0.122,0.1-0.302,0.182-0.54,0.245s-0.473,0.095-0.706,0.095c-0.664,0-1.192-0.2-1.585-0.602s-0.589-1.03-0.589-1.889v-5.453
			h-1.428v-1.212h1.428v-2.167H269.154z"/>
		<path fill="#A7A9AC" d="M80.667,298.278c0-1.328,0.36-2.422,1.079-3.282s1.696-1.291,2.93-1.291c1.245,0,2.229,0.429,2.951,1.286
			c0.722,0.858,1.083,1.954,1.083,3.287v0.184c0,1.339-0.36,2.435-1.079,3.287c-0.719,0.852-1.699,1.277-2.938,1.277
			s-2.221-0.427-2.942-1.282c-0.723-0.854-1.083-1.949-1.083-3.282V298.278z M82.303,298.462c0,0.951,0.201,1.737,0.602,2.357
			c0.401,0.619,0.998,0.93,1.789,0.93c0.78,0,1.373-0.311,1.776-0.93c0.404-0.62,0.606-1.406,0.606-2.357v-0.184
			c0-0.94-0.204-1.724-0.61-2.349c-0.407-0.625-1.003-0.938-1.789-0.938c-0.78,0-1.371,0.313-1.772,0.938
			c-0.401,0.625-0.602,1.408-0.602,2.349V298.462z"/>
		<path fill="#A7A9AC" d="M90.542,302.853v-7.77h-1.403v-1.212h1.403v-1.138c0-0.957,0.25-1.697,0.751-2.22
			c0.5-0.523,1.199-0.784,2.096-0.784c0.188,0,0.378,0.015,0.568,0.045c0.191,0.03,0.403,0.073,0.635,0.129l-0.199,1.245
			c-0.1-0.022-0.22-0.042-0.361-0.058c-0.142-0.018-0.29-0.025-0.444-0.025c-0.476,0-0.83,0.143-1.063,0.428
			s-0.349,0.698-0.349,1.24v1.138h1.627v1.212h-1.627v7.77H90.542z"/>
		<path fill="#A7A9AC" d="M103.501,302.853c-0.055-0.271-0.098-0.511-0.129-0.718c-0.03-0.208-0.048-0.417-0.054-0.627
			c-0.304,0.432-0.701,0.793-1.191,1.083c-0.489,0.291-1.017,0.436-1.581,0.436c-0.935,0-1.647-0.239-2.138-0.718
			c-0.489-0.479-0.734-1.139-0.734-1.979c0-0.857,0.347-1.528,1.042-2.013c0.694-0.484,1.636-0.727,2.826-0.727h1.776v-0.888
			c0-0.526-0.161-0.942-0.481-1.25c-0.321-0.307-0.775-0.461-1.361-0.461c-0.531,0-0.96,0.133-1.287,0.398s-0.49,0.584-0.49,0.955
			l-1.552,0.017l-0.017-0.05c-0.039-0.653,0.267-1.251,0.917-1.793c0.65-0.542,1.49-0.813,2.519-0.813
			c1.018,0,1.837,0.259,2.457,0.776s0.93,1.263,0.93,2.236v4.325c0,0.321,0.017,0.631,0.05,0.93s0.094,0.592,0.183,0.88H103.501z
			 M100.787,301.657c0.592,0,1.126-0.152,1.602-0.457c0.476-0.304,0.786-0.652,0.93-1.045v-1.461h-1.834
			c-0.659,0-1.186,0.166-1.582,0.498c-0.396,0.332-0.593,0.722-0.593,1.17c0,0.398,0.125,0.714,0.374,0.946
			S100.3,301.657,100.787,301.657z"/>
		<path fill="#A7A9AC" d="M107.939,293.871l0.116,1.337c0.299-0.477,0.674-0.846,1.125-1.108c0.451-0.263,0.964-0.395,1.54-0.395
			c0.968,0,1.718,0.283,2.25,0.851s0.797,1.443,0.797,2.627v5.67h-1.635v-5.637c0-0.791-0.156-1.353-0.469-1.685
			c-0.313-0.332-0.79-0.498-1.432-0.498c-0.503,0-0.931,0.101-1.283,0.303c-0.351,0.202-0.629,0.485-0.834,0.851v6.666h-1.635
			v-8.981H107.939z"/>
		<path fill="#A7A9AC" d="M128.12,297.889c0,1.478-0.458,2.703-1.374,3.677c-0.916,0.975-2.104,1.461-3.565,1.461
			c-1.411,0-2.558-0.486-3.441-1.461c-0.882-0.974-1.324-2.199-1.324-3.677v-2.149c0-1.473,0.441-2.698,1.324-3.678
			c0.883-0.979,2.03-1.469,3.441-1.469c1.461,0,2.649,0.488,3.565,1.465c0.916,0.977,1.374,2.203,1.374,3.682V297.889z
			 M126.484,295.722c0-1.106-0.299-2.014-0.896-2.723c-0.598-0.708-1.4-1.063-2.407-1.063c-0.952,0-1.711,0.354-2.279,1.063
			c-0.567,0.709-0.851,1.616-0.851,2.723v2.167c0,1.118,0.284,2.031,0.851,2.739c0.567,0.708,1.327,1.063,2.279,1.063
			c1.013,0,1.816-0.353,2.412-1.059c0.595-0.705,0.892-1.62,0.892-2.743V295.722z"/>
		<path fill="#A7A9AC" d="M130.864,293.871l0.116,1.179c0.293-0.426,0.666-0.757,1.117-0.992c0.451-0.235,0.975-0.353,1.573-0.353
			s1.111,0.139,1.54,0.415c0.429,0.276,0.751,0.691,0.967,1.245c0.288-0.515,0.663-0.92,1.125-1.216
			c0.462-0.296,1.003-0.444,1.623-0.444c0.913,0,1.635,0.314,2.167,0.942s0.797,1.572,0.797,2.834v5.371h-1.635v-5.387
			c0-0.886-0.152-1.513-0.457-1.881s-0.758-0.552-1.361-0.552c-0.559,0-1.011,0.193-1.357,0.581
			c-0.346,0.388-0.549,0.877-0.61,1.469v0.066v5.703h-1.644v-5.387c0-0.842-0.156-1.457-0.469-1.848
			c-0.313-0.39-0.763-0.585-1.349-0.585c-0.498,0-0.908,0.103-1.229,0.308c-0.321,0.204-0.567,0.492-0.739,0.863v6.648h-1.635
			v-8.981H130.864z"/>
		<path fill="#A7A9AC" d="M151.082,298.702c0,1.295-0.311,2.34-0.934,3.134c-0.622,0.794-1.479,1.19-2.569,1.19
			c-0.598,0-1.117-0.117-1.556-0.353c-0.44-0.235-0.804-0.582-1.092-1.042l-0.266,1.221h-1.253v-12.949h1.635v5.03
			c0.282-0.398,0.632-0.703,1.05-0.913c0.418-0.21,0.906-0.315,1.465-0.315c1.107,0,1.97,0.442,2.59,1.328s0.93,2.05,0.93,3.495
			V298.702z M149.446,298.528c0-1.029-0.189-1.869-0.568-2.52c-0.379-0.65-0.956-0.976-1.731-0.976
			c-0.503,0-0.928,0.123-1.274,0.369c-0.346,0.246-0.622,0.577-0.826,0.992v3.894c0.21,0.442,0.485,0.788,0.826,1.037
			c0.34,0.249,0.771,0.373,1.291,0.373c0.769,0,1.342-0.273,1.718-0.821s0.564-1.272,0.564-2.175V298.528z"/>
		<path fill="#A7A9AC" d="M157.926,301.524c-0.282,0.481-0.645,0.853-1.087,1.112s-0.955,0.39-1.536,0.39
			c-0.979,0-1.743-0.313-2.291-0.938s-0.822-1.6-0.822-2.922v-5.296h1.635v5.313c0,0.957,0.141,1.616,0.423,1.976
			s0.722,0.539,1.32,0.539c0.581,0,1.061-0.117,1.44-0.353c0.379-0.235,0.665-0.568,0.859-1v-6.475h1.635v8.981h-1.469
			L157.926,301.524z"/>
		<path fill="#A7A9AC" d="M160.662,298.528c0-1.445,0.309-2.609,0.926-3.495c0.617-0.886,1.481-1.328,2.594-1.328
			c0.526,0,0.992,0.097,1.398,0.29c0.407,0.194,0.754,0.477,1.042,0.848v-4.939h1.635v12.949h-1.253l-0.249-1.137
			c-0.293,0.432-0.656,0.758-1.087,0.979c-0.432,0.222-0.933,0.332-1.502,0.332c-1.096,0-1.954-0.396-2.573-1.19
			s-0.93-1.839-0.93-3.134V298.528z M162.297,298.702c0,0.907,0.186,1.634,0.556,2.179s0.946,0.817,1.727,0.817
			c0.487,0,0.896-0.11,1.229-0.332c0.332-0.221,0.603-0.531,0.813-0.93v-4.191c-0.21-0.371-0.483-0.665-0.817-0.884
			c-0.335-0.219-0.738-0.328-1.208-0.328c-0.786,0-1.365,0.323-1.739,0.972c-0.373,0.646-0.56,1.488-0.56,2.523V298.702z"/>
		<path fill="#A7A9AC" d="M175.069,300.437c0-0.359-0.137-0.652-0.411-0.879c-0.273-0.228-0.792-0.427-1.556-0.598
			c-1.057-0.228-1.869-0.546-2.436-0.955c-0.567-0.409-0.851-0.957-0.851-1.644c0-0.73,0.311-1.355,0.934-1.876
			c0.622-0.521,1.429-0.78,2.419-0.78c1.018,0,1.843,0.276,2.474,0.83s0.933,1.198,0.905,1.935l-0.017,0.049h-1.561
			c0-0.387-0.17-0.738-0.511-1.054c-0.34-0.315-0.771-0.474-1.291-0.474c-0.576,0-1.006,0.131-1.291,0.391
			c-0.285,0.26-0.428,0.57-0.428,0.93c0,0.354,0.123,0.628,0.369,0.822c0.247,0.193,0.754,0.37,1.523,0.531
			c1.101,0.232,1.937,0.562,2.507,0.987s0.855,0.982,0.855,1.669c0,0.797-0.322,1.446-0.967,1.95
			c-0.645,0.504-1.487,0.755-2.527,0.755c-1.146,0-2.047-0.29-2.706-0.871s-0.971-1.259-0.938-2.033l0.017-0.051h1.561
			c0.028,0.582,0.244,1.006,0.647,1.274s0.877,0.403,1.419,0.403c0.581,0,1.036-0.124,1.365-0.37
			C174.904,301.133,175.069,300.819,175.069,300.437z"/>
		<path fill="#A7A9AC" d="M179.349,293.871l0.116,1.179c0.293-0.426,0.666-0.757,1.117-0.992c0.451-0.235,0.975-0.353,1.573-0.353
			s1.111,0.139,1.54,0.415c0.429,0.276,0.751,0.691,0.967,1.245c0.288-0.515,0.663-0.92,1.125-1.216
			c0.462-0.296,1.003-0.444,1.623-0.444c0.913,0,1.635,0.314,2.167,0.942s0.797,1.572,0.797,2.834v5.371h-1.635v-5.387
			c0-0.886-0.152-1.513-0.457-1.881s-0.758-0.552-1.361-0.552c-0.559,0-1.011,0.193-1.357,0.581
			c-0.346,0.388-0.549,0.877-0.61,1.469v0.066v5.703h-1.644v-5.387c0-0.842-0.156-1.457-0.469-1.848
			c-0.313-0.39-0.763-0.585-1.349-0.585c-0.498,0-0.908,0.103-1.229,0.308c-0.321,0.204-0.567,0.492-0.739,0.863v6.648h-1.635
			v-8.981H179.349z"/>
		<path fill="#A7A9AC" d="M197.417,302.853c-0.055-0.271-0.098-0.511-0.129-0.718c-0.03-0.208-0.048-0.417-0.054-0.627
			c-0.304,0.432-0.701,0.793-1.191,1.083c-0.489,0.291-1.017,0.436-1.581,0.436c-0.935,0-1.647-0.239-2.138-0.718
			c-0.489-0.479-0.734-1.139-0.734-1.979c0-0.857,0.347-1.528,1.042-2.013c0.694-0.484,1.636-0.727,2.826-0.727h1.776v-0.888
			c0-0.526-0.161-0.942-0.481-1.25c-0.321-0.307-0.775-0.461-1.361-0.461c-0.531,0-0.96,0.133-1.287,0.398s-0.49,0.584-0.49,0.955
			l-1.552,0.017l-0.017-0.05c-0.039-0.653,0.267-1.251,0.917-1.793c0.65-0.542,1.49-0.813,2.519-0.813
			c1.018,0,1.837,0.259,2.457,0.776s0.93,1.263,0.93,2.236v4.325c0,0.321,0.017,0.631,0.05,0.93s0.094,0.592,0.183,0.88H197.417z
			 M194.702,301.657c0.592,0,1.126-0.152,1.602-0.457c0.476-0.304,0.786-0.652,0.93-1.045v-1.461h-1.834
			c-0.659,0-1.186,0.166-1.582,0.498c-0.396,0.332-0.593,0.722-0.593,1.17c0,0.398,0.125,0.714,0.374,0.946
			S194.215,301.657,194.702,301.657z"/>
		<path fill="#A7A9AC" d="M201.854,293.871l0.116,1.337c0.299-0.477,0.674-0.846,1.125-1.108c0.451-0.263,0.964-0.395,1.54-0.395
			c0.968,0,1.718,0.283,2.25,0.851s0.797,1.443,0.797,2.627v5.67h-1.635v-5.637c0-0.791-0.156-1.353-0.469-1.685
			c-0.313-0.332-0.79-0.498-1.432-0.498c-0.503,0-0.931,0.101-1.283,0.303c-0.351,0.202-0.629,0.485-0.834,0.851v6.666h-1.635
			v-8.981H201.854z"/>
		<path fill="#A7A9AC" d="M214.614,302.853h-1.644v-12.086h1.644V302.853z"/>
		<path fill="#A7A9AC" d="M217.997,293.871l0.116,1.337c0.299-0.477,0.674-0.846,1.125-1.108c0.451-0.263,0.964-0.395,1.54-0.395
			c0.968,0,1.718,0.283,2.25,0.851s0.797,1.443,0.797,2.627v5.67h-1.635v-5.637c0-0.791-0.156-1.353-0.469-1.685
			c-0.313-0.332-0.79-0.498-1.432-0.498c-0.503,0-0.931,0.101-1.283,0.303c-0.351,0.202-0.629,0.485-0.834,0.851v6.666h-1.635
			v-8.981H217.997z"/>
		<path fill="#A7A9AC" d="M230.57,300.437c0-0.359-0.137-0.652-0.411-0.879c-0.273-0.228-0.792-0.427-1.556-0.598
			c-1.057-0.228-1.869-0.546-2.436-0.955c-0.567-0.409-0.851-0.957-0.851-1.644c0-0.73,0.311-1.355,0.934-1.876
			c0.622-0.521,1.429-0.78,2.419-0.78c1.018,0,1.843,0.276,2.474,0.83s0.933,1.198,0.905,1.935l-0.017,0.049h-1.561
			c0-0.387-0.17-0.738-0.511-1.054c-0.34-0.315-0.771-0.474-1.291-0.474c-0.576,0-1.006,0.131-1.291,0.391
			c-0.285,0.26-0.428,0.57-0.428,0.93c0,0.354,0.123,0.628,0.369,0.822c0.247,0.193,0.754,0.37,1.523,0.531
			c1.101,0.232,1.937,0.562,2.507,0.987s0.855,0.982,0.855,1.669c0,0.797-0.322,1.446-0.967,1.95
			c-0.645,0.504-1.487,0.755-2.527,0.755c-1.146,0-2.047-0.29-2.706-0.871s-0.971-1.259-0.938-2.033l0.017-0.051h1.561
			c0.028,0.582,0.244,1.006,0.647,1.274s0.877,0.403,1.419,0.403c0.581,0,1.036-0.124,1.365-0.37
			C230.405,301.133,230.57,300.819,230.57,300.437z"/>
		<path fill="#A7A9AC" d="M235.663,291.704v2.167h1.702v1.212h-1.702v5.453c0,0.421,0.087,0.717,0.261,0.889
			c0.175,0.172,0.406,0.258,0.693,0.258c0.094,0,0.199-0.013,0.315-0.038c0.116-0.024,0.213-0.051,0.291-0.079l0.224,1.121
			c-0.122,0.1-0.302,0.182-0.54,0.245s-0.473,0.095-0.706,0.095c-0.664,0-1.192-0.2-1.585-0.602s-0.589-1.03-0.589-1.889v-5.453
			H232.6v-1.212h1.428v-2.167H235.663z"/>
		<path fill="#A7A9AC" d="M240.034,291.571h-1.635v-1.668h1.635V291.571z M240.034,302.853h-1.635v-8.981h1.635V302.853z"/>
		<path fill="#A7A9AC" d="M243.974,291.704v2.167h1.702v1.212h-1.702v5.453c0,0.421,0.087,0.717,0.261,0.889
			c0.175,0.172,0.406,0.258,0.693,0.258c0.094,0,0.199-0.013,0.315-0.038c0.116-0.024,0.213-0.051,0.291-0.079l0.224,1.121
			c-0.122,0.1-0.302,0.182-0.54,0.245s-0.473,0.095-0.706,0.095c-0.664,0-1.192-0.2-1.585-0.602s-0.589-1.03-0.589-1.889v-5.453
			h-1.428v-1.212h1.428v-2.167H243.974z"/>
		<path fill="#A7A9AC" d="M252.279,301.524c-0.282,0.481-0.645,0.853-1.087,1.112s-0.955,0.39-1.536,0.39
			c-0.979,0-1.743-0.313-2.291-0.938s-0.822-1.6-0.822-2.922v-5.296h1.635v5.313c0,0.957,0.141,1.616,0.423,1.976
			s0.722,0.539,1.32,0.539c0.581,0,1.061-0.117,1.44-0.353c0.379-0.235,0.665-0.568,0.859-1v-6.475h1.635v8.981h-1.469
			L252.279,301.524z"/>
		<path fill="#A7A9AC" d="M257.664,291.704v2.167h1.702v1.212h-1.702v5.453c0,0.421,0.087,0.717,0.261,0.889
			c0.175,0.172,0.406,0.258,0.693,0.258c0.094,0,0.199-0.013,0.315-0.038c0.116-0.024,0.213-0.051,0.291-0.079l0.224,1.121
			c-0.122,0.1-0.302,0.182-0.54,0.245s-0.473,0.095-0.706,0.095c-0.664,0-1.192-0.2-1.585-0.602s-0.589-1.03-0.589-1.889v-5.453
			h-1.428v-1.212h1.428v-2.167H257.664z"/>
		<path fill="#A7A9AC" d="M262.035,291.571h-1.635v-1.668h1.635V291.571z M262.035,302.853h-1.635v-8.981h1.635V302.853z"/>
		<path fill="#A7A9AC" d="M263.318,298.278c0-1.328,0.36-2.422,1.079-3.282s1.696-1.291,2.93-1.291c1.245,0,2.229,0.429,2.951,1.286
			c0.722,0.858,1.083,1.954,1.083,3.287v0.184c0,1.339-0.36,2.435-1.079,3.287c-0.719,0.852-1.699,1.277-2.938,1.277
			s-2.221-0.427-2.942-1.282c-0.723-0.854-1.083-1.949-1.083-3.282V298.278z M264.953,298.462c0,0.951,0.201,1.737,0.602,2.357
			c0.401,0.619,0.998,0.93,1.789,0.93c0.78,0,1.373-0.311,1.776-0.93c0.404-0.62,0.606-1.406,0.606-2.357v-0.184
			c0-0.94-0.204-1.724-0.61-2.349c-0.407-0.625-1.003-0.938-1.789-0.938c-0.78,0-1.371,0.313-1.772,0.938
			c-0.401,0.625-0.602,1.408-0.602,2.349V298.462z"/>
		<path fill="#A7A9AC" d="M273.973,293.871l0.116,1.337c0.299-0.477,0.674-0.846,1.125-1.108c0.451-0.263,0.964-0.395,1.54-0.395
			c0.968,0,1.718,0.283,2.25,0.851s0.797,1.443,0.797,2.627v5.67h-1.635v-5.637c0-0.791-0.156-1.353-0.469-1.685
			c-0.313-0.332-0.79-0.498-1.432-0.498c-0.503,0-0.931,0.101-1.283,0.303c-0.351,0.202-0.629,0.485-0.834,0.851v6.666h-1.635
			v-8.981H273.973z"/>
	</g>
</g>
</svg>
