<?xml version="1.0" encoding="utf-8"?>
<!-- Generator: Adobe Illustrator 16.0.0, SVG Export Plug-In . SVG Version: 6.00 Build 0)  -->
<!DOCTYPE svg PUBLIC "-//W3C//DTD SVG 1.1//EN" "http://www.w3.org/Graphics/SVG/1.1/DTD/svg11.dtd">
<svg version="1.1" xmlns="http://www.w3.org/2000/svg" xmlns:xlink="http://www.w3.org/1999/xlink" x="0px" y="0px" width="360px"
	 height="360px" viewBox="0 0 360 360" enable-background="new 0 0 360 360" xml:space="preserve">
<g id="Layer_1">
	<g>
		<rect fill="#B7C7DF" width="360" height="360"/>
	</g>
    <g id="group-left">
        <g>
        <path fill="#404041" d="M17.551,115.086v4.492H16.66v-10.811h3.728c1.133,0,2.011,0.29,2.632,0.869s0.932,1.341,0.932,2.287
			c0,0.96-0.311,1.728-0.932,2.302s-1.499,0.861-2.632,0.861H17.551z M17.551,114.329h2.837c0.891,0,1.559-0.227,2.005-0.68
			c0.445-0.453,0.668-1.023,0.668-1.711c0-0.693-0.223-1.269-0.668-1.727c-0.446-0.458-1.114-0.687-2.005-0.687h-2.837V114.329z" />
        <path fill="#404041" d="M26.603,114.692v4.886h-0.891v-10.804h3.601c1.158,0,2.046,0.253,2.666,0.761
			c0.619,0.507,0.928,1.249,0.928,2.224c0,0.574-0.165,1.088-0.494,1.541c-0.329,0.453-0.796,0.784-1.4,0.992
			c0.668,0.168,1.15,0.469,1.444,0.902c0.294,0.434,0.442,0.977,0.442,1.63v1.018c0,0.336,0.04,0.638,0.119,0.906
			c0.079,0.267,0.21,0.485,0.394,0.653v0.178h-0.906c-0.184-0.178-0.312-0.428-0.386-0.75s-0.111-0.656-0.111-1.002v-0.987
			c0-0.664-0.214-1.187-0.642-1.571c-0.429-0.383-1.026-0.575-1.793-0.575H26.603z M26.603,113.935h2.606
			c0.975,0,1.688-0.197,2.139-0.59c0.45-0.394,0.676-0.925,0.676-1.593c0-0.713-0.225-1.261-0.672-1.645
			c-0.448-0.383-1.127-0.575-2.038-0.575h-2.71V113.935z" />
        <path fill="#404041" d="M43.28,115.056c0,1.396-0.383,2.524-1.147,3.386s-1.791,1.292-3.078,1.292
			c-1.267,0-2.279-0.431-3.034-1.292s-1.132-1.99-1.132-3.386v-1.76c0-1.391,0.376-2.52,1.128-3.386
			c0.752-0.866,1.762-1.299,3.03-1.299c1.287,0,2.314,0.433,3.081,1.299c0.768,0.867,1.151,1.995,1.151,3.386V115.056z
			 M42.396,113.281c0-1.168-0.296-2.108-0.888-2.821c-0.591-0.713-1.412-1.069-2.461-1.069c-1.03,0-1.832,0.356-2.406,1.069
			s-0.861,1.653-0.861,2.821v1.775c0,1.178,0.289,2.124,0.865,2.836s1.38,1.069,2.41,1.069c1.054,0,1.875-0.355,2.461-1.065
			c0.587-0.71,0.88-1.657,0.88-2.84V113.281z" />
        <path fill="#404041" d="M48.159,117.685l0.215,0.757h0.045l0.215-0.757l3.253-8.917h0.958l-4.024,10.811h-0.847l-4.024-10.811
			h0.965L48.159,117.685z" />
        <path fill="#404041" d="M55.258,119.578h-0.891v-10.811h0.891V119.578z" />
        <path fill="#404041" d="M65.913,119.578h-0.891l-6.141-9.252l-0.045,0.007v9.245h-0.891v-10.811h0.891l6.141,9.229l0.045-0.007
			v-9.222h0.891V119.578z" />
        <path fill="#404041" d="M75.819,116.2l0.015,0.044c0.02,1.06-0.327,1.906-1.04,2.54s-1.648,0.95-2.807,0.95
			c-1.203,0-2.173-0.434-2.911-1.303c-0.738-0.869-1.106-1.994-1.106-3.375v-1.76c0-1.376,0.368-2.501,1.106-3.375
			c0.738-0.874,1.708-1.311,2.911-1.311c1.173,0,2.112,0.31,2.818,0.928c0.705,0.619,1.048,1.47,1.028,2.554l-0.015,0.045h-0.832
			c0-0.872-0.266-1.551-0.798-2.039c-0.532-0.487-1.266-0.731-2.202-0.731c-0.945,0-1.704,0.367-2.275,1.099
			c-0.572,0.733-0.858,1.671-0.858,2.814v1.775c0,1.158,0.286,2.103,0.858,2.833c0.571,0.73,1.33,1.095,2.275,1.095
			c0.936,0,1.67-0.237,2.202-0.712c0.532-0.476,0.798-1.166,0.798-2.072H75.819z" />
        <path fill="#404041" d="M83.557,114.343h-4.849v4.485h5.605v0.75h-6.497v-10.811h6.46v0.757h-5.568v4.062h4.849V114.343z" />
        <path fill="#404041" d="M91.992,116.95c0-0.555-0.221-1.012-0.661-1.374c-0.44-0.361-1.188-0.7-2.242-1.017
			c-1.154-0.317-2.031-0.711-2.633-1.184c-0.601-0.473-0.902-1.115-0.902-1.927c0-0.827,0.336-1.506,1.01-2.038
			s1.532-0.798,2.577-0.798c1.099,0,1.982,0.301,2.651,0.902s0.993,1.365,0.973,2.291l-0.015,0.045h-0.831
			c0-0.713-0.259-1.305-0.776-1.775s-1.185-0.706-2.001-0.706c-0.842,0-1.501,0.2-1.979,0.598c-0.478,0.398-0.717,0.887-0.717,1.466
			c0,0.549,0.216,1.001,0.649,1.355c0.434,0.354,1.197,0.685,2.291,0.991c1.139,0.332,2.007,0.74,2.606,1.225
			c0.599,0.485,0.898,1.129,0.898,1.931c0,0.842-0.351,1.519-1.051,2.031c-0.701,0.513-1.583,0.769-2.647,0.769
			s-1.992-0.271-2.784-0.813s-1.176-1.333-1.151-2.372l0.015-0.045h0.824c0,0.837,0.314,1.459,0.943,1.868
			c0.629,0.408,1.347,0.612,2.153,0.612c0.827,0,1.5-0.189,2.02-0.568C91.732,118.038,91.992,117.548,91.992,116.95z" />
	    </g>
            <g>
            <path fill="#1073A8" d="M48.532,86.255h-6.016V62.699l-5.868,2.267v-4.999l11.248-4.597h0.636V86.255z" />
            <path fill="#1073A8" d="M70.479,86.255h-6.016V62.699l-5.868,2.267v-4.999l11.249-4.597h0.635V86.255z" />
	    </g>
            <g opacity="0.6">
            <g>
            <rect x="12.176" y="98.521" fill="#799DC4" width="88.635" height="3" />
		    </g>
	    </g>
    </g>
    <g id="group-right">
        <g>
            <path fill="#404041" d="M269.144,115.086v4.492h-0.892v-10.811h3.728c1.134,0,2.011,0.29,2.633,0.869
			    c0.621,0.579,0.932,1.341,0.932,2.287c0,0.96-0.311,1.728-0.932,2.302c-0.622,0.574-1.499,0.861-2.633,0.861H269.144z
			     M269.144,114.329h2.836c0.892,0,1.56-0.227,2.005-0.68c0.445-0.453,0.668-1.023,0.668-1.711c0-0.693-0.223-1.269-0.668-1.727
			    c-0.445-0.458-1.113-0.687-2.005-0.687h-2.836V114.329z" />
            <path fill="#404041" d="M278.195,114.692v4.886h-0.891v-10.804h3.602c1.158,0,2.047,0.253,2.666,0.761
			    c0.619,0.507,0.928,1.249,0.928,2.224c0,0.574-0.165,1.088-0.494,1.541c-0.329,0.453-0.795,0.784-1.399,0.992
			    c0.668,0.168,1.149,0.469,1.444,0.902c0.294,0.434,0.442,0.977,0.442,1.63v1.018c0,0.336,0.04,0.638,0.119,0.906
			    c0.079,0.267,0.21,0.485,0.394,0.653v0.178h-0.906c-0.183-0.178-0.312-0.428-0.386-0.75s-0.111-0.656-0.111-1.002v-0.987
			    c0-0.664-0.214-1.187-0.643-1.571c-0.428-0.383-1.025-0.575-1.793-0.575H278.195z M278.195,113.935h2.606
			    c0.975,0,1.688-0.197,2.138-0.59c0.451-0.394,0.676-0.925,0.676-1.593c0-0.713-0.224-1.261-0.672-1.645
			    c-0.448-0.383-1.127-0.575-2.038-0.575h-2.71V113.935z" />
            <path fill="#404041" d="M294.872,115.056c0,1.396-0.382,2.524-1.147,3.386c-0.765,0.861-1.791,1.292-3.078,1.292
			    c-1.268,0-2.278-0.431-3.033-1.292s-1.133-1.99-1.133-3.386v-1.76c0-1.391,0.376-2.52,1.129-3.386
			    c0.752-0.866,1.762-1.299,3.029-1.299c1.287,0,2.314,0.433,3.082,1.299c0.767,0.867,1.15,1.995,1.15,3.386V115.056z
			     M293.989,113.281c0-1.168-0.296-2.108-0.887-2.821c-0.592-0.713-1.412-1.069-2.462-1.069c-1.029,0-1.831,0.356-2.405,1.069
			    s-0.861,1.653-0.861,2.821v1.775c0,1.178,0.288,2.124,0.865,2.836s1.38,1.069,2.41,1.069c1.054,0,1.875-0.355,2.461-1.065
			    c0.586-0.71,0.88-1.657,0.88-2.84V113.281z" />
            <path fill="#404041" d="M301.578,108.767h0.891v7.678c0,1.005-0.293,1.804-0.88,2.398c-0.587,0.594-1.345,0.891-2.276,0.891
			    c-0.99,0-1.775-0.262-2.354-0.787c-0.579-0.524-0.856-1.292-0.831-2.302l0.015-0.044h0.832c0,0.812,0.199,1.412,0.598,1.801
			    s0.979,0.583,1.741,0.583c0.659,0,1.201-0.229,1.626-0.687c0.425-0.458,0.638-1.076,0.638-1.853V108.767z" />
            <path fill="#404041" d="M310.637,114.343h-4.849v4.485h5.606v0.75h-6.497v-10.811h6.46v0.757h-5.569v4.062h4.849V114.343z" />
            <path fill="#404041" d="M320.424,116.2l0.015,0.044c0.02,1.06-0.327,1.906-1.04,2.54s-1.648,0.95-2.807,0.95
			    c-1.203,0-2.173-0.434-2.911-1.303c-0.738-0.869-1.106-1.994-1.106-3.375v-1.76c0-1.376,0.369-2.501,1.106-3.375
			    c0.737-0.874,1.708-1.311,2.911-1.311c1.173,0,2.112,0.31,2.818,0.928c0.705,0.619,1.048,1.47,1.028,2.554l-0.015,0.045h-0.832
			    c0-0.872-0.266-1.551-0.798-2.039c-0.532-0.487-1.266-0.731-2.202-0.731c-0.946,0-1.704,0.367-2.276,1.099
			    c-0.572,0.733-0.857,1.671-0.857,2.814v1.775c0,1.158,0.286,2.103,0.857,2.833c0.572,0.73,1.33,1.095,2.276,1.095
			    c0.936,0,1.669-0.237,2.202-0.712c0.532-0.476,0.798-1.166,0.798-2.072H320.424z" />
            <path fill="#404041" d="M329.557,109.524h-3.683v10.054h-0.884v-10.054h-3.809v-0.757h8.375V109.524z" />
            <path fill="#404041" d="M336.968,116.95c0-0.555-0.22-1.012-0.661-1.374c-0.441-0.361-1.188-0.7-2.243-1.017
			    c-1.153-0.317-2.03-0.711-2.632-1.184s-0.902-1.115-0.902-1.927c0-0.827,0.337-1.506,1.01-2.038s1.532-0.798,2.577-0.798
			    c1.099,0,1.982,0.301,2.651,0.902c0.668,0.602,0.992,1.365,0.973,2.291l-0.015,0.045h-0.832c0-0.713-0.259-1.305-0.776-1.775
			    s-1.184-0.706-2.001-0.706c-0.841,0-1.501,0.2-1.979,0.598s-0.716,0.887-0.716,1.466c0,0.549,0.216,1.001,0.65,1.355
			    c0.433,0.354,1.196,0.685,2.291,0.991c1.138,0.332,2.007,0.74,2.606,1.225c0.599,0.485,0.898,1.129,0.898,1.931
			    c0,0.842-0.35,1.519-1.051,2.031c-0.7,0.513-1.583,0.769-2.646,0.769c-1.064,0-1.993-0.271-2.785-0.813
			    c-0.792-0.542-1.176-1.333-1.151-2.372l0.015-0.045h0.824c0,0.837,0.314,1.459,0.943,1.868c0.628,0.408,1.346,0.612,2.153,0.612
			    c0.826,0,1.5-0.189,2.02-0.568C336.708,118.038,336.968,117.548,336.968,116.95z" />
	    </g>
            <g>
            <path fill="#1073A8" d="M300.831,86.253h-18.176v-4.201l8.346-10.649c1.06-1.474,1.84-2.767,2.341-3.88
			    c0.501-1.113,0.752-2.179,0.752-3.2c0-1.375-0.237-2.452-0.709-3.232c-0.474-0.78-1.155-1.169-2.044-1.169
			    c-0.975,0-1.748,0.456-2.32,1.367c-0.572,0.912-0.858,2.193-0.858,3.844h-6.016c0-1.892,0.392-3.622,1.176-5.19
			    c0.784-1.567,1.885-2.786,3.305-3.654c1.419-0.868,3.025-1.303,4.819-1.303c2.754,0,4.89,0.759,6.408,2.277
			    c1.518,1.518,2.277,3.675,2.277,6.472c0,1.737-0.421,3.499-1.261,5.286c-0.84,1.787-2.362,3.992-4.565,6.616l-3.961,5.681h10.486
			    V86.253z" />
            <path fill="#1073A8" d="M322.523,73.5c0,4.266-0.773,7.528-2.32,9.787c-1.546,2.26-3.753,3.39-6.62,3.39
			    c-2.838,0-5.031-1.098-6.577-3.294c-1.547-2.196-2.348-5.341-2.404-9.438V68.12c0-4.251,0.77-7.502,2.309-9.755
			    c1.539-2.252,3.75-3.379,6.631-3.379s5.091,1.116,6.631,3.347c1.539,2.231,2.322,5.416,2.351,9.554V73.5z M316.507,67.237
			    c0-2.438-0.24-4.267-0.721-5.486c-0.48-1.22-1.229-1.829-2.245-1.829c-1.906,0-2.896,2.233-2.966,6.699v7.719
			    c0,2.496,0.244,4.353,0.731,5.572c0.487,1.219,1.246,1.829,2.277,1.829c0.975,0,1.698-0.571,2.172-1.712
			    c0.473-1.141,0.724-2.889,0.752-5.242V67.237z" />
	    </g>
            <g opacity="0.6">
            <g>
            <rect x="260.396" y="98.521" fill="#799DC4" width="88.637" height="3" />
		    </g>
	    </g>
    </g>
	<g id="person">
		<g>
			<path fill="#799DC4" d="M194.293,93.329c-2.857-1.994-6.035-3.672-9.439-5.033c-0.002,0.013-0.006,0.027-0.009,0.04
				c-3.033-1.232-6.245-2.215-9.607-2.899c1.571-1.131,3.017-2.465,4.319-3.979l22.09-10.229c1.112-0.519,1.724-1.711,1.491-2.912
				c-0.083-0.435-2.181-10.856-8.029-21.445c-7.983-14.419-19.123-22.045-32.219-22.045c-13.086,0-24.226,7.626-32.212,22.045
				c-5.856,10.589-7.94,21.011-8.029,21.445c-0.236,1.201,0.375,2.394,1.491,2.912l22.099,10.229
				c1.292,1.514,2.742,2.848,4.311,3.979c-7.116,1.442-13.645,4.118-19.052,7.892C122.797,99.395,118,107.584,118,116.33
				c0,1.469,1.194,2.67,2.676,2.67h43.787h15.373h25.281c1.482,0,2.676-1.201,2.676-2.67
				C207.792,107.584,202.995,99.395,194.293,93.329z M144.778,62.343c0-1.464-1.192-2.641-2.676-2.641
				c-1.471,0-2.669,1.177-2.669,2.641c0,3.94,0.722,7.679,2.032,11.062l-13.097-6.063c0.878-3.437,3.046-10.782,7.065-18.026
				c7.077-12.737,16.317-19.192,27.457-19.192c11.182,0,20.438,6.495,27.521,19.297c4.005,7.236,6.144,14.508,7.006,17.922
				l-13.095,6.063c1.312-3.383,2.036-7.121,2.036-11.062c0-1.464-1.201-2.641-2.681-2.641c-1.474,0-2.675,1.177-2.675,2.641
				c0,12.058-8.125,21.875-18.112,21.875C152.903,84.218,144.778,74.4,144.778,62.343z M174.771,90.746
				c-2.901,1.923-7.33,4.123-12.276,4.018c-3.741-0.083-7.294-1.488-10.612-4.193c3.529-0.698,7.226-1.059,11.007-1.059
				C166.983,89.512,170.979,89.939,174.771,90.746z M186,114v-7.772c0-1.464-1.026-2.646-2.505-2.646
				c-1.476,0-2.495,1.182-2.495,2.646V114h-2.735h-12.879H145v-7.772c0-1.464-1.52-2.646-2.995-2.646
				c-1.479,0-3.005,1.182-3.005,2.646V114h-15.458c0.884-6,4.725-11.765,11.042-16.178c3.296-2.297,7.072-4.23,11.183-5.576
				c4.966,5.121,10.564,7.74,16.661,7.853c0.137,0.006,0.274-0.015,0.409-0.015c8.842,0,15.925-5.409,18.346-7.507
				c1.995,0.708,3.881,1.558,5.691,2.503c0.003-0.007,0.007-0.016,0.01-0.023c1.514,0.792,2.963,1.818,4.323,2.767
				C197.525,102.236,201.367,108,202.25,114H186z"/>
		</g>
	</g>
	<g id="document">
		<g>
			<path fill="#B7C7DF" d="M227.182,88.577h-32.613c-0.286,0-0.559,0.064-0.807,0.187l-13.914,13.567
				c-0.194,0.295-0.558,0.637-0.558,0.997v49.552c0,2.947,2.91,5.698,5.86,5.698h18.283h5.468h18.282
				c2.95,0,4.996-2.751,4.996-5.698v-23.585v-1.762v-33.62C232.179,90.965,230.127,88.577,227.182,88.577z"/>
		</g>
		<g>
			<g>
				<path fill="#1073A8" d="M185.149,160.577c-4.113,0-7.86-3.669-7.86-7.698v-49.552c0-0.95,0.52-1.621,0.8-1.981l0.089-0.117
					l0.111-0.162l0.162-0.169l14.142-13.788l0.284-0.141c0.529-0.26,1.098-0.393,1.691-0.393h32.613
					c3.989,0,6.997,3.153,6.997,7.335v58.966c0,4.245-3.139,7.698-6.996,7.698H185.149z M226.547,152.948
					c0.001-0.022,0.002-23.598,0.002-23.598c-0.688,1.009-1.848,1.672-3.16,1.672h-19.747c0.537,0.657,0.859,1.495,0.859,2.407
					c0,2.104-1.715,3.814-3.824,3.814h-10.966c-2.109,0-3.825-1.711-3.825-3.814c0-1.282,0.638-2.418,1.614-3.11
					c-0.976-0.692-1.614-1.828-1.614-3.11c0-1.283,0.638-2.421,1.615-3.113c-0.976-0.693-1.613-1.831-1.613-3.115
					c0-1.281,0.637-2.416,1.612-3.107c-0.975-0.692-1.612-1.828-1.612-3.11c0-2.104,1.715-3.816,3.824-3.816h15.9
					c-0.538-0.658-0.86-1.497-0.86-2.411c0-2.102,1.713-3.812,3.819-3.812h14.818c1.312,0,2.471,0.663,3.16,1.671v-11.67h-27.63
					v5.141c0,4.24-3.511,7.822-7.666,7.822c0,0-5.803,0-5.815,0v45.19c0.002,0.014,0.013,0.041,0.027,0.069H226.547z
					 M225.597,124.095c0.372,0.264,0.695,0.593,0.952,0.969v-1.939C226.292,123.502,225.969,123.832,225.597,124.095z
					 M225.599,117.873c0.371,0.263,0.693,0.591,0.95,0.967v-1.935C226.292,117.281,225.97,117.609,225.599,117.873z M225.597,111.65
					c0.372,0.264,0.695,0.593,0.952,0.969v-1.939C226.292,111.058,225.969,111.387,225.597,111.65z M190.764,100.059
					c0.004-0.057,0.007-0.121,0.007-0.192v-0.467l-0.603,0.659H190.764z"/>
			</g>
			<g>
				<path fill="#B7C7DF" d="M227.182,88.577c2.945,0,4.997,2.388,4.997,5.335v33.62v1.762v23.585c0,2.947-2.046,5.698-4.996,5.698
					H208.9h-5.468h-18.283c-2.95,0-5.86-2.751-5.86-5.698v-49.552c0-0.36,0.364-0.701,0.558-0.997l13.914-13.567
					c0.248-0.122,0.521-0.187,0.807-0.187H227.182 M185.475,105.688c-0.698,0-1.519-0.212-2.037-0.244v47.435
					c0,0.939,0.774,2.069,1.712,2.069h18.325h5.383h18.325c0.938,0,1.366-1.129,1.366-2.069v-23.08V93.913
					c0-0.938-0.428-1.187-1.367-1.187h-30.22c-0.044,0.518-0.043,0.717-0.043,1.363v5.778c0,3.125-2.538,5.822-5.666,5.822H185.475
					 M185.632,102.059h5.621c1.117,0,1.519-1.074,1.519-2.192v-5.62L185.632,102.059 M223.389,106.725
					c1.006,0,1.821,0.809,1.821,1.812c0,1.009-0.814,1.817-1.821,1.817h-14.818c-1.008,0-1.819-0.808-1.819-1.817
					c0-1.003,0.811-1.812,1.819-1.812H223.389 M223.389,112.947c1.006,0,1.821,0.81,1.821,1.816c0,1.008-0.814,1.814-1.821,1.814
					h-33.678c-1.007,0-1.824-0.806-1.824-1.814c0-1.006,0.816-1.816,1.824-1.816H223.389 M223.389,119.169
					c1.006,0,1.821,0.808,1.821,1.811c0,1.008-0.814,1.819-1.821,1.819h-33.678c-1.007,0-1.824-0.811-1.824-1.819
					c0-1.003,0.816-1.811,1.824-1.811H223.389 M223.389,125.392c1.006,0,1.821,0.808,1.821,1.816c0,1.005-0.814,1.814-1.821,1.814
					h-33.678c-1.007,0-1.825-0.809-1.825-1.814c0-1.008,0.818-1.816,1.825-1.816H223.389 M200.678,131.614
					c1.008,0,1.824,0.811,1.824,1.814c0,1.007-0.816,1.814-1.824,1.814h-10.966c-1.007,0-1.825-0.808-1.825-1.814
					c0-1.004,0.818-1.814,1.825-1.814H200.678 M227.182,84.577h-32.613c-0.903,0-1.77,0.202-2.576,0.599l-0.569,0.281l-0.454,0.443
					l-13.914,13.567l-0.313,0.305l-0.202,0.308l-0.031,0.041c-0.365,0.47-1.22,1.572-1.22,3.207v49.552
					c0,5.076,4.7,9.698,9.86,9.698h18.283h5.468h18.282c4.96,0,8.996-4.351,8.996-9.698v-23.585v-1.762v-33.62
					C236.179,88.678,232.227,84.577,227.182,84.577L227.182,84.577z M200.919,96.726h23.63v6.115
					c-0.375-0.076-0.763-0.116-1.16-0.116h-14.818c-3.208,0-5.819,2.607-5.819,5.812c0,0.138,0.005,0.275,0.014,0.411h-7.829
					c3.507-1.475,5.982-4.99,5.982-9.081V96.726L200.919,96.726z M206.487,133.022h16.902c0.397,0,0.785-0.04,1.16-0.116v18.042
					h-15.691h-5.383h-16.037v-12.166c0.699,0.297,1.468,0.461,2.274,0.461h10.966c3.211,0,5.824-2.608,5.824-5.814
					C206.501,133.292,206.497,133.156,206.487,133.022L206.487,133.022z"/>
			</g>
		</g>
	</g>
</g>
<g id="Layer_2">
	<g>
		<path fill="#1073A8" d="M154.338,319.625h-6.563v17.787h-2.693v-17.787h-6.48v-2.119h15.736V319.625z"/>
		<path fill="#1073A8" d="M164.893,335.224c-0.465,0.793-1.062,1.404-1.791,1.832c-0.729,0.428-1.572,0.643-2.529,0.643
			c-1.613,0-2.871-0.515-3.773-1.545c-0.902-1.03-1.354-2.634-1.354-4.813v-8.723h2.693v8.75c0,1.577,0.232,2.662,0.697,3.254
			c0.465,0.593,1.189,0.889,2.174,0.889c0.957,0,1.748-0.193,2.372-0.581c0.624-0.387,1.096-0.937,1.415-1.647v-10.664h2.693v14.793
			h-2.42L164.893,335.224z"/>
		<path fill="#1073A8" d="M178.414,324.998l-1.381-0.082c-0.711,0-1.311,0.169-1.798,0.506c-0.488,0.337-0.864,0.812-1.128,1.422
			v10.568h-2.693v-14.793h2.406l0.26,2.16c0.419-0.766,0.937-1.362,1.552-1.791c0.615-0.428,1.324-0.643,2.126-0.643
			c0.2,0,0.392,0.016,0.574,0.048c0.182,0.032,0.333,0.066,0.451,0.103L178.414,324.998z"/>
		<path fill="#1073A8" d="M185.305,330.589h-1.381v6.822h-2.693v-21.328h2.693v12.359h1.354l4.443-5.824h3.227l-5.373,6.822
			l5.838,7.971h-3.186L185.305,330.589z"/>
		<path fill="#1073A8" d="M201.424,337.699c-2.124,0-3.78-0.679-4.97-2.037c-1.189-1.358-1.784-3.145-1.784-5.359v-0.602
			c0-2.124,0.613-3.88,1.839-5.271c1.226-1.39,2.723-2.085,4.491-2.085c1.978,0,3.461,0.615,4.45,1.846
			c0.989,1.23,1.483,2.867,1.483,4.908v1.422h-9.461l-0.041,0.068c0,1.486,0.328,2.691,0.984,3.616
			c0.656,0.925,1.659,1.388,3.008,1.388c0.911,0,1.711-0.13,2.399-0.39c0.688-0.26,1.278-0.617,1.771-1.073l1.053,1.75
			c-0.529,0.511-1.226,0.941-2.092,1.292C203.688,337.523,202.645,337.699,201.424,337.699z M201,324.464
			c-0.939,0-1.716,0.362-2.331,1.087s-0.991,1.652-1.128,2.782l0.027,0.068h6.672v-0.219c0-1.075-0.265-1.964-0.793-2.666
			C202.918,324.815,202.103,324.464,201,324.464z"/>
		<path fill="#1073A8" d="M214.303,331.929l0.479,1.859h0.082l3.637-11.17h2.994l-6.221,17.063
			c-0.374,0.993-0.909,1.859-1.606,2.598s-1.639,1.107-2.823,1.107c-0.219,0-0.497-0.025-0.834-0.075
			c-0.337-0.05-0.597-0.098-0.779-0.144l0.273-2.119c-0.055-0.009,0.107,0,0.485,0.027c0.378,0.027,0.617,0.041,0.718,0.041
			c0.574,0,1.043-0.255,1.408-0.766c0.364-0.511,0.67-1.076,0.916-1.695l0.643-1.545l-5.496-14.492h3.008L214.303,331.929z"/>
	</g>
	<g>
		<path fill="#555658" d="M88.031,295.939h-4.964v4.325h5.811v1.278h-7.446v-12.086h7.354v1.287h-5.719v3.909h4.964V295.939z"/>
		<path fill="#555658" d="M91.199,292.562l0.116,1.179c0.293-0.426,0.666-0.757,1.117-0.992c0.451-0.235,0.975-0.353,1.573-0.353
			s1.111,0.139,1.54,0.415c0.429,0.276,0.751,0.691,0.967,1.245c0.288-0.515,0.663-0.92,1.125-1.216
			c0.462-0.296,1.003-0.444,1.623-0.444c0.913,0,1.635,0.314,2.167,0.942s0.797,1.572,0.797,2.834v5.371h-1.635v-5.387
			c0-0.886-0.152-1.513-0.457-1.881s-0.758-0.552-1.361-0.552c-0.559,0-1.011,0.193-1.357,0.581
			c-0.346,0.388-0.549,0.877-0.61,1.469v0.066v5.703h-1.644v-5.387c0-0.842-0.156-1.457-0.469-1.848
			c-0.313-0.39-0.763-0.585-1.349-0.585c-0.498,0-0.908,0.103-1.229,0.308c-0.321,0.204-0.567,0.492-0.739,0.863v6.648h-1.635
			v-8.981H91.199z"/>
		<path fill="#555658" d="M111.399,297.393c0,1.295-0.31,2.34-0.93,3.134s-1.475,1.19-2.565,1.19c-0.553,0-1.039-0.092-1.457-0.277
			c-0.417-0.186-0.773-0.464-1.066-0.834v4.391h-1.635v-12.435H105l0.257,1.162c0.293-0.432,0.659-0.761,1.096-0.987
			c0.437-0.228,0.946-0.341,1.527-0.341c1.112,0,1.977,0.441,2.594,1.324c0.617,0.883,0.925,2.049,0.925,3.499V297.393z
			 M109.764,297.219c0-1.019-0.201-1.855-0.602-2.512c-0.401-0.655-0.992-0.983-1.772-0.983c-0.47,0-0.872,0.106-1.204,0.319
			s-0.601,0.505-0.805,0.876v4.341c0.205,0.371,0.473,0.66,0.805,0.868c0.332,0.207,0.739,0.312,1.22,0.312
			c0.775,0,1.361-0.284,1.76-0.852s0.598-1.299,0.598-2.195V297.219z"/>
		<path fill="#555658" d="M112.177,296.969c0-1.328,0.36-2.422,1.079-3.282s1.696-1.291,2.93-1.291c1.245,0,2.229,0.429,2.951,1.286
			c0.722,0.858,1.083,1.954,1.083,3.287v0.184c0,1.339-0.36,2.435-1.079,3.287c-0.719,0.852-1.699,1.277-2.938,1.277
			s-2.221-0.427-2.942-1.282c-0.723-0.854-1.083-1.949-1.083-3.282V296.969z M113.812,297.152c0,0.951,0.201,1.737,0.602,2.357
			c0.401,0.619,0.998,0.93,1.789,0.93c0.78,0,1.373-0.311,1.776-0.93c0.404-0.62,0.606-1.406,0.606-2.357v-0.184
			c0-0.94-0.204-1.724-0.61-2.349c-0.407-0.625-1.003-0.938-1.789-0.938c-0.78,0-1.371,0.313-1.772,0.938
			c-0.401,0.625-0.602,1.408-0.602,2.349V297.152z"/>
		<path fill="#555658" d="M123.67,298.272l0.208,1.153h0.05l0.216-1.153l1.793-5.711h1.312l1.801,5.711l0.232,1.286h0.05
			l0.266-1.286l1.328-5.711h1.71l-2.606,8.981h-1.32l-1.776-5.471l-0.34-1.428h-0.05l-0.315,1.428l-1.743,5.471h-1.32l-2.606-8.981
			h1.702L123.67,298.272z"/>
		<path fill="#555658" d="M137.105,301.717c-1.29,0-2.295-0.412-3.017-1.236c-0.723-0.824-1.083-1.909-1.083-3.254v-0.365
			c0-1.289,0.372-2.356,1.117-3.2c0.744-0.844,1.653-1.266,2.727-1.266c1.201,0,2.102,0.374,2.702,1.12
			c0.6,0.748,0.9,1.741,0.9,2.98v0.863h-5.744l-0.025,0.041c0,0.902,0.199,1.635,0.598,2.196s1.007,0.843,1.826,0.843
			c0.553,0,1.039-0.079,1.457-0.237c0.418-0.157,0.776-0.375,1.075-0.651l0.639,1.063c-0.321,0.31-0.744,0.571-1.27,0.784
			S137.847,301.717,137.105,301.717z M136.848,293.682c-0.57,0-1.042,0.221-1.415,0.66c-0.374,0.44-0.602,1.003-0.685,1.689
			l0.017,0.041h4.051v-0.133c0-0.652-0.161-1.192-0.481-1.618S137.518,293.682,136.848,293.682z"/>
		<path fill="#555658" d="M145.685,294.006l-0.838-0.05c-0.432,0-0.795,0.103-1.092,0.308c-0.296,0.204-0.524,0.492-0.685,0.863
			v6.416h-1.635v-8.981h1.461l0.158,1.312c0.254-0.465,0.568-0.827,0.942-1.088c0.373-0.26,0.804-0.39,1.291-0.39
			c0.122,0,0.238,0.01,0.349,0.029s0.202,0.04,0.274,0.062L145.685,294.006z"/>
		<path fill="#555658" d="M148.305,290.262h-1.635v-1.668h1.635V290.262z M148.305,301.543h-1.635v-8.981h1.635V301.543z"/>
		<path fill="#555658" d="M151.431,292.562l0.116,1.337c0.299-0.477,0.674-0.846,1.125-1.108c0.451-0.263,0.964-0.395,1.54-0.395
			c0.968,0,1.718,0.283,2.25,0.851s0.797,1.443,0.797,2.627v5.67h-1.635v-5.637c0-0.791-0.156-1.353-0.469-1.685
			c-0.313-0.332-0.79-0.498-1.432-0.498c-0.503,0-0.931,0.101-1.283,0.303c-0.351,0.202-0.629,0.485-0.834,0.851v6.666h-1.635
			v-8.981H151.431z"/>
		<path fill="#555658" d="M158.492,297.219c0-1.445,0.309-2.609,0.926-3.495c0.617-0.886,1.479-1.328,2.585-1.328
			c0.57,0,1.071,0.115,1.502,0.345s0.794,0.561,1.087,0.992l0.199-1.171h1.303v9.031c0,1.151-0.335,2.035-1.004,2.652
			s-1.635,0.925-2.897,0.925c-0.432,0-0.898-0.059-1.398-0.178c-0.501-0.119-0.942-0.281-1.324-0.486l0.249-1.27
			c0.315,0.166,0.696,0.3,1.142,0.402c0.445,0.103,0.884,0.154,1.315,0.154c0.797,0,1.376-0.182,1.739-0.544
			c0.362-0.362,0.543-0.915,0.543-1.656v-1.021c-0.293,0.376-0.645,0.661-1.054,0.854s-0.883,0.29-1.419,0.29
			c-1.096,0-1.952-0.396-2.569-1.19c-0.617-0.794-0.926-1.839-0.926-3.134V297.219z M160.127,297.393
			c0,0.902,0.186,1.627,0.556,2.175s0.943,0.821,1.718,0.821c0.493,0,0.905-0.111,1.237-0.336c0.332-0.224,0.606-0.541,0.822-0.95
			v-4.134c-0.21-0.382-0.484-0.685-0.822-0.909c-0.337-0.224-0.744-0.336-1.22-0.336c-0.78,0-1.357,0.323-1.731,0.972
			c-0.373,0.646-0.56,1.488-0.56,2.523V297.393z"/>
		<path fill="#555658" d="M173.269,298.272l0.208,1.153h0.05l0.216-1.153l1.793-5.711h1.312l1.801,5.711l0.232,1.286h0.05
			l0.266-1.286l1.328-5.711h1.71l-2.606,8.981h-1.32l-1.776-5.471l-0.34-1.428h-0.05l-0.315,1.428l-1.743,5.471h-1.32l-2.606-8.981
			h1.702L173.269,298.272z"/>
		<path fill="#555658" d="M182.604,296.969c0-1.328,0.36-2.422,1.079-3.282s1.696-1.291,2.93-1.291c1.245,0,2.229,0.429,2.951,1.286
			c0.722,0.858,1.083,1.954,1.083,3.287v0.184c0,1.339-0.36,2.435-1.079,3.287c-0.719,0.852-1.699,1.277-2.938,1.277
			s-2.221-0.427-2.942-1.282c-0.723-0.854-1.083-1.949-1.083-3.282V296.969z M184.239,297.152c0,0.951,0.201,1.737,0.602,2.357
			c0.401,0.619,0.998,0.93,1.789,0.93c0.78,0,1.373-0.311,1.776-0.93c0.404-0.62,0.606-1.406,0.606-2.357v-0.184
			c0-0.94-0.204-1.724-0.61-2.349c-0.407-0.625-1.003-0.938-1.789-0.938c-0.78,0-1.371,0.313-1.772,0.938
			c-0.401,0.625-0.602,1.408-0.602,2.349V297.152z"/>
		<path fill="#555658" d="M193.259,292.562l0.116,1.179c0.293-0.426,0.666-0.757,1.117-0.992c0.451-0.235,0.975-0.353,1.573-0.353
			s1.111,0.139,1.54,0.415c0.429,0.276,0.751,0.691,0.967,1.245c0.288-0.515,0.663-0.92,1.125-1.216
			c0.462-0.296,1.003-0.444,1.623-0.444c0.913,0,1.635,0.314,2.167,0.942s0.797,1.572,0.797,2.834v5.371h-1.635v-5.387
			c0-0.886-0.152-1.513-0.457-1.881s-0.758-0.552-1.361-0.552c-0.559,0-1.011,0.193-1.357,0.581
			c-0.346,0.388-0.549,0.877-0.61,1.469v0.066v5.703h-1.644v-5.387c0-0.842-0.156-1.457-0.469-1.848
			c-0.313-0.39-0.763-0.585-1.349-0.585c-0.498,0-0.908,0.103-1.229,0.308c-0.321,0.204-0.567,0.492-0.739,0.863v6.648h-1.635
			v-8.981H193.259z"/>
		<path fill="#555658" d="M209.525,301.717c-1.29,0-2.295-0.412-3.017-1.236c-0.723-0.824-1.083-1.909-1.083-3.254v-0.365
			c0-1.289,0.372-2.356,1.117-3.2c0.744-0.844,1.653-1.266,2.727-1.266c1.201,0,2.102,0.374,2.702,1.12
			c0.6,0.748,0.9,1.741,0.9,2.98v0.863h-5.744l-0.025,0.041c0,0.902,0.199,1.635,0.598,2.196s1.007,0.843,1.826,0.843
			c0.553,0,1.039-0.079,1.457-0.237c0.418-0.157,0.776-0.375,1.075-0.651l0.639,1.063c-0.321,0.31-0.744,0.571-1.27,0.784
			S210.267,301.717,209.525,301.717z M209.268,293.682c-0.57,0-1.042,0.221-1.415,0.66c-0.374,0.44-0.602,1.003-0.685,1.689
			l0.017,0.041h4.051v-0.133c0-0.652-0.161-1.192-0.481-1.618S209.937,293.682,209.268,293.682z"/>
		<path fill="#555658" d="M215.315,292.562l0.116,1.337c0.299-0.477,0.674-0.846,1.125-1.108c0.451-0.263,0.964-0.395,1.54-0.395
			c0.968,0,1.718,0.283,2.25,0.851s0.797,1.443,0.797,2.627v5.67h-1.635v-5.637c0-0.791-0.156-1.353-0.469-1.685
			c-0.313-0.332-0.79-0.498-1.432-0.498c-0.503,0-0.931,0.101-1.283,0.303c-0.351,0.202-0.629,0.485-0.834,0.851v6.666h-1.635
			v-8.981H215.315z"/>
		<path fill="#555658" d="M233.695,297.393c0,1.295-0.31,2.34-0.93,3.134s-1.475,1.19-2.565,1.19c-0.553,0-1.039-0.092-1.457-0.277
			c-0.417-0.186-0.773-0.464-1.066-0.834v4.391h-1.635v-12.435h1.253l0.257,1.162c0.293-0.432,0.659-0.761,1.096-0.987
			c0.437-0.228,0.946-0.341,1.527-0.341c1.112,0,1.977,0.441,2.594,1.324c0.617,0.883,0.925,2.049,0.925,3.499V297.393z
			 M232.06,297.219c0-1.019-0.201-1.855-0.602-2.512c-0.401-0.655-0.992-0.983-1.772-0.983c-0.47,0-0.872,0.106-1.204,0.319
			s-0.601,0.505-0.805,0.876v4.341c0.205,0.371,0.473,0.66,0.805,0.868c0.332,0.207,0.739,0.312,1.22,0.312
			c0.775,0,1.361-0.284,1.76-0.852s0.598-1.299,0.598-2.195V297.219z"/>
		<path fill="#555658" d="M239.104,294.006l-0.838-0.05c-0.432,0-0.795,0.103-1.092,0.308c-0.296,0.204-0.524,0.492-0.685,0.863
			v6.416h-1.635v-8.981h1.461l0.158,1.312c0.254-0.465,0.568-0.827,0.942-1.088c0.373-0.26,0.804-0.39,1.291-0.39
			c0.122,0,0.238,0.01,0.349,0.029s0.202,0.04,0.274,0.062L239.104,294.006z"/>
		<path fill="#555658" d="M239.408,296.969c0-1.328,0.36-2.422,1.079-3.282s1.696-1.291,2.93-1.291c1.245,0,2.229,0.429,2.951,1.286
			c0.722,0.858,1.083,1.954,1.083,3.287v0.184c0,1.339-0.36,2.435-1.079,3.287c-0.719,0.852-1.699,1.277-2.938,1.277
			s-2.221-0.427-2.942-1.282c-0.723-0.854-1.083-1.949-1.083-3.282V296.969z M241.043,297.152c0,0.951,0.201,1.737,0.602,2.357
			c0.401,0.619,0.998,0.93,1.789,0.93c0.78,0,1.373-0.311,1.776-0.93c0.404-0.62,0.606-1.406,0.606-2.357v-0.184
			c0-0.94-0.204-1.724-0.61-2.349c-0.407-0.625-1.003-0.938-1.789-0.938c-0.78,0-1.371,0.313-1.772,0.938
			c-0.401,0.625-0.602,1.408-0.602,2.349V297.152z"/>
		<path fill="#555658" d="M250.486,292.562v9.72c0,0.925-0.238,1.637-0.714,2.138s-1.137,0.751-1.984,0.751
			c-0.171,0-0.328-0.012-0.469-0.037c-0.141-0.024-0.292-0.063-0.452-0.111l0.116-1.287c0.078,0.027,0.188,0.051,0.332,0.07
			s0.263,0.029,0.357,0.029c0.36,0,0.646-0.122,0.859-0.365c0.213-0.243,0.32-0.639,0.32-1.188v-9.72H250.486z M250.436,290.229
			h-1.635v-1.635h1.635V290.229z"/>
		<path fill="#555658" d="M255.87,301.717c-1.29,0-2.295-0.412-3.017-1.236c-0.723-0.824-1.083-1.909-1.083-3.254v-0.365
			c0-1.289,0.372-2.356,1.117-3.2c0.744-0.844,1.653-1.266,2.727-1.266c1.201,0,2.102,0.374,2.702,1.12
			c0.6,0.748,0.9,1.741,0.9,2.98v0.863h-5.744l-0.025,0.041c0,0.902,0.199,1.635,0.598,2.196s1.007,0.843,1.826,0.843
			c0.553,0,1.039-0.079,1.457-0.237c0.418-0.157,0.776-0.375,1.075-0.651l0.639,1.063c-0.321,0.31-0.744,0.571-1.27,0.784
			S256.611,301.717,255.87,301.717z M255.612,293.682c-0.57,0-1.042,0.221-1.415,0.66c-0.374,0.44-0.602,1.003-0.685,1.689
			l0.017,0.041h4.051v-0.133c0-0.652-0.161-1.192-0.481-1.618S256.282,293.682,255.612,293.682z"/>
		<path fill="#555658" d="M263.769,300.439c0.503,0,0.943-0.168,1.32-0.503s0.564-0.745,0.564-1.232h1.478l0.025,0.05
			c0.022,0.774-0.31,1.462-0.996,2.063s-1.483,0.9-2.391,0.9c-1.262,0-2.236-0.429-2.922-1.286s-1.029-1.926-1.029-3.204v-0.349
			c0-1.268,0.344-2.331,1.034-3.191c0.688-0.86,1.661-1.291,2.917-1.291c1.001,0,1.822,0.31,2.461,0.93
			c0.639,0.62,0.947,1.381,0.925,2.282l-0.017,0.051h-1.486c0-0.549-0.179-1.015-0.535-1.399c-0.357-0.385-0.807-0.577-1.349-0.577
			c-0.802,0-1.388,0.312-1.755,0.935c-0.368,0.622-0.552,1.376-0.552,2.262v0.349c0,0.902,0.181,1.663,0.543,2.283
			C262.367,300.129,262.955,300.439,263.769,300.439z"/>
		<path fill="#555658" d="M270.522,290.395v2.167h1.702v1.212h-1.702v5.453c0,0.421,0.087,0.717,0.261,0.889
			c0.175,0.172,0.406,0.258,0.693,0.258c0.094,0,0.199-0.013,0.315-0.038c0.116-0.024,0.213-0.051,0.291-0.079l0.224,1.121
			c-0.122,0.1-0.302,0.182-0.54,0.245s-0.473,0.095-0.706,0.095c-0.664,0-1.192-0.2-1.585-0.602s-0.589-1.03-0.589-1.889v-5.453
			h-1.428v-1.212h1.428v-2.167H270.522z"/>
		<path fill="#555658" d="M278.347,299.127c0-0.359-0.137-0.652-0.411-0.879c-0.273-0.228-0.792-0.427-1.556-0.598
			c-1.057-0.228-1.869-0.546-2.436-0.955c-0.567-0.409-0.851-0.957-0.851-1.644c0-0.73,0.311-1.355,0.934-1.876
			c0.622-0.521,1.429-0.78,2.419-0.78c1.018,0,1.843,0.276,2.474,0.83s0.933,1.198,0.905,1.935l-0.017,0.049h-1.561
			c0-0.387-0.17-0.738-0.511-1.054c-0.34-0.315-0.771-0.474-1.291-0.474c-0.576,0-1.006,0.131-1.291,0.391
			c-0.285,0.26-0.428,0.57-0.428,0.93c0,0.354,0.123,0.628,0.369,0.822c0.247,0.193,0.754,0.37,1.523,0.531
			c1.101,0.232,1.937,0.562,2.507,0.987s0.855,0.982,0.855,1.669c0,0.797-0.322,1.446-0.967,1.95
			c-0.645,0.504-1.487,0.755-2.527,0.755c-1.146,0-2.047-0.29-2.706-0.871s-0.971-1.259-0.938-2.033l0.017-0.051h1.561
			c0.028,0.582,0.244,1.006,0.647,1.274s0.877,0.403,1.419,0.403c0.581,0,1.036-0.124,1.365-0.37
			C278.182,299.823,278.347,299.51,278.347,299.127z"/>
	</g>
	<g>
		<path fill="#0074A8" d="M134.142,199.118c0,2.455-0.522,4.631-1.565,6.53c-1.043,1.898-2.481,3.415-4.313,4.55
			c2.087,1.184,3.732,2.814,4.938,4.893c1.205,2.078,1.809,4.521,1.809,7.329c0,4.503-1.299,8.061-3.896,10.673
			c-2.597,2.611-6.133,3.917-10.606,3.917c-4.475,0-8.034-1.306-10.677-3.917c-2.643-2.612-3.965-6.169-3.965-10.673
			c0-2.808,0.603-5.257,1.809-7.347c1.205-2.089,2.863-3.714,4.973-4.875c-1.855-1.135-3.304-2.651-4.347-4.55
			c-1.043-1.899-1.565-4.075-1.565-6.53c0-4.422,1.24-7.883,3.721-10.384c2.48-2.501,5.808-3.751,9.981-3.751
			c4.219,0,7.558,1.263,10.016,3.786S134.142,194.742,134.142,199.118z M120.51,228.906c1.483,0,2.625-0.638,3.425-1.914
			c0.8-1.276,1.2-3.049,1.2-5.32c0-2.271-0.417-4.049-1.252-5.337c-0.835-1.287-1.982-1.931-3.443-1.931s-2.614,0.644-3.46,1.931
			c-0.847,1.288-1.27,3.067-1.27,5.337c0,2.271,0.423,4.044,1.27,5.32C117.826,228.268,119.002,228.906,120.51,228.906z
			 M124.335,199.623c0-1.98-0.319-3.565-0.956-4.754c-0.638-1.189-1.617-1.784-2.939-1.784c-1.252,0-2.203,0.577-2.852,1.731
			c-0.649,1.154-0.974,2.756-0.974,4.807c0,2.005,0.325,3.619,0.974,4.842c0.649,1.224,1.623,1.835,2.922,1.835
			c1.298,0,2.26-0.612,2.886-1.835S124.335,201.628,124.335,199.623z"/>
		<path fill="#0074A8" d="M144.993,249.077l-5.251-2.748l1.321-2.469c1.483-2.736,2.249-5.495,2.296-8.277v-7.825h8.555l-0.035,6.99
			c-0.023,2.457-0.649,5.008-1.878,7.651C148.771,245.042,147.102,247.268,144.993,249.077z"/>
		<path fill="#0074A8" d="M182.76,185.157v8.346h-0.556c-3.687,0.023-6.614,1.13-8.781,3.321c-2.168,2.191-3.484,5.257-3.947,9.199
			c2.109-2.411,4.752-3.617,7.929-3.617c3.663,0,6.591,1.565,8.781,4.695c2.191,3.13,3.287,7.303,3.287,12.52
			c0,3.316-0.626,6.307-1.878,8.972c-1.252,2.667-3.008,4.736-5.269,6.208c-2.26,1.473-4.816,2.208-7.668,2.208
			c-4.591,0-8.271-1.843-11.042-5.529s-4.155-8.647-4.155-14.885v-3.651c0-5.587,0.875-10.479,2.625-14.676s4.278-7.425,7.582-9.686
			c3.304-2.26,7.158-3.402,11.563-3.425H182.76z M174.31,210.509c-1.252,0-2.302,0.397-3.147,1.189
			c-0.847,0.793-1.478,1.772-1.896,2.938v3.567c0,3.591,0.475,6.273,1.426,8.045s2.203,2.658,3.756,2.658
			c1.577,0,2.84-0.857,3.791-2.571c0.95-1.713,1.426-3.911,1.426-6.593c0-2.728-0.493-4.949-1.478-6.663
			C177.201,211.366,175.909,210.509,174.31,210.509z"/>
		<path fill="#0074A8" d="M221.259,217.186h4.312v8.103h-4.312v11.024h-9.842v-11.024h-16.762l-0.452-6.31l17.18-33.301h9.877
			V217.186z M203.766,217.186h7.651V200.25l-0.208,0.383L203.766,217.186z"/>
		<path fill="#0074A8" d="M254.818,185.157v8.346h-0.557c-3.687,0.023-6.613,1.13-8.781,3.321s-3.483,5.257-3.947,9.199
			c2.11-2.411,4.753-3.617,7.93-3.617c3.663,0,6.59,1.565,8.781,4.695c2.19,3.13,3.286,7.303,3.286,12.52
			c0,3.316-0.626,6.307-1.878,8.972c-1.252,2.667-3.008,4.736-5.269,6.208c-2.261,1.473-4.817,2.208-7.668,2.208
			c-4.59,0-8.271-1.843-11.042-5.529c-2.771-3.687-4.156-8.647-4.156-14.885v-3.651c0-5.587,0.875-10.479,2.626-14.676
			c1.75-4.196,4.277-7.425,7.581-9.686c3.304-2.26,7.158-3.402,11.563-3.425H254.818z M246.367,210.509
			c-1.252,0-2.301,0.397-3.147,1.189c-0.847,0.793-1.478,1.772-1.895,2.938v3.567c0,3.591,0.475,6.273,1.426,8.045
			c0.95,1.772,2.202,2.658,3.756,2.658c1.576,0,2.84-0.857,3.791-2.571c0.951-1.713,1.426-3.911,1.426-6.593
			c0-2.728-0.493-4.949-1.478-6.663S247.967,210.509,246.367,210.509z"/>
	</g>
	<g>
		<path fill="#0074A8" d="M160.947,269.792v4.069h-1.372v-10.145h3.881c1.082,0,1.924,0.279,2.525,0.836
			c0.602,0.558,0.902,1.292,0.902,2.202c0,0.919-0.301,1.656-0.902,2.208c-0.602,0.553-1.443,0.829-2.525,0.829H160.947z
			 M160.947,268.719h2.509c0.688,0,1.201-0.185,1.54-0.554c0.339-0.369,0.508-0.835,0.508-1.397s-0.17-1.031-0.512-1.407
			c-0.341-0.376-0.854-0.564-1.536-0.564h-2.509V268.719z"/>
		<path fill="#0074A8" d="M173.901,269.158h-4.167v3.63h4.877v1.073h-6.25v-10.145h6.174v1.08h-4.801v3.282h4.167V269.158z"/>
		<path fill="#0074A8" d="M183.698,269.695c0,1.24-0.384,2.269-1.153,3.086c-0.77,0.818-1.767,1.227-2.993,1.227
			c-1.185,0-2.147-0.409-2.888-1.227c-0.741-0.817-1.111-1.846-1.111-3.086v-1.805c0-1.236,0.37-2.265,1.111-3.087
			c0.741-0.822,1.703-1.233,2.888-1.233c1.227,0,2.224,0.41,2.993,1.23c0.769,0.82,1.153,1.85,1.153,3.09V269.695z M182.325,267.876
			c0-0.929-0.251-1.69-0.753-2.285c-0.501-0.595-1.175-0.892-2.021-0.892c-0.799,0-1.437,0.297-1.912,0.892
			c-0.477,0.595-0.715,1.356-0.715,2.285v1.819c0,0.938,0.238,1.705,0.715,2.299c0.476,0.595,1.113,0.892,1.912,0.892
			c0.851,0,1.525-0.296,2.024-0.888c0.499-0.592,0.749-1.36,0.749-2.303V267.876z"/>
		<path fill="#0074A8" d="M186.764,269.792v4.069h-1.373v-10.145h3.881c1.083,0,1.924,0.279,2.526,0.836
			c0.602,0.558,0.902,1.292,0.902,2.202c0,0.919-0.301,1.656-0.902,2.208c-0.602,0.553-1.443,0.829-2.526,0.829H186.764z
			 M186.764,268.719h2.508c0.688,0,1.201-0.185,1.54-0.554c0.339-0.369,0.508-0.835,0.508-1.397s-0.17-1.031-0.512-1.407
			c-0.342-0.376-0.854-0.564-1.537-0.564h-2.508V268.719z"/>
		<path fill="#0074A8" d="M195.55,272.788h4.947v1.073h-6.319v-10.145h1.373V272.788z"/>
		<path fill="#0074A8" d="M207.277,269.158h-4.167v3.63h4.877v1.073h-6.25v-10.145h6.173v1.08h-4.801v3.282h4.167V269.158z"/>
	</g>
	<g opacity="0.6">
		<g>
			<rect x="99.658" y="254.098" fill="#799DC4" width="167.213" height="3"/>
		</g>
	</g>
</g>
</svg>
