<?xml version="1.0" encoding="utf-8"?>
<!-- Generator: Adobe Illustrator 16.0.0, SVG Export Plug-In . SVG Version: 6.00 Build 0)  -->
<!DOCTYPE svg PUBLIC "-//W3C//DTD SVG 1.1//EN" "http://www.w3.org/Graphics/SVG/1.1/DTD/svg11.dtd">
<svg version="1.1" id="Layer_1" xmlns="http://www.w3.org/2000/svg" xmlns:xlink="http://www.w3.org/1999/xlink" x="0px" y="0px"
	 width="360px" height="190px" viewBox="0 0 360 190" enable-background="new 0 0 360 190" xml:space="preserve">
<g>
	<rect fill="#404041" width="360" height="190"/>
</g>
<g>
	<g id="building">
		<g>
			<path fill="#808184" d="M205,108h-84v-6h3v-4h79v4h2V108z M118,111v5h92v-5H118z"/>
		</g>
		<g>
			<g>
				<rect x="127.656" y="66.114" fill="#808184" width="5.612" height="33.725"/>
			</g>
			<g>
				<rect x="140.019" y="66.114" fill="#808184" width="4.498" height="33.725"/>
			</g>
			<g>
				<rect x="150.139" y="66.114" fill="#808184" width="5.621" height="33.725"/>
			</g>
			<g>
				<rect x="161.377" y="66.114" fill="#808184" width="5.621" height="33.725"/>
			</g>
			<g>
				<rect x="173.752" y="66.114" fill="#808184" width="5.615" height="33.725"/>
			</g>
			<g>
				<rect x="183.863" y="66.114" fill="#808184" width="5.622" height="33.725"/>
			</g>
			<g>
				<rect x="196.23" y="66.114" fill="#808184" width="4.497" height="33.725"/>
			</g>
		</g>
		<g>
			<path fill="#808184" d="M164.587,44.94c-2.697,0-4.889,2.187-4.889,4.89c0,2.699,2.192,4.888,4.889,4.888
				c2.7,0,4.889-2.188,4.889-4.888C169.476,47.127,167.287,44.94,164.587,44.94 M207.673,66.114h-43.028h-43.188l-2.315-5.849
				L164.645,37.5l45.375,22.727L207.673,66.114z"/>
		</g>
	</g>
    <g id="person">
	    <g>
		    <path fill="#404041" d="M220.957,101.766l-1.861-0.46c1.639-2.12,3.112-4.51,4.366-7.157c4.123-1.735,6.752-5.787,7.208-11.316
			    c0.475-5.785-1.368-9.028-3.438-10.835c-0.551-6.989-2.276-12.437-5.243-16.601c-2.988-4.592-8.861-8.254-9.524-8.657
			    c-4.7-2.868-9.355-4.323-13.836-4.323c-9.122,0-14.727,5.862-16.931,8.747c-5.018,2.492-11.314,9.116-9.675,21.432
			    c-1.851,1.927-3.239,5.081-2.819,10.244c0.438,5.275,2.913,9.253,6.776,11.102c1.28,2.727,2.806,5.204,4.521,7.39l-1.717,0.438
			    c-12.428,3.114-21.106,14.254-21.106,27.092v13.946c0,5.346,4.33,9.693,9.652,9.693h64.999c5.421,0,9.833-4.348,9.833-9.693
			    V128.86C242.162,116.037,233.447,104.896,220.957,101.766z"/>
	    </g>
	    <g>
		    <path fill="#F4777C" d="M199.764,102.82c-9.246,0-16.878-11.298-18.327-21.986c0.692-3.846,2.821-12.13,8.947-18.238
			    c4.712,5.087,13.324,10.946,27.824,10.444c0.095,1.31,0.14,2.719,0.14,4.228C218.348,88.84,210.059,102.82,199.764,102.82
			     M222.627,74.698c-0.296-7.871-2.004-13.072-4.574-16.626h0.003c-1.796-2.817-5.675-5.816-8.068-7.276
			    c-15.7-9.578-24.21,2.672-25.185,4.199c-1.451,0.514-10.43,4.475-7.833,18.453c-0.029,0.469-0.054,0.94-0.065,1.423
			    c-1.91,0.88-3.342,2.93-2.965,7.573c0.41,4.916,2.881,7.13,5.569,7.708c3.792,9.308,11.337,16.993,20.255,16.993
			    c8.9,0,16.426-7.646,20.237-16.922c2.823-0.453,5.507-2.634,5.929-7.778C226.333,77.534,224.708,75.491,222.627,74.698
			     M212.255,133.663l4.886-5.293c1.159-1.25,3.136-1.264,4.287-0.008l4.891,5.302H212.255z M219.815,106.38l-2.622-0.649
			    l-17.37,39.508l-17.361-39.501l-2.524,0.643c-10.312,2.583-17.507,11.843-17.507,22.48v13.946c0,2.75,2.154,4.94,4.898,4.94
			    h64.999c2.748,0,5.08-2.19,5.08-4.94V128.86C237.408,118.223,230.122,108.963,219.815,106.38 M199.994,138.017l5.8-14.731
			    l-2.69-2.694c1.697-0.215,2.887-1.875,2.471-3.599l-1.187-4.957c-0.322-1.324-1.497-2.265-2.854-2.265h-3.187
			    c-1.361,0-2.534,0.941-2.86,2.265l-1.186,4.953c-0.417,1.722,0.772,3.386,2.472,3.601l-2.694,2.694L199.994,138.017z"/>
	    </g>
    </g>
</g>
</svg>
