<?xml version="1.0" encoding="utf-8"?>
<!-- Generator: Adobe Illustrator 16.0.0, SVG Export Plug-In . SVG Version: 6.00 Build 0)  -->
<!DOCTYPE svg PUBLIC "-//W3C//DTD SVG 1.1//EN" "http://www.w3.org/Graphics/SVG/1.1/DTD/svg11.dtd">
<svg version="1.1" xmlns="http://www.w3.org/2000/svg" xmlns:xlink="http://www.w3.org/1999/xlink" x="0px" y="0px" width="360px"
	 height="360px" viewBox="0 0 360 360" enable-background="new 0 0 360 360" xml:space="preserve">
<g id="Layer_1">
	<g>
		<rect fill="#F6F6F6" width="360" height="360"/>
	</g>
	<g id="group-grayed">
		<g>
			<g>
				<path fill="#808184" d="M279.388,113.92c4.614,7.53,8.375,15.626,11.193,24.15l8.998-2.924
					c-3.136-9.473-7.356-18.455-12.534-26.792L279.388,113.92z"/>
			</g>
			<g>
				<path fill="#808184" d="M310.611,91.238l-7.665,5.563c6.361,10.003,11.528,20.825,15.304,32.28l8.996-2.92
					C323.149,113.756,317.536,102.044,310.611,91.238z"/>
			</g>
			<g>
				<path fill="#808184" d="M275.26,116.92l-7.682,5.584c3.753,6.282,6.836,13.004,9.177,20.062l8.994-2.923
					C283.083,131.632,279.572,124.012,275.26,116.92z"/>
			</g>
			<g>
				<path fill="#808184" d="M304.421,133.577l8.995-2.924c-3.619-10.94-8.537-21.282-14.587-30.854l-7.657,5.563
					C296.649,114.13,301.117,123.59,304.421,133.577z"/>
			</g>
			<g>
				<path fill="#808184" d="M255.742,131.097c2.909,5.029,5.317,10.369,7.179,15.96l8.991-2.921
					c-2.174-6.543-5.023-12.78-8.475-18.624L255.742,131.097z"/>
			</g>
		</g>
		<g>
			<g>
				<path fill="#808184" d="M124.594,89.103c6.645-4.327,13.821-7.897,21.411-10.59l-2.916-8.993
					c-8.538,3.011-16.612,7.033-24.061,11.923L124.594,89.103z"/>
			</g>
			<g>
				<path fill="#808184" d="M133.157,100.881c5.408-3.45,11.219-6.332,17.35-8.537l-2.928-8.99
					c-7.072,2.52-13.771,5.853-19.991,9.866L133.157,100.881z"/>
			</g>
			<g>
				<path fill="#808184" d="M98.917,53.761c10.339-6.961,21.627-12.601,33.607-16.746l-2.917-8.99
					c-12.934,4.458-25.114,10.542-36.255,18.075L98.917,53.761z"/>
			</g>
			<g>
				<path fill="#808184" d="M137.022,50.849l-2.92-8.991c-11.467,3.979-22.279,9.373-32.19,16.024l5.563,7.656
					C116.584,59.459,126.508,54.509,137.022,50.849z"/>
			</g>
			<g>
				<path fill="#808184" d="M116.03,77.318c7.884-5.199,16.431-9.46,25.481-12.642l-2.92-8.985
					c-10.003,3.491-19.441,8.2-28.123,13.971L116.03,77.318z"/>
			</g>
		</g>
		<g>
			<g>
				<path fill="#808184" d="M92.338,105.996l7.646,5.555c4.963-6.282,10.647-11.969,16.937-16.937l-5.567-7.646
					C104.28,92.523,97.885,98.913,92.338,105.996z"/>
			</g>
			<g>
				<path fill="#808184" d="M104.104,114.547l7.647,5.555c4.047-5.063,8.647-9.664,13.714-13.717l-5.561-7.651
					C114.053,103.381,108.747,108.688,104.104,114.547z"/>
			</g>
			<g>
				<path fill="#808184" d="M68.797,88.893l7.656,5.559c6.773-8.736,14.623-16.593,23.365-23.373l-5.562-7.65
					C84.721,70.801,76.167,79.358,68.797,88.893z"/>
			</g>
			<g>
				<path fill="#808184" d="M64.676,85.901C72.36,75.934,81.3,66.994,91.267,59.308l-5.561-7.65
					c-10.761,8.275-20.411,17.923-28.679,28.684L64.676,85.901z"/>
			</g>
			<g>
				<path fill="#808184" d="M80.566,97.445l7.644,5.557c5.879-7.508,12.645-14.283,20.155-20.158l-5.557-7.645
					C94.498,81.661,87.028,89.134,80.566,97.445z"/>
			</g>
		</g>
		<g>
			<g>
				<path fill="#808184" d="M83.889,140.645c2.689-7.592,6.265-14.764,10.584-21.415l-7.656-5.562
					c-4.887,7.449-8.909,15.516-11.914,24.055L83.889,140.645z"/>
			</g>
			<g>
				<path fill="#808184" d="M97.727,145.143c2.202-6.134,5.076-11.935,8.529-17.352l-7.666-5.561
					c-4.002,6.213-7.338,12.91-9.859,19.985L97.727,145.143z"/>
			</g>
			<g>
				<path fill="#808184" d="M33.406,124.242l8.987,2.924c4.141-11.981,9.776-23.271,16.733-33.611l-7.653-5.563
					C43.942,99.127,37.864,111.31,33.406,124.242z"/>
			</g>
			<g>
				<path fill="#808184" d="M56.227,131.66c3.661-10.518,8.61-20.434,14.678-29.545l-7.657-5.564
					c-6.641,9.911-12.04,20.717-16.009,32.187L56.227,131.66z"/>
			</g>
			<g>
				<path fill="#808184" d="M70.058,136.151c3.177-9.051,7.435-17.599,12.631-25.479l-7.657-5.564
					c-5.764,8.685-10.469,18.118-13.962,28.123L70.058,136.151z"/>
			</g>
		</g>
		<g>
			<g>
				<path fill="#808184" d="M78.093,173.183c0.115-8.092,1.151-15.956,3.053-23.487l-9.024-2.931
					c-2.183,8.46-3.368,17.311-3.483,26.418H78.093z"/>
			</g>
			<g>
				<path fill="#808184" d="M92.634,173.183c0.11-6.524,0.93-12.873,2.394-18.978l-9.023-2.932
					c-1.747,7.035-2.717,14.368-2.821,21.91H92.634z"/>
			</g>
			<g>
				<path fill="#808184" d="M34.459,173.183c0.12-12.788,1.906-25.18,5.139-36.985l-8.997-2.921
					C27.073,146,25.129,159.376,25,173.183H34.459z"/>
			</g>
			<g>
				<path fill="#808184" d="M39.54,173.183h9.458c0.121-11.22,1.656-22.105,4.441-32.492l-8.996-2.921
					C41.361,149.076,39.663,160.939,39.54,173.183z"/>
			</g>
			<g>
				<path fill="#808184" d="M63.541,173.183c0.122-9.656,1.394-19.034,3.739-27.992l-8.997-2.926
					c-2.629,9.886-4.074,20.245-4.194,30.918H63.541z"/>
			</g>
		</g>
		<g>
			<g>
				<path fill="#808184" d="M261.315,78.538l-5.573,7.675c6.856,5.884,13.025,12.545,18.367,19.856l7.649-5.555
					C275.833,92.4,268.968,85.024,261.315,78.538z"/>
			</g>
			<g>
				<path fill="#808184" d="M252.737,90.341l-5.569,7.673c5.644,4.96,10.742,10.521,15.18,16.602l7.647-5.557
					C264.966,102.177,259.172,95.905,252.737,90.341z"/>
			</g>
			<g>
				<path fill="#808184" d="M244.165,102.146l-5.571,7.671c4.438,4.02,8.449,8.497,11.996,13.341l7.643-5.553
					C254.11,111.955,249.39,106.776,244.165,102.146z"/>
			</g>
			<g>
				<path fill="#808184" d="M272.889,62.604c9.301,7.727,17.604,16.598,24.748,26.376l7.64-5.559
					c-7.719-10.576-16.726-20.164-26.815-28.482L272.889,62.604z"/>
			</g>
			<g>
				<path fill="#808184" d="M269.894,66.737l-5.584,7.673c8.084,6.807,15.321,14.57,21.561,23.116l7.644-5.559
					C286.69,82.625,278.757,74.141,269.894,66.737z"/>
			</g>
		</g>
		<g>
			<g>
				<path fill="#808184" d="M279.309,151.675c1.605,6.928,2.5,14.119,2.598,21.507h9.454c-0.109-8.404-1.151-16.581-3.029-24.439
					L279.309,151.675z"/>
			</g>
			<g>
				<path fill="#808184" d="M302.215,144.229l-9.021,2.934c2.026,8.361,3.156,17.068,3.262,26.02h9.451
					C305.799,163.213,304.534,153.521,302.215,144.229z"/>
			</g>
			<g>
				<path fill="#808184" d="M265.425,156.186c1.182,5.492,1.845,11.173,1.941,16.997h9.455c-0.106-6.836-0.918-13.502-2.372-19.929
					L265.425,156.186z"/>
			</g>
			<g>
				<path fill="#808184" d="M320.954,138.145c2.905,11.213,4.471,22.953,4.591,35.038H335c-0.125-13.103-1.857-25.82-5.046-37.963
					L320.954,138.145z"/>
			</g>
			<g>
				<path fill="#808184" d="M307.078,142.651c2.462,9.792,3.807,20.016,3.921,30.532h9.456c-0.115-11.533-1.604-22.747-4.348-33.461
					L307.078,142.651z"/>
			</g>
		</g>
		<g>
			<g>
				<path fill="#808184" d="M188.001,73.005c7.93,0.623,15.617,2.133,22.934,4.473l2.92-8.991
					c-8.243-2.638-16.903-4.319-25.854-4.961V73.005z"/>
			</g>
			<g>
				<path fill="#808184" d="M188.001,58.424c9.496,0.648,18.691,2.425,27.426,5.22l2.925-8.991
					c-9.667-3.096-19.836-5.043-30.351-5.708V58.424z"/>
			</g>
			<g>
				<path fill="#808184" d="M188.001,34.362v9.476c11.07,0.672,21.76,2.718,31.921,5.977l2.92-8.991
					C211.763,37.264,200.087,35.042,188.001,34.362z"/>
			</g>
			<g>
				<path fill="#808184" d="M188.001,87.594c6.369,0.579,12.542,1.837,18.444,3.712l2.915-8.985
					c-6.824-2.18-13.976-3.603-21.359-4.209V87.594z"/>
			</g>
			<g>
				<path fill="#808184" d="M188.001,29.255c12.631,0.686,24.829,3.007,36.42,6.726l2.918-8.992
					c-12.501-4.02-25.683-6.516-39.338-7.216V29.255z"/>
			</g>
		</g>
		<g>
			<g>
				<path fill="#808184" d="M219.808,80.764c7.109,3.028,13.785,6.852,19.97,11.34l5.547-7.646
					c-6.967-5.065-14.537-9.351-22.589-12.711L219.808,80.764z"/>
			</g>
			<g>
				<path fill="#808184" d="M224.315,66.898c8.563,3.536,16.608,8.065,24.007,13.443l5.549-7.647
					c-8.193-5.954-17.119-10.943-26.631-14.804L224.315,66.898z"/>
			</g>
			<g>
				<path fill="#808184" d="M215.287,94.676c5.658,2.509,10.995,5.589,15.939,9.187l5.555-7.644
					c-5.747-4.176-11.955-7.741-18.561-10.584L215.287,94.676z"/>
			</g>
			<g>
				<path fill="#808184" d="M228.813,53.04c10.028,4.037,19.43,9.275,28.047,15.541l5.557-7.646
					c-9.411-6.844-19.704-12.542-30.677-16.901L228.813,53.04z"/>
			</g>
			<g>
				<path fill="#808184" d="M236.247,30.177l-2.932,9.008c11.49,4.531,22.25,10.477,32.092,17.634l5.554-7.646
					C260.323,41.438,248.676,35.032,236.247,30.177z"/>
			</g>
		</g>
		<g>
			<g>
				<path fill="#808184" d="M155.059,75.765c7.532-1.906,15.399-2.951,23.488-3.065v-9.454c-9.112,0.118-17.966,1.308-26.424,3.494
					L155.059,75.765z"/>
			</g>
			<g>
				<path fill="#808184" d="M146.053,48.056c10.382-2.789,21.274-4.323,32.494-4.447v-9.456
					c-12.241,0.123-24.105,1.828-35.422,4.909L146.053,48.056z"/>
			</g>
			<g>
				<path fill="#808184" d="M178.546,58.154v-9.453c-10.671,0.121-21.035,1.567-30.919,4.201l2.92,8.994
					C159.513,59.554,168.892,58.275,178.546,58.154z"/>
			</g>
			<g>
				<path fill="#808184" d="M159.561,89.645c6.109-1.467,12.459-2.29,18.986-2.398v-9.454c-7.542,0.11-14.878,1.08-21.914,2.828
					L159.561,89.645z"/>
			</g>
			<g>
				<path fill="#808184" d="M141.555,34.217c11.81-3.239,24.203-5.029,36.992-5.155v-9.455c-13.807,0.126-27.184,2.078-39.915,5.611
					L141.555,34.217z"/>
			</g>
		</g>
	</g>
	<g id="person">
		<path fill="#808184" d="M197.567,148.146c0,1.216-0.564,1.929-1.659,2.248l-0.558,0.149c-1.201,0-1.955-0.546-2.256-1.674
			c-0.083-0.376-0.417-1.456-0.869-3.166c-0.52-1.73-1.066-3.528-1.667-5.433c-0.6-1.894-1.314-4.305-2.178-7.294h-1.358
			l7.876,26.637h-7.46v20.225c0,0.798-0.229,1.452-0.826,1.934c-0.532,0.493-1.168,0.729-1.963,0.729
			c-0.829,0-1.429-0.236-1.952-0.729c-0.499-0.482-0.721-1.135-0.721-1.934v-20.225h-1.358v20.225c0,0.798-0.268,1.452-0.758,1.934
			c-0.494,0.493-1.142,0.729-1.923,0.729c-0.797,0-1.482-0.236-2.005-0.729c-0.561-0.482-0.825-1.135-0.825-1.934v-20.225h-7.577
			l7.876-26.629h-1.35c-0.863,2.981-1.597,5.384-2.162,7.286c-0.51,1.905-1.083,3.703-1.578,5.433
			c-0.565,1.71-0.938,2.79-0.974,3.166c-0.345,1.128-1.094,1.674-2.264,1.674l-0.598-0.14c-1.099-0.407-1.632-1.12-1.632-2.125
			c0-0.275,0.04-0.507,0.15-0.733c0.079-0.191,0.309-0.862,0.573-1.996c0.31-1.13,0.706-2.527,1.209-4.157
			c0.49-1.653,1.02-3.441,1.578-5.363c0.573-1.934,1.086-3.788,1.734-5.581c0.374-1.372,1.205-2.626,2.488-3.704
			c1.273-1.119,2.606-1.628,3.991-1.628h9.282c1.433,0,2.828,0.509,4.07,1.628c1.204,1.09,2.083,2.332,2.566,3.704
			c0.521,1.792,1.055,3.647,1.581,5.581c0.529,1.922,1.102,3.71,1.551,5.363c0.478,1.63,0.905,3.027,1.2,4.157
			c0.299,1.134,0.49,1.805,0.604,1.996L197.567,148.146z M181.36,123.447c1.588,0,2.946-0.519,4.003-1.603
			c1.095-1.121,1.659-2.506,1.659-4.168c0-1.586-0.564-2.949-1.659-4.079c-1.045-1.158-2.415-1.725-4.003-1.725
			c-1.685,0-3.096,0.567-4.266,1.725c-1.124,1.124-1.688,2.492-1.688,4.079c0,1.662,0.564,3.047,1.695,4.168
			C178.272,122.928,179.676,123.447,181.36,123.447"/>
	</g>
	<g id="group-colored">
		<g>
			<g>
				<path fill="#0074A7" d="M83.889,140.675c2.689-7.592,6.265-14.765,10.584-21.416l-7.656-5.561
					c-4.887,7.449-8.909,15.516-11.914,24.055L83.889,140.675z"/>
			</g>
			<g>
				<path fill="#0074A7" d="M97.727,145.173c2.202-6.134,5.076-11.936,8.529-17.352l-7.666-5.561
					c-4.002,6.213-7.338,12.91-9.859,19.984L97.727,145.173z"/>
			</g>
			<g>
				<path fill="#0074A7" d="M33.406,124.272l8.987,2.924c4.141-11.982,9.776-23.271,16.733-33.611l-7.653-5.563
					C43.942,99.157,37.864,111.34,33.406,124.272z"/>
			</g>
			<g>
				<path fill="#0074A7" d="M56.227,131.689c3.661-10.517,8.61-20.433,14.678-29.545l-7.657-5.565
					c-6.641,9.911-12.04,20.718-16.009,32.187L56.227,131.689z"/>
			</g>
			<g>
				<path fill="#0074A7" d="M70.058,136.182c3.177-9.052,7.435-17.6,12.631-25.479l-7.657-5.563
					c-5.764,8.685-10.469,18.118-13.962,28.123L70.058,136.182z"/>
			</g>
		</g>
		<g>
			<g>
				<path fill="#0074A7" d="M78.093,173.212c0.115-8.092,1.151-15.955,3.053-23.487l-9.024-2.93
					c-2.183,8.46-3.368,17.31-3.483,26.417H78.093z"/>
			</g>
			<g>
				<path fill="#0074A7" d="M92.634,173.212c0.11-6.524,0.93-12.872,2.394-18.977l-9.023-2.932
					c-1.747,7.035-2.717,14.368-2.821,21.909H92.634z"/>
			</g>
			<g>
				<path fill="#0074A7" d="M34.459,173.212c0.12-12.787,1.906-25.179,5.139-36.985l-8.997-2.922
					c-3.528,12.725-5.472,26.101-5.601,39.907H34.459z"/>
			</g>
			<g>
				<path fill="#0074A7" d="M39.54,173.212h9.458c0.121-11.219,1.656-22.104,4.441-32.492l-8.996-2.921
					C41.361,149.106,39.663,160.969,39.54,173.212z"/>
			</g>
			<g>
				<path fill="#0074A7" d="M63.541,173.212c0.122-9.656,1.394-19.033,3.739-27.992l-8.997-2.925
					c-2.629,9.886-4.074,20.244-4.194,30.917H63.541z"/>
			</g>
		</g>
		<g>
			<path fill="#0074A7" d="M111.689,106.083c-2.69,2.684-5.227,5.514-7.585,8.493l7.647,5.555c1.87-2.336,3.872-4.564,5.971-6.697
				L111.689,106.083z"/>
		</g>
	</g>
</g>
<g id="Layer_2">
	<g>
		<g id="country-name">
			<path fill="#799DC4" d="M145.39,332.285h-7.492l-1.777,5.127h-2.748l7.178-19.906h2.311l7.027,19.906h-2.748L145.39,332.285z
				 M138.677,330.029h5.947l-2.898-8.545h-0.082L138.677,330.029z"/>
			<path fill="#799DC4" d="M155.356,337.412h-2.693v-21.328h2.693V337.412z"/>
			<path fill="#799DC4" d="M172.132,330.576c0,2.133-0.513,3.854-1.538,5.161c-1.025,1.308-2.436,1.962-4.231,1.962
				c-0.984,0-1.839-0.194-2.563-0.581s-1.324-0.959-1.798-1.716l-0.438,2.01h-2.064v-21.328h2.693v8.285
				c0.465-0.656,1.041-1.157,1.729-1.504c0.688-0.346,1.492-0.52,2.413-0.52c1.823,0,3.245,0.729,4.266,2.188
				c1.021,1.458,1.531,3.377,1.531,5.756V330.576z M169.438,330.289c0-1.695-0.313-3.078-0.937-4.149
				c-0.625-1.071-1.575-1.606-2.851-1.606c-0.83,0-1.529,0.203-2.099,0.608c-0.57,0.406-1.023,0.95-1.36,1.634v6.412
				c0.346,0.729,0.8,1.299,1.36,1.709s1.269,0.615,2.126,0.615c1.267,0,2.21-0.451,2.83-1.354c0.62-0.902,0.93-2.096,0.93-3.582
				V330.289z"/>
			<path fill="#799DC4" d="M184.505,337.412c-0.091-0.446-0.162-0.841-0.212-1.183c-0.05-0.342-0.08-0.686-0.089-1.032
				c-0.501,0.711-1.155,1.306-1.962,1.784s-1.675,0.718-2.604,0.718c-1.541,0-2.714-0.394-3.521-1.183
				c-0.807-0.788-1.21-1.875-1.21-3.261c0-1.413,0.572-2.518,1.716-3.315c1.144-0.797,2.695-1.196,4.655-1.196h2.926v-1.463
				c0-0.866-0.265-1.552-0.793-2.058c-0.529-0.506-1.276-0.759-2.242-0.759c-0.875,0-1.582,0.219-2.119,0.656
				c-0.538,0.438-0.807,0.962-0.807,1.572l-2.557,0.027l-0.027-0.082c-0.064-1.075,0.439-2.06,1.511-2.953
				c1.071-0.893,2.454-1.34,4.149-1.34c1.677,0,3.026,0.426,4.047,1.278c1.021,0.853,1.531,2.081,1.531,3.685v7.123
				c0,0.529,0.027,1.039,0.082,1.531s0.155,0.976,0.301,1.449H184.505z M180.034,335.443c0.975,0,1.854-0.25,2.639-0.752
				c0.784-0.501,1.294-1.075,1.531-1.723v-2.406h-3.021c-1.085,0-1.953,0.273-2.604,0.82c-0.652,0.547-0.978,1.189-0.978,1.928
				c0,0.656,0.205,1.176,0.615,1.559S179.232,335.443,180.034,335.443z"/>
			<path fill="#799DC4" d="M193.214,322.619l0.191,2.201c0.492-0.784,1.109-1.392,1.853-1.825c0.743-0.433,1.588-0.649,2.536-0.649
				c1.595,0,2.83,0.467,3.705,1.401c0.875,0.935,1.313,2.377,1.313,4.327v9.338h-2.693v-9.283c0-1.303-0.258-2.229-0.772-2.775
				c-0.515-0.547-1.301-0.82-2.358-0.82c-0.83,0-1.534,0.167-2.112,0.499c-0.579,0.333-1.037,0.8-1.374,1.401v10.979h-2.693v-14.793
				H193.214z"/>
			<path fill="#799DC4" d="M209.634,318.832h-2.693v-2.748h2.693V318.832z M209.634,337.412h-2.693v-14.793h2.693V337.412z"/>
			<path fill="#799DC4" d="M222.868,337.412c-0.091-0.446-0.162-0.841-0.212-1.183c-0.05-0.342-0.08-0.686-0.089-1.032
				c-0.501,0.711-1.155,1.306-1.962,1.784s-1.675,0.718-2.604,0.718c-1.541,0-2.714-0.394-3.521-1.183
				c-0.807-0.788-1.21-1.875-1.21-3.261c0-1.413,0.572-2.518,1.716-3.315c1.144-0.797,2.695-1.196,4.655-1.196h2.926v-1.463
				c0-0.866-0.265-1.552-0.793-2.058c-0.529-0.506-1.276-0.759-2.242-0.759c-0.875,0-1.582,0.219-2.119,0.656
				c-0.538,0.438-0.807,0.962-0.807,1.572l-2.557,0.027l-0.027-0.082c-0.064-1.075,0.439-2.06,1.511-2.953
				c1.071-0.893,2.454-1.34,4.149-1.34c1.677,0,3.026,0.426,4.047,1.278c1.021,0.853,1.531,2.081,1.531,3.685v7.123
				c0,0.529,0.027,1.039,0.082,1.531s0.155,0.976,0.301,1.449H222.868z M218.397,335.443c0.975,0,1.854-0.25,2.639-0.752
				c0.784-0.501,1.294-1.075,1.531-1.723v-2.406h-3.021c-1.085,0-1.953,0.273-2.604,0.82c-0.652,0.547-0.978,1.189-0.978,1.928
				c0,0.656,0.205,1.176,0.615,1.559S217.595,335.443,218.397,335.443z"/>
		</g>
		<g id="country-small-text">
			<path fill="#A7A9AC" d="M110.446,298.261l0.208,1.585l0.05,0.009l0.282-1.594l2.142-7.895h1.602l2.158,7.895l0.282,1.618h0.05
				l0.224-1.618l1.727-7.895h1.776l-2.922,12.086h-1.461l-2.416-8.384l-0.183-1.087h-0.05l-0.174,1.087l-2.449,8.384h-1.461
				l-2.914-12.086h1.768L110.446,298.261z"/>
			<path fill="#A7A9AC" d="M120.943,297.878c0-1.328,0.36-2.422,1.079-3.282s1.696-1.291,2.93-1.291
				c1.245,0,2.229,0.429,2.951,1.286c0.722,0.858,1.083,1.954,1.083,3.287v0.184c0,1.339-0.36,2.435-1.079,3.287
				c-0.719,0.852-1.699,1.277-2.938,1.277s-2.221-0.427-2.942-1.282c-0.723-0.854-1.083-1.949-1.083-3.282V297.878z
				 M122.578,298.062c0,0.951,0.201,1.737,0.602,2.357c0.401,0.619,0.998,0.93,1.789,0.93c0.78,0,1.373-0.311,1.776-0.93
				c0.404-0.62,0.606-1.406,0.606-2.357v-0.184c0-0.94-0.204-1.724-0.61-2.349c-0.407-0.625-1.003-0.938-1.789-0.938
				c-0.78,0-1.371,0.313-1.772,0.938c-0.401,0.625-0.602,1.408-0.602,2.349V298.062z"/>
			<path fill="#A7A9AC" d="M131.598,293.471l0.116,1.179c0.293-0.426,0.666-0.757,1.117-0.992c0.451-0.235,0.975-0.353,1.573-0.353
				s1.111,0.139,1.54,0.415c0.429,0.276,0.751,0.691,0.967,1.245c0.288-0.515,0.663-0.92,1.125-1.216
				c0.462-0.296,1.003-0.444,1.623-0.444c0.913,0,1.635,0.314,2.167,0.942s0.797,1.572,0.797,2.834v5.371h-1.635v-5.387
				c0-0.886-0.152-1.513-0.457-1.881s-0.758-0.552-1.361-0.552c-0.559,0-1.011,0.193-1.357,0.581
				c-0.346,0.388-0.549,0.877-0.61,1.469v0.066v5.703h-1.644v-5.387c0-0.842-0.156-1.457-0.469-1.848
				c-0.313-0.39-0.763-0.585-1.349-0.585c-0.498,0-0.908,0.103-1.229,0.308c-0.321,0.204-0.567,0.492-0.739,0.863v6.648h-1.635
				v-8.981H131.598z"/>
			<path fill="#A7A9AC" d="M147.864,302.626c-1.29,0-2.295-0.412-3.017-1.236c-0.723-0.824-1.083-1.909-1.083-3.254v-0.365
				c0-1.289,0.372-2.356,1.117-3.2c0.744-0.844,1.653-1.266,2.727-1.266c1.201,0,2.102,0.374,2.702,1.12
				c0.6,0.748,0.9,1.741,0.9,2.98v0.863h-5.744l-0.025,0.041c0,0.902,0.199,1.635,0.598,2.196s1.007,0.843,1.826,0.843
				c0.553,0,1.039-0.079,1.457-0.237c0.418-0.157,0.776-0.375,1.075-0.651l0.639,1.063c-0.321,0.31-0.744,0.571-1.27,0.784
				S148.606,302.626,147.864,302.626z M147.607,294.591c-0.57,0-1.042,0.221-1.415,0.66c-0.374,0.44-0.602,1.003-0.685,1.689
				l0.017,0.041h4.051v-0.133c0-0.652-0.161-1.192-0.481-1.618S148.276,294.591,147.607,294.591z"/>
			<path fill="#A7A9AC" d="M153.655,293.471l0.116,1.337c0.299-0.477,0.674-0.846,1.125-1.108c0.451-0.263,0.964-0.395,1.54-0.395
				c0.968,0,1.718,0.283,2.25,0.851s0.797,1.443,0.797,2.627v5.67h-1.635v-5.637c0-0.791-0.156-1.353-0.469-1.685
				c-0.313-0.332-0.79-0.498-1.432-0.498c-0.503,0-0.931,0.101-1.283,0.303c-0.351,0.202-0.629,0.485-0.834,0.851v6.666h-1.635
				v-8.981H153.655z"/>
			<path fill="#A7A9AC" d="M166.149,291.171h-1.635v-1.668h1.635V291.171z M166.149,302.452h-1.635v-8.981h1.635V302.452z"/>
			<path fill="#A7A9AC" d="M169.275,293.471l0.116,1.337c0.299-0.477,0.674-0.846,1.125-1.108c0.451-0.263,0.964-0.395,1.54-0.395
				c0.968,0,1.718,0.283,2.25,0.851s0.797,1.443,0.797,2.627v5.67h-1.635v-5.637c0-0.791-0.156-1.353-0.469-1.685
				c-0.313-0.332-0.79-0.498-1.432-0.498c-0.503,0-0.931,0.101-1.283,0.303c-0.351,0.202-0.629,0.485-0.834,0.851v6.666h-1.635
				v-8.981H169.275z"/>
			<path fill="#A7A9AC" d="M181.861,297.604v4.848h-1.635v-12.086h4.624c1.29,0,2.292,0.332,3.009,0.996
				c0.716,0.664,1.075,1.538,1.075,2.623c0,1.096-0.358,1.973-1.075,2.631c-0.717,0.659-1.72,0.988-3.009,0.988H181.861z
				 M181.861,296.326h2.988c0.819,0,1.431-0.22,1.834-0.66c0.404-0.439,0.606-0.994,0.606-1.664s-0.204-1.229-0.61-1.677
				c-0.407-0.448-1.017-0.672-1.831-0.672h-2.988V296.326z"/>
			<path fill="#A7A9AC" d="M195.388,302.452c-0.055-0.271-0.098-0.511-0.129-0.718c-0.03-0.208-0.048-0.417-0.054-0.627
				c-0.304,0.432-0.701,0.793-1.191,1.083c-0.489,0.291-1.017,0.436-1.581,0.436c-0.935,0-1.647-0.239-2.138-0.718
				c-0.489-0.479-0.734-1.139-0.734-1.979c0-0.857,0.347-1.528,1.042-2.013c0.694-0.484,1.636-0.727,2.826-0.727h1.776v-0.888
				c0-0.526-0.161-0.942-0.481-1.25c-0.321-0.307-0.775-0.461-1.361-0.461c-0.531,0-0.96,0.133-1.287,0.398s-0.49,0.584-0.49,0.955
				l-1.552,0.017l-0.017-0.05c-0.039-0.653,0.267-1.251,0.917-1.793c0.65-0.542,1.49-0.813,2.519-0.813
				c1.018,0,1.837,0.259,2.457,0.776s0.93,1.263,0.93,2.236v4.325c0,0.321,0.017,0.631,0.05,0.93s0.094,0.592,0.183,0.88H195.388z
				 M192.673,301.257c0.592,0,1.126-0.152,1.602-0.457c0.476-0.304,0.786-0.652,0.93-1.045v-1.461h-1.834
				c-0.659,0-1.186,0.166-1.582,0.498c-0.396,0.332-0.593,0.722-0.593,1.17c0,0.398,0.125,0.714,0.374,0.946
				S192.187,301.257,192.673,301.257z"/>
			<path fill="#A7A9AC" d="M202.614,294.915l-0.838-0.05c-0.432,0-0.795,0.103-1.092,0.308c-0.296,0.204-0.524,0.492-0.685,0.863
				v6.416h-1.635v-8.981h1.461l0.158,1.312c0.254-0.465,0.568-0.827,0.942-1.088c0.373-0.26,0.804-0.39,1.291-0.39
				c0.122,0,0.238,0.01,0.349,0.029s0.202,0.04,0.274,0.062L202.614,294.915z"/>
			<path fill="#A7A9AC" d="M205.234,302.452h-1.635v-12.949h1.635V302.452z"/>
			<path fill="#A7A9AC" d="M208.667,291.171h-1.635v-1.668h1.635V291.171z M208.667,302.452h-1.635v-8.981h1.635V302.452z"/>
			<path fill="#A7A9AC" d="M215.853,302.452c-0.055-0.271-0.098-0.511-0.129-0.718c-0.03-0.208-0.048-0.417-0.054-0.627
				c-0.304,0.432-0.701,0.793-1.191,1.083c-0.489,0.291-1.017,0.436-1.581,0.436c-0.935,0-1.647-0.239-2.138-0.718
				c-0.489-0.479-0.734-1.139-0.734-1.979c0-0.857,0.347-1.528,1.042-2.013c0.694-0.484,1.636-0.727,2.826-0.727h1.776v-0.888
				c0-0.526-0.161-0.942-0.481-1.25c-0.321-0.307-0.775-0.461-1.361-0.461c-0.531,0-0.96,0.133-1.287,0.398s-0.49,0.584-0.49,0.955
				l-1.552,0.017l-0.017-0.05c-0.039-0.653,0.267-1.251,0.917-1.793c0.65-0.542,1.49-0.813,2.519-0.813
				c1.018,0,1.837,0.259,2.457,0.776s0.93,1.263,0.93,2.236v4.325c0,0.321,0.017,0.631,0.05,0.93s0.094,0.592,0.183,0.88H215.853z
				 M213.138,301.257c0.592,0,1.126-0.152,1.602-0.457c0.476-0.304,0.786-0.652,0.93-1.045v-1.461h-1.834
				c-0.659,0-1.186,0.166-1.582,0.498c-0.396,0.332-0.593,0.722-0.593,1.17c0,0.398,0.125,0.714,0.374,0.946
				S212.651,301.257,213.138,301.257z"/>
			<path fill="#A7A9AC" d="M220.29,293.471l0.116,1.179c0.293-0.426,0.666-0.757,1.117-0.992c0.451-0.235,0.975-0.353,1.573-0.353
				s1.111,0.139,1.54,0.415c0.429,0.276,0.751,0.691,0.967,1.245c0.288-0.515,0.663-0.92,1.125-1.216
				c0.462-0.296,1.003-0.444,1.623-0.444c0.913,0,1.635,0.314,2.167,0.942s0.797,1.572,0.797,2.834v5.371h-1.635v-5.387
				c0-0.886-0.152-1.513-0.457-1.881s-0.758-0.552-1.361-0.552c-0.559,0-1.011,0.193-1.357,0.581
				c-0.346,0.388-0.549,0.877-0.61,1.469v0.066v5.703h-1.644v-5.387c0-0.842-0.156-1.457-0.469-1.848
				c-0.313-0.39-0.763-0.585-1.349-0.585c-0.498,0-0.908,0.103-1.229,0.308c-0.321,0.204-0.567,0.492-0.739,0.863v6.648h-1.635
				v-8.981H220.29z"/>
			<path fill="#A7A9AC" d="M236.556,302.626c-1.29,0-2.295-0.412-3.017-1.236c-0.723-0.824-1.083-1.909-1.083-3.254v-0.365
				c0-1.289,0.372-2.356,1.117-3.2c0.744-0.844,1.653-1.266,2.727-1.266c1.201,0,2.102,0.374,2.702,1.12
				c0.6,0.748,0.9,1.741,0.9,2.98v0.863h-5.744l-0.025,0.041c0,0.902,0.199,1.635,0.598,2.196s1.007,0.843,1.826,0.843
				c0.553,0,1.039-0.079,1.457-0.237c0.418-0.157,0.776-0.375,1.075-0.651l0.639,1.063c-0.321,0.31-0.744,0.571-1.27,0.784
				S237.298,302.626,236.556,302.626z M236.299,294.591c-0.57,0-1.042,0.221-1.415,0.66c-0.374,0.44-0.602,1.003-0.685,1.689
				l0.017,0.041h4.051v-0.133c0-0.652-0.161-1.192-0.481-1.618S236.968,294.591,236.299,294.591z"/>
			<path fill="#A7A9AC" d="M242.347,293.471l0.116,1.337c0.299-0.477,0.674-0.846,1.125-1.108c0.451-0.263,0.964-0.395,1.54-0.395
				c0.968,0,1.718,0.283,2.25,0.851s0.797,1.443,0.797,2.627v5.67h-1.635v-5.637c0-0.791-0.156-1.353-0.469-1.685
				c-0.313-0.332-0.79-0.498-1.432-0.498c-0.503,0-0.931,0.101-1.283,0.303c-0.351,0.202-0.629,0.485-0.834,0.851v6.666h-1.635
				v-8.981H242.347z"/>
			<path fill="#A7A9AC" d="M251.973,291.304v2.167h1.702v1.212h-1.702v5.453c0,0.421,0.087,0.717,0.261,0.889
				c0.175,0.172,0.406,0.258,0.693,0.258c0.094,0,0.199-0.013,0.315-0.038c0.116-0.024,0.213-0.051,0.291-0.079l0.224,1.121
				c-0.122,0.1-0.302,0.182-0.54,0.245s-0.473,0.095-0.706,0.095c-0.664,0-1.192-0.2-1.585-0.602s-0.589-1.03-0.589-1.889v-5.453
				h-1.428v-1.212h1.428v-2.167H251.973z"/>
		</g>
	</g>
	<g>
		<g id="data-middle-icon">
			<g>
				<g>
					<polygon fill="#66ABCB" points="162.377,248.373 152.976,240.669 152.976,242.419 160.242,248.373 152.976,254.329 
						152.976,256.083 162.128,248.583 162.128,248.579 					"/>
				</g>
			</g>
			<g>
				<rect x="147.589" y="247.522" fill="#66ABCB" width="13.029" height="1.524"/>
			</g>
		</g>
        <g id="data-left">
            <g>
            <path fill="#0074A8" d="M68.306,237.631h-13.52v-3.125l6.208-7.921c0.788-1.097,1.368-2.059,1.741-2.886
				c0.373-0.828,0.559-1.621,0.559-2.38c0-1.022-0.176-1.824-0.528-2.404c-0.352-0.58-0.859-0.87-1.521-0.87
				c-0.725,0-1.3,0.339-1.725,1.017c-0.426,0.678-0.639,1.631-0.639,2.859h-4.475c0-1.408,0.292-2.694,0.875-3.86
				s1.402-2.072,2.458-2.718s2.25-0.969,3.584-0.969c2.049,0,3.638,0.565,4.767,1.694c1.129,1.129,1.694,2.734,1.694,4.813
				c0,1.292-0.313,2.603-0.938,3.932c-0.625,1.329-1.757,2.969-3.396,4.921l-2.947,4.226h7.8V237.631z" />
            <path fill="#0074A8" d="M82.828,228.145c0,3.173-0.575,5.599-1.725,7.28c-1.15,1.681-2.792,2.521-4.924,2.521
				c-2.111,0-3.742-0.816-4.893-2.45c-1.15-1.633-1.747-3.973-1.789-7.02v-4.333c0-3.162,0.572-5.581,1.718-7.256
				c1.145-1.676,2.789-2.514,4.932-2.514c2.143,0,3.787,0.83,4.932,2.49c1.145,1.66,1.728,4.029,1.749,7.106V228.145z
				 M78.353,223.486c0-1.814-0.179-3.174-0.536-4.081c-0.357-0.907-0.914-1.36-1.67-1.36c-1.418,0-2.153,1.661-2.206,4.983v5.742
				c0,1.856,0.182,3.238,0.544,4.145c0.362,0.907,0.927,1.36,1.694,1.36c0.725,0,1.263-0.424,1.615-1.273
				c0.352-0.849,0.538-2.148,0.559-3.899V223.486z" />
            <path fill="#0074A8" d="M84.696,235.362c0-0.714,0.239-1.302,0.717-1.765s1.1-0.693,1.867-0.693c0.746,0,1.365,0.229,1.859,0.686
				c0.494,0.457,0.741,1.048,0.741,1.772c0,0.735-0.25,1.326-0.749,1.772c-0.499,0.447-1.116,0.67-1.851,0.67
				c-0.746,0-1.363-0.226-1.852-0.678C84.94,236.675,84.696,236.086,84.696,235.362z" />
            <path fill="#0074A8" d="M105.442,217.235l-7.249,20.396h-4.711l7.28-19.271h-9.202v-3.671h13.882V217.235z" />
            <path fill="#0074A8" d="M106.728,219.101c0-1.397,0.386-2.537,1.158-3.419s1.814-1.324,3.128-1.324
				c1.313,0,2.361,0.434,3.144,1.3c0.782,0.866,1.174,2.035,1.174,3.506v1.15c0,1.418-0.389,2.558-1.166,3.419
				c-0.777,0.862-1.817,1.292-3.12,1.292c-1.292,0-2.335-0.43-3.128-1.292c-0.793-0.861-1.19-2.033-1.19-3.514V219.101z
				 M109.627,220.313c0,0.63,0.134,1.132,0.402,1.505c0.268,0.373,0.606,0.56,1.017,0.56c0.42,0,0.753-0.194,1-0.583
				c0.247-0.389,0.371-0.898,0.371-1.528v-1.166c0-0.609-0.126-1.111-0.378-1.505c-0.252-0.394-0.593-0.591-1.024-0.591
				c-0.42,0-0.756,0.197-1.008,0.591c-0.252,0.394-0.378,0.911-0.378,1.552V220.313z M111.849,235.913l-2.111-1.197l9.407-17.932
				l2.127,1.197L111.849,235.913z M115.773,232.005c0-1.418,0.394-2.561,1.182-3.427c0.788-0.866,1.828-1.3,3.12-1.3
				c1.303,0,2.348,0.428,3.136,1.284c0.788,0.856,1.182,2.03,1.182,3.522v1.15c0,1.408-0.384,2.545-1.15,3.412
				c-0.767,0.867-1.812,1.3-3.136,1.3c-1.334,0-2.39-0.436-3.167-1.308c-0.778-0.872-1.166-2.027-1.166-3.467V232.005z
				 M118.688,233.234c0,0.589,0.139,1.083,0.417,1.481c0.278,0.399,0.612,0.599,1,0.599c0.872,0,1.329-0.625,1.371-1.875v-1.434
				c0-0.62-0.129-1.121-0.386-1.504c-0.258-0.384-0.596-0.575-1.017-0.575c-0.924,0-1.386,0.803-1.386,2.411V233.234z" />
		</g>
            <g>
            <path fill="#404041" d="M72.37,265.568h-1.3v-9.56h1.3V265.568z" />
            <path fill="#404041" d="M81.699,265.568h-1.293l-4.603-7.301l-0.04,0.013v7.288h-1.293v-9.56h1.293l4.603,7.294l0.04-0.013
				v-7.281h1.293V265.568z" />
            <path fill="#404041" d="M92.546,265.568h-5.935v-0.886l3-3.578c0.534-0.648,0.896-1.163,1.087-1.546
				c0.19-0.383,0.285-0.769,0.285-1.159c0-0.442-0.129-0.804-0.387-1.087c-0.258-0.282-0.615-0.423-1.07-0.423
				c-0.564,0-0.995,0.173-1.29,0.519c-0.295,0.346-0.443,0.777-0.443,1.293h-1.248l-0.013-0.039
				c-0.022-0.779,0.238-1.439,0.781-1.979c0.542-0.541,1.28-0.811,2.212-0.811c0.854,0,1.525,0.236,2.016,0.709
				s0.735,1.083,0.735,1.832c0,0.503-0.139,0.996-0.417,1.477s-0.701,1.085-1.27,1.812l-2.41,2.823l0.013,0.033h4.353V265.568z" />
            <path fill="#404041" d="M99.755,262.194c0,1.081-0.275,1.937-0.824,2.567c-0.55,0.63-1.288,0.945-2.216,0.945
				c-0.924,0-1.663-0.315-2.216-0.945s-0.831-1.486-0.831-2.567v-2.81c0-1.072,0.275-1.926,0.824-2.561s1.286-0.952,2.209-0.952
				c0.928,0,1.669,0.317,2.223,0.952s0.831,1.488,0.831,2.561V262.194z M98.462,259.114c0-0.687-0.153-1.229-0.459-1.628
				c-0.307-0.398-0.74-0.598-1.3-0.598c-0.556,0-0.984,0.199-1.287,0.598s-0.453,0.941-0.453,1.628v3.342
				c0,0.687,0.154,1.232,0.463,1.635c0.309,0.402,0.739,0.604,1.291,0.604c0.56,0,0.991-0.2,1.293-0.601
				c0.302-0.4,0.453-0.946,0.453-1.638V259.114z" />
            <path fill="#404041" d="M104.89,265.568h-1.3v-8.364l-2.081,0.02v-0.998l3.381-0.354V265.568z" />
            <path fill="#404041" d="M108.678,261.32l0.552-5.312h4.786v1.149h-3.696l-0.309,2.75c0.206-0.153,0.433-0.279,0.683-0.377
				c0.25-0.098,0.534-0.15,0.854-0.154c0.884-0.009,1.577,0.268,2.078,0.831c0.501,0.563,0.751,1.334,0.751,2.314
				c0,0.958-0.257,1.729-0.771,2.311c-0.515,0.582-1.264,0.873-2.249,0.873c-0.81,0-1.484-0.221-2.022-0.663
				c-0.539-0.442-0.797-1.092-0.775-1.95l0.013-0.04h1.169c0,0.521,0.149,0.925,0.45,1.211c0.299,0.287,0.688,0.43,1.165,0.43
				c0.547,0,0.972-0.193,1.274-0.578c0.302-0.385,0.453-0.913,0.453-1.582c0-0.608-0.152-1.101-0.457-1.477
				s-0.728-0.565-1.271-0.565c-0.508,0-0.875,0.077-1.103,0.23s-0.396,0.39-0.505,0.709L108.678,261.32z" />
		</g>
            <g opacity="0.6">
            <g>
            <rect x="53.289" y="246.245" fill="#66ABCB" width="68.891" height="3" />
			</g>
		</g>
        </g>
        <g id="data-right">
            <g>
            <path fill="#404041" d="M178.417,265.571h-1.3v-9.56h1.3V265.571z" />
            <path fill="#404041" d="M187.746,265.571h-1.293l-4.603-7.301l-0.04,0.013v7.288h-1.293v-9.56h1.293l4.603,7.294l0.04-0.013
				v-7.281h1.293V265.571z" />
            <path fill="#404041" d="M196.538,262.511l0.013,0.04c0.018,0.897-0.298,1.648-0.945,2.252c-0.648,0.604-1.503,0.906-2.567,0.906
				c-1.081,0-1.962-0.383-2.643-1.149c-0.681-0.766-1.021-1.737-1.021-2.915v-1.7c0-1.178,0.34-2.15,1.021-2.918
				s1.562-1.152,2.643-1.152s1.941,0.288,2.581,0.863c0.639,0.576,0.95,1.338,0.932,2.288l-0.013,0.04h-1.241
				c0-0.67-0.197-1.199-0.591-1.589s-0.95-0.584-1.668-0.584c-0.722,0-1.297,0.291-1.727,0.874
				c-0.429,0.582-0.644,1.304-0.644,2.167v1.713c0,0.871,0.215,1.598,0.644,2.18c0.429,0.583,1.005,0.874,1.727,0.874
				c0.718,0,1.274-0.194,1.668-0.581c0.394-0.388,0.591-0.922,0.591-1.605H196.538z" />
            <path fill="#404041" d="M199.256,261.428v4.143h-1.293v-9.553h3.27c1.046,0,1.845,0.232,2.396,0.696
				c0.551,0.464,0.827,1.138,0.827,2.022c0,0.49-0.128,0.917-0.384,1.28c-0.256,0.363-0.629,0.652-1.12,0.866
				c0.525,0.171,0.903,0.448,1.132,0.831c0.23,0.383,0.345,0.857,0.345,1.421v0.9c0,0.297,0.033,0.564,0.099,0.801
				s0.18,0.429,0.341,0.578v0.158h-1.333c-0.171-0.149-0.28-0.368-0.329-0.657c-0.048-0.289-0.072-0.586-0.072-0.893v-0.874
				c0-0.516-0.151-0.932-0.453-1.247c-0.302-0.315-0.707-0.473-1.215-0.473H199.256z M199.256,260.41h1.845
				c0.731,0,1.257-0.139,1.579-0.417c0.322-0.278,0.482-0.702,0.482-1.271c0-0.539-0.157-0.956-0.469-1.251
				c-0.313-0.295-0.8-0.443-1.461-0.443h-1.976V260.41z" />
            <path fill="#404041" d="M211.468,261.139h-3.926v3.42h4.596v1.011h-5.889v-9.56h5.817v1.018h-4.523v3.092h3.926V261.139z" />
            <path fill="#404041" d="M218.336,263.109h-3.598l-0.854,2.462h-1.32l3.447-9.56h1.109l3.375,9.56h-1.32L218.336,263.109z
				 M215.112,262.025h2.856l-1.392-4.104h-0.039L215.112,262.025z" />
            <path fill="#404041" d="M226.727,263.161c0-0.433-0.155-0.796-0.466-1.09c-0.311-0.293-0.858-0.542-1.642-0.749
				c-0.972-0.241-1.729-0.595-2.275-1.063c-0.545-0.468-0.817-1.057-0.817-1.766c0-0.749,0.293-1.372,0.88-1.871
				s1.348-0.749,2.285-0.749c1.007,0,1.809,0.286,2.406,0.857s0.888,1.237,0.87,1.999l-0.02,0.04h-1.234
				c0-0.543-0.189-0.992-0.568-1.346c-0.378-0.354-0.863-0.532-1.454-0.532c-0.604,0-1.067,0.147-1.389,0.44
				c-0.321,0.293-0.482,0.674-0.482,1.143c0,0.416,0.176,0.763,0.528,1.041c0.353,0.278,0.925,0.522,1.717,0.732
				c0.963,0.25,1.696,0.617,2.2,1.103s0.755,1.085,0.755,1.799c0,0.771-0.304,1.39-0.91,1.858s-1.397,0.702-2.374,0.702
				c-0.923,0-1.739-0.258-2.445-0.774c-0.707-0.517-1.05-1.208-1.027-2.075l0.013-0.04h1.234c0,0.6,0.228,1.063,0.683,1.389
				s0.97,0.489,1.543,0.489c0.613,0,1.098-0.138,1.454-0.414C226.548,264.008,226.727,263.634,226.727,263.161z" />
            <path fill="#404041" d="M234.803,261.139h-3.926v3.42h4.596v1.011h-5.89v-9.56h5.817v1.018h-4.524v3.092h3.926V261.139z" />
            <path fill="#404041" d="M245.131,261.343H241.1v4.228h-1.293v-9.56h5.994v1.018H241.1v3.296h4.031V261.343z" />
            <path fill="#404041" d="M248.25,261.428v4.143h-1.293v-9.553h3.27c1.046,0,1.845,0.232,2.396,0.696
				c0.552,0.464,0.827,1.138,0.827,2.022c0,0.49-0.128,0.917-0.384,1.28s-0.629,0.652-1.119,0.866
				c0.525,0.171,0.902,0.448,1.132,0.831c0.23,0.383,0.345,0.857,0.345,1.421v0.9c0,0.297,0.033,0.564,0.098,0.801
				c0.066,0.236,0.18,0.429,0.342,0.578v0.158h-1.333c-0.171-0.149-0.28-0.368-0.328-0.657c-0.048-0.289-0.072-0.586-0.072-0.893
				v-0.874c0-0.516-0.151-0.932-0.453-1.247c-0.302-0.315-0.707-0.473-1.215-0.473H248.25z M248.25,260.41h1.845
				c0.73,0,1.257-0.139,1.579-0.417c0.321-0.278,0.482-0.702,0.482-1.271c0-0.539-0.157-0.956-0.47-1.251
				c-0.313-0.295-0.8-0.443-1.461-0.443h-1.976V260.41z" />
            <path fill="#404041" d="M262.543,261.645c0,1.169-0.362,2.138-1.087,2.909c-0.724,0.771-1.664,1.155-2.819,1.155
				c-1.116,0-2.023-0.385-2.722-1.155s-1.047-1.74-1.047-2.909v-1.7c0-1.165,0.349-2.134,1.047-2.909s1.605-1.162,2.722-1.162
				c1.155,0,2.095,0.386,2.819,1.159c0.725,0.773,1.087,1.743,1.087,2.912V261.645z M261.25,259.931
				c0-0.875-0.236-1.593-0.709-2.154c-0.473-0.56-1.107-0.84-1.904-0.84c-0.753,0-1.354,0.28-1.803,0.84
				c-0.448,0.561-0.673,1.278-0.673,2.154v1.713c0,0.884,0.225,1.606,0.673,2.167c0.449,0.561,1.05,0.841,1.803,0.841
				c0.801,0,1.437-0.279,1.907-0.837c0.47-0.558,0.706-1.281,0.706-2.17V259.931z" />
            <path fill="#404041" d="M268.879,263.778h0.039l3.053-7.767h1.609v9.56h-1.294v-7.163l-0.039-0.006l-2.896,7.169h-0.899
				l-2.98-7.406l-0.04,0.006v7.399h-1.293v-9.56h1.7L268.879,263.778z" />
            <path fill="#404041" d="M284.426,265.571h-5.935v-0.886l3-3.578c0.534-0.648,0.896-1.163,1.086-1.546
				c0.19-0.383,0.286-0.769,0.286-1.159c0-0.442-0.129-0.804-0.387-1.087c-0.259-0.282-0.615-0.423-1.07-0.423
				c-0.564,0-0.995,0.173-1.29,0.519c-0.295,0.346-0.443,0.777-0.443,1.293h-1.247l-0.014-0.039
				c-0.021-0.779,0.239-1.439,0.781-1.979c0.543-0.541,1.28-0.811,2.213-0.811c0.854,0,1.525,0.236,2.016,0.709
				s0.735,1.083,0.735,1.832c0,0.503-0.139,0.996-0.417,1.477c-0.278,0.481-0.701,1.085-1.271,1.812l-2.409,2.823l0.013,0.033h4.353
				V265.571z" />
            <path fill="#404041" d="M291.636,262.196c0,1.081-0.274,1.937-0.824,2.567c-0.549,0.63-1.288,0.945-2.216,0.945
				c-0.923,0-1.662-0.315-2.216-0.945s-0.83-1.486-0.83-2.567v-2.81c0-1.072,0.274-1.926,0.824-2.561s1.286-0.952,2.209-0.952
				c0.928,0,1.668,0.317,2.222,0.952s0.831,1.488,0.831,2.561V262.196z M290.342,259.117c0-0.687-0.153-1.229-0.459-1.628
				c-0.307-0.398-0.74-0.598-1.3-0.598c-0.556,0-0.985,0.199-1.287,0.598s-0.453,0.941-0.453,1.628v3.342
				c0,0.687,0.154,1.232,0.463,1.635c0.309,0.402,0.739,0.604,1.29,0.604c0.561,0,0.992-0.2,1.294-0.601
				c0.302-0.4,0.453-0.946,0.453-1.638V259.117z" />
            <path fill="#404041" d="M298.937,262.196c0,1.081-0.274,1.937-0.824,2.567s-1.288,0.945-2.216,0.945
				c-0.923,0-1.663-0.315-2.216-0.945c-0.554-0.63-0.831-1.486-0.831-2.567v-2.81c0-1.072,0.274-1.926,0.824-2.561
				c0.549-0.635,1.285-0.952,2.209-0.952c0.928,0,1.669,0.317,2.223,0.952s0.83,1.488,0.83,2.561V262.196z M297.644,259.117
				c0-0.687-0.153-1.229-0.46-1.628c-0.306-0.398-0.739-0.598-1.3-0.598c-0.556,0-0.985,0.199-1.287,0.598
				c-0.302,0.398-0.453,0.941-0.453,1.628v3.342c0,0.687,0.154,1.232,0.463,1.635c0.308,0.402,0.739,0.604,1.29,0.604
				c0.56,0,0.992-0.2,1.293-0.601c0.302-0.4,0.453-0.946,0.453-1.638V259.117z" />
            <path fill="#404041" d="M306.238,262.196c0,1.081-0.275,1.937-0.824,2.567c-0.55,0.63-1.288,0.945-2.216,0.945
				c-0.924,0-1.663-0.315-2.216-0.945c-0.554-0.63-0.831-1.486-0.831-2.567v-2.81c0-1.072,0.275-1.926,0.824-2.561
				s1.286-0.952,2.209-0.952c0.928,0,1.669,0.317,2.223,0.952s0.831,1.488,0.831,2.561V262.196z M304.944,259.117
				c0-0.687-0.153-1.229-0.459-1.628s-0.74-0.598-1.3-0.598c-0.556,0-0.984,0.199-1.287,0.598s-0.453,0.941-0.453,1.628v3.342
				c0,0.687,0.154,1.232,0.463,1.635c0.308,0.402,0.738,0.604,1.29,0.604c0.56,0,0.991-0.2,1.293-0.601
				c0.302-0.4,0.453-0.946,0.453-1.638V259.117z" />
		</g>
            <g>
            <path fill="#0074A8" d="M209.92,222.051h3.256v6.119h-3.256v8.325h-7.432v-8.325H189.83l-0.342-4.765l12.974-25.147h7.458
				V222.051z M196.71,222.051h5.778v-12.79l-0.158,0.289L196.71,222.051z" />
            <path fill="#0074A8" d="M237.064,220.685c0,5.288-0.958,9.332-2.875,12.133c-1.917,2.801-4.653,4.202-8.207,4.202
				c-3.519,0-6.237-1.361-8.154-4.084c-1.917-2.722-2.911-6.622-2.98-11.7v-7.222c0-5.27,0.954-9.301,2.862-12.093
				s4.648-4.189,8.22-4.189s6.312,1.383,8.22,4.149c1.908,2.767,2.88,6.714,2.915,11.844V220.685z M229.606,212.92
				c0-3.023-0.298-5.29-0.893-6.802s-1.523-2.268-2.784-2.268c-2.364,0-3.589,2.769-3.677,8.305v9.57
				c0,3.093,0.302,5.396,0.906,6.908s1.545,2.267,2.823,2.267c1.208,0,2.105-0.708,2.692-2.123c0.586-1.415,0.897-3.581,0.933-6.499
				V212.92z" />
            <path fill="#0074A8" d="M261.583,220.685c0,5.288-0.959,9.332-2.876,12.133c-1.917,2.801-4.653,4.202-8.207,4.202
				c-3.519,0-6.237-1.361-8.154-4.084c-1.917-2.722-2.911-6.622-2.98-11.7v-7.222c0-5.27,0.954-9.301,2.862-12.093
				s4.648-4.189,8.22-4.189s6.312,1.383,8.22,4.149c1.908,2.767,2.88,6.714,2.915,11.844V220.685z M254.125,212.92
				c0-3.023-0.298-5.29-0.893-6.802s-1.523-2.268-2.784-2.268c-2.364,0-3.589,2.769-3.676,8.305v9.57
				c0,3.093,0.302,5.396,0.906,6.908s1.545,2.267,2.823,2.267c1.208,0,2.105-0.708,2.692-2.123c0.586-1.415,0.896-3.581,0.932-6.499
				V212.92z" />
            <path fill="#0074A8" d="M263.936,205.61c0-2.328,0.644-4.228,1.931-5.699c1.287-1.471,3.024-2.206,5.213-2.206
				s3.935,0.722,5.239,2.167c1.304,1.444,1.957,3.392,1.957,5.843v1.917c0,2.363-0.648,4.263-1.943,5.699
				c-1.296,1.436-3.029,2.153-5.2,2.153c-2.154,0-3.892-0.717-5.213-2.153c-1.322-1.436-1.983-3.388-1.983-5.856V205.61z
				 M268.768,207.633c0,1.05,0.223,1.887,0.669,2.508c0.447,0.622,1.011,0.933,1.694,0.933c0.7,0,1.256-0.324,1.667-0.972
				c0.411-0.648,0.617-1.497,0.617-2.548v-1.943c0-1.015-0.21-1.851-0.63-2.508s-0.989-0.985-1.707-0.985
				c-0.7,0-1.261,0.328-1.681,0.985c-0.42,0.657-0.63,1.519-0.63,2.587V207.633z M272.471,233.632l-3.519-1.996l15.678-29.886
				l3.545,1.996L272.471,233.632z M279.01,227.119c0-2.364,0.657-4.268,1.969-5.712c1.313-1.444,3.047-2.167,5.2-2.167
				c2.171,0,3.913,0.713,5.226,2.14c1.313,1.427,1.97,3.384,1.97,5.87v1.917c0,2.346-0.639,4.241-1.917,5.686
				c-1.278,1.445-3.02,2.167-5.226,2.167c-2.224,0-3.983-0.727-5.279-2.18c-1.296-1.453-1.943-3.379-1.943-5.778V227.119z
				 M283.869,229.167c0,0.981,0.232,1.804,0.696,2.469c0.464,0.666,1.02,0.998,1.668,0.998c1.453,0,2.214-1.042,2.285-3.125v-2.39
				c0-1.033-0.214-1.869-0.644-2.508s-0.994-0.959-1.694-0.959c-1.541,0-2.311,1.339-2.311,4.018V229.167z" />
		</g>
            <g opacity="0.6">
            <g>
            <rect x="186.628" y="246.855" fill="#66ABCB" width="106.638" height="3" />
			</g>
		</g>
        </g>
	</g>
</g>
</svg>
