<?xml version="1.0" encoding="utf-8"?>
<!-- Generator: Adobe Illustrator 16.0.0, SVG Export Plug-In . SVG Version: 6.00 Build 0)  -->
<!DOCTYPE svg PUBLIC "-//W3C//DTD SVG 1.1//EN" "http://www.w3.org/Graphics/SVG/1.1/DTD/svg11.dtd">
<svg version="1.1" xmlns="http://www.w3.org/2000/svg" xmlns:xlink="http://www.w3.org/1999/xlink" x="0px" y="0px" width="100%"
	 height="100%" viewBox="0 0 360 360" enable-background="new 0 0 360 360" xml:space="preserve" class="c-infographic-svg">
<g id="Layer_1">
	<g>
		<rect fill="#F6F6F6" width="360" height="360"/>
	</g>
	<g>
		<g id="document-back">
			<g>
				<path fill="#A6A8AB" d="M172.165,68.797h-19.798c-1.348,0-2.431,1.322-2.431,2.663c0,1.348,1.083,2.67,2.431,2.67h19.798
					c1.345,0,2.434-1.323,2.434-2.67C174.598,70.119,173.51,68.797,172.165,68.797z"/>
			</g>
			<g>
				<path fill="#A6A8AB" d="M141.819,102.575h-14.651c-1.347,0-2.439,0.88-2.439,2.221c0,1.346,1.092,2.222,2.439,2.222h14.651
					c1.348,0,2.437-0.876,2.437-2.222C144.256,103.455,143.167,102.575,141.819,102.575z"/>
			</g>
			<g>
				<path fill="#A6A8AB" d="M172.165,77.686h-44.997c-1.347,0-2.437,0.881-2.437,2.224c0,1.346,1.09,2.221,2.437,2.221h44.997
					c1.345,0,2.434-0.875,2.434-2.221C174.598,78.567,173.51,77.686,172.165,77.686z"/>
			</g>
			<g>
				<path fill="#A6A8AB" d="M172.165,85.686h-44.997c-1.347,0-2.437,0.879-2.437,2.218c0,1.347,1.09,2.227,2.437,2.227h44.997
					c1.345,0,2.434-0.88,2.434-2.227C174.598,86.564,173.51,85.686,172.165,85.686z"/>
			</g>
			<g>
				<path fill="#A6A8AB" d="M172.165,93.686h-44.997c-1.347,0-2.439,1.322-2.439,2.668c0,1.344,1.092,2.665,2.439,2.665h44.997
					c1.345,0,2.434-1.321,2.434-2.665C174.598,95.008,173.51,93.686,172.165,93.686z"/>
			</g>
			<g>
				<path fill="#A6A8AB" d="M177.232,44.797h-43.576c-0.382,0-0.747,0.21-1.077,0.374L114.05,63.36
					c-0.259,0.395-0.684,0.912-0.684,1.393v66.209c0,3.938,3.763,7.168,7.705,7.168H145.5h7.306h24.429
					c3.941,0,7.243-3.231,7.243-7.168V99.448v-2.354v-44.92C184.478,48.237,181.167,44.797,177.232,44.797z M132.033,52.62v7.51
					c0,1.495-1.314,2.446-2.806,2.446h-7.511L132.033,52.62z M179.144,130.962c0,1.253-0.656,2.725-1.909,2.725H152.75h-7.193
					h-24.485c-1.252,0-2.372-1.471-2.372-2.725V67.583c0.889,0.043,1.874,0.325,2.806,0.325h7.722c4.179,0,8.139-3.603,8.139-7.778
					v-7.72c0-0.863-0.571-1.391-0.513-2.278h40.379c1.255,0,1.911,0.79,1.911,2.043v47.951l0,0V130.962z"/>
			</g>
		</g>
		<g id="document-front">
			<g>
				<path fill="#F2F3F3" d="M230.579,31.908h-55.91c-0.49,0-0.958,0.11-1.382,0.319l-23.852,23.258
					c-0.333,0.506-0.957,1.092-0.957,1.708v84.947c0,5.052,4.988,9.768,10.045,9.768h31.342h9.373h31.343
					c5.057,0,8.563-4.716,8.563-9.768v-40.432v-3.021V41.054C239.144,36.002,235.627,31.908,230.579,31.908z"/>
			</g>
			<g>
				<g>
					<path fill="#808184" d="M158.523,153.908c-6.192,0-12.045-5.719-12.045-11.768V57.193c0-1.14,0.646-1.972,1.072-2.521
						c0.077-0.099,0.153-0.193,0.214-0.286l0.119-0.181l24.235-23.631l0.285-0.141c0.707-0.348,1.47-0.525,2.266-0.525h55.91
						c6.022,0,10.564,4.792,10.564,11.146V142.14c0,6.489-4.738,11.768-10.563,11.768H158.523z M156.699,142.14
						c0,0.76,0.694,1.545,0.935,1.545h72.88c0.163-0.181,0.408-0.78,0.408-1.545c0,0,0-101.103,0-101.111
						c-0.09-0.006-0.203-0.011-0.343-0.011H180.7c0,0.058,0,10.242,0,10.242c0,6.494-5.364,11.98-11.713,11.98h-9.907
						c-0.663,0-1.53-0.085-2.381-0.184V142.14z M168.987,53.019c0.594,0,0.601-1.74,0.601-1.758V46.78l-5.701,6.239H168.987z
						 M166.344,113.908c-2.828,0-5.128-2.292-5.128-5.111c0-2.819,2.3-5.112,5.128-5.112h18.8c2.826,0,5.125,2.293,5.125,5.112
						c0,2.818-2.299,5.111-5.125,5.111H166.344z M166.344,103.241c-2.828,0-5.128-2.292-5.128-5.108c0-2.82,2.3-5.114,5.128-5.114
						h57.733c2.824,0,5.122,2.294,5.122,5.114c0,2.817-2.298,5.108-5.122,5.108H166.344z M166.344,92.575
						c-2.826,0-5.126-2.295-5.126-5.117c0-2.815,2.3-5.105,5.126-5.105h57.733c2.824,0,5.122,2.291,5.122,5.105
						c0,2.822-2.298,5.117-5.122,5.117H166.344z M166.344,81.908c-2.826,0-5.126-2.292-5.126-5.109c0-2.819,2.3-5.113,5.126-5.113
						h57.733c2.824,0,5.122,2.294,5.122,5.113c0,2.817-2.298,5.109-5.122,5.109H166.344z M198.675,71.241
						c-2.822,0-5.119-2.295-5.119-5.116c0-2.816,2.296-5.106,5.119-5.106h25.402c2.824,0,5.122,2.291,5.122,5.106
						c0,2.821-2.298,5.116-5.122,5.116H198.675z"/>
				</g>
				<g>
					<path fill="#F2F3F3" d="M230.579,31.908c5.048,0,8.564,4.094,8.564,9.146v57.634v3.021v40.432c0,5.052-3.505,9.768-8.563,9.768
						h-31.343h-9.373h-31.342c-5.057,0-10.045-4.716-10.045-9.768V57.193c0-0.616,0.624-1.202,0.957-1.708l23.852-23.258
						c0.424-0.209,0.893-0.319,1.382-0.319H230.579 M159.08,61.241c-1.196,0-3.492-0.363-4.381-0.418v81.317
						c0,1.61,1.327,3.545,2.935,3.545h32.304h9.229h31.415c1.607,0,2.341-1.936,2.341-3.545v-39.565V41.054
						c0-1.608-0.733-2.035-2.343-2.035h-51.807c-0.076,0.889-0.072,1.23-0.072,2.337v9.905c0,5.359-4.352,9.98-9.713,9.98H159.08
						 M159.351,55.019h9.637c1.914,0,2.601-1.839,2.601-3.758v-9.635L159.351,55.019 M224.077,63.019
						c1.726,0,3.122,1.386,3.122,3.106c0,1.729-1.396,3.116-3.122,3.116h-25.402c-1.729,0-3.119-1.387-3.119-3.116
						c0-1.721,1.389-3.106,3.119-3.106H224.077 M224.077,73.686c1.726,0,3.122,1.39,3.122,3.113c0,1.727-1.396,3.109-3.122,3.109
						h-57.733c-1.728,0-3.126-1.382-3.126-3.109c0-1.724,1.398-3.113,3.126-3.113H224.077 M224.077,84.353
						c1.726,0,3.122,1.386,3.122,3.105c0,1.729-1.396,3.117-3.122,3.117h-57.733c-1.728,0-3.126-1.389-3.126-3.117
						c0-1.719,1.398-3.105,3.126-3.105H224.077 M224.077,95.019c1.726,0,3.122,1.387,3.122,3.114c0,1.722-1.396,3.108-3.122,3.108
						h-57.733c-1.728,0-3.128-1.387-3.128-3.108c0-1.728,1.401-3.114,3.128-3.114H224.077 M185.144,105.686
						c1.729,0,3.125,1.39,3.125,3.112c0,1.726-1.396,3.111-3.125,3.111h-18.8c-1.728,0-3.128-1.385-3.128-3.111
						c0-1.722,1.401-3.112,3.128-3.112H185.144 M230.579,27.908h-55.91c-1.105,0-2.165,0.246-3.149,0.731l-0.57,0.281l-0.455,0.444
						l-23.852,23.258l-0.311,0.303l-0.239,0.362c-0.027,0.039-0.075,0.097-0.122,0.158c-0.521,0.672-1.493,1.923-1.493,3.748v84.947
						c0,7.206,6.694,13.768,14.045,13.768h31.342h9.373h31.343c6.927,0,12.563-6.176,12.563-13.768v-40.432v-3.021V41.054
						C243.144,33.56,237.742,27.908,230.579,27.908L230.579,27.908z M182.7,43.019h46.221V60.92
						c-1.272-1.179-2.975-1.901-4.844-1.901h-25.402c-3.925,0-7.119,3.188-7.119,7.106c0,1.296,0.349,2.513,0.957,3.561h-26.169
						c-3.929,0-7.126,3.191-7.126,7.113c0,2.12,0.936,4.027,2.417,5.331c-1.481,1.303-2.417,3.209-2.417,5.328
						c0,2.123,0.936,4.033,2.417,5.338c-1.483,1.305-2.42,3.214-2.42,5.337c0,2.121,0.936,4.027,2.418,5.331
						c-1.482,1.304-2.418,3.212-2.418,5.333c0,3.921,3.198,7.111,7.128,7.111h18.8c3.929,0,7.125-3.19,7.125-7.111
						c0-1.294-0.348-2.509-0.957-3.556h32.765c1.869,0,3.573-0.723,4.845-1.902v38.347h-29.756h-9.229h-31.238V65.234
						c0.131,0.004,0.258,0.007,0.381,0.007h9.907c7.562,0,13.713-6.271,13.713-13.98V43.019L182.7,43.019z"/>
				</g>
			</g>
		</g>
		<g id="monkey">
			<g>
				<path fill="#0074A7" d="M220.702,154.752c-7.108,0-12.793-1.96-16.897-5.827c-4.161-3.914-6.272-9.335-6.272-16.111
					c0-4.603,1.035-8.86,3.075-12.654c2.085-3.866,5.08-6.928,8.902-9.105c3.784-2.162,8.176-3.259,13.049-3.259
					c4.139,0,7.915,0.872,11.223,2.591c3.4,1.77,6.063,4.325,7.914,7.597c1.82,3.22,2.744,6.945,2.744,11.071
					c0,2.764-0.453,5.347-1.347,7.677c-0.957,2.479-2.358,4.479-4.167,5.951c-1.021,0.826-2.132,1.438-3.324,1.834v6.942
					l-1.827,0.776C229.843,153.905,225.445,154.752,220.702,154.752z M226.289,143.001c-0.236,0.166-0.478,0.322-0.724,0.468
					c0.075-0.013,0.151-0.027,0.227-0.041c0.276-0.051,0.553-0.106,0.828-0.165C226.507,143.179,226.396,143.091,226.289,143.001z
					 M222.118,127.905c-1.402,0.06-2.012,0.561-2.353,0.943c-0.653,0.734-0.972,1.827-0.972,3.339c0,2.285,0.546,2.285,1.302,2.285
					c0.743,0,0.911-0.227,1.022-0.376c0.153-0.206,0.669-1.08,0.85-3.598L222.118,127.905z"/>
			</g>
			<g>
				<path fill="#F2F3F3" d="M222.559,110.796c3.667,0,6.948,0.75,9.839,2.253c2.892,1.505,5.119,3.642,6.686,6.412
					c1.569,2.774,2.355,5.968,2.355,9.593c0,2.41-0.382,4.605-1.148,6.603c-0.77,1.995-1.86,3.56-3.259,4.697
					c-1.404,1.137-3.035,1.703-4.883,1.703c-1.233,0-2.334-0.297-3.288-0.89c-0.946-0.592-1.635-1.372-2.053-2.338h-0.396
					c-1.805,2.15-4.095,3.228-6.892,3.228c-2.956,0-5.281-0.89-6.988-2.665c-1.705-1.782-2.558-4.216-2.558-7.303
					c0-3.525,1.122-6.364,3.353-8.52c2.246-2.153,5.167-3.234,8.769-3.234c1.439,0,3.019,0.14,4.756,0.416
					c1.72,0.277,3.144,0.607,4.262,0.99l-0.571,12.25c0,2.323,0.639,3.479,1.908,3.479c1.064,0,1.919-0.779,2.554-2.342
					c0.631-1.561,0.945-3.603,0.945-6.123c0-2.688-0.559-5.066-1.674-7.128c-1.115-2.061-2.694-3.634-4.724-4.719
					c-2.025-1.087-4.341-1.629-6.948-1.629c-3.377,0-6.306,0.69-8.8,2.078c-2.486,1.386-4.391,3.389-5.716,6.002
					c-1.327,2.612-1.995,5.629-1.995,9.055c0,4.606,1.229,8.144,3.696,10.607c2.46,2.465,6.027,3.693,10.706,3.693
					c1.77,0,3.718-0.195,5.841-0.587c2.116-0.394,4.206-0.962,6.264-1.715v4.81c-3.578,1.521-7.542,2.279-11.898,2.279
					c-6.354,0-11.296-1.671-14.84-5.011c-3.551-3.34-5.329-7.983-5.329-13.928c0-4.126,0.908-7.87,2.717-11.233
					c1.817-3.368,4.391-6.009,7.745-7.919C214.341,111.75,218.192,110.796,222.559,110.796 M220.096,137.472
					c1.501,0,2.646-0.531,3.432-1.589c0.785-1.06,1.262-2.787,1.433-5.171l0.322-5.539c-0.852-0.184-1.814-0.274-2.88-0.274
					c-2.088,0-3.713,0.648-4.875,1.953c-1.16,1.304-1.732,3.081-1.732,5.335C215.794,135.713,217.224,137.472,220.096,137.472
					 M222.559,104.796c-5.402,0-10.294,1.23-14.541,3.656c-4.312,2.456-7.695,5.916-10.049,10.28
					c-2.281,4.242-3.436,8.978-3.436,14.082c0,7.637,2.429,13.793,7.218,18.298c4.676,4.405,11.053,6.64,18.951,6.64
					c5.148,0,9.941-0.927,14.245-2.757l3.653-1.552v-3.97v-2.996c0.773-0.41,1.512-0.897,2.207-1.46
					c2.23-1.813,3.936-4.233,5.082-7.201c1.03-2.686,1.55-5.63,1.55-8.763c0-4.65-1.054-8.871-3.132-12.547
					c-2.143-3.786-5.217-6.74-9.139-8.781C231.425,105.781,227.184,104.796,222.559,104.796L222.559,104.796z"/>
			</g>
		</g>
	</g>
</g>
<g id="Layer_2">
	<g>
		<g>
			<path fill="#799DC4" d="M140.105,332.285h-7.492l-1.777,5.127h-2.748l7.178-19.906h2.311l7.027,19.906h-2.748L140.105,332.285z
				 M133.393,330.029h5.947l-2.898-8.545h-0.082L133.393,330.029z"/>
			<path fill="#799DC4" d="M154.16,324.998l-1.381-0.082c-0.711,0-1.311,0.169-1.798,0.506c-0.488,0.337-0.864,0.812-1.128,1.422
				v10.568h-2.693v-14.793h2.406l0.26,2.16c0.419-0.766,0.937-1.362,1.552-1.791c0.615-0.428,1.324-0.643,2.126-0.643
				c0.2,0,0.392,0.016,0.574,0.048c0.182,0.032,0.333,0.066,0.451,0.103L154.16,324.998z"/>
			<path fill="#799DC4" d="M159.369,322.619l0.191,1.941c0.483-0.702,1.096-1.246,1.839-1.634c0.743-0.387,1.606-0.581,2.591-0.581
				s1.83,0.228,2.536,0.684c0.706,0.456,1.237,1.14,1.593,2.051c0.474-0.848,1.091-1.515,1.853-2.003
				c0.761-0.487,1.652-0.731,2.673-0.731c1.504,0,2.693,0.518,3.568,1.552c0.875,1.035,1.313,2.591,1.313,4.669v8.846h-2.693v-8.873
				c0-1.458-0.251-2.49-0.752-3.097c-0.501-0.606-1.249-0.909-2.242-0.909c-0.921,0-1.666,0.319-2.235,0.957
				c-0.57,0.638-0.905,1.445-1.005,2.42v0.109v9.393h-2.707v-8.873c0-1.385-0.258-2.399-0.772-3.042
				c-0.515-0.643-1.256-0.964-2.222-0.964c-0.82,0-1.495,0.169-2.023,0.506c-0.529,0.337-0.935,0.812-1.217,1.422v10.951h-2.693
				v-14.793H159.369z"/>
			<path fill="#799DC4" d="M187.561,337.699c-2.124,0-3.78-0.679-4.97-2.037c-1.189-1.358-1.784-3.145-1.784-5.359v-0.602
				c0-2.124,0.613-3.88,1.839-5.271c1.226-1.39,2.723-2.085,4.491-2.085c1.978,0,3.461,0.615,4.45,1.846
				c0.989,1.23,1.483,2.867,1.483,4.908v1.422h-9.461l-0.041,0.068c0,1.486,0.328,2.691,0.984,3.616
				c0.656,0.925,1.659,1.388,3.008,1.388c0.911,0,1.711-0.13,2.399-0.39c0.688-0.26,1.278-0.617,1.771-1.073l1.053,1.75
				c-0.529,0.511-1.226,0.941-2.092,1.292C189.825,337.523,188.782,337.699,187.561,337.699z M187.137,324.464
				c-0.939,0-1.716,0.362-2.331,1.087s-0.991,1.652-1.128,2.782l0.027,0.068h6.672v-0.219c0-1.075-0.265-1.964-0.793-2.666
				C189.055,324.815,188.239,324.464,187.137,324.464z"/>
			<path fill="#799DC4" d="M198.498,322.619l0.191,2.201c0.492-0.784,1.109-1.392,1.853-1.825c0.743-0.433,1.588-0.649,2.536-0.649
				c1.595,0,2.83,0.467,3.705,1.401c0.875,0.935,1.313,2.377,1.313,4.327v9.338h-2.693v-9.283c0-1.303-0.258-2.229-0.772-2.775
				c-0.515-0.547-1.301-0.82-2.358-0.82c-0.83,0-1.534,0.167-2.112,0.499c-0.579,0.333-1.037,0.8-1.374,1.401v10.979h-2.693v-14.793
				H198.498z"/>
			<path fill="#799DC4" d="M214.918,318.832h-2.693v-2.748h2.693V318.832z M214.918,337.412h-2.693v-14.793h2.693V337.412z"/>
			<path fill="#799DC4" d="M228.152,337.412c-0.091-0.446-0.162-0.841-0.212-1.183c-0.05-0.342-0.08-0.686-0.089-1.032
				c-0.501,0.711-1.155,1.306-1.962,1.784s-1.675,0.718-2.604,0.718c-1.541,0-2.714-0.394-3.521-1.183
				c-0.807-0.788-1.21-1.875-1.21-3.261c0-1.413,0.572-2.518,1.716-3.315c1.144-0.797,2.695-1.196,4.655-1.196h2.926v-1.463
				c0-0.866-0.265-1.552-0.793-2.058c-0.529-0.506-1.276-0.759-2.242-0.759c-0.875,0-1.582,0.219-2.119,0.656
				c-0.538,0.438-0.807,0.962-0.807,1.572l-2.557,0.027l-0.027-0.082c-0.064-1.075,0.439-2.06,1.511-2.953
				c1.071-0.893,2.454-1.34,4.149-1.34c1.677,0,3.026,0.426,4.047,1.278c1.021,0.853,1.531,2.081,1.531,3.685v7.123
				c0,0.529,0.027,1.039,0.082,1.531s0.155,0.976,0.301,1.449H228.152z M223.682,335.443c0.975,0,1.854-0.25,2.639-0.752
				c0.784-0.501,1.294-1.075,1.531-1.723v-2.406h-3.021c-1.085,0-1.953,0.273-2.604,0.82c-0.652,0.547-0.978,1.189-0.978,1.928
				c0,0.656,0.205,1.176,0.615,1.559S222.879,335.443,223.682,335.443z"/>
		</g>
		<g>
			<path fill="#A7A9AC" d="M137.44,277.214v5.238h-1.635v-12.078h4.134c1.323,0,2.333,0.294,3.03,0.881
				c0.697,0.586,1.046,1.438,1.046,2.557c0,0.619-0.162,1.159-0.486,1.618c-0.323,0.459-0.795,0.824-1.415,1.096
				c0.664,0.216,1.142,0.565,1.432,1.05c0.291,0.484,0.436,1.084,0.436,1.797v1.138c0,0.376,0.042,0.714,0.125,1.013
				s0.227,0.542,0.432,0.73v0.199h-1.685c-0.216-0.188-0.354-0.465-0.415-0.83s-0.091-0.741-0.091-1.129v-1.104
				c0-0.653-0.191-1.18-0.573-1.578s-0.894-0.598-1.536-0.598H137.44z M137.44,275.928h2.333c0.924,0,1.59-0.176,1.996-0.527
				c0.407-0.352,0.61-0.887,0.61-1.606c0-0.68-0.198-1.207-0.594-1.581c-0.396-0.373-1.011-0.56-1.847-0.56h-2.499V275.928z"/>
			<path fill="#A7A9AC" d="M147.314,271.171h-1.635v-1.668h1.635V271.171z M147.314,282.452h-1.635v-8.981h1.635V282.452z"/>
			<path fill="#A7A9AC" d="M154.201,280.036c0-0.359-0.137-0.652-0.411-0.879c-0.273-0.228-0.792-0.427-1.556-0.598
				c-1.057-0.228-1.869-0.546-2.436-0.955c-0.567-0.409-0.851-0.957-0.851-1.644c0-0.73,0.311-1.355,0.934-1.876
				c0.622-0.521,1.429-0.78,2.419-0.78c1.018,0,1.843,0.276,2.474,0.83s0.933,1.198,0.905,1.935l-0.017,0.049h-1.561
				c0-0.387-0.17-0.738-0.511-1.054c-0.34-0.315-0.771-0.474-1.291-0.474c-0.576,0-1.006,0.131-1.291,0.391
				c-0.285,0.26-0.428,0.57-0.428,0.93c0,0.354,0.123,0.628,0.369,0.822c0.247,0.193,0.754,0.37,1.523,0.531
				c1.101,0.232,1.937,0.562,2.507,0.987s0.855,0.982,0.855,1.669c0,0.797-0.322,1.446-0.967,1.95
				c-0.645,0.504-1.487,0.755-2.527,0.755c-1.146,0-2.047-0.29-2.706-0.871s-0.971-1.259-0.938-2.033l0.017-0.051h1.561
				c0.028,0.582,0.244,1.006,0.647,1.274s0.877,0.403,1.419,0.403c0.581,0,1.036-0.124,1.365-0.37
				C154.036,280.732,154.201,280.419,154.201,280.036z"/>
			<path fill="#A7A9AC" d="M160.739,282.626c-1.29,0-2.295-0.412-3.017-1.236c-0.723-0.824-1.083-1.909-1.083-3.254v-0.365
				c0-1.289,0.372-2.356,1.117-3.2c0.744-0.844,1.653-1.266,2.727-1.266c1.201,0,2.102,0.374,2.702,1.12
				c0.6,0.748,0.9,1.741,0.9,2.98v0.863h-5.744l-0.025,0.041c0,0.902,0.199,1.635,0.598,2.196s1.007,0.843,1.826,0.843
				c0.553,0,1.039-0.079,1.457-0.237c0.418-0.157,0.776-0.375,1.075-0.651l0.639,1.063c-0.321,0.31-0.744,0.571-1.27,0.784
				S161.48,282.626,160.739,282.626z M160.481,274.591c-0.57,0-1.042,0.221-1.415,0.66c-0.374,0.44-0.602,1.003-0.685,1.689
				l0.017,0.041h4.051v-0.133c0-0.652-0.161-1.192-0.481-1.618S161.151,274.591,160.481,274.591z"/>
			<path fill="#A7A9AC" d="M168.062,277.878c0-1.328,0.36-2.422,1.079-3.282s1.696-1.291,2.93-1.291
				c1.245,0,2.229,0.429,2.951,1.286c0.722,0.858,1.083,1.954,1.083,3.287v0.184c0,1.339-0.36,2.435-1.079,3.287
				c-0.719,0.852-1.699,1.277-2.938,1.277s-2.221-0.427-2.942-1.282c-0.723-0.854-1.083-1.949-1.083-3.282V277.878z
				 M169.697,278.062c0,0.951,0.201,1.737,0.602,2.357c0.401,0.619,0.998,0.93,1.789,0.93c0.78,0,1.373-0.311,1.776-0.93
				c0.404-0.62,0.606-1.406,0.606-2.357v-0.184c0-0.94-0.204-1.724-0.61-2.349c-0.407-0.625-1.003-0.938-1.789-0.938
				c-0.78,0-1.371,0.313-1.772,0.938c-0.401,0.625-0.602,1.408-0.602,2.349V278.062z"/>
			<path fill="#A7A9AC" d="M177.936,282.452v-7.77h-1.403v-1.212h1.403v-1.138c0-0.957,0.25-1.697,0.751-2.22
				c0.5-0.523,1.199-0.784,2.096-0.784c0.188,0,0.378,0.015,0.568,0.045c0.191,0.03,0.403,0.073,0.635,0.129l-0.199,1.245
				c-0.1-0.022-0.22-0.042-0.361-0.058c-0.142-0.018-0.29-0.025-0.444-0.025c-0.476,0-0.83,0.143-1.063,0.428
				s-0.349,0.698-0.349,1.24v1.138h1.627v1.212h-1.627v7.77H177.936z"/>
			<path fill="#A7A9AC" d="M191.078,281.124c-0.282,0.481-0.645,0.853-1.087,1.112s-0.955,0.39-1.536,0.39
				c-0.979,0-1.743-0.313-2.291-0.938s-0.822-1.6-0.822-2.922v-5.296h1.635v5.313c0,0.957,0.141,1.616,0.423,1.976
				s0.722,0.539,1.32,0.539c0.581,0,1.061-0.117,1.44-0.353c0.379-0.235,0.665-0.568,0.859-1v-6.475h1.635v8.981h-1.469
				L191.078,281.124z"/>
			<path fill="#A7A9AC" d="M199.409,280.036c0-0.359-0.137-0.652-0.411-0.879c-0.273-0.228-0.792-0.427-1.556-0.598
				c-1.057-0.228-1.869-0.546-2.436-0.955c-0.567-0.409-0.851-0.957-0.851-1.644c0-0.73,0.311-1.355,0.934-1.876
				c0.622-0.521,1.429-0.78,2.419-0.78c1.018,0,1.843,0.276,2.474,0.83s0.933,1.198,0.905,1.935l-0.017,0.049h-1.561
				c0-0.387-0.17-0.738-0.511-1.054c-0.34-0.315-0.771-0.474-1.291-0.474c-0.576,0-1.006,0.131-1.291,0.391
				c-0.285,0.26-0.428,0.57-0.428,0.93c0,0.354,0.123,0.628,0.369,0.822c0.247,0.193,0.754,0.37,1.523,0.531
				c1.101,0.232,1.937,0.562,2.507,0.987s0.855,0.982,0.855,1.669c0,0.797-0.322,1.446-0.967,1.95
				c-0.645,0.504-1.487,0.755-2.527,0.755c-1.146,0-2.047-0.29-2.706-0.871s-0.971-1.259-0.938-2.033l0.017-0.051h1.561
				c0.028,0.582,0.244,1.006,0.647,1.274s0.877,0.403,1.419,0.403c0.581,0,1.036-0.124,1.365-0.37
				C199.244,280.732,199.409,280.419,199.409,280.036z"/>
			<path fill="#A7A9AC" d="M205.946,282.626c-1.29,0-2.295-0.412-3.017-1.236c-0.723-0.824-1.083-1.909-1.083-3.254v-0.365
				c0-1.289,0.372-2.356,1.117-3.2c0.744-0.844,1.653-1.266,2.727-1.266c1.201,0,2.102,0.374,2.702,1.12
				c0.6,0.748,0.9,1.741,0.9,2.98v0.863h-5.744l-0.025,0.041c0,0.902,0.199,1.635,0.598,2.196s1.007,0.843,1.826,0.843
				c0.553,0,1.039-0.079,1.457-0.237c0.418-0.157,0.776-0.375,1.075-0.651l0.639,1.063c-0.321,0.31-0.744,0.571-1.27,0.784
				S206.688,282.626,205.946,282.626z M205.689,274.591c-0.57,0-1.042,0.221-1.415,0.66c-0.374,0.44-0.602,1.003-0.685,1.689
				l0.017,0.041h4.051v-0.133c0-0.652-0.161-1.192-0.481-1.618S206.358,274.591,205.689,274.591z"/>
			<path fill="#A7A9AC" d="M214.526,274.915l-0.838-0.05c-0.432,0-0.795,0.103-1.092,0.308c-0.296,0.204-0.524,0.492-0.685,0.863
				v6.416h-1.635v-8.981h1.461l0.158,1.312c0.254-0.465,0.568-0.827,0.942-1.088c0.373-0.26,0.804-0.39,1.291-0.39
				c0.122,0,0.238,0.01,0.349,0.029s0.202,0.04,0.274,0.062L214.526,274.915z"/>
			<path fill="#A7A9AC" d="M220.599,280.036c0-0.359-0.137-0.652-0.411-0.879c-0.273-0.228-0.792-0.427-1.556-0.598
				c-1.057-0.228-1.869-0.546-2.436-0.955c-0.567-0.409-0.851-0.957-0.851-1.644c0-0.73,0.311-1.355,0.934-1.876
				c0.622-0.521,1.429-0.78,2.419-0.78c1.018,0,1.843,0.276,2.474,0.83s0.933,1.198,0.905,1.935l-0.017,0.049h-1.561
				c0-0.387-0.17-0.738-0.511-1.054c-0.34-0.315-0.771-0.474-1.291-0.474c-0.576,0-1.006,0.131-1.291,0.391
				c-0.285,0.26-0.428,0.57-0.428,0.93c0,0.354,0.123,0.628,0.369,0.822c0.247,0.193,0.754,0.37,1.523,0.531
				c1.101,0.232,1.937,0.562,2.507,0.987s0.855,0.982,0.855,1.669c0,0.797-0.322,1.446-0.967,1.95
				c-0.645,0.504-1.487,0.755-2.527,0.755c-1.146,0-2.047-0.29-2.706-0.871s-0.971-1.259-0.938-2.033l0.017-0.051h1.561
				c0.028,0.582,0.244,1.006,0.647,1.274s0.877,0.403,1.419,0.403c0.581,0,1.036-0.124,1.365-0.37
				C220.434,280.732,220.599,280.419,220.599,280.036z"/>
			<path fill="#A7A9AC" d="M92.591,298.278c0-1.328,0.36-2.422,1.079-3.282s1.696-1.291,2.93-1.291c1.245,0,2.229,0.429,2.951,1.286
				c0.722,0.858,1.083,1.954,1.083,3.287v0.184c0,1.339-0.36,2.435-1.079,3.287c-0.719,0.852-1.699,1.277-2.938,1.277
				s-2.221-0.427-2.942-1.282c-0.723-0.854-1.083-1.949-1.083-3.282V298.278z M94.226,298.462c0,0.951,0.201,1.737,0.602,2.357
				c0.401,0.619,0.998,0.93,1.789,0.93c0.78,0,1.373-0.311,1.776-0.93c0.404-0.62,0.606-1.406,0.606-2.357v-0.184
				c0-0.94-0.204-1.724-0.61-2.349c-0.407-0.625-1.003-0.938-1.789-0.938c-0.78,0-1.371,0.313-1.772,0.938
				c-0.401,0.625-0.602,1.408-0.602,2.349V298.462z"/>
			<path fill="#A7A9AC" d="M102.465,302.853v-7.77h-1.403v-1.212h1.403v-1.138c0-0.957,0.25-1.697,0.751-2.22
				c0.5-0.523,1.199-0.784,2.096-0.784c0.188,0,0.378,0.015,0.568,0.045c0.191,0.03,0.403,0.073,0.635,0.129l-0.199,1.245
				c-0.1-0.022-0.22-0.042-0.361-0.058c-0.142-0.018-0.29-0.025-0.444-0.025c-0.476,0-0.83,0.143-1.063,0.428
				s-0.349,0.698-0.349,1.24v1.138h1.627v1.212h-1.627v7.77H102.465z"/>
			<path fill="#A7A9AC" d="M113.624,303.026c-1.29,0-2.295-0.412-3.017-1.236c-0.723-0.824-1.083-1.909-1.083-3.254v-0.365
				c0-1.289,0.372-2.356,1.117-3.2c0.744-0.844,1.653-1.266,2.727-1.266c1.201,0,2.102,0.374,2.702,1.12
				c0.6,0.748,0.9,1.741,0.9,2.98v0.863h-5.744l-0.025,0.041c0,0.902,0.199,1.635,0.598,2.196s1.007,0.843,1.826,0.843
				c0.553,0,1.039-0.079,1.457-0.237c0.418-0.157,0.776-0.375,1.075-0.651l0.639,1.063c-0.321,0.31-0.744,0.571-1.27,0.784
				S114.365,303.026,113.624,303.026z M113.366,294.991c-0.57,0-1.042,0.221-1.415,0.66c-0.374,0.44-0.602,1.003-0.685,1.689
				l0.017,0.041h4.051v-0.133c0-0.652-0.161-1.192-0.481-1.618S114.036,294.991,113.366,294.991z"/>
			<path fill="#A7A9AC" d="M123.05,298.387h-4.897v-1.278h4.897V298.387z"/>
			<path fill="#A7A9AC" d="M133.68,301.226c-0.288,0.448-0.787,0.86-1.499,1.236c-0.711,0.377-1.634,0.564-2.768,0.564
				c-1.395,0-2.548-0.462-3.461-1.386s-1.37-2.119-1.37-3.586v-2.49c0-1.467,0.44-2.662,1.32-3.586s2.014-1.386,3.403-1.386
				c1.345,0,2.407,0.357,3.188,1.074s1.159,1.629,1.137,2.735l-0.017,0.05h-1.569c0-0.736-0.238-1.349-0.714-1.839
				c-0.476-0.489-1.151-0.734-2.025-0.734c-0.924,0-1.668,0.346-2.233,1.038c-0.564,0.691-0.847,1.568-0.847,2.631v2.507
				c0,1.073,0.299,1.958,0.896,2.652s1.361,1.042,2.291,1.042c0.714,0,1.28-0.093,1.698-0.278c0.417-0.186,0.729-0.405,0.934-0.66
				v-2.723h-2.739v-1.278h4.375V301.226z"/>
			<path fill="#A7A9AC" d="M135.046,298.278c0-1.328,0.36-2.422,1.079-3.282s1.696-1.291,2.93-1.291
				c1.245,0,2.229,0.429,2.951,1.286c0.722,0.858,1.083,1.954,1.083,3.287v0.184c0,1.339-0.36,2.435-1.079,3.287
				c-0.719,0.852-1.699,1.277-2.938,1.277s-2.221-0.427-2.942-1.282c-0.723-0.854-1.083-1.949-1.083-3.282V298.278z
				 M136.681,298.462c0,0.951,0.201,1.737,0.602,2.357c0.401,0.619,0.998,0.93,1.789,0.93c0.78,0,1.373-0.311,1.776-0.93
				c0.404-0.62,0.606-1.406,0.606-2.357v-0.184c0-0.94-0.204-1.724-0.61-2.349c-0.407-0.625-1.003-0.938-1.789-0.938
				c-0.78,0-1.371,0.313-1.772,0.938c-0.401,0.625-0.602,1.408-0.602,2.349V298.462z"/>
			<path fill="#A7A9AC" d="M147.112,300.204l0.141,0.631h0.05l0.158-0.631l2.067-6.333h1.668l-3.304,8.981h-1.237l-3.345-8.981
				h1.677L147.112,300.204z"/>
			<path fill="#A7A9AC" d="M155.426,303.026c-1.29,0-2.295-0.412-3.017-1.236c-0.723-0.824-1.083-1.909-1.083-3.254v-0.365
				c0-1.289,0.372-2.356,1.117-3.2c0.744-0.844,1.653-1.266,2.727-1.266c1.201,0,2.102,0.374,2.702,1.12
				c0.6,0.748,0.9,1.741,0.9,2.98v0.863h-5.744l-0.025,0.041c0,0.902,0.199,1.635,0.598,2.196s1.007,0.843,1.826,0.843
				c0.553,0,1.039-0.079,1.457-0.237c0.418-0.157,0.776-0.375,1.075-0.651l0.639,1.063c-0.321,0.31-0.744,0.571-1.27,0.784
				S156.168,303.026,155.426,303.026z M155.169,294.991c-0.57,0-1.042,0.221-1.415,0.66c-0.374,0.44-0.602,1.003-0.685,1.689
				l0.017,0.041h4.051v-0.133c0-0.652-0.161-1.192-0.481-1.618S155.838,294.991,155.169,294.991z"/>
			<path fill="#A7A9AC" d="M164.006,295.315l-0.838-0.05c-0.432,0-0.795,0.103-1.092,0.308c-0.296,0.204-0.524,0.492-0.685,0.863
				v6.416h-1.635v-8.981h1.461l0.158,1.312c0.254-0.465,0.568-0.827,0.942-1.088c0.373-0.26,0.804-0.39,1.291-0.39
				c0.122,0,0.238,0.01,0.349,0.029s0.202,0.04,0.274,0.062L164.006,295.315z"/>
			<path fill="#A7A9AC" d="M166.318,293.871l0.116,1.337c0.299-0.477,0.674-0.846,1.125-1.108c0.451-0.263,0.964-0.395,1.54-0.395
				c0.968,0,1.718,0.283,2.25,0.851s0.797,1.443,0.797,2.627v5.67h-1.635v-5.637c0-0.791-0.156-1.353-0.469-1.685
				c-0.313-0.332-0.79-0.498-1.432-0.498c-0.503,0-0.931,0.101-1.283,0.303c-0.351,0.202-0.629,0.485-0.834,0.851v6.666h-1.635
				v-8.981H166.318z"/>
			<path fill="#A7A9AC" d="M175.13,293.871l0.116,1.179c0.293-0.426,0.666-0.757,1.117-0.992c0.451-0.235,0.975-0.353,1.573-0.353
				s1.111,0.139,1.54,0.415c0.429,0.276,0.751,0.691,0.967,1.245c0.288-0.515,0.663-0.92,1.125-1.216
				c0.462-0.296,1.003-0.444,1.623-0.444c0.913,0,1.635,0.314,2.167,0.942s0.797,1.572,0.797,2.834v5.371h-1.635v-5.387
				c0-0.886-0.152-1.513-0.457-1.881s-0.758-0.552-1.361-0.552c-0.559,0-1.011,0.193-1.357,0.581
				c-0.346,0.388-0.549,0.877-0.61,1.469v0.066v5.703h-1.644v-5.387c0-0.842-0.156-1.457-0.469-1.848
				c-0.313-0.39-0.763-0.585-1.349-0.585c-0.498,0-0.908,0.103-1.229,0.308c-0.321,0.204-0.567,0.492-0.739,0.863v6.648h-1.635
				v-8.981H175.13z"/>
			<path fill="#A7A9AC" d="M191.396,303.026c-1.29,0-2.295-0.412-3.017-1.236c-0.723-0.824-1.083-1.909-1.083-3.254v-0.365
				c0-1.289,0.372-2.356,1.117-3.2c0.744-0.844,1.653-1.266,2.727-1.266c1.201,0,2.102,0.374,2.702,1.12
				c0.6,0.748,0.9,1.741,0.9,2.98v0.863h-5.744l-0.025,0.041c0,0.902,0.199,1.635,0.598,2.196s1.007,0.843,1.826,0.843
				c0.553,0,1.039-0.079,1.457-0.237c0.418-0.157,0.776-0.375,1.075-0.651l0.639,1.063c-0.321,0.31-0.744,0.571-1.27,0.784
				S192.138,303.026,191.396,303.026z M191.139,294.991c-0.57,0-1.042,0.221-1.415,0.66c-0.374,0.44-0.602,1.003-0.685,1.689
				l0.017,0.041h4.051v-0.133c0-0.652-0.161-1.192-0.481-1.618S191.809,294.991,191.139,294.991z"/>
			<path fill="#A7A9AC" d="M197.188,293.871l0.116,1.337c0.299-0.477,0.674-0.846,1.125-1.108c0.451-0.263,0.964-0.395,1.54-0.395
				c0.968,0,1.718,0.283,2.25,0.851s0.797,1.443,0.797,2.627v5.67h-1.635v-5.637c0-0.791-0.156-1.353-0.469-1.685
				c-0.313-0.332-0.79-0.498-1.432-0.498c-0.503,0-0.931,0.101-1.283,0.303c-0.351,0.202-0.629,0.485-0.834,0.851v6.666h-1.635
				v-8.981H197.188z"/>
			<path fill="#A7A9AC" d="M206.813,291.704v2.167h1.702v1.212h-1.702v5.453c0,0.421,0.087,0.717,0.261,0.889
				c0.175,0.172,0.406,0.258,0.693,0.258c0.094,0,0.199-0.013,0.315-0.038c0.116-0.024,0.213-0.051,0.291-0.079l0.224,1.121
				c-0.122,0.1-0.302,0.182-0.54,0.245s-0.473,0.095-0.706,0.095c-0.664,0-1.192-0.2-1.585-0.602s-0.589-1.03-0.589-1.889v-5.453
				h-1.428v-1.212h1.428v-2.167H206.813z"/>
			<path fill="#A7A9AC" d="M218.012,300.437c0-0.359-0.137-0.652-0.411-0.879c-0.273-0.228-0.792-0.427-1.556-0.598
				c-1.057-0.228-1.869-0.546-2.436-0.955c-0.567-0.409-0.851-0.957-0.851-1.644c0-0.73,0.311-1.355,0.934-1.876
				c0.622-0.521,1.429-0.78,2.419-0.78c1.018,0,1.843,0.276,2.474,0.83s0.933,1.198,0.905,1.935l-0.017,0.049h-1.561
				c0-0.387-0.17-0.738-0.511-1.054c-0.34-0.315-0.771-0.474-1.291-0.474c-0.576,0-1.006,0.131-1.291,0.391
				c-0.285,0.26-0.428,0.57-0.428,0.93c0,0.354,0.123,0.628,0.369,0.822c0.247,0.193,0.754,0.37,1.523,0.531
				c1.101,0.232,1.937,0.562,2.507,0.987s0.855,0.982,0.855,1.669c0,0.797-0.322,1.446-0.967,1.95
				c-0.645,0.504-1.487,0.755-2.527,0.755c-1.146,0-2.047-0.29-2.706-0.871s-0.971-1.259-0.938-2.033l0.017-0.051h1.561
				c0.028,0.582,0.244,1.006,0.647,1.274s0.877,0.403,1.419,0.403c0.581,0,1.036-0.124,1.365-0.37
				C217.848,301.133,218.012,300.819,218.012,300.437z"/>
			<path fill="#A7A9AC" d="M224.55,303.026c-1.29,0-2.295-0.412-3.017-1.236c-0.723-0.824-1.083-1.909-1.083-3.254v-0.365
				c0-1.289,0.372-2.356,1.117-3.2c0.744-0.844,1.653-1.266,2.727-1.266c1.201,0,2.102,0.374,2.702,1.12
				c0.6,0.748,0.9,1.741,0.9,2.98v0.863h-5.744l-0.025,0.041c0,0.902,0.199,1.635,0.598,2.196s1.007,0.843,1.826,0.843
				c0.553,0,1.039-0.079,1.457-0.237c0.418-0.157,0.776-0.375,1.075-0.651l0.639,1.063c-0.321,0.31-0.744,0.571-1.27,0.784
				S225.292,303.026,224.55,303.026z M224.292,294.991c-0.57,0-1.042,0.221-1.415,0.66c-0.374,0.44-0.602,1.003-0.685,1.689
				l0.017,0.041h4.051v-0.133c0-0.652-0.161-1.192-0.481-1.618S224.962,294.991,224.292,294.991z"/>
			<path fill="#A7A9AC" d="M233.13,295.315l-0.838-0.05c-0.432,0-0.795,0.103-1.092,0.308c-0.296,0.204-0.524,0.492-0.685,0.863
				v6.416h-1.635v-8.981h1.461l0.158,1.312c0.254-0.465,0.568-0.827,0.942-1.088c0.373-0.26,0.804-0.39,1.291-0.39
				c0.122,0,0.238,0.01,0.349,0.029s0.202,0.04,0.274,0.062L233.13,295.315z"/>
			<path fill="#A7A9AC" d="M237.127,300.204l0.141,0.631h0.05l0.158-0.631l2.067-6.333h1.668l-3.304,8.981h-1.237l-3.345-8.981
				h1.677L237.127,300.204z"/>
			<path fill="#A7A9AC" d="M243.599,291.571h-1.635v-1.668h1.635V291.571z M243.599,302.853h-1.635v-8.981h1.635V302.853z"/>
			<path fill="#A7A9AC" d="M248.833,301.749c0.503,0,0.943-0.168,1.32-0.503s0.564-0.745,0.564-1.232h1.478l0.025,0.05
				c0.022,0.774-0.31,1.462-0.996,2.063s-1.483,0.9-2.391,0.9c-1.262,0-2.236-0.429-2.922-1.286s-1.029-1.926-1.029-3.204v-0.349
				c0-1.268,0.344-2.331,1.034-3.191c0.688-0.86,1.661-1.291,2.917-1.291c1.001,0,1.822,0.31,2.461,0.93
				c0.639,0.62,0.947,1.381,0.925,2.282l-0.017,0.051h-1.486c0-0.549-0.179-1.015-0.535-1.399c-0.357-0.385-0.807-0.577-1.349-0.577
				c-0.802,0-1.388,0.312-1.755,0.935c-0.368,0.622-0.552,1.376-0.552,2.262v0.349c0,0.902,0.181,1.663,0.543,2.283
				C247.432,301.438,248.02,301.749,248.833,301.749z"/>
			<path fill="#A7A9AC" d="M257.031,303.026c-1.29,0-2.295-0.412-3.017-1.236c-0.723-0.824-1.083-1.909-1.083-3.254v-0.365
				c0-1.289,0.372-2.356,1.117-3.2c0.744-0.844,1.653-1.266,2.727-1.266c1.201,0,2.102,0.374,2.702,1.12
				c0.6,0.748,0.9,1.741,0.9,2.98v0.863h-5.744l-0.025,0.041c0,0.902,0.199,1.635,0.598,2.196s1.007,0.843,1.826,0.843
				c0.553,0,1.039-0.079,1.457-0.237c0.418-0.157,0.776-0.375,1.075-0.651l0.639,1.063c-0.321,0.31-0.744,0.571-1.27,0.784
				S257.772,303.026,257.031,303.026z M256.773,294.991c-0.57,0-1.042,0.221-1.415,0.66c-0.374,0.44-0.602,1.003-0.685,1.689
				l0.017,0.041h4.051v-0.133c0-0.652-0.161-1.192-0.481-1.618S257.443,294.991,256.773,294.991z"/>
			<path fill="#A7A9AC" d="M266.582,300.437c0-0.359-0.137-0.652-0.411-0.879c-0.273-0.228-0.792-0.427-1.556-0.598
				c-1.057-0.228-1.869-0.546-2.436-0.955c-0.567-0.409-0.851-0.957-0.851-1.644c0-0.73,0.311-1.355,0.934-1.876
				c0.622-0.521,1.429-0.78,2.419-0.78c1.018,0,1.843,0.276,2.474,0.83s0.933,1.198,0.905,1.935l-0.017,0.049h-1.561
				c0-0.387-0.17-0.738-0.511-1.054c-0.34-0.315-0.771-0.474-1.291-0.474c-0.576,0-1.006,0.131-1.291,0.391
				c-0.285,0.26-0.428,0.57-0.428,0.93c0,0.354,0.123,0.628,0.369,0.822c0.247,0.193,0.754,0.37,1.523,0.531
				c1.101,0.232,1.937,0.562,2.507,0.987s0.855,0.982,0.855,1.669c0,0.797-0.322,1.446-0.967,1.95
				c-0.645,0.504-1.487,0.755-2.527,0.755c-1.146,0-2.047-0.29-2.706-0.871s-0.971-1.259-0.938-2.033l0.017-0.051h1.561
				c0.028,0.582,0.244,1.006,0.647,1.274s0.877,0.403,1.419,0.403c0.581,0,1.036-0.124,1.365-0.37
				C266.417,301.133,266.582,300.819,266.582,300.437z"/>
		</g>
	</g>
	<g>
		<g opacity="0.6">
			<g>
				<g>
					<polygon fill="#66ABCB" points="155.905,225.385 147.229,218.274 147.229,219.89 153.936,225.385 147.229,230.883 
						147.229,232.502 155.675,225.579 155.675,225.576 					"/>
				</g>
			</g>
			<g>
				<rect x="142.257" y="224.6" fill="#66ABCB" width="12.024" height="1.407"/>
			</g>
		</g>
		<g>
			<path fill="#0074A8" d="M75.815,216.054h-4.081v-15.98l-3.98,1.538v-3.392l7.63-3.119h0.431V216.054z"/>
			<path fill="#0074A8" d="M92.47,200.505l0.115,1.437c0.91-1.15,2.112-1.725,3.606-1.725c1.552,0,2.649,0.699,3.291,2.098
				c0.891-1.399,2.16-2.098,3.808-2.098c2.72,0,4.114,1.882,4.181,5.647v10.189h-4.066v-9.93c0-0.9-0.125-1.542-0.374-1.926
				c-0.25-0.383-0.67-0.575-1.265-0.575c-0.757,0-1.322,0.465-1.696,1.394l0.029,0.489v10.548h-4.067v-9.901
				c0-0.891-0.12-1.535-0.359-1.933c-0.24-0.397-0.666-0.596-1.279-0.596c-0.699,0-1.255,0.378-1.667,1.135v11.295h-4.066v-15.549
				H92.47z"/>
			<path fill="#0074A8" d="M110.475,196.481c0-0.632,0.201-1.15,0.604-1.552c0.402-0.402,0.938-0.604,1.609-0.604
				c0.67,0,1.207,0.201,1.609,0.604s0.604,0.92,0.604,1.552c0,0.623-0.199,1.14-0.597,1.552c-0.397,0.412-0.937,0.618-1.616,0.618
				c-0.681,0-1.22-0.206-1.617-0.618C110.674,197.621,110.475,197.104,110.475,196.481z M114.743,216.054h-4.081v-15.549h4.081
				V216.054z"/>
			<path fill="#0074A8" d="M122.158,216.054h-4.081V193.98h4.081V216.054z"/>
			<path fill="#0074A8" d="M125.635,213.984c0-0.651,0.218-1.188,0.654-1.609c0.436-0.422,1.003-0.632,1.703-0.632
				c0.68,0,1.245,0.208,1.695,0.625c0.45,0.417,0.676,0.956,0.676,1.617c0,0.671-0.228,1.209-0.683,1.617
				c-0.455,0.407-1.019,0.611-1.688,0.611c-0.681,0-1.243-0.206-1.688-0.618C125.858,215.182,125.635,214.646,125.635,213.984z"/>
		</g>
		<g>
			<path fill="#404041" d="M79.577,242.098h-1.2v-8.823h1.2V242.098z"/>
			<path fill="#404041" d="M88.188,242.098h-1.194l-4.248-6.739l-0.036,0.012v6.727h-1.194v-8.823h1.194l4.247,6.732l0.037-0.012
				v-6.721h1.194V242.098z"/>
			<path fill="#404041" d="M98.198,242.098h-5.478v-0.818l2.769-3.303c0.493-0.598,0.827-1.074,1.002-1.427s0.264-0.71,0.264-1.069
				c0-0.408-0.119-0.743-0.357-1.003c-0.238-0.261-0.567-0.391-0.987-0.391c-0.521,0-0.918,0.16-1.191,0.479
				c-0.273,0.319-0.409,0.717-0.409,1.194H92.66l-0.013-0.037c-0.02-0.719,0.221-1.328,0.722-1.827
				c0.5-0.499,1.182-0.748,2.042-0.748c0.787,0,1.407,0.218,1.86,0.654c0.452,0.436,0.678,1,0.678,1.69
				c0,0.465-0.128,0.919-0.385,1.364s-0.647,1.002-1.172,1.672l-2.224,2.606l0.012,0.03h4.018V242.098z"/>
			<path fill="#404041" d="M104.852,238.983c0,0.998-0.253,1.788-0.76,2.369c-0.507,0.582-1.189,0.873-2.045,0.873
				c-0.852,0-1.534-0.291-2.045-0.873c-0.511-0.582-0.767-1.371-0.767-2.369v-2.594c0-0.99,0.254-1.777,0.761-2.363
				c0.507-0.585,1.187-0.878,2.039-0.878c0.856,0,1.54,0.293,2.051,0.878c0.511,0.586,0.767,1.374,0.767,2.363V238.983z
				 M103.658,236.141c0-0.634-0.142-1.135-0.424-1.502s-0.683-0.552-1.2-0.552c-0.513,0-0.909,0.184-1.188,0.552
				c-0.279,0.368-0.418,0.869-0.418,1.502v3.084c0,0.634,0.142,1.137,0.427,1.509c0.285,0.372,0.682,0.557,1.19,0.557
				c0.518,0,0.915-0.185,1.194-0.554s0.418-0.874,0.418-1.512V236.141z"/>
			<path fill="#404041" d="M109.591,242.098h-1.2v-7.72l-1.921,0.018v-0.921l3.121-0.327V242.098z"/>
			<path fill="#404041" d="M117.438,239.129h1.218v0.933h-1.218v2.036h-1.188v-2.036h-3.787v-0.673l3.715-6.114h1.26V239.129z
				 M113.741,239.129h2.509v-4.139l-0.036-0.006l-0.115,0.303L113.741,239.129z"/>
		</g>
		<g>
			<path fill="#404041" d="M210.508,242.101h-1.2v-8.823h1.2V242.101z"/>
			<path fill="#404041" d="M219.119,242.101h-1.194l-4.248-6.739l-0.036,0.012v6.727h-1.194v-8.823h1.194l4.247,6.732l0.037-0.012
				v-6.721h1.194V242.101z"/>
			<path fill="#404041" d="M229.13,242.101h-5.478v-0.818l2.769-3.303c0.493-0.598,0.827-1.074,1.002-1.427s0.264-0.71,0.264-1.069
				c0-0.408-0.119-0.743-0.357-1.003c-0.238-0.261-0.567-0.391-0.987-0.391c-0.521,0-0.918,0.16-1.191,0.479
				c-0.273,0.319-0.409,0.717-0.409,1.194h-1.151l-0.013-0.037c-0.02-0.719,0.221-1.328,0.722-1.827
				c0.5-0.499,1.182-0.748,2.042-0.748c0.787,0,1.407,0.218,1.86,0.654c0.452,0.436,0.678,1,0.678,1.69
				c0,0.465-0.128,0.919-0.385,1.364s-0.647,1.002-1.172,1.672l-2.224,2.606l0.012,0.03h4.018V242.101z"/>
			<path fill="#404041" d="M235.783,238.986c0,0.998-0.253,1.788-0.76,2.369c-0.507,0.582-1.189,0.873-2.045,0.873
				c-0.852,0-1.534-0.291-2.045-0.873c-0.511-0.582-0.767-1.371-0.767-2.369v-2.594c0-0.99,0.254-1.777,0.761-2.363
				c0.507-0.585,1.187-0.878,2.039-0.878c0.856,0,1.54,0.293,2.051,0.878c0.511,0.586,0.767,1.374,0.767,2.363V238.986z
				 M234.59,236.144c0-0.634-0.142-1.135-0.424-1.502s-0.683-0.552-1.2-0.552c-0.513,0-0.909,0.184-1.188,0.552
				c-0.279,0.368-0.418,0.869-0.418,1.502v3.084c0,0.634,0.142,1.137,0.427,1.509c0.285,0.372,0.682,0.557,1.19,0.557
				c0.518,0,0.915-0.185,1.194-0.554s0.418-0.874,0.418-1.512V236.144z"/>
			<path fill="#404041" d="M240.522,242.101h-1.2v-7.72l-1.921,0.018v-0.921l3.121-0.327V242.101z"/>
			<path fill="#404041" d="M244.019,238.18l0.509-4.902h4.418v1.061h-3.412l-0.284,2.539c0.189-0.141,0.399-0.257,0.63-0.349
				c0.23-0.091,0.493-0.138,0.788-0.142c0.815-0.008,1.455,0.248,1.917,0.767s0.694,1.231,0.694,2.136
				c0,0.885-0.237,1.596-0.712,2.133s-1.167,0.806-2.075,0.806c-0.748,0-1.37-0.204-1.867-0.612c-0.497-0.408-0.735-1.008-0.715-1.8
				l0.012-0.036H245c0,0.48,0.139,0.854,0.415,1.118c0.277,0.265,0.636,0.397,1.076,0.397c0.505,0,0.896-0.178,1.175-0.533
				s0.418-0.842,0.418-1.46c0-0.562-0.14-1.016-0.421-1.363s-0.672-0.521-1.172-0.521c-0.469,0-0.809,0.07-1.019,0.212
				s-0.365,0.359-0.466,0.654L244.019,238.18z"/>
		</g>
		<g opacity="0.6">
			<g>
				<rect x="66.364" y="223.888" fill="#66ABCB" width="60.125" height="3"/>
			</g>
		</g>
		<g>
			<path fill="#0074A8" d="M185.072,211.188h-20.796v-4.807l9.55-12.185c1.212-1.687,2.105-3.167,2.678-4.44
				c0.573-1.273,0.86-2.494,0.86-3.662c0-1.573-0.271-2.806-0.812-3.698c-0.542-0.892-1.321-1.338-2.339-1.338
				c-1.115,0-2,0.522-2.654,1.564s-0.981,2.509-0.981,4.399h-6.884c0-2.166,0.448-4.145,1.345-5.939
				c0.897-1.793,2.157-3.188,3.781-4.181c1.624-0.994,3.462-1.491,5.515-1.491c3.15,0,5.595,0.869,7.332,2.605
				c1.736,1.737,2.605,4.206,2.605,7.405c0,1.988-0.481,4.004-1.442,6.048c-0.961,2.044-2.702,4.567-5.223,7.57l-4.533,6.5h11.998
				V211.188z"/>
			<path fill="#0074A8" d="M187.656,207.697c0-1.099,0.367-2.003,1.103-2.714s1.692-1.067,2.872-1.067
				c1.147,0,2.101,0.352,2.86,1.055c0.759,0.703,1.139,1.612,1.139,2.727c0,1.131-0.384,2.041-1.151,2.727
				c-0.768,0.687-1.717,1.03-2.848,1.03c-1.147,0-2.097-0.347-2.848-1.042C188.032,209.718,187.656,208.813,187.656,207.697z"/>
			<path fill="#0074A8" d="M199.571,193.833l1.745-17.937h17.088v5.866h-11.465l-0.63,7.563c1.325-0.889,2.69-1.333,4.096-1.333
				c2.909,0,5.151,1.035,6.726,3.103c1.575,2.069,2.363,4.994,2.363,8.775c0,3.539-0.938,6.391-2.812,8.557
				c-1.875,2.166-4.379,3.248-7.514,3.248c-1.858,0-3.58-0.44-5.163-1.321c-1.584-0.88-2.832-2.104-3.745-3.672
				c-0.913-1.567-1.377-3.345-1.394-5.333h6.787c0.113,1.486,0.477,2.637,1.091,3.454c0.614,0.817,1.405,1.225,2.375,1.225
				c1.131,0,2.003-0.547,2.618-1.642c0.613-1.095,0.921-2.729,0.921-4.903c0-2.043-0.368-3.584-1.103-4.623
				c-0.736-1.038-1.766-1.557-3.09-1.557c-1.293,0-2.295,0.445-3.006,1.333l-0.436,0.606L199.571,193.833z"/>
			<path fill="#0074A8" d="M237.097,184.961l0.194,2.424c1.535-1.939,3.563-2.909,6.083-2.909c2.618,0,4.468,1.18,5.551,3.539
				c1.503-2.359,3.644-3.539,6.423-3.539c4.589,0,6.94,3.175,7.054,9.526v17.186h-6.859v-16.75c0-1.519-0.21-2.602-0.63-3.248
				c-0.42-0.646-1.131-0.97-2.133-0.97c-1.276,0-2.229,0.784-2.86,2.352l0.048,0.824v17.792h-6.859v-16.701
				c0-1.502-0.202-2.589-0.605-3.26c-0.404-0.67-1.124-1.006-2.157-1.006c-1.18,0-2.117,0.639-2.812,1.915v19.052h-6.859v-26.227
				H237.097z"/>
			<path fill="#0074A8" d="M264.985,178.174c0-1.066,0.339-1.939,1.018-2.618s1.583-1.018,2.715-1.018
				c1.131,0,2.036,0.339,2.714,1.018s1.018,1.551,1.018,2.618c0,1.051-0.336,1.923-1.006,2.618c-0.671,0.695-1.58,1.042-2.727,1.042
				c-1.148,0-2.057-0.347-2.727-1.042C265.32,180.097,264.985,179.225,264.985,178.174z M272.184,211.188H265.3v-26.227h6.884
				V211.188z"/>
			<path fill="#0074A8" d="M282.208,211.188h-6.884v-37.232h6.884V211.188z"/>
			<path fill="#0074A8" d="M285.592,207.697c0-1.099,0.368-2.003,1.103-2.714c0.735-0.711,1.693-1.067,2.873-1.067
				c1.147,0,2.1,0.352,2.86,1.055c0.759,0.703,1.139,1.612,1.139,2.727c0,1.131-0.384,2.041-1.151,2.727
				c-0.768,0.687-1.717,1.03-2.848,1.03c-1.147,0-2.097-0.347-2.848-1.042C285.968,209.718,285.592,208.813,285.592,207.697z"/>
		</g>
		<g opacity="0.6">
			<g>
				<rect x="163.344" y="223.556" fill="#66ABCB" width="124.979" height="3"/>
			</g>
		</g>
	</g>
</g>
</svg>
