<?xml version="1.0" encoding="utf-8"?>
<!-- Generator: Adobe Illustrator 16.0.0, SVG Export Plug-In . SVG Version: 6.00 Build 0)  -->
<!DOCTYPE svg PUBLIC "-//W3C//DTD SVG 1.1//EN" "http://www.w3.org/Graphics/SVG/1.1/DTD/svg11.dtd">
<svg version="1.1" id="Layer_1" xmlns="http://www.w3.org/2000/svg" xmlns:xlink="http://www.w3.org/1999/xlink" x="0px" y="0px"
	 width="220px" height="190px" viewBox="0 0 220 190" enable-background="new 0 0 220 190" xml:space="preserve">
	 <g id="figure5">
 		<path fill="#EBD1BC" stroke="#FFF2E8" stroke-width="4" stroke-miterlimit="10" d="M191.697,67.103
 			c-6.395,0-11.607,5.206-11.607,11.603c0,6.4,5.207,11.613,11.607,11.613c6.401,0,11.615-5.213,11.615-11.613
 			C203.316,72.308,198.098,67.103,191.697,67.103z"/>
 		<path fill="#EBD1BC" stroke="#FFF2E8" stroke-width="4" stroke-miterlimit="10" d="M173.492,143.898h36.411v-32.294
 			c0-10.04-8.171-18.2-18.208-18.2c-10.045,0-18.203,8.16-18.203,18.2V143.898z"/>
 	</g>
 	<g id="figure1">
 		<path fill="#EBD1BC" stroke="#FFF2E8" stroke-width="4" stroke-miterlimit="10" d="M28.304,67.103
 			c6.395,0,11.607,5.206,11.607,11.603c0,6.4-5.207,11.613-11.607,11.613c-6.401,0-11.615-5.213-11.615-11.613
 			C16.685,72.308,21.902,67.103,28.304,67.103z"/>
 		<path fill="#EBD1BC" stroke="#FFF2E8" stroke-width="4" stroke-miterlimit="10" d="M46.508,143.898H10.097v-32.294
 			c0-10.04,8.171-18.2,18.208-18.2c10.045,0,18.203,8.16,18.203,18.2V143.898z"/>
 	</g>
 	<g id="figure4">
 		<path fill="#EBD1BC" stroke="#FFF2E8" stroke-width="4" stroke-miterlimit="10" d="M157.983,45.527
 			c-9.511,0-17.264,7.743-17.264,17.26c0,9.518,7.745,17.27,17.264,17.27c9.521,0,17.275-7.752,17.275-17.27
 			C175.266,53.268,167.504,45.527,157.983,45.527z"/>
 		<path fill="#EBD1BC" stroke="#FFF2E8" stroke-width="4" stroke-miterlimit="10" d="M130.907,159.747h54.155v-48.031
 			c0-14.932-12.151-27.07-27.081-27.07c-14.94,0-27.074,12.138-27.074,27.07V159.747z"/>
 	</g>
 	<g id="figure2">
 		<path fill="#EBD1BC" stroke="#FFF2E8" stroke-width="4" stroke-miterlimit="10" d="M62.017,45.527
 			c9.511,0,17.264,7.743,17.264,17.26c0,9.518-7.746,17.27-17.264,17.27c-9.521,0-17.275-7.752-17.275-17.27
 			C44.735,53.268,52.496,45.527,62.017,45.527z"/>
 		<path fill="#EBD1BC" stroke="#FFF2E8" stroke-width="4" stroke-miterlimit="10" d="M89.093,159.747H34.937v-48.031
 			c0-14.932,12.152-27.07,27.083-27.07c14.94,0,27.073,12.138,27.073,27.07V159.747z"/>
 	</g>
 	<g id="figure3">
 		<path fill="#EBD1BC" stroke="#FFF2E8" stroke-width="4" stroke-miterlimit="10" d="M109.998,12.5
 			c-13.74,0-24.938,11.186-24.938,24.933c0,13.75,11.189,24.948,24.938,24.948c13.754,0,24.956-11.198,24.956-24.948
 			C134.963,23.684,123.752,12.5,109.998,12.5z"/>
 		<path fill="#EBD1BC" stroke="#FFF2E8" stroke-width="4" stroke-miterlimit="10" d="M70.883,177.5h78.234v-69.385
 			c0-21.571-17.556-39.105-39.123-39.105c-21.583,0-39.111,17.535-39.111,39.105V177.5z"/>
 	</g>
</svg>
