<?xml version="1.0" encoding="utf-8"?>
<!-- Generator: Adobe Illustrator 16.0.0, SVG Export Plug-In . SVG Version: 6.00 Build 0)  -->
<!DOCTYPE svg PUBLIC "-//W3C//DTD SVG 1.1//EN" "http://www.w3.org/Graphics/SVG/1.1/DTD/svg11.dtd">
<svg version="1.1" id="Layer_1" xmlns="http://www.w3.org/2000/svg" xmlns:xlink="http://www.w3.org/1999/xlink" x="0px" y="0px"
	 width="190px" height="190px" viewBox="0 0 190 190" enable-background="new 0 0 190 190" xml:space="preserve">
<circle fill="#EBD1BC" cx="95.001" cy="95" r="82.5"/>
<path id="active7" fill="#FFF2E8" d="M53.75,33.265c4.301-2.872,10.16-1.308,12.452,3.335L84.6,73.911c0.683,1.39,0.233,3.079-1.059,3.938
	c-1.292,0.866-3.025,0.637-4.046-0.53L52.066,46.044C48.651,42.151,49.448,36.137,53.75,33.265z"/>
<path id="active6" fill="#FFF2E8" d="M33.263,53.751c2.872-4.301,8.886-5.1,12.781-1.685l31.274,27.429c1.166,1.023,1.396,2.754,0.532,4.048
	c-0.861,1.292-2.549,1.742-3.941,1.059l-37.311-18.4C31.953,63.912,30.391,58.051,33.263,53.751z"/>
<path id="active5" fill="#FFF2E8" d="M22.176,80.516c1.01-5.073,6.257-8.112,11.162-6.446l39.392,13.37c1.468,0.499,2.344,2.015,2.04,3.536
	c-0.302,1.524-1.69,2.589-3.239,2.486l-41.509-2.721C24.855,90.404,21.168,85.589,22.176,80.516z"/>
<path id="active4" fill="#FFF2E8" d="M22.176,109.486c-1.008-5.071,2.679-9.888,7.846-10.225l41.511-2.721c1.547-0.103,2.935,0.96,3.237,2.484
	c0.304,1.524-0.57,3.037-2.04,3.536l-39.392,13.372C28.433,117.598,23.187,114.559,22.176,109.486z"/>
<path id="active3" fill="#FFF2E8" d="M33.263,136.25c-2.872-4.299-1.308-10.16,3.335-12.449L73.909,105.4c1.392-0.684,3.08-0.232,3.941,1.057
	c0.866,1.293,0.637,3.027-0.532,4.05l-31.274,27.429C42.151,141.349,36.135,140.552,33.263,136.25z"/>
<path id="active2" fill="#FFF2E8" d="M53.75,156.737c-4.302-2.874-5.098-8.886-1.683-12.781l27.429-31.275c1.021-1.166,2.754-1.394,4.046-0.53
	c1.291,0.861,1.746,2.549,1.059,3.941l-18.398,37.311C63.91,158.047,58.051,159.611,53.75,156.737z"/>
<path id="active1" fill="#FFF2E8" d="M90.741,159.978c-0.337,5.167-5.155,8.856-10.225,7.846c-5.073-1.01-8.112-6.259-6.444-11.162l13.37-39.393
	c0.497-1.467,2.012-2.341,3.534-2.04c1.522,0.302,2.587,1.689,2.484,3.237L90.741,159.978z"/>
<path id="active8" fill="#FFF2E8" d="M90.976,74.772c-1.522,0.302-3.037-0.572-3.534-2.04L74.068,33.341c-1.664-4.905,1.373-10.154,6.446-11.163
	c5.073-1.008,9.89,2.679,10.225,7.846l2.725,41.512C93.563,73.081,92.5,74.469,90.976,74.772z"/>
<path fill="#FFF2E8" d="M167.822,80.514c1.01,5.073-2.677,9.89-7.846,10.228l-41.509,2.721c-1.547,0.103-2.935-0.962-3.239-2.486
	c-0.304-1.521,0.57-3.037,2.04-3.534l39.394-13.372C161.564,72.404,166.815,75.443,167.822,80.514z"/>
<path fill="#FFF2E8" d="M156.737,53.751c2.87,4.297,1.308,10.158-3.337,12.45l-37.311,18.4c-1.39,0.684-3.077,0.233-3.941-1.059
	c-0.864-1.293-0.635-3.025,0.533-4.048l31.275-27.429C147.851,48.651,153.863,49.45,156.737,53.751z"/>
<path id="active10" fill="#FFF2E8" d="M136.249,33.263c4.301,2.874,5.098,8.888,1.685,12.781l-27.429,31.275c-1.023,1.166-2.754,1.396-4.048,0.53
	c-1.289-0.861-1.742-2.547-1.057-3.938l18.401-37.313C126.092,31.955,131.951,30.394,136.249,33.263z"/>
<path id="active9" fill="#FFF2E8" d="M99.258,30.024c0.338-5.167,5.153-8.856,10.226-7.846c5.073,1.008,8.112,6.257,6.446,11.16l-13.37,39.393
	c-0.499,1.469-2.015,2.343-3.536,2.042c-1.524-0.304-2.587-1.689-2.486-3.236L99.258,30.024z"/>
<path fill="#FFF2E8" d="M109.484,167.824c-5.073,1.01-9.886-2.679-10.226-7.846l-2.721-41.511c-0.101-1.547,0.962-2.935,2.486-3.237
	c1.522-0.302,3.037,0.572,3.536,2.04l13.37,39.393C117.596,161.564,114.561,166.815,109.484,167.824z"/>
<path fill="#FFF2E8" d="M136.249,156.737c-4.297,2.874-10.156,1.308-12.448-3.335L105.4,116.091c-0.686-1.39-0.233-3.08,1.057-3.941
	c1.293-0.864,3.025-0.635,4.048,0.53l27.431,31.275C141.346,147.851,140.55,153.863,136.249,156.737z"/>
<path fill="#FFF2E8" d="M156.737,136.25c-2.874,4.301-8.886,5.098-12.781,1.686l-31.275-27.429c-1.168-1.023-1.396-2.756-0.533-4.05
	c0.864-1.289,2.549-1.742,3.941-1.057l37.311,18.398C158.045,126.09,159.606,131.949,156.737,136.25z"/>
<path fill="#FFF2E8" d="M167.822,109.486c-1.006,5.071-6.257,8.11-11.16,6.446l-39.394-13.372c-1.469-0.499-2.344-2.012-2.04-3.536
	c0.304-1.524,1.688-2.587,3.236-2.484l41.512,2.721C165.145,99.598,168.832,104.413,167.822,109.486z"/>
</svg>
