<?xml version="1.0" encoding="utf-8"?>
<!-- Generator: Adobe Illustrator 16.0.0, SVG Export Plug-In . SVG Version: 6.00 Build 0)  -->
<!DOCTYPE svg PUBLIC "-//W3C//DTD SVG 1.1//EN" "http://www.w3.org/Graphics/SVG/1.1/DTD/svg11.dtd">
<svg version="1.1" xmlns="http://www.w3.org/2000/svg" xmlns:xlink="http://www.w3.org/1999/xlink" x="0px" y="0px" width="100%"
	 height="100%" viewBox="0 0 360 360" enable-background="new 0 0 360 360" xml:space="preserve" class="c-infographic-svg">
<g id="Layer_1">
	<g>
		<rect fill="#ECEDED" width="360" height="360"/>
	</g>
	<g>
		<g id="person-9">
			<g>
				<path fill="#808184" d="M286.554,96.858c3.063,0,5.56-2.496,5.56-5.559c0.003-3.065-2.497-5.559-5.56-5.559
					s-5.556,2.495-5.556,5.559S283.491,96.858,286.554,96.858z"/>
			</g>
			<g>
				<path fill="#808184" d="M286.499,98.335c-4.811,0-8.499,3.909-8.499,8.715V123h17v-15.949
					C295,102.245,291.304,98.335,286.499,98.335z"/>
			</g>
		</g>
		<g id="person-8">
			<g>
				<path fill="#808184" d="M257,130v-23.262c0-6.21,3.94-11.474,9.601-13.182c-3.21-1.5-5.536-4.762-5.536-8.535
					c0-5.19,4.173-9.414,9.362-9.414c2.51,0,4.849,0.979,6.629,2.758c1.783,1.781,2.751,4.145,2.75,6.657
					c0,3.771-2.309,7.033-5.521,8.534c5.66,1.708,9.716,6.971,9.716,13.182V130H257z"/>
			</g>
			<g>
				<path fill="#EAEBEC" d="M270.378,77.357c4.221,0,7.669,3.437,7.665,7.664c0,4.223-3.444,7.665-7.665,7.665
					c-4.224,0-7.66-3.441-7.66-7.665C262.718,80.797,266.154,77.357,270.378,77.357 M269.999,94.722
					c6.624,0,12.001,5.389,12.001,12.016V128h-24v-21.262C258,100.111,263.366,94.722,269.999,94.722 M270.378,73.857
					c-6.154,0-11.16,5.008-11.16,11.164c0,3.23,1.446,6.144,3.646,8.184c-4.73,2.661-7.863,7.729-7.863,13.533v21.319V132h3.363
					h24.032H286v-3.943v-21.319c0-5.802-3.254-10.871-7.983-13.532c2.2-2.041,3.553-4.955,3.553-8.185
					c0.003-2.977-1.173-5.781-3.288-7.893C276.17,75.019,273.355,73.857,270.378,73.857L270.378,73.857z"/>
			</g>
		</g>
		<g id="person-7">
			<g>
				<path fill="#808184" d="M231,140v-31.124c0-8.89,6.549-16.313,14.95-17.911c-5.279-1.366-9.1-6.17-9.1-11.872
					c0-6.761,5.542-12.262,12.3-12.262c3.269,0,6.368,1.276,8.688,3.594c2.321,2.32,3.61,5.398,3.607,8.669
					c0,5.607-3.621,10.348-8.771,11.801c8.592,1.44,15.326,8.955,15.326,17.98V140H231z"/>
			</g>
			<g>
				<path fill="#EAEBEC" d="M249.194,68.583c5.789,0,10.517,4.714,10.512,10.512c0,5.791-4.723,10.51-10.512,10.51
					c-5.793,0-10.506-4.719-10.506-10.51C238.688,73.299,243.401,68.583,249.194,68.583 M249.498,92.397
					c9.085,0,16.502,7.391,16.502,16.479V138h-33v-29.124C233,99.789,240.402,92.397,249.498,92.397 M249.194,65.083
					c-7.723,0-14.006,6.286-14.006,14.012c0,4.805,2.629,9.052,6.324,11.577c-6.9,3.142-11.513,10.121-11.513,18.205v29.003V141
					h3.104h32.828H269v-3.121v-29.003c0-8.237-4.779-15.326-11.89-18.378c3.557-2.543,5.988-6.708,5.988-11.404
					c0.003-3.736-1.402-7.255-4.056-9.906C256.393,66.541,252.93,65.083,249.194,65.083L249.194,65.083z"/>
			</g>
		</g>
		<g id="person-6">
			<g>
				<g>
					<path class="person-head" fill="#808184" d="M220.6,82.777c-9.283,0-16.836-7.556-16.836-16.843s7.553-16.843,16.836-16.843
						c4.49,0,8.718,1.753,11.904,4.937c3.189,3.187,4.944,7.416,4.939,11.908C237.443,75.222,229.888,82.777,220.6,82.777z"/>
				</g>
				<g>
					<path fill="#EAEBEC" d="M220.6,51.092c8.176,0,14.852,6.656,14.844,14.843c0,8.179-6.668,14.843-14.844,14.843
						c-8.18,0-14.836-6.664-14.836-14.843C205.764,57.753,212.42,51.092,220.6,51.092 M220.6,47.092
						c-10.386,0-18.836,8.453-18.836,18.843s8.45,18.843,18.836,18.843c10.391,0,18.844-8.453,18.844-18.843
						c0.005-5.024-1.958-9.756-5.526-13.321C230.354,49.053,225.624,47.092,220.6,47.092L220.6,47.092z"/>
				</g>
			</g>
			<g>
				<g>
					<path class="person-body" fill="#808184" d="M195,151v-43.007c0-13.934,11.565-25.271,25.499-25.271c13.936,0,25.501,11.336,25.501,25.271V151H195z
						"/>
				</g>
				<g>
					<path fill="#EAEBEC" d="M220.499,84.722c12.828,0,23.501,10.437,23.501,23.271V149h-47v-41.007
						C197,95.159,207.653,84.722,220.499,84.722 M220.499,80.722c-15.037,0-27.499,12.233-27.499,27.271v41.289V153h4.33h46.542H248
						v-3.718v-41.289C248,92.956,235.537,80.722,220.499,80.722L220.499,80.722z"/>
				</g>
			</g>
		</g>
		<g id="person-1">
			<g>
				<path fill="#808184" d="M73.446,96.858c-3.063,0-5.56-2.496-5.56-5.559c-0.003-3.065,2.497-5.559,5.56-5.559
					s5.556,2.495,5.556,5.559S76.509,96.858,73.446,96.858z"/>
			</g>
			<g>
				<path fill="#808184" d="M73.501,98.335c4.81,0,8.499,3.909,8.499,8.715V123H65v-15.949C65,102.245,68.696,98.335,73.501,98.335z
					"/>
			</g>
		</g>
		<g id="person-2">
			<g>
				<path fill="#808184" d="M76,130v-23.262c0-6.21,4.061-11.473,9.722-13.182c-3.211-1.501-5.479-4.763-5.479-8.535
					c-0.002-2.51,0.96-4.874,2.743-6.655c1.781-1.779,4.135-2.759,6.644-2.759c5.189,0,9.407,4.223,9.407,9.414
					c0,3.772-2.425,7.034-5.635,8.535c5.66,1.709,9.599,6.972,9.599,13.182V130H76z"/>
			</g>
			<g>
				<path fill="#EAEBEC" d="M89.621,77.357c4.225,0,7.661,3.439,7.661,7.664c0,4.223-3.437,7.665-7.661,7.665
					c-4.221,0-7.664-3.441-7.664-7.665C81.953,80.794,85.4,77.357,89.621,77.357 M90,94.722c6.634,0,12,5.389,12,12.016V128H78
					v-21.262C78,100.111,83.377,94.722,90,94.722 M89.621,73.857c-2.977,0-5.779,1.162-7.89,3.271
					c-2.114,2.112-3.277,4.916-3.274,7.896c0,3.228,1.326,6.142,3.526,8.182C77.254,95.867,74,100.936,74,106.738v21.319V132h3.605
					h24.031H105v-3.943v-21.319c0-5.802-3.134-10.872-7.863-13.533c2.199-2.04,3.611-4.954,3.611-8.184
					C100.748,78.865,95.775,73.857,89.621,73.857L89.621,73.857z"/>
			</g>
		</g>
		<g id="person-3">
			<g>
				<path fill="#808184" d="M92,140v-31.124c0-9.025,6.729-16.54,15.321-17.98c-5.151-1.453-8.857-6.193-8.857-11.802
					c-0.003-3.27,1.314-6.348,3.635-8.668c2.32-2.317,5.417-3.594,8.686-3.594c6.758,0,12.266,5.5,12.266,12.262
					c0,5.701-3.729,10.506-9.007,11.872c8.4,1.598,14.955,9.021,14.955,17.911V140H92z"/>
			</g>
			<g>
				<path fill="#EAEBEC" d="M110.806,68.583c5.793,0,10.506,4.717,10.506,10.512c0,5.791-4.713,10.51-10.506,10.51
					c-5.789,0-10.512-4.719-10.512-10.51C100.289,73.296,105.017,68.583,110.806,68.583 M110.501,92.397
					c9.097,0,16.499,7.391,16.499,16.479V138H94v-29.124C94,99.789,101.417,92.397,110.501,92.397 M110.806,65.083
					c-3.736,0-7.252,1.458-9.902,4.106c-2.653,2.65-4.112,6.169-4.109,9.909c0,4.695,2.538,8.858,6.096,11.401
					C95.778,93.55,91,100.639,91,108.876v29.003V141h3.069h32.828H130v-3.121v-29.003c0-8.084-4.612-15.063-11.513-18.205
					c3.696-2.525,6.226-6.773,6.226-11.578C124.712,71.368,118.528,65.083,110.806,65.083L110.806,65.083z"/>
			</g>
		</g>
		<g id="person-4">
			<g>
				<g>
					<path class="person-head" fill="#808184" d="M139.4,82.777c-9.288,0-16.844-7.556-16.844-16.843c-0.004-4.491,1.75-8.72,4.939-11.906
						c3.187-3.184,7.414-4.937,11.904-4.937c9.283,0,16.836,7.556,16.836,16.843S148.684,82.777,139.4,82.777z"/>
				</g>
				<g>
					<path fill="#EAEBEC" d="M139.4,51.092c8.18,0,14.836,6.661,14.836,14.843c0,8.179-6.656,14.843-14.836,14.843
						c-8.176,0-14.844-6.664-14.844-14.843C124.549,57.748,131.225,51.092,139.4,51.092 M139.4,47.092
						c-5.024,0-9.754,1.961-13.318,5.521c-3.568,3.565-5.531,8.297-5.526,13.325c0,10.386,8.453,18.839,18.844,18.839
						c10.386,0,18.836-8.453,18.836-18.843S149.787,47.092,139.4,47.092L139.4,47.092z"/>
				</g>
			</g>
			<g>
				<g>
					<path class="person-body" fill="#808184" d="M114,151v-43.007c0-13.934,11.566-25.271,25.501-25.271c13.934,0,25.499,11.336,25.499,25.271V151H114z
						"/>
				</g>
				<g>
					<path fill="#EAEBEC" d="M139.501,84.722c12.846,0,23.499,10.437,23.499,23.271V149h-47v-41.007
						C116,95.159,126.673,84.722,139.501,84.722 M139.501,80.722c-15.038,0-27.501,12.233-27.501,27.271v41.289V153h4.128h46.542
						H167v-3.718v-41.289C167,92.956,154.538,80.722,139.501,80.722L139.501,80.722z"/>
				</g>
			</g>
		</g>
		<g id="person-5">
			<g>
				<g>
					<path class="person-head" fill="#808184" d="M180.061,67.327c-13.042,0-23.651-10.617-23.651-23.666c0-13.046,10.609-23.661,23.651-23.661
						c6.309,0,12.249,2.463,16.727,6.936c4.48,4.476,6.945,10.417,6.94,16.727C203.728,56.71,193.11,67.327,180.061,67.327z"/>
				</g>
				<g >
					<path fill="#EAEBEC" d="M180.061,22.5c11.66,0,21.177,9.492,21.167,21.161c0,11.663-9.507,21.166-21.167,21.166
						c-11.662,0-21.151-9.503-21.151-21.166C158.909,31.999,168.398,22.5,180.061,22.5 M180.061,17.5
						c-14.42,0-26.151,11.735-26.151,26.161c0,14.428,11.731,26.166,26.151,26.166c14.429,0,26.167-11.738,26.167-26.166
						c0.006-6.975-2.719-13.544-7.674-18.494C193.604,20.223,187.037,17.5,180.061,17.5L180.061,17.5z"/>
				</g>
			</g>
			<g>
				<g>
					<path class="person-body" fill="#808184" d="M144,165v-61.371c0-19.673,16.324-35.679,35.996-35.679c19.676,0,36.004,16.005,36.004,35.679V165H144z
						"/>
				</g>
				<g>
					<path fill="#EAEBEC" d="M179.996,70.45c18.291,0,33.004,14.881,33.004,33.179V163h-66v-59.371
						C147,85.332,161.683,70.45,179.996,70.45 M179.996,65.45c-21.05,0-37.996,17.127-37.996,38.179V162.5v5.5h4.885h66.358H218
						v-5.5v-58.871C218,82.577,201.051,65.45,179.996,65.45L179.996,65.45z"/>
				</g>
			</g>
		</g>
	</g>
</g>
<g id="Layer_2">
	<g>
		<g>
			<path fill="#799DC4" d="M30.02,337.412v-19.906h6.494c2.078,0,3.705,0.449,4.881,1.347c1.176,0.898,1.764,2.245,1.764,4.04
				c0,0.857-0.265,1.625-0.793,2.304c-0.529,0.679-1.23,1.196-2.105,1.552c1.303,0.183,2.335,0.748,3.097,1.695
				c0.761,0.948,1.142,2.064,1.142,3.35c0,1.823-0.593,3.215-1.777,4.177c-1.185,0.962-2.789,1.442-4.813,1.442H30.02z
				 M32.713,325.968h4.361c1.002,0,1.818-0.275,2.447-0.827c0.629-0.551,0.943-1.319,0.943-2.304c0-1.075-0.34-1.88-1.019-2.413
				c-0.679-0.533-1.657-0.8-2.933-0.8h-3.801V325.968z M32.713,328.074v7.232h5.195c1.23,0,2.185-0.303,2.864-0.909
				c0.679-0.606,1.019-1.465,1.019-2.577c0-1.103-0.347-1.991-1.039-2.666c-0.693-0.674-1.627-1.034-2.803-1.08h-0.178H32.713z"/>
			<path fill="#799DC4" d="M46.822,329.878c0-2.188,0.592-3.99,1.777-5.407c1.185-1.417,2.793-2.126,4.826-2.126
				c2.051,0,3.671,0.707,4.86,2.119c1.189,1.413,1.784,3.218,1.784,5.414v0.301c0,2.206-0.593,4.011-1.777,5.414
				c-1.185,1.404-2.798,2.105-4.84,2.105c-2.042,0-3.657-0.704-4.847-2.112s-1.784-3.21-1.784-5.407V329.878z M49.516,330.179
				c0,1.568,0.33,2.862,0.991,3.883c0.661,1.021,1.643,1.531,2.946,1.531c1.285,0,2.26-0.51,2.926-1.531
				c0.665-1.021,0.998-2.315,0.998-3.883v-0.301c0-1.549-0.335-2.839-1.005-3.869c-0.67-1.03-1.652-1.545-2.946-1.545
				c-1.285,0-2.258,0.515-2.919,1.545c-0.661,1.03-0.991,2.32-0.991,3.869V330.179z"/>
			<path fill="#799DC4" d="M71.965,333.433c0-0.592-0.226-1.075-0.677-1.449c-0.451-0.374-1.306-0.702-2.563-0.984
				c-1.741-0.374-3.079-0.897-4.013-1.572c-0.935-0.674-1.401-1.577-1.401-2.707c0-1.203,0.513-2.233,1.538-3.09
				c1.025-0.856,2.354-1.285,3.985-1.285c1.677,0,3.035,0.456,4.074,1.367c1.039,0.912,1.536,1.974,1.49,3.186l-0.027,0.082h-2.57
				c0-0.638-0.28-1.217-0.841-1.736s-1.27-0.779-2.126-0.779c-0.948,0-1.657,0.214-2.126,0.643c-0.47,0.429-0.704,0.939-0.704,1.531
				c0,0.583,0.203,1.035,0.608,1.354c0.405,0.319,1.242,0.611,2.509,0.875c1.813,0.383,3.19,0.925,4.129,1.627
				c0.938,0.702,1.408,1.618,1.408,2.748c0,1.313-0.531,2.384-1.593,3.213c-1.062,0.83-2.45,1.244-4.163,1.244
				c-1.887,0-3.373-0.479-4.457-1.436c-1.085-0.957-1.6-2.073-1.545-3.35l0.027-0.082h2.57c0.045,0.957,0.401,1.657,1.066,2.099
				c0.665,0.442,1.444,0.663,2.338,0.663c0.957,0,1.707-0.203,2.249-0.608C71.693,334.58,71.965,334.062,71.965,333.433z"/>
			<path fill="#799DC4" d="M80.414,322.619l0.191,2.201c0.492-0.784,1.109-1.392,1.853-1.825c0.743-0.433,1.588-0.649,2.536-0.649
				c1.595,0,2.83,0.467,3.705,1.401c0.875,0.935,1.313,2.377,1.313,4.327v9.338h-2.693v-9.283c0-1.303-0.258-2.229-0.772-2.775
				c-0.515-0.547-1.301-0.82-2.358-0.82c-0.83,0-1.534,0.167-2.112,0.499c-0.579,0.333-1.037,0.8-1.374,1.401v10.979h-2.693v-14.793
				H80.414z"/>
			<path fill="#799DC4" d="M96.834,318.832h-2.693v-2.748h2.693V318.832z M96.834,337.412h-2.693v-14.793h2.693V337.412z"/>
			<path fill="#799DC4" d="M110.068,337.412c-0.091-0.446-0.162-0.841-0.212-1.183c-0.05-0.342-0.08-0.686-0.089-1.032
				c-0.501,0.711-1.155,1.306-1.962,1.784s-1.675,0.718-2.604,0.718c-1.541,0-2.714-0.394-3.521-1.183
				c-0.807-0.788-1.21-1.875-1.21-3.261c0-1.413,0.572-2.518,1.716-3.315c1.144-0.797,2.695-1.196,4.655-1.196h2.926v-1.463
				c0-0.866-0.265-1.552-0.793-2.058c-0.529-0.506-1.276-0.759-2.242-0.759c-0.875,0-1.582,0.219-2.119,0.656
				c-0.538,0.438-0.807,0.962-0.807,1.572l-2.557,0.027l-0.027-0.082c-0.064-1.075,0.439-2.06,1.511-2.953
				c1.071-0.893,2.454-1.34,4.149-1.34c1.677,0,3.026,0.426,4.047,1.278c1.021,0.853,1.531,2.081,1.531,3.685v7.123
				c0,0.529,0.027,1.039,0.082,1.531s0.155,0.976,0.301,1.449H110.068z M105.598,335.443c0.975,0,1.854-0.25,2.639-0.752
				c0.784-0.501,1.294-1.075,1.531-1.723v-2.406h-3.021c-1.085,0-1.953,0.273-2.604,0.82c-0.652,0.547-0.978,1.189-0.978,1.928
				c0,0.656,0.205,1.176,0.615,1.559S104.795,335.443,105.598,335.443z"/>
			<path fill="#799DC4" d="M132.422,337.412c-0.091-0.446-0.162-0.841-0.212-1.183c-0.05-0.342-0.08-0.686-0.089-1.032
				c-0.501,0.711-1.155,1.306-1.962,1.784s-1.675,0.718-2.604,0.718c-1.541,0-2.714-0.394-3.521-1.183
				c-0.807-0.788-1.21-1.875-1.21-3.261c0-1.413,0.572-2.518,1.716-3.315c1.144-0.797,2.695-1.196,4.655-1.196h2.926v-1.463
				c0-0.866-0.265-1.552-0.793-2.058c-0.529-0.506-1.276-0.759-2.242-0.759c-0.875,0-1.582,0.219-2.119,0.656
				c-0.538,0.438-0.807,0.962-0.807,1.572l-2.557,0.027l-0.027-0.082c-0.064-1.075,0.439-2.06,1.511-2.953
				c1.071-0.893,2.454-1.34,4.149-1.34c1.677,0,3.026,0.426,4.047,1.278c1.021,0.853,1.531,2.081,1.531,3.685v7.123
				c0,0.529,0.027,1.039,0.082,1.531s0.155,0.976,0.301,1.449H132.422z M127.951,335.443c0.975,0,1.854-0.25,2.639-0.752
				c0.784-0.501,1.294-1.075,1.531-1.723v-2.406H129.1c-1.085,0-1.953,0.273-2.604,0.82c-0.652,0.547-0.978,1.189-0.978,1.928
				c0,0.656,0.205,1.176,0.615,1.559S127.149,335.443,127.951,335.443z"/>
			<path fill="#799DC4" d="M141.131,322.619l0.191,2.201c0.492-0.784,1.109-1.392,1.853-1.825c0.743-0.433,1.588-0.649,2.536-0.649
				c1.595,0,2.83,0.467,3.705,1.401c0.875,0.935,1.313,2.377,1.313,4.327v9.338h-2.693v-9.283c0-1.303-0.258-2.229-0.772-2.775
				c-0.515-0.547-1.301-0.82-2.358-0.82c-0.83,0-1.534,0.167-2.112,0.499c-0.579,0.333-1.037,0.8-1.374,1.401v10.979h-2.693v-14.793
				H141.131z"/>
			<path fill="#799DC4" d="M154.023,330.289c0-2.379,0.508-4.297,1.524-5.756c1.016-1.458,2.44-2.188,4.272-2.188
				c0.866,0,1.634,0.16,2.304,0.479c0.67,0.319,1.242,0.784,1.716,1.395v-8.135h2.693v21.328h-2.064l-0.41-1.873
				c-0.483,0.711-1.08,1.249-1.791,1.613s-1.536,0.547-2.475,0.547c-1.805,0-3.218-0.654-4.238-1.962
				c-1.021-1.308-1.531-3.028-1.531-5.161V330.289z M156.717,330.576c0,1.495,0.305,2.691,0.916,3.589
				c0.61,0.898,1.559,1.347,2.844,1.347c0.802,0,1.477-0.182,2.023-0.547c0.547-0.364,0.993-0.875,1.34-1.531v-6.904
				c-0.347-0.61-0.795-1.096-1.347-1.456c-0.552-0.36-1.215-0.54-1.989-0.54c-1.294,0-2.249,0.533-2.864,1.6
				s-0.923,2.452-0.923,4.156V330.576z"/>
			<path fill="#799DC4" d="M192.934,337.412h-2.693v-8.791h-9.666v8.791h-2.693v-19.906h2.693v8.996h9.666v-8.996h2.693V337.412z"/>
			<path fill="#799DC4" d="M203.338,337.699c-2.124,0-3.78-0.679-4.97-2.037c-1.189-1.358-1.784-3.145-1.784-5.359v-0.602
				c0-2.124,0.613-3.88,1.839-5.271c1.226-1.39,2.723-2.085,4.491-2.085c1.978,0,3.461,0.615,4.45,1.846
				c0.989,1.23,1.483,2.867,1.483,4.908v1.422h-9.461l-0.041,0.068c0,1.486,0.328,2.691,0.984,3.616
				c0.656,0.925,1.659,1.388,3.008,1.388c0.911,0,1.711-0.13,2.399-0.39c0.688-0.26,1.278-0.617,1.771-1.073l1.053,1.75
				c-0.529,0.511-1.226,0.941-2.092,1.292C205.603,337.523,204.559,337.699,203.338,337.699z M202.914,324.464
				c-0.939,0-1.716,0.362-2.331,1.087s-0.991,1.652-1.128,2.782l0.027,0.068h6.672v-0.219c0-1.075-0.265-1.964-0.793-2.666
				C204.833,324.815,204.017,324.464,202.914,324.464z"/>
			<path fill="#799DC4" d="M218.869,324.998l-1.381-0.082c-0.711,0-1.311,0.169-1.798,0.506c-0.488,0.337-0.864,0.812-1.128,1.422
				v10.568h-2.693v-14.793h2.406l0.26,2.16c0.419-0.766,0.937-1.362,1.552-1.791c0.615-0.428,1.324-0.643,2.126-0.643
				c0.2,0,0.392,0.016,0.574,0.048c0.182,0.032,0.333,0.066,0.451,0.103L218.869,324.998z"/>
			<path fill="#799DC4" d="M224.215,335.306h8.545v2.105h-11.758v-1.887L229,324.751h-7.902v-2.133h11.197v1.832L224.215,335.306z"
				/>
			<path fill="#799DC4" d="M241.66,337.699c-2.124,0-3.78-0.679-4.97-2.037c-1.189-1.358-1.784-3.145-1.784-5.359v-0.602
				c0-2.124,0.613-3.88,1.839-5.271c1.226-1.39,2.723-2.085,4.491-2.085c1.978,0,3.461,0.615,4.45,1.846
				c0.989,1.23,1.483,2.867,1.483,4.908v1.422h-9.461l-0.041,0.068c0,1.486,0.328,2.691,0.984,3.616
				c0.656,0.925,1.659,1.388,3.008,1.388c0.911,0,1.711-0.13,2.399-0.39c0.688-0.26,1.278-0.617,1.771-1.073l1.053,1.75
				c-0.529,0.511-1.226,0.941-2.092,1.292C243.925,337.523,242.881,337.699,241.66,337.699z M241.236,324.464
				c-0.939,0-1.716,0.362-2.331,1.087s-0.991,1.652-1.128,2.782l0.027,0.068h6.672v-0.219c0-1.075-0.265-1.964-0.793-2.666
				C243.155,324.815,242.339,324.464,241.236,324.464z"/>
			<path fill="#799DC4" d="M249.713,330.289c0-2.379,0.508-4.297,1.524-5.756c1.016-1.458,2.436-2.188,4.259-2.188
				c0.938,0,1.764,0.189,2.475,0.567c0.711,0.378,1.308,0.923,1.791,1.634l0.328-1.928h2.146v14.875
				c0,1.896-0.552,3.352-1.654,4.368c-1.103,1.016-2.693,1.524-4.771,1.524c-0.711,0-1.479-0.098-2.304-0.294
				c-0.825-0.196-1.552-0.463-2.181-0.8l0.41-2.092c0.52,0.273,1.146,0.494,1.88,0.663c0.733,0.168,1.456,0.253,2.167,0.253
				c1.313,0,2.267-0.299,2.864-0.896c0.597-0.597,0.896-1.506,0.896-2.728v-1.682c-0.483,0.62-1.062,1.089-1.736,1.408
				c-0.675,0.319-1.454,0.479-2.338,0.479c-1.805,0-3.215-0.654-4.231-1.962c-1.017-1.308-1.524-3.028-1.524-5.161V330.289z
				 M252.406,330.576c0,1.486,0.305,2.68,0.916,3.582c0.61,0.902,1.554,1.354,2.83,1.354c0.811,0,1.49-0.185,2.037-0.554
				s0.998-0.891,1.354-1.565v-6.809c-0.347-0.629-0.798-1.128-1.354-1.497c-0.556-0.369-1.226-0.554-2.01-0.554
				c-1.285,0-2.235,0.533-2.851,1.6s-0.923,2.452-0.923,4.156V330.576z"/>
			<path fill="#799DC4" d="M265.477,329.878c0-2.188,0.592-3.99,1.777-5.407c1.185-1.417,2.793-2.126,4.826-2.126
				c2.051,0,3.671,0.707,4.86,2.119c1.189,1.413,1.784,3.218,1.784,5.414v0.301c0,2.206-0.593,4.011-1.777,5.414
				c-1.185,1.404-2.798,2.105-4.84,2.105c-2.042,0-3.657-0.704-4.847-2.112s-1.784-3.21-1.784-5.407V329.878z M268.17,330.179
				c0,1.568,0.33,2.862,0.991,3.883c0.661,1.021,1.643,1.531,2.946,1.531c1.285,0,2.26-0.51,2.926-1.531
				c0.665-1.021,0.998-2.315,0.998-3.883v-0.301c0-1.549-0.335-2.839-1.005-3.869c-0.67-1.03-1.652-1.545-2.946-1.545
				c-1.285,0-2.258,0.515-2.919,1.545c-0.661,1.03-0.991,2.32-0.991,3.869V330.179z"/>
			<path fill="#799DC4" d="M286.75,333.05l0.232,1.039h0.082l0.26-1.039l3.404-10.432h2.748l-5.441,14.793h-2.037l-5.51-14.793
				h2.762L286.75,333.05z"/>
			<path fill="#799DC4" d="M298.809,318.832h-2.693v-2.748h2.693V318.832z M298.809,337.412h-2.693v-14.793h2.693V337.412z"/>
			<path fill="#799DC4" d="M305.357,322.619l0.191,2.201c0.492-0.784,1.109-1.392,1.853-1.825c0.743-0.433,1.588-0.649,2.536-0.649
				c1.595,0,2.83,0.467,3.705,1.401c0.875,0.935,1.313,2.377,1.313,4.327v9.338h-2.693v-9.283c0-1.303-0.258-2.229-0.772-2.775
				c-0.515-0.547-1.301-0.82-2.358-0.82c-0.83,0-1.534,0.167-2.112,0.499c-0.579,0.333-1.037,0.8-1.374,1.401v10.979h-2.693v-14.793
				H305.357z"/>
			<path fill="#799DC4" d="M327.957,337.412c-0.091-0.446-0.162-0.841-0.212-1.183c-0.05-0.342-0.08-0.686-0.089-1.032
				c-0.501,0.711-1.155,1.306-1.962,1.784s-1.675,0.718-2.604,0.718c-1.541,0-2.714-0.394-3.521-1.183
				c-0.807-0.788-1.21-1.875-1.21-3.261c0-1.413,0.572-2.518,1.716-3.315c1.144-0.797,2.695-1.196,4.655-1.196h2.926v-1.463
				c0-0.866-0.265-1.552-0.793-2.058c-0.529-0.506-1.276-0.759-2.242-0.759c-0.875,0-1.582,0.219-2.119,0.656
				c-0.538,0.438-0.807,0.962-0.807,1.572l-2.557,0.027l-0.027-0.082c-0.064-1.075,0.439-2.06,1.511-2.953
				c1.071-0.893,2.454-1.34,4.149-1.34c1.677,0,3.026,0.426,4.047,1.278c1.021,0.853,1.531,2.081,1.531,3.685v7.123
				c0,0.529,0.027,1.039,0.082,1.531s0.155,0.976,0.301,1.449H327.957z M323.486,335.443c0.975,0,1.854-0.25,2.639-0.752
				c0.784-0.501,1.294-1.075,1.531-1.723v-2.406h-3.021c-1.085,0-1.953,0.273-2.604,0.82c-0.652,0.547-0.978,1.189-0.978,1.928
				c0,0.656,0.205,1.176,0.615,1.559S322.684,335.443,323.486,335.443z"/>
		</g>
		<g>
			<path fill="#A7A9AC" d="M53.808,296.695v4.848h-1.635v-12.086h4.624c1.29,0,2.292,0.332,3.009,0.996
				c0.716,0.664,1.075,1.538,1.075,2.623c0,1.096-0.358,1.973-1.075,2.631c-0.717,0.659-1.72,0.988-3.009,0.988H53.808z
				 M53.808,295.417h2.988c0.819,0,1.431-0.22,1.834-0.66c0.404-0.439,0.606-0.994,0.606-1.664s-0.204-1.229-0.61-1.677
				c-0.407-0.448-1.017-0.672-1.831-0.672h-2.988V295.417z"/>
			<path fill="#A7A9AC" d="M65.517,301.717c-1.29,0-2.295-0.412-3.017-1.236c-0.723-0.824-1.083-1.909-1.083-3.254v-0.365
				c0-1.289,0.372-2.356,1.117-3.2c0.744-0.844,1.653-1.266,2.727-1.266c1.201,0,2.102,0.374,2.702,1.12
				c0.6,0.748,0.9,1.741,0.9,2.98v0.863h-5.744l-0.025,0.041c0,0.902,0.199,1.635,0.598,2.196s1.007,0.843,1.826,0.843
				c0.553,0,1.039-0.079,1.457-0.237c0.418-0.157,0.776-0.375,1.075-0.651l0.639,1.063c-0.321,0.31-0.744,0.571-1.27,0.784
				S66.259,301.717,65.517,301.717z M65.26,293.682c-0.57,0-1.042,0.221-1.415,0.66c-0.374,0.44-0.602,1.003-0.685,1.689
				l0.017,0.041h4.051v-0.133c0-0.652-0.161-1.192-0.481-1.618S65.929,293.682,65.26,293.682z"/>
			<path fill="#A7A9AC" d="M75.367,301.543c-0.055-0.271-0.098-0.511-0.129-0.718c-0.03-0.208-0.048-0.417-0.054-0.627
				c-0.304,0.432-0.701,0.793-1.191,1.083c-0.489,0.291-1.017,0.436-1.581,0.436c-0.935,0-1.647-0.239-2.138-0.718
				c-0.489-0.479-0.734-1.139-0.734-1.979c0-0.857,0.347-1.528,1.042-2.013c0.694-0.484,1.636-0.727,2.826-0.727h1.776v-0.888
				c0-0.526-0.161-0.942-0.481-1.25c-0.321-0.307-0.775-0.461-1.361-0.461c-0.531,0-0.96,0.133-1.287,0.398s-0.49,0.584-0.49,0.955
				l-1.552,0.017l-0.017-0.05c-0.039-0.653,0.267-1.251,0.917-1.793c0.65-0.542,1.49-0.813,2.519-0.813
				c1.018,0,1.837,0.259,2.457,0.776s0.93,1.263,0.93,2.236v4.325c0,0.321,0.017,0.631,0.05,0.93s0.094,0.592,0.183,0.88H75.367z
				 M72.652,300.348c0.592,0,1.126-0.152,1.602-0.457c0.476-0.304,0.786-0.652,0.93-1.045v-1.461H73.35
				c-0.659,0-1.186,0.166-1.582,0.498c-0.396,0.332-0.593,0.722-0.593,1.17c0,0.398,0.125,0.714,0.374,0.946
				S72.166,300.348,72.652,300.348z"/>
			<path fill="#A7A9AC" d="M81.913,300.439c0.503,0,0.943-0.168,1.32-0.503s0.564-0.745,0.564-1.232h1.478l0.025,0.05
				c0.022,0.774-0.31,1.462-0.996,2.063s-1.483,0.9-2.391,0.9c-1.262,0-2.236-0.429-2.922-1.286s-1.029-1.926-1.029-3.204v-0.349
				c0-1.268,0.344-2.331,1.034-3.191c0.688-0.86,1.661-1.291,2.917-1.291c1.001,0,1.822,0.31,2.461,0.93
				c0.639,0.62,0.947,1.381,0.925,2.282l-0.017,0.051h-1.486c0-0.549-0.179-1.015-0.535-1.399c-0.357-0.385-0.807-0.577-1.349-0.577
				c-0.802,0-1.388,0.312-1.755,0.935c-0.368,0.622-0.552,1.376-0.552,2.262v0.349c0,0.902,0.181,1.663,0.543,2.283
				C80.512,300.129,81.1,300.439,81.913,300.439z"/>
			<path fill="#A7A9AC" d="M90.111,301.717c-1.29,0-2.295-0.412-3.017-1.236c-0.723-0.824-1.083-1.909-1.083-3.254v-0.365
				c0-1.289,0.372-2.356,1.117-3.2c0.744-0.844,1.653-1.266,2.727-1.266c1.201,0,2.102,0.374,2.702,1.12
				c0.6,0.748,0.9,1.741,0.9,2.98v0.863h-5.744l-0.025,0.041c0,0.902,0.199,1.635,0.598,2.196s1.007,0.843,1.826,0.843
				c0.553,0,1.039-0.079,1.457-0.237c0.418-0.157,0.776-0.375,1.075-0.651l0.639,1.063c-0.321,0.31-0.744,0.571-1.27,0.784
				S90.853,301.717,90.111,301.717z M89.854,293.682c-0.57,0-1.042,0.221-1.415,0.66c-0.374,0.44-0.602,1.003-0.685,1.689
				l0.017,0.041h4.051v-0.133c0-0.652-0.161-1.192-0.481-1.618S90.523,293.682,89.854,293.682z"/>
			<path fill="#A7A9AC" d="M102.11,297.393c0,1.295-0.311,2.34-0.934,3.134c-0.622,0.794-1.479,1.19-2.569,1.19
				c-0.598,0-1.117-0.117-1.556-0.353c-0.44-0.235-0.804-0.582-1.092-1.042l-0.266,1.221H94.44v-12.949h1.635v5.03
				c0.282-0.398,0.632-0.703,1.05-0.913c0.418-0.21,0.906-0.315,1.465-0.315c1.107,0,1.97,0.442,2.59,1.328s0.93,2.05,0.93,3.495
				V297.393z M100.475,297.219c0-1.029-0.189-1.869-0.568-2.52c-0.379-0.65-0.956-0.976-1.731-0.976
				c-0.503,0-0.928,0.123-1.274,0.369c-0.346,0.246-0.622,0.577-0.826,0.992v3.894c0.21,0.442,0.485,0.788,0.826,1.037
				c0.34,0.249,0.771,0.373,1.291,0.373c0.769,0,1.342-0.273,1.718-0.821s0.564-1.272,0.564-2.175V297.219z"/>
			<path fill="#A7A9AC" d="M108.955,300.215c-0.282,0.481-0.645,0.853-1.087,1.112s-0.955,0.39-1.536,0.39
				c-0.979,0-1.743-0.313-2.291-0.938s-0.822-1.6-0.822-2.922v-5.296h1.635v5.313c0,0.957,0.141,1.616,0.423,1.976
				s0.722,0.539,1.32,0.539c0.581,0,1.061-0.117,1.44-0.353c0.379-0.235,0.665-0.568,0.859-1v-6.475h1.635v8.981h-1.469
				L108.955,300.215z"/>
			<path fill="#A7A9AC" d="M113.833,290.262h-1.635v-1.668h1.635V290.262z M113.833,301.543h-1.635v-8.981h1.635V301.543z"/>
			<path fill="#A7A9AC" d="M117.266,301.543h-1.635v-12.949h1.635V301.543z"/>
			<path fill="#A7A9AC" d="M118.558,297.219c0-1.445,0.309-2.609,0.926-3.495c0.617-0.886,1.481-1.328,2.594-1.328
				c0.526,0,0.992,0.097,1.398,0.29c0.407,0.194,0.754,0.477,1.042,0.848v-4.939h1.635v12.949h-1.253l-0.249-1.137
				c-0.293,0.432-0.656,0.758-1.087,0.979c-0.432,0.222-0.933,0.332-1.502,0.332c-1.096,0-1.954-0.396-2.573-1.19
				s-0.93-1.839-0.93-3.134V297.219z M120.193,297.393c0,0.907,0.186,1.634,0.556,2.179s0.946,0.817,1.727,0.817
				c0.487,0,0.896-0.11,1.229-0.332c0.332-0.221,0.603-0.531,0.813-0.93v-4.191c-0.21-0.371-0.483-0.665-0.817-0.884
				c-0.335-0.219-0.738-0.328-1.208-0.328c-0.786,0-1.365,0.323-1.739,0.972c-0.373,0.646-0.56,1.488-0.56,2.523V297.393z"/>
			<path fill="#A7A9AC" d="M129.511,290.262h-1.635v-1.668h1.635V290.262z M129.511,301.543h-1.635v-8.981h1.635V301.543z"/>
			<path fill="#A7A9AC" d="M132.637,292.562l0.116,1.337c0.299-0.477,0.674-0.846,1.125-1.108c0.451-0.263,0.964-0.395,1.54-0.395
				c0.968,0,1.718,0.283,2.25,0.851s0.797,1.443,0.797,2.627v5.67h-1.635v-5.637c0-0.791-0.156-1.353-0.469-1.685
				c-0.313-0.332-0.79-0.498-1.432-0.498c-0.503,0-0.931,0.101-1.283,0.303c-0.351,0.202-0.629,0.485-0.834,0.851v6.666h-1.635
				v-8.981H132.637z"/>
			<path fill="#A7A9AC" d="M139.698,297.219c0-1.445,0.309-2.609,0.926-3.495c0.617-0.886,1.479-1.328,2.585-1.328
				c0.57,0,1.071,0.115,1.502,0.345s0.794,0.561,1.087,0.992l0.199-1.171h1.303v9.031c0,1.151-0.335,2.035-1.004,2.652
				s-1.635,0.925-2.897,0.925c-0.432,0-0.898-0.059-1.398-0.178c-0.501-0.119-0.942-0.281-1.324-0.486l0.249-1.27
				c0.315,0.166,0.696,0.3,1.142,0.402c0.445,0.103,0.884,0.154,1.315,0.154c0.797,0,1.376-0.182,1.739-0.544
				c0.362-0.362,0.543-0.915,0.543-1.656v-1.021c-0.293,0.376-0.645,0.661-1.054,0.854s-0.883,0.29-1.419,0.29
				c-1.096,0-1.952-0.396-2.569-1.19c-0.617-0.794-0.926-1.839-0.926-3.134V297.219z M141.333,297.393
				c0,0.902,0.186,1.627,0.556,2.175s0.943,0.821,1.718,0.821c0.493,0,0.905-0.111,1.237-0.336c0.332-0.224,0.606-0.541,0.822-0.95
				v-4.134c-0.21-0.382-0.484-0.685-0.822-0.909c-0.337-0.224-0.744-0.336-1.22-0.336c-0.78,0-1.357,0.323-1.731,0.972
				c-0.373,0.646-0.56,1.488-0.56,2.523V297.393z"/>
			<path fill="#A7A9AC" d="M152.4,301.543v-12.086h3.802c1.577,0,2.846,0.485,3.806,1.457c0.96,0.971,1.44,2.226,1.44,3.764v1.652
				c0,1.544-0.48,2.799-1.44,3.765c-0.96,0.966-2.229,1.448-3.806,1.448H152.4z M154.035,290.744v9.521h2.167
				c1.118,0,1.999-0.368,2.644-1.104c0.645-0.735,0.967-1.679,0.967-2.83v-1.668c0-1.141-0.322-2.078-0.967-2.814
				c-0.645-0.736-1.526-1.104-2.644-1.104H154.035z"/>
			<path fill="#A7A9AC" d="M164.607,290.262h-1.635v-1.668h1.635V290.262z M164.607,301.543h-1.635v-8.981h1.635V301.543z"/>
			<path fill="#A7A9AC" d="M171.792,301.543c-0.055-0.271-0.098-0.511-0.129-0.718c-0.03-0.208-0.048-0.417-0.054-0.627
				c-0.304,0.432-0.701,0.793-1.191,1.083c-0.489,0.291-1.017,0.436-1.581,0.436c-0.935,0-1.647-0.239-2.138-0.718
				c-0.489-0.479-0.734-1.139-0.734-1.979c0-0.857,0.347-1.528,1.042-2.013c0.694-0.484,1.636-0.727,2.826-0.727h1.776v-0.888
				c0-0.526-0.161-0.942-0.481-1.25c-0.321-0.307-0.775-0.461-1.361-0.461c-0.531,0-0.96,0.133-1.287,0.398s-0.49,0.584-0.49,0.955
				l-1.552,0.017l-0.017-0.05c-0.039-0.653,0.267-1.251,0.917-1.793c0.65-0.542,1.49-0.813,2.519-0.813
				c1.018,0,1.837,0.259,2.457,0.776s0.93,1.263,0.93,2.236v4.325c0,0.321,0.017,0.631,0.05,0.93s0.094,0.592,0.183,0.88H171.792z
				 M169.078,300.348c0.592,0,1.126-0.152,1.602-0.457c0.476-0.304,0.786-0.652,0.93-1.045v-1.461h-1.834
				c-0.659,0-1.186,0.166-1.582,0.498c-0.396,0.332-0.593,0.722-0.593,1.17c0,0.398,0.125,0.714,0.374,0.946
				S168.591,300.348,169.078,300.348z"/>
			<path fill="#A7A9AC" d="M176.537,301.543h-1.635v-12.949h1.635V301.543z"/>
			<path fill="#A7A9AC" d="M177.82,296.969c0-1.328,0.36-2.422,1.079-3.282s1.696-1.291,2.93-1.291c1.245,0,2.229,0.429,2.951,1.286
				c0.722,0.858,1.083,1.954,1.083,3.287v0.184c0,1.339-0.36,2.435-1.079,3.287c-0.719,0.852-1.699,1.277-2.938,1.277
				s-2.221-0.427-2.942-1.282c-0.723-0.854-1.083-1.949-1.083-3.282V296.969z M179.456,297.152c0,0.951,0.201,1.737,0.602,2.357
				c0.401,0.619,0.998,0.93,1.789,0.93c0.78,0,1.373-0.311,1.776-0.93c0.404-0.62,0.606-1.406,0.606-2.357v-0.184
				c0-0.94-0.204-1.724-0.61-2.349c-0.407-0.625-1.003-0.938-1.789-0.938c-0.78,0-1.371,0.313-1.772,0.938
				c-0.401,0.625-0.602,1.408-0.602,2.349V297.152z"/>
			<path fill="#A7A9AC" d="M186.724,297.219c0-1.445,0.309-2.609,0.926-3.495c0.617-0.886,1.479-1.328,2.585-1.328
				c0.57,0,1.071,0.115,1.502,0.345s0.794,0.561,1.087,0.992l0.199-1.171h1.303v9.031c0,1.151-0.335,2.035-1.004,2.652
				s-1.635,0.925-2.897,0.925c-0.432,0-0.898-0.059-1.398-0.178c-0.501-0.119-0.942-0.281-1.324-0.486l0.249-1.27
				c0.315,0.166,0.696,0.3,1.142,0.402c0.445,0.103,0.884,0.154,1.315,0.154c0.797,0,1.376-0.182,1.739-0.544
				c0.362-0.362,0.543-0.915,0.543-1.656v-1.021c-0.293,0.376-0.645,0.661-1.054,0.854s-0.883,0.29-1.419,0.29
				c-1.096,0-1.952-0.396-2.569-1.19c-0.617-0.794-0.926-1.839-0.926-3.134V297.219z M188.359,297.393
				c0,0.902,0.186,1.627,0.556,2.175s0.943,0.821,1.718,0.821c0.493,0,0.905-0.111,1.237-0.336c0.332-0.224,0.606-0.541,0.822-0.95
				v-4.134c-0.21-0.382-0.484-0.685-0.822-0.909c-0.337-0.224-0.744-0.336-1.22-0.336c-0.78,0-1.357,0.323-1.731,0.972
				c-0.373,0.646-0.56,1.488-0.56,2.523V297.393z"/>
			<path fill="#A7A9AC" d="M201.529,300.215c-0.282,0.481-0.645,0.853-1.087,1.112s-0.955,0.39-1.536,0.39
				c-0.979,0-1.743-0.313-2.291-0.938s-0.822-1.6-0.822-2.922v-5.296h1.635v5.313c0,0.957,0.141,1.616,0.423,1.976
				s0.722,0.539,1.32,0.539c0.581,0,1.061-0.117,1.44-0.353c0.379-0.235,0.665-0.568,0.859-1v-6.475h1.635v8.981h-1.469
				L201.529,300.215z"/>
			<path fill="#A7A9AC" d="M208.357,301.717c-1.29,0-2.295-0.412-3.017-1.236c-0.723-0.824-1.083-1.909-1.083-3.254v-0.365
				c0-1.289,0.372-2.356,1.117-3.2c0.744-0.844,1.653-1.266,2.727-1.266c1.201,0,2.102,0.374,2.702,1.12
				c0.6,0.748,0.9,1.741,0.9,2.98v0.863h-5.744l-0.025,0.041c0,0.902,0.199,1.635,0.598,2.196s1.007,0.843,1.826,0.843
				c0.553,0,1.039-0.079,1.457-0.237c0.418-0.157,0.776-0.375,1.075-0.651l0.639,1.063c-0.321,0.31-0.744,0.571-1.27,0.784
				S209.099,301.717,208.357,301.717z M208.1,293.682c-0.57,0-1.042,0.221-1.415,0.66c-0.374,0.44-0.602,1.003-0.685,1.689
				l0.017,0.041h4.051v-0.133c0-0.652-0.161-1.192-0.481-1.618S208.769,293.682,208.1,293.682z"/>
			<path fill="#A7A9AC" d="M216.743,301.543v-7.77h-1.403v-1.212h1.403v-1.138c0-0.957,0.25-1.697,0.751-2.22
				c0.5-0.523,1.199-0.784,2.096-0.784c0.188,0,0.378,0.015,0.568,0.045c0.191,0.03,0.403,0.073,0.635,0.129l-0.199,1.245
				c-0.1-0.022-0.22-0.042-0.361-0.058c-0.142-0.018-0.29-0.025-0.444-0.025c-0.476,0-0.83,0.143-1.063,0.428
				s-0.349,0.698-0.349,1.24v1.138h1.627v1.212h-1.627v7.77H216.743z"/>
			<path fill="#A7A9AC" d="M220.425,296.969c0-1.328,0.36-2.422,1.079-3.282s1.696-1.291,2.93-1.291
				c1.245,0,2.229,0.429,2.951,1.286c0.722,0.858,1.083,1.954,1.083,3.287v0.184c0,1.339-0.36,2.435-1.079,3.287
				c-0.719,0.852-1.699,1.277-2.938,1.277s-2.221-0.427-2.942-1.282c-0.723-0.854-1.083-1.949-1.083-3.282V296.969z M222.06,297.152
				c0,0.951,0.201,1.737,0.602,2.357c0.401,0.619,0.998,0.93,1.789,0.93c0.78,0,1.373-0.311,1.776-0.93
				c0.404-0.62,0.606-1.406,0.606-2.357v-0.184c0-0.94-0.204-1.724-0.61-2.349c-0.407-0.625-1.003-0.938-1.789-0.938
				c-0.78,0-1.371,0.313-1.772,0.938c-0.401,0.625-0.602,1.408-0.602,2.349V297.152z"/>
			<path fill="#A7A9AC" d="M233.869,294.006l-0.838-0.05c-0.432,0-0.795,0.103-1.092,0.308c-0.296,0.204-0.524,0.492-0.685,0.863
				v6.416h-1.635v-8.981h1.461l0.158,1.312c0.254-0.465,0.568-0.827,0.942-1.088c0.373-0.26,0.804-0.39,1.291-0.39
				c0.122,0,0.238,0.01,0.349,0.029s0.202,0.04,0.274,0.062L233.869,294.006z"/>
			<path fill="#A7A9AC" d="M240.37,290.395v2.167h1.702v1.212h-1.702v5.453c0,0.421,0.087,0.717,0.261,0.889
				c0.175,0.172,0.406,0.258,0.693,0.258c0.094,0,0.199-0.013,0.315-0.038c0.116-0.024,0.213-0.051,0.291-0.079l0.224,1.121
				c-0.122,0.1-0.302,0.182-0.54,0.245s-0.473,0.095-0.706,0.095c-0.664,0-1.192-0.2-1.585-0.602s-0.589-1.03-0.589-1.889v-5.453
				h-1.428v-1.212h1.428v-2.167H240.37z"/>
			<path fill="#A7A9AC" d="M244.608,293.766c0.31-0.432,0.69-0.769,1.142-1.009c0.451-0.241,0.95-0.361,1.498-0.361
				c0.958,0,1.703,0.288,2.237,0.863c0.534,0.575,0.801,1.461,0.801,2.656v5.628h-1.635v-5.645c0-0.741-0.159-1.289-0.477-1.644
				c-0.318-0.354-0.793-0.531-1.424-0.531c-0.487,0-0.91,0.096-1.27,0.286c-0.36,0.191-0.65,0.458-0.872,0.801v6.732h-1.635v-12.949
				h1.635V293.766z"/>
			<path fill="#A7A9AC" d="M255.504,301.717c-1.29,0-2.295-0.412-3.017-1.236c-0.723-0.824-1.083-1.909-1.083-3.254v-0.365
				c0-1.289,0.372-2.356,1.117-3.2c0.744-0.844,1.653-1.266,2.727-1.266c1.201,0,2.102,0.374,2.702,1.12
				c0.6,0.748,0.9,1.741,0.9,2.98v0.863h-5.744l-0.025,0.041c0,0.902,0.199,1.635,0.598,2.196s1.007,0.843,1.826,0.843
				c0.553,0,1.039-0.079,1.457-0.237c0.418-0.157,0.776-0.375,1.075-0.651l0.639,1.063c-0.321,0.31-0.744,0.571-1.27,0.784
				S256.246,301.717,255.504,301.717z M255.247,293.682c-0.57,0-1.042,0.221-1.415,0.66c-0.374,0.44-0.602,1.003-0.685,1.689
				l0.017,0.041h4.051v-0.133c0-0.652-0.161-1.192-0.481-1.618S255.916,293.682,255.247,293.682z"/>
			<path fill="#A7A9AC" d="M270.165,296.197h-5.097v5.346h-1.635v-12.086h7.579v1.287h-5.943v4.166h5.097V296.197z"/>
			<path fill="#A7A9AC" d="M277.258,300.215c-0.282,0.481-0.645,0.853-1.087,1.112s-0.955,0.39-1.536,0.39
				c-0.979,0-1.743-0.313-2.291-0.938s-0.822-1.6-0.822-2.922v-5.296h1.635v5.313c0,0.957,0.141,1.616,0.423,1.976
				s0.722,0.539,1.32,0.539c0.581,0,1.061-0.117,1.44-0.353c0.379-0.235,0.665-0.568,0.859-1v-6.475h1.635v8.981h-1.469
				L277.258,300.215z"/>
			<path fill="#A7A9AC" d="M282.643,290.395v2.167h1.702v1.212h-1.702v5.453c0,0.421,0.087,0.717,0.261,0.889
				c0.175,0.172,0.406,0.258,0.693,0.258c0.094,0,0.199-0.013,0.315-0.038c0.116-0.024,0.213-0.051,0.291-0.079l0.224,1.121
				c-0.122,0.1-0.302,0.182-0.54,0.245s-0.473,0.095-0.706,0.095c-0.664,0-1.192-0.2-1.585-0.602s-0.589-1.03-0.589-1.889v-5.453
				h-1.428v-1.212h1.428v-2.167H282.643z"/>
			<path fill="#A7A9AC" d="M290.948,300.215c-0.282,0.481-0.645,0.853-1.087,1.112s-0.955,0.39-1.536,0.39
				c-0.979,0-1.743-0.313-2.291-0.938s-0.822-1.6-0.822-2.922v-5.296h1.635v5.313c0,0.957,0.141,1.616,0.423,1.976
				s0.722,0.539,1.32,0.539c0.581,0,1.061-0.117,1.44-0.353c0.379-0.235,0.665-0.568,0.859-1v-6.475h1.635v8.981h-1.469
				L290.948,300.215z"/>
			<path fill="#A7A9AC" d="M298.308,294.006l-0.838-0.05c-0.432,0-0.795,0.103-1.092,0.308c-0.296,0.204-0.524,0.492-0.685,0.863
				v6.416h-1.635v-8.981h1.461l0.158,1.312c0.254-0.465,0.568-0.827,0.942-1.088c0.373-0.26,0.804-0.39,1.291-0.39
				c0.122,0,0.238,0.01,0.349,0.029s0.202,0.04,0.274,0.062L298.308,294.006z"/>
			<path fill="#A7A9AC" d="M302.72,301.717c-1.29,0-2.295-0.412-3.017-1.236c-0.723-0.824-1.083-1.909-1.083-3.254v-0.365
				c0-1.289,0.372-2.356,1.117-3.2c0.744-0.844,1.653-1.266,2.727-1.266c1.201,0,2.102,0.374,2.702,1.12
				c0.6,0.748,0.9,1.741,0.9,2.98v0.863h-5.744l-0.025,0.041c0,0.902,0.199,1.635,0.598,2.196s1.007,0.843,1.826,0.843
				c0.553,0,1.039-0.079,1.457-0.237c0.418-0.157,0.776-0.375,1.075-0.651l0.639,1.063c-0.321,0.31-0.744,0.571-1.27,0.784
				S303.462,301.717,302.72,301.717z M302.463,293.682c-0.57,0-1.042,0.221-1.415,0.66c-0.374,0.44-0.602,1.003-0.685,1.689
				l0.017,0.041h4.051v-0.133c0-0.652-0.161-1.192-0.481-1.618S303.132,293.682,302.463,293.682z"/>
		</g>
	</g>
	<g>
		<g>
			<path fill="#808184" d="M72.521,262.958h-1.4v-9.011l-2.242,0.021v-1.075l3.643-0.382V262.958z"/>
			<path fill="#808184" d="M76.667,263.842h-1.188l4.3-11.182h1.182L76.667,263.842z"/>
			<path fill="#808184" d="M85.183,257.102c0.622,0,1.062-0.154,1.319-0.463c0.257-0.309,0.385-0.742,0.385-1.298
				c0-0.519-0.14-0.938-0.42-1.255c-0.281-0.318-0.697-0.478-1.249-0.478c-0.537,0-0.982,0.166-1.333,0.499
				c-0.352,0.333-0.527,0.749-0.527,1.249h-1.329l-0.021-0.042c-0.023-0.773,0.269-1.434,0.877-1.98s1.387-0.82,2.334-0.82
				c0.957,0,1.707,0.242,2.249,0.725c0.542,0.483,0.813,1.194,0.813,2.133c0,0.481-0.126,0.919-0.378,1.315
				c-0.253,0.396-0.605,0.705-1.058,0.926c0.519,0.208,0.913,0.522,1.185,0.944s0.407,0.933,0.407,1.531
				c0,0.943-0.298,1.682-0.895,2.217c-0.596,0.535-1.371,0.803-2.323,0.803c-0.877,0-1.649-0.258-2.316-0.774
				c-0.667-0.516-0.989-1.199-0.965-2.047l0.014-0.042h1.33c0,0.5,0.18,0.92,0.541,1.262c0.36,0.342,0.826,0.513,1.396,0.513
				c0.566,0,1.012-0.175,1.337-0.527c0.325-0.351,0.488-0.81,0.488-1.375c0-0.646-0.15-1.129-0.449-1.45
				c-0.3-0.321-0.77-0.481-1.411-0.481h-1.146v-1.083H85.183z"/>
			<path fill="#808184" d="M101.33,258.729c0,1.259-0.39,2.303-1.17,3.133c-0.781,0.83-1.793,1.245-3.038,1.245
				c-1.202,0-2.18-0.415-2.932-1.245s-1.128-1.875-1.128-3.133v-1.832c0-1.254,0.376-2.298,1.128-3.133
				c0.752-0.834,1.729-1.251,2.932-1.251c1.245,0,2.257,0.416,3.038,1.248c0.78,0.833,1.17,1.878,1.17,3.137V258.729z
				 M99.937,256.882c0-0.943-0.254-1.716-0.764-2.32c-0.509-0.604-1.193-0.905-2.051-0.905c-0.812,0-1.458,0.302-1.941,0.905
				s-0.725,1.377-0.725,2.32v1.846c0,0.953,0.242,1.73,0.725,2.334s1.13,0.905,1.941,0.905c0.863,0,1.548-0.301,2.055-0.902
				s0.76-1.38,0.76-2.337V256.882z"/>
			<path fill="#808184" d="M108.785,258.403h-4.343v4.555h-1.394V252.66h6.458v1.096h-5.064v3.55h4.343V258.403z"/>
			<path fill="#808184" d="M121.262,253.756h-3.395v9.202h-1.394v-9.202h-3.353v-1.096h8.141V253.756z"/>
			<path fill="#808184" d="M130.224,262.958h-1.394v-4.548h-5v4.548h-1.394V252.66h1.394v4.654h5v-4.654h1.394V262.958z"/>
			<path fill="#808184" d="M137.961,258.184h-4.229v3.685h4.951v1.089h-6.344V252.66h6.266v1.096h-4.873v3.331h4.229V258.184z"/>
			<path fill="#808184" d="M144.745,258.828v4.13h-1.394V252.66h3.939c1.099,0,1.953,0.283,2.564,0.849s0.916,1.311,0.916,2.235
				c0,0.934-0.305,1.681-0.916,2.242s-1.465,0.842-2.564,0.842H144.745z M144.745,257.738h2.546c0.698,0,1.219-0.188,1.563-0.563
				c0.344-0.375,0.516-0.847,0.516-1.418c0-0.57-0.173-1.047-0.52-1.429s-0.866-0.573-1.56-0.573h-2.546V257.738z"/>
			<path fill="#808184" d="M160.136,258.729c0,1.259-0.391,2.303-1.171,3.133s-1.793,1.245-3.038,1.245
				c-1.202,0-2.179-0.415-2.932-1.245c-0.752-0.83-1.128-1.875-1.128-3.133v-1.832c0-1.254,0.376-2.298,1.128-3.133
				c0.752-0.834,1.729-1.251,2.932-1.251c1.245,0,2.258,0.416,3.038,1.248c0.78,0.833,1.171,1.878,1.171,3.137V258.729z
				 M158.742,256.882c0-0.943-0.255-1.716-0.764-2.32c-0.51-0.604-1.193-0.905-2.052-0.905c-0.811,0-1.458,0.302-1.941,0.905
				s-0.725,1.377-0.725,2.32v1.846c0,0.953,0.241,1.73,0.725,2.334s1.131,0.905,1.941,0.905c0.863,0,1.548-0.301,2.055-0.902
				s0.761-1.38,0.761-2.337V256.882z"/>
			<path fill="#808184" d="M163.248,258.828v4.13h-1.394V252.66h3.939c1.099,0,1.953,0.283,2.564,0.849s0.916,1.311,0.916,2.235
				c0,0.934-0.305,1.681-0.916,2.242s-1.465,0.842-2.564,0.842H163.248z M163.248,257.738h2.546c0.698,0,1.219-0.188,1.563-0.563
				c0.344-0.375,0.516-0.847,0.516-1.418c0-0.57-0.173-1.047-0.52-1.429s-0.866-0.573-1.56-0.573h-2.546V257.738z"/>
			<path fill="#808184" d="M178.37,252.66v6.839c0,1.131-0.368,2.016-1.104,2.652c-0.735,0.636-1.683,0.955-2.843,0.955
				c-1.117,0-2.032-0.319-2.744-0.958c-0.712-0.639-1.068-1.521-1.068-2.648v-6.839h1.393v6.839c0,0.788,0.226,1.404,0.676,1.85
				c0.45,0.445,1.031,0.668,1.743,0.668c0.754,0,1.369-0.223,1.843-0.668c0.474-0.446,0.711-1.062,0.711-1.85v-6.839H178.37z"/>
			<path fill="#808184" d="M181.68,261.869h5.022v1.089h-6.415V252.66h1.393V261.869z"/>
			<path fill="#808184" d="M193.414,260.306h-3.876l-0.919,2.652h-1.421l3.713-10.298h1.195l3.636,10.298h-1.422L193.414,260.306z
				 M189.941,259.139h3.076l-1.499-4.42h-0.042L189.941,259.139z"/>
			<path fill="#808184" d="M203.252,253.756h-3.395v9.202h-1.393v-9.202h-3.353v-1.096h8.141V253.756z"/>
			<path fill="#808184" d="M205.969,262.958h-1.4V252.66h1.4V262.958z"/>
			<path fill="#808184" d="M216.098,258.729c0,1.259-0.391,2.303-1.171,3.133s-1.793,1.245-3.038,1.245
				c-1.202,0-2.179-0.415-2.932-1.245c-0.752-0.83-1.128-1.875-1.128-3.133v-1.832c0-1.254,0.376-2.298,1.128-3.133
				c0.752-0.834,1.729-1.251,2.932-1.251c1.245,0,2.258,0.416,3.038,1.248c0.78,0.833,1.171,1.878,1.171,3.137V258.729z
				 M214.704,256.882c0-0.943-0.255-1.716-0.764-2.32c-0.51-0.604-1.193-0.905-2.052-0.905c-0.811,0-1.458,0.302-1.941,0.905
				s-0.725,1.377-0.725,2.32v1.846c0,0.953,0.241,1.73,0.725,2.334s1.131,0.905,1.941,0.905c0.863,0,1.548-0.301,2.055-0.902
				s0.761-1.38,0.761-2.337V256.882z"/>
			<path fill="#808184" d="M225.604,262.958h-1.394l-4.958-7.865l-0.042,0.014v7.851h-1.393V252.66h1.393l4.958,7.858l0.042-0.014
				v-7.844h1.394V262.958z"/>
			<path fill="#808184" d="M236.659,258.184h-4.229v3.685h4.951v1.089h-6.344V252.66h6.266v1.096h-4.873v3.331h4.229V258.184z"/>
			<path fill="#808184" d="M246.525,262.958h-1.394l-4.958-7.865l-0.042,0.014v7.851h-1.394V252.66h1.394l4.958,7.858l0.042-0.014
				v-7.844h1.394V262.958z"/>
			<path fill="#808184" d="M256.053,261.572c-0.245,0.382-0.671,0.733-1.277,1.054c-0.606,0.321-1.392,0.481-2.359,0.481
				c-1.188,0-2.171-0.394-2.949-1.181c-0.778-0.787-1.167-1.806-1.167-3.055v-2.122c0-1.25,0.375-2.268,1.125-3.055
				c0.749-0.788,1.716-1.181,2.899-1.181c1.146,0,2.051,0.305,2.716,0.916c0.665,0.611,0.988,1.388,0.969,2.331l-0.014,0.042h-1.337
				c0-0.627-0.203-1.149-0.608-1.566c-0.405-0.417-0.98-0.626-1.726-0.626c-0.787,0-1.422,0.294-1.902,0.884
				c-0.481,0.59-0.722,1.337-0.722,2.242v2.136c0,0.915,0.255,1.668,0.764,2.26c0.51,0.592,1.16,0.887,1.952,0.887
				c0.608,0,1.091-0.079,1.446-0.237c0.356-0.158,0.622-0.345,0.796-0.562v-2.32h-2.334v-1.089h3.728V261.572z"/>
			<path fill="#808184" d="M263.486,260.306h-3.876l-0.919,2.652h-1.422l3.713-10.298h1.195l3.636,10.298h-1.422L263.486,260.306z
				 M260.014,259.139h3.077l-1.5-4.42h-0.042L260.014,259.139z"/>
			<path fill="#808184" d="M274.365,261.572c-0.246,0.382-0.671,0.733-1.277,1.054c-0.605,0.321-1.392,0.481-2.358,0.481
				c-1.188,0-2.172-0.394-2.95-1.181c-0.778-0.787-1.167-1.806-1.167-3.055v-2.122c0-1.25,0.375-2.268,1.125-3.055
				c0.75-0.788,1.716-1.181,2.9-1.181c1.146,0,2.051,0.305,2.716,0.916c0.665,0.611,0.987,1.388,0.969,2.331l-0.014,0.042h-1.337
				c0-0.627-0.203-1.149-0.608-1.566c-0.406-0.417-0.981-0.626-1.726-0.626c-0.788,0-1.421,0.294-1.903,0.884
				c-0.48,0.59-0.721,1.337-0.721,2.242v2.136c0,0.915,0.254,1.668,0.764,2.26c0.509,0.592,1.16,0.887,1.952,0.887
				c0.608,0,1.09-0.079,1.446-0.237c0.355-0.158,0.621-0.345,0.795-0.562v-2.32h-2.334v-1.089h3.728V261.572z"/>
			<path fill="#808184" d="M282.103,258.184h-4.229v3.685h4.951v1.089h-6.345V252.66h6.267v1.096h-4.873v3.331h4.229V258.184z"/>
			<path fill="#808184" d="M284.183,262.958V252.66h3.239c1.344,0,2.425,0.414,3.243,1.241s1.227,1.896,1.227,3.208v1.407
				c0,1.316-0.409,2.385-1.227,3.208c-0.818,0.823-1.899,1.234-3.243,1.234H284.183z M285.576,253.756v8.112h1.846
				c0.952,0,1.703-0.313,2.252-0.94s0.824-1.431,0.824-2.412v-1.421c0-0.971-0.274-1.771-0.824-2.398
				c-0.549-0.627-1.3-0.94-2.252-0.94H285.576z"/>
		</g>
		<g>
			<path fill="#808184" d="M129.593,226.359h-6.729v-26.347l-6.563,2.536v-5.592l12.581-5.142h0.711V226.359z"/>
			<path fill="#808184" d="M140.112,222.948c0-1.074,0.359-1.958,1.078-2.654c0.719-0.695,1.654-1.042,2.808-1.042
				c1.122,0,2.054,0.343,2.796,1.031c0.742,0.687,1.114,1.575,1.114,2.666c0,1.105-0.375,1.994-1.125,2.665
				c-0.75,0.672-1.679,1.007-2.784,1.007c-1.122,0-2.049-0.339-2.784-1.019C140.479,224.922,140.112,224.038,140.112,222.948z"/>
			<path fill="#808184" d="M168.26,226.359h-6.729v-26.347l-6.563,2.536v-5.592l12.582-5.142h0.71V226.359z"/>
			<path fill="#808184" d="M195.721,200.723l0.189,2.37c1.501-1.896,3.483-2.843,5.947-2.843c2.559,0,4.367,1.153,5.426,3.459
				c1.469-2.306,3.562-3.459,6.279-3.459c4.486,0,6.784,3.104,6.895,9.312v16.798h-6.705v-16.372c0-1.484-0.206-2.543-0.616-3.175
				c-0.411-0.632-1.106-0.948-2.085-0.948c-1.248,0-2.18,0.766-2.796,2.298l0.047,0.805v17.391h-6.705v-16.325
				c0-1.469-0.197-2.531-0.592-3.187s-1.098-0.983-2.109-0.983c-1.153,0-2.069,0.624-2.748,1.872v18.623h-6.705v-25.636H195.721z"/>
			<path fill="#808184" d="M225.408,194.089c0-1.042,0.332-1.895,0.995-2.559c0.664-0.664,1.548-0.995,2.654-0.995
				c1.105,0,1.99,0.332,2.654,0.995c0.663,0.664,0.995,1.516,0.995,2.559c0,1.027-0.328,1.88-0.983,2.559
				c-0.655,0.679-1.544,1.019-2.666,1.019s-2.01-0.34-2.666-1.019C225.736,195.969,225.408,195.116,225.408,194.089z
				 M232.445,226.359h-6.729v-25.636h6.729V226.359z"/>
			<path fill="#808184" d="M244.671,226.359h-6.729v-36.393h6.729V226.359z"/>
		</g>
		<g opacity="0.6">
			<g>
				<rect x="110.279" y="237.317" fill="#66ABCB" width="139.443" height="3"/>
			</g>
		</g>
	</g>
</g>
</svg>
