<?xml version="1.0" encoding="utf-8"?>
<!-- Generator: Adobe Illustrator 16.0.0, SVG Export Plug-In . SVG Version: 6.00 Build 0)  -->
<!DOCTYPE svg PUBLIC "-//W3C//DTD SVG 1.1//EN" "http://www.w3.org/Graphics/SVG/1.1/DTD/svg11.dtd">
<svg version="1.1" xmlns="http://www.w3.org/2000/svg" xmlns:xlink="http://www.w3.org/1999/xlink" x="0px" y="0px" width="100%"
	 height="100%" viewBox="0 0 360 360" enable-background="new 0 0 360 360" xml:space="preserve" class="c-infographic-svg">
<g id="Layer_1">
	<g>
		<rect fill="#FEF1E1" width="360" height="360"/>
	</g>
	<g>
		<g>
			<path fill="#F48466" d="M158.469,186.251h4.281c1.625,0,2.817-0.57,3.578-1.712c0.76-1.141,1.141-2.665,1.141-4.571
				c0-1.822-0.391-3.241-1.172-4.256s-1.828-1.523-3.141-1.523c-1.229,0-2.234,0.485-3.016,1.456s-1.172,2.193-1.172,3.669h-8.844
				c0-2.375,0.547-4.505,1.641-6.391c1.094-1.885,2.625-3.359,4.594-4.422s4.151-1.594,6.547-1.594c4.188,0,7.469,1.156,9.844,3.469
				s3.563,5.479,3.563,9.5c0,2.063-0.537,3.974-1.609,5.734c-1.073,1.761-2.484,3.109-4.234,4.047
				c2.146,0.917,3.745,2.292,4.797,4.125c1.052,1.833,1.578,4,1.578,6.5c0,4.042-1.287,7.281-3.859,9.719
				c-2.573,2.438-5.953,3.656-10.141,3.656c-3.896,0-7.058-1.203-9.484-3.609c-2.427-2.406-3.641-5.567-3.641-9.484h8.844
				c0,1.643,0.427,3.022,1.281,4.138c0.854,1.116,1.938,1.674,3.25,1.674c1.521,0,2.724-0.565,3.609-1.695
				c0.885-1.13,1.328-2.638,1.328-4.522c0-4.501-1.74-6.762-5.219-6.783h-4.344V186.251z"/>
		</g>
		<g>
			<path fill="#F48466" d="M204.063,167.063v7.5h-0.5c-3.313,0.021-5.943,1.016-7.891,2.984c-1.948,1.969-3.13,4.724-3.547,8.266
				c1.896-2.167,4.271-3.25,7.125-3.25c3.292,0,5.922,1.406,7.891,4.219s2.953,6.563,2.953,11.25c0,2.979-0.563,5.667-1.688,8.063
				c-1.125,2.396-2.703,4.255-4.734,5.578c-2.031,1.323-4.328,1.984-6.891,1.984c-4.125,0-7.433-1.656-9.922-4.969
				c-2.49-3.313-3.734-7.771-3.734-13.375v-3.281c0-5.021,0.786-9.417,2.359-13.188c1.573-3.771,3.844-6.672,6.813-8.703
				s6.432-3.057,10.391-3.078H204.063z M196.469,189.845c-1.125,0-2.068,0.356-2.828,1.069c-0.761,0.712-1.328,1.592-1.703,2.64
				v3.206c0,3.227,0.427,5.637,1.281,7.229c0.854,1.592,1.979,2.388,3.375,2.388c1.417,0,2.552-0.77,3.406-2.31
				c0.854-1.54,1.281-3.515,1.281-5.924c0-2.451-0.443-4.447-1.328-5.987C199.067,190.615,197.906,189.845,196.469,189.845z"/>
		</g>
	</g>
	<g id="entire-circle">
		<g id="inner-circle">
			<path fill="#FCD0A6" d="M179.999,20.538c-34.122,0-61.785,27.661-61.785,61.784c0,34.122,27.663,61.784,61.785,61.784
				s61.784-27.662,61.784-61.784C241.783,48.199,214.121,20.538,179.999,20.538z M179.999,112.161
				c-16.479,0-29.838-13.36-29.838-29.839c0-16.479,13.36-29.839,29.838-29.839s29.838,13.359,29.838,29.839
				C209.836,98.801,196.477,112.161,179.999,112.161z"/>
		</g>
		<g id="outer-people">
			<g>
				<path fill="#FCD0A6" d="M117.38,78.188c-0.577,0.162-1.133,0.438-1.622,0.848c-0.531,0.446-0.913,0.998-1.173,1.593
					c-0.931-1.096-2.575-1.24-3.678-0.312c-1.107,0.929-1.252,2.582-0.323,3.687c0.927,1.109,2.578,1.252,3.686,0.324
					c0.106-0.089,0.195-0.19,0.283-0.291c0.167,0.4,0.375,0.789,0.67,1.138c0.512,0.613,1.162,1.031,1.861,1.282
					c-0.093-0.993-0.146-1.997-0.146-3.015C116.938,81.65,117.095,79.896,117.38,78.188z"/>
			</g>
			<g>
				<path fill="#FCD0A6" d="M249.415,80.64c-0.926-1.108-2.578-1.252-3.687-0.323c-0.105,0.089-0.194,0.188-0.282,0.289
					c-0.167-0.399-0.375-0.788-0.669-1.137c-0.513-0.612-1.164-1.03-1.863-1.281c0.094,0.992,0.146,1.997,0.146,3.014
					c0,1.792-0.156,3.545-0.441,5.255c0.578-0.162,1.133-0.438,1.622-0.848c0.532-0.446,0.914-0.998,1.175-1.595
					c0.93,1.097,2.574,1.241,3.678,0.313C250.2,83.397,250.344,81.744,249.415,80.64z"/>
			</g>
			<g>
				<path fill="#FCD0A6" d="M118.759,97.317c-0.266-0.962-0.49-1.94-0.666-2.943c-0.313-1.763-0.463-3.518-0.48-5.25
					c-0.539,0.259-1.039,0.628-1.449,1.117c-0.446,0.531-0.727,1.14-0.88,1.771c-1.107-0.917-2.75-0.773-3.674,0.333
					c-0.93,1.106-0.786,2.759,0.324,3.688c1.102,0.929,2.756,0.784,3.685-0.323c0.088-0.105,0.158-0.22,0.228-0.334
					c0.233,0.365,0.506,0.71,0.857,1.003C117.313,96.893,118.027,97.19,118.759,97.317z"/>
			</g>
			<g>
				<path fill="#FCD0A6" d="M248.069,68.612c-1.105-0.932-2.756-0.787-3.688,0.322c-0.088,0.105-0.157,0.219-0.226,0.333
					c-0.234-0.365-0.507-0.711-0.857-1.003c-0.612-0.513-1.326-0.812-2.058-0.939c0.266,0.962,0.49,1.942,0.666,2.944
					c0.313,1.764,0.464,3.517,0.481,5.25c0.541-0.259,1.041-0.626,1.448-1.114c0.446-0.532,0.727-1.143,0.881-1.776
					c1.104,0.919,2.751,0.774,3.677-0.329C249.319,71.19,249.176,69.537,248.069,68.612z"/>
			</g>
			<g>
				<path fill="#FCD0A6" d="M121.126,104.939c-0.614-1.681-1.067-3.383-1.385-5.086c-0.485,0.35-0.914,0.798-1.231,1.352
					c-0.347,0.601-0.518,1.25-0.559,1.898c-1.25-0.713-2.84-0.285-3.562,0.965c-0.722,1.251-0.295,2.853,0.958,3.575
					c1.249,0.724,2.854,0.295,3.575-0.956c0.069-0.12,0.118-0.246,0.166-0.371c0.294,0.319,0.623,0.611,1.02,0.838
					c0.688,0.4,1.443,0.571,2.185,0.568C121.863,106.822,121.474,105.897,121.126,104.939z"/>
			</g>
			<g>
				<path fill="#FCD0A6" d="M244.654,56.999c-1.248-0.725-2.851-0.295-3.574,0.958c-0.069,0.119-0.117,0.243-0.166,0.367
					c-0.293-0.319-0.622-0.612-1.018-0.839c-0.692-0.399-1.448-0.568-2.19-0.567c0.429,0.901,0.82,1.828,1.166,2.785
					c0.615,1.682,1.069,3.382,1.385,5.086c0.488-0.349,0.917-0.799,1.234-1.35c0.348-0.602,0.518-1.251,0.559-1.901
					c1.249,0.713,2.843,0.287,3.564-0.962C246.334,59.322,245.905,57.719,244.654,56.999z"/>
			</g>
			<g>
				<path fill="#FCD0A6" d="M125.948,114.819c-0.895-1.549-1.639-3.147-2.246-4.77c-0.417,0.43-0.763,0.944-0.979,1.545
					c-0.237,0.653-0.293,1.322-0.221,1.968c-1.354-0.485-2.845,0.21-3.341,1.567c-0.494,1.357,0.204,2.86,1.565,3.354
					c1.355,0.496,2.861-0.205,3.355-1.562c0.048-0.13,0.074-0.262,0.1-0.393c0.344,0.263,0.719,0.493,1.149,0.647
					c0.746,0.275,1.519,0.313,2.249,0.181C127.002,116.544,126.458,115.702,125.948,114.819z"/>
			</g>
			<g>
				<path fill="#FCD0A6" d="M239.275,46.156c-1.354-0.497-2.859,0.205-3.354,1.564c-0.047,0.129-0.073,0.258-0.099,0.388
					c-0.344-0.263-0.718-0.494-1.146-0.649c-0.754-0.272-1.527-0.309-2.256-0.178c0.581,0.813,1.125,1.657,1.631,2.54
					c0.898,1.549,1.639,3.146,2.247,4.77c0.419-0.43,0.765-0.947,0.982-1.544c0.237-0.653,0.292-1.322,0.22-1.969
					c1.354,0.484,2.847-0.213,3.343-1.567C241.333,48.151,240.633,46.647,239.275,46.156z"/>
			</g>
			<g>
				<path fill="#FCD0A6" d="M132.413,123.712c-1.151-1.371-2.161-2.816-3.041-4.308c-0.334,0.497-0.587,1.062-0.693,1.692
					c-0.121,0.684-0.059,1.353,0.124,1.977c-1.419-0.243-2.765,0.701-3.018,2.125c-0.251,1.421,0.697,2.781,2.122,3.03
					c1.424,0.253,2.782-0.698,3.033-2.121c0.024-0.137,0.027-0.271,0.03-0.405c0.385,0.199,0.795,0.361,1.246,0.439
					c0.782,0.141,1.547,0.043,2.246-0.213C133.75,125.226,133.07,124.492,132.413,123.712z"/>
			</g>
			<g>
				<path fill="#FCD0A6" d="M232.095,36.413c-1.418-0.255-2.78,0.699-3.031,2.123c-0.024,0.135-0.027,0.268-0.03,0.4
					c-0.385-0.199-0.794-0.362-1.243-0.44c-0.791-0.138-1.556-0.039-2.251,0.216c0.713,0.7,1.396,1.438,2.049,2.219
					c1.151,1.369,2.158,2.812,3.039,4.306c0.339-0.497,0.589-1.065,0.699-1.691c0.121-0.685,0.059-1.353-0.124-1.977
					c1.418,0.24,2.767-0.707,3.02-2.126C234.468,38.019,233.52,36.66,232.095,36.413z"/>
			</g>
			<g>
				<g>
					<path fill="#FCD0A6" d="M136.671,131.341c1.443,0.004,2.616,1.171,2.619,2.618c-0.003,1.445-1.176,2.619-2.619,2.617
						c-1.446,0.002-2.617-1.174-2.617-2.617C134.057,132.509,135.225,131.341,136.671,131.341z"/>
				</g>
				<g>
					<path fill="#FCD0A6" d="M140.324,131.346c-1.372-1.15-2.617-2.399-3.743-3.714c-0.241,0.545-0.395,1.147-0.388,1.787
						c0,2.407,1.949,4.363,4.358,4.354c0.795,0.001,1.534-0.228,2.175-0.601C141.902,132.605,141.104,132.001,140.324,131.346z"/>
				</g>
			</g>
			<g>
				<path fill="#FCD0A6" d="M225.952,30.678c-0.005-1.445-1.175-2.618-2.619-2.614c-1.441-0.005-2.616,1.171-2.616,2.617
					c0,0.137,0.02,0.269,0.04,0.399c-0.414-0.13-0.845-0.219-1.301-0.218c-0.803,0.001-1.54,0.231-2.181,0.604
					c0.825,0.564,1.625,1.173,2.405,1.829c1.37,1.148,2.611,2.395,3.739,3.713c0.249-0.548,0.397-1.151,0.395-1.787
					c0-0.695-0.177-1.343-0.465-1.926C224.786,33.285,225.952,32.119,225.952,30.678z"/>
			</g>
			<g>
				<path fill="#FCD0A6" d="M149.44,137.49c-1.552-0.894-2.993-1.907-4.331-3.008c-0.145,0.579-0.19,1.198-0.071,1.828
					c0.12,0.683,0.406,1.29,0.791,1.813c-1.416,0.258-2.358,1.605-2.11,3.029c0.251,1.421,1.609,2.376,3.035,2.123
					c1.422-0.248,2.369-1.608,2.124-3.031c-0.025-0.136-0.067-0.263-0.111-0.389c0.429,0.055,0.869,0.067,1.318-0.013
					c0.786-0.137,1.473-0.493,2.039-0.971C151.213,138.456,150.324,138,149.44,137.49z"/>
			</g>
			<g>
				<path fill="#FCD0A6" d="M216.285,23.482c-0.254-1.423-1.609-2.374-3.031-2.119c-1.422,0.245-2.373,1.605-2.122,3.03
					c0.023,0.135,0.066,0.262,0.108,0.388c-0.43-0.056-0.871-0.069-1.32,0.011c-0.79,0.141-1.473,0.495-2.041,0.972
					c0.909,0.413,1.802,0.875,2.686,1.384c1.551,0.893,2.987,1.906,4.325,3.008c0.151-0.583,0.193-1.202,0.078-1.829
					c-0.119-0.685-0.406-1.292-0.791-1.816C215.591,26.251,216.538,24.901,216.285,23.482z"/>
			</g>
			<g>
				<path fill="#FCD0A6" d="M159.486,141.958c-1.684-0.611-3.278-1.358-4.788-2.209c-0.041,0.595,0.02,1.213,0.25,1.812
					c0.236,0.651,0.623,1.198,1.091,1.647c-1.349,0.5-2.044,1.991-1.553,3.351c0.496,1.356,1.998,2.06,3.358,1.563
					c1.356-0.492,2.054-1.996,1.566-3.354c-0.048-0.13-0.112-0.247-0.177-0.364c0.432-0.021,0.867-0.084,1.294-0.242
					c0.751-0.27,1.365-0.741,1.838-1.31C161.4,142.602,160.444,142.307,159.486,141.958z"/>
			</g>
			<g>
				<path fill="#FCD0A6" d="M203.968,21.425c1.346-0.503,2.045-1.996,1.55-3.35c-0.498-1.357-1.998-2.059-3.354-1.562
					c-1.358,0.489-2.058,1.994-1.565,3.354c0.047,0.129,0.11,0.246,0.174,0.362c-0.434,0.02-0.87,0.083-1.299,0.24
					c-0.753,0.275-1.363,0.744-1.841,1.312c0.968,0.249,1.926,0.547,2.885,0.896c1.683,0.611,3.272,1.358,4.783,2.212
					c0.049-0.6-0.017-1.217-0.24-1.815C204.825,22.422,204.438,21.874,203.968,21.425z"/>
			</g>
			<g>
				<path fill="#FCD0A6" d="M170.154,144.613c-1.763-0.309-3.465-0.768-5.099-1.345c0.063,0.594,0.229,1.192,0.558,1.743
					c0.345,0.6,0.821,1.071,1.361,1.432c-1.242,0.727-1.667,2.315-0.946,3.57c0.724,1.249,2.324,1.681,3.579,0.956
					c1.25-0.719,1.674-2.322,0.959-3.576c-0.07-0.119-0.154-0.224-0.239-0.328c0.422-0.095,0.839-0.233,1.233-0.463
					c0.692-0.396,1.217-0.966,1.582-1.609C172.149,144.916,171.159,144.791,170.154,144.613z"/>
			</g>
			<g>
				<path fill="#FCD0A6" d="M194.396,19.622c-0.347-0.603-0.825-1.074-1.366-1.436c1.239-0.727,1.667-2.319,0.946-3.567
					c-0.728-1.25-2.327-1.681-3.575-0.953c-1.251,0.715-1.681,2.318-0.959,3.572c0.068,0.119,0.151,0.223,0.234,0.327
					c-0.423,0.094-0.841,0.233-1.236,0.461c-0.695,0.403-1.215,0.97-1.585,1.613c0.995,0.077,1.99,0.204,2.995,0.381
					c1.763,0.309,3.461,0.77,5.095,1.348C194.888,20.77,194.717,20.172,194.396,19.622z"/>
			</g>
			<g>
				<path fill="#FCD0A6" d="M181.122,145.376c-1.791,0.001-3.546-0.155-5.256-0.439c0.167,0.575,0.433,1.133,0.854,1.621
					c0.445,0.531,0.995,0.913,1.59,1.175c-1.096,0.93-1.24,2.567-0.314,3.678c0.932,1.104,2.583,1.252,3.691,0.32
					c1.106-0.925,1.247-2.578,0.325-3.688c-0.089-0.106-0.19-0.194-0.292-0.282c0.399-0.167,0.785-0.375,1.132-0.669
					c0.613-0.511,1.032-1.163,1.278-1.861C183.138,145.328,182.141,145.376,181.122,145.376z"/>
			</g>
			<g>
				<path fill="#FCD0A6" d="M183.29,18.075c-0.446-0.533-0.999-0.916-1.594-1.178c1.093-0.931,1.239-2.573,0.312-3.677
					c-0.932-1.105-2.583-1.251-3.685-0.318c-1.109,0.922-1.253,2.575-0.325,3.685c0.088,0.105,0.188,0.194,0.288,0.281
					c-0.4,0.167-0.787,0.375-1.136,0.669c-0.617,0.518-1.029,1.167-1.283,1.864c0.993-0.098,1.996-0.146,3.018-0.146
					c1.789-0.002,3.541,0.158,5.25,0.443C183.973,19.12,183.702,18.56,183.29,18.075z"/>
			</g>
			<g>
				<path fill="#FCD0A6" d="M193.058,146.467c0.363-0.232,0.707-0.505,0.999-0.854c0.514-0.611,0.813-1.325,0.937-2.055
					c-0.961,0.269-1.935,0.488-2.939,0.665c-1.764,0.312-3.519,0.463-5.253,0.48c0.264,0.536,0.624,1.04,1.125,1.447
					c0.53,0.446,1.138,0.727,1.769,0.881c-0.918,1.106-0.776,2.745,0.328,3.677c1.11,0.927,2.761,0.785,3.692-0.325
					c0.928-1.104,0.778-2.756-0.319-3.688C193.289,146.605,193.174,146.536,193.058,146.467z"/>
			</g>
			<g>
				<path fill="#FCD0A6" d="M172.083,18.479c-0.532-0.447-1.142-0.729-1.774-0.882c0.915-1.108,0.771-2.751-0.333-3.676
					c-1.107-0.926-2.76-0.784-3.682,0.327c-0.935,1.101-0.789,2.754,0.319,3.686c0.105,0.088,0.218,0.158,0.333,0.227
					c-0.365,0.233-0.709,0.506-1.002,0.855c-0.518,0.617-0.813,1.327-0.939,2.059c0.961-0.27,1.939-0.491,2.946-0.668
					c1.761-0.313,3.515-0.459,5.246-0.476C172.937,19.389,172.574,18.886,172.083,18.479z"/>
			</g>
			<g>
				<path fill="#FCD0A6" d="M204.37,143.39c-0.12-0.068-0.246-0.117-0.371-0.165c0.317-0.293,0.608-0.621,0.835-1.015
					c0.4-0.69,0.572-1.447,0.565-2.186c-0.9,0.43-1.819,0.815-2.777,1.163c-1.683,0.614-3.385,1.068-5.09,1.385
					c0.351,0.484,0.795,0.917,1.359,1.23c0.598,0.348,1.245,0.519,1.893,0.561c-0.711,1.25-0.284,2.838,0.962,3.566
					c1.254,0.719,2.856,0.294,3.581-0.962C206.047,145.719,205.613,144.117,204.37,143.39z"/>
			</g>
			<g>
				<path fill="#FCD0A6" d="M161.119,20.823c-0.602-0.348-1.251-0.52-1.9-0.561c0.707-1.251,0.283-2.843-0.966-3.561
					c-1.251-0.722-2.856-0.292-3.568,0.961c-0.732,1.244-0.297,2.847,0.954,3.572c0.119,0.069,0.242,0.117,0.366,0.166
					c-0.319,0.293-0.612,0.621-0.839,1.017c-0.402,0.698-0.567,1.449-0.565,2.192c0.9-0.433,1.824-0.822,2.785-1.17
					c1.678-0.615,3.381-1.064,5.083-1.38C162.116,21.571,161.673,21.138,161.119,20.823z"/>
			</g>
			<g>
				<path fill="#FCD0A6" d="M214.604,138.229c-0.13-0.046-0.262-0.073-0.395-0.098c0.262-0.344,0.492-0.717,0.646-1.146
					c0.273-0.749,0.312-1.522,0.177-2.249c-0.812,0.58-1.651,1.12-2.534,1.627c-1.551,0.899-3.148,1.641-4.77,2.249
					c0.427,0.416,0.941,0.766,1.552,0.977c0.649,0.238,1.315,0.294,1.961,0.223c-0.484,1.353,0.211,2.843,1.564,3.344
					c1.361,0.492,2.863-0.204,3.358-1.569C216.661,140.231,215.955,138.731,214.604,138.229z"/>
			</g>
			<g>
				<path fill="#FCD0A6" d="M150.728,25.036c-0.653-0.239-1.323-0.295-1.969-0.223c0.477-1.355-0.215-2.849-1.572-3.339
					c-1.356-0.493-2.863,0.208-3.345,1.566c-0.506,1.354,0.2,2.857,1.56,3.354c0.128,0.047,0.258,0.073,0.388,0.1
					c-0.263,0.344-0.495,0.719-0.65,1.147c-0.273,0.756-0.308,1.525-0.176,2.257c0.812-0.583,1.653-1.125,2.542-1.636
					c1.543-0.896,3.143-1.634,4.763-2.242C151.84,25.601,151.328,25.25,150.728,25.036z"/>
			</g>
			<g>
				<path fill="#FCD0A6" d="M223.789,131.371c-0.137-0.023-0.272-0.026-0.406-0.029c0.198-0.383,0.36-0.791,0.438-1.239
					c0.137-0.786,0.042-1.554-0.217-2.245c-0.697,0.709-1.431,1.389-2.211,2.041c-1.374,1.154-2.817,2.163-4.307,3.043
					c0.492,0.335,1.059,0.591,1.697,0.692c0.681,0.122,1.347,0.061,1.97-0.121c-0.242,1.417,0.701,2.763,2.123,3.021
					c1.424,0.248,2.782-0.7,3.034-2.129C226.159,132.984,225.206,131.63,223.789,131.371z"/>
			</g>
			<g>
				<path fill="#FCD0A6" d="M141.227,30.988c-0.687-0.121-1.355-0.059-1.981,0.124c0.238-1.417-0.704-2.768-2.125-3.016
					c-1.42-0.25-2.785,0.702-3.024,2.123c-0.261,1.419,0.693,2.779,2.119,3.031c0.134,0.024,0.268,0.027,0.4,0.031
					c-0.201,0.385-0.362,0.794-0.441,1.244c-0.137,0.792-0.04,1.555,0.219,2.253c0.697-0.716,1.431-1.396,2.216-2.054
					c1.366-1.15,2.812-2.154,4.302-3.034C142.42,31.351,141.854,31.095,141.227,30.988z"/>
			</g>
			<g>
				<path fill="#FCD0A6" d="M231.641,123.021c-0.139,0-0.271,0.021-0.404,0.043c0.129-0.413,0.218-0.843,0.217-1.298
					c-0.002-0.796-0.231-1.536-0.605-2.173c-0.563,0.821-1.168,1.617-1.824,2.395c-1.151,1.375-2.4,2.62-3.711,3.745
					c0.541,0.245,1.143,0.398,1.789,0.387c0.691,0.002,1.337-0.174,1.919-0.461c0.008,1.438,1.171,2.6,2.618,2.606
					c1.443-0.002,2.616-1.172,2.616-2.623C234.255,124.199,233.083,123.03,231.641,123.021z"/>
			</g>
			<g>
				<path fill="#FCD0A6" d="M132.903,38.501c-0.697-0.001-1.346,0.177-1.93,0.467c-0.011-1.438-1.174-2.605-2.618-2.603
					c-1.441,0.001-2.619,1.176-2.609,2.617c-0.01,1.443,1.165,2.617,2.614,2.617c0.136,0.001,0.267-0.02,0.397-0.039
					c-0.13,0.413-0.218,0.844-0.218,1.3c0.003,0.804,0.232,1.539,0.608,2.182c0.563-0.825,1.165-1.624,1.827-2.407
					c1.146-1.371,2.394-2.61,3.708-3.736C134.141,38.651,133.538,38.497,132.903,38.501z"/>
			</g>
			<g>
				<path fill="#FCD0A6" d="M240.955,115.562c-0.25-1.419-1.609-2.368-3.028-2.126c-0.137,0.024-0.266,0.067-0.393,0.112
					c0.055-0.429,0.068-0.869-0.012-1.317c-0.139-0.783-0.493-1.473-0.974-2.034c-0.412,0.906-0.868,1.795-1.38,2.674
					c-0.895,1.554-1.907,2.998-3.004,4.334c0.575,0.147,1.194,0.193,1.829,0.069c0.682-0.118,1.287-0.403,1.81-0.788
					c0.256,1.416,1.605,2.358,3.031,2.113C240.255,118.347,241.207,116.991,240.955,115.562z"/>
			</g>
			<g>
				<path fill="#FCD0A6" d="M126.009,47.345c-0.687,0.121-1.295,0.408-1.82,0.795c-0.26-1.414-1.607-2.364-3.03-2.11
					c-1.418,0.251-2.373,1.613-2.115,3.03c0.242,1.423,1.603,2.374,3.03,2.123c0.134-0.023,0.26-0.065,0.386-0.107
					c-0.056,0.43-0.069,0.869,0.01,1.318c0.142,0.791,0.496,1.476,0.979,2.044c0.41-0.911,0.866-1.803,1.38-2.688
					c0.89-1.549,1.905-2.986,3.003-4.324C127.253,47.278,126.633,47.23,126.009,47.345z"/>
			</g>
			<g>
				<path fill="#FCD0A6" d="M245.803,104.471c-0.495-1.354-1.997-2.051-3.353-1.567c-0.131,0.048-0.25,0.113-0.368,0.179
					c-0.02-0.432-0.084-0.868-0.242-1.296c-0.27-0.746-0.739-1.365-1.31-1.834c-0.249,0.964-0.544,1.918-0.895,2.875
					c-0.612,1.685-1.358,3.282-2.206,4.788c0.591,0.045,1.208-0.016,1.813-0.249c0.65-0.235,1.197-0.621,1.646-1.09
					c0.498,1.349,1.991,2.043,3.352,1.555C245.596,107.336,246.296,105.836,245.803,104.471z"/>
			</g>
			<g>
				<path fill="#FCD0A6" d="M120.756,57.251c-0.656,0.237-1.205,0.627-1.655,1.099c-0.502-1.347-1.995-2.047-3.35-1.551
					c-1.351,0.495-2.058,2.002-1.558,3.352c0.485,1.358,1.992,2.059,3.353,1.564c0.129-0.046,0.246-0.11,0.362-0.172
					c0.02,0.433,0.083,0.868,0.24,1.295c0.276,0.754,0.744,1.367,1.317,1.842c0.247-0.968,0.539-1.926,0.892-2.885
					c0.608-1.68,1.359-3.271,2.21-4.781C121.971,56.969,121.351,57.031,120.756,57.251z"/>
			</g>
			<g>
				<path fill="#FCD0A6" d="M248.649,92.708c-0.723-1.248-2.322-1.675-3.573-0.963c-0.121,0.071-0.227,0.155-0.332,0.241
					c-0.095-0.422-0.233-0.839-0.463-1.235c-0.395-0.688-0.963-1.215-1.607-1.577c-0.078,0.992-0.202,1.982-0.383,2.984
					c-0.309,1.767-0.768,3.47-1.343,5.099c0.592-0.058,1.19-0.225,1.746-0.559c0.6-0.345,1.071-0.819,1.43-1.359
					c0.724,1.242,2.316,1.667,3.572,0.95C248.944,95.564,249.373,93.967,248.649,92.708z"/>
			</g>
			<g>
				<path fill="#FCD0A6" d="M117.304,67.919c-0.604,0.348-1.077,0.826-1.438,1.369c-0.73-1.238-2.322-1.669-3.569-0.944
					c-1.243,0.72-1.68,2.329-0.951,3.57c0.712,1.253,2.319,1.683,3.572,0.958c0.119-0.067,0.223-0.15,0.327-0.232
					c0.094,0.422,0.233,0.84,0.461,1.234c0.402,0.696,0.97,1.217,1.617,1.586c0.075-0.998,0.195-1.99,0.378-2.998
					c0.307-1.759,0.771-3.457,1.347-5.09C118.45,67.43,117.852,67.599,117.304,67.919z"/>
			</g>
		</g>
		<g id="inner-boxes">
			<g>
				<rect x="121.102" y="79.034" fill="#FFF1E5" width="8.537" height="6.576"/>
			</g>
			<g>
				<rect x="230.361" y="79.034" fill="#FFF1E5" width="8.535" height="6.576"/>
			</g>
			<g>
				
					<rect x="121.933" y="88.52" transform="matrix(0.9848 -0.1737 0.1737 0.9848 -14.0303 23.3201)" fill="#FFF1E5" width="8.536" height="6.576"/>
			</g>
			<g>
				
					<rect x="229.532" y="69.547" transform="matrix(-0.9848 0.1737 -0.1737 -0.9848 476.6963 103.951)" fill="#FFF1E5" width="8.534" height="6.577"/>
			</g>
			<g>
				
					<rect x="124.398" y="97.718" transform="matrix(0.9397 -0.3421 0.3421 0.9397 -26.7884 50.1038)" fill="#FFF1E5" width="8.536" height="6.576"/>
			</g>
			<g>
				
					<rect x="227.068" y="60.348" transform="matrix(-0.9396 0.3422 -0.3422 -0.9396 470.4797 44.2618)" fill="#FFF1E5" width="8.533" height="6.579"/>
			</g>
			<g>
				
					<rect x="128.424" y="106.347" transform="matrix(0.866 -0.5 0.5 0.866 -37.0412 81.0387)" fill="#FFF1E5" width="8.536" height="6.577"/>
			</g>
			<g>
				
					<rect x="223.045" y="51.718" transform="matrix(-0.866 0.5001 -0.5001 -0.866 451.6626 -11.0454)" fill="#FFF1E5" width="8.533" height="6.578"/>
			</g>
			<g>
				
					<rect x="133.886" y="114.147" transform="matrix(0.7661 -0.6427 0.6427 0.7661 -43.1631 116.2518)" fill="#FFF1E5" width="8.538" height="6.576"/>
			</g>
			<g>
				
					<rect x="217.583" y="43.916" transform="matrix(-0.7659 0.643 -0.643 -0.7659 422.1096 -59.2929)" fill="#FFF1E5" width="8.534" height="6.579"/>
			</g>
			<g>
				
					<rect x="140.62" y="120.879" transform="matrix(0.6429 -0.766 0.766 0.6429 -43.3653 155.3203)" fill="#FFF1E5" width="8.538" height="6.576"/>
			</g>
			<g>
				
					<rect x="210.851" y="37.182" transform="matrix(-0.6425 0.7663 -0.7663 -0.6425 384.3361 -98.3754)" fill="#FFF1E5" width="8.532" height="6.577"/>
			</g>
			<g>
				<polygon fill="#FFF1E5" points="157.673,127.577 153.401,134.969 147.709,131.679 151.974,124.287 				"/>
			</g>
			<g>
				
					<rect x="203.049" y="31.72" transform="matrix(-0.4998 0.8661 -0.8661 -0.4998 341.2612 -127.0542)" fill="#FFF1E5" width="8.533" height="6.576"/>
			</g>
			<g>
				<polygon fill="#FFF1E5" points="165.873,130.767 162.945,138.788 156.771,136.537 159.688,128.516 				"/>
			</g>
			<g>
				
					<rect x="194.419" y="27.695" transform="matrix(-0.3418 0.9398 -0.9398 -0.3418 295.7178 -145.142)" fill="#FFF1E5" width="8.532" height="6.576"/>
			</g>
			<g>
				<polygon fill="#FFF1E5" points="174.501,132.484 173.01,140.892 166.538,139.746 168.018,131.341 				"/>
			</g>
			<g>
				
					<rect x="185.221" y="25.229" transform="matrix(-0.1735 0.9848 -0.9848 -0.1735 250.4495 -153.1476)" fill="#FFF1E5" width="8.533" height="6.577"/>
			</g>
			<g>
				<polygon fill="#FFF1E5" points="183.295,132.677 183.287,141.214 176.714,141.211 176.712,132.677 				"/>
			</g>
			<g>
				<rect x="176.712" y="23.42" fill="#FFF1E5" width="6.577" height="8.533"/>
			</g>
			<g>
				<polygon fill="#FFF1E5" points="191.988,131.339 193.464,139.749 186.991,140.886 185.506,132.481 				"/>
			</g>
			<g>
				
					<rect x="166.248" y="25.226" transform="matrix(0.1735 0.9848 -0.9848 0.1735 169.0122 -144.3608)" fill="#FFF1E5" width="8.533" height="6.578"/>
			</g>
			<g>
				<polygon fill="#FFF1E5" points="200.319,128.512 203.231,136.537 197.056,138.782 194.131,130.763 				"/>
			</g>
			<g>
				
					<rect x="157.049" y="27.69" transform="matrix(0.3418 0.9398 -0.9398 0.3418 135.2992 -131.2102)" fill="#FFF1E5" width="8.534" height="6.58"/>
			</g>
			<g>
				<polygon fill="#FFF1E5" points="208.032,124.281 212.292,131.679 206.601,134.961 202.331,127.572 				"/>
			</g>
			<g>
				
					<rect x="148.419" y="31.713" transform="matrix(0.4999 0.8661 -0.8661 0.4999 106.6768 -114.7344)" fill="#FFF1E5" width="8.533" height="6.579"/>
			</g>
			<g>
				<polygon fill="#FFF1E5" points="214.895,118.776 220.375,125.321 215.338,129.543 209.849,123.007 				"/>
			</g>
			<g>
				
					<rect x="140.617" y="37.175" transform="matrix(0.6427 0.7661 -0.7661 0.6427 82.7614 -96.5371)" fill="#FFF1E5" width="8.534" height="6.579"/>
			</g>
			<g>
				<polygon fill="#FFF1E5" points="220.694,112.162 227.229,117.656 223.003,122.688 216.461,117.206 				"/>
			</g>
			<g>
				
					<rect x="133.882" y="43.91" transform="matrix(0.766 0.6428 -0.6428 0.766 62.6621 -77.7598)" fill="#FFF1E5" width="8.535" height="6.577"/>
			</g>
			<g>
				<polygon fill="#FFF1E5" points="225.26,104.643 232.649,108.918 229.362,114.607 221.964,110.343 				"/>
			</g>
			<g>
				<polygon fill="#FFF1E5" points="134.74,59.981 127.346,55.713 130.633,50.017 138.027,54.279 				"/>
			</g>
			<g>
				<polygon fill="#FFF1E5" points="228.449,96.445 236.468,99.37 234.219,105.544 226.193,102.629 				"/>
			</g>
			<g>
				
					<rect x="124.394" y="60.34" transform="matrix(0.9397 0.3419 -0.3419 0.9397 29.512 -40.1585)" fill="#FFF1E5" width="8.538" height="6.578"/>
			</g>
			<g>
				<polygon fill="#FFF1E5" points="230.166,87.816 238.57,89.304 237.429,95.774 229.018,94.299 				"/>
			</g>
			<g>
				<polygon fill="#FFF1E5" points="129.831,76.809 121.425,75.326 122.564,68.848 130.97,70.325 				"/>
			</g>
		</g>
	</g>
</g>
<g id="Layer_2">
	<g>
		<g>
			<g>
				<path fill="#F48466" d="M112.604,328.416h-1.75v8.996h-2.693v-19.906h2.693v8.805h1.477l7.383-8.805h3.035l0.027,0.068
					l-8.066,9.42l8.641,10.35l-0.027,0.068h-3.268L112.604,328.416z"/>
			</g>
			<g>
				<path fill="#F48466" d="M134.685,337.412c-0.091-0.446-0.162-0.841-0.212-1.183c-0.05-0.342-0.08-0.686-0.089-1.032
					c-0.501,0.711-1.155,1.306-1.962,1.784s-1.675,0.718-2.604,0.718c-1.541,0-2.714-0.394-3.521-1.183
					c-0.807-0.788-1.21-1.875-1.21-3.261c0-1.413,0.572-2.518,1.716-3.315c1.144-0.797,2.695-1.196,4.655-1.196h2.926v-1.463
					c0-0.866-0.265-1.552-0.793-2.058c-0.529-0.506-1.276-0.759-2.242-0.759c-0.875,0-1.582,0.219-2.119,0.656
					c-0.538,0.438-0.807,0.962-0.807,1.572l-2.557,0.027l-0.027-0.082c-0.064-1.075,0.439-2.06,1.511-2.953
					c1.071-0.893,2.454-1.34,4.149-1.34c1.677,0,3.026,0.426,4.047,1.278c1.021,0.853,1.531,2.081,1.531,3.685v7.123
					c0,0.529,0.027,1.039,0.082,1.531s0.155,0.976,0.301,1.449H134.685z M130.214,335.443c0.975,0,1.854-0.25,2.639-0.752
					c0.784-0.501,1.294-1.075,1.531-1.723v-2.406h-3.021c-1.085,0-1.953,0.273-2.604,0.82c-0.652,0.547-0.978,1.189-0.978,1.928
					c0,0.656,0.205,1.176,0.615,1.559S129.412,335.443,130.214,335.443z"/>
			</g>
			<g>
				<path fill="#F48466" d="M143.53,335.307h8.545v2.105h-11.758v-1.887l7.998-10.773h-7.902v-2.133h11.197v1.832L143.53,335.307z"
					/>
			</g>
			<g>
				<path fill="#F48466" d="M164.161,337.412c-0.091-0.446-0.162-0.841-0.212-1.183c-0.05-0.342-0.08-0.686-0.089-1.032
					c-0.501,0.711-1.155,1.306-1.962,1.784s-1.675,0.718-2.604,0.718c-1.541,0-2.714-0.394-3.521-1.183
					c-0.807-0.788-1.21-1.875-1.21-3.261c0-1.413,0.572-2.518,1.716-3.315c1.144-0.797,2.695-1.196,4.655-1.196h2.926v-1.463
					c0-0.866-0.265-1.552-0.793-2.058c-0.529-0.506-1.276-0.759-2.242-0.759c-0.875,0-1.582,0.219-2.119,0.656
					c-0.538,0.438-0.807,0.962-0.807,1.572l-2.557,0.027l-0.027-0.082c-0.064-1.075,0.439-2.06,1.511-2.953
					c1.071-0.893,2.454-1.34,4.149-1.34c1.677,0,3.026,0.426,4.047,1.278c1.021,0.853,1.531,2.081,1.531,3.685v7.123
					c0,0.529,0.027,1.039,0.082,1.531s0.155,0.976,0.301,1.449H164.161z M159.69,335.443c0.975,0,1.854-0.25,2.639-0.752
					c0.784-0.501,1.294-1.075,1.531-1.723v-2.406h-3.021c-1.085,0-1.953,0.273-2.604,0.82c-0.652,0.547-0.978,1.189-0.978,1.928
					c0,0.656,0.205,1.176,0.615,1.559S158.888,335.443,159.69,335.443z"/>
			</g>
			<g>
				<path fill="#F48466" d="M174.552,330.59h-1.381v6.822h-2.693v-21.328h2.693v12.359h1.354l4.443-5.824h3.227l-5.373,6.822
					l5.838,7.971h-3.186L174.552,330.59z"/>
			</g>
			<g>
				<path fill="#F48466" d="M187.513,324.602c0.51-0.711,1.137-1.265,1.88-1.661c0.743-0.396,1.565-0.595,2.468-0.595
					c1.577,0,2.805,0.474,3.685,1.422c0.879,0.948,1.319,2.406,1.319,4.375v9.27h-2.693v-9.297c0-1.221-0.262-2.124-0.786-2.707
					c-0.524-0.583-1.306-0.875-2.345-0.875c-0.802,0-1.5,0.157-2.092,0.472c-0.593,0.314-1.071,0.754-1.436,1.319v11.088h-2.693
					v-21.328h2.693V324.602z"/>
			</g>
			<g>
				<path fill="#F48466" d="M209.333,333.434c0-0.592-0.226-1.075-0.677-1.449c-0.451-0.374-1.306-0.702-2.563-0.984
					c-1.741-0.374-3.079-0.897-4.013-1.572c-0.935-0.674-1.401-1.577-1.401-2.707c0-1.203,0.513-2.233,1.538-3.09
					c1.025-0.856,2.354-1.285,3.985-1.285c1.677,0,3.035,0.456,4.074,1.367c1.039,0.912,1.536,1.974,1.49,3.186l-0.027,0.082h-2.57
					c0-0.638-0.28-1.217-0.841-1.736s-1.27-0.779-2.126-0.779c-0.948,0-1.657,0.214-2.126,0.643
					c-0.47,0.429-0.704,0.939-0.704,1.531c0,0.583,0.203,1.035,0.608,1.354c0.405,0.319,1.242,0.611,2.509,0.875
					c1.813,0.383,3.19,0.925,4.129,1.627c0.938,0.702,1.408,1.618,1.408,2.748c0,1.313-0.531,2.384-1.593,3.213
					c-1.062,0.83-2.45,1.244-4.163,1.244c-1.887,0-3.373-0.479-4.457-1.436c-1.085-0.957-1.6-2.073-1.545-3.35l0.027-0.082h2.57
					c0.045,0.957,0.401,1.657,1.066,2.099c0.665,0.442,1.444,0.663,2.338,0.663c0.957,0,1.707-0.203,2.249-0.608
					C209.062,334.58,209.333,334.063,209.333,333.434z"/>
			</g>
			<g>
				<path fill="#F48466" d="M219.122,319.051v3.568h2.803v1.996h-2.803v8.982c0,0.693,0.144,1.181,0.431,1.463
					c0.287,0.283,0.667,0.424,1.142,0.424c0.155,0,0.328-0.021,0.52-0.062s0.351-0.084,0.479-0.13l0.369,1.846
					c-0.201,0.164-0.497,0.298-0.889,0.403c-0.392,0.104-0.779,0.157-1.162,0.157c-1.094,0-1.964-0.33-2.611-0.991
					c-0.647-0.661-0.971-1.697-0.971-3.11v-8.982h-2.352v-1.996h2.352v-3.568H219.122z"/>
			</g>
			<g>
				<path fill="#F48466" d="M233.901,337.412c-0.091-0.446-0.162-0.841-0.212-1.183c-0.05-0.342-0.08-0.686-0.089-1.032
					c-0.501,0.711-1.155,1.306-1.962,1.784s-1.675,0.718-2.604,0.718c-1.541,0-2.714-0.394-3.521-1.183
					c-0.807-0.788-1.21-1.875-1.21-3.261c0-1.413,0.572-2.518,1.716-3.315c1.144-0.797,2.695-1.196,4.655-1.196h2.926v-1.463
					c0-0.866-0.265-1.552-0.793-2.058c-0.529-0.506-1.276-0.759-2.242-0.759c-0.875,0-1.582,0.219-2.119,0.656
					c-0.538,0.438-0.807,0.962-0.807,1.572l-2.557,0.027l-0.027-0.082c-0.064-1.075,0.439-2.06,1.511-2.953
					c1.071-0.893,2.454-1.34,4.149-1.34c1.677,0,3.026,0.426,4.047,1.278c1.021,0.853,1.531,2.081,1.531,3.685v7.123
					c0,0.529,0.027,1.039,0.082,1.531s0.155,0.976,0.301,1.449H233.901z M229.431,335.443c0.975,0,1.854-0.25,2.639-0.752
					c0.784-0.501,1.294-1.075,1.531-1.723v-2.406h-3.021c-1.085,0-1.953,0.273-2.604,0.82c-0.652,0.547-0.978,1.189-0.978,1.928
					c0,0.656,0.205,1.176,0.615,1.559S228.628,335.443,229.431,335.443z"/>
			</g>
			<g>
				<path fill="#F48466" d="M242.61,322.619l0.191,2.201c0.492-0.784,1.109-1.392,1.853-1.825c0.743-0.433,1.588-0.649,2.536-0.649
					c1.595,0,2.83,0.467,3.705,1.401c0.875,0.935,1.313,2.377,1.313,4.327v9.338h-2.693v-9.283c0-1.303-0.258-2.229-0.772-2.775
					c-0.515-0.547-1.301-0.82-2.358-0.82c-0.83,0-1.534,0.167-2.112,0.499c-0.579,0.333-1.037,0.8-1.374,1.401v10.979h-2.693
					v-14.793H242.61z"/>
			</g>
		</g>
		<g>
			<g>
				<path fill="#58585A" d="M128.618,277.214v5.238h-1.635v-12.078h4.134c1.323,0,2.333,0.294,3.03,0.881
					c0.697,0.586,1.046,1.438,1.046,2.557c0,0.619-0.162,1.159-0.486,1.618c-0.323,0.459-0.795,0.824-1.415,1.096
					c0.664,0.216,1.142,0.565,1.432,1.05c0.291,0.484,0.436,1.084,0.436,1.797v1.138c0,0.376,0.042,0.714,0.125,1.013
					s0.227,0.542,0.432,0.73v0.199h-1.685c-0.216-0.188-0.354-0.465-0.415-0.83s-0.091-0.741-0.091-1.129v-1.104
					c0-0.653-0.191-1.18-0.573-1.578s-0.894-0.598-1.536-0.598H128.618z M128.618,275.928h2.333c0.924,0,1.59-0.176,1.996-0.527
					c0.407-0.352,0.61-0.887,0.61-1.606c0-0.68-0.198-1.207-0.594-1.581c-0.396-0.373-1.011-0.56-1.847-0.56h-2.499V275.928z"/>
			</g>
			<g>
				<path fill="#58585A" d="M140.443,282.626c-1.29,0-2.295-0.412-3.017-1.236c-0.723-0.824-1.083-1.909-1.083-3.254v-0.365
					c0-1.289,0.372-2.356,1.117-3.2c0.744-0.844,1.653-1.266,2.727-1.266c1.201,0,2.102,0.374,2.702,1.12
					c0.6,0.748,0.9,1.741,0.9,2.98v0.863h-5.744l-0.025,0.041c0,0.902,0.199,1.635,0.598,2.196s1.007,0.843,1.826,0.843
					c0.553,0,1.039-0.079,1.457-0.237c0.418-0.157,0.776-0.375,1.075-0.651l0.639,1.063c-0.321,0.31-0.744,0.571-1.27,0.784
					S141.185,282.626,140.443,282.626z M140.186,274.591c-0.57,0-1.042,0.221-1.415,0.66c-0.374,0.44-0.602,1.003-0.685,1.689
					l0.017,0.041h4.051v-0.133c0-0.652-0.161-1.192-0.481-1.618S140.855,274.591,140.186,274.591z"/>
			</g>
			<g>
				<path fill="#58585A" d="M144.482,278.128c0-1.445,0.309-2.609,0.926-3.495c0.617-0.886,1.479-1.328,2.585-1.328
					c0.57,0,1.071,0.115,1.502,0.345s0.794,0.561,1.087,0.992l0.199-1.171h1.303v9.031c0,1.151-0.335,2.035-1.004,2.652
					s-1.635,0.925-2.897,0.925c-0.432,0-0.898-0.059-1.398-0.178c-0.501-0.119-0.942-0.281-1.324-0.486l0.249-1.27
					c0.315,0.166,0.696,0.3,1.142,0.402c0.445,0.103,0.884,0.154,1.315,0.154c0.797,0,1.376-0.182,1.739-0.544
					c0.362-0.362,0.543-0.915,0.543-1.656v-1.021c-0.293,0.376-0.645,0.661-1.054,0.854s-0.883,0.29-1.419,0.29
					c-1.096,0-1.952-0.396-2.569-1.19c-0.617-0.794-0.926-1.839-0.926-3.134V278.128z M146.118,278.302
					c0,0.902,0.186,1.627,0.556,2.175s0.943,0.821,1.718,0.821c0.493,0,0.905-0.111,1.237-0.336c0.332-0.224,0.606-0.541,0.822-0.95
					v-4.134c-0.21-0.382-0.484-0.685-0.822-0.909c-0.337-0.224-0.744-0.336-1.22-0.336c-0.78,0-1.357,0.323-1.731,0.972
					c-0.373,0.646-0.56,1.488-0.56,2.523V278.302z"/>
			</g>
			<g>
				<path fill="#58585A" d="M155.354,271.171h-1.635v-1.668h1.635V271.171z M155.354,282.452h-1.635v-8.981h1.635V282.452z"/>
			</g>
			<g>
				<path fill="#58585A" d="M156.637,277.878c0-1.328,0.36-2.422,1.079-3.282s1.696-1.291,2.93-1.291
					c1.245,0,2.229,0.429,2.951,1.286c0.722,0.858,1.083,1.954,1.083,3.287v0.184c0,1.339-0.36,2.435-1.079,3.287
					c-0.719,0.852-1.699,1.277-2.938,1.277s-2.221-0.427-2.942-1.282c-0.723-0.854-1.083-1.949-1.083-3.282V277.878z
					 M158.272,278.062c0,0.951,0.201,1.737,0.602,2.357c0.401,0.619,0.998,0.93,1.789,0.93c0.78,0,1.373-0.311,1.776-0.93
					c0.404-0.62,0.606-1.406,0.606-2.357v-0.184c0-0.94-0.204-1.724-0.61-2.349c-0.407-0.625-1.003-0.938-1.789-0.938
					c-0.78,0-1.371,0.313-1.772,0.938c-0.401,0.625-0.602,1.408-0.602,2.349V278.062z"/>
			</g>
			<g>
				<path fill="#58585A" d="M167.292,273.471l0.116,1.337c0.299-0.477,0.674-0.846,1.125-1.108c0.451-0.263,0.964-0.395,1.54-0.395
					c0.968,0,1.718,0.283,2.25,0.851s0.797,1.443,0.797,2.627v5.67h-1.635v-5.637c0-0.791-0.156-1.353-0.469-1.685
					c-0.313-0.332-0.79-0.498-1.432-0.498c-0.503,0-0.931,0.101-1.283,0.303c-0.351,0.202-0.629,0.485-0.834,0.851v6.666h-1.635
					v-8.981H167.292z"/>
			</g>
			<g>
				<path fill="#58585A" d="M180.163,282.452c-0.055-0.271-0.098-0.511-0.129-0.718c-0.03-0.208-0.048-0.417-0.054-0.627
					c-0.304,0.432-0.701,0.793-1.191,1.083c-0.489,0.291-1.017,0.436-1.581,0.436c-0.935,0-1.647-0.239-2.138-0.718
					c-0.489-0.479-0.734-1.139-0.734-1.979c0-0.857,0.347-1.528,1.042-2.013c0.694-0.484,1.636-0.727,2.826-0.727h1.776v-0.888
					c0-0.526-0.161-0.942-0.481-1.25c-0.321-0.307-0.775-0.461-1.361-0.461c-0.531,0-0.96,0.133-1.287,0.398s-0.49,0.584-0.49,0.955
					l-1.552,0.017l-0.017-0.05c-0.039-0.653,0.267-1.251,0.917-1.793c0.65-0.542,1.49-0.813,2.519-0.813
					c1.018,0,1.837,0.259,2.457,0.776s0.93,1.263,0.93,2.236v4.325c0,0.321,0.017,0.631,0.05,0.93s0.094,0.592,0.183,0.88H180.163z
					 M177.448,281.257c0.592,0,1.126-0.152,1.602-0.457c0.476-0.304,0.786-0.652,0.93-1.045v-1.461h-1.834
					c-0.659,0-1.186,0.166-1.582,0.498c-0.396,0.332-0.593,0.722-0.593,1.17c0,0.398,0.125,0.714,0.374,0.946
					S176.961,281.257,177.448,281.257z"/>
			</g>
			<g>
				<path fill="#58585A" d="M184.907,282.452h-1.635v-12.949h1.635V282.452z"/>
			</g>
			<g>
				<path fill="#58585A" d="M199.311,282.452h-1.635v-5.338h-5.869v5.338h-1.635v-12.086h1.635v5.462h5.869v-5.462h1.635V282.452z"
					/>
			</g>
			<g>
				<path fill="#58585A" d="M206.762,281.124c-0.282,0.481-0.645,0.853-1.087,1.112s-0.955,0.39-1.536,0.39
					c-0.979,0-1.743-0.313-2.291-0.938s-0.822-1.6-0.822-2.922v-5.296h1.635v5.313c0,0.957,0.141,1.616,0.423,1.976
					s0.722,0.539,1.32,0.539c0.581,0,1.061-0.117,1.44-0.353c0.379-0.235,0.665-0.568,0.859-1v-6.475h1.635v8.981h-1.469
					L206.762,281.124z"/>
			</g>
			<g>
				<path fill="#58585A" d="M217.541,278.302c0,1.295-0.311,2.34-0.934,3.134c-0.622,0.794-1.479,1.19-2.569,1.19
					c-0.598,0-1.117-0.117-1.556-0.353c-0.44-0.235-0.804-0.582-1.092-1.042l-0.266,1.221h-1.253v-12.949h1.635v5.03
					c0.282-0.398,0.632-0.703,1.05-0.913c0.418-0.21,0.906-0.315,1.465-0.315c1.107,0,1.97,0.442,2.59,1.328s0.93,2.05,0.93,3.495
					V278.302z M215.906,278.128c0-1.029-0.189-1.869-0.568-2.52c-0.379-0.65-0.956-0.976-1.731-0.976
					c-0.503,0-0.928,0.123-1.274,0.369c-0.346,0.246-0.622,0.577-0.826,0.992v3.894c0.21,0.442,0.485,0.788,0.826,1.037
					c0.34,0.249,0.771,0.373,1.291,0.373c0.769,0,1.342-0.273,1.718-0.821s0.564-1.272,0.564-2.175V278.128z"/>
			</g>
			<g>
				<path fill="#58585A" d="M221.677,277.878c0-1.328,0.36-2.422,1.079-3.282s1.696-1.291,2.93-1.291
					c1.245,0,2.229,0.429,2.951,1.286c0.722,0.858,1.083,1.954,1.083,3.287v0.184c0,1.339-0.36,2.435-1.079,3.287
					c-0.719,0.852-1.699,1.277-2.938,1.277s-2.221-0.427-2.942-1.282c-0.723-0.854-1.083-1.949-1.083-3.282V277.878z
					 M223.312,278.062c0,0.951,0.201,1.737,0.602,2.357c0.401,0.619,0.998,0.93,1.789,0.93c0.78,0,1.373-0.311,1.776-0.93
					c0.404-0.62,0.606-1.406,0.606-2.357v-0.184c0-0.94-0.204-1.724-0.61-2.349c-0.407-0.625-1.003-0.938-1.789-0.938
					c-0.78,0-1.371,0.313-1.772,0.938c-0.401,0.625-0.602,1.408-0.602,2.349V278.062z"/>
			</g>
			<g>
				<path fill="#58585A" d="M231.551,282.452v-7.77h-1.403v-1.212h1.403v-1.138c0-0.957,0.25-1.697,0.751-2.22
					c0.5-0.523,1.199-0.784,2.096-0.784c0.188,0,0.378,0.015,0.568,0.045c0.191,0.03,0.403,0.073,0.635,0.129l-0.199,1.245
					c-0.1-0.022-0.22-0.042-0.361-0.058c-0.142-0.018-0.29-0.025-0.444-0.025c-0.476,0-0.83,0.143-1.063,0.428
					s-0.349,0.698-0.349,1.24v1.138h1.627v1.212h-1.627v7.77H231.551z"/>
			</g>
			<g>
				<path fill="#58585A" d="M115.545,298.984l0.017,0.05c0.022,1.135-0.376,2.084-1.195,2.848s-1.901,1.145-3.246,1.145
					c-1.367,0-2.48-0.483-3.341-1.452c-0.861-0.969-1.291-2.197-1.291-3.686v-2.149c0-1.489,0.43-2.719,1.291-3.69
					c0.86-0.971,1.974-1.456,3.341-1.456s2.454,0.363,3.262,1.091s1.201,1.692,1.179,2.894l-0.017,0.049h-1.569
					c0-0.846-0.249-1.516-0.747-2.008c-0.498-0.493-1.201-0.739-2.108-0.739c-0.913,0-1.641,0.368-2.183,1.104
					c-0.542,0.735-0.813,1.648-0.813,2.738v2.167c0,1.102,0.271,2.02,0.813,2.756s1.27,1.104,2.183,1.104
					c0.908,0,1.61-0.245,2.108-0.735c0.498-0.489,0.747-1.166,0.747-2.029H115.545z"/>
			</g>
			<g>
				<path fill="#58585A" d="M118.38,291.571h-1.635v-1.668h1.635V291.571z M118.38,302.853h-1.635v-8.981h1.635V302.853z"/>
			</g>
			<g>
				<path fill="#58585A" d="M123.042,300.204l0.141,0.631h0.05l0.158-0.631l2.067-6.333h1.668l-3.304,8.981h-1.237l-3.345-8.981
					h1.677L123.042,300.204z"/>
			</g>
			<g>
				<path fill="#58585A" d="M129.514,291.571h-1.635v-1.668h1.635V291.571z M129.514,302.853h-1.635v-8.981h1.635V302.853z"/>
			</g>
			<g>
				<path fill="#58585A" d="M132.947,302.853h-1.635v-12.949h1.635V302.853z"/>
			</g>
			<g>
				<path fill="#58585A" d="M144.652,299.806c0-0.547-0.196-1.007-0.589-1.377c-0.393-0.371-1.084-0.687-2.075-0.947
					c-1.229-0.304-2.187-0.752-2.876-1.344c-0.688-0.593-1.033-1.337-1.033-2.233c0-0.946,0.371-1.735,1.112-2.366
					s1.705-0.945,2.889-0.945c1.273,0,2.287,0.36,3.042,1.083c0.756,0.722,1.122,1.564,1.1,2.527l-0.025,0.05h-1.561
					c0-0.687-0.239-1.254-0.718-1.701c-0.479-0.449-1.092-0.673-1.839-0.673c-0.764,0-1.349,0.186-1.756,0.556
					c-0.406,0.371-0.61,0.853-0.61,1.445c0,0.525,0.223,0.964,0.668,1.315c0.445,0.352,1.169,0.659,2.17,0.925
					c1.217,0.316,2.145,0.781,2.781,1.395c0.636,0.615,0.955,1.373,0.955,2.275c0,0.974-0.383,1.757-1.15,2.349
					c-0.766,0.592-1.767,0.888-3,0.888c-1.167,0-2.198-0.326-3.092-0.979c-0.894-0.653-1.327-1.527-1.299-2.623l0.017-0.051h1.561
					c0,0.759,0.288,1.344,0.863,1.756s1.226,0.619,1.951,0.619c0.775,0,1.388-0.175,1.838-0.523
					C144.427,300.877,144.652,300.403,144.652,299.806z"/>
			</g>
			<g>
				<path fill="#58585A" d="M151.248,303.026c-1.29,0-2.295-0.412-3.017-1.236c-0.723-0.824-1.083-1.909-1.083-3.254v-0.365
					c0-1.289,0.372-2.356,1.117-3.2c0.744-0.844,1.653-1.266,2.727-1.266c1.201,0,2.102,0.374,2.702,1.12
					c0.6,0.748,0.9,1.741,0.9,2.98v0.863h-5.744l-0.025,0.041c0,0.902,0.199,1.635,0.598,2.196s1.007,0.843,1.826,0.843
					c0.553,0,1.039-0.079,1.457-0.237c0.418-0.157,0.776-0.375,1.075-0.651l0.639,1.063c-0.321,0.31-0.744,0.571-1.27,0.784
					S151.99,303.026,151.248,303.026z M150.991,294.991c-0.57,0-1.042,0.221-1.415,0.66c-0.374,0.44-0.602,1.003-0.685,1.689
					l0.017,0.041h4.051v-0.133c0-0.652-0.161-1.192-0.481-1.618S151.66,294.991,150.991,294.991z"/>
			</g>
			<g>
				<path fill="#58585A" d="M159.828,295.315l-0.838-0.05c-0.432,0-0.795,0.103-1.092,0.308c-0.296,0.204-0.524,0.492-0.685,0.863
					v6.416h-1.635v-8.981h1.461l0.158,1.312c0.254-0.465,0.568-0.827,0.942-1.088c0.373-0.26,0.804-0.39,1.291-0.39
					c0.122,0,0.238,0.01,0.349,0.029s0.202,0.04,0.274,0.062L159.828,295.315z"/>
			</g>
			<g>
				<path fill="#58585A" d="M163.826,300.204l0.141,0.631h0.05l0.158-0.631l2.067-6.333h1.668l-3.304,8.981h-1.237l-3.345-8.981
					h1.677L163.826,300.204z"/>
			</g>
			<g>
				<path fill="#58585A" d="M170.297,291.571h-1.635v-1.668h1.635V291.571z M170.297,302.853h-1.635v-8.981h1.635V302.853z"/>
			</g>
			<g>
				<path fill="#58585A" d="M175.531,301.749c0.503,0,0.943-0.168,1.32-0.503s0.564-0.745,0.564-1.232h1.478l0.025,0.05
					c0.022,0.774-0.31,1.462-0.996,2.063s-1.483,0.9-2.391,0.9c-1.262,0-2.236-0.429-2.922-1.286s-1.029-1.926-1.029-3.204v-0.349
					c0-1.268,0.344-2.331,1.034-3.191c0.688-0.86,1.661-1.291,2.917-1.291c1.001,0,1.822,0.31,2.461,0.93
					c0.639,0.62,0.947,1.381,0.925,2.282l-0.017,0.051h-1.486c0-0.549-0.179-1.015-0.535-1.399
					c-0.357-0.385-0.807-0.577-1.349-0.577c-0.802,0-1.388,0.312-1.755,0.935c-0.368,0.622-0.552,1.376-0.552,2.262v0.349
					c0,0.902,0.181,1.663,0.543,2.283C174.13,301.438,174.718,301.749,175.531,301.749z"/>
			</g>
			<g>
				<path fill="#58585A" d="M183.729,303.026c-1.29,0-2.295-0.412-3.017-1.236c-0.723-0.824-1.083-1.909-1.083-3.254v-0.365
					c0-1.289,0.372-2.356,1.117-3.2c0.744-0.844,1.653-1.266,2.727-1.266c1.201,0,2.102,0.374,2.702,1.12
					c0.6,0.748,0.9,1.741,0.9,2.98v0.863h-5.744l-0.025,0.041c0,0.902,0.199,1.635,0.598,2.196s1.007,0.843,1.826,0.843
					c0.553,0,1.039-0.079,1.457-0.237c0.418-0.157,0.776-0.375,1.075-0.651l0.639,1.063c-0.321,0.31-0.744,0.571-1.27,0.784
					S184.471,303.026,183.729,303.026z M183.472,294.991c-0.57,0-1.042,0.221-1.415,0.66c-0.374,0.44-0.602,1.003-0.685,1.689
					l0.017,0.041h4.051v-0.133c0-0.652-0.161-1.192-0.481-1.618S184.141,294.991,183.472,294.991z"/>
			</g>
			<g>
				<path fill="#58585A" d="M193.202,291.571h-1.635v-1.668h1.635V291.571z M193.202,302.853h-1.635v-8.981h1.635V302.853z"/>
			</g>
			<g>
				<path fill="#58585A" d="M196.328,293.871l0.116,1.337c0.299-0.477,0.674-0.846,1.125-1.108c0.451-0.263,0.964-0.395,1.54-0.395
					c0.968,0,1.718,0.283,2.25,0.851s0.797,1.443,0.797,2.627v5.67h-1.635v-5.637c0-0.791-0.156-1.353-0.469-1.685
					c-0.313-0.332-0.79-0.498-1.432-0.498c-0.503,0-0.931,0.101-1.283,0.303c-0.351,0.202-0.629,0.485-0.834,0.851v6.666h-1.635
					v-8.981H196.328z"/>
			</g>
			<g>
				<path fill="#58585A" d="M213.521,299.739h-4.549l-1.079,3.113h-1.668l4.358-12.086h1.403l4.267,12.086h-1.668L213.521,299.739z
					 M209.445,298.37h3.611l-1.76-5.188h-0.05L209.445,298.37z"/>
			</g>
			<g>
				<path fill="#58585A" d="M222.175,300.437c0-0.359-0.137-0.652-0.411-0.879c-0.273-0.228-0.792-0.427-1.556-0.598
					c-1.057-0.228-1.869-0.546-2.436-0.955c-0.567-0.409-0.851-0.957-0.851-1.644c0-0.73,0.311-1.355,0.934-1.876
					c0.622-0.521,1.429-0.78,2.419-0.78c1.018,0,1.843,0.276,2.474,0.83s0.933,1.198,0.905,1.935l-0.017,0.049h-1.561
					c0-0.387-0.17-0.738-0.511-1.054c-0.34-0.315-0.771-0.474-1.291-0.474c-0.576,0-1.006,0.131-1.291,0.391
					c-0.285,0.26-0.428,0.57-0.428,0.93c0,0.354,0.123,0.628,0.369,0.822c0.247,0.193,0.754,0.37,1.523,0.531
					c1.101,0.232,1.937,0.562,2.507,0.987s0.855,0.982,0.855,1.669c0,0.797-0.322,1.446-0.967,1.95
					c-0.645,0.504-1.487,0.755-2.527,0.755c-1.146,0-2.047-0.29-2.706-0.871s-0.971-1.259-0.938-2.033l0.017-0.051h1.561
					c0.028,0.582,0.244,1.006,0.647,1.274s0.877,0.403,1.419,0.403c0.581,0,1.036-0.124,1.365-0.37
					C222.011,301.133,222.175,300.819,222.175,300.437z"/>
			</g>
			<g>
				<path fill="#58585A" d="M227.269,291.704v2.167h1.702v1.212h-1.702v5.453c0,0.421,0.087,0.717,0.261,0.889
					c0.175,0.172,0.406,0.258,0.693,0.258c0.094,0,0.199-0.013,0.315-0.038c0.116-0.024,0.213-0.051,0.291-0.079l0.224,1.121
					c-0.122,0.1-0.302,0.182-0.54,0.245s-0.473,0.095-0.706,0.095c-0.664,0-1.192-0.2-1.585-0.602s-0.589-1.03-0.589-1.889v-5.453
					h-1.428v-1.212h1.428v-2.167H227.269z"/>
			</g>
			<g>
				<path fill="#58585A" d="M235.392,302.853c-0.055-0.271-0.098-0.511-0.129-0.718c-0.03-0.208-0.048-0.417-0.054-0.627
					c-0.304,0.432-0.701,0.793-1.191,1.083c-0.489,0.291-1.017,0.436-1.581,0.436c-0.935,0-1.647-0.239-2.138-0.718
					c-0.489-0.479-0.734-1.139-0.734-1.979c0-0.857,0.347-1.528,1.042-2.013c0.694-0.484,1.636-0.727,2.826-0.727h1.776v-0.888
					c0-0.526-0.161-0.942-0.481-1.25c-0.321-0.307-0.775-0.461-1.361-0.461c-0.531,0-0.96,0.133-1.287,0.398s-0.49,0.584-0.49,0.955
					l-1.552,0.017l-0.017-0.05c-0.039-0.653,0.267-1.251,0.917-1.793c0.65-0.542,1.49-0.813,2.519-0.813
					c1.018,0,1.837,0.259,2.457,0.776s0.93,1.263,0.93,2.236v4.325c0,0.321,0.017,0.631,0.05,0.93s0.094,0.592,0.183,0.88H235.392z
					 M232.677,301.657c0.592,0,1.126-0.152,1.602-0.457c0.476-0.304,0.786-0.652,0.93-1.045v-1.461h-1.834
					c-0.659,0-1.186,0.166-1.582,0.498c-0.396,0.332-0.593,0.722-0.593,1.17c0,0.398,0.125,0.714,0.374,0.946
					S232.19,301.657,232.677,301.657z"/>
			</g>
			<g>
				<path fill="#58585A" d="M239.829,293.871l0.116,1.337c0.299-0.477,0.674-0.846,1.125-1.108c0.451-0.263,0.964-0.395,1.54-0.395
					c0.968,0,1.718,0.283,2.25,0.851s0.797,1.443,0.797,2.627v5.67h-1.635v-5.637c0-0.791-0.156-1.353-0.469-1.685
					c-0.313-0.332-0.79-0.498-1.432-0.498c-0.503,0-0.931,0.101-1.283,0.303c-0.351,0.202-0.629,0.485-0.834,0.851v6.666h-1.635
					v-8.981H239.829z"/>
			</g>
			<g>
				<path fill="#58585A" d="M252.7,302.853c-0.055-0.271-0.098-0.511-0.129-0.718c-0.03-0.208-0.048-0.417-0.054-0.627
					c-0.304,0.432-0.701,0.793-1.191,1.083c-0.489,0.291-1.017,0.436-1.581,0.436c-0.935,0-1.647-0.239-2.138-0.718
					c-0.489-0.479-0.734-1.139-0.734-1.979c0-0.857,0.347-1.528,1.042-2.013c0.694-0.484,1.636-0.727,2.826-0.727h1.776v-0.888
					c0-0.526-0.161-0.942-0.481-1.25c-0.321-0.307-0.775-0.461-1.361-0.461c-0.531,0-0.96,0.133-1.287,0.398s-0.49,0.584-0.49,0.955
					l-1.552,0.017l-0.017-0.05c-0.039-0.653,0.267-1.251,0.917-1.793c0.65-0.542,1.49-0.813,2.519-0.813
					c1.018,0,1.837,0.259,2.457,0.776s0.93,1.263,0.93,2.236v4.325c0,0.321,0.017,0.631,0.05,0.93s0.094,0.592,0.183,0.88H252.7z
					 M249.986,301.657c0.592,0,1.126-0.152,1.602-0.457c0.476-0.304,0.786-0.652,0.93-1.045v-1.461h-1.834
					c-0.659,0-1.186,0.166-1.582,0.498c-0.396,0.332-0.593,0.722-0.593,1.17c0,0.398,0.125,0.714,0.374,0.946
					S249.499,301.657,249.986,301.657z"/>
			</g>
		</g>
	</g>
	<g>
		<g>
			<path fill="#F48466" d="M103.63,245.828h0.052l4.065-10.341h2.142v12.727h-1.722v-9.537l-0.052-0.009l-3.855,9.545h-1.198
				l-3.968-9.86l-0.053,0.009v9.851h-1.722v-12.727h2.264L103.63,245.828z"/>
		</g>
		<g>
			<path fill="#F48466" d="M119.46,242.314h-5.227v4.554h6.119v1.346h-7.841v-12.727h7.745v1.355h-6.022v4.117h5.227V242.314z"/>
		</g>
		<g>
			<path fill="#F48466" d="M128.342,245.828h0.053l4.064-10.341h2.142v12.727h-1.722v-9.537l-0.052-0.009l-3.855,9.545h-1.198
				l-3.968-9.86l-0.052,0.009v9.851h-1.722v-12.727h2.264L128.342,245.828z"/>
		</g>
		<g>
			<path fill="#F48466" d="M137.223,248.214v-12.727h4.152c1.329,0,2.369,0.287,3.121,0.861c0.751,0.574,1.127,1.435,1.127,2.583
				c0,0.548-0.169,1.039-0.507,1.473s-0.787,0.765-1.346,0.992c0.833,0.117,1.493,0.478,1.979,1.084
				c0.487,0.606,0.73,1.32,0.73,2.142c0,1.166-0.379,2.056-1.136,2.67c-0.758,0.615-1.783,0.922-3.077,0.922H137.223z
				 M138.945,240.898h2.788c0.641,0,1.163-0.176,1.565-0.529s0.603-0.844,0.603-1.473c0-0.688-0.217-1.202-0.651-1.543
				c-0.434-0.341-1.059-0.511-1.875-0.511h-2.43V240.898z M138.945,242.244v4.624h3.321c0.787,0,1.397-0.194,1.832-0.581
				c0.434-0.388,0.651-0.937,0.651-1.648c0-0.705-0.222-1.273-0.665-1.705c-0.443-0.431-1.04-0.661-1.792-0.69h-0.113H138.945z"/>
		</g>
		<g>
			<path fill="#F48466" d="M155.195,242.314h-5.227v4.554h6.119v1.346h-7.841v-12.727h7.745v1.355h-6.022v4.117h5.227V242.314z"/>
		</g>
		<g>
			<path fill="#F48466" d="M159.488,242.699v5.516h-1.722v-12.718h4.353c1.393,0,2.457,0.309,3.191,0.926
				c0.734,0.618,1.101,1.515,1.101,2.692c0,0.653-0.17,1.221-0.511,1.705s-0.838,0.868-1.49,1.154
				c0.699,0.227,1.202,0.596,1.508,1.106c0.306,0.51,0.459,1.141,0.459,1.892v1.198c0,0.396,0.043,0.752,0.131,1.066
				s0.239,0.571,0.455,0.769v0.21h-1.774c-0.228-0.198-0.373-0.49-0.437-0.874c-0.064-0.385-0.096-0.781-0.096-1.189v-1.163
				c0-0.688-0.201-1.241-0.603-1.661c-0.402-0.419-0.941-0.629-1.617-0.629H159.488z M159.488,241.344h2.456
				c0.973,0,1.674-0.185,2.102-0.555c0.429-0.37,0.643-0.934,0.643-1.691c0-0.717-0.208-1.271-0.625-1.665
				c-0.417-0.394-1.065-0.59-1.945-0.59h-2.631V241.344z"/>
		</g>
		<g>
			<path fill="#F48466" d="M181.971,244.141l0.018,0.052c0.023,1.195-0.396,2.194-1.259,2.998s-2.002,1.207-3.418,1.207
				c-1.439,0-2.612-0.51-3.518-1.53c-0.906-1.02-1.359-2.313-1.359-3.881v-2.264c0-1.567,0.453-2.863,1.359-3.885
				c0.906-1.023,2.079-1.534,3.518-1.534s2.584,0.383,3.436,1.149c0.851,0.766,1.264,1.782,1.241,3.046l-0.018,0.052h-1.652
				c0-0.892-0.262-1.597-0.787-2.115c-0.524-0.519-1.264-0.778-2.22-0.778c-0.961,0-1.728,0.387-2.299,1.163
				c-0.571,0.775-0.856,1.736-0.856,2.884v2.282c0,1.16,0.285,2.127,0.856,2.902s1.337,1.163,2.299,1.163
				c0.956,0,1.696-0.258,2.22-0.773c0.525-0.516,0.787-1.229,0.787-2.137H181.971z"/>
		</g>
		<g>
			<path fill="#F48466" d="M193.588,242.987c0,1.556-0.482,2.847-1.446,3.872c-0.965,1.026-2.216,1.539-3.754,1.539
				c-1.486,0-2.694-0.513-3.624-1.539c-0.93-1.025-1.394-2.316-1.394-3.872v-2.264c0-1.55,0.464-2.841,1.394-3.873
				c0.93-1.031,2.137-1.547,3.624-1.547c1.538,0,2.79,0.514,3.754,1.543c0.964,1.028,1.446,2.32,1.446,3.876V242.987z
				 M191.866,240.706c0-1.166-0.315-2.121-0.944-2.867c-0.629-0.746-1.474-1.119-2.535-1.119c-1.002,0-1.802,0.373-2.4,1.119
				c-0.597,0.746-0.896,1.702-0.896,2.867v2.282c0,1.177,0.298,2.139,0.896,2.884c0.598,0.746,1.397,1.119,2.4,1.119
				c1.066,0,1.913-0.372,2.539-1.115c0.626-0.743,0.94-1.706,0.94-2.889V240.706z"/>
		</g>
		<g>
			<path fill="#F48466" d="M205.101,235.487v8.453c0,1.398-0.455,2.491-1.364,3.278c-0.909,0.787-2.08,1.18-3.514,1.18
				c-1.381,0-2.512-0.395-3.392-1.185c-0.88-0.79-1.32-1.88-1.32-3.273v-8.453h1.722v8.453c0,0.973,0.278,1.735,0.835,2.286
				s1.274,0.826,2.155,0.826c0.932,0,1.691-0.275,2.277-0.826c0.586-0.551,0.878-1.313,0.878-2.286v-8.453H205.101z"/>
		</g>
		<g>
			<path fill="#F48466" d="M217.094,248.214h-1.722l-6.128-9.72l-0.052,0.018v9.703h-1.722v-12.727h1.722l6.127,9.711l0.053-0.018
				v-9.694h1.722V248.214z"/>
		</g>
		<g>
			<path fill="#F48466" d="M228.361,236.842h-4.195v11.372h-1.722v-11.372H218.3v-1.355h10.061V236.842z"/>
		</g>
		<g>
			<path fill="#F48466" d="M231.535,242.699v5.516h-1.722v-12.718h4.353c1.393,0,2.456,0.309,3.19,0.926s1.102,1.515,1.102,2.692
				c0,0.653-0.17,1.221-0.512,1.705c-0.341,0.484-0.837,0.868-1.49,1.154c0.699,0.227,1.202,0.596,1.508,1.106
				c0.306,0.51,0.459,1.141,0.459,1.892v1.198c0,0.396,0.044,0.752,0.131,1.066s0.239,0.571,0.455,0.769v0.21h-1.774
				c-0.228-0.198-0.373-0.49-0.438-0.874c-0.064-0.385-0.096-0.781-0.096-1.189v-1.163c0-0.688-0.201-1.241-0.604-1.661
				c-0.402-0.419-0.941-0.629-1.617-0.629H231.535z M231.535,241.344h2.456c0.973,0,1.674-0.185,2.102-0.555
				c0.428-0.37,0.643-0.934,0.643-1.691c0-0.717-0.208-1.271-0.625-1.665s-1.065-0.59-1.945-0.59h-2.631V241.344z"/>
		</g>
		<g>
			<path fill="#F48466" d="M242.75,248.214h-1.73v-12.727h1.73V248.214z"/>
		</g>
		<g>
			<path fill="#F48466" d="M252.497,242.314h-5.228v4.554h6.119v1.346h-7.841v-12.727h7.745v1.355h-6.023v4.117h5.228V242.314z"/>
		</g>
		<g>
			<path fill="#F48466" d="M261.851,245.006c0-0.577-0.207-1.061-0.621-1.451c-0.414-0.39-1.142-0.722-2.185-0.997
				c-1.293-0.32-2.303-0.792-3.029-1.416c-0.726-0.624-1.088-1.407-1.088-2.351c0-0.997,0.39-1.827,1.171-2.491
				c0.781-0.665,1.795-0.997,3.042-0.997c1.34,0,2.408,0.38,3.204,1.141c0.795,0.761,1.181,1.648,1.158,2.662l-0.026,0.053h-1.643
				c0-0.723-0.252-1.32-0.756-1.792c-0.504-0.472-1.149-0.708-1.936-0.708c-0.804,0-1.42,0.195-1.849,0.585
				c-0.429,0.391-0.643,0.897-0.643,1.521c0,0.554,0.234,1.016,0.704,1.385c0.469,0.37,1.231,0.695,2.286,0.975
				c1.282,0.332,2.258,0.821,2.929,1.468c0.67,0.647,1.005,1.445,1.005,2.395c0,1.026-0.403,1.851-1.21,2.474
				c-0.807,0.624-1.861,0.936-3.16,0.936c-1.229,0-2.315-0.344-3.256-1.031c-0.941-0.688-1.397-1.608-1.368-2.763l0.018-0.052h1.643
				c0,0.798,0.303,1.415,0.909,1.849c0.606,0.435,1.291,0.651,2.054,0.651c0.816,0,1.461-0.184,1.936-0.551
				C261.613,246.134,261.851,245.636,261.851,245.006z"/>
		</g>
	</g>
	<g opacity="0.6">
		<g>
			<rect x="123.157" y="223.202" fill="#FCD6D7" width="113.687" height="3"/>
		</g>
	</g>
</g>
</svg>
