<?xml version="1.0" encoding="utf-8"?>
<!-- Generator: Adobe Illustrator 16.0.0, SVG Export Plug-In . SVG Version: 6.00 Build 0)  -->
<!DOCTYPE svg PUBLIC "-//W3C//DTD SVG 1.1//EN" "http://www.w3.org/Graphics/SVG/1.1/DTD/svg11.dtd">
<svg version="1.1" xmlns="http://www.w3.org/2000/svg" xmlns:xlink="http://www.w3.org/1999/xlink" x="0px" y="0px" width="360px"
	 height="360px" viewBox="0 0 360 360" enable-background="new 0 0 360 360" xml:space="preserve">
<g id="Layer_1">
	<g>
		<rect fill="#FEF1E1" width="360" height="360"/>
	</g>
	<g>
		<g id="building">
			<g>
				<path fill="#FCD0A6" d="M207,106h-57v-5h3v-2h52v2h2V106z M148,108v3h61v-3H148z"/>
			</g>
			<g>
				<g>
					<rect x="154.546" y="76.609" fill="#FCD0A6" width="3.749" height="22.522"/>
				</g>
				<g>
					<rect x="162.802" y="76.609" fill="#FCD0A6" width="3.003" height="22.522"/>
				</g>
				<g>
					<rect x="169.559" y="76.609" fill="#FCD0A6" width="3.754" height="22.522"/>
				</g>
				<g>
					<rect x="177.065" y="76.609" fill="#FCD0A6" width="3.754" height="22.522"/>
				</g>
				<g>
					<rect x="185.329" y="76.609" fill="#FCD0A6" width="3.75" height="22.522"/>
				</g>
				<g>
					<rect x="192.082" y="76.609" fill="#FCD0A6" width="3.754" height="22.522"/>
				</g>
				<g>
					<rect x="200.341" y="76.609" fill="#FCD0A6" width="3.003" height="22.522"/>
				</g>
			</g>
			<g>
				<path fill="#FCD0A6" d="M179.209,62.47c-1.801,0-3.265,1.46-3.265,3.265c0,1.804,1.464,3.265,3.265,3.265
					c1.803,0,3.265-1.461,3.265-3.265C182.474,63.93,181.012,62.47,179.209,62.47 M207.983,76.609h-28.736h-28.842l-1.545-3.905
					L179.247,57.5l30.303,15.178L207.983,76.609z"/>
			</g>
		</g>
		<g id="person-left">
			<g>
				<g>
					<path fill="#FDD1A7" d="M117.479,88.189c0,1.919-0.898,3.043-2.617,3.541l-0.889,0.24c-1.896,0-3.093-0.862-3.56-2.647
						c-0.138-0.592-0.673-2.297-1.377-5.003c-0.823-2.737-1.679-5.578-2.632-8.591c-0.959-2.993-2.085-6.805-3.442-11.527h-2.158
						l12.461,42.107h-11.996v31.982c0,1.258-0.353,2.295-1.302,3.044c-0.845,0.79-1.852,1.163-3.097,1.163
						c-1.308,0-2.265-0.373-3.094-1.163c-0.779-0.749-1.13-1.787-1.13-3.044v-31.982h-1.76v31.982c0,1.258-0.422,2.295-1.198,3.044
						c-0.778,0.79-1.794,1.163-3.039,1.163c-1.258,0-2.334-0.373-3.169-1.163c-0.886-0.749-1.304-1.787-1.304-3.044v-31.982H69.981
						l12.468-42.101h-2.145c-1.361,4.716-2.516,8.52-3.407,11.521c-0.822,3.013-1.721,5.854-2.499,8.591
						c-0.89,2.706-1.493,4.411-1.55,5.003c-0.541,1.786-1.724,2.647-3.576,2.647l-0.947-0.22c-1.733-0.642-2.572-1.771-2.572-3.359
						c0-0.434,0.061-0.799,0.238-1.157c0.123-0.303,0.483-1.36,0.901-3.152c0.484-1.789,1.125-3.995,1.91-6.571
						c0.77-2.615,1.612-5.442,2.49-8.485c0.909-3.057,1.73-5.992,2.746-8.827c0.597-2.167,1.904-4.147,3.937-5.852
						c2.019-1.77,4.124-2.575,6.317-2.575h14.664c2.274,0,4.479,0.805,6.441,2.575c1.904,1.722,3.29,3.685,4.051,5.852
						c0.829,2.835,1.671,5.77,2.498,8.827c0.845,3.042,1.742,5.87,2.458,8.485c0.758,2.577,1.426,4.783,1.906,6.571
						c0.463,1.792,0.77,2.849,0.937,3.152L117.479,88.189z M91.852,49.133c2.511,0,4.666-0.817,6.33-2.535
						c1.72-1.767,2.623-3.957,2.623-6.585c0-2.514-0.903-4.665-2.623-6.447c-1.651-1.837-3.819-2.731-6.33-2.731
						c-2.666,0-4.887,0.894-6.734,2.731c-1.782,1.774-2.668,3.934-2.668,6.447c0,2.628,0.886,4.818,2.672,6.585
						C86.972,48.315,89.189,49.133,91.852,49.133"/>
				</g>
			</g>
			<g>
				<g>
					<path class="element-to-color" fill="#FDD1A7" d="M103.796,74l9.468,32H101v32.291c0,1.258,0.281,2.295-0.668,3.044c-0.845,0.79-1.5,1.163-2.746,1.163
						c-1.308,0-2.419-0.373-3.247-1.163C93.56,140.586,93,139.549,93,138.291V106h-2v32.291c0,1.258-0.117,2.295-0.893,3.044
						c-0.779,0.79-1.678,1.163-2.923,1.163c-1.259,0-2.724-0.373-3.559-1.163C82.74,140.586,82,139.549,82,138.291V106H69.981
						l9.475-32H103.796z M72.848,89.323c0.057-0.592,0.66-2.297,1.55-5.003c0.778-2.737,1.677-5.736,2.499-8.749
						C77.031,75.12,77.173,75,77.318,74h-7.573c-0.323,1-0.64,2.324-0.943,3.353c-0.784,2.577-1.425,4.861-1.91,6.65
						c-0.417,1.791-0.778,2.888-0.901,3.191c-0.177,0.358-0.238,0.743-0.238,1.177c0,1.588,0.839,2.728,2.572,3.369l0.947,0.225
						C71.124,91.965,72.308,91.108,72.848,89.323z M116.309,84.082c-0.48-1.789-1.148-4.152-1.906-6.729
						c-0.282-1.029-0.596-2.353-0.919-3.353h-7.525c0.152,1,0.301,1.121,0.446,1.571c0.953,3.013,1.81,5.933,2.632,8.67
						c0.705,2.705,1.239,4.45,1.377,5.042c0.466,1.786,1.664,2.667,3.56,2.667l0.889-0.229c1.719-0.498,2.617-1.617,2.617-3.536
						l-0.234-0.954C117.079,86.928,116.771,85.873,116.309,84.082z"/>
				</g>
			</g>
		</g>
		<g id="person-right">
			<g>
				<g>
					<path fill="#FDD1A7" d="M294.246,86.959c0,2.075-0.965,3.283-2.828,3.822l-0.961,0.262c-2.044,0-3.33-0.929-3.845-2.86
						c-0.146-0.642-0.721-2.481-1.482-5.406c-0.894-2.956-1.823-6.027-2.85-9.279c-1.036-3.239-2.248-7.352-3.717-12.455h-2.327
						l13.456,45.488h-12.748v34.55c0,1.354-0.389,2.474-1.408,3.286c-0.911,0.852-2,1.252-3.349,1.252
						c-1.411,0-2.448-0.401-3.342-1.252c-0.841-0.813-1.216-1.932-1.216-3.286v-34.55h-2.333v34.55c0,1.354-0.46,2.474-1.292,3.286
						c-0.844,0.852-1.938,1.252-3.283,1.252c-1.363,0-2.521-0.401-3.425-1.252c-0.955-0.813-1.407-1.932-1.407-3.286v-34.55H242.94
						l13.471-45.48h-2.319c-1.474,5.095-2.722,9.207-3.686,12.446c-0.881,3.252-1.854,6.323-2.699,9.279
						c-0.96,2.925-1.612,4.764-1.669,5.406c-0.583,1.931-1.868,2.86-3.866,2.86l-1.02-0.239c-1.875-0.689-2.784-1.914-2.784-3.631
						c0-0.463,0.067-0.86,0.261-1.245c0.134-0.326,0.523-1.473,0.97-3.41c0.526-1.927,1.216-4.31,2.066-7.093
						c0.831-2.828,1.744-5.886,2.69-9.167c0.986-3.303,1.862-6.478,2.966-9.533c0.644-2.34,2.052-4.487,4.248-6.322
						c2.186-1.919,4.46-2.788,6.822-2.788h15.843c2.46,0,4.835,0.869,6.956,2.788c2.063,1.859,3.559,3.981,4.381,6.322
						c0.894,3.055,1.806,6.23,2.7,9.533c0.91,3.281,1.881,6.339,2.651,9.167c0.822,2.783,1.543,5.167,2.057,7.093
						c0.499,1.937,0.835,3.083,1.017,3.41L294.246,86.959z M266.563,44.764c2.717,0,5.044-0.876,6.841-2.735
						c1.859-1.907,2.832-4.271,2.832-7.114c0-2.714-0.973-5.038-2.832-6.966c-1.788-1.98-4.125-2.949-6.841-2.949
						c-2.88,0-5.274,0.969-7.276,2.949c-1.92,1.919-2.875,4.251-2.875,6.966c0,2.843,0.955,5.207,2.885,7.114
						C261.296,43.887,263.687,44.764,266.563,44.764"/>
				</g>
			</g>
			<g>
				<g>
					<path class="element-to-color" fill="#FDD1A7" d="M250.945,79.507l-8.005,26.82h13.196v34.755c0,1.354,0.761,2.474,1.716,3.286
						c0.904,0.852,2.217,1.252,3.58,1.252c1.345,0,2.262-0.401,3.106-1.252c0.833-0.813,1.115-1.932,1.115-3.286v-34.755h1.73
						v34.755c0,1.354,0.931,2.474,1.771,3.286c0.895,0.852,2.209,1.252,3.621,1.252c1.349,0,2.122-0.401,3.033-1.252
						c1.019-0.813,1.093-1.932,1.093-3.286v-34.755h12.792l-7.994-26.82H250.945z"/>
				</g>
			</g>
		</g>
	</g>
</g>
<g id="Layer_2">
	<g>
		<g>
			<path fill="#F48466" d="M112.604,328.416h-1.75v8.996h-2.693v-19.906h2.693v8.805h1.477l7.383-8.805h3.035l0.027,0.068
				l-8.066,9.42l8.641,10.35l-0.027,0.068h-3.268L112.604,328.416z"/>
			<path fill="#F48466" d="M134.685,337.412c-0.091-0.446-0.162-0.841-0.212-1.183c-0.05-0.342-0.08-0.686-0.089-1.032
				c-0.501,0.711-1.155,1.306-1.962,1.784s-1.675,0.718-2.604,0.718c-1.541,0-2.714-0.394-3.521-1.183
				c-0.807-0.788-1.21-1.875-1.21-3.261c0-1.413,0.572-2.518,1.716-3.315c1.144-0.797,2.695-1.196,4.655-1.196h2.926v-1.463
				c0-0.866-0.265-1.552-0.793-2.058c-0.529-0.506-1.276-0.759-2.242-0.759c-0.875,0-1.582,0.219-2.119,0.656
				c-0.538,0.438-0.807,0.962-0.807,1.572l-2.557,0.027l-0.027-0.082c-0.064-1.075,0.439-2.06,1.511-2.953
				c1.071-0.893,2.454-1.34,4.149-1.34c1.677,0,3.026,0.426,4.047,1.278c1.021,0.853,1.531,2.081,1.531,3.685v7.123
				c0,0.529,0.027,1.039,0.082,1.531s0.155,0.976,0.301,1.449H134.685z M130.214,335.443c0.975,0,1.854-0.25,2.639-0.752
				c0.784-0.501,1.294-1.075,1.531-1.723v-2.406h-3.021c-1.085,0-1.953,0.273-2.604,0.82c-0.652,0.547-0.978,1.189-0.978,1.928
				c0,0.656,0.205,1.176,0.615,1.559S129.412,335.443,130.214,335.443z"/>
			<path fill="#F48466" d="M143.53,335.307h8.545v2.105h-11.758v-1.887l7.998-10.773h-7.902v-2.133h11.197v1.832L143.53,335.307z"/>
			<path fill="#F48466" d="M164.161,337.412c-0.091-0.446-0.162-0.841-0.212-1.183c-0.05-0.342-0.08-0.686-0.089-1.032
				c-0.501,0.711-1.155,1.306-1.962,1.784s-1.675,0.718-2.604,0.718c-1.541,0-2.714-0.394-3.521-1.183
				c-0.807-0.788-1.21-1.875-1.21-3.261c0-1.413,0.572-2.518,1.716-3.315c1.144-0.797,2.695-1.196,4.655-1.196h2.926v-1.463
				c0-0.866-0.265-1.552-0.793-2.058c-0.529-0.506-1.276-0.759-2.242-0.759c-0.875,0-1.582,0.219-2.119,0.656
				c-0.538,0.438-0.807,0.962-0.807,1.572l-2.557,0.027l-0.027-0.082c-0.064-1.075,0.439-2.06,1.511-2.953
				c1.071-0.893,2.454-1.34,4.149-1.34c1.677,0,3.026,0.426,4.047,1.278c1.021,0.853,1.531,2.081,1.531,3.685v7.123
				c0,0.529,0.027,1.039,0.082,1.531s0.155,0.976,0.301,1.449H164.161z M159.69,335.443c0.975,0,1.854-0.25,2.639-0.752
				c0.784-0.501,1.294-1.075,1.531-1.723v-2.406h-3.021c-1.085,0-1.953,0.273-2.604,0.82c-0.652,0.547-0.978,1.189-0.978,1.928
				c0,0.656,0.205,1.176,0.615,1.559S158.888,335.443,159.69,335.443z"/>
			<path fill="#F48466" d="M174.552,330.59h-1.381v6.822h-2.693v-21.328h2.693v12.359h1.354l4.443-5.824h3.227l-5.373,6.822
				l5.838,7.971h-3.186L174.552,330.59z"/>
			<path fill="#F48466" d="M187.513,324.602c0.51-0.711,1.137-1.265,1.88-1.661c0.743-0.396,1.565-0.595,2.468-0.595
				c1.577,0,2.805,0.474,3.685,1.422c0.879,0.948,1.319,2.406,1.319,4.375v9.27h-2.693v-9.297c0-1.221-0.262-2.124-0.786-2.707
				c-0.524-0.583-1.306-0.875-2.345-0.875c-0.802,0-1.5,0.157-2.092,0.472c-0.593,0.314-1.071,0.754-1.436,1.319v11.088h-2.693
				v-21.328h2.693V324.602z"/>
			<path fill="#F48466" d="M209.333,333.434c0-0.592-0.226-1.075-0.677-1.449c-0.451-0.374-1.306-0.702-2.563-0.984
				c-1.741-0.374-3.079-0.897-4.013-1.572c-0.935-0.674-1.401-1.577-1.401-2.707c0-1.203,0.513-2.233,1.538-3.09
				c1.025-0.856,2.354-1.285,3.985-1.285c1.677,0,3.035,0.456,4.074,1.367c1.039,0.912,1.536,1.974,1.49,3.186l-0.027,0.082h-2.57
				c0-0.638-0.28-1.217-0.841-1.736s-1.27-0.779-2.126-0.779c-0.948,0-1.657,0.214-2.126,0.643c-0.47,0.429-0.704,0.939-0.704,1.531
				c0,0.583,0.203,1.035,0.608,1.354c0.405,0.319,1.242,0.611,2.509,0.875c1.813,0.383,3.19,0.925,4.129,1.627
				c0.938,0.702,1.408,1.618,1.408,2.748c0,1.313-0.531,2.384-1.593,3.213c-1.062,0.83-2.45,1.244-4.163,1.244
				c-1.887,0-3.373-0.479-4.457-1.436c-1.085-0.957-1.6-2.073-1.545-3.35l0.027-0.082h2.57c0.045,0.957,0.401,1.657,1.066,2.099
				c0.665,0.442,1.444,0.663,2.338,0.663c0.957,0,1.707-0.203,2.249-0.608C209.062,334.58,209.333,334.063,209.333,333.434z"/>
			<path fill="#F48466" d="M219.122,319.051v3.568h2.803v1.996h-2.803v8.982c0,0.693,0.144,1.181,0.431,1.463
				c0.287,0.283,0.667,0.424,1.142,0.424c0.155,0,0.328-0.021,0.52-0.062s0.351-0.084,0.479-0.13l0.369,1.846
				c-0.201,0.164-0.497,0.298-0.889,0.403c-0.392,0.104-0.779,0.157-1.162,0.157c-1.094,0-1.964-0.33-2.611-0.991
				c-0.647-0.661-0.971-1.697-0.971-3.11v-8.982h-2.352v-1.996h2.352v-3.568H219.122z"/>
			<path fill="#F48466" d="M233.901,337.412c-0.091-0.446-0.162-0.841-0.212-1.183c-0.05-0.342-0.08-0.686-0.089-1.032
				c-0.501,0.711-1.155,1.306-1.962,1.784s-1.675,0.718-2.604,0.718c-1.541,0-2.714-0.394-3.521-1.183
				c-0.807-0.788-1.21-1.875-1.21-3.261c0-1.413,0.572-2.518,1.716-3.315c1.144-0.797,2.695-1.196,4.655-1.196h2.926v-1.463
				c0-0.866-0.265-1.552-0.793-2.058c-0.529-0.506-1.276-0.759-2.242-0.759c-0.875,0-1.582,0.219-2.119,0.656
				c-0.538,0.438-0.807,0.962-0.807,1.572l-2.557,0.027l-0.027-0.082c-0.064-1.075,0.439-2.06,1.511-2.953
				c1.071-0.893,2.454-1.34,4.149-1.34c1.677,0,3.026,0.426,4.047,1.278c1.021,0.853,1.531,2.081,1.531,3.685v7.123
				c0,0.529,0.027,1.039,0.082,1.531s0.155,0.976,0.301,1.449H233.901z M229.431,335.443c0.975,0,1.854-0.25,2.639-0.752
				c0.784-0.501,1.294-1.075,1.531-1.723v-2.406h-3.021c-1.085,0-1.953,0.273-2.604,0.82c-0.652,0.547-0.978,1.189-0.978,1.928
				c0,0.656,0.205,1.176,0.615,1.559S228.628,335.443,229.431,335.443z"/>
			<path fill="#F48466" d="M242.61,322.619l0.191,2.201c0.492-0.784,1.109-1.392,1.853-1.825c0.743-0.433,1.588-0.649,2.536-0.649
				c1.595,0,2.83,0.467,3.705,1.401c0.875,0.935,1.313,2.377,1.313,4.327v9.338h-2.693v-9.283c0-1.303-0.258-2.229-0.772-2.775
				c-0.515-0.547-1.301-0.82-2.358-0.82c-0.83,0-1.534,0.167-2.112,0.499c-0.579,0.333-1.037,0.8-1.374,1.401v10.979h-2.693v-14.793
				H242.61z"/>
		</g>
		<g>
			<path fill="#58585A" d="M102.036,277.604v4.848H100.4v-12.086h4.624c1.29,0,2.292,0.332,3.009,0.996
				c0.716,0.664,1.075,1.538,1.075,2.623c0,1.096-0.358,1.973-1.075,2.631c-0.717,0.659-1.72,0.988-3.009,0.988H102.036z
				 M102.036,276.326h2.988c0.819,0,1.431-0.22,1.834-0.66c0.404-0.439,0.606-0.994,0.606-1.664s-0.204-1.229-0.61-1.677
				c-0.407-0.448-1.017-0.672-1.831-0.672h-2.988V276.326z"/>
			<path fill="#58585A" d="M115.563,282.452c-0.055-0.271-0.098-0.511-0.129-0.718c-0.03-0.208-0.048-0.417-0.054-0.627
				c-0.304,0.432-0.701,0.793-1.191,1.083c-0.489,0.291-1.017,0.436-1.581,0.436c-0.935,0-1.647-0.239-2.138-0.718
				c-0.489-0.479-0.734-1.139-0.734-1.979c0-0.857,0.347-1.528,1.042-2.013c0.694-0.484,1.636-0.727,2.826-0.727h1.776v-0.888
				c0-0.526-0.161-0.942-0.481-1.25c-0.321-0.307-0.775-0.461-1.361-0.461c-0.531,0-0.96,0.133-1.287,0.398s-0.49,0.584-0.49,0.955
				l-1.552,0.017l-0.017-0.05c-0.039-0.653,0.267-1.251,0.917-1.793c0.65-0.542,1.49-0.813,2.519-0.813
				c1.018,0,1.837,0.259,2.457,0.776s0.93,1.263,0.93,2.236v4.325c0,0.321,0.017,0.631,0.05,0.93s0.094,0.592,0.183,0.88H115.563z
				 M112.848,281.257c0.592,0,1.126-0.152,1.602-0.457c0.476-0.304,0.786-0.652,0.93-1.045v-1.461h-1.834
				c-0.659,0-1.186,0.166-1.582,0.498c-0.396,0.332-0.593,0.722-0.593,1.17c0,0.398,0.125,0.714,0.374,0.946
				S112.361,281.257,112.848,281.257z"/>
			<path fill="#58585A" d="M122.789,274.915l-0.838-0.05c-0.432,0-0.795,0.103-1.092,0.308c-0.296,0.204-0.524,0.492-0.685,0.863
				v6.416h-1.635v-8.981H120l0.158,1.312c0.254-0.465,0.568-0.827,0.942-1.088c0.373-0.26,0.804-0.39,1.291-0.39
				c0.122,0,0.238,0.01,0.349,0.029s0.202,0.04,0.274,0.062L122.789,274.915z"/>
			<path fill="#58585A" d="M126.057,271.304v2.167h1.702v1.212h-1.702v5.453c0,0.421,0.087,0.717,0.261,0.889
				c0.175,0.172,0.406,0.258,0.693,0.258c0.094,0,0.199-0.013,0.315-0.038c0.116-0.024,0.213-0.051,0.291-0.079l0.224,1.121
				c-0.122,0.1-0.302,0.182-0.54,0.245s-0.473,0.095-0.706,0.095c-0.664,0-1.192-0.2-1.585-0.602s-0.589-1.03-0.589-1.889v-5.453
				h-1.428v-1.212h1.428v-2.167H126.057z"/>
			<path fill="#58585A" d="M130.428,271.171h-1.635v-1.668h1.635V271.171z M130.428,282.452h-1.635v-8.981h1.635V282.452z"/>
			<path fill="#58585A" d="M135.662,281.349c0.503,0,0.943-0.168,1.32-0.503s0.564-0.745,0.564-1.232h1.478l0.025,0.05
				c0.022,0.774-0.31,1.462-0.996,2.063s-1.483,0.9-2.391,0.9c-1.262,0-2.236-0.429-2.922-1.286s-1.029-1.926-1.029-3.204v-0.349
				c0-1.268,0.344-2.331,1.034-3.191c0.688-0.86,1.661-1.291,2.917-1.291c1.001,0,1.822,0.31,2.461,0.93
				c0.639,0.62,0.947,1.381,0.925,2.282l-0.017,0.051h-1.486c0-0.549-0.179-1.015-0.535-1.399c-0.357-0.385-0.807-0.577-1.349-0.577
				c-0.802,0-1.388,0.312-1.755,0.935c-0.368,0.622-0.552,1.376-0.552,2.262v0.349c0,0.902,0.181,1.663,0.543,2.283
				C134.261,281.038,134.849,281.349,135.662,281.349z"/>
			<path fill="#58585A" d="M141.909,271.171h-1.635v-1.668h1.635V271.171z M141.909,282.452h-1.635v-8.981h1.635V282.452z"/>
			<path fill="#58585A" d="M151.228,278.302c0,1.295-0.31,2.34-0.93,3.134s-1.475,1.19-2.565,1.19c-0.553,0-1.039-0.092-1.457-0.277
				c-0.417-0.186-0.773-0.464-1.066-0.834v4.391h-1.635v-12.435h1.253l0.257,1.162c0.293-0.432,0.659-0.761,1.096-0.987
				c0.437-0.228,0.946-0.341,1.527-0.341c1.112,0,1.977,0.441,2.594,1.324c0.617,0.883,0.925,2.049,0.925,3.499V278.302z
				 M149.592,278.128c0-1.019-0.201-1.855-0.602-2.512c-0.401-0.655-0.992-0.983-1.772-0.983c-0.47,0-0.872,0.106-1.204,0.319
				s-0.601,0.505-0.805,0.876v4.341c0.205,0.371,0.473,0.66,0.805,0.868c0.332,0.207,0.739,0.312,1.22,0.312
				c0.775,0,1.361-0.284,1.76-0.852s0.598-1.299,0.598-2.195V278.128z"/>
			<path fill="#58585A" d="M157.907,282.452c-0.055-0.271-0.098-0.511-0.129-0.718c-0.03-0.208-0.048-0.417-0.054-0.627
				c-0.304,0.432-0.701,0.793-1.191,1.083c-0.489,0.291-1.017,0.436-1.581,0.436c-0.935,0-1.647-0.239-2.138-0.718
				c-0.489-0.479-0.734-1.139-0.734-1.979c0-0.857,0.347-1.528,1.042-2.013c0.694-0.484,1.636-0.727,2.826-0.727h1.776v-0.888
				c0-0.526-0.161-0.942-0.481-1.25c-0.321-0.307-0.775-0.461-1.361-0.461c-0.531,0-0.96,0.133-1.287,0.398s-0.49,0.584-0.49,0.955
				l-1.552,0.017l-0.017-0.05c-0.039-0.653,0.267-1.251,0.917-1.793c0.65-0.542,1.49-0.813,2.519-0.813
				c1.018,0,1.837,0.259,2.457,0.776s0.93,1.263,0.93,2.236v4.325c0,0.321,0.017,0.631,0.05,0.93s0.094,0.592,0.183,0.88H157.907z
				 M155.192,281.257c0.592,0,1.126-0.152,1.602-0.457c0.476-0.304,0.786-0.652,0.93-1.045v-1.461h-1.834
				c-0.659,0-1.186,0.166-1.582,0.498c-0.396,0.332-0.593,0.722-0.593,1.17c0,0.398,0.125,0.714,0.374,0.946
				S154.706,281.257,155.192,281.257z"/>
			<path fill="#58585A" d="M163.158,271.304v2.167h1.702v1.212h-1.702v5.453c0,0.421,0.087,0.717,0.261,0.889
				c0.175,0.172,0.406,0.258,0.693,0.258c0.094,0,0.199-0.013,0.315-0.038c0.116-0.024,0.213-0.051,0.291-0.079l0.224,1.121
				c-0.122,0.1-0.302,0.182-0.54,0.245s-0.473,0.095-0.706,0.095c-0.664,0-1.192-0.2-1.585-0.602s-0.589-1.03-0.589-1.889v-5.453
				h-1.428v-1.212h1.428v-2.167H163.158z"/>
			<path fill="#58585A" d="M167.529,271.171h-1.635v-1.668h1.635V271.171z M167.529,282.452h-1.635v-8.981h1.635V282.452z"/>
			<path fill="#58585A" d="M168.812,277.878c0-1.328,0.36-2.422,1.079-3.282s1.696-1.291,2.93-1.291
				c1.245,0,2.229,0.429,2.951,1.286c0.722,0.858,1.083,1.954,1.083,3.287v0.184c0,1.339-0.36,2.435-1.079,3.287
				c-0.719,0.852-1.699,1.277-2.938,1.277s-2.221-0.427-2.942-1.282c-0.723-0.854-1.083-1.949-1.083-3.282V277.878z
				 M170.447,278.062c0,0.951,0.201,1.737,0.602,2.357c0.401,0.619,0.998,0.93,1.789,0.93c0.78,0,1.373-0.311,1.776-0.93
				c0.404-0.62,0.606-1.406,0.606-2.357v-0.184c0-0.94-0.204-1.724-0.61-2.349c-0.407-0.625-1.003-0.938-1.789-0.938
				c-0.78,0-1.371,0.313-1.772,0.938c-0.401,0.625-0.602,1.408-0.602,2.349V278.062z"/>
			<path fill="#58585A" d="M179.467,273.471l0.116,1.337c0.299-0.477,0.674-0.846,1.125-1.108c0.451-0.263,0.964-0.395,1.54-0.395
				c0.968,0,1.718,0.283,2.25,0.851s0.797,1.443,0.797,2.627v5.67h-1.635v-5.637c0-0.791-0.156-1.353-0.469-1.685
				c-0.313-0.332-0.79-0.498-1.432-0.498c-0.503,0-0.931,0.101-1.283,0.303c-0.351,0.202-0.629,0.485-0.834,0.851v6.666h-1.635
				v-8.981H179.467z"/>
			<path fill="#58585A" d="M189.812,277.878c0-1.328,0.36-2.422,1.079-3.282s1.696-1.291,2.93-1.291
				c1.245,0,2.229,0.429,2.951,1.286c0.722,0.858,1.083,1.954,1.083,3.287v0.184c0,1.339-0.36,2.435-1.079,3.287
				c-0.719,0.852-1.699,1.277-2.938,1.277s-2.221-0.427-2.942-1.282c-0.723-0.854-1.083-1.949-1.083-3.282V277.878z
				 M191.447,278.062c0,0.951,0.201,1.737,0.602,2.357c0.401,0.619,0.998,0.93,1.789,0.93c0.78,0,1.373-0.311,1.776-0.93
				c0.404-0.62,0.606-1.406,0.606-2.357v-0.184c0-0.94-0.204-1.724-0.61-2.349c-0.407-0.625-1.003-0.938-1.789-0.938
				c-0.78,0-1.371,0.313-1.772,0.938c-0.401,0.625-0.602,1.408-0.602,2.349V278.062z"/>
			<path fill="#58585A" d="M199.686,282.452v-7.77h-1.403v-1.212h1.403v-1.138c0-0.957,0.25-1.697,0.751-2.22
				c0.5-0.523,1.199-0.784,2.096-0.784c0.188,0,0.378,0.015,0.568,0.045c0.191,0.03,0.403,0.073,0.635,0.129l-0.199,1.245
				c-0.1-0.022-0.22-0.042-0.361-0.058c-0.142-0.018-0.29-0.025-0.444-0.025c-0.476,0-0.83,0.143-1.063,0.428
				s-0.349,0.698-0.349,1.24v1.138h1.627v1.212h-1.627v7.77H199.686z"/>
			<path fill="#58585A" d="M209.424,279.182l0.208,1.153h0.05l0.216-1.153l1.793-5.711h1.312l1.801,5.711l0.232,1.286h0.05
				l0.266-1.286l1.328-5.711h1.71l-2.606,8.981h-1.32l-1.776-5.471l-0.34-1.428h-0.05l-0.315,1.428l-1.743,5.471h-1.32l-2.606-8.981
				h1.702L209.424,279.182z"/>
			<path fill="#58585A" d="M218.76,277.878c0-1.328,0.36-2.422,1.079-3.282s1.696-1.291,2.93-1.291c1.245,0,2.229,0.429,2.951,1.286
				c0.722,0.858,1.083,1.954,1.083,3.287v0.184c0,1.339-0.36,2.435-1.079,3.287c-0.719,0.852-1.699,1.277-2.938,1.277
				s-2.221-0.427-2.942-1.282c-0.723-0.854-1.083-1.949-1.083-3.282V277.878z M220.395,278.062c0,0.951,0.201,1.737,0.602,2.357
				c0.401,0.619,0.998,0.93,1.789,0.93c0.78,0,1.373-0.311,1.776-0.93c0.404-0.62,0.606-1.406,0.606-2.357v-0.184
				c0-0.94-0.204-1.724-0.61-2.349c-0.407-0.625-1.003-0.938-1.789-0.938c-0.78,0-1.371,0.313-1.772,0.938
				c-0.401,0.625-0.602,1.408-0.602,2.349V278.062z"/>
			<path fill="#58585A" d="M229.415,273.471l0.116,1.179c0.293-0.426,0.666-0.757,1.117-0.992c0.451-0.235,0.975-0.353,1.573-0.353
				s1.111,0.139,1.54,0.415c0.429,0.276,0.751,0.691,0.967,1.245c0.288-0.515,0.663-0.92,1.125-1.216
				c0.462-0.296,1.003-0.444,1.623-0.444c0.913,0,1.635,0.314,2.167,0.942s0.797,1.572,0.797,2.834v5.371h-1.635v-5.387
				c0-0.886-0.152-1.513-0.457-1.881s-0.758-0.552-1.361-0.552c-0.559,0-1.011,0.193-1.357,0.581
				c-0.346,0.388-0.549,0.877-0.61,1.469v0.066v5.703h-1.644v-5.387c0-0.842-0.156-1.457-0.469-1.848
				c-0.313-0.39-0.763-0.585-1.349-0.585c-0.498,0-0.908,0.103-1.229,0.308c-0.321,0.204-0.567,0.492-0.739,0.863v6.648h-1.635
				v-8.981H229.415z"/>
			<path fill="#58585A" d="M245.681,282.626c-1.29,0-2.295-0.412-3.017-1.236c-0.723-0.824-1.083-1.909-1.083-3.254v-0.365
				c0-1.289,0.372-2.356,1.117-3.2c0.744-0.844,1.653-1.266,2.727-1.266c1.201,0,2.102,0.374,2.702,1.12
				c0.6,0.748,0.9,1.741,0.9,2.98v0.863h-5.744l-0.025,0.041c0,0.902,0.199,1.635,0.598,2.196s1.007,0.843,1.826,0.843
				c0.553,0,1.039-0.079,1.457-0.237c0.418-0.157,0.776-0.375,1.075-0.651l0.639,1.063c-0.321,0.31-0.744,0.571-1.27,0.784
				S246.422,282.626,245.681,282.626z M245.423,274.591c-0.57,0-1.042,0.221-1.415,0.66c-0.374,0.44-0.602,1.003-0.685,1.689
				l0.017,0.041h4.051v-0.133c0-0.652-0.161-1.192-0.481-1.618S246.093,274.591,245.423,274.591z"/>
			<path fill="#58585A" d="M251.471,273.471l0.116,1.337c0.299-0.477,0.674-0.846,1.125-1.108c0.451-0.263,0.964-0.395,1.54-0.395
				c0.968,0,1.718,0.283,2.25,0.851s0.797,1.443,0.797,2.627v5.67h-1.635v-5.637c0-0.791-0.156-1.353-0.469-1.685
				c-0.313-0.332-0.79-0.498-1.432-0.498c-0.503,0-0.931,0.101-1.283,0.303c-0.351,0.202-0.629,0.485-0.834,0.851v6.666h-1.635
				v-8.981H251.471z"/>
			<path fill="#58585A" d="M112.488,291.571h-1.635v-1.668h1.635V291.571z M112.488,302.853h-1.635v-8.981h1.635V302.853z"/>
			<path fill="#58585A" d="M115.614,293.871l0.116,1.337c0.299-0.477,0.674-0.846,1.125-1.108c0.451-0.263,0.964-0.395,1.54-0.395
				c0.968,0,1.718,0.283,2.25,0.851s0.797,1.443,0.797,2.627v5.67h-1.635v-5.637c0-0.791-0.156-1.353-0.469-1.685
				c-0.313-0.332-0.79-0.498-1.432-0.498c-0.503,0-0.931,0.101-1.283,0.303c-0.351,0.202-0.629,0.485-0.834,0.851v6.666h-1.635
				v-8.981H115.614z"/>
			<path fill="#58585A" d="M128.2,301.574h5.894v1.278h-7.529v-12.086h1.635V301.574z"/>
			<path fill="#58585A" d="M134.455,298.278c0-1.328,0.36-2.422,1.079-3.282s1.696-1.291,2.93-1.291
				c1.245,0,2.229,0.429,2.951,1.286c0.722,0.858,1.083,1.954,1.083,3.287v0.184c0,1.339-0.36,2.435-1.079,3.287
				c-0.719,0.852-1.699,1.277-2.938,1.277s-2.221-0.427-2.942-1.282c-0.723-0.854-1.083-1.949-1.083-3.282V298.278z M136.09,298.462
				c0,0.951,0.201,1.737,0.602,2.357c0.401,0.619,0.998,0.93,1.789,0.93c0.78,0,1.373-0.311,1.776-0.93
				c0.404-0.62,0.606-1.406,0.606-2.357v-0.184c0-0.94-0.204-1.724-0.61-2.349c-0.407-0.625-1.003-0.938-1.789-0.938
				c-0.78,0-1.371,0.313-1.772,0.938c-0.401,0.625-0.602,1.408-0.602,2.349V298.462z"/>
			<path fill="#58585A" d="M147.218,301.749c0.503,0,0.943-0.168,1.32-0.503s0.564-0.745,0.564-1.232h1.478l0.025,0.05
				c0.022,0.774-0.31,1.462-0.996,2.063s-1.483,0.9-2.391,0.9c-1.262,0-2.236-0.429-2.922-1.286s-1.029-1.926-1.029-3.204v-0.349
				c0-1.268,0.344-2.331,1.034-3.191c0.688-0.86,1.661-1.291,2.917-1.291c1.001,0,1.822,0.31,2.461,0.93
				c0.639,0.62,0.947,1.381,0.925,2.282l-0.017,0.051h-1.486c0-0.549-0.179-1.015-0.535-1.399c-0.357-0.385-0.807-0.577-1.349-0.577
				c-0.802,0-1.388,0.312-1.755,0.935c-0.368,0.622-0.552,1.376-0.552,2.262v0.349c0,0.902,0.181,1.663,0.543,2.283
				C145.817,301.438,146.405,301.749,147.218,301.749z"/>
			<path fill="#58585A" d="M157.217,302.853c-0.055-0.271-0.098-0.511-0.129-0.718c-0.03-0.208-0.048-0.417-0.054-0.627
				c-0.304,0.432-0.701,0.793-1.191,1.083c-0.489,0.291-1.017,0.436-1.581,0.436c-0.935,0-1.647-0.239-2.138-0.718
				c-0.489-0.479-0.734-1.139-0.734-1.979c0-0.857,0.347-1.528,1.042-2.013c0.694-0.484,1.636-0.727,2.826-0.727h1.776v-0.888
				c0-0.526-0.161-0.942-0.481-1.25c-0.321-0.307-0.775-0.461-1.361-0.461c-0.531,0-0.96,0.133-1.287,0.398s-0.49,0.584-0.49,0.955
				l-1.552,0.017l-0.017-0.05c-0.039-0.653,0.267-1.251,0.917-1.793c0.65-0.542,1.49-0.813,2.519-0.813
				c1.018,0,1.837,0.259,2.457,0.776s0.93,1.263,0.93,2.236v4.325c0,0.321,0.017,0.631,0.05,0.93s0.094,0.592,0.183,0.88H157.217z
				 M154.503,301.657c0.592,0,1.126-0.152,1.602-0.457c0.476-0.304,0.786-0.652,0.93-1.045v-1.461H155.2
				c-0.659,0-1.186,0.166-1.582,0.498c-0.396,0.332-0.593,0.722-0.593,1.17c0,0.398,0.125,0.714,0.374,0.946
				S154.016,301.657,154.503,301.657z"/>
			<path fill="#58585A" d="M161.962,302.853h-1.635v-12.949h1.635V302.853z"/>
			<path fill="#58585A" d="M175.917,301.226c-0.288,0.448-0.787,0.86-1.499,1.236c-0.711,0.377-1.634,0.564-2.768,0.564
				c-1.395,0-2.548-0.462-3.461-1.386s-1.37-2.119-1.37-3.586v-2.49c0-1.467,0.44-2.662,1.32-3.586s2.014-1.386,3.403-1.386
				c1.345,0,2.407,0.357,3.188,1.074s1.159,1.629,1.137,2.735l-0.017,0.05h-1.569c0-0.736-0.238-1.349-0.714-1.839
				c-0.476-0.489-1.151-0.734-2.025-0.734c-0.924,0-1.668,0.346-2.233,1.038c-0.564,0.691-0.847,1.568-0.847,2.631v2.507
				c0,1.073,0.299,1.958,0.896,2.652s1.361,1.042,2.291,1.042c0.714,0,1.28-0.093,1.698-0.278c0.417-0.186,0.729-0.405,0.934-0.66
				v-2.723h-2.739v-1.278h4.375V301.226z"/>
			<path fill="#58585A" d="M177.284,298.278c0-1.328,0.36-2.422,1.079-3.282s1.696-1.291,2.93-1.291
				c1.245,0,2.229,0.429,2.951,1.286c0.722,0.858,1.083,1.954,1.083,3.287v0.184c0,1.339-0.36,2.435-1.079,3.287
				c-0.719,0.852-1.699,1.277-2.938,1.277s-2.221-0.427-2.942-1.282c-0.723-0.854-1.083-1.949-1.083-3.282V298.278z
				 M178.919,298.462c0,0.951,0.201,1.737,0.602,2.357c0.401,0.619,0.998,0.93,1.789,0.93c0.78,0,1.373-0.311,1.776-0.93
				c0.404-0.62,0.606-1.406,0.606-2.357v-0.184c0-0.94-0.204-1.724-0.61-2.349c-0.407-0.625-1.003-0.938-1.789-0.938
				c-0.78,0-1.371,0.313-1.772,0.938c-0.401,0.625-0.602,1.408-0.602,2.349V298.462z"/>
			<path fill="#58585A" d="M189.35,300.204l0.141,0.631h0.05l0.158-0.631l2.067-6.333h1.668l-3.304,8.981h-1.237l-3.345-8.981h1.677
				L189.35,300.204z"/>
			<path fill="#58585A" d="M197.664,303.026c-1.29,0-2.295-0.412-3.017-1.236c-0.723-0.824-1.083-1.909-1.083-3.254v-0.365
				c0-1.289,0.372-2.356,1.117-3.2c0.744-0.844,1.653-1.266,2.727-1.266c1.201,0,2.102,0.374,2.702,1.12
				c0.6,0.748,0.9,1.741,0.9,2.98v0.863h-5.744l-0.025,0.041c0,0.902,0.199,1.635,0.598,2.196s1.007,0.843,1.826,0.843
				c0.553,0,1.039-0.079,1.457-0.237c0.418-0.157,0.776-0.375,1.075-0.651l0.639,1.063c-0.321,0.31-0.744,0.571-1.27,0.784
				S198.405,303.026,197.664,303.026z M197.406,294.991c-0.57,0-1.042,0.221-1.415,0.66c-0.374,0.44-0.602,1.003-0.685,1.689
				l0.017,0.041h4.051v-0.133c0-0.652-0.161-1.192-0.481-1.618S198.076,294.991,197.406,294.991z"/>
			<path fill="#58585A" d="M206.244,295.315l-0.838-0.05c-0.432,0-0.795,0.103-1.092,0.308c-0.296,0.204-0.524,0.492-0.685,0.863
				v6.416h-1.635v-8.981h1.461l0.158,1.312c0.254-0.465,0.568-0.827,0.942-1.088c0.373-0.26,0.804-0.39,1.291-0.39
				c0.122,0,0.238,0.01,0.349,0.029s0.202,0.04,0.274,0.062L206.244,295.315z"/>
			<path fill="#58585A" d="M208.556,293.871l0.116,1.337c0.299-0.477,0.674-0.846,1.125-1.108c0.451-0.263,0.964-0.395,1.54-0.395
				c0.968,0,1.718,0.283,2.25,0.851s0.797,1.443,0.797,2.627v5.67h-1.635v-5.637c0-0.791-0.156-1.353-0.469-1.685
				c-0.313-0.332-0.79-0.498-1.432-0.498c-0.503,0-0.931,0.101-1.283,0.303c-0.351,0.202-0.629,0.485-0.834,0.851v6.666h-1.635
				v-8.981H208.556z"/>
			<path fill="#58585A" d="M217.368,293.871l0.116,1.179c0.293-0.426,0.666-0.757,1.117-0.992c0.451-0.235,0.975-0.353,1.573-0.353
				s1.111,0.139,1.54,0.415c0.429,0.276,0.751,0.691,0.967,1.245c0.288-0.515,0.663-0.92,1.125-1.216
				c0.462-0.296,1.003-0.444,1.623-0.444c0.913,0,1.635,0.314,2.167,0.942s0.797,1.572,0.797,2.834v5.371h-1.635v-5.387
				c0-0.886-0.152-1.513-0.457-1.881s-0.758-0.552-1.361-0.552c-0.559,0-1.011,0.193-1.357,0.581
				c-0.346,0.388-0.549,0.877-0.61,1.469v0.066v5.703h-1.644v-5.387c0-0.842-0.156-1.457-0.469-1.848
				c-0.313-0.39-0.763-0.585-1.349-0.585c-0.498,0-0.908,0.103-1.229,0.308c-0.321,0.204-0.567,0.492-0.739,0.863v6.648h-1.635
				v-8.981H217.368z"/>
			<path fill="#58585A" d="M233.634,303.026c-1.29,0-2.295-0.412-3.017-1.236c-0.723-0.824-1.083-1.909-1.083-3.254v-0.365
				c0-1.289,0.372-2.356,1.117-3.2c0.744-0.844,1.653-1.266,2.727-1.266c1.201,0,2.102,0.374,2.702,1.12
				c0.6,0.748,0.9,1.741,0.9,2.98v0.863h-5.744l-0.025,0.041c0,0.902,0.199,1.635,0.598,2.196s1.007,0.843,1.826,0.843
				c0.553,0,1.039-0.079,1.457-0.237c0.418-0.157,0.776-0.375,1.075-0.651l0.639,1.063c-0.321,0.31-0.744,0.571-1.27,0.784
				S234.376,303.026,233.634,303.026z M233.377,294.991c-0.57,0-1.042,0.221-1.415,0.66c-0.374,0.44-0.602,1.003-0.685,1.689
				l0.017,0.041h4.051v-0.133c0-0.652-0.161-1.192-0.481-1.618S234.046,294.991,233.377,294.991z"/>
			<path fill="#58585A" d="M239.425,293.871l0.116,1.337c0.299-0.477,0.674-0.846,1.125-1.108c0.451-0.263,0.964-0.395,1.54-0.395
				c0.968,0,1.718,0.283,2.25,0.851s0.797,1.443,0.797,2.627v5.67h-1.635v-5.637c0-0.791-0.156-1.353-0.469-1.685
				c-0.313-0.332-0.79-0.498-1.432-0.498c-0.503,0-0.931,0.101-1.283,0.303c-0.351,0.202-0.629,0.485-0.834,0.851v6.666h-1.635
				v-8.981H239.425z"/>
			<path fill="#58585A" d="M249.051,291.704v2.167h1.702v1.212h-1.702v5.453c0,0.421,0.087,0.717,0.261,0.889
				c0.175,0.172,0.406,0.258,0.693,0.258c0.094,0,0.199-0.013,0.315-0.038c0.116-0.024,0.213-0.051,0.291-0.079l0.224,1.121
				c-0.122,0.1-0.302,0.182-0.54,0.245s-0.473,0.095-0.706,0.095c-0.664,0-1.192-0.2-1.585-0.602s-0.589-1.03-0.589-1.889v-5.453
				h-1.428v-1.212h1.428v-2.167H249.051z"/>
		</g>
	</g>
	<g>
		<g>
			<g>
				<g>
					<polygon fill="#FCD0A6" points="186.807,214.697 177.602,207.155 177.602,208.868 184.716,214.697 177.602,220.528 
						177.602,222.246 186.563,214.903 186.563,214.899 					"/>
				</g>
			</g>
			<g>
				<rect x="172.329" y="213.864" fill="#FCD0A6" width="12.756" height="1.493"/>
			</g>
		</g>
		<g>
			<g>
				<path fill="#F48466" d="M41.265,232.463h-1.119v5.751h-1.722v-12.727h1.722v5.629h0.944l4.72-5.629h1.941l0.017,0.043
					l-5.157,6.023l5.524,6.617l-0.018,0.044h-2.089L41.265,232.463z"/>
				<path fill="#F48466" d="M56.02,234.937h-4.79l-1.136,3.278h-1.757l4.589-12.727h1.478l4.493,12.727h-1.757L56.02,234.937z
					 M51.728,233.494h3.802l-1.853-5.463h-0.052L51.728,233.494z"/>
				<path fill="#F48466" d="M61.711,236.868h7.115v1.346H59.77v-1.276l6.801-10.096h-6.705v-1.355h8.671v1.232L61.711,236.868z"/>
				<path fill="#F48466" d="M77.445,234.937h-4.791l-1.136,3.278h-1.757l4.589-12.727h1.478l4.493,12.727h-1.757L77.445,234.937z
					 M73.153,233.494h3.802l-1.853-5.463H75.05L73.153,233.494z"/>
				<path fill="#F48466" d="M84.674,232.463h-1.119v5.751h-1.722v-12.727h1.722v5.629H84.5l4.72-5.629h1.94l0.018,0.043
					l-5.157,6.023l5.524,6.617l-0.018,0.044h-2.089L84.674,232.463z"/>
				<path fill="#F48466" d="M102.48,238.214h-1.722v-5.621h-6.18v5.621h-1.722v-12.727h1.722v5.751h6.18v-5.751h1.722V238.214z"/>
				<path fill="#F48466" d="M111.878,235.006c0-0.577-0.207-1.061-0.621-1.451c-0.414-0.39-1.142-0.722-2.185-0.997
					c-1.293-0.32-2.303-0.792-3.029-1.416c-0.726-0.624-1.088-1.407-1.088-2.351c0-0.997,0.39-1.827,1.171-2.491
					c0.781-0.665,1.795-0.997,3.042-0.997c1.34,0,2.408,0.38,3.204,1.141c0.795,0.761,1.181,1.648,1.158,2.662l-0.026,0.053h-1.643
					c0-0.723-0.252-1.32-0.756-1.792c-0.504-0.472-1.149-0.708-1.936-0.708c-0.804,0-1.42,0.195-1.849,0.585
					c-0.429,0.391-0.643,0.897-0.643,1.521c0,0.554,0.234,1.016,0.704,1.385c0.469,0.371,1.231,0.695,2.286,0.975
					c1.282,0.332,2.258,0.821,2.929,1.468c0.67,0.647,1.005,1.445,1.005,2.395c0,1.026-0.403,1.851-1.21,2.474
					c-0.807,0.624-1.861,0.936-3.16,0.936c-1.229,0-2.315-0.344-3.256-1.031c-0.941-0.688-1.397-1.608-1.368-2.762l0.018-0.053
					h1.643c0,0.798,0.303,1.415,0.909,1.849c0.606,0.435,1.291,0.651,2.054,0.651c0.816,0,1.461-0.184,1.936-0.551
					C111.64,236.134,111.878,235.636,111.878,235.006z"/>
				<path fill="#F48466" d="M124.579,226.842h-4.196v11.372h-1.722v-11.372h-4.144v-1.355h10.062V226.842z"/>
				<path fill="#F48466" d="M131.913,234.937h-4.79l-1.137,3.278h-1.757l4.589-12.727h1.477l4.493,12.727h-1.757L131.913,234.937z
					 M127.621,233.494h3.803l-1.854-5.463h-0.052L127.621,233.494z"/>
				<path fill="#F48466" d="M145.926,238.214h-1.722l-6.127-9.72l-0.053,0.018v9.703h-1.722v-12.727h1.722l6.128,9.711l0.052-0.018
					v-9.694h1.722V238.214z"/>
			</g>
			<g>
				<path fill="#F48466" d="M56.274,166.808v5.769H55.89c-2.548,0.017-4.571,0.781-6.069,2.295
					c-1.498,1.515-2.407,3.634-2.728,6.358c1.458-1.667,3.284-2.5,5.48-2.5c2.532,0,4.555,1.082,6.069,3.245
					c1.515,2.163,2.271,5.047,2.271,8.653c0,2.292-0.433,4.359-1.298,6.201c-0.865,1.843-2.079,3.273-3.642,4.291
					c-1.562,1.018-3.329,1.526-5.3,1.526c-3.173,0-5.717-1.274-7.631-3.822c-1.915-2.548-2.873-5.977-2.873-10.288v-2.524
					c0-3.861,0.605-7.243,1.815-10.143c1.209-2.9,2.957-5.131,5.24-6.694c2.284-1.563,4.947-2.352,7.992-2.368H56.274z
					 M50.434,184.33c-0.865,0-1.591,0.274-2.175,0.822c-0.585,0.548-1.021,1.225-1.31,2.03v2.466c0,2.482,0.328,4.335,0.985,5.56
					s1.522,1.837,2.596,1.837c1.089,0,1.962-0.592,2.62-1.777s0.985-2.703,0.985-4.557c0-1.885-0.34-3.42-1.021-4.604
					C52.432,184.922,51.539,184.33,50.434,184.33z"/>
				<path fill="#F48466" d="M83.017,171.053L71.96,202.165h-7.187l11.104-29.396H61.841v-5.6h21.176V171.053z"/>
				<path fill="#F48466" d="M85.675,198.704c0-1.09,0.364-1.987,1.094-2.692c0.729-0.705,1.678-1.058,2.848-1.058
					c1.138,0,2.083,0.349,2.836,1.046c0.753,0.697,1.129,1.598,1.129,2.704c0,1.122-0.38,2.023-1.142,2.704
					c-0.761,0.682-1.703,1.021-2.824,1.021c-1.138,0-2.079-0.344-2.824-1.033S85.675,199.809,85.675,198.704z"/>
				<path fill="#F48466" d="M109.99,188.632c-1.442,1.475-3.021,2.211-4.735,2.211c-2.66,0-4.755-1.07-6.285-3.209
					c-1.531-2.139-2.295-4.995-2.295-8.569c0-2.307,0.433-4.418,1.298-6.333c0.865-1.915,2.071-3.401,3.617-4.458
					s3.273-1.586,5.18-1.586c1.971,0,3.726,0.585,5.264,1.755c1.538,1.17,2.732,2.848,3.582,5.035
					c0.849,2.188,1.273,4.675,1.273,7.463v2.476c0,5.961-1.31,10.62-3.93,13.977s-6.333,5.067-11.141,5.131h-0.697v-5.865h0.457
					c2.66-0.016,4.659-0.705,5.997-2.067C108.912,193.231,109.717,191.244,109.99,188.632z M106.985,185.508
					c1.313,0,2.347-0.901,3.101-2.702v-3.137c0-2.299-0.313-4.104-0.938-5.416c-0.625-1.311-1.435-1.966-2.428-1.966
					c-0.978,0-1.767,0.647-2.368,1.942c-0.601,1.295-0.901,2.875-0.901,4.74c0,2.027,0.313,3.623,0.938,4.789
					S105.879,185.508,106.985,185.508z"/>
				<path fill="#F48466" d="M119.282,173.898c0-2.131,0.589-3.87,1.767-5.216s2.768-2.019,4.771-2.019s3.602,0.661,4.795,1.983
					c1.193,1.322,1.791,3.105,1.791,5.348v1.754c0,2.164-0.593,3.902-1.778,5.216c-1.187,1.314-2.772,1.971-4.759,1.971
					c-1.971,0-3.562-0.657-4.771-1.971c-1.21-1.313-1.815-3.101-1.815-5.36V173.898z M123.704,175.749
					c0,0.961,0.205,1.727,0.613,2.295c0.409,0.569,0.925,0.854,1.55,0.854c0.641,0,1.149-0.296,1.526-0.89
					c0.376-0.592,0.565-1.37,0.565-2.331v-1.779c0-0.929-0.192-1.695-0.577-2.295c-0.385-0.601-0.905-0.901-1.563-0.901
					c-0.641,0-1.153,0.3-1.538,0.901c-0.385,0.601-0.577,1.39-0.577,2.368V175.749z M127.094,199.544l-3.221-1.827l14.35-27.353
					l3.245,1.827L127.094,199.544z M133.078,193.584c0-2.164,0.601-3.906,1.803-5.228c1.202-1.322,2.788-1.983,4.759-1.983
					c1.987,0,3.582,0.653,4.783,1.959s1.803,3.097,1.803,5.372v1.754c0,2.147-0.585,3.882-1.754,5.204
					c-1.17,1.322-2.765,1.983-4.783,1.983c-2.035,0-3.646-0.665-4.832-1.995s-1.779-3.092-1.779-5.288V193.584z M137.525,195.458
					c0,0.897,0.212,1.65,0.637,2.259c0.424,0.609,0.933,0.914,1.526,0.914c1.33,0,2.027-0.953,2.091-2.86v-2.187
					c0-0.945-0.196-1.71-0.589-2.296c-0.393-0.584-0.91-0.877-1.55-0.877c-1.41,0-2.115,1.226-2.115,3.677V195.458z"/>
			</g>
			<g opacity="0.6">
				<g>
					<rect x="35.157" y="213.202" fill="#FCD6D7" width="113.687" height="3"/>
				</g>
			</g>
		</g>
		<g>
			<g>
				<path fill="#F48466" d="M264.298,232.314h-5.228v4.554h6.119v1.346h-7.841v-12.727h7.744v1.355h-6.022v4.117h5.228V232.314z"/>
				<path fill="#F48466" d="M276.256,225.487v8.453c0,1.398-0.455,2.491-1.363,3.278c-0.909,0.787-2.081,1.18-3.515,1.18
					c-1.381,0-2.512-0.395-3.391-1.185c-0.88-0.79-1.32-1.88-1.32-3.273v-8.453h1.722v8.453c0,0.973,0.278,1.735,0.835,2.286
					s1.274,0.826,2.154,0.826c0.933,0,1.692-0.275,2.277-0.826c0.586-0.551,0.879-1.313,0.879-2.286v-8.453H276.256z"/>
			</g>
			<g>
				<path fill="#F48466" d="M215.248,184.955l1.73-17.787h16.945v5.816h-11.369l-0.625,7.5c1.313-0.881,2.668-1.322,4.063-1.322
					c2.884,0,5.107,1.026,6.67,3.077c1.562,2.051,2.343,4.952,2.343,8.701c0,3.509-0.93,6.337-2.789,8.484
					c-1.858,2.147-4.342,3.221-7.451,3.221c-1.843,0-3.549-0.437-5.12-1.31c-1.57-0.874-2.809-2.087-3.714-3.642
					c-0.905-1.554-1.366-3.317-1.382-5.288h6.73c0.112,1.474,0.473,2.615,1.082,3.425c0.609,0.81,1.395,1.214,2.355,1.214
					c1.122,0,1.987-0.542,2.596-1.628c0.609-1.086,0.914-2.707,0.914-4.862c0-2.027-0.365-3.555-1.094-4.584
					c-0.729-1.029-1.751-1.544-3.064-1.544c-1.282,0-2.276,0.441-2.98,1.322l-0.433,0.601L215.248,184.955z"/>
				<path fill="#F48466" d="M257.325,187.695c0,4.84-0.877,8.541-2.632,11.104c-1.755,2.564-4.259,3.846-7.512,3.846
					c-3.221,0-5.708-1.246-7.463-3.738s-2.664-6.061-2.728-10.708v-6.61c0-4.823,0.873-8.513,2.62-11.068s4.255-3.834,7.523-3.834
					s5.776,1.266,7.523,3.798c1.746,2.532,2.636,6.145,2.668,10.84V187.695z M250.499,180.588c0-2.767-0.273-4.841-0.817-6.225
					c-0.545-1.383-1.394-2.075-2.548-2.075c-2.163,0-3.285,2.534-3.365,7.601v8.759c0,2.831,0.276,4.938,0.83,6.322
					c0.553,1.384,1.414,2.075,2.583,2.075c1.106,0,1.927-0.647,2.464-1.942c0.537-1.295,0.821-3.277,0.854-5.948V180.588z"/>
				<path fill="#F48466" d="M260.176,198.704c0-1.09,0.364-1.987,1.093-2.692c0.729-0.705,1.678-1.058,2.848-1.058
					c1.138,0,2.083,0.349,2.836,1.046c0.753,0.697,1.129,1.598,1.129,2.704c0,1.122-0.381,2.023-1.142,2.704
					c-0.761,0.682-1.703,1.021-2.824,1.021c-1.138,0-2.079-0.344-2.824-1.033S260.176,199.809,260.176,198.704z"/>
				<path fill="#F48466" d="M290.908,176.457c0,1.696-0.361,3.201-1.082,4.513c-0.721,1.313-1.715,2.36-2.98,3.145
					c1.442,0.818,2.58,1.945,3.413,3.382c0.833,1.436,1.25,3.125,1.25,5.065c0,3.113-0.897,5.571-2.692,7.376
					c-1.795,1.805-4.239,2.708-7.331,2.708c-3.093,0-5.552-0.903-7.379-2.708c-1.827-1.805-2.74-4.264-2.74-7.376
					c0-1.941,0.417-3.634,1.25-5.078c0.833-1.444,1.979-2.567,3.437-3.37c-1.282-0.784-2.283-1.832-3.004-3.145
					c-0.721-1.312-1.082-2.816-1.082-4.513c0-3.056,0.857-5.449,2.572-7.177c1.714-1.729,4.014-2.593,6.898-2.593
					c2.917,0,5.224,0.873,6.923,2.617C290.059,171.048,290.908,173.433,290.908,176.457z M281.486,197.045
					c1.025,0,1.815-0.441,2.368-1.323s0.829-2.107,0.829-3.677c0-1.569-0.288-2.799-0.865-3.688c-0.577-0.89-1.37-1.335-2.38-1.335
					c-1.009,0-1.807,0.445-2.392,1.335c-0.585,0.89-0.877,2.12-0.877,3.688c0,1.569,0.292,2.795,0.877,3.677
					S280.444,197.045,281.486,197.045z M284.13,176.806c0-1.369-0.221-2.464-0.661-3.286c-0.441-0.822-1.118-1.232-2.031-1.232
					c-0.865,0-1.522,0.399-1.971,1.196c-0.449,0.798-0.673,1.905-0.673,3.322c0,1.386,0.224,2.501,0.673,3.347
					c0.448,0.846,1.122,1.269,2.019,1.269c0.897,0,1.562-0.423,1.995-1.269C283.914,179.307,284.13,178.192,284.13,176.806z"/>
				<path fill="#F48466" d="M293.783,173.898c0-2.131,0.589-3.87,1.767-5.216s2.768-2.019,4.771-2.019s3.602,0.661,4.795,1.983
					c1.194,1.322,1.791,3.105,1.791,5.348v1.754c0,2.164-0.593,3.902-1.778,5.216c-1.187,1.314-2.772,1.971-4.76,1.971
					c-1.971,0-3.561-0.657-4.771-1.971c-1.21-1.313-1.815-3.101-1.815-5.36V173.898z M298.205,175.749
					c0,0.961,0.205,1.727,0.613,2.295c0.408,0.569,0.925,0.854,1.55,0.854c0.641,0,1.15-0.296,1.526-0.89
					c0.376-0.592,0.565-1.37,0.565-2.331v-1.779c0-0.929-0.192-1.695-0.577-2.295c-0.385-0.601-0.905-0.901-1.563-0.901
					c-0.641,0-1.153,0.3-1.538,0.901c-0.385,0.601-0.577,1.39-0.577,2.368V175.749z M301.594,199.544l-3.221-1.827l14.349-27.353
					l3.245,1.827L301.594,199.544z M307.579,193.584c0-2.164,0.601-3.906,1.803-5.228c1.202-1.322,2.788-1.983,4.759-1.983
					c1.987,0,3.582,0.653,4.783,1.959c1.202,1.306,1.803,3.097,1.803,5.372v1.754c0,2.147-0.585,3.882-1.754,5.204
					c-1.169,1.322-2.764,1.983-4.783,1.983c-2.035,0-3.646-0.665-4.832-1.995c-1.186-1.33-1.779-3.092-1.779-5.288V193.584z
					 M312.026,195.458c0,0.897,0.212,1.65,0.637,2.259c0.424,0.609,0.933,0.914,1.526,0.914c1.33,0,2.026-0.953,2.091-2.86v-2.187
					c0-0.945-0.196-1.71-0.589-2.296c-0.393-0.584-0.91-0.877-1.55-0.877c-1.411,0-2.115,1.226-2.115,3.677V195.458z"/>
			</g>
			<g opacity="0.6">
				<g>
					<rect x="209.656" y="213.202" fill="#FCD6D7" width="113.687" height="3"/>
				</g>
			</g>
		</g>
	</g>
</g>
</svg>
