<?xml version="1.0" encoding="utf-8"?>
<!-- Generator: Adobe Illustrator 16.0.0, SVG Export Plug-In . SVG Version: 6.00 Build 0)  -->
<!DOCTYPE svg PUBLIC "-//W3C//DTD SVG 1.1//EN" "http://www.w3.org/Graphics/SVG/1.1/DTD/svg11.dtd">
<svg version="1.1" xmlns="http://www.w3.org/2000/svg" xmlns:xlink="http://www.w3.org/1999/xlink" x="0px" y="0px" width="100%"
	 height="100%" viewBox="0 0 360 360" enable-background="new 0 0 360 360" xml:space="preserve" class="c-infographic-svg">
<g id="Layer_1">
	<g>
		<rect fill="#FEF1E1" width="360" height="360"/>
	</g>
	<g>
		<g id="lybra">
			<g>
				<g>
					<path fill="#FDD1A7" d="M200.518,36.764c1.944,0,3.526,1.58,3.526,3.524c0,1.94-1.582,3.521-3.526,3.521
						c-1.939,0-3.521-1.581-3.521-3.521C196.996,38.344,198.578,36.764,200.518,36.764 M167.868,43.684
						c0.165,1.401,1.442,2.4,2.844,2.23l23.109-2.805c0.661,1.568,1.856,2.857,3.36,3.637v34.431
						c-8.754,0.661-10.486,3.867-10.486,7.726h27.607c0-3.858-1.69-7.064-10.445-7.726V46.746c2.012-1.043,3.476-2.998,3.843-5.32
						l23.243-2.819c1.401-0.171,2.399-1.444,2.229-2.843c-0.171-1.401-1.442-2.398-2.844-2.23l-23.662,2.871
						c-1.288-2.033-3.558-3.386-6.148-3.386c-3.206,0-5.937,2.08-6.898,4.97l-23.522,2.853
						C168.695,41.012,167.697,42.285,167.868,43.684"/>
				</g>
			</g>
			<g>
				<g>
					<path fill="#FDD1A7" d="M176.55,54.559c0.373-0.507,1.128-0.507,1.5,0c1.458,1.996,4.633,6.55,5.646,9.709h-12.793
						C171.917,61.108,175.092,56.555,176.55,54.559 M177.3,75.956c5.585,0,10.114-4.527,10.114-10.112
						c0-4.426-6.35-13.557-8.987-17.162c-0.558-0.76-1.695-0.76-2.254,0c-2.638,3.605-8.987,12.736-8.987,17.162
						C167.186,71.429,171.715,75.956,177.3,75.956"/>
				</g>
			</g>
			<g>
				<g>
					<path fill="#FDD1A7" d="M217.344,57.644c1.008-3.157,4.188-7.712,5.646-9.707c0.372-0.507,1.127-0.507,1.5,0
						c1.458,1.995,4.632,6.55,5.646,9.707H217.344z M222.612,42.061c-2.637,3.602-8.986,12.734-8.986,17.16
						c0,5.586,4.529,10.111,10.114,10.111c5.584,0,10.114-4.525,10.114-10.111c0-4.426-6.35-13.559-8.987-17.16
						C224.309,41.298,223.171,41.298,222.612,42.061"/>
				</g>
			</g>
		</g>
		<g id="hand">
			<g>
				<path fill="#FDD1A7" d="M243.395,102.134c6.443,4.938-4.809,13.201-8.175,16.27c-13.119,11.958-24.36,16.553-42.133,18.257
					c-9.406,0.9-17.044-1.387-26.336-2.063c-6.66-0.483-11.102,0.764-15.125,3.226l-15.259-23.462
					c1.064-0.747,2.13-1.496,3.19-2.243c9.287-5.805,17.933-11.747,29.469-11.448c8.656,0.221,15.9,2.113,24.707,1.933
					c3.847-0.079,16.95-2.603,14.209,5.906c-1.81,5.623-18.982,6.499-23.196,7.386c11.086,2.409,27.204,1.208,39.195-5.418
					C228.611,107.896,238.896,98.686,243.395,102.134 M132.866,114.354l-18.217,12.037l19.4,30.591l16.107-10.326
					c1.428-1.002,1.8-2.954,0.854-4.412L132.866,114.354z"/>
			</g>
		</g>
	</g>
</g>
<g id="Layer_2">
	<g>
		<g>
			<g>
				<path fill="#F48466" d="M86.32,328.416h-1.75v8.996h-2.693v-19.906h2.693v8.805h1.477l7.383-8.805h3.035l0.027,0.068
					l-8.066,9.42l8.641,10.35l-0.027,0.068h-3.268L86.32,328.416z"/>
			</g>
			<g>
				<path fill="#F48466" d="M103.287,331.929l0.479,1.859h0.082l3.637-11.17h2.994l-6.221,17.063
					c-0.374,0.993-0.909,1.859-1.606,2.598s-1.639,1.107-2.823,1.107c-0.219,0-0.497-0.025-0.834-0.075
					c-0.337-0.05-0.597-0.098-0.779-0.144l0.273-2.119c-0.055-0.009,0.107,0,0.485,0.027c0.378,0.027,0.617,0.041,0.718,0.041
					c0.574,0,1.043-0.255,1.408-0.766c0.364-0.511,0.67-1.076,0.916-1.695l0.643-1.545l-5.496-14.492h3.008L103.287,331.929z"/>
			</g>
			<g>
				<path fill="#F48466" d="M119.844,324.998l-1.381-0.082c-0.711,0-1.311,0.169-1.798,0.506c-0.488,0.337-0.864,0.812-1.128,1.422
					v10.568h-2.693v-14.793h2.406l0.26,2.16c0.419-0.766,0.937-1.362,1.552-1.791c0.615-0.428,1.324-0.643,2.126-0.643
					c0.2,0,0.392,0.016,0.574,0.048c0.182,0.032,0.333,0.066,0.451,0.103L119.844,324.998z"/>
			</g>
			<g>
				<path fill="#F48466" d="M121.908,330.289c0-2.379,0.508-4.297,1.524-5.756c1.016-1.458,2.436-2.188,4.259-2.188
					c0.938,0,1.764,0.189,2.475,0.567c0.711,0.378,1.308,0.923,1.791,1.634l0.328-1.928h2.146v14.875
					c0,1.896-0.552,3.352-1.654,4.368c-1.103,1.016-2.693,1.524-4.771,1.524c-0.711,0-1.479-0.098-2.304-0.294
					c-0.825-0.196-1.552-0.463-2.181-0.8l0.41-2.092c0.52,0.273,1.146,0.494,1.88,0.663c0.733,0.168,1.456,0.253,2.167,0.253
					c1.313,0,2.267-0.299,2.864-0.896c0.597-0.597,0.896-1.506,0.896-2.728v-1.682c-0.483,0.62-1.062,1.089-1.736,1.408
					c-0.675,0.319-1.454,0.479-2.338,0.479c-1.805,0-3.215-0.654-4.231-1.962c-1.017-1.308-1.524-3.028-1.524-5.161V330.289z
					 M124.602,330.576c0,1.486,0.305,2.68,0.916,3.582c0.61,0.902,1.554,1.354,2.83,1.354c0.811,0,1.49-0.185,2.037-0.554
					s0.998-0.891,1.354-1.565v-6.809c-0.347-0.629-0.798-1.128-1.354-1.497c-0.556-0.369-1.226-0.554-2.01-0.554
					c-1.285,0-2.235,0.533-2.851,1.6s-0.923,2.452-0.923,4.156V330.576z"/>
			</g>
			<g>
				<path fill="#F48466" d="M142.826,331.929l0.479,1.859h0.082l3.637-11.17h2.994l-6.221,17.063
					c-0.374,0.993-0.909,1.859-1.606,2.598s-1.639,1.107-2.823,1.107c-0.219,0-0.497-0.025-0.834-0.075
					c-0.337-0.05-0.597-0.098-0.779-0.144l0.273-2.119c-0.055-0.009,0.107,0,0.485,0.027c0.378,0.027,0.617,0.041,0.718,0.041
					c0.574,0,1.043-0.255,1.408-0.766c0.364-0.511,0.67-1.076,0.916-1.695l0.643-1.545l-5.496-14.492h3.008L142.826,331.929z"/>
			</g>
			<g>
				<path fill="#F48466" d="M154.926,335.306h8.545v2.105h-11.758v-1.887l7.998-10.773h-7.902v-2.133h11.197v1.832L154.926,335.306z
					"/>
			</g>
			<g>
				<path fill="#F48466" d="M176.486,328.785v8.627h-2.693v-19.893h6.809c2.178,0,3.842,0.483,4.99,1.449
					c1.148,0.966,1.723,2.37,1.723,4.211c0,1.021-0.267,1.91-0.8,2.666c-0.533,0.757-1.311,1.358-2.331,1.805
					c1.094,0.355,1.88,0.932,2.358,1.729c0.479,0.798,0.718,1.784,0.718,2.96v1.873c0,0.62,0.068,1.176,0.205,1.668
					s0.374,0.894,0.711,1.203v0.328H185.4c-0.355-0.31-0.583-0.766-0.684-1.367c-0.101-0.602-0.15-1.221-0.15-1.859v-1.818
					c0-1.075-0.314-1.941-0.943-2.598s-1.472-0.984-2.529-0.984H176.486z M176.486,326.666h3.842c1.522,0,2.618-0.289,3.288-0.868
					c0.67-0.579,1.005-1.46,1.005-2.646c0-1.121-0.326-1.989-0.978-2.604c-0.652-0.615-1.666-0.923-3.042-0.923h-4.115V326.666z"/>
			</g>
			<g>
				<path fill="#F48466" d="M197.363,337.699c-2.124,0-3.78-0.679-4.97-2.037c-1.189-1.358-1.784-3.145-1.784-5.359v-0.602
					c0-2.124,0.613-3.88,1.839-5.271c1.226-1.39,2.723-2.085,4.491-2.085c1.978,0,3.461,0.615,4.45,1.846
					c0.989,1.23,1.483,2.867,1.483,4.908v1.422h-9.461l-0.041,0.068c0,1.486,0.328,2.691,0.984,3.616
					c0.656,0.925,1.659,1.388,3.008,1.388c0.911,0,1.711-0.13,2.399-0.39c0.688-0.26,1.278-0.617,1.771-1.073l1.053,1.75
					c-0.529,0.511-1.226,0.941-2.092,1.292C199.628,337.523,198.584,337.699,197.363,337.699z M196.939,324.464
					c-0.939,0-1.716,0.362-2.331,1.087s-0.991,1.652-1.128,2.782l0.027,0.068h6.672v-0.219c0-1.075-0.265-1.964-0.793-2.666
					C198.858,324.815,198.042,324.464,196.939,324.464z"/>
			</g>
			<g>
				<path fill="#F48466" d="M218.5,330.576c0,2.133-0.511,3.854-1.531,5.161c-1.021,1.308-2.429,1.962-4.225,1.962
					c-0.912,0-1.711-0.153-2.399-0.458c-0.688-0.305-1.274-0.763-1.757-1.374v7.232h-2.693v-20.48h2.064l0.424,1.914
					c0.483-0.711,1.084-1.253,1.805-1.627c0.72-0.374,1.559-0.561,2.516-0.561c1.832,0,3.256,0.727,4.272,2.181
					c1.016,1.454,1.524,3.375,1.524,5.763V330.576z M215.807,330.289c0-1.677-0.331-3.056-0.991-4.136
					c-0.661-1.08-1.634-1.62-2.919-1.62c-0.775,0-1.436,0.176-1.982,0.526c-0.547,0.351-0.989,0.832-1.326,1.442v7.15
					c0.337,0.611,0.779,1.087,1.326,1.429s1.217,0.513,2.01,0.513c1.276,0,2.242-0.467,2.898-1.401
					c0.656-0.934,0.984-2.14,0.984-3.616V330.289z"/>
			</g>
			<g>
				<path fill="#F48466" d="M231.201,335.224c-0.465,0.793-1.062,1.404-1.791,1.832c-0.729,0.428-1.572,0.643-2.529,0.643
					c-1.613,0-2.871-0.515-3.773-1.545c-0.902-1.03-1.354-2.634-1.354-4.813v-8.723h2.693v8.75c0,1.577,0.232,2.662,0.697,3.254
					c0.465,0.593,1.189,0.889,2.174,0.889c0.957,0,1.748-0.193,2.372-0.581c0.624-0.387,1.096-0.937,1.415-1.647v-10.664h2.693
					v14.793h-2.42L231.201,335.224z"/>
			</g>
			<g>
				<path fill="#F48466" d="M250.355,330.576c0,2.133-0.513,3.854-1.538,5.161c-1.025,1.308-2.436,1.962-4.231,1.962
					c-0.984,0-1.839-0.194-2.563-0.581s-1.324-0.959-1.798-1.716l-0.438,2.01h-2.064v-21.328h2.693v8.285
					c0.465-0.656,1.041-1.157,1.729-1.504c0.688-0.346,1.492-0.52,2.413-0.52c1.823,0,3.245,0.729,4.266,2.188
					c1.021,1.458,1.531,3.377,1.531,5.756V330.576z M247.662,330.289c0-1.695-0.313-3.078-0.937-4.149
					c-0.625-1.071-1.575-1.606-2.851-1.606c-0.83,0-1.529,0.203-2.099,0.608c-0.57,0.406-1.023,0.95-1.36,1.634v6.412
					c0.346,0.729,0.8,1.299,1.36,1.709s1.269,0.615,2.126,0.615c1.267,0,2.21-0.451,2.83-1.354c0.62-0.902,0.93-2.096,0.93-3.582
					V330.289z"/>
			</g>
			<g>
				<path fill="#F48466" d="M256.549,337.412h-2.693v-21.328h2.693V337.412z"/>
			</g>
			<g>
				<path fill="#F48466" d="M263.604,318.832h-2.693v-2.748h2.693V318.832z M263.604,337.412h-2.693v-14.793h2.693V337.412z"/>
			</g>
			<g>
				<path fill="#F48466" d="M273.625,335.593c0.829,0,1.554-0.275,2.174-0.827c0.62-0.551,0.93-1.228,0.93-2.03h2.434l0.041,0.082
					c0.036,1.276-0.511,2.409-1.641,3.397c-1.13,0.989-2.443,1.483-3.938,1.483c-2.078,0-3.683-0.706-4.813-2.119
					c-1.13-1.413-1.695-3.172-1.695-5.277v-0.574c0-2.087,0.567-3.839,1.702-5.257c1.135-1.417,2.736-2.126,4.806-2.126
					c1.649,0,3.001,0.511,4.054,1.531c1.053,1.021,1.561,2.274,1.524,3.76l-0.027,0.082h-2.447c0-0.902-0.294-1.67-0.882-2.304
					c-0.588-0.633-1.329-0.95-2.222-0.95c-1.322,0-2.286,0.513-2.892,1.538c-0.606,1.025-0.909,2.268-0.909,3.726v0.574
					c0,1.486,0.298,2.739,0.896,3.76C271.316,335.083,272.285,335.593,273.625,335.593z"/>
			</g>
		</g>
		<g>
			<g>
				<path fill="#58585A" d="M108.962,296.305v5.238h-1.635v-12.078h4.134c1.323,0,2.333,0.294,3.03,0.881
					c0.697,0.586,1.046,1.438,1.046,2.557c0,0.619-0.162,1.159-0.486,1.618c-0.323,0.459-0.795,0.824-1.415,1.096
					c0.664,0.216,1.142,0.565,1.432,1.05c0.291,0.484,0.436,1.084,0.436,1.797v1.138c0,0.376,0.042,0.714,0.125,1.013
					s0.227,0.542,0.432,0.73v0.199h-1.685c-0.216-0.188-0.354-0.465-0.415-0.83s-0.091-0.741-0.091-1.129v-1.104
					c0-0.653-0.191-1.18-0.573-1.578s-0.894-0.598-1.536-0.598H108.962z M108.962,295.019h2.333c0.924,0,1.59-0.176,1.996-0.527
					c0.407-0.352,0.61-0.887,0.61-1.606c0-0.68-0.198-1.207-0.594-1.581c-0.396-0.373-1.011-0.56-1.847-0.56h-2.499V295.019z"/>
			</g>
			<g>
				<path fill="#58585A" d="M120.788,301.717c-1.29,0-2.295-0.412-3.017-1.236c-0.723-0.824-1.083-1.909-1.083-3.254v-0.365
					c0-1.289,0.372-2.356,1.117-3.2c0.744-0.844,1.653-1.266,2.727-1.266c1.201,0,2.102,0.374,2.702,1.12
					c0.6,0.748,0.9,1.741,0.9,2.98v0.863h-5.744l-0.025,0.041c0,0.902,0.199,1.635,0.598,2.196s1.007,0.843,1.826,0.843
					c0.553,0,1.039-0.079,1.457-0.237c0.418-0.157,0.776-0.375,1.075-0.651l0.639,1.063c-0.321,0.31-0.744,0.571-1.27,0.784
					S121.529,301.717,120.788,301.717z M120.53,293.682c-0.57,0-1.042,0.221-1.415,0.66c-0.374,0.44-0.602,1.003-0.685,1.689
					l0.017,0.041h4.051v-0.133c0-0.652-0.161-1.192-0.481-1.618S121.2,293.682,120.53,293.682z"/>
			</g>
			<g>
				<path fill="#58585A" d="M128.687,300.439c0.503,0,0.943-0.168,1.32-0.503s0.564-0.745,0.564-1.232h1.478l0.025,0.05
					c0.022,0.774-0.31,1.462-0.996,2.063s-1.483,0.9-2.391,0.9c-1.262,0-2.236-0.429-2.922-1.286s-1.029-1.926-1.029-3.204v-0.349
					c0-1.268,0.344-2.331,1.034-3.191c0.688-0.86,1.661-1.291,2.917-1.291c1.001,0,1.822,0.31,2.461,0.93
					c0.639,0.62,0.947,1.381,0.925,2.282l-0.017,0.051h-1.486c0-0.549-0.179-1.015-0.535-1.399
					c-0.357-0.385-0.807-0.577-1.349-0.577c-0.802,0-1.388,0.312-1.755,0.935c-0.368,0.622-0.552,1.376-0.552,2.262v0.349
					c0,0.902,0.181,1.663,0.543,2.283C127.285,300.129,127.873,300.439,128.687,300.439z"/>
			</g>
			<g>
				<path fill="#58585A" d="M134.934,290.262h-1.635v-1.668h1.635V290.262z M134.934,301.543h-1.635v-8.981h1.635V301.543z"/>
			</g>
			<g>
				<path fill="#58585A" d="M144.252,297.393c0,1.295-0.31,2.34-0.93,3.134s-1.475,1.19-2.565,1.19
					c-0.553,0-1.039-0.092-1.457-0.277c-0.417-0.186-0.773-0.464-1.066-0.834v4.391h-1.635v-12.435h1.253l0.257,1.162
					c0.293-0.432,0.659-0.761,1.096-0.987c0.437-0.228,0.946-0.341,1.527-0.341c1.112,0,1.977,0.441,2.594,1.324
					c0.617,0.883,0.925,2.049,0.925,3.499V297.393z M142.617,297.219c0-1.019-0.201-1.855-0.602-2.512
					c-0.401-0.655-0.992-0.983-1.772-0.983c-0.47,0-0.872,0.106-1.204,0.319s-0.601,0.505-0.805,0.876v4.341
					c0.205,0.371,0.473,0.66,0.805,0.868c0.332,0.207,0.739,0.312,1.22,0.312c0.775,0,1.361-0.284,1.76-0.852
					s0.598-1.299,0.598-2.195V297.219z"/>
			</g>
			<g>
				<path fill="#58585A" d="M147.179,290.262h-1.635v-1.668h1.635V290.262z M147.179,301.543h-1.635v-8.981h1.635V301.543z"/>
			</g>
			<g>
				<path fill="#58585A" d="M152.563,301.717c-1.29,0-2.295-0.412-3.017-1.236c-0.723-0.824-1.083-1.909-1.083-3.254v-0.365
					c0-1.289,0.372-2.356,1.117-3.2c0.744-0.844,1.653-1.266,2.727-1.266c1.201,0,2.102,0.374,2.702,1.12
					c0.6,0.748,0.9,1.741,0.9,2.98v0.863h-5.744l-0.025,0.041c0,0.902,0.199,1.635,0.598,2.196s1.007,0.843,1.826,0.843
					c0.553,0,1.039-0.079,1.457-0.237c0.418-0.157,0.776-0.375,1.075-0.651l0.639,1.063c-0.321,0.31-0.744,0.571-1.27,0.784
					S153.305,301.717,152.563,301.717z M152.306,293.682c-0.57,0-1.042,0.221-1.415,0.66c-0.374,0.44-0.602,1.003-0.685,1.689
					l0.017,0.041h4.051v-0.133c0-0.652-0.161-1.192-0.481-1.618S152.975,293.682,152.306,293.682z"/>
			</g>
			<g>
				<path fill="#58585A" d="M158.354,292.562l0.116,1.337c0.299-0.477,0.674-0.846,1.125-1.108c0.451-0.263,0.964-0.395,1.54-0.395
					c0.968,0,1.718,0.283,2.25,0.851s0.797,1.443,0.797,2.627v5.67h-1.635v-5.637c0-0.791-0.156-1.353-0.469-1.685
					c-0.313-0.332-0.79-0.498-1.432-0.498c-0.503,0-0.931,0.101-1.283,0.303c-0.351,0.202-0.629,0.485-0.834,0.851v6.666h-1.635
					v-8.981H158.354z"/>
			</g>
			<g>
				<path fill="#58585A" d="M167.979,290.395v2.167h1.702v1.212h-1.702v5.453c0,0.421,0.087,0.717,0.261,0.889
					c0.175,0.172,0.406,0.258,0.693,0.258c0.094,0,0.199-0.013,0.315-0.038c0.116-0.024,0.213-0.051,0.291-0.079l0.224,1.121
					c-0.122,0.1-0.302,0.182-0.54,0.245s-0.473,0.095-0.706,0.095c-0.664,0-1.192-0.2-1.585-0.602s-0.589-1.03-0.589-1.889v-5.453
					h-1.428v-1.212h1.428v-2.167H167.979z"/>
			</g>
			<g>
				<path fill="#58585A" d="M175.804,299.127c0-0.359-0.137-0.652-0.411-0.879c-0.273-0.228-0.792-0.427-1.556-0.598
					c-1.057-0.228-1.869-0.546-2.436-0.955c-0.567-0.409-0.851-0.957-0.851-1.644c0-0.73,0.311-1.355,0.934-1.876
					c0.622-0.521,1.429-0.78,2.419-0.78c1.018,0,1.843,0.276,2.474,0.83s0.933,1.198,0.905,1.935l-0.017,0.049h-1.561
					c0-0.387-0.17-0.738-0.511-1.054c-0.34-0.315-0.771-0.474-1.291-0.474c-0.576,0-1.006,0.131-1.291,0.391
					c-0.285,0.26-0.428,0.57-0.428,0.93c0,0.354,0.123,0.628,0.369,0.822c0.247,0.193,0.754,0.37,1.523,0.531
					c1.101,0.232,1.937,0.562,2.507,0.987s0.855,0.982,0.855,1.669c0,0.797-0.322,1.446-0.967,1.95
					c-0.645,0.504-1.487,0.755-2.527,0.755c-1.146,0-2.047-0.29-2.706-0.871s-0.971-1.259-0.938-2.033l0.017-0.051h1.561
					c0.028,0.582,0.244,1.006,0.647,1.274s0.877,0.403,1.419,0.403c0.581,0,1.036-0.124,1.365-0.37
					C175.639,299.823,175.804,299.51,175.804,299.127z"/>
			</g>
			<g>
				<path fill="#58585A" d="M181.616,296.969c0-1.328,0.36-2.422,1.079-3.282s1.696-1.291,2.93-1.291
					c1.245,0,2.229,0.429,2.951,1.286c0.722,0.858,1.083,1.954,1.083,3.287v0.184c0,1.339-0.36,2.435-1.079,3.287
					c-0.719,0.852-1.699,1.277-2.938,1.277s-2.221-0.427-2.942-1.282c-0.723-0.854-1.083-1.949-1.083-3.282V296.969z
					 M183.251,297.152c0,0.951,0.201,1.737,0.602,2.357c0.401,0.619,0.998,0.93,1.789,0.93c0.78,0,1.373-0.311,1.776-0.93
					c0.404-0.62,0.606-1.406,0.606-2.357v-0.184c0-0.94-0.204-1.724-0.61-2.349c-0.407-0.625-1.003-0.938-1.789-0.938
					c-0.78,0-1.371,0.313-1.772,0.938c-0.401,0.625-0.602,1.408-0.602,2.349V297.152z"/>
			</g>
			<g>
				<path fill="#58585A" d="M191.49,301.543v-7.77h-1.403v-1.212h1.403v-1.138c0-0.957,0.25-1.697,0.751-2.22
					c0.5-0.523,1.199-0.784,2.096-0.784c0.188,0,0.378,0.015,0.568,0.045c0.191,0.03,0.403,0.073,0.635,0.129l-0.199,1.245
					c-0.1-0.022-0.22-0.042-0.361-0.058c-0.142-0.018-0.29-0.025-0.444-0.025c-0.476,0-0.83,0.143-1.063,0.428
					s-0.349,0.698-0.349,1.24v1.138h1.627v1.212h-1.627v7.77H191.49z"/>
			</g>
			<g>
				<path fill="#58585A" d="M200.698,301.543h-1.635v-12.949h1.635V301.543z"/>
			</g>
			<g>
				<path fill="#58585A" d="M206.082,301.717c-1.29,0-2.295-0.412-3.017-1.236c-0.723-0.824-1.083-1.909-1.083-3.254v-0.365
					c0-1.289,0.372-2.356,1.117-3.2c0.744-0.844,1.653-1.266,2.727-1.266c1.201,0,2.102,0.374,2.702,1.12
					c0.6,0.748,0.9,1.741,0.9,2.98v0.863h-5.744l-0.025,0.041c0,0.902,0.199,1.635,0.598,2.196s1.007,0.843,1.826,0.843
					c0.553,0,1.039-0.079,1.457-0.237c0.418-0.157,0.776-0.375,1.075-0.651l0.639,1.063c-0.321,0.31-0.744,0.571-1.27,0.784
					S206.823,301.717,206.082,301.717z M205.824,293.682c-0.57,0-1.042,0.221-1.415,0.66c-0.374,0.44-0.602,1.003-0.685,1.689
					l0.017,0.041h4.051v-0.133c0-0.652-0.161-1.192-0.481-1.618S206.494,293.682,205.824,293.682z"/>
			</g>
			<g>
				<path fill="#58585A" d="M210.121,297.219c0-1.445,0.309-2.609,0.926-3.495c0.617-0.886,1.479-1.328,2.585-1.328
					c0.57,0,1.071,0.115,1.502,0.345s0.794,0.561,1.087,0.992l0.199-1.171h1.303v9.031c0,1.151-0.335,2.035-1.004,2.652
					s-1.635,0.925-2.897,0.925c-0.432,0-0.898-0.059-1.398-0.178c-0.501-0.119-0.942-0.281-1.324-0.486l0.249-1.27
					c0.315,0.166,0.696,0.3,1.142,0.402c0.445,0.103,0.884,0.154,1.315,0.154c0.797,0,1.376-0.182,1.739-0.544
					c0.362-0.362,0.543-0.915,0.543-1.656v-1.021c-0.293,0.376-0.645,0.661-1.054,0.854s-0.883,0.29-1.419,0.29
					c-1.096,0-1.952-0.396-2.569-1.19c-0.617-0.794-0.926-1.839-0.926-3.134V297.219z M211.756,297.393
					c0,0.902,0.186,1.627,0.556,2.175s0.943,0.821,1.718,0.821c0.493,0,0.905-0.111,1.237-0.336c0.332-0.224,0.606-0.541,0.822-0.95
					v-4.134c-0.21-0.382-0.484-0.685-0.822-0.909c-0.337-0.224-0.744-0.336-1.22-0.336c-0.78,0-1.357,0.323-1.731,0.972
					c-0.373,0.646-0.56,1.488-0.56,2.523V297.393z"/>
			</g>
			<g>
				<path fill="#58585A" d="M224.743,301.543c-0.055-0.271-0.098-0.511-0.129-0.718c-0.03-0.208-0.048-0.417-0.054-0.627
					c-0.304,0.432-0.701,0.793-1.191,1.083c-0.489,0.291-1.017,0.436-1.581,0.436c-0.935,0-1.647-0.239-2.138-0.718
					c-0.489-0.479-0.734-1.139-0.734-1.979c0-0.857,0.347-1.528,1.042-2.013c0.694-0.484,1.636-0.727,2.826-0.727h1.776v-0.888
					c0-0.526-0.161-0.942-0.481-1.25c-0.321-0.307-0.775-0.461-1.361-0.461c-0.531,0-0.96,0.133-1.287,0.398s-0.49,0.584-0.49,0.955
					l-1.552,0.017l-0.017-0.05c-0.039-0.653,0.267-1.251,0.917-1.793c0.65-0.542,1.49-0.813,2.519-0.813
					c1.018,0,1.837,0.259,2.457,0.776s0.93,1.263,0.93,2.236v4.325c0,0.321,0.017,0.631,0.05,0.93s0.094,0.592,0.183,0.88H224.743z
					 M222.029,300.348c0.592,0,1.126-0.152,1.602-0.457c0.476-0.304,0.786-0.652,0.93-1.045v-1.461h-1.834
					c-0.659,0-1.186,0.166-1.582,0.498c-0.396,0.332-0.593,0.722-0.593,1.17c0,0.398,0.125,0.714,0.374,0.946
					S221.542,300.348,222.029,300.348z"/>
			</g>
			<g>
				<path fill="#58585A" d="M229.488,301.543h-1.635v-12.949h1.635V301.543z"/>
			</g>
			<g>
				<path fill="#58585A" d="M240.048,301.543c-0.055-0.271-0.098-0.511-0.129-0.718c-0.03-0.208-0.048-0.417-0.054-0.627
					c-0.304,0.432-0.701,0.793-1.191,1.083c-0.489,0.291-1.017,0.436-1.581,0.436c-0.935,0-1.647-0.239-2.138-0.718
					c-0.489-0.479-0.734-1.139-0.734-1.979c0-0.857,0.347-1.528,1.042-2.013c0.694-0.484,1.636-0.727,2.826-0.727h1.776v-0.888
					c0-0.526-0.161-0.942-0.481-1.25c-0.321-0.307-0.775-0.461-1.361-0.461c-0.531,0-0.96,0.133-1.287,0.398s-0.49,0.584-0.49,0.955
					l-1.552,0.017l-0.017-0.05c-0.039-0.653,0.267-1.251,0.917-1.793c0.65-0.542,1.49-0.813,2.519-0.813
					c1.018,0,1.837,0.259,2.457,0.776s0.93,1.263,0.93,2.236v4.325c0,0.321,0.017,0.631,0.05,0.93s0.094,0.592,0.183,0.88H240.048z
					 M237.334,300.348c0.592,0,1.126-0.152,1.602-0.457c0.476-0.304,0.786-0.652,0.93-1.045v-1.461h-1.834
					c-0.659,0-1.186,0.166-1.582,0.498c-0.396,0.332-0.593,0.722-0.593,1.17c0,0.398,0.125,0.714,0.374,0.946
					S236.847,300.348,237.334,300.348z"/>
			</g>
			<g>
				<path fill="#58585A" d="M244.793,290.262h-1.635v-1.668h1.635V290.262z M244.793,301.543h-1.635v-8.981h1.635V301.543z"/>
			</g>
			<g>
				<path fill="#58585A" d="M246.084,297.219c0-1.445,0.309-2.609,0.926-3.495c0.617-0.886,1.481-1.328,2.594-1.328
					c0.526,0,0.992,0.097,1.398,0.29c0.407,0.194,0.754,0.477,1.042,0.848v-4.939h1.635v12.949h-1.253l-0.249-1.137
					c-0.293,0.432-0.656,0.758-1.087,0.979c-0.432,0.222-0.933,0.332-1.502,0.332c-1.096,0-1.954-0.396-2.573-1.19
					s-0.93-1.839-0.93-3.134V297.219z M247.72,297.393c0,0.907,0.186,1.634,0.556,2.179s0.946,0.817,1.727,0.817
					c0.487,0,0.896-0.11,1.229-0.332c0.332-0.221,0.603-0.531,0.813-0.93v-4.191c-0.21-0.371-0.483-0.665-0.817-0.884
					c-0.335-0.219-0.738-0.328-1.208-0.328c-0.786,0-1.365,0.323-1.739,0.972c-0.373,0.646-0.56,1.488-0.56,2.523V297.393z"/>
			</g>
		</g>
	</g>
	<g>
		<g>
			<path fill="#F48466" d="M102.047,196.251h4.281c1.625,0,2.817-0.57,3.578-1.712c0.76-1.141,1.141-2.665,1.141-4.571
				c0-1.822-0.391-3.241-1.172-4.256s-1.828-1.523-3.141-1.523c-1.229,0-2.234,0.485-3.016,1.456s-1.172,2.193-1.172,3.669h-8.844
				c0-2.375,0.547-4.505,1.641-6.391c1.094-1.885,2.625-3.359,4.594-4.422s4.151-1.594,6.547-1.594c4.188,0,7.469,1.156,9.844,3.469
				s3.563,5.479,3.563,9.5c0,2.063-0.537,3.974-1.609,5.734c-1.073,1.761-2.484,3.109-4.234,4.047
				c2.146,0.917,3.745,2.292,4.797,4.125c1.052,1.833,1.578,4,1.578,6.5c0,4.042-1.287,7.281-3.859,9.719
				c-2.573,2.438-5.953,3.656-10.141,3.656c-3.896,0-7.058-1.203-9.484-3.609c-2.427-2.406-3.641-5.567-3.641-9.484h8.844
				c0,1.643,0.427,3.022,1.281,4.138c0.854,1.116,1.938,1.674,3.25,1.674c1.521,0,2.724-0.565,3.609-1.695
				c0.885-1.13,1.328-2.638,1.328-4.522c0-4.501-1.74-6.762-5.219-6.783h-4.344V196.251z"/>
		</g>
		<g>
			<path fill="#F48466" d="M127.453,200.657l2.25-23.125h22.031v7.563h-14.781l-0.813,9.75c1.708-1.146,3.469-1.719,5.281-1.719
				c3.75,0,6.641,1.333,8.672,4c2.031,2.667,3.047,6.438,3.047,11.313c0,4.563-1.208,8.24-3.625,11.031
				c-2.417,2.792-5.646,4.188-9.688,4.188c-2.396,0-4.615-0.568-6.656-1.703c-2.042-1.135-3.651-2.713-4.828-4.734
				c-1.177-2.021-1.776-4.313-1.797-6.875h8.75c0.146,1.916,0.614,3.4,1.406,4.453c0.792,1.053,1.813,1.579,3.063,1.579
				c1.458,0,2.583-0.706,3.375-2.117c0.792-1.412,1.188-3.519,1.188-6.321c0-2.635-0.474-4.622-1.422-5.96
				c-0.948-1.338-2.276-2.008-3.984-2.008c-1.667,0-2.958,0.573-3.875,1.719l-0.563,0.781L127.453,200.657z"/>
		</g>
		<g>
			<path fill="#F48466" d="M161.797,234.501l-4.719-2.469l1.188-2.219c1.333-2.458,2.021-4.938,2.063-7.438v-7.031h7.688
				l-0.031,6.281c-0.021,2.208-0.583,4.5-1.688,6.875C165.192,230.876,163.692,232.876,161.797,234.501z"/>
		</g>
		<g>
			<path fill="#F48466" d="M195.734,177.063v7.5h-0.5c-3.313,0.021-5.943,1.016-7.891,2.984c-1.948,1.969-3.13,4.724-3.547,8.266
				c1.896-2.167,4.271-3.25,7.125-3.25c3.292,0,5.922,1.406,7.891,4.219s2.953,6.563,2.953,11.25c0,2.979-0.563,5.667-1.688,8.063
				c-1.125,2.396-2.703,4.255-4.734,5.578c-2.031,1.323-4.328,1.984-6.891,1.984c-4.125,0-7.433-1.656-9.922-4.969
				c-2.49-3.313-3.734-7.771-3.734-13.375v-3.281c0-5.021,0.786-9.417,2.359-13.188c1.573-3.771,3.844-6.672,6.813-8.703
				s6.432-3.057,10.391-3.078H195.734z M188.141,199.845c-1.125,0-2.068,0.356-2.828,1.069c-0.761,0.712-1.328,1.592-1.703,2.64
				v3.206c0,3.227,0.427,5.637,1.281,7.229c0.854,1.592,1.979,2.388,3.375,2.388c1.417,0,2.552-0.77,3.406-2.31
				c0.854-1.54,1.281-3.515,1.281-5.924c0-2.451-0.443-4.447-1.328-5.987C190.739,200.615,189.578,199.845,188.141,199.845z"/>
		</g>
		<g>
			<path fill="#F48466" d="M233.453,204.22c0,6.292-1.141,11.104-3.422,14.438c-2.281,3.333-5.537,5-9.766,5
				c-4.188,0-7.422-1.62-9.703-4.859c-2.281-3.239-3.464-7.88-3.547-13.922v-8.594c0-6.271,1.135-11.067,3.406-14.391
				c2.271-3.323,5.531-4.984,9.781-4.984s7.51,1.646,9.781,4.938c2.271,3.292,3.427,7.99,3.469,14.094V204.22z M224.578,194.98
				c0-3.597-0.354-6.295-1.063-8.094c-0.708-1.799-1.813-2.698-3.313-2.698c-2.813,0-4.271,3.294-4.375,9.882v11.388
				c0,3.681,0.359,6.421,1.078,8.22s1.838,2.698,3.359,2.698c1.438,0,2.505-0.842,3.203-2.525c0.698-1.684,1.067-4.261,1.109-7.733
				V194.98z"/>
		</g>
		<g>
			<path fill="#F48466" d="M260.484,177.063v7.5h-0.5c-3.313,0.021-5.943,1.016-7.891,2.984c-1.948,1.969-3.13,4.724-3.547,8.266
				c1.896-2.167,4.271-3.25,7.125-3.25c3.292,0,5.922,1.406,7.891,4.219s2.953,6.563,2.953,11.25c0,2.979-0.563,5.667-1.688,8.063
				c-1.125,2.396-2.703,4.255-4.734,5.578c-2.031,1.323-4.328,1.984-6.891,1.984c-4.125,0-7.433-1.656-9.922-4.969
				c-2.49-3.313-3.734-7.771-3.734-13.375v-3.281c0-5.021,0.786-9.417,2.359-13.188c1.573-3.771,3.844-6.672,6.813-8.703
				s6.432-3.057,10.391-3.078H260.484z M252.891,199.845c-1.125,0-2.068,0.356-2.828,1.069c-0.761,0.712-1.328,1.592-1.703,2.64
				v3.206c0,3.227,0.427,5.637,1.281,7.229c0.854,1.592,1.979,2.388,3.375,2.388c1.417,0,2.552-0.77,3.406-2.31
				c0.854-1.54,1.281-3.515,1.281-5.924c0-2.451-0.443-4.447-1.328-5.987C255.489,200.615,254.328,199.845,252.891,199.845z"/>
		</g>
	</g>
	<g>
		<g>
			<path fill="#F48466" d="M57.677,265.214V254.55h3.479c1.113,0,1.985,0.241,2.615,0.722s0.945,1.202,0.945,2.164
				c0,0.459-0.142,0.871-0.425,1.234s-0.659,0.641-1.128,0.831c0.698,0.098,1.251,0.4,1.659,0.908s0.612,1.106,0.612,1.794
				c0,0.977-0.317,1.723-0.952,2.238s-1.494,0.772-2.578,0.772H57.677z M59.12,259.084h2.336c0.537,0,0.974-0.147,1.311-0.443
				s0.505-0.707,0.505-1.234c0-0.576-0.182-1.007-0.546-1.293c-0.364-0.285-0.887-0.428-1.571-0.428H59.12V259.084z M59.12,260.212
				v3.875h2.783c0.659,0,1.17-0.162,1.534-0.487c0.364-0.324,0.546-0.785,0.546-1.38c0-0.591-0.186-1.067-0.557-1.428
				s-0.872-0.554-1.501-0.579H61.83H59.12z"/>
		</g>
		<g>
			<path fill="#F48466" d="M72.736,260.271h-4.38v3.816h5.127v1.128h-6.57V254.55h6.489v1.135h-5.046v3.45h4.38V260.271z"/>
		</g>
		<g>
			<path fill="#F48466" d="M82.346,255.686H78.83v9.529h-1.443v-9.529h-3.472v-1.135h8.43V255.686z"/>
		</g>
		<g>
			<path fill="#F48466" d="M85.811,261.516l0.183,1.399l0.044,0.007l0.249-1.406l1.89-6.965h1.414l1.904,6.965l0.249,1.428h0.044
				l0.197-1.428l1.523-6.965h1.567l-2.578,10.664h-1.289l-2.131-7.397l-0.161-0.959h-0.044l-0.154,0.959l-2.16,7.397h-1.289
				l-2.571-10.664h1.561L85.811,261.516z"/>
		</g>
		<g>
			<path fill="#F48466" d="M102.107,260.271h-4.38v3.816h5.127v1.128h-6.57V254.55h6.489v1.135h-5.046v3.45h4.38V260.271z"/>
		</g>
		<g>
			<path fill="#F48466" d="M110.083,260.271h-4.38v3.816h5.127v1.128h-6.57V254.55h6.489v1.135h-5.046v3.45h4.38V260.271z"/>
		</g>
		<g>
			<path fill="#F48466" d="M120.301,265.214h-1.443l-5.134-8.145l-0.044,0.015v8.13h-1.443V254.55h1.443l5.134,8.137l0.044-0.015
				v-8.123h1.443V265.214z"/>
		</g>
		<g>
			<path fill="#F48466" d="M132.401,265.214h-6.621v-0.989l3.347-3.992c0.596-0.723,1-1.297,1.212-1.725s0.319-0.858,0.319-1.293
				c0-0.493-0.145-0.897-0.433-1.212c-0.288-0.315-0.686-0.473-1.193-0.473c-0.63,0-1.11,0.193-1.439,0.579
				s-0.494,0.867-0.494,1.443h-1.392l-0.015-0.044c-0.025-0.869,0.266-1.605,0.871-2.208s1.429-0.905,2.469-0.905
				c0.952,0,1.701,0.264,2.248,0.791s0.82,1.208,0.82,2.043c0,0.562-0.155,1.111-0.465,1.648s-0.783,1.211-1.417,2.021l-2.688,3.149
				l0.015,0.037h4.856V265.214z"/>
		</g>
		<g>
			<path fill="#F48466" d="M140.443,261.45c0,1.206-0.307,2.161-0.919,2.864c-0.613,0.703-1.437,1.055-2.472,1.055
				c-1.03,0-1.854-0.352-2.472-1.055s-0.927-1.658-0.927-2.864v-3.135c0-1.196,0.307-2.148,0.919-2.856
				c0.612-0.708,1.434-1.062,2.464-1.062c1.035,0,1.862,0.354,2.479,1.062s0.926,1.66,0.926,2.856V261.45z M139,258.015
				c0-0.767-0.171-1.372-0.513-1.816s-0.825-0.667-1.45-0.667c-0.62,0-1.099,0.222-1.436,0.667s-0.505,1.05-0.505,1.816v3.728
				c0,0.767,0.172,1.375,0.517,1.824s0.824,0.674,1.439,0.674c0.625,0,1.106-0.223,1.443-0.67c0.337-0.446,0.505-1.056,0.505-1.827
				V258.015z"/>
		</g>
		<g>
			<path fill="#F48466" d="M146.171,265.214h-1.45v-9.331l-2.322,0.022v-1.113l3.772-0.396V265.214z"/>
		</g>
		<g>
			<path fill="#F48466" d="M155.656,261.625h1.472v1.128h-1.472v2.461h-1.436v-2.461h-4.578v-0.813l4.49-7.39h1.523V261.625z
				 M151.188,261.625h3.032v-5.002l-0.044-0.007l-0.139,0.366L151.188,261.625z"/>
		</g>
		<g>
			<path fill="#F48466" d="M167.441,262.468h-4.014l-0.952,2.747h-1.472l3.845-10.664h1.238l3.765,10.664h-1.473L167.441,262.468z
				 M163.846,261.259h3.186l-1.553-4.578h-0.044L163.846,261.259z"/>
		</g>
		<g>
			<path fill="#F48466" d="M179.183,265.214h-1.443l-5.134-8.145l-0.044,0.015v8.13h-1.443V254.55h1.443l5.134,8.137l0.044-0.015
				v-8.123h1.443V265.214z"/>
		</g>
		<g>
			<path fill="#F48466" d="M181.38,265.214V254.55h3.354c1.392,0,2.511,0.429,3.358,1.285c0.847,0.857,1.271,1.964,1.271,3.322
				v1.458c0,1.362-0.424,2.47-1.271,3.321c-0.847,0.853-1.966,1.278-3.358,1.278H181.38z M182.823,255.686v8.401h1.912
				c0.986,0,1.764-0.325,2.333-0.974s0.854-1.482,0.854-2.498v-1.472c0-1.006-0.285-1.833-0.854-2.483s-1.347-0.974-2.333-0.974
				H182.823z"/>
		</g>
		<g>
			<path fill="#F48466" d="M194.667,265.214V254.55h3.354c1.392,0,2.511,0.429,3.358,1.285c0.847,0.857,1.271,1.964,1.271,3.322
				v1.458c0,1.362-0.424,2.47-1.271,3.321c-0.848,0.853-1.967,1.278-3.358,1.278H194.667z M196.11,255.686v8.401h1.912
				c0.986,0,1.764-0.325,2.333-0.974c0.568-0.649,0.853-1.482,0.853-2.498v-1.472c0-1.006-0.285-1.833-0.853-2.483
				c-0.569-0.649-1.347-0.974-2.333-0.974H196.11z"/>
		</g>
		<g>
			<path fill="#F48466" d="M210.349,260.271h-4.38v3.816h5.127v1.128h-6.57V254.55h6.489v1.135h-5.046v3.45h4.38V260.271z"/>
		</g>
		<g>
			<path fill="#F48466" d="M220.112,261.801l0.015,0.044c0.02,1.001-0.332,1.838-1.055,2.512s-1.677,1.011-2.864,1.011
				c-1.206,0-2.188-0.427-2.948-1.282s-1.139-1.938-1.139-3.252v-1.897c0-1.313,0.38-2.399,1.139-3.255
				c0.759-0.857,1.742-1.286,2.948-1.286s2.166,0.321,2.878,0.963s1.06,1.493,1.04,2.552l-0.015,0.044h-1.384
				c0-0.747-0.22-1.338-0.659-1.772s-1.06-0.652-1.86-0.652c-0.806,0-1.448,0.325-1.926,0.974s-0.718,1.455-0.718,2.417v1.912
				c0,0.972,0.239,1.782,0.718,2.432s1.121,0.974,1.926,0.974c0.801,0,1.421-0.216,1.86-0.648c0.439-0.433,0.659-1.029,0.659-1.791
				H220.112z"/>
		</g>
		<g>
			<path fill="#F48466" d="M227.524,260.271h-4.38v3.816h5.127v1.128h-6.57V254.55h6.489v1.135h-5.046v3.45h4.38V260.271z"/>
		</g>
		<g>
			<path fill="#F48466" d="M234.966,263.215h0.044l3.406-8.665h1.794v10.664h-1.443v-7.991l-0.044-0.007l-3.23,7.998h-1.003
				l-3.325-8.262l-0.044,0.007v8.254h-1.443V254.55h1.897L234.966,263.215z"/>
		</g>
		<g>
			<path fill="#F48466" d="M242.408,265.214V254.55h3.479c1.113,0,1.985,0.241,2.615,0.722s0.945,1.202,0.945,2.164
				c0,0.459-0.142,0.871-0.425,1.234s-0.659,0.641-1.128,0.831c0.698,0.098,1.251,0.4,1.659,0.908
				c0.407,0.508,0.611,1.106,0.611,1.794c0,0.977-0.317,1.723-0.952,2.238s-1.494,0.772-2.578,0.772H242.408z M243.851,259.084
				h2.336c0.537,0,0.974-0.147,1.311-0.443s0.505-0.707,0.505-1.234c0-0.576-0.182-1.007-0.545-1.293
				c-0.364-0.285-0.888-0.428-1.571-0.428h-2.036V259.084z M243.851,260.212v3.875h2.783c0.659,0,1.171-0.162,1.534-0.487
				c0.364-0.324,0.546-0.785,0.546-1.38c0-0.591-0.186-1.067-0.557-1.428s-0.872-0.554-1.501-0.579h-0.095H243.851z"/>
		</g>
		<g>
			<path fill="#F48466" d="M257.467,260.271h-4.38v3.816h5.127v1.128h-6.57V254.55h6.489v1.135h-5.046v3.45h4.38V260.271z"/>
		</g>
		<g>
			<path fill="#F48466" d="M261.063,260.593v4.622h-1.443v-10.657h3.647c1.167,0,2.058,0.259,2.673,0.776s0.923,1.27,0.923,2.256
				c0,0.547-0.143,1.023-0.428,1.428s-0.702,0.728-1.249,0.967c0.586,0.19,1.007,0.5,1.264,0.927s0.384,0.956,0.384,1.585v1.003
				c0,0.332,0.037,0.63,0.11,0.894s0.2,0.479,0.381,0.645v0.176h-1.487c-0.19-0.166-0.313-0.41-0.366-0.732
				s-0.081-0.654-0.081-0.996v-0.974c0-0.576-0.168-1.04-0.505-1.392s-0.789-0.527-1.355-0.527H261.063z M261.063,259.458h2.058
				c0.815,0,1.403-0.155,1.762-0.465s0.538-0.783,0.538-1.417c0-0.601-0.175-1.066-0.523-1.395c-0.349-0.33-0.893-0.495-1.63-0.495
				h-2.205V259.458z"/>
		</g>
		<g>
			<path fill="#F48466" d="M278.766,265.214h-6.621v-0.989l3.347-3.992c0.596-0.723,1-1.297,1.212-1.725s0.318-0.858,0.318-1.293
				c0-0.493-0.144-0.897-0.432-1.212c-0.288-0.315-0.686-0.473-1.194-0.473c-0.63,0-1.109,0.193-1.439,0.579
				s-0.495,0.867-0.495,1.443h-1.392l-0.015-0.044c-0.024-0.869,0.266-1.605,0.872-2.208s1.428-0.905,2.468-0.905
				c0.952,0,1.702,0.264,2.249,0.791s0.82,1.208,0.82,2.043c0,0.562-0.155,1.111-0.465,1.648c-0.311,0.537-0.783,1.211-1.417,2.021
				l-2.688,3.149l0.015,0.037h4.856V265.214z"/>
		</g>
		<g>
			<path fill="#F48466" d="M286.809,261.45c0,1.206-0.307,2.161-0.919,2.864c-0.613,0.703-1.437,1.055-2.472,1.055
				c-1.03,0-1.854-0.352-2.472-1.055c-0.618-0.703-0.926-1.658-0.926-2.864v-3.135c0-1.196,0.306-2.148,0.919-2.856
				c0.612-0.708,1.434-1.062,2.464-1.062c1.035,0,1.861,0.354,2.479,1.062c0.618,0.708,0.927,1.66,0.927,2.856V261.45z
				 M285.366,258.015c0-0.767-0.171-1.372-0.513-1.816s-0.825-0.667-1.45-0.667c-0.62,0-1.099,0.222-1.436,0.667
				s-0.505,1.05-0.505,1.816v3.728c0,0.767,0.172,1.375,0.517,1.824c0.344,0.449,0.824,0.674,1.439,0.674
				c0.625,0,1.106-0.223,1.443-0.67c0.337-0.446,0.505-1.056,0.505-1.827V258.015z"/>
		</g>
		<g>
			<path fill="#F48466" d="M292.536,265.214h-1.45v-9.331l-2.321,0.022v-1.113l3.771-0.396V265.214z"/>
		</g>
		<g>
			<path fill="#F48466" d="M300.176,254.396c0.42,0,0.835,0.042,1.245,0.125s0.75,0.188,1.018,0.315l-0.308,1.106
				c-0.278-0.122-0.571-0.221-0.879-0.297c-0.308-0.075-0.667-0.113-1.077-0.113c-0.669,0-1.212,0.286-1.63,0.857
				c-0.417,0.571-0.626,1.294-0.626,2.168v0.828c0.298-0.298,0.65-0.532,1.059-0.703c0.407-0.171,0.846-0.256,1.314-0.256
				c0.918,0,1.645,0.308,2.179,0.923c0.535,0.615,0.802,1.423,0.802,2.424c0,1.094-0.299,1.967-0.897,2.618
				c-0.599,0.652-1.405,0.978-2.421,0.978c-0.986,0-1.812-0.375-2.476-1.125c-0.664-0.749-0.996-1.773-0.996-3.072v-2.454
				c0-1.25,0.355-2.283,1.065-3.098C298.261,254.804,299.136,254.396,300.176,254.396z M299.832,259.501
				c-0.454,0-0.843,0.097-1.168,0.289c-0.325,0.193-0.572,0.453-0.743,0.78v0.74c0,0.903,0.196,1.618,0.59,2.142
				c0.393,0.525,0.875,0.788,1.446,0.788c0.601,0,1.063-0.228,1.388-0.685c0.325-0.456,0.487-1.051,0.487-1.783
				c0-0.693-0.175-1.245-0.523-1.655C300.958,259.707,300.466,259.501,299.832,259.501z"/>
		</g>
	</g>
	<g opacity="0.6">
		<g>
			<rect x="52.667" y="240.202" fill="#FCD6D7" width="254.666" height="3"/>
		</g>
	</g>
</g>
</svg>
