<?xml version="1.0" encoding="utf-8"?>
<!-- Generator: Adobe Illustrator 16.0.0, SVG Export Plug-In . SVG Version: 6.00 Build 0)  -->
<!DOCTYPE svg PUBLIC "-//W3C//DTD SVG 1.1//EN" "http://www.w3.org/Graphics/SVG/1.1/DTD/svg11.dtd">
<svg version="1.1" id="Layer_1" xmlns="http://www.w3.org/2000/svg" xmlns:xlink="http://www.w3.org/1999/xlink" x="0px" y="0px"
	 width="360px" height="190px" viewBox="0 0 360 190" enable-background="new 0 0 360 190" xml:space="preserve">
<g>
	<rect fill="#404041" width="360" height="190"/>
</g>
<g>
	<g id="shield-outer">
		<path fill="#808184" d="M180.004,139.145c-17.481-8.401-41.345-22.319-42.657-75.338l42.657-13.319l42.649,13.319
			C221.34,116.825,197.479,130.744,180.004,139.145 M230.938,53.104L181.891,37.79c-1.229-0.386-2.548-0.386-3.781,0l-49.048,15.314
			c-2.651,0.832-4.451,3.279-4.451,6.053c0,67.823,34.267,84.032,52.676,92.744c0.864,0.397,1.782,0.599,2.718,0.599
			c0.925,0,1.849-0.201,2.706-0.599c18.413-8.712,52.68-24.921,52.68-92.744C235.39,56.383,233.587,53.936,230.938,53.104"/>
	</g>
	<g id="shield-inner">
		<path fill="#F4777C" d="M179.412,56.85l17.293,5.403l-43.16,43.157c-5.505-9.496-9.58-21.826-9.58-37.487L179.412,56.85z
			 M179.412,130.795c12.122-5.44,34.923-23.684,35.434-61.57l-50.372,50.362C170.287,125.381,175.973,128.996,179.412,130.795"/>
	</g>
</g>
</svg>
