<?xml version="1.0" encoding="utf-8"?>
<!-- Generator: Adobe Illustrator 16.0.0, SVG Export Plug-In . SVG Version: 6.00 Build 0)  -->
<!DOCTYPE svg PUBLIC "-//W3C//DTD SVG 1.1//EN" "http://www.w3.org/Graphics/SVG/1.1/DTD/svg11.dtd">
<svg version="1.1" xmlns="http://www.w3.org/2000/svg" xmlns:xlink="http://www.w3.org/1999/xlink" x="0px" y="0px" width="360px"
	 height="360px" viewBox="0 0 360 360" enable-background="new 0 0 360 360" xml:space="preserve">
<g id="Layer_1">
	<g>
		<rect fill="#B7C7DF" width="360" height="360"/>
	</g>
	<g>
        <g id="hammer">
            <g>
            <g>
            <path fill="#1073A8" d="M161.699,28.008l32.53,20.159c0.904,0.55,2.054,0.223,2.567-0.744l0.941-1.74
					c0.514-0.959,0.221-2.196-0.684-2.756l-32.542-20.157c-0.892-0.557-2.042-0.228-2.568,0.734l-0.929,1.744
					C160.489,26.219,160.807,27.451,161.699,28.008" />
			</g>
		    </g>
                <g>
                <g>
                <path fill="#1073A8" d="M133.523,80.387l32.529,20.163c0.905,0.547,2.056,0.217,2.569-0.739l0.941-1.741
					    c0.526-0.962,0.208-2.202-0.687-2.756l-32.528-20.158c-0.905-0.561-2.054-0.224-2.569,0.733l-0.94,1.748
					    C132.313,78.597,132.619,79.823,133.523,80.387" />
			    </g>
		    </g>
                <g>
                <g>
                <path fill="#1073A8" d="M248.257,105.02l-65.123-36.222l8.759-16.271c0.526-0.96,0.193-2.195-0.684-2.755L161.92,31.63
					    c-0.895-0.557-2.054-0.224-2.568,0.742l-20.667,38.406c-0.501,0.957-0.209,2.197,0.696,2.749l29.277,18.15
					    c0.905,0.557,2.054,0.224,2.568-0.741l8.756-16.267l61.78,42.413c0.881,0.597,2.019,0.3,2.521-0.666l4.696-8.726
					    C249.491,106.728,249.162,105.525,248.257,105.02" />
			    </g>
		    </g>
        </g>
		<g id="base">
			<g>
				<path fill="#1073A8" d="M183.822,137.92h-65.254c-1.786,0-3.253-1.582-3.253-3.501v-3.501c0-1.926,1.467-3.504,3.253-3.498
					h65.254c1.786,0,3.265,1.571,3.253,3.489l0.012,3.51C187.075,136.346,185.608,137.92,183.822,137.92 M188.225,122.55h-3.925
					c0.501-0.597,0.831-1.36,0.831-2.221v-3.312c0-1.829-1.394-3.328-3.092-3.328h-61.965c-1.712,0-3.095,1.5-3.095,3.328v3.312
					c0,0.86,0.331,1.624,0.819,2.221h-3.926c-1.698,0-3.093,1.498-3.093,3.318v13.308c0,1.825,1.395,3.324,3.093,3.324h74.354
					c1.712,0,3.106-1.499,3.106-3.324v-13.308C191.331,124.048,189.937,122.55,188.225,122.55"/>
			</g>
		</g>
	</g>
</g>
<g id="Layer_2">
	<g>
		<path fill="#1073A8" d="M135.396,319.625h-6.563v17.787h-2.693v-17.787h-6.48v-2.119h15.736V319.625z"/>
		<path fill="#1073A8" d="M145.403,337.412c-0.091-0.446-0.162-0.841-0.212-1.183c-0.05-0.342-0.08-0.686-0.089-1.032
			c-0.501,0.711-1.155,1.306-1.962,1.784s-1.675,0.718-2.604,0.718c-1.541,0-2.714-0.394-3.521-1.183
			c-0.807-0.788-1.21-1.875-1.21-3.261c0-1.413,0.572-2.518,1.716-3.315c1.144-0.797,2.695-1.196,4.655-1.196h2.926v-1.463
			c0-0.866-0.265-1.552-0.793-2.058c-0.529-0.506-1.276-0.759-2.242-0.759c-0.875,0-1.582,0.219-2.119,0.656
			c-0.538,0.438-0.807,0.962-0.807,1.572l-2.557,0.027l-0.027-0.082c-0.064-1.075,0.439-2.06,1.511-2.953
			c1.071-0.893,2.454-1.34,4.149-1.34c1.677,0,3.026,0.426,4.047,1.278c1.021,0.853,1.531,2.081,1.531,3.685v7.123
			c0,0.529,0.027,1.039,0.082,1.531s0.155,0.976,0.301,1.449H145.403z M140.933,335.443c0.975,0,1.854-0.25,2.639-0.752
			c0.784-0.501,1.294-1.075,1.531-1.723v-2.406h-3.021c-1.085,0-1.953,0.273-2.604,0.82c-0.652,0.547-0.978,1.189-0.978,1.928
			c0,0.656,0.205,1.176,0.615,1.559S140.13,335.443,140.933,335.443z"/>
		<path fill="#1073A8" d="M154.81,322.619v16.01c0,1.522-0.392,2.695-1.176,3.521c-0.784,0.825-1.873,1.237-3.268,1.237
			c-0.283,0-0.54-0.021-0.772-0.062s-0.48-0.103-0.745-0.185l0.191-2.119c0.128,0.045,0.31,0.084,0.547,0.116
			c0.237,0.032,0.433,0.048,0.588,0.048c0.592,0,1.064-0.201,1.415-0.602c0.351-0.401,0.526-1.053,0.526-1.955v-16.01H154.81z
			 M154.728,318.777h-2.693v-2.693h2.693V318.777z"/>
		<path fill="#1073A8" d="M161.864,318.832h-2.693v-2.748h2.693V318.832z M161.864,337.412h-2.693v-14.793h2.693V337.412z"/>
		<path fill="#1073A8" d="M170.095,330.59h-1.381v6.822h-2.693v-21.328h2.693v12.359h1.354l4.443-5.824h3.227l-5.373,6.822
			l5.838,7.971h-3.186L170.095,330.59z"/>
		<path fill="#1073A8" d="M183.274,318.832h-2.693v-2.748h2.693V318.832z M183.274,337.412h-2.693v-14.793h2.693V337.412z"/>
		<path fill="#1073A8" d="M196.017,333.434c0-0.592-0.226-1.075-0.677-1.449c-0.451-0.374-1.306-0.702-2.563-0.984
			c-1.741-0.374-3.079-0.897-4.013-1.572c-0.935-0.674-1.401-1.577-1.401-2.707c0-1.203,0.513-2.233,1.538-3.09
			c1.025-0.856,2.354-1.285,3.985-1.285c1.677,0,3.035,0.456,4.074,1.367c1.039,0.912,1.536,1.974,1.49,3.186l-0.027,0.082h-2.57
			c0-0.638-0.28-1.217-0.841-1.736s-1.27-0.779-2.126-0.779c-0.948,0-1.657,0.214-2.126,0.643c-0.47,0.429-0.704,0.939-0.704,1.531
			c0,0.583,0.203,1.035,0.608,1.354c0.405,0.319,1.242,0.611,2.509,0.875c1.813,0.383,3.19,0.925,4.129,1.627
			c0.938,0.702,1.408,1.618,1.408,2.748c0,1.313-0.531,2.384-1.593,3.213c-1.062,0.83-2.45,1.244-4.163,1.244
			c-1.887,0-3.373-0.479-4.457-1.436c-1.085-0.957-1.6-2.073-1.545-3.35l0.027-0.082h2.57c0.045,0.957,0.401,1.657,1.066,2.099
			c0.665,0.442,1.444,0.663,2.338,0.663c0.957,0,1.707-0.203,2.249-0.608C195.745,334.58,196.017,334.063,196.017,333.434z"/>
		<path fill="#1073A8" d="M205.806,319.051v3.568h2.803v1.996h-2.803v8.982c0,0.693,0.144,1.181,0.431,1.463
			c0.287,0.283,0.667,0.424,1.142,0.424c0.155,0,0.328-0.021,0.52-0.062s0.351-0.084,0.479-0.13l0.369,1.846
			c-0.201,0.164-0.497,0.298-0.889,0.403c-0.392,0.104-0.779,0.157-1.162,0.157c-1.094,0-1.964-0.33-2.611-0.991
			c-0.647-0.661-0.971-1.697-0.971-3.11v-8.982h-2.352v-1.996h2.352v-3.568H205.806z"/>
		<path fill="#1073A8" d="M220.585,337.412c-0.091-0.446-0.162-0.841-0.212-1.183c-0.05-0.342-0.08-0.686-0.089-1.032
			c-0.501,0.711-1.155,1.306-1.962,1.784s-1.675,0.718-2.604,0.718c-1.541,0-2.714-0.394-3.521-1.183
			c-0.807-0.788-1.21-1.875-1.21-3.261c0-1.413,0.572-2.518,1.716-3.315c1.144-0.797,2.695-1.196,4.655-1.196h2.926v-1.463
			c0-0.866-0.265-1.552-0.793-2.058c-0.529-0.506-1.276-0.759-2.242-0.759c-0.875,0-1.582,0.219-2.119,0.656
			c-0.538,0.438-0.807,0.962-0.807,1.572l-2.557,0.027l-0.027-0.082c-0.064-1.075,0.439-2.06,1.511-2.953
			c1.071-0.893,2.454-1.34,4.149-1.34c1.677,0,3.026,0.426,4.047,1.278c1.021,0.853,1.531,2.081,1.531,3.685v7.123
			c0,0.529,0.027,1.039,0.082,1.531s0.155,0.976,0.301,1.449H220.585z M216.114,335.443c0.975,0,1.854-0.25,2.639-0.752
			c0.784-0.501,1.294-1.075,1.531-1.723v-2.406h-3.021c-1.085,0-1.953,0.273-2.604,0.82c-0.652,0.547-0.978,1.189-0.978,1.928
			c0,0.656,0.205,1.176,0.615,1.559S215.312,335.443,216.114,335.443z"/>
		<path fill="#1073A8" d="M229.294,322.619l0.191,2.201c0.492-0.784,1.109-1.392,1.853-1.825c0.743-0.433,1.588-0.649,2.536-0.649
			c1.595,0,2.83,0.467,3.705,1.401c0.875,0.935,1.313,2.377,1.313,4.327v9.338h-2.693v-9.283c0-1.303-0.258-2.229-0.772-2.775
			c-0.515-0.547-1.301-0.82-2.358-0.82c-0.83,0-1.534,0.167-2.112,0.499c-0.579,0.333-1.037,0.8-1.374,1.401v10.979h-2.693v-14.793
			H229.294z"/>
	</g>
	<g>
		<path fill="#555658" d="M97.359,296.695v4.848h-1.635v-12.086h4.624c1.29,0,2.292,0.332,3.009,0.996
			c0.716,0.664,1.075,1.538,1.075,2.623c0,1.096-0.358,1.973-1.075,2.631c-0.717,0.659-1.72,0.988-3.009,0.988H97.359z
			 M97.359,295.417h2.988c0.819,0,1.431-0.22,1.834-0.66c0.404-0.439,0.606-0.994,0.606-1.664s-0.204-1.229-0.61-1.677
			c-0.407-0.448-1.017-0.672-1.831-0.672h-2.988V295.417z"/>
		<path fill="#555658" d="M109.068,301.717c-1.29,0-2.295-0.412-3.017-1.236c-0.723-0.824-1.083-1.909-1.083-3.254v-0.365
			c0-1.289,0.372-2.356,1.117-3.2c0.744-0.844,1.653-1.266,2.727-1.266c1.201,0,2.102,0.374,2.702,1.12
			c0.6,0.748,0.9,1.741,0.9,2.98v0.863h-5.744l-0.025,0.041c0,0.902,0.199,1.635,0.598,2.196s1.007,0.843,1.826,0.843
			c0.553,0,1.039-0.079,1.457-0.237c0.418-0.157,0.776-0.375,1.075-0.651l0.639,1.063c-0.321,0.31-0.744,0.571-1.27,0.784
			S109.81,301.717,109.068,301.717z M108.811,293.682c-0.57,0-1.042,0.221-1.415,0.66c-0.374,0.44-0.602,1.003-0.685,1.689
			l0.017,0.041h4.051v-0.133c0-0.652-0.161-1.192-0.481-1.618S109.48,293.682,108.811,293.682z"/>
		<path fill="#555658" d="M113.016,296.969c0-1.328,0.36-2.422,1.079-3.282s1.696-1.291,2.93-1.291c1.245,0,2.229,0.429,2.951,1.286
			c0.722,0.858,1.083,1.954,1.083,3.287v0.184c0,1.339-0.36,2.435-1.079,3.287c-0.719,0.852-1.699,1.277-2.938,1.277
			s-2.221-0.427-2.942-1.282c-0.723-0.854-1.083-1.949-1.083-3.282V296.969z M114.651,297.152c0,0.951,0.201,1.737,0.602,2.357
			c0.401,0.619,0.998,0.93,1.789,0.93c0.78,0,1.373-0.311,1.776-0.93c0.404-0.62,0.606-1.406,0.606-2.357v-0.184
			c0-0.94-0.204-1.724-0.61-2.349c-0.407-0.625-1.003-0.938-1.789-0.938c-0.78,0-1.371,0.313-1.772,0.938
			c-0.401,0.625-0.602,1.408-0.602,2.349V297.152z"/>
		<path fill="#555658" d="M129.863,297.393c0,1.295-0.31,2.34-0.93,3.134s-1.475,1.19-2.565,1.19c-0.553,0-1.039-0.092-1.457-0.277
			c-0.417-0.186-0.773-0.464-1.066-0.834v4.391h-1.635v-12.435h1.253l0.257,1.162c0.293-0.432,0.659-0.761,1.096-0.987
			c0.437-0.228,0.946-0.341,1.527-0.341c1.112,0,1.977,0.441,2.594,1.324c0.617,0.883,0.925,2.049,0.925,3.499V297.393z
			 M128.228,297.219c0-1.019-0.201-1.855-0.602-2.512c-0.401-0.655-0.992-0.983-1.772-0.983c-0.47,0-0.872,0.106-1.204,0.319
			s-0.601,0.505-0.805,0.876v4.341c0.205,0.371,0.473,0.66,0.805,0.868c0.332,0.207,0.739,0.312,1.22,0.312
			c0.775,0,1.361-0.284,1.76-0.852s0.598-1.299,0.598-2.195V297.219z"/>
		<path fill="#555658" d="M132.79,301.543h-1.635v-12.949h1.635V301.543z"/>
		<path fill="#555658" d="M138.174,301.717c-1.29,0-2.295-0.412-3.017-1.236c-0.723-0.824-1.083-1.909-1.083-3.254v-0.365
			c0-1.289,0.372-2.356,1.117-3.2c0.744-0.844,1.653-1.266,2.727-1.266c1.201,0,2.102,0.374,2.702,1.12
			c0.6,0.748,0.9,1.741,0.9,2.98v0.863h-5.744l-0.025,0.041c0,0.902,0.199,1.635,0.598,2.196s1.007,0.843,1.826,0.843
			c0.553,0,1.039-0.079,1.457-0.237c0.418-0.157,0.776-0.375,1.075-0.651l0.639,1.063c-0.321,0.31-0.744,0.571-1.27,0.784
			S138.916,301.717,138.174,301.717z M137.917,293.682c-0.57,0-1.042,0.221-1.415,0.66c-0.374,0.44-0.602,1.003-0.685,1.689
			l0.017,0.041h4.051v-0.133c0-0.652-0.161-1.192-0.481-1.618S138.586,293.682,137.917,293.682z"/>
		<path fill="#555658" d="M150.128,294.006l-0.838-0.05c-0.432,0-0.795,0.103-1.092,0.308c-0.296,0.204-0.524,0.492-0.685,0.863
			v6.416h-1.635v-8.981h1.461l0.158,1.312c0.254-0.465,0.568-0.827,0.942-1.088c0.373-0.26,0.804-0.39,1.291-0.39
			c0.122,0,0.238,0.01,0.349,0.029s0.202,0.04,0.274,0.062L150.128,294.006z"/>
		<path fill="#555658" d="M154.542,301.717c-1.29,0-2.295-0.412-3.017-1.236c-0.723-0.824-1.083-1.909-1.083-3.254v-0.365
			c0-1.289,0.372-2.356,1.117-3.2c0.744-0.844,1.653-1.266,2.727-1.266c1.201,0,2.102,0.374,2.702,1.12
			c0.6,0.748,0.9,1.741,0.9,2.98v0.863h-5.744l-0.025,0.041c0,0.902,0.199,1.635,0.598,2.196s1.007,0.843,1.826,0.843
			c0.553,0,1.039-0.079,1.457-0.237c0.418-0.157,0.776-0.375,1.075-0.651l0.639,1.063c-0.321,0.31-0.744,0.571-1.27,0.784
			S155.283,301.717,154.542,301.717z M154.284,293.682c-0.57,0-1.042,0.221-1.415,0.66c-0.374,0.44-0.602,1.003-0.685,1.689
			l0.017,0.041h4.051v-0.133c0-0.652-0.161-1.192-0.481-1.618S154.954,293.682,154.284,293.682z"/>
		<path fill="#555658" d="M162.44,300.439c0.503,0,0.943-0.168,1.32-0.503s0.564-0.745,0.564-1.232h1.478l0.025,0.05
			c0.022,0.774-0.31,1.462-0.996,2.063s-1.483,0.9-2.391,0.9c-1.262,0-2.236-0.429-2.922-1.286s-1.029-1.926-1.029-3.204v-0.349
			c0-1.268,0.344-2.331,1.034-3.191c0.688-0.86,1.661-1.291,2.917-1.291c1.001,0,1.822,0.31,2.461,0.93
			c0.639,0.62,0.947,1.381,0.925,2.282l-0.017,0.051h-1.486c0-0.549-0.179-1.015-0.535-1.399c-0.357-0.385-0.807-0.577-1.349-0.577
			c-0.802,0-1.388,0.312-1.755,0.935c-0.368,0.622-0.552,1.376-0.552,2.262v0.349c0,0.902,0.181,1.663,0.543,2.283
			C161.039,300.129,161.627,300.439,162.44,300.439z"/>
		<path fill="#555658" d="M170.638,301.717c-1.29,0-2.295-0.412-3.017-1.236c-0.723-0.824-1.083-1.909-1.083-3.254v-0.365
			c0-1.289,0.372-2.356,1.117-3.2c0.744-0.844,1.653-1.266,2.727-1.266c1.201,0,2.102,0.374,2.702,1.12
			c0.6,0.748,0.9,1.741,0.9,2.98v0.863h-5.744l-0.025,0.041c0,0.902,0.199,1.635,0.598,2.196s1.007,0.843,1.826,0.843
			c0.553,0,1.039-0.079,1.457-0.237c0.418-0.157,0.776-0.375,1.075-0.651l0.639,1.063c-0.321,0.31-0.744,0.571-1.27,0.784
			S171.38,301.717,170.638,301.717z M170.381,293.682c-0.57,0-1.042,0.221-1.415,0.66c-0.374,0.44-0.602,1.003-0.685,1.689
			l0.017,0.041h4.051v-0.133c0-0.652-0.161-1.192-0.481-1.618S171.05,293.682,170.381,293.682z"/>
		<path fill="#555658" d="M176.736,290.262h-1.635v-1.668h1.635V290.262z M176.736,301.543h-1.635v-8.981h1.635V301.543z"/>
		<path fill="#555658" d="M181.397,298.895l0.141,0.631h0.05l0.158-0.631l2.067-6.333h1.668l-3.304,8.981h-1.237l-3.345-8.981h1.677
			L181.397,298.895z"/>
		<path fill="#555658" d="M187.869,290.262h-1.635v-1.668h1.635V290.262z M187.869,301.543h-1.635v-8.981h1.635V301.543z"/>
		<path fill="#555658" d="M190.995,292.562l0.116,1.337c0.299-0.477,0.674-0.846,1.125-1.108c0.451-0.263,0.964-0.395,1.54-0.395
			c0.968,0,1.718,0.283,2.25,0.851s0.797,1.443,0.797,2.627v5.67h-1.635v-5.637c0-0.791-0.156-1.353-0.469-1.685
			c-0.313-0.332-0.79-0.498-1.432-0.498c-0.503,0-0.931,0.101-1.283,0.303c-0.351,0.202-0.629,0.485-0.834,0.851v6.666h-1.635
			v-8.981H190.995z"/>
		<path fill="#555658" d="M198.056,297.219c0-1.445,0.309-2.609,0.926-3.495c0.617-0.886,1.479-1.328,2.585-1.328
			c0.57,0,1.071,0.115,1.502,0.345s0.794,0.561,1.087,0.992l0.199-1.171h1.303v9.031c0,1.151-0.335,2.035-1.004,2.652
			s-1.635,0.925-2.897,0.925c-0.432,0-0.898-0.059-1.398-0.178c-0.501-0.119-0.942-0.281-1.324-0.486l0.249-1.27
			c0.315,0.166,0.696,0.3,1.142,0.402c0.445,0.103,0.884,0.154,1.315,0.154c0.797,0,1.376-0.182,1.739-0.544
			c0.362-0.362,0.543-0.915,0.543-1.656v-1.021c-0.293,0.376-0.645,0.661-1.054,0.854s-0.883,0.29-1.419,0.29
			c-1.096,0-1.952-0.396-2.569-1.19c-0.617-0.794-0.926-1.839-0.926-3.134V297.219z M199.691,297.393
			c0,0.902,0.186,1.627,0.556,2.175s0.943,0.821,1.718,0.821c0.493,0,0.905-0.111,1.237-0.336c0.332-0.224,0.606-0.541,0.822-0.95
			v-4.134c-0.21-0.382-0.484-0.685-0.822-0.909c-0.337-0.224-0.744-0.336-1.22-0.336c-0.78,0-1.357,0.323-1.731,0.972
			c-0.373,0.646-0.56,1.488-0.56,2.523V297.393z"/>
		<path fill="#555658" d="M212.301,301.543h-1.635v-12.949h1.635V301.543z"/>
		<path fill="#555658" d="M217.686,301.717c-1.29,0-2.295-0.412-3.017-1.236c-0.723-0.824-1.083-1.909-1.083-3.254v-0.365
			c0-1.289,0.372-2.356,1.117-3.2c0.744-0.844,1.653-1.266,2.727-1.266c1.201,0,2.102,0.374,2.702,1.12
			c0.6,0.748,0.9,1.741,0.9,2.98v0.863h-5.744l-0.025,0.041c0,0.902,0.199,1.635,0.598,2.196s1.007,0.843,1.826,0.843
			c0.553,0,1.039-0.079,1.457-0.237c0.418-0.157,0.776-0.375,1.075-0.651l0.639,1.063c-0.321,0.31-0.744,0.571-1.27,0.784
			S218.427,301.717,217.686,301.717z M217.428,293.682c-0.57,0-1.042,0.221-1.415,0.66c-0.374,0.44-0.602,1.003-0.685,1.689
			l0.017,0.041h4.051v-0.133c0-0.652-0.161-1.192-0.481-1.618S218.098,293.682,217.428,293.682z"/>
		<path fill="#555658" d="M221.725,297.219c0-1.445,0.309-2.609,0.926-3.495c0.617-0.886,1.479-1.328,2.585-1.328
			c0.57,0,1.071,0.115,1.502,0.345s0.794,0.561,1.087,0.992l0.199-1.171h1.303v9.031c0,1.151-0.335,2.035-1.004,2.652
			s-1.635,0.925-2.897,0.925c-0.432,0-0.898-0.059-1.398-0.178c-0.501-0.119-0.942-0.281-1.324-0.486l0.249-1.27
			c0.315,0.166,0.696,0.3,1.142,0.402c0.445,0.103,0.884,0.154,1.315,0.154c0.797,0,1.376-0.182,1.739-0.544
			c0.362-0.362,0.543-0.915,0.543-1.656v-1.021c-0.293,0.376-0.645,0.661-1.054,0.854s-0.883,0.29-1.419,0.29
			c-1.096,0-1.952-0.396-2.569-1.19c-0.617-0.794-0.926-1.839-0.926-3.134V297.219z M223.36,297.393
			c0,0.902,0.186,1.627,0.556,2.175s0.943,0.821,1.718,0.821c0.493,0,0.905-0.111,1.237-0.336c0.332-0.224,0.606-0.541,0.822-0.95
			v-4.134c-0.21-0.382-0.484-0.685-0.822-0.909c-0.337-0.224-0.744-0.336-1.22-0.336c-0.78,0-1.357,0.323-1.731,0.972
			c-0.373,0.646-0.56,1.488-0.56,2.523V297.393z"/>
		<path fill="#555658" d="M236.347,301.543c-0.055-0.271-0.098-0.511-0.129-0.718c-0.03-0.208-0.048-0.417-0.054-0.627
			c-0.304,0.432-0.701,0.793-1.191,1.083c-0.489,0.291-1.017,0.436-1.581,0.436c-0.935,0-1.647-0.239-2.138-0.718
			c-0.489-0.479-0.734-1.139-0.734-1.979c0-0.857,0.347-1.528,1.042-2.013c0.694-0.484,1.636-0.727,2.826-0.727h1.776v-0.888
			c0-0.526-0.161-0.942-0.481-1.25c-0.321-0.307-0.775-0.461-1.361-0.461c-0.531,0-0.96,0.133-1.287,0.398s-0.49,0.584-0.49,0.955
			l-1.552,0.017l-0.017-0.05c-0.039-0.653,0.267-1.251,0.917-1.793c0.65-0.542,1.49-0.813,2.519-0.813
			c1.018,0,1.837,0.259,2.457,0.776s0.93,1.263,0.93,2.236v4.325c0,0.321,0.017,0.631,0.05,0.93s0.094,0.592,0.183,0.88H236.347z
			 M233.633,300.348c0.592,0,1.126-0.152,1.602-0.457c0.476-0.304,0.786-0.652,0.93-1.045v-1.461h-1.834
			c-0.659,0-1.186,0.166-1.582,0.498c-0.396,0.332-0.593,0.722-0.593,1.17c0,0.398,0.125,0.714,0.374,0.946
			S233.146,300.348,233.633,300.348z"/>
		<path fill="#555658" d="M241.092,301.543h-1.635v-12.949h1.635V301.543z"/>
		<path fill="#555658" d="M251.652,301.543c-0.055-0.271-0.098-0.511-0.129-0.718c-0.03-0.208-0.048-0.417-0.054-0.627
			c-0.304,0.432-0.701,0.793-1.191,1.083c-0.489,0.291-1.017,0.436-1.581,0.436c-0.935,0-1.647-0.239-2.138-0.718
			c-0.489-0.479-0.734-1.139-0.734-1.979c0-0.857,0.347-1.528,1.042-2.013c0.694-0.484,1.636-0.727,2.826-0.727h1.776v-0.888
			c0-0.526-0.161-0.942-0.481-1.25c-0.321-0.307-0.775-0.461-1.361-0.461c-0.531,0-0.96,0.133-1.287,0.398s-0.49,0.584-0.49,0.955
			l-1.552,0.017l-0.017-0.05c-0.039-0.653,0.267-1.251,0.917-1.793c0.65-0.542,1.49-0.813,2.519-0.813
			c1.018,0,1.837,0.259,2.457,0.776s0.93,1.263,0.93,2.236v4.325c0,0.321,0.017,0.631,0.05,0.93s0.094,0.592,0.183,0.88H251.652z
			 M248.938,300.348c0.592,0,1.126-0.152,1.602-0.457c0.476-0.304,0.786-0.652,0.93-1.045v-1.461h-1.834
			c-0.659,0-1.186,0.166-1.582,0.498c-0.396,0.332-0.593,0.722-0.593,1.17c0,0.398,0.125,0.714,0.374,0.946
			S248.451,300.348,248.938,300.348z"/>
		<path fill="#555658" d="M256.397,290.262h-1.635v-1.668h1.635V290.262z M256.397,301.543h-1.635v-8.981h1.635V301.543z"/>
		<path fill="#555658" d="M257.688,297.219c0-1.445,0.309-2.609,0.926-3.495c0.617-0.886,1.481-1.328,2.594-1.328
			c0.526,0,0.992,0.097,1.398,0.29c0.407,0.194,0.754,0.477,1.042,0.848v-4.939h1.635v12.949h-1.253l-0.249-1.137
			c-0.293,0.432-0.656,0.758-1.087,0.979c-0.432,0.222-0.933,0.332-1.502,0.332c-1.096,0-1.954-0.396-2.573-1.19
			s-0.93-1.839-0.93-3.134V297.219z M259.324,297.393c0,0.907,0.186,1.634,0.556,2.179s0.946,0.817,1.727,0.817
			c0.487,0,0.896-0.11,1.229-0.332c0.332-0.221,0.603-0.531,0.813-0.93v-4.191c-0.21-0.371-0.483-0.665-0.817-0.884
			c-0.335-0.219-0.738-0.328-1.208-0.328c-0.786,0-1.365,0.323-1.739,0.972c-0.373,0.646-0.56,1.488-0.56,2.523V297.393z"/>
	</g>
	<g>
		<g>
			<g>
				<g>
					<polygon fill="#799DC4" points="166.593,231.25 156.198,222.733 156.198,224.667 164.23,231.25 156.198,237.834 
						156.198,239.773 166.315,231.482 166.315,231.477 					"/>
				</g>
			</g>
			<g>
				<rect x="150.244" y="230.31" fill="#799DC4" width="14.398" height="1.684"/>
			</g>
		</g>
		<g>
			<g>
				<path fill="#0074A8" d="M226.846,253.298h-1.64v-12.056h1.64V253.298z"/>
				<path fill="#0074A8" d="M238.613,253.298h-1.631l-5.805-9.208l-0.05,0.017v9.191h-1.631v-12.056h1.631l5.805,9.199l0.05-0.017
					v-9.183h1.631V253.298z"/>
				<path fill="#0074A8" d="M252.292,253.298h-7.485v-1.118l3.784-4.513c0.673-0.817,1.13-1.467,1.371-1.95
					c0.24-0.483,0.36-0.97,0.36-1.461c0-0.558-0.163-1.015-0.489-1.371c-0.325-0.356-0.775-0.534-1.35-0.534
					c-0.712,0-1.254,0.218-1.627,0.654s-0.559,0.98-0.559,1.631h-1.573l-0.017-0.05c-0.028-0.982,0.301-1.815,0.985-2.497
					c0.684-0.682,1.614-1.022,2.79-1.022c1.077,0,1.924,0.298,2.542,0.894s0.928,1.366,0.928,2.31c0,0.635-0.175,1.256-0.526,1.863
					c-0.351,0.607-0.885,1.369-1.602,2.286l-3.039,3.561l0.017,0.041h5.49V253.298z"/>
				<path fill="#0074A8" d="M261.385,249.042c0,1.364-0.347,2.443-1.039,3.238c-0.693,0.795-1.625,1.192-2.795,1.192
					c-1.165,0-2.096-0.397-2.794-1.192c-0.699-0.795-1.047-1.874-1.047-3.238v-3.544c0-1.352,0.346-2.429,1.039-3.229
					c0.692-0.801,1.622-1.201,2.786-1.201c1.17,0,2.104,0.4,2.803,1.201c0.698,0.8,1.047,1.877,1.047,3.229V249.042z
					 M259.753,245.158c0-0.867-0.193-1.551-0.58-2.054c-0.387-0.502-0.933-0.753-1.64-0.753c-0.701,0-1.242,0.251-1.623,0.753
					c-0.381,0.502-0.571,1.187-0.571,2.054v4.215c0,0.867,0.195,1.554,0.584,2.062c0.389,0.508,0.932,0.762,1.627,0.762
					c0.707,0,1.25-0.253,1.631-0.758c0.381-0.505,0.571-1.194,0.571-2.066V245.158z"/>
				<path fill="#0074A8" d="M267.86,253.298h-1.64v-10.549l-2.625,0.025v-1.259l4.265-0.447V253.298z"/>
				<path fill="#0074A8" d="M272.639,247.94l0.695-6.699h6.037v1.449h-4.662l-0.39,3.47c0.26-0.193,0.547-0.352,0.861-0.476
					s0.673-0.189,1.076-0.195c1.115-0.011,1.989,0.338,2.621,1.048c0.632,0.709,0.948,1.682,0.948,2.918
					c0,1.209-0.325,2.181-0.973,2.915c-0.649,0.734-1.594,1.101-2.836,1.101c-1.021,0-1.871-0.279-2.55-0.836
					c-0.679-0.557-1.005-1.377-0.978-2.459l0.017-0.05h1.474c0,0.657,0.189,1.166,0.567,1.528c0.378,0.361,0.868,0.542,1.47,0.542
					c0.69,0,1.226-0.243,1.606-0.729c0.381-0.485,0.571-1.151,0.571-1.996c0-0.767-0.191-1.388-0.575-1.863
					c-0.384-0.475-0.918-0.712-1.603-0.712c-0.64,0-1.104,0.097-1.391,0.29s-0.5,0.491-0.638,0.894L272.639,247.94z"/>
			</g>
			<g>
				<path fill="#0074A8" d="M195.62,213.677h-7.542v-29.532l-7.356,2.842v-6.268l14.102-5.763h0.797V213.677z"/>
				<path fill="#0074A8" d="M223.134,213.677h-7.543v-29.532l-7.356,2.842v-6.268l14.103-5.763h0.797V213.677z"/>
				<path fill="#0074A8" d="M236.545,223.423l-4.01-2.098l1.009-1.885c1.133-2.089,1.717-4.196,1.753-6.321v-5.976h6.533
					l-0.026,5.338c-0.018,1.876-0.496,3.825-1.435,5.843C239.431,220.343,238.156,222.042,236.545,223.423z"/>
				<path fill="#0074A8" d="M270.247,213.677H247.46v-5.266l10.464-13.351c1.328-1.848,2.306-3.469,2.935-4.864
					c0.629-1.396,0.943-2.732,0.943-4.012c0-1.724-0.297-3.074-0.89-4.052c-0.594-0.977-1.448-1.466-2.563-1.466
					c-1.221,0-2.19,0.571-2.908,1.714c-0.717,1.142-1.076,2.749-1.076,4.819h-7.542c0-2.373,0.491-4.542,1.474-6.507
					s2.363-3.492,4.143-4.581c1.779-1.089,3.793-1.633,6.042-1.633c3.453,0,6.131,0.952,8.034,2.855
					c1.903,1.903,2.854,4.608,2.854,8.113c0,2.178-0.526,4.387-1.58,6.626s-2.961,5.004-5.723,8.294l-4.967,7.123h13.146V213.677z"
					/>
				<path fill="#0074A8" d="M297.442,197.689c0,5.347-0.97,9.437-2.908,12.27c-1.939,2.833-4.706,4.25-8.3,4.25
					c-3.559,0-6.307-1.376-8.246-4.13c-1.938-2.753-2.943-6.697-3.014-11.832v-7.303c0-5.329,0.965-9.406,2.895-12.23
					c1.93-2.824,4.701-4.236,8.313-4.236s6.383,1.399,8.313,4.196s2.912,6.79,2.948,11.978V197.689z M289.899,189.837
					c0-3.057-0.301-5.35-0.902-6.878c-0.603-1.529-1.541-2.293-2.815-2.293c-2.39,0-3.63,2.8-3.718,8.398v9.678
					c0,3.128,0.305,5.457,0.916,6.985c0.61,1.529,1.563,2.293,2.854,2.293c1.222,0,2.129-0.715,2.723-2.146
					c0.593-1.431,0.907-3.621,0.942-6.572V189.837z"/>
				<path fill="#0074A8" d="M320.415,174.61v6.374h-0.425c-2.815,0.018-5.051,0.863-6.706,2.536
					c-1.656,1.673-2.66,4.015-3.014,7.024c1.611-1.841,3.629-2.762,6.055-2.762c2.797,0,5.033,1.195,6.706,3.585
					c1.673,2.39,2.51,5.577,2.51,9.561c0,2.532-0.478,4.816-1.434,6.852c-0.956,2.037-2.297,3.617-4.023,4.741
					c-1.726,1.125-3.678,1.687-5.856,1.687c-3.506,0-6.317-1.408-8.432-4.223c-2.116-2.815-3.174-6.604-3.174-11.367v-2.789
					c0-4.267,0.668-8.003,2.005-11.208c1.336-3.204,3.267-5.67,5.79-7.396c2.523-1.726,5.466-2.598,8.831-2.616H320.415z
					 M313.961,193.971c-0.956,0-1.757,0.303-2.403,0.909c-0.646,0.605-1.129,1.353-1.448,2.243v2.724
					c0,2.743,0.363,4.791,1.089,6.144c0.726,1.354,1.682,2.03,2.868,2.03c1.204,0,2.169-0.654,2.895-1.963
					c0.726-1.309,1.089-2.987,1.089-5.035c0-2.083-0.376-3.779-1.129-5.088S315.183,193.971,313.961,193.971z"/>
			</g>
			<g opacity="0.6">
				<g>
					<rect x="181.644" y="227.195" fill="#799DC4" width="140.743" height="3"/>
				</g>
			</g>
		</g>
		<g>
			<g>
				<path fill="#0074A8" d="M58.58,256.296h-1.64V244.24h1.64V256.296z"/>
				<path fill="#0074A8" d="M70.347,256.296h-1.631l-5.805-9.208l-0.05,0.017v9.191h-1.631V244.24h1.631l5.805,9.199l0.05-0.017
					v-9.183h1.631V256.296z"/>
				<path fill="#0074A8" d="M84.026,256.296h-7.485v-1.118l3.784-4.513c0.673-0.817,1.13-1.467,1.37-1.95s0.36-0.97,0.36-1.461
					c0-0.558-0.163-1.015-0.489-1.371s-0.775-0.534-1.35-0.534c-0.712,0-1.254,0.218-1.627,0.654s-0.559,0.98-0.559,1.631h-1.573
					l-0.017-0.05c-0.028-0.982,0.301-1.815,0.985-2.497s1.615-1.022,2.791-1.022c1.077,0,1.924,0.298,2.542,0.894
					s0.927,1.366,0.927,2.31c0,0.635-0.175,1.256-0.525,1.863c-0.351,0.607-0.885,1.369-1.603,2.286l-3.039,3.561l0.017,0.041h5.49
					V256.296z"/>
				<path fill="#0074A8" d="M93.118,252.04c0,1.364-0.346,2.443-1.039,3.238c-0.692,0.795-1.624,1.192-2.794,1.192
					c-1.165,0-2.096-0.397-2.794-1.192c-0.699-0.795-1.048-1.874-1.048-3.238v-3.544c0-1.352,0.347-2.429,1.039-3.229
					c0.693-0.801,1.622-1.201,2.787-1.201c1.17,0,2.104,0.4,2.803,1.201c0.698,0.8,1.047,1.877,1.047,3.229V252.04z M91.487,248.157
					c0-0.867-0.193-1.551-0.58-2.054c-0.387-0.502-0.933-0.753-1.64-0.753c-0.701,0-1.242,0.251-1.623,0.753
					c-0.381,0.502-0.571,1.187-0.571,2.054v4.215c0,0.867,0.195,1.554,0.583,2.062c0.39,0.508,0.932,0.762,1.627,0.762
					c0.707,0,1.25-0.253,1.631-0.758c0.381-0.505,0.571-1.194,0.571-2.066V248.157z"/>
				<path fill="#0074A8" d="M99.594,256.296h-1.639v-10.549l-2.625,0.025v-1.259l4.264-0.447V256.296z"/>
				<path fill="#0074A8" d="M110.317,252.239h1.665v1.275h-1.665v2.782h-1.623v-2.782h-5.175v-0.919l5.076-8.355h1.722V252.239z
					 M105.267,252.239h3.428v-5.655l-0.049-0.008l-0.158,0.414L105.267,252.239z"/>
			</g>
			<g>
				<path fill="#0074A8" d="M52.607,193.374c0,1.556-0.331,2.936-0.992,4.139c-0.662,1.204-1.573,2.166-2.734,2.885
					c1.323,0.75,2.367,1.784,3.131,3.102s1.146,2.866,1.146,4.646c0,2.855-0.823,5.11-2.469,6.766s-3.888,2.483-6.724,2.483
					c-2.837,0-5.093-0.828-6.769-2.483c-1.676-1.656-2.514-3.911-2.514-6.766c0-1.78,0.382-3.333,1.146-4.657
					c0.764-1.325,1.815-2.355,3.153-3.091c-1.176-0.719-2.094-1.681-2.756-2.885c-0.662-1.204-0.992-2.583-0.992-4.139
					c0-2.803,0.786-4.998,2.359-6.583s3.682-2.378,6.328-2.378c2.675,0,4.792,0.8,6.35,2.4S52.607,190.6,52.607,193.374z
					 M43.965,212.258c0.94,0,1.664-0.404,2.171-1.213c0.507-0.809,0.761-1.933,0.761-3.373s-0.265-2.567-0.794-3.384
					c-0.529-0.816-1.256-1.224-2.183-1.224c-0.926,0-1.657,0.408-2.194,1.224c-0.537,0.816-0.805,1.944-0.805,3.384
					s0.268,2.563,0.805,3.373C42.263,211.854,43.009,212.258,43.965,212.258z M46.39,193.694c0-1.255-0.202-2.26-0.606-3.014
					c-0.404-0.754-1.025-1.131-1.863-1.131c-0.793,0-1.396,0.366-1.808,1.097c-0.412,0.732-0.618,1.748-0.618,3.047
					c0,1.271,0.206,2.294,0.618,3.07c0.411,0.776,1.028,1.164,1.852,1.164c0.823,0,1.433-0.388,1.83-1.164
					S46.39,194.965,46.39,193.694z"/>
				<path fill="#0074A8" d="M59.486,225.046l-3.329-1.742l0.838-1.565c0.94-1.734,1.425-3.483,1.455-5.247v-4.961h5.423
					l-0.022,4.432c-0.015,1.558-0.412,3.175-1.19,4.851C61.881,222.488,60.823,223.899,59.486,225.046z"/>
				<path fill="#0074A8" d="M69.187,201.169l1.587-16.315h15.543v5.335H75.889l-0.573,6.878c1.205-0.808,2.447-1.212,3.726-1.212
					c2.646,0,4.685,0.941,6.118,2.822c1.433,1.882,2.15,4.542,2.15,7.981c0,3.219-0.853,5.813-2.558,7.783s-3.983,2.954-6.834,2.954
					c-1.69,0-3.256-0.4-4.696-1.202c-1.44-0.801-2.576-1.914-3.406-3.34c-0.831-1.426-1.253-3.042-1.268-4.851h6.173
					c0.103,1.352,0.433,2.398,0.992,3.142c0.558,0.743,1.278,1.113,2.16,1.113c1.029,0,1.822-0.498,2.381-1.494
					c0.558-0.996,0.838-2.482,0.838-4.459c0-1.859-0.334-3.261-1.003-4.205c-0.669-0.944-1.606-1.417-2.811-1.417
					c-1.176,0-2.087,0.405-2.734,1.213l-0.396,0.551L69.187,201.169z"/>
				<path fill="#0074A8" d="M110.04,203.682c0,4.439-0.805,7.834-2.414,10.186s-3.906,3.527-6.89,3.527
					c-2.955,0-5.236-1.143-6.846-3.428s-2.444-5.56-2.502-9.822v-6.063c0-4.424,0.801-7.808,2.403-10.153
					c1.602-2.344,3.902-3.516,6.901-3.516c2.998,0,5.298,1.161,6.9,3.483s2.418,5.637,2.447,9.943V203.682z M103.779,197.164
					c0-2.538-0.25-4.441-0.75-5.71c-0.5-1.269-1.279-1.904-2.337-1.904c-1.984,0-3.014,2.324-3.087,6.972v8.034
					c0,2.597,0.253,4.53,0.761,5.799c0.507,1.269,1.297,1.903,2.37,1.903c1.014,0,1.767-0.594,2.26-1.781
					c0.492-1.188,0.753-3.006,0.783-5.456V197.164z"/>
				<path fill="#0074A8" d="M114.868,201.169l1.588-16.315h15.543v5.335h-10.428l-0.573,6.878c1.205-0.808,2.447-1.212,3.726-1.212
					c2.646,0,4.685,0.941,6.118,2.822c1.433,1.882,2.149,4.542,2.149,7.981c0,3.219-0.853,5.813-2.558,7.783
					s-3.983,2.954-6.834,2.954c-1.69,0-3.256-0.4-4.696-1.202c-1.441-0.801-2.576-1.914-3.407-3.34s-1.253-3.042-1.268-4.851h6.173
					c0.103,1.352,0.433,2.398,0.992,3.142c0.558,0.743,1.278,1.113,2.16,1.113c1.029,0,1.823-0.498,2.381-1.494
					c0.559-0.996,0.838-2.482,0.838-4.459c0-1.859-0.334-3.261-1.003-4.205c-0.669-0.944-1.606-1.417-2.811-1.417
					c-1.176,0-2.087,0.405-2.734,1.213l-0.396,0.551L114.868,201.169z"/>
			</g>
			<g opacity="0.6">
				<g>
					<rect x="32.635" y="228.43" fill="#799DC4" width="102.227" height="3"/>
				</g>
			</g>
		</g>
	</g>
</g>
</svg>
