<?xml version="1.0" encoding="utf-8"?>
<!-- Generator: Adobe Illustrator 16.0.0, SVG Export Plug-In . SVG Version: 6.00 Build 0)  -->
<!DOCTYPE svg PUBLIC "-//W3C//DTD SVG 1.1//EN" "http://www.w3.org/Graphics/SVG/1.1/DTD/svg11.dtd">
<svg version="1.1" xmlns="http://www.w3.org/2000/svg" xmlns:xlink="http://www.w3.org/1999/xlink" x="0px" y="0px" width="100%"
	 height="100%" viewBox="0 0 360 360" enable-background="new 0 0 360 360" xml:space="preserve" class="c-infographic-svg">
<g id="Layer_1">
	<g>
		<rect fill="#383839" width="360" height="360"/>
	</g>
	<g>
		<g id="document-3">
			<g>
				<path fill="#383839" d="M131.492,110c-2.315,0-4.492-2.251-4.492-4.475v-56.05c0-0.006,0.023-0.148,0.071-0.213l15.301-14.963
					l36.986-0.005c2.139,0,3.642,1.715,3.642,4.077v67.154c0,2.159-1.359,4.475-3.638,4.475H131.492z"/>
			</g>
			<g>
				<g>
					<path fill="#808184" d="M177.115,55.025c0,1.149-0.927,2.069-2.073,2.069h-16.876c-1.148,0-2.071-0.92-2.071-2.069
						c0-1.144,0.923-2.063,2.071-2.063h16.876C176.188,52.962,177.115,53.882,177.115,55.025z M149.176,81.308h-12.489
						c-1.148,0-2.079,0.922-2.079,2.066c0,1.147,0.931,2.066,2.079,2.066h12.489c1.148,0,2.077-0.919,2.077-2.066
						C151.253,82.23,150.324,81.308,149.176,81.308z M175.042,60.049h-38.354c-1.148,0-2.078,0.922-2.078,2.067
						c0,1.147,0.93,2.065,2.078,2.065h38.354c1.146,0,2.073-0.918,2.073-2.065C177.115,60.971,176.188,60.049,175.042,60.049z
						 M175.042,67.135h-38.354c-1.148,0-2.078,0.921-2.078,2.063c0,1.148,0.93,2.071,2.078,2.071h38.354
						c1.146,0,2.073-0.923,2.073-2.071C177.115,68.056,176.188,67.135,175.042,67.135z M175.042,74.222h-38.354
						c-1.148,0-2.079,0.92-2.079,2.068c0,1.144,0.931,2.066,2.079,2.066h38.354c1.146,0,2.073-0.922,2.073-2.066
						C177.115,75.142,176.188,74.222,175.042,74.222z M185.052,38.371v38.288v2.005v26.861c0,3.356-2.33,6.489-5.69,6.489h-20.821
						h-6.227h-20.822c-3.36,0-6.674-3.133-6.674-6.489V49.092c0-0.41,0.415-0.798,0.636-1.135l15.846-15.45
						c0.282-0.14,0.593-0.213,0.919-0.213h37.142C182.715,32.294,185.052,35.014,185.052,38.371z M132.042,47.647h6.401
						c1.272,0,1.729-1.223,1.729-2.497V38.75L132.042,47.647z M180.917,79.24L180.917,79.24V38.371c0-1.07-0.487-1.353-1.557-1.353
						h-34.417c-0.051,0.59-0.048,0.815-0.048,1.552v6.581c0,3.559-2.891,6.63-6.453,6.63h-6.581c-0.795,0-1.729-0.242-2.32-0.277
						v54.021c0,1.069,0.881,2.356,1.95,2.356h20.869h6.131h20.87c1.069,0,1.556-1.287,1.556-2.356V79.24z"/>
				</g>
			</g>
		</g>
		<g id="document-2">
			<g>
				<path fill="#383839" d="M140.492,118c-2.315,0-4.492-2.251-4.492-4.475v-56.05c0-0.006,0.023-0.148,0.071-0.213l15.301-14.963
					l36.986-0.005c2.139,0,3.642,1.715,3.642,4.077v67.154c0,2.159-1.359,4.475-3.638,4.475H140.492z"/>
			</g>
			<g>
				<g>
					<path fill="#A6A8AB" d="M186.115,63.025c0,1.149-0.927,2.069-2.073,2.069h-16.876c-1.148,0-2.071-0.92-2.071-2.069
						c0-1.144,0.923-2.063,2.071-2.063h16.876C185.188,60.962,186.115,61.882,186.115,63.025z M158.176,89.308h-12.489
						c-1.148,0-2.079,0.922-2.079,2.066c0,1.147,0.931,2.066,2.079,2.066h12.489c1.148,0,2.077-0.919,2.077-2.066
						C160.253,90.23,159.324,89.308,158.176,89.308z M184.042,68.049h-38.354c-1.148,0-2.078,0.922-2.078,2.067
						c0,1.147,0.93,2.065,2.078,2.065h38.354c1.146,0,2.073-0.918,2.073-2.065C186.115,68.971,185.188,68.049,184.042,68.049z
						 M184.042,75.135h-38.354c-1.148,0-2.078,0.921-2.078,2.063c0,1.148,0.93,2.071,2.078,2.071h38.354
						c1.146,0,2.073-0.923,2.073-2.071C186.115,76.056,185.188,75.135,184.042,75.135z M184.042,82.222h-38.354
						c-1.148,0-2.079,0.92-2.079,2.068c0,1.144,0.931,2.066,2.079,2.066h38.354c1.146,0,2.073-0.922,2.073-2.066
						C186.115,83.142,185.188,82.222,184.042,82.222z M194.052,46.371v38.288v2.005v26.861c0,3.356-2.33,6.489-5.69,6.489h-20.821
						h-6.227h-20.822c-3.36,0-6.674-3.133-6.674-6.489V57.092c0-0.41,0.415-0.798,0.636-1.135l15.846-15.45
						c0.282-0.14,0.593-0.213,0.919-0.213h37.142C191.715,40.294,194.052,43.014,194.052,46.371z M141.042,55.647h6.401
						c1.272,0,1.729-1.223,1.729-2.497V46.75L141.042,55.647z M189.917,87.24L189.917,87.24V46.371c0-1.07-0.487-1.353-1.557-1.353
						h-34.417c-0.051,0.59-0.048,0.815-0.048,1.552v6.581c0,3.559-2.891,6.63-6.453,6.63h-6.581c-0.795,0-1.729-0.242-2.32-0.277
						v54.021c0,1.069,0.881,2.356,1.95,2.356h20.869h6.131h20.87c1.069,0,1.556-1.287,1.556-2.356V87.24z"/>
				</g>
			</g>
		</g>
		<g id="document-1">
			<g>
				<path fill="#383839" d="M149.492,126c-2.315,0-4.492-2.251-4.492-4.475v-56.05c0-0.006,0.023-0.148,0.071-0.213l15.301-14.963
					l36.986-0.005c2.139,0,3.642,1.715,3.642,4.077v67.154c0,2.159-1.359,4.475-3.638,4.475H149.492z"/>
			</g>
			<g>
				<g>
					<path fill="#F48466" d="M195.115,71.025c0,1.149-0.927,2.069-2.073,2.069h-16.876c-1.148,0-2.071-0.92-2.071-2.069
						c0-1.144,0.923-2.063,2.071-2.063h16.876C194.188,68.962,195.115,69.882,195.115,71.025z M167.176,97.308h-12.489
						c-1.148,0-2.079,0.922-2.079,2.066c0,1.147,0.931,2.066,2.079,2.066h12.489c1.148,0,2.077-0.919,2.077-2.066
						C169.253,98.23,168.324,97.308,167.176,97.308z M193.042,76.049h-38.354c-1.148,0-2.078,0.922-2.078,2.067
						c0,1.147,0.93,2.065,2.078,2.065h38.354c1.146,0,2.073-0.918,2.073-2.065C195.115,76.971,194.188,76.049,193.042,76.049z
						 M193.042,83.135h-38.354c-1.148,0-2.078,0.921-2.078,2.063c0,1.148,0.93,2.071,2.078,2.071h38.354
						c1.146,0,2.073-0.923,2.073-2.071C195.115,84.056,194.188,83.135,193.042,83.135z M193.042,90.222h-38.354
						c-1.148,0-2.079,0.92-2.079,2.068c0,1.144,0.931,2.066,2.079,2.066h38.354c1.146,0,2.073-0.922,2.073-2.066
						C195.115,91.142,194.188,90.222,193.042,90.222z M203.052,54.371v38.288v2.005v26.861c0,3.356-2.33,6.489-5.69,6.489h-20.821
						h-6.227h-20.822c-3.36,0-6.674-3.133-6.674-6.489V65.092c0-0.41,0.415-0.798,0.636-1.135l15.846-15.45
						c0.282-0.14,0.593-0.213,0.919-0.213h37.142C200.715,48.294,203.052,51.014,203.052,54.371z M150.042,63.647h6.401
						c1.272,0,1.729-1.223,1.729-2.497V54.75L150.042,63.647z M198.917,95.24L198.917,95.24V54.371c0-1.07-0.487-1.353-1.557-1.353
						h-34.417c-0.051,0.59-0.048,0.815-0.048,1.552v6.581c0,3.559-2.891,6.63-6.453,6.63h-6.581c-0.795,0-1.729-0.242-2.32-0.277
						v54.021c0,1.069,0.881,2.356,1.95,2.356h20.869h6.131h20.87c1.069,0,1.556-1.287,1.556-2.356V95.24z"/>
				</g>
			</g>
		</g>
		<g id="magnify">
			<g>
				<path fill="#F48466" d="M231.335,159.206c-1.124,0-2.185-0.5-2.91-1.371l-13.948-16.813c-0.328-0.396-0.531-0.806-0.607-1.227
					c-3.465,2.132-7.401,3.25-11.509,3.25c-6.61,0-12.822-2.915-17.042-7.997c-3.292-3.968-5.105-8.985-5.105-14.127
					c0.009-6.616,2.928-12.825,8.008-17.035c3.962-3.29,8.977-5.103,14.12-5.103c6.606,0,12.816,2.917,17.038,8.004
					c3.292,3.964,5.104,8.981,5.104,14.126c-0.006,4.689-1.512,9.25-4.274,13.026c0.466,0.049,1.074,0.27,1.646,0.953l13.951,16.816
					c1.319,1.586,1.122,3.941-0.44,5.249l-1.692,1.407C233.021,158.908,232.19,159.206,231.335,159.206L231.335,159.206z
					 M202.342,105.341c-3.616,0-7.146,1.274-9.939,3.589c-3.571,2.963-5.622,7.333-5.628,11.989c0,3.62,1.274,7.151,3.587,9.941
					c2.97,3.581,7.342,5.634,11.995,5.634c3.619,0,7.148-1.276,9.937-3.595c3.581-2.966,5.633-7.334,5.633-11.985
					c0.005-3.618-1.27-7.149-3.59-9.945C211.367,107.392,206.995,105.341,202.342,105.341z"/>
			</g>
			<g>
				<path fill="#383839" d="M202.342,100.283c5.926,0,11.801,2.543,15.884,7.462c3.197,3.85,4.759,8.524,4.759,13.168
					c-0.006,4.839-1.729,9.633-5.032,13.458l1.212,1.47c0.291-0.242,0.555-0.413,0.826-0.413c0.228,0,0.46,0.122,0.716,0.427
					l13.947,16.811c0.795,0.956,0.682,2.362-0.248,3.141l-1.689,1.404c-0.401,0.333-0.89,0.495-1.381,0.495
					c-0.649,0-1.302-0.284-1.757-0.83l-13.946-16.811c-0.55-0.664-0.263-1.07,0.276-1.515l-1.046-1.256
					c-3.713,2.844-8.117,4.251-12.5,4.251c-5.923,0-11.807-2.54-15.889-7.455c-3.197-3.854-4.759-8.528-4.759-13.169
					c0.008-5.927,2.548-11.805,7.465-15.88C193.027,101.845,197.698,100.283,202.342,100.283 M202.356,137.994
					c3.84,0,7.708-1.291,10.896-3.941c4.068-3.371,6.174-8.236,6.174-13.139c0.005-3.847-1.289-7.713-3.936-10.903
					c-3.377-4.068-8.244-6.17-13.149-6.17c-3.84,0-7.708,1.292-10.896,3.934c-4.068,3.375-6.165,8.236-6.171,13.142
					c0,3.844,1.291,7.715,3.933,10.9C192.584,135.89,197.45,137.994,202.356,137.994 M202.342,97.283
					c-5.492,0-10.848,1.936-15.08,5.449c-5.422,4.494-8.539,11.123-8.548,18.185c0,5.495,1.936,10.852,5.45,15.088
					c4.508,5.427,11.14,8.54,18.198,8.54c3.838,0,7.536-0.913,10.879-2.666c0.026,0.033,0.053,0.066,0.081,0.099l13.948,16.813
					c1.014,1.218,2.495,1.915,4.066,1.915c1.204,0,2.375-0.421,3.297-1.186l1.69-1.405c2.203-1.843,2.485-5.145,0.637-7.366
					l-13.944-16.808c-0.194-0.232-0.393-0.43-0.593-0.599c2.31-3.717,3.557-8.018,3.562-12.424c0-5.499-1.936-10.856-5.451-15.089
					C216.027,100.398,209.396,97.283,202.342,97.283L202.342,97.283z M202.356,134.994c-4.205,0-8.156-1.856-10.84-5.092
					c-2.09-2.521-3.242-5.712-3.242-8.985c0.005-4.205,1.859-8.155,5.086-10.833c2.523-2.09,5.713-3.243,8.981-3.243
					c4.206,0,8.157,1.854,10.841,5.086c2.096,2.526,3.248,5.717,3.244,8.983c0,4.207-1.854,8.154-5.088,10.833
					C208.814,133.841,205.625,134.994,202.356,134.994L202.356,134.994z"/>
			</g>
		</g>
	</g>
</g>
<g id="Layer_2">
	<g>
		<path fill="#F48466" d="M126.81,317.505v13.221c0,2.188-0.711,3.896-2.133,5.127s-3.254,1.846-5.496,1.846
			c-2.16,0-3.929-0.617-5.305-1.853c-1.376-1.235-2.064-2.941-2.064-5.12v-13.221h2.693v13.221c0,1.522,0.435,2.714,1.306,3.575
			c0.87,0.861,1.994,1.292,3.37,1.292c1.458,0,2.646-0.431,3.562-1.292s1.374-2.053,1.374-3.575v-13.221H126.81z"/>
		<path fill="#F48466" d="M133.249,335.306h8.545v2.105h-11.758v-1.887l7.998-10.773h-7.902v-2.133h11.197v1.832L133.249,335.306z"
			/>
		<path fill="#F48466" d="M157.421,330.576c0,2.133-0.513,3.854-1.538,5.161c-1.025,1.308-2.436,1.962-4.231,1.962
			c-0.984,0-1.839-0.194-2.563-0.581s-1.324-0.959-1.798-1.716l-0.438,2.01h-2.064v-21.328h2.693v8.285
			c0.465-0.656,1.041-1.157,1.729-1.504c0.688-0.346,1.492-0.52,2.413-0.52c1.823,0,3.245,0.729,4.266,2.188
			c1.021,1.458,1.531,3.377,1.531,5.756V330.576z M154.728,330.289c0-1.695-0.313-3.078-0.937-4.149
			c-0.625-1.071-1.575-1.606-2.851-1.606c-0.83,0-1.529,0.203-2.099,0.608c-0.57,0.406-1.023,0.95-1.36,1.634v6.412
			c0.346,0.729,0.8,1.299,1.36,1.709s1.269,0.615,2.126,0.615c1.267,0,2.21-0.451,2.83-1.354c0.62-0.902,0.93-2.096,0.93-3.582
			V330.289z"/>
		<path fill="#F48466" d="M166.827,337.699c-2.124,0-3.78-0.679-4.97-2.037c-1.189-1.358-1.784-3.145-1.784-5.359v-0.602
			c0-2.124,0.613-3.88,1.839-5.271c1.226-1.39,2.723-2.085,4.491-2.085c1.978,0,3.461,0.615,4.45,1.846
			c0.989,1.23,1.483,2.867,1.483,4.908v1.422h-9.461l-0.041,0.068c0,1.486,0.328,2.691,0.984,3.616
			c0.656,0.925,1.659,1.388,3.008,1.388c0.911,0,1.711-0.13,2.399-0.39c0.688-0.26,1.278-0.617,1.771-1.073l1.053,1.75
			c-0.529,0.511-1.226,0.941-2.092,1.292C169.092,337.523,168.048,337.699,166.827,337.699z M166.403,324.464
			c-0.939,0-1.716,0.362-2.331,1.087s-0.991,1.652-1.128,2.782l0.027,0.068h6.672v-0.219c0-1.075-0.265-1.964-0.793-2.666
			C168.322,324.815,167.506,324.464,166.403,324.464z"/>
		<path fill="#F48466" d="M179.446,330.589h-1.381v6.822h-2.693v-21.328h2.693v12.359h1.354l4.443-5.824h3.227l-5.373,6.822
			l5.838,7.971h-3.186L179.446,330.589z"/>
		<path fill="#F48466" d="M192.626,318.832h-2.693v-2.748h2.693V318.832z M192.626,337.412h-2.693v-14.793h2.693V337.412z"/>
		<path fill="#F48466" d="M205.368,333.433c0-0.592-0.226-1.075-0.677-1.449c-0.451-0.374-1.306-0.702-2.563-0.984
			c-1.741-0.374-3.079-0.897-4.013-1.572c-0.935-0.674-1.401-1.577-1.401-2.707c0-1.203,0.513-2.233,1.538-3.09
			c1.025-0.856,2.354-1.285,3.985-1.285c1.677,0,3.035,0.456,4.074,1.367c1.039,0.912,1.536,1.974,1.49,3.186l-0.027,0.082h-2.57
			c0-0.638-0.28-1.217-0.841-1.736s-1.27-0.779-2.126-0.779c-0.948,0-1.657,0.214-2.126,0.643c-0.47,0.429-0.704,0.939-0.704,1.531
			c0,0.583,0.203,1.035,0.608,1.354c0.405,0.319,1.242,0.611,2.509,0.875c1.813,0.383,3.19,0.925,4.129,1.627
			c0.938,0.702,1.408,1.618,1.408,2.748c0,1.313-0.531,2.384-1.593,3.213c-1.062,0.83-2.45,1.244-4.163,1.244
			c-1.887,0-3.373-0.479-4.457-1.436c-1.085-0.957-1.6-2.073-1.545-3.35l0.027-0.082h2.57c0.045,0.957,0.401,1.657,1.066,2.099
			c0.665,0.442,1.444,0.663,2.338,0.663c0.957,0,1.707-0.203,2.249-0.608C205.097,334.58,205.368,334.062,205.368,333.433z"/>
		<path fill="#F48466" d="M215.157,319.05v3.568h2.803v1.996h-2.803v8.982c0,0.693,0.144,1.181,0.431,1.463
			c0.287,0.283,0.667,0.424,1.142,0.424c0.155,0,0.328-0.021,0.52-0.062s0.351-0.084,0.479-0.13l0.369,1.846
			c-0.201,0.164-0.497,0.298-0.889,0.403c-0.392,0.104-0.779,0.157-1.162,0.157c-1.094,0-1.964-0.33-2.611-0.991
			c-0.647-0.661-0.971-1.697-0.971-3.11v-8.982h-2.352v-1.996h2.352v-3.568H215.157z"/>
		<path fill="#F48466" d="M229.937,337.412c-0.091-0.446-0.162-0.841-0.212-1.183c-0.05-0.342-0.08-0.686-0.089-1.032
			c-0.501,0.711-1.155,1.306-1.962,1.784s-1.675,0.718-2.604,0.718c-1.541,0-2.714-0.394-3.521-1.183
			c-0.807-0.788-1.21-1.875-1.21-3.261c0-1.413,0.572-2.518,1.716-3.315c1.144-0.797,2.695-1.196,4.655-1.196h2.926v-1.463
			c0-0.866-0.265-1.552-0.793-2.058c-0.529-0.506-1.276-0.759-2.242-0.759c-0.875,0-1.582,0.219-2.119,0.656
			c-0.538,0.438-0.807,0.962-0.807,1.572l-2.557,0.027l-0.027-0.082c-0.064-1.075,0.439-2.06,1.511-2.953
			c1.071-0.893,2.454-1.34,4.149-1.34c1.677,0,3.026,0.426,4.047,1.278c1.021,0.853,1.531,2.081,1.531,3.685v7.123
			c0,0.529,0.027,1.039,0.082,1.531s0.155,0.976,0.301,1.449H229.937z M225.466,335.443c0.975,0,1.854-0.25,2.639-0.752
			c0.784-0.501,1.294-1.075,1.531-1.723v-2.406h-3.021c-1.085,0-1.953,0.273-2.604,0.82c-0.652,0.547-0.978,1.189-0.978,1.928
			c0,0.656,0.205,1.176,0.615,1.559S224.664,335.443,225.466,335.443z"/>
		<path fill="#F48466" d="M238.646,322.619l0.191,2.201c0.492-0.784,1.109-1.392,1.853-1.825c0.743-0.433,1.588-0.649,2.536-0.649
			c1.595,0,2.83,0.467,3.705,1.401c0.875,0.935,1.313,2.377,1.313,4.327v9.338h-2.693v-9.283c0-1.303-0.258-2.229-0.772-2.775
			c-0.515-0.547-1.301-0.82-2.358-0.82c-0.83,0-1.534,0.167-2.112,0.499c-0.579,0.333-1.037,0.8-1.374,1.401v10.979h-2.693v-14.793
			H238.646z"/>
	</g>
	<g>
		<path fill="#A7A9AC" d="M153.72,277.488c0,1.478-0.458,2.703-1.374,3.677c-0.916,0.975-2.104,1.461-3.565,1.461
			c-1.411,0-2.558-0.486-3.441-1.461c-0.882-0.974-1.324-2.199-1.324-3.677v-2.149c0-1.473,0.441-2.698,1.324-3.678
			c0.883-0.979,2.03-1.469,3.441-1.469c1.461,0,2.649,0.488,3.565,1.465c0.916,0.977,1.374,2.203,1.374,3.682V277.488z
			 M152.084,275.321c0-1.106-0.299-2.014-0.896-2.723c-0.598-0.708-1.4-1.063-2.407-1.063c-0.952,0-1.711,0.354-2.279,1.063
			c-0.567,0.709-0.851,1.616-0.851,2.723v2.167c0,1.118,0.284,2.031,0.851,2.739c0.567,0.708,1.327,1.063,2.279,1.063
			c1.013,0,1.816-0.353,2.412-1.059c0.595-0.705,0.892-1.62,0.892-2.743V275.321z"/>
		<path fill="#A7A9AC" d="M162.656,278.302c0,1.295-0.31,2.34-0.93,3.134s-1.475,1.19-2.565,1.19c-0.553,0-1.039-0.092-1.457-0.277
			c-0.417-0.186-0.773-0.464-1.066-0.834v4.391h-1.635v-12.435h1.253l0.257,1.162c0.293-0.432,0.659-0.761,1.096-0.987
			c0.437-0.228,0.946-0.341,1.527-0.341c1.112,0,1.977,0.441,2.594,1.324c0.617,0.883,0.925,2.049,0.925,3.499V278.302z
			 M161.021,278.128c0-1.019-0.201-1.855-0.602-2.512c-0.401-0.655-0.992-0.983-1.772-0.983c-0.47,0-0.872,0.106-1.204,0.319
			s-0.601,0.505-0.805,0.876v4.341c0.205,0.371,0.473,0.66,0.805,0.868c0.332,0.207,0.739,0.312,1.22,0.312
			c0.775,0,1.361-0.284,1.76-0.852s0.598-1.299,0.598-2.195V278.128z"/>
		<path fill="#A7A9AC" d="M167.534,282.626c-1.29,0-2.295-0.412-3.017-1.236c-0.723-0.824-1.083-1.909-1.083-3.254v-0.365
			c0-1.289,0.372-2.356,1.117-3.2c0.744-0.844,1.653-1.266,2.727-1.266c1.201,0,2.102,0.374,2.702,1.12
			c0.6,0.748,0.9,1.741,0.9,2.98v0.863h-5.744l-0.025,0.041c0,0.902,0.199,1.635,0.598,2.196s1.007,0.843,1.826,0.843
			c0.553,0,1.039-0.079,1.457-0.237c0.418-0.157,0.776-0.375,1.075-0.651l0.639,1.063c-0.321,0.31-0.744,0.571-1.27,0.784
			S168.275,282.626,167.534,282.626z M167.276,274.591c-0.57,0-1.042,0.221-1.415,0.66c-0.374,0.44-0.602,1.003-0.685,1.689
			l0.017,0.041h4.051v-0.133c0-0.652-0.161-1.192-0.481-1.618S167.946,274.591,167.276,274.591z"/>
		<path fill="#A7A9AC" d="M173.325,273.471l0.116,1.337c0.299-0.477,0.674-0.846,1.125-1.108c0.451-0.263,0.964-0.395,1.54-0.395
			c0.968,0,1.718,0.283,2.25,0.851s0.797,1.443,0.797,2.627v5.67h-1.635v-5.637c0-0.791-0.156-1.353-0.469-1.685
			c-0.313-0.332-0.79-0.498-1.432-0.498c-0.503,0-0.931,0.101-1.283,0.303c-0.351,0.202-0.629,0.485-0.834,0.851v6.666h-1.635
			v-8.981H173.325z"/>
		<path fill="#A7A9AC" d="M183.677,278.128c0-1.445,0.309-2.609,0.926-3.495c0.617-0.886,1.481-1.328,2.594-1.328
			c0.526,0,0.992,0.097,1.398,0.29c0.407,0.194,0.754,0.477,1.042,0.848v-4.939h1.635v12.949h-1.253l-0.249-1.137
			c-0.293,0.432-0.656,0.758-1.087,0.979c-0.432,0.222-0.933,0.332-1.502,0.332c-1.096,0-1.954-0.396-2.573-1.19
			s-0.93-1.839-0.93-3.134V278.128z M185.313,278.302c0,0.907,0.186,1.634,0.556,2.179s0.946,0.817,1.727,0.817
			c0.487,0,0.896-0.11,1.229-0.332c0.332-0.221,0.603-0.531,0.813-0.93v-4.191c-0.21-0.371-0.483-0.665-0.817-0.884
			c-0.335-0.219-0.738-0.328-1.208-0.328c-0.786,0-1.365,0.323-1.739,0.972c-0.373,0.646-0.56,1.488-0.56,2.523V278.302z"/>
		<path fill="#A7A9AC" d="M198.383,282.452c-0.055-0.271-0.098-0.511-0.129-0.718c-0.03-0.208-0.048-0.417-0.054-0.627
			c-0.304,0.432-0.701,0.793-1.191,1.083c-0.489,0.291-1.017,0.436-1.581,0.436c-0.935,0-1.647-0.239-2.138-0.718
			c-0.489-0.479-0.734-1.139-0.734-1.979c0-0.857,0.347-1.528,1.042-2.013c0.694-0.484,1.636-0.727,2.826-0.727h1.776v-0.888
			c0-0.526-0.161-0.942-0.481-1.25c-0.321-0.307-0.775-0.461-1.361-0.461c-0.531,0-0.96,0.133-1.287,0.398s-0.49,0.584-0.49,0.955
			l-1.552,0.017l-0.017-0.05c-0.039-0.653,0.267-1.251,0.917-1.793c0.65-0.542,1.49-0.813,2.519-0.813
			c1.018,0,1.837,0.259,2.457,0.776s0.93,1.263,0.93,2.236v4.325c0,0.321,0.017,0.631,0.05,0.93s0.094,0.592,0.183,0.88H198.383z
			 M195.668,281.257c0.592,0,1.126-0.152,1.602-0.457c0.476-0.304,0.786-0.652,0.93-1.045v-1.461h-1.834
			c-0.659,0-1.186,0.166-1.582,0.498c-0.396,0.332-0.593,0.722-0.593,1.17c0,0.398,0.125,0.714,0.374,0.946
			S195.182,281.257,195.668,281.257z"/>
		<path fill="#A7A9AC" d="M203.634,271.304v2.167h1.702v1.212h-1.702v5.453c0,0.421,0.087,0.717,0.261,0.889
			c0.175,0.172,0.406,0.258,0.693,0.258c0.094,0,0.199-0.013,0.315-0.038c0.116-0.024,0.213-0.051,0.291-0.079l0.224,1.121
			c-0.122,0.1-0.302,0.182-0.54,0.245s-0.473,0.095-0.706,0.095c-0.664,0-1.192-0.2-1.585-0.602s-0.589-1.03-0.589-1.889v-5.453
			h-1.428v-1.212h1.428v-2.167H203.634z"/>
		<path fill="#A7A9AC" d="M211.757,282.452c-0.055-0.271-0.098-0.511-0.129-0.718c-0.03-0.208-0.048-0.417-0.054-0.627
			c-0.304,0.432-0.701,0.793-1.191,1.083c-0.489,0.291-1.017,0.436-1.581,0.436c-0.935,0-1.647-0.239-2.138-0.718
			c-0.489-0.479-0.734-1.139-0.734-1.979c0-0.857,0.347-1.528,1.042-2.013c0.694-0.484,1.636-0.727,2.826-0.727h1.776v-0.888
			c0-0.526-0.161-0.942-0.481-1.25c-0.321-0.307-0.775-0.461-1.361-0.461c-0.531,0-0.96,0.133-1.287,0.398s-0.49,0.584-0.49,0.955
			l-1.552,0.017l-0.017-0.05c-0.039-0.653,0.267-1.251,0.917-1.793c0.65-0.542,1.49-0.813,2.519-0.813
			c1.018,0,1.837,0.259,2.457,0.776s0.93,1.263,0.93,2.236v4.325c0,0.321,0.017,0.631,0.05,0.93s0.094,0.592,0.183,0.88H211.757z
			 M209.043,281.257c0.592,0,1.126-0.152,1.602-0.457c0.476-0.304,0.786-0.652,0.93-1.045v-1.461h-1.834
			c-0.659,0-1.186,0.166-1.582,0.498c-0.396,0.332-0.593,0.722-0.593,1.17c0,0.398,0.125,0.714,0.374,0.946
			S208.556,281.257,209.043,281.257z"/>
		<path fill="#A7A9AC" d="M83.776,302.853c-0.055-0.271-0.098-0.511-0.129-0.718c-0.03-0.208-0.048-0.417-0.054-0.627
			c-0.304,0.432-0.701,0.793-1.191,1.083c-0.489,0.291-1.017,0.436-1.581,0.436c-0.935,0-1.647-0.239-2.138-0.718
			c-0.489-0.479-0.734-1.139-0.734-1.979c0-0.857,0.347-1.528,1.042-2.013c0.694-0.484,1.636-0.727,2.826-0.727h1.776v-0.888
			c0-0.526-0.161-0.942-0.481-1.25c-0.321-0.307-0.775-0.461-1.361-0.461c-0.531,0-0.96,0.133-1.287,0.398s-0.49,0.584-0.49,0.955
			l-1.552,0.017l-0.017-0.05c-0.039-0.653,0.267-1.251,0.917-1.793c0.65-0.542,1.49-0.813,2.519-0.813
			c1.018,0,1.837,0.259,2.457,0.776s0.93,1.263,0.93,2.236v4.325c0,0.321,0.017,0.631,0.05,0.93s0.094,0.592,0.183,0.88H83.776z
			 M81.062,301.657c0.592,0,1.126-0.152,1.602-0.457c0.476-0.304,0.786-0.652,0.93-1.045v-1.461h-1.834
			c-0.659,0-1.186,0.166-1.582,0.498c-0.396,0.332-0.593,0.722-0.593,1.17c0,0.398,0.125,0.714,0.374,0.946
			S80.575,301.657,81.062,301.657z"/>
		<path fill="#A7A9AC" d="M88.214,293.871l0.116,1.337c0.299-0.477,0.674-0.846,1.125-1.108c0.451-0.263,0.964-0.395,1.54-0.395
			c0.968,0,1.718,0.283,2.25,0.851s0.797,1.443,0.797,2.627v5.67h-1.635v-5.637c0-0.791-0.156-1.353-0.469-1.685
			c-0.313-0.332-0.79-0.498-1.432-0.498c-0.503,0-0.931,0.101-1.283,0.303c-0.351,0.202-0.629,0.485-0.834,0.851v6.666h-1.635
			v-8.981H88.214z"/>
		<path fill="#A7A9AC" d="M95.191,298.528c0-1.445,0.309-2.609,0.926-3.495c0.617-0.886,1.481-1.328,2.594-1.328
			c0.526,0,0.992,0.097,1.398,0.29c0.407,0.194,0.754,0.477,1.042,0.848v-4.939h1.635v12.949h-1.253l-0.249-1.137
			c-0.293,0.432-0.656,0.758-1.087,0.979c-0.432,0.222-0.933,0.332-1.502,0.332c-1.096,0-1.954-0.396-2.573-1.19
			s-0.93-1.839-0.93-3.134V298.528z M96.827,298.702c0,0.907,0.186,1.634,0.556,2.179s0.946,0.817,1.727,0.817
			c0.487,0,0.896-0.11,1.229-0.332c0.332-0.221,0.603-0.531,0.813-0.93v-4.191c-0.21-0.371-0.483-0.665-0.817-0.884
			c-0.335-0.219-0.738-0.328-1.208-0.328c-0.786,0-1.365,0.323-1.739,0.972c-0.373,0.646-0.56,1.488-0.56,2.523V298.702z"/>
		<path fill="#A7A9AC" d="M107.462,298.528c0-1.445,0.309-2.609,0.926-3.495c0.617-0.886,1.479-1.328,2.585-1.328
			c0.57,0,1.071,0.115,1.502,0.345s0.794,0.561,1.087,0.992l0.199-1.171h1.303v9.031c0,1.151-0.335,2.035-1.004,2.652
			s-1.635,0.925-2.897,0.925c-0.432,0-0.898-0.059-1.398-0.178c-0.501-0.119-0.942-0.281-1.324-0.486l0.249-1.27
			c0.315,0.166,0.696,0.3,1.142,0.402c0.445,0.103,0.884,0.154,1.315,0.154c0.797,0,1.376-0.182,1.739-0.544
			c0.362-0.362,0.543-0.915,0.543-1.656v-1.021c-0.293,0.376-0.645,0.661-1.054,0.854s-0.883,0.29-1.419,0.29
			c-1.096,0-1.952-0.396-2.569-1.19c-0.617-0.794-0.926-1.839-0.926-3.134V298.528z M109.097,298.702
			c0,0.902,0.186,1.627,0.556,2.175s0.943,0.821,1.718,0.821c0.493,0,0.905-0.111,1.237-0.336c0.332-0.224,0.606-0.541,0.822-0.95
			v-4.134c-0.21-0.382-0.484-0.685-0.822-0.909c-0.337-0.224-0.744-0.336-1.22-0.336c-0.78,0-1.357,0.323-1.731,0.972
			c-0.373,0.646-0.56,1.488-0.56,2.523V298.702z"/>
		<path fill="#A7A9AC" d="M116.183,298.278c0-1.328,0.36-2.422,1.079-3.282s1.696-1.291,2.93-1.291c1.245,0,2.229,0.429,2.951,1.286
			c0.722,0.858,1.083,1.954,1.083,3.287v0.184c0,1.339-0.36,2.435-1.079,3.287c-0.719,0.852-1.699,1.277-2.938,1.277
			s-2.221-0.427-2.942-1.282c-0.723-0.854-1.083-1.949-1.083-3.282V298.278z M117.818,298.462c0,0.951,0.201,1.737,0.602,2.357
			c0.401,0.619,0.998,0.93,1.789,0.93c0.78,0,1.373-0.311,1.776-0.93c0.404-0.62,0.606-1.406,0.606-2.357v-0.184
			c0-0.94-0.204-1.724-0.61-2.349c-0.407-0.625-1.003-0.938-1.789-0.938c-0.78,0-1.371,0.313-1.772,0.938
			c-0.401,0.625-0.602,1.408-0.602,2.349V298.462z"/>
		<path fill="#A7A9AC" d="M128.249,300.204l0.141,0.631h0.05l0.158-0.631l2.067-6.333h1.668l-3.304,8.981h-1.237l-3.345-8.981h1.677
			L128.249,300.204z"/>
		<path fill="#A7A9AC" d="M136.563,303.026c-1.29,0-2.295-0.412-3.017-1.236c-0.723-0.824-1.083-1.909-1.083-3.254v-0.365
			c0-1.289,0.372-2.356,1.117-3.2c0.744-0.844,1.653-1.266,2.727-1.266c1.201,0,2.102,0.374,2.702,1.12
			c0.6,0.748,0.9,1.741,0.9,2.98v0.863h-5.744l-0.025,0.041c0,0.902,0.199,1.635,0.598,2.196s1.007,0.843,1.826,0.843
			c0.553,0,1.039-0.079,1.457-0.237c0.418-0.157,0.776-0.375,1.075-0.651l0.639,1.063c-0.321,0.31-0.744,0.571-1.27,0.784
			S137.304,303.026,136.563,303.026z M136.305,294.991c-0.57,0-1.042,0.221-1.415,0.66c-0.374,0.44-0.602,1.003-0.685,1.689
			l0.017,0.041h4.051v-0.133c0-0.652-0.161-1.192-0.481-1.618S136.975,294.991,136.305,294.991z"/>
		<path fill="#A7A9AC" d="M145.143,295.315l-0.838-0.05c-0.432,0-0.795,0.103-1.092,0.308c-0.296,0.204-0.524,0.492-0.685,0.863
			v6.416h-1.635v-8.981h1.461l0.158,1.312c0.254-0.465,0.568-0.827,0.942-1.088c0.373-0.26,0.804-0.39,1.291-0.39
			c0.122,0,0.238,0.01,0.349,0.029s0.202,0.04,0.274,0.062L145.143,295.315z"/>
		<path fill="#A7A9AC" d="M147.455,293.871l0.116,1.337c0.299-0.477,0.674-0.846,1.125-1.108c0.451-0.263,0.964-0.395,1.54-0.395
			c0.968,0,1.718,0.283,2.25,0.851s0.797,1.443,0.797,2.627v5.67h-1.635v-5.637c0-0.791-0.156-1.353-0.469-1.685
			c-0.313-0.332-0.79-0.498-1.432-0.498c-0.503,0-0.931,0.101-1.283,0.303c-0.351,0.202-0.629,0.485-0.834,0.851v6.666h-1.635
			v-8.981H147.455z"/>
		<path fill="#A7A9AC" d="M156.267,293.871l0.116,1.179c0.293-0.426,0.666-0.757,1.117-0.992c0.451-0.235,0.975-0.353,1.573-0.353
			s1.111,0.139,1.54,0.415c0.429,0.276,0.751,0.691,0.967,1.245c0.288-0.515,0.663-0.92,1.125-1.216
			c0.462-0.296,1.003-0.444,1.623-0.444c0.913,0,1.635,0.314,2.167,0.942s0.797,1.572,0.797,2.834v5.371h-1.635v-5.387
			c0-0.886-0.152-1.513-0.457-1.881s-0.758-0.552-1.361-0.552c-0.559,0-1.011,0.193-1.357,0.581
			c-0.346,0.388-0.549,0.877-0.61,1.469v0.066v5.703h-1.644v-5.387c0-0.842-0.156-1.457-0.469-1.848
			c-0.313-0.39-0.763-0.585-1.349-0.585c-0.498,0-0.908,0.103-1.229,0.308c-0.321,0.204-0.567,0.492-0.739,0.863v6.648h-1.635
			v-8.981H156.267z"/>
		<path fill="#A7A9AC" d="M172.533,303.026c-1.29,0-2.295-0.412-3.017-1.236c-0.723-0.824-1.083-1.909-1.083-3.254v-0.365
			c0-1.289,0.372-2.356,1.117-3.2c0.744-0.844,1.653-1.266,2.727-1.266c1.201,0,2.102,0.374,2.702,1.12
			c0.6,0.748,0.9,1.741,0.9,2.98v0.863h-5.744l-0.025,0.041c0,0.902,0.199,1.635,0.598,2.196s1.007,0.843,1.826,0.843
			c0.553,0,1.039-0.079,1.457-0.237c0.418-0.157,0.776-0.375,1.075-0.651l0.639,1.063c-0.321,0.31-0.744,0.571-1.27,0.784
			S173.275,303.026,172.533,303.026z M172.276,294.991c-0.57,0-1.042,0.221-1.415,0.66c-0.374,0.44-0.602,1.003-0.685,1.689
			l0.017,0.041h4.051v-0.133c0-0.652-0.161-1.192-0.481-1.618S172.945,294.991,172.276,294.991z"/>
		<path fill="#A7A9AC" d="M178.324,293.871l0.116,1.337c0.299-0.477,0.674-0.846,1.125-1.108c0.451-0.263,0.964-0.395,1.54-0.395
			c0.968,0,1.718,0.283,2.25,0.851s0.797,1.443,0.797,2.627v5.67h-1.635v-5.637c0-0.791-0.156-1.353-0.469-1.685
			c-0.313-0.332-0.79-0.498-1.432-0.498c-0.503,0-0.931,0.101-1.283,0.303c-0.351,0.202-0.629,0.485-0.834,0.851v6.666h-1.635
			v-8.981H178.324z"/>
		<path fill="#A7A9AC" d="M187.95,291.704v2.167h1.702v1.212h-1.702v5.453c0,0.421,0.087,0.717,0.261,0.889
			c0.175,0.172,0.406,0.258,0.693,0.258c0.094,0,0.199-0.013,0.315-0.038c0.116-0.024,0.213-0.051,0.291-0.079l0.224,1.121
			c-0.122,0.1-0.302,0.182-0.54,0.245s-0.473,0.095-0.706,0.095c-0.664,0-1.192-0.2-1.585-0.602s-0.589-1.03-0.589-1.889v-5.453
			h-1.428v-1.212h1.428v-2.167H187.95z"/>
		<path fill="#A7A9AC" d="M196.202,291.704v2.167h1.702v1.212h-1.702v5.453c0,0.421,0.087,0.717,0.261,0.889
			c0.175,0.172,0.406,0.258,0.693,0.258c0.094,0,0.199-0.013,0.315-0.038c0.116-0.024,0.213-0.051,0.291-0.079l0.224,1.121
			c-0.122,0.1-0.302,0.182-0.54,0.245s-0.473,0.095-0.706,0.095c-0.664,0-1.192-0.2-1.585-0.602s-0.589-1.03-0.589-1.889v-5.453
			h-1.428v-1.212h1.428v-2.167H196.202z"/>
		<path fill="#A7A9AC" d="M203.055,295.315l-0.838-0.05c-0.432,0-0.795,0.103-1.092,0.308c-0.296,0.204-0.524,0.492-0.685,0.863
			v6.416h-1.635v-8.981h1.461l0.158,1.312c0.254-0.465,0.568-0.827,0.942-1.088c0.373-0.26,0.804-0.39,1.291-0.39
			c0.122,0,0.238,0.01,0.349,0.029s0.202,0.04,0.274,0.062L203.055,295.315z"/>
		<path fill="#A7A9AC" d="M209.427,302.853c-0.055-0.271-0.098-0.511-0.129-0.718c-0.03-0.208-0.048-0.417-0.054-0.627
			c-0.304,0.432-0.701,0.793-1.191,1.083c-0.489,0.291-1.017,0.436-1.581,0.436c-0.935,0-1.647-0.239-2.138-0.718
			c-0.489-0.479-0.734-1.139-0.734-1.979c0-0.857,0.347-1.528,1.042-2.013c0.694-0.484,1.636-0.727,2.826-0.727h1.776v-0.888
			c0-0.526-0.161-0.942-0.481-1.25c-0.321-0.307-0.775-0.461-1.361-0.461c-0.531,0-0.96,0.133-1.287,0.398s-0.49,0.584-0.49,0.955
			l-1.552,0.017l-0.017-0.05c-0.039-0.653,0.267-1.251,0.917-1.793c0.65-0.542,1.49-0.813,2.519-0.813
			c1.018,0,1.837,0.259,2.457,0.776s0.93,1.263,0.93,2.236v4.325c0,0.321,0.017,0.631,0.05,0.93s0.094,0.592,0.183,0.88H209.427z
			 M206.712,301.657c0.592,0,1.126-0.152,1.602-0.457c0.476-0.304,0.786-0.652,0.93-1.045v-1.461h-1.834
			c-0.659,0-1.186,0.166-1.582,0.498c-0.396,0.332-0.593,0.722-0.593,1.17c0,0.398,0.125,0.714,0.374,0.946
			S206.226,301.657,206.712,301.657z"/>
		<path fill="#A7A9AC" d="M213.865,293.871l0.116,1.337c0.299-0.477,0.674-0.846,1.125-1.108c0.451-0.263,0.964-0.395,1.54-0.395
			c0.968,0,1.718,0.283,2.25,0.851s0.797,1.443,0.797,2.627v5.67h-1.635v-5.637c0-0.791-0.156-1.353-0.469-1.685
			c-0.313-0.332-0.79-0.498-1.432-0.498c-0.503,0-0.931,0.101-1.283,0.303c-0.351,0.202-0.629,0.485-0.834,0.851v6.666h-1.635
			v-8.981H213.865z"/>
		<path fill="#A7A9AC" d="M226.437,300.437c0-0.359-0.137-0.652-0.411-0.879c-0.273-0.228-0.792-0.427-1.556-0.598
			c-1.057-0.228-1.869-0.546-2.436-0.955c-0.567-0.409-0.851-0.957-0.851-1.644c0-0.73,0.311-1.355,0.934-1.876
			c0.622-0.521,1.429-0.78,2.419-0.78c1.018,0,1.843,0.276,2.474,0.83s0.933,1.198,0.905,1.935l-0.017,0.049h-1.561
			c0-0.387-0.17-0.738-0.511-1.054c-0.34-0.315-0.771-0.474-1.291-0.474c-0.576,0-1.006,0.131-1.291,0.391
			c-0.285,0.26-0.428,0.57-0.428,0.93c0,0.354,0.123,0.628,0.369,0.822c0.247,0.193,0.754,0.37,1.523,0.531
			c1.101,0.232,1.937,0.562,2.507,0.987s0.855,0.982,0.855,1.669c0,0.797-0.322,1.446-0.967,1.95
			c-0.645,0.504-1.487,0.755-2.527,0.755c-1.146,0-2.047-0.29-2.706-0.871s-0.971-1.259-0.938-2.033l0.017-0.051h1.561
			c0.028,0.582,0.244,1.006,0.647,1.274s0.877,0.403,1.419,0.403c0.581,0,1.036-0.124,1.365-0.37
			C226.272,301.133,226.437,300.819,226.437,300.437z"/>
		<path fill="#A7A9AC" d="M236.909,298.702c0,1.295-0.31,2.34-0.93,3.134s-1.475,1.19-2.565,1.19c-0.553,0-1.039-0.092-1.457-0.277
			c-0.417-0.186-0.773-0.464-1.066-0.834v4.391h-1.635v-12.435h1.253l0.257,1.162c0.293-0.432,0.659-0.761,1.096-0.987
			c0.437-0.228,0.946-0.341,1.527-0.341c1.112,0,1.977,0.441,2.594,1.324c0.617,0.883,0.925,2.049,0.925,3.499V298.702z
			 M235.274,298.528c0-1.019-0.201-1.855-0.602-2.512c-0.401-0.655-0.992-0.983-1.772-0.983c-0.47,0-0.872,0.106-1.204,0.319
			s-0.601,0.505-0.805,0.876v4.341c0.205,0.371,0.473,0.66,0.805,0.868c0.332,0.207,0.739,0.312,1.22,0.312
			c0.775,0,1.361-0.284,1.76-0.852s0.598-1.299,0.598-2.195V298.528z"/>
		<path fill="#A7A9AC" d="M243.588,302.853c-0.055-0.271-0.098-0.511-0.129-0.718c-0.03-0.208-0.048-0.417-0.054-0.627
			c-0.304,0.432-0.701,0.793-1.191,1.083c-0.489,0.291-1.017,0.436-1.581,0.436c-0.935,0-1.647-0.239-2.138-0.718
			c-0.489-0.479-0.734-1.139-0.734-1.979c0-0.857,0.347-1.528,1.042-2.013c0.694-0.484,1.636-0.727,2.826-0.727h1.776v-0.888
			c0-0.526-0.161-0.942-0.481-1.25c-0.321-0.307-0.775-0.461-1.361-0.461c-0.531,0-0.96,0.133-1.287,0.398s-0.49,0.584-0.49,0.955
			l-1.552,0.017l-0.017-0.05c-0.039-0.653,0.267-1.251,0.917-1.793c0.65-0.542,1.49-0.813,2.519-0.813
			c1.018,0,1.837,0.259,2.457,0.776s0.93,1.263,0.93,2.236v4.325c0,0.321,0.017,0.631,0.05,0.93s0.094,0.592,0.183,0.88H243.588z
			 M240.874,301.657c0.592,0,1.126-0.152,1.602-0.457c0.476-0.304,0.786-0.652,0.93-1.045v-1.461h-1.834
			c-0.659,0-1.186,0.166-1.582,0.498c-0.396,0.332-0.593,0.722-0.593,1.17c0,0.398,0.125,0.714,0.374,0.946
			S240.387,301.657,240.874,301.657z"/>
		<path fill="#A7A9AC" d="M250.814,295.315l-0.838-0.05c-0.432,0-0.795,0.103-1.092,0.308c-0.296,0.204-0.524,0.492-0.685,0.863
			v6.416h-1.635v-8.981h1.461l0.158,1.312c0.254-0.465,0.568-0.827,0.942-1.088c0.373-0.26,0.804-0.39,1.291-0.39
			c0.122,0,0.238,0.01,0.349,0.029s0.202,0.04,0.274,0.062L250.814,295.315z"/>
		<path fill="#A7A9AC" d="M255.228,303.026c-1.29,0-2.295-0.412-3.017-1.236c-0.723-0.824-1.083-1.909-1.083-3.254v-0.365
			c0-1.289,0.372-2.356,1.117-3.2c0.744-0.844,1.653-1.266,2.727-1.266c1.201,0,2.102,0.374,2.702,1.12
			c0.6,0.748,0.9,1.741,0.9,2.98v0.863h-5.744l-0.025,0.041c0,0.902,0.199,1.635,0.598,2.196s1.007,0.843,1.826,0.843
			c0.553,0,1.039-0.079,1.457-0.237c0.418-0.157,0.776-0.375,1.075-0.651l0.639,1.063c-0.321,0.31-0.744,0.571-1.27,0.784
			S255.969,303.026,255.228,303.026z M254.97,294.991c-0.57,0-1.042,0.221-1.415,0.66c-0.374,0.44-0.602,1.003-0.685,1.689
			l0.017,0.041h4.051v-0.133c0-0.652-0.161-1.192-0.481-1.618S255.64,294.991,254.97,294.991z"/>
		<path fill="#A7A9AC" d="M261.018,293.871l0.116,1.337c0.299-0.477,0.674-0.846,1.125-1.108c0.451-0.263,0.964-0.395,1.54-0.395
			c0.968,0,1.718,0.283,2.25,0.851s0.797,1.443,0.797,2.627v5.67h-1.635v-5.637c0-0.791-0.156-1.353-0.469-1.685
			c-0.313-0.332-0.79-0.498-1.432-0.498c-0.503,0-0.931,0.101-1.283,0.303c-0.351,0.202-0.629,0.485-0.834,0.851v6.666h-1.635
			v-8.981H261.018z"/>
		<path fill="#A7A9AC" d="M271.938,301.749c0.503,0,0.943-0.168,1.32-0.503s0.564-0.745,0.564-1.232h1.478l0.025,0.05
			c0.022,0.774-0.31,1.462-0.996,2.063s-1.483,0.9-2.391,0.9c-1.262,0-2.236-0.429-2.922-1.286s-1.029-1.926-1.029-3.204v-0.349
			c0-1.268,0.344-2.331,1.034-3.191c0.688-0.86,1.661-1.291,2.917-1.291c1.001,0,1.822,0.31,2.461,0.93
			c0.639,0.62,0.947,1.381,0.925,2.282l-0.017,0.051h-1.486c0-0.549-0.179-1.015-0.535-1.399c-0.357-0.385-0.807-0.577-1.349-0.577
			c-0.802,0-1.388,0.312-1.755,0.935c-0.368,0.622-0.552,1.376-0.552,2.262v0.349c0,0.902,0.181,1.663,0.543,2.283
			C270.537,301.438,271.125,301.749,271.938,301.749z"/>
		<path fill="#A7A9AC" d="M279.165,299.524l0.291,1.129h0.05l2.208-6.782h1.818l-3.777,10.359c-0.227,0.604-0.552,1.129-0.975,1.577
			c-0.424,0.448-0.995,0.672-1.714,0.672c-0.133,0-0.302-0.015-0.506-0.045s-0.362-0.06-0.473-0.088l0.166-1.286
			c-0.033-0.006,0.065,0,0.294,0.017c0.23,0.017,0.375,0.025,0.436,0.025c0.349,0,0.634-0.155,0.855-0.465
			c0.221-0.311,0.407-0.653,0.556-1.029l0.39-0.938l-3.337-8.799h1.826L279.165,299.524z"/>
	</g>
	<g>
		<g>
			<g>
				<g>
					<polygon fill="#A6A8AB" points="149.138,222.002 139.174,213.841 139.174,215.696 146.874,222.002 139.174,228.312 
						139.174,230.17 148.871,222.225 148.871,222.22 					"/>
				</g>
			</g>
			<g>
				<rect x="133.472" y="221.102" fill="#A6A8AB" width="13.796" height="1.613"/>
			</g>
		</g>
		<g>
			<g>
				<path fill="#F48466" d="M62.3,184.951l-8.965,25.226h-5.827l9.003-23.834H45.131v-4.541H62.3V184.951z"/>
				<path fill="#F48466" d="M80.385,199.458h2.417v4.541h-2.417v6.178H74.87v-6.178h-9.394l-0.253-3.536l9.627-18.661h5.535V199.458
					z M70.583,199.458h4.288v-9.491l-0.117,0.214L70.583,199.458z"/>
				<path fill="#F48466" d="M101.939,189.333c0,1.375-0.292,2.595-0.877,3.659s-1.391,1.914-2.417,2.55
					c1.169,0.664,2.091,1.577,2.767,2.742s1.014,2.534,1.014,4.107c0,2.523-0.728,4.517-2.183,5.98
					c-1.455,1.464-3.437,2.195-5.944,2.195c-2.507,0-4.501-0.731-5.982-2.195c-1.481-1.463-2.222-3.457-2.222-5.98
					c0-1.574,0.337-2.946,1.013-4.117c0.675-1.171,1.604-2.082,2.787-2.732c-1.04-0.636-1.852-1.486-2.436-2.55
					c-0.585-1.064-0.877-2.283-0.877-3.659c0-2.478,0.695-4.418,2.085-5.819c1.39-1.401,3.254-2.102,5.593-2.102
					c2.365,0,4.236,0.708,5.613,2.122C101.251,184.947,101.939,186.881,101.939,189.333z M94.3,206.026
					c0.832,0,1.472-0.357,1.92-1.073c0.448-0.715,0.672-1.708,0.672-2.981s-0.234-2.269-0.702-2.991s-1.111-1.083-1.93-1.083
					c-0.818,0-1.465,0.361-1.938,1.083c-0.475,0.722-0.712,1.718-0.712,2.991s0.237,2.266,0.712,2.981
					C92.796,205.668,93.455,206.026,94.3,206.026z M96.444,189.616c0-1.11-0.179-1.998-0.536-2.664c-0.358-0.667-0.906-1-1.647-1
					c-0.701,0-1.234,0.323-1.598,0.97c-0.364,0.647-0.546,1.544-0.546,2.694c0,1.123,0.182,2.028,0.546,2.713
					c0.363,0.686,0.909,1.029,1.637,1.029s1.267-0.343,1.618-1.029C96.269,191.644,96.444,190.739,96.444,189.616z"/>
			</g>
			<g>
				<path fill="#A6A8AB" d="M42.817,245.434v-10.125h3.088c1.237,0,2.261,0.413,3.07,1.238s1.213,1.885,1.213,3.178v1.301
					c0,1.293-0.404,2.352-1.213,3.174c-0.809,0.823-1.833,1.234-3.07,1.234H42.817z M43.652,236.019v8.713h2.253
					c1.001,0,1.826-0.35,2.476-1.05c0.648-0.7,0.974-1.585,0.974-2.656v-1.321c0-1.057-0.326-1.936-0.978-2.636
					c-0.651-0.7-1.476-1.05-2.472-1.05H43.652z"/>
				<path fill="#A6A8AB" d="M57.268,242.611h-4.444l-1.022,2.823H50.94l3.72-10.125h0.786l3.692,10.125h-0.862L57.268,242.611z
					 M53.089,241.867h3.908l-1.919-5.369h-0.042L53.089,241.867z"/>
				<path fill="#A6A8AB" d="M66.406,236.019h-3.449v9.416h-0.828v-9.416h-3.567v-0.709h7.845V236.019z"/>
				<path fill="#A6A8AB" d="M72.498,242.611h-4.444l-1.022,2.823H66.17l3.72-10.125h0.786l3.693,10.125h-0.862L72.498,242.611z
					 M68.318,241.867h3.908l-1.919-5.369h-0.042L68.318,241.867z"/>
				<path fill="#A6A8AB" d="M81.357,242.972c0-0.519-0.206-0.948-0.619-1.286s-1.113-0.656-2.1-0.953
					c-1.08-0.297-1.902-0.667-2.465-1.109c-0.563-0.443-0.845-1.044-0.845-1.805c0-0.774,0.315-1.41,0.946-1.909
					c0.63-0.499,1.435-0.748,2.413-0.748c1.029,0,1.856,0.282,2.482,0.845c0.626,0.563,0.93,1.279,0.911,2.146l-0.014,0.042h-0.779
					c0-0.667-0.242-1.221-0.727-1.662s-1.109-0.661-1.874-0.661c-0.788,0-1.406,0.187-1.854,0.56s-0.671,0.831-0.671,1.374
					c0,0.515,0.203,0.938,0.608,1.269c0.405,0.332,1.121,0.641,2.146,0.928c1.066,0.311,1.88,0.693,2.44,1.147
					c0.561,0.455,0.842,1.057,0.842,1.808c0,0.788-0.328,1.422-0.984,1.902c-0.656,0.48-1.482,0.72-2.479,0.72
					c-0.997,0-1.866-0.254-2.608-0.761c-0.741-0.508-1.101-1.249-1.078-2.222l0.014-0.042h0.771c0,0.784,0.295,1.366,0.883,1.749
					c0.589,0.382,1.261,0.574,2.017,0.574c0.774,0,1.404-0.178,1.891-0.532S81.357,243.533,81.357,242.972z"/>
				<path fill="#A6A8AB" d="M89.334,240.532h-4.541v4.2h5.25v0.702h-6.084v-10.125h6.05v0.709h-5.216v3.804h4.541V240.532z"/>
				<path fill="#A6A8AB" d="M98.409,236.019H94.96v9.416h-0.827v-9.416h-3.567v-0.709h7.844V236.019z"/>
				<path fill="#A6A8AB" d="M105.35,242.972c0-0.519-0.206-0.948-0.619-1.286c-0.412-0.338-1.112-0.656-2.1-0.953
					c-1.081-0.297-1.902-0.667-2.466-1.109c-0.563-0.443-0.845-1.044-0.845-1.805c0-0.774,0.315-1.41,0.946-1.909
					s1.435-0.748,2.413-0.748c1.029,0,1.857,0.282,2.483,0.845c0.625,0.563,0.929,1.279,0.911,2.146l-0.014,0.042h-0.778
					c0-0.667-0.242-1.221-0.727-1.662c-0.485-0.44-1.109-0.661-1.875-0.661c-0.788,0-1.406,0.187-1.853,0.56
					s-0.671,0.831-0.671,1.374c0,0.515,0.202,0.938,0.608,1.269c0.405,0.332,1.12,0.641,2.145,0.928
					c1.066,0.311,1.88,0.693,2.441,1.147c0.561,0.455,0.841,1.057,0.841,1.808c0,0.788-0.328,1.422-0.984,1.902
					s-1.482,0.72-2.479,0.72s-1.866-0.254-2.608-0.761c-0.742-0.508-1.101-1.249-1.078-2.222l0.014-0.042h0.772
					c0,0.784,0.294,1.366,0.883,1.749c0.589,0.382,1.261,0.574,2.017,0.574c0.774,0,1.405-0.178,1.891-0.532
					C105.106,243.991,105.35,243.533,105.35,242.972z"/>
			</g>
			<g>
				<rect x="39.896" y="221.785" fill="#F48466" width="68.39" height="3"/>
			</g>
		</g>
		<g>
			<g>
				<path fill="#A6A8AB" d="M210.272,245.434v-10.125h3.088c1.237,0,2.261,0.413,3.07,1.238s1.213,1.885,1.213,3.178v1.301
					c0,1.293-0.404,2.352-1.213,3.174c-0.809,0.823-1.833,1.234-3.07,1.234H210.272z M211.107,236.019v8.713h2.253
					c1.001,0,1.826-0.35,2.476-1.05c0.648-0.7,0.974-1.585,0.974-2.656v-1.321c0-1.057-0.326-1.936-0.978-2.636
					c-0.651-0.7-1.476-1.05-2.472-1.05H211.107z"/>
				<path fill="#A6A8AB" d="M226.997,241.199c0,1.307-0.358,2.364-1.074,3.171s-1.677,1.21-2.883,1.21
					c-1.187,0-2.134-0.403-2.84-1.21c-0.707-0.807-1.061-1.864-1.061-3.171v-1.648c0-1.302,0.352-2.359,1.057-3.171
					c0.705-0.811,1.65-1.217,2.837-1.217c1.206,0,2.167,0.406,2.886,1.217c0.719,0.812,1.078,1.869,1.078,3.171V241.199z
					 M226.17,239.537c0-1.094-0.277-1.975-0.831-2.643c-0.554-0.667-1.323-1.001-2.306-1.001c-0.964,0-1.715,0.334-2.253,1.001
					s-0.807,1.548-0.807,2.643v1.662c0,1.104,0.27,1.989,0.81,2.656s1.292,1.001,2.256,1.001c0.988,0,1.756-0.333,2.306-0.998
					c0.549-0.665,0.824-1.552,0.824-2.66V239.537z"/>
				<path fill="#A6A8AB" d="M230.634,242.527l0.313,1.634h0.042l0.355-1.634l2.114-7.218h0.841l2.121,7.218l0.341,1.641h0.042
					l0.333-1.641l1.787-7.218h0.904l-2.594,10.125h-0.792l-2.288-7.768l-0.25-1.092h-0.042l-0.236,1.092l-2.316,7.768h-0.792
					l-2.594-10.125h0.904L230.634,242.527z"/>
				<path fill="#A6A8AB" d="M248.652,245.434h-0.834l-5.751-8.665l-0.042,0.007v8.658h-0.835v-10.125h0.835l5.751,8.644l0.042-0.007
					v-8.637h0.834V245.434z"/>
				<path fill="#A6A8AB" d="M251.789,244.732h5.229v0.702h-6.064v-10.125h0.835V244.732z"/>
				<path fill="#A6A8AB" d="M265.488,241.199c0,1.307-0.357,2.364-1.074,3.171c-0.716,0.807-1.677,1.21-2.882,1.21
					c-1.187,0-2.134-0.403-2.84-1.21c-0.707-0.807-1.061-1.864-1.061-3.171v-1.648c0-1.302,0.352-2.359,1.057-3.171
					c0.705-0.811,1.65-1.217,2.837-1.217c1.206,0,2.167,0.406,2.886,1.217c0.719,0.812,1.078,1.869,1.078,3.171V241.199z
					 M264.661,239.537c0-1.094-0.277-1.975-0.831-2.643s-1.322-1.001-2.305-1.001c-0.964,0-1.715,0.334-2.253,1.001
					c-0.538,0.667-0.807,1.548-0.807,2.643v1.662c0,1.104,0.271,1.989,0.811,2.656s1.292,1.001,2.256,1.001
					c0.988,0,1.756-0.333,2.305-0.998c0.55-0.665,0.824-1.552,0.824-2.66V239.537z"/>
				<path fill="#A6A8AB" d="M272.512,242.611h-4.444l-1.022,2.823h-0.862l3.72-10.125h0.786l3.692,10.125h-0.862L272.512,242.611z
					 M268.333,241.867h3.908l-1.919-5.369h-0.042L268.333,241.867z"/>
				<path fill="#A6A8AB" d="M275.663,245.434v-10.125h3.087c1.238,0,2.261,0.413,3.07,1.238c0.81,0.825,1.214,1.885,1.214,3.178
					v1.301c0,1.293-0.404,2.352-1.214,3.174c-0.809,0.823-1.832,1.234-3.07,1.234H275.663z M276.497,236.019v8.713h2.253
					c1.001,0,1.827-0.35,2.476-1.05c0.649-0.7,0.974-1.585,0.974-2.656v-1.321c0-1.057-0.326-1.936-0.977-2.636
					c-0.651-0.7-1.476-1.05-2.472-1.05H276.497z"/>
				<path fill="#A6A8AB" d="M290.67,242.972c0-0.519-0.206-0.948-0.619-1.286c-0.412-0.338-1.112-0.656-2.1-0.953
					c-1.081-0.297-1.902-0.667-2.466-1.109c-0.563-0.443-0.845-1.044-0.845-1.805c0-0.774,0.315-1.41,0.946-1.909
					s1.435-0.748,2.413-0.748c1.029,0,1.857,0.282,2.483,0.845c0.625,0.563,0.929,1.279,0.911,2.146l-0.014,0.042h-0.778
					c0-0.667-0.242-1.221-0.727-1.662c-0.485-0.44-1.109-0.661-1.875-0.661c-0.788,0-1.406,0.187-1.853,0.56
					s-0.671,0.831-0.671,1.374c0,0.515,0.202,0.938,0.608,1.269c0.405,0.332,1.12,0.641,2.145,0.928
					c1.066,0.311,1.88,0.693,2.441,1.147c0.561,0.455,0.841,1.057,0.841,1.808c0,0.788-0.328,1.422-0.984,1.902
					s-1.482,0.72-2.479,0.72s-1.866-0.254-2.608-0.761c-0.742-0.508-1.101-1.249-1.078-2.222l0.014-0.042h0.772
					c0,0.784,0.294,1.366,0.883,1.749c0.589,0.382,1.261,0.574,2.017,0.574c0.774,0,1.405-0.178,1.891-0.532
					C290.427,243.991,290.67,243.533,290.67,242.972z"/>
			</g>
			<g>
				<path fill="#F48466" d="M203.579,210.527h-16.721v-3.864l7.678-9.797c0.975-1.356,1.692-2.546,2.154-3.569
					c0.461-1.024,0.692-2.005,0.692-2.944c0-1.265-0.218-2.255-0.653-2.973c-0.436-0.717-1.062-1.076-1.881-1.076
					c-0.896,0-1.608,0.419-2.134,1.258c-0.526,0.838-0.79,2.017-0.79,3.536h-5.534c0-1.741,0.36-3.333,1.081-4.774
					c0.721-1.442,1.734-2.563,3.04-3.362c1.306-0.799,2.784-1.199,4.434-1.199c2.534,0,4.499,0.699,5.895,2.095
					c1.396,1.397,2.095,3.381,2.095,5.954c0,1.598-0.387,3.219-1.16,4.862c-0.773,1.644-2.173,3.672-4.2,6.086l-3.644,5.227h9.646
					V210.527z"/>
				<path fill="#F48466" d="M217.747,199.555c-1.169,1.196-2.449,1.793-3.839,1.793c-2.157,0-3.856-0.867-5.097-2.602
					s-1.861-4.05-1.861-6.948c0-1.871,0.351-3.583,1.053-5.135c0.701-1.552,1.679-2.757,2.933-3.615
					c1.254-0.858,2.654-1.287,4.2-1.287c1.598,0,3.021,0.475,4.268,1.423c1.248,0.949,2.215,2.31,2.904,4.083
					c0.688,1.773,1.033,3.791,1.033,6.051v2.007c0,4.833-1.062,8.611-3.187,11.333c-2.124,2.722-5.135,4.109-9.033,4.161h-0.565
					v-4.755h0.37c2.157-0.013,3.778-0.571,4.863-1.676C216.873,203.284,217.526,201.673,217.747,199.555z M215.311,197.022
					c1.065,0,1.903-0.73,2.514-2.191v-2.543c0-1.864-0.253-3.328-0.76-4.391c-0.506-1.063-1.163-1.594-1.968-1.594
					c-0.793,0-1.433,0.525-1.92,1.575c-0.487,1.05-0.73,2.331-0.73,3.843c0,1.643,0.253,2.938,0.76,3.882
					C213.713,196.549,214.415,197.022,215.311,197.022z"/>
				<path fill="#F48466" d="M241.776,199.809h2.417v4.541h-2.417v6.178h-5.515v-6.178h-9.393l-0.254-3.536l9.627-18.661h5.535
					V199.809z M231.974,199.809h4.288v-9.491l-0.117,0.214L231.974,199.809z"/>
				<path fill="#F48466" d="M249.221,217.68l-2.942-1.54l0.74-1.384c0.832-1.533,1.26-3.079,1.286-4.638v-4.385h4.794l-0.019,3.917
					c-0.014,1.377-0.364,2.806-1.053,4.288C251.339,215.419,250.403,216.666,249.221,217.68z"/>
				<path fill="#F48466" d="M273.718,198.795c0,3.924-0.711,6.925-2.134,9.003c-1.423,2.079-3.453,3.118-6.09,3.118
					c-2.611,0-4.629-1.01-6.052-3.03c-1.422-2.02-2.16-4.914-2.212-8.682v-5.359c0-3.911,0.708-6.902,2.125-8.975
					c1.416-2.072,3.45-3.108,6.1-3.108s4.684,1.027,6.1,3.08s2.137,4.982,2.163,8.789V198.795z M268.184,193.033
					c0-2.243-0.222-3.925-0.663-5.047c-0.441-1.122-1.13-1.683-2.065-1.683c-1.754,0-2.664,2.055-2.729,6.163v7.102
					c0,2.295,0.224,4.004,0.672,5.126c0.448,1.122,1.146,1.683,2.095,1.683c0.896,0,1.562-0.525,1.997-1.575
					c0.436-1.05,0.666-2.657,0.692-4.823V193.033z"/>
				<path fill="#F48466" d="M293.908,198.795c0,3.924-0.712,6.925-2.134,9.003c-1.422,2.079-3.453,3.118-6.09,3.118
					c-2.611,0-4.628-1.01-6.051-3.03c-1.423-2.02-2.16-4.914-2.212-8.682v-5.359c0-3.911,0.708-6.902,2.124-8.975
					c1.416-2.072,3.449-3.108,6.1-3.108c2.651,0,4.684,1.027,6.101,3.08c1.416,2.053,2.137,4.982,2.163,8.789V198.795z
					 M288.373,193.033c0-2.243-0.221-3.925-0.662-5.047c-0.442-1.122-1.131-1.683-2.066-1.683c-1.754,0-2.663,2.055-2.728,6.163
					v7.102c0,2.295,0.224,4.004,0.672,5.126c0.448,1.122,1.146,1.683,2.095,1.683c0.896,0,1.563-0.525,1.998-1.575
					c0.435-1.05,0.666-2.657,0.691-4.823V193.033z"/>
				<path fill="#F48466" d="M314.098,198.795c0,3.924-0.711,6.925-2.134,9.003c-1.422,2.079-3.452,3.118-6.09,3.118
					c-2.611,0-4.628-1.01-6.051-3.03c-1.422-2.02-2.16-4.914-2.212-8.682v-5.359c0-3.911,0.708-6.902,2.125-8.975
					c1.416-2.072,3.449-3.108,6.1-3.108s4.684,1.027,6.1,3.08c1.416,2.053,2.137,4.982,2.163,8.789V198.795z M308.563,193.033
					c0-2.243-0.221-3.925-0.663-5.047c-0.442-1.122-1.13-1.683-2.066-1.683c-1.754,0-2.663,2.055-2.729,6.163v7.102
					c0,2.295,0.225,4.004,0.673,5.126c0.448,1.122,1.146,1.683,2.095,1.683c0.896,0,1.562-0.525,1.998-1.575
					c0.435-1.05,0.666-2.657,0.692-4.823V193.033z"/>
			</g>
			<g>
				<rect x="180.852" y="221.785" fill="#F48466" width="139.252" height="3"/>
			</g>
		</g>
	</g>
</g>
</svg>
