<?xml version="1.0" encoding="utf-8"?>
<!-- Generator: Adobe Illustrator 16.0.0, SVG Export Plug-In . SVG Version: 6.00 Build 0)  -->
<!DOCTYPE svg PUBLIC "-//W3C//DTD SVG 1.1//EN" "http://www.w3.org/Graphics/SVG/1.1/DTD/svg11.dtd">
<svg version="1.1" xmlns="http://www.w3.org/2000/svg" xmlns:xlink="http://www.w3.org/1999/xlink" x="0px" y="0px" width="100%"
     height="100%" viewBox="0 0 360 360" enable-background="new 0 0 360 360" xml:space="preserve" class="c-infographic-svg">
<g id="Layer_1">
	<g>
		<rect fill="#ECEDED" width="360" height="360"/>
	</g>
	<g id="hammer">
		<g>
			<path fill="#808184" d="M161.699,27.009l32.53,20.159c0.904,0.549,2.055,0.224,2.567-0.744l0.941-1.739
				c0.515-0.959,0.222-2.197-0.684-2.757l-32.542-20.157c-0.892-0.557-2.042-0.228-2.568,0.734l-0.929,1.744
				C160.489,25.219,160.807,26.451,161.699,27.009"/>
		</g>
		<g>
			<path fill="#808184" d="M133.523,79.387l32.529,20.164c0.905,0.546,2.056,0.217,2.569-0.739l0.941-1.741
				c0.526-0.962,0.208-2.202-0.687-2.756l-32.528-20.158c-0.905-0.562-2.054-0.225-2.569,0.733l-0.94,1.748
				C132.313,77.597,132.619,78.823,133.523,79.387"/>
		</g>
		<g>
			<path fill="#808184" d="M248.257,104.02l-65.123-36.221l8.759-16.272c0.527-0.959,0.193-2.195-0.683-2.755L161.92,30.63
				c-0.895-0.557-2.054-0.223-2.568,0.742l-20.667,38.406c-0.501,0.957-0.209,2.196,0.696,2.749l29.277,18.15
				c0.905,0.557,2.054,0.224,2.568-0.741l8.756-16.268l61.78,42.413c0.881,0.597,2.019,0.3,2.521-0.665l4.696-8.727
				C249.491,105.728,249.162,104.525,248.257,104.02"/>
		</g>
	</g>
    <g id="base">
        <g>
            <path fill="#808184" d="M183.822,136.92h-65.254c-1.786,0-3.253-1.582-3.253-3.501v-3.501c0-1.926,1.467-3.504,3.253-3.498
				h65.254c1.786,0,3.265,1.571,3.253,3.489l0.012,3.509C187.075,135.346,185.608,136.92,183.822,136.92 M188.225,121.551h-3.925
				c0.501-0.597,0.831-1.36,0.831-2.221v-3.313c0-1.829-1.394-3.328-3.092-3.328h-61.965c-1.712,0-3.095,1.5-3.095,3.328v3.313
				c0,0.86,0.331,1.624,0.819,2.221h-3.926c-1.698,0-3.093,1.498-3.093,3.317v13.308c0,1.825,1.395,3.324,3.093,3.324h74.354
				c1.712,0,3.106-1.499,3.106-3.324v-13.308C191.331,123.049,189.937,121.551,188.225,121.551" />
		</g>
	</g>
</g>
<g id="Layer_2">
	<g>
		<g>
			<g>
				<path fill="#799DC4" d="M147.919,334.732c-0.474,0.738-1.297,1.417-2.468,2.037c-1.171,0.62-2.691,0.93-4.56,0.93
					c-2.297,0-4.197-0.761-5.701-2.283c-1.504-1.522-2.256-3.491-2.256-5.906v-4.102c0-2.415,0.725-4.384,2.174-5.906
					c1.449-1.522,3.317-2.283,5.605-2.283c2.215,0,3.965,0.59,5.25,1.771c1.285,1.181,1.909,2.682,1.873,4.505l-0.027,0.082h-2.584
					c0-1.212-0.392-2.222-1.176-3.028c-0.784-0.807-1.896-1.21-3.336-1.21c-1.522,0-2.748,0.57-3.678,1.709
					c-0.93,1.14-1.395,2.584-1.395,4.334v4.129c0,1.769,0.492,3.225,1.477,4.368c0.984,1.144,2.242,1.716,3.773,1.716
					c1.176,0,2.107-0.152,2.796-0.458c0.688-0.305,1.201-0.667,1.538-1.087v-4.484h-4.512v-2.105h7.205V334.732z"/>
			</g>
			<g>
				<path fill="#799DC4" d="M158.323,337.699c-2.124,0-3.78-0.679-4.97-2.037c-1.189-1.358-1.784-3.145-1.784-5.359v-0.602
					c0-2.124,0.613-3.88,1.839-5.271c1.226-1.39,2.723-2.085,4.491-2.085c1.978,0,3.461,0.615,4.45,1.846
					c0.989,1.23,1.483,2.867,1.483,4.908v1.422h-9.461l-0.041,0.068c0,1.486,0.328,2.691,0.984,3.616
					c0.656,0.925,1.659,1.388,3.008,1.388c0.911,0,1.711-0.13,2.399-0.39c0.688-0.26,1.278-0.617,1.771-1.073l1.053,1.75
					c-0.529,0.511-1.226,0.941-2.092,1.292C160.588,337.523,159.544,337.699,158.323,337.699z M157.899,324.464
					c-0.939,0-1.716,0.362-2.331,1.087s-0.991,1.652-1.128,2.782l0.027,0.068h6.672v-0.219c0-1.075-0.265-1.964-0.793-2.666
					C159.818,324.815,159.002,324.464,157.899,324.464z"/>
			</g>
			<g>
				<path fill="#799DC4" d="M166.226,329.878c0-2.188,0.592-3.99,1.777-5.407c1.185-1.417,2.793-2.126,4.826-2.126
					c2.051,0,3.671,0.707,4.86,2.119c1.189,1.413,1.784,3.218,1.784,5.414v0.301c0,2.206-0.593,4.011-1.777,5.414
					c-1.185,1.404-2.798,2.105-4.84,2.105c-2.042,0-3.657-0.704-4.847-2.112s-1.784-3.21-1.784-5.407V329.878z M168.919,330.179
					c0,1.568,0.33,2.862,0.991,3.883c0.661,1.021,1.643,1.531,2.946,1.531c1.285,0,2.26-0.51,2.926-1.531
					c0.665-1.021,0.998-2.315,0.998-3.883v-0.301c0-1.549-0.335-2.839-1.005-3.869c-0.67-1.03-1.652-1.545-2.946-1.545
					c-1.285,0-2.258,0.515-2.919,1.545c-0.661,1.03-0.991,2.32-0.991,3.869V330.179z"/>
			</g>
			<g>
				<path fill="#799DC4" d="M189.769,324.998l-1.381-0.082c-0.711,0-1.311,0.169-1.798,0.506c-0.488,0.337-0.864,0.812-1.128,1.422
					v10.568h-2.693v-14.793h2.406l0.26,2.16c0.419-0.766,0.937-1.362,1.552-1.791c0.615-0.428,1.324-0.643,2.126-0.643
					c0.2,0,0.392,0.016,0.574,0.048c0.182,0.032,0.333,0.066,0.451,0.103L189.769,324.998z"/>
			</g>
			<g>
				<path fill="#799DC4" d="M191.833,330.289c0-2.379,0.508-4.297,1.524-5.756c1.016-1.458,2.436-2.188,4.259-2.188
					c0.938,0,1.764,0.189,2.475,0.567c0.711,0.378,1.308,0.923,1.791,1.634l0.328-1.928h2.146v14.875
					c0,1.896-0.552,3.352-1.654,4.368c-1.103,1.016-2.693,1.524-4.771,1.524c-0.711,0-1.479-0.098-2.304-0.294
					c-0.825-0.196-1.552-0.463-2.181-0.8l0.41-2.092c0.52,0.273,1.146,0.494,1.88,0.663c0.733,0.168,1.456,0.253,2.167,0.253
					c1.313,0,2.267-0.299,2.864-0.896c0.597-0.597,0.896-1.506,0.896-2.728v-1.682c-0.483,0.62-1.062,1.089-1.736,1.408
					c-0.675,0.319-1.454,0.479-2.338,0.479c-1.805,0-3.215-0.654-4.231-1.962c-1.017-1.308-1.524-3.028-1.524-5.161V330.289z
					 M194.526,330.576c0,1.486,0.305,2.68,0.916,3.582c0.61,0.902,1.554,1.354,2.83,1.354c0.811,0,1.49-0.185,2.037-0.554
					s0.998-0.891,1.354-1.565v-6.809c-0.347-0.629-0.798-1.128-1.354-1.497c-0.556-0.369-1.226-0.554-2.01-0.554
					c-1.285,0-2.235,0.533-2.851,1.6s-0.923,2.452-0.923,4.156V330.576z"/>
			</g>
			<g>
				<path fill="#799DC4" d="M211.138,318.832h-2.693v-2.748h2.693V318.832z M211.138,337.412h-2.693v-14.793h2.693V337.412z"/>
			</g>
			<g>
				<path fill="#799DC4" d="M224.372,337.412c-0.091-0.446-0.162-0.841-0.212-1.183c-0.05-0.342-0.08-0.686-0.089-1.032
					c-0.501,0.711-1.155,1.306-1.962,1.784s-1.675,0.718-2.604,0.718c-1.541,0-2.714-0.394-3.521-1.183
					c-0.807-0.788-1.21-1.875-1.21-3.261c0-1.413,0.572-2.518,1.716-3.315c1.144-0.797,2.695-1.196,4.655-1.196h2.926v-1.463
					c0-0.866-0.265-1.552-0.793-2.058c-0.529-0.506-1.276-0.759-2.242-0.759c-0.875,0-1.582,0.219-2.119,0.656
					c-0.538,0.438-0.807,0.962-0.807,1.572l-2.557,0.027l-0.027-0.082c-0.064-1.075,0.439-2.06,1.511-2.953
					c1.071-0.893,2.454-1.34,4.149-1.34c1.677,0,3.026,0.426,4.047,1.278c1.021,0.853,1.531,2.081,1.531,3.685v7.123
					c0,0.529,0.027,1.039,0.082,1.531s0.155,0.976,0.301,1.449H224.372z M219.901,335.443c0.975,0,1.854-0.25,2.639-0.752
					c0.784-0.501,1.294-1.075,1.531-1.723v-2.406h-3.021c-1.085,0-1.953,0.273-2.604,0.82c-0.652,0.547-0.978,1.189-0.978,1.928
					c0,0.656,0.205,1.176,0.615,1.559S219.099,335.443,219.901,335.443z"/>
			</g>
		</g>
		<g>
			<g>
				<path fill="#A7A9AC" d="M108.962,297.214v5.238h-1.635v-12.078h4.134c1.323,0,2.333,0.294,3.03,0.881
					c0.697,0.586,1.046,1.438,1.046,2.557c0,0.619-0.162,1.159-0.486,1.618c-0.323,0.459-0.795,0.824-1.415,1.096
					c0.664,0.216,1.142,0.565,1.432,1.05c0.291,0.484,0.436,1.084,0.436,1.797v1.138c0,0.376,0.042,0.714,0.125,1.013
					s0.227,0.542,0.432,0.73v0.199h-1.685c-0.216-0.188-0.354-0.465-0.415-0.83s-0.091-0.741-0.091-1.129v-1.104
					c0-0.653-0.191-1.18-0.573-1.578s-0.894-0.598-1.536-0.598H108.962z M108.962,295.928h2.333c0.924,0,1.59-0.176,1.996-0.527
					c0.407-0.352,0.61-0.887,0.61-1.606c0-0.68-0.198-1.207-0.594-1.581c-0.396-0.373-1.011-0.56-1.847-0.56h-2.499V295.928z"/>
			</g>
			<g>
				<path fill="#A7A9AC" d="M120.788,302.626c-1.29,0-2.295-0.412-3.017-1.236c-0.723-0.824-1.083-1.909-1.083-3.254v-0.365
					c0-1.289,0.372-2.356,1.117-3.2c0.744-0.844,1.653-1.266,2.727-1.266c1.201,0,2.102,0.374,2.702,1.12
					c0.6,0.748,0.9,1.741,0.9,2.98v0.863h-5.744l-0.025,0.041c0,0.902,0.199,1.635,0.598,2.196s1.007,0.843,1.826,0.843
					c0.553,0,1.039-0.079,1.457-0.237c0.418-0.157,0.776-0.375,1.075-0.651l0.639,1.063c-0.321,0.31-0.744,0.571-1.27,0.784
					S121.529,302.626,120.788,302.626z M120.53,294.591c-0.57,0-1.042,0.221-1.415,0.66c-0.374,0.44-0.602,1.003-0.685,1.689
					l0.017,0.041h4.051v-0.133c0-0.652-0.161-1.192-0.481-1.618S121.2,294.591,120.53,294.591z"/>
			</g>
			<g>
				<path fill="#A7A9AC" d="M128.687,301.349c0.503,0,0.943-0.168,1.32-0.503s0.564-0.745,0.564-1.232h1.478l0.025,0.05
					c0.022,0.774-0.31,1.462-0.996,2.063s-1.483,0.9-2.391,0.9c-1.262,0-2.236-0.429-2.922-1.286s-1.029-1.926-1.029-3.204v-0.349
					c0-1.268,0.344-2.331,1.034-3.191c0.688-0.86,1.661-1.291,2.917-1.291c1.001,0,1.822,0.31,2.461,0.93
					c0.639,0.62,0.947,1.381,0.925,2.282l-0.017,0.051h-1.486c0-0.549-0.179-1.015-0.535-1.399
					c-0.357-0.385-0.807-0.577-1.349-0.577c-0.802,0-1.388,0.312-1.755,0.935c-0.368,0.622-0.552,1.376-0.552,2.262v0.349
					c0,0.902,0.181,1.663,0.543,2.283C127.285,301.038,127.873,301.349,128.687,301.349z"/>
			</g>
			<g>
				<path fill="#A7A9AC" d="M134.934,291.171h-1.635v-1.668h1.635V291.171z M134.934,302.452h-1.635v-8.981h1.635V302.452z"/>
			</g>
			<g>
				<path fill="#A7A9AC" d="M144.252,298.302c0,1.295-0.31,2.34-0.93,3.134s-1.475,1.19-2.565,1.19
					c-0.553,0-1.039-0.092-1.457-0.277c-0.417-0.186-0.773-0.464-1.066-0.834v4.391h-1.635v-12.435h1.253l0.257,1.162
					c0.293-0.432,0.659-0.761,1.096-0.987c0.437-0.228,0.946-0.341,1.527-0.341c1.112,0,1.977,0.441,2.594,1.324
					c0.617,0.883,0.925,2.049,0.925,3.499V298.302z M142.617,298.128c0-1.019-0.201-1.855-0.602-2.512
					c-0.401-0.655-0.992-0.983-1.772-0.983c-0.47,0-0.872,0.106-1.204,0.319s-0.601,0.505-0.805,0.876v4.341
					c0.205,0.371,0.473,0.66,0.805,0.868c0.332,0.207,0.739,0.312,1.22,0.312c0.775,0,1.361-0.284,1.76-0.852
					s0.598-1.299,0.598-2.195V298.128z"/>
			</g>
			<g>
				<path fill="#A7A9AC" d="M147.179,291.171h-1.635v-1.668h1.635V291.171z M147.179,302.452h-1.635v-8.981h1.635V302.452z"/>
			</g>
			<g>
				<path fill="#A7A9AC" d="M152.563,302.626c-1.29,0-2.295-0.412-3.017-1.236c-0.723-0.824-1.083-1.909-1.083-3.254v-0.365
					c0-1.289,0.372-2.356,1.117-3.2c0.744-0.844,1.653-1.266,2.727-1.266c1.201,0,2.102,0.374,2.702,1.12
					c0.6,0.748,0.9,1.741,0.9,2.98v0.863h-5.744l-0.025,0.041c0,0.902,0.199,1.635,0.598,2.196s1.007,0.843,1.826,0.843
					c0.553,0,1.039-0.079,1.457-0.237c0.418-0.157,0.776-0.375,1.075-0.651l0.639,1.063c-0.321,0.31-0.744,0.571-1.27,0.784
					S153.305,302.626,152.563,302.626z M152.306,294.591c-0.57,0-1.042,0.221-1.415,0.66c-0.374,0.44-0.602,1.003-0.685,1.689
					l0.017,0.041h4.051v-0.133c0-0.652-0.161-1.192-0.481-1.618S152.975,294.591,152.306,294.591z"/>
			</g>
			<g>
				<path fill="#A7A9AC" d="M158.354,293.471l0.116,1.337c0.299-0.477,0.674-0.846,1.125-1.108c0.451-0.263,0.964-0.395,1.54-0.395
					c0.968,0,1.718,0.283,2.25,0.851s0.797,1.443,0.797,2.627v5.67h-1.635v-5.637c0-0.791-0.156-1.353-0.469-1.685
					c-0.313-0.332-0.79-0.498-1.432-0.498c-0.503,0-0.931,0.101-1.283,0.303c-0.351,0.202-0.629,0.485-0.834,0.851v6.666h-1.635
					v-8.981H158.354z"/>
			</g>
			<g>
				<path fill="#A7A9AC" d="M167.979,291.304v2.167h1.702v1.212h-1.702v5.453c0,0.421,0.087,0.717,0.261,0.889
					c0.175,0.172,0.406,0.258,0.693,0.258c0.094,0,0.199-0.013,0.315-0.038c0.116-0.024,0.213-0.051,0.291-0.079l0.224,1.121
					c-0.122,0.1-0.302,0.182-0.54,0.245s-0.473,0.095-0.706,0.095c-0.664,0-1.192-0.2-1.585-0.602s-0.589-1.03-0.589-1.889v-5.453
					h-1.428v-1.212h1.428v-2.167H167.979z"/>
			</g>
			<g>
				<path fill="#A7A9AC" d="M175.804,300.036c0-0.359-0.137-0.652-0.411-0.879c-0.273-0.228-0.792-0.427-1.556-0.598
					c-1.057-0.228-1.869-0.546-2.436-0.955c-0.567-0.409-0.851-0.957-0.851-1.644c0-0.73,0.311-1.355,0.934-1.876
					c0.622-0.521,1.429-0.78,2.419-0.78c1.018,0,1.843,0.276,2.474,0.83s0.933,1.198,0.905,1.935l-0.017,0.049h-1.561
					c0-0.387-0.17-0.738-0.511-1.054c-0.34-0.315-0.771-0.474-1.291-0.474c-0.576,0-1.006,0.131-1.291,0.391
					c-0.285,0.26-0.428,0.57-0.428,0.93c0,0.354,0.123,0.628,0.369,0.822c0.247,0.193,0.754,0.37,1.523,0.531
					c1.101,0.232,1.937,0.562,2.507,0.987s0.855,0.982,0.855,1.669c0,0.797-0.322,1.446-0.967,1.95
					c-0.645,0.504-1.487,0.755-2.527,0.755c-1.146,0-2.047-0.29-2.706-0.871s-0.971-1.259-0.938-2.033l0.017-0.051h1.561
					c0.028,0.582,0.244,1.006,0.647,1.274s0.877,0.403,1.419,0.403c0.581,0,1.036-0.124,1.365-0.37
					C175.639,300.732,175.804,300.419,175.804,300.036z"/>
			</g>
			<g>
				<path fill="#A7A9AC" d="M181.616,297.878c0-1.328,0.36-2.422,1.079-3.282s1.696-1.291,2.93-1.291
					c1.245,0,2.229,0.429,2.951,1.286c0.722,0.858,1.083,1.954,1.083,3.287v0.184c0,1.339-0.36,2.435-1.079,3.287
					c-0.719,0.852-1.699,1.277-2.938,1.277s-2.221-0.427-2.942-1.282c-0.723-0.854-1.083-1.949-1.083-3.282V297.878z
					 M183.251,298.062c0,0.951,0.201,1.737,0.602,2.357c0.401,0.619,0.998,0.93,1.789,0.93c0.78,0,1.373-0.311,1.776-0.93
					c0.404-0.62,0.606-1.406,0.606-2.357v-0.184c0-0.94-0.204-1.724-0.61-2.349c-0.407-0.625-1.003-0.938-1.789-0.938
					c-0.78,0-1.371,0.313-1.772,0.938c-0.401,0.625-0.602,1.408-0.602,2.349V298.062z"/>
			</g>
			<g>
				<path fill="#A7A9AC" d="M191.49,302.452v-7.77h-1.403v-1.212h1.403v-1.138c0-0.957,0.25-1.697,0.751-2.22
					c0.5-0.523,1.199-0.784,2.096-0.784c0.188,0,0.378,0.015,0.568,0.045c0.191,0.03,0.403,0.073,0.635,0.129l-0.199,1.245
					c-0.1-0.022-0.22-0.042-0.361-0.058c-0.142-0.018-0.29-0.025-0.444-0.025c-0.476,0-0.83,0.143-1.063,0.428
					s-0.349,0.698-0.349,1.24v1.138h1.627v1.212h-1.627v7.77H191.49z"/>
			</g>
			<g>
				<path fill="#A7A9AC" d="M200.698,302.452h-1.635v-12.949h1.635V302.452z"/>
			</g>
			<g>
				<path fill="#A7A9AC" d="M206.082,302.626c-1.29,0-2.295-0.412-3.017-1.236c-0.723-0.824-1.083-1.909-1.083-3.254v-0.365
					c0-1.289,0.372-2.356,1.117-3.2c0.744-0.844,1.653-1.266,2.727-1.266c1.201,0,2.102,0.374,2.702,1.12
					c0.6,0.748,0.9,1.741,0.9,2.98v0.863h-5.744l-0.025,0.041c0,0.902,0.199,1.635,0.598,2.196s1.007,0.843,1.826,0.843
					c0.553,0,1.039-0.079,1.457-0.237c0.418-0.157,0.776-0.375,1.075-0.651l0.639,1.063c-0.321,0.31-0.744,0.571-1.27,0.784
					S206.823,302.626,206.082,302.626z M205.824,294.591c-0.57,0-1.042,0.221-1.415,0.66c-0.374,0.44-0.602,1.003-0.685,1.689
					l0.017,0.041h4.051v-0.133c0-0.652-0.161-1.192-0.481-1.618S206.494,294.591,205.824,294.591z"/>
			</g>
			<g>
				<path fill="#A7A9AC" d="M210.121,298.128c0-1.445,0.309-2.609,0.926-3.495c0.617-0.886,1.479-1.328,2.585-1.328
					c0.57,0,1.071,0.115,1.502,0.345s0.794,0.561,1.087,0.992l0.199-1.171h1.303v9.031c0,1.151-0.335,2.035-1.004,2.652
					s-1.635,0.925-2.897,0.925c-0.432,0-0.898-0.059-1.398-0.178c-0.501-0.119-0.942-0.281-1.324-0.486l0.249-1.27
					c0.315,0.166,0.696,0.3,1.142,0.402c0.445,0.103,0.884,0.154,1.315,0.154c0.797,0,1.376-0.182,1.739-0.544
					c0.362-0.362,0.543-0.915,0.543-1.656v-1.021c-0.293,0.376-0.645,0.661-1.054,0.854s-0.883,0.29-1.419,0.29
					c-1.096,0-1.952-0.396-2.569-1.19c-0.617-0.794-0.926-1.839-0.926-3.134V298.128z M211.756,298.302
					c0,0.902,0.186,1.627,0.556,2.175s0.943,0.821,1.718,0.821c0.493,0,0.905-0.111,1.237-0.336c0.332-0.224,0.606-0.541,0.822-0.95
					v-4.134c-0.21-0.382-0.484-0.685-0.822-0.909c-0.337-0.224-0.744-0.336-1.22-0.336c-0.78,0-1.357,0.323-1.731,0.972
					c-0.373,0.646-0.56,1.488-0.56,2.523V298.302z"/>
			</g>
			<g>
				<path fill="#A7A9AC" d="M224.743,302.452c-0.055-0.271-0.098-0.511-0.129-0.718c-0.03-0.208-0.048-0.417-0.054-0.627
					c-0.304,0.432-0.701,0.793-1.191,1.083c-0.489,0.291-1.017,0.436-1.581,0.436c-0.935,0-1.647-0.239-2.138-0.718
					c-0.489-0.479-0.734-1.139-0.734-1.979c0-0.857,0.347-1.528,1.042-2.013c0.694-0.484,1.636-0.727,2.826-0.727h1.776v-0.888
					c0-0.526-0.161-0.942-0.481-1.25c-0.321-0.307-0.775-0.461-1.361-0.461c-0.531,0-0.96,0.133-1.287,0.398s-0.49,0.584-0.49,0.955
					l-1.552,0.017l-0.017-0.05c-0.039-0.653,0.267-1.251,0.917-1.793c0.65-0.542,1.49-0.813,2.519-0.813
					c1.018,0,1.837,0.259,2.457,0.776s0.93,1.263,0.93,2.236v4.325c0,0.321,0.017,0.631,0.05,0.93s0.094,0.592,0.183,0.88H224.743z
					 M222.029,301.257c0.592,0,1.126-0.152,1.602-0.457c0.476-0.304,0.786-0.652,0.93-1.045v-1.461h-1.834
					c-0.659,0-1.186,0.166-1.582,0.498c-0.396,0.332-0.593,0.722-0.593,1.17c0,0.398,0.125,0.714,0.374,0.946
					S221.542,301.257,222.029,301.257z"/>
			</g>
			<g>
				<path fill="#A7A9AC" d="M229.488,302.452h-1.635v-12.949h1.635V302.452z"/>
			</g>
			<g>
				<path fill="#A7A9AC" d="M240.048,302.452c-0.055-0.271-0.098-0.511-0.129-0.718c-0.03-0.208-0.048-0.417-0.054-0.627
					c-0.304,0.432-0.701,0.793-1.191,1.083c-0.489,0.291-1.017,0.436-1.581,0.436c-0.935,0-1.647-0.239-2.138-0.718
					c-0.489-0.479-0.734-1.139-0.734-1.979c0-0.857,0.347-1.528,1.042-2.013c0.694-0.484,1.636-0.727,2.826-0.727h1.776v-0.888
					c0-0.526-0.161-0.942-0.481-1.25c-0.321-0.307-0.775-0.461-1.361-0.461c-0.531,0-0.96,0.133-1.287,0.398s-0.49,0.584-0.49,0.955
					l-1.552,0.017l-0.017-0.05c-0.039-0.653,0.267-1.251,0.917-1.793c0.65-0.542,1.49-0.813,2.519-0.813
					c1.018,0,1.837,0.259,2.457,0.776s0.93,1.263,0.93,2.236v4.325c0,0.321,0.017,0.631,0.05,0.93s0.094,0.592,0.183,0.88H240.048z
					 M237.334,301.257c0.592,0,1.126-0.152,1.602-0.457c0.476-0.304,0.786-0.652,0.93-1.045v-1.461h-1.834
					c-0.659,0-1.186,0.166-1.582,0.498c-0.396,0.332-0.593,0.722-0.593,1.17c0,0.398,0.125,0.714,0.374,0.946
					S236.847,301.257,237.334,301.257z"/>
			</g>
			<g>
				<path fill="#A7A9AC" d="M244.793,291.171h-1.635v-1.668h1.635V291.171z M244.793,302.452h-1.635v-8.981h1.635V302.452z"/>
			</g>
			<g>
				<path fill="#A7A9AC" d="M246.084,298.128c0-1.445,0.309-2.609,0.926-3.495c0.617-0.886,1.481-1.328,2.594-1.328
					c0.526,0,0.992,0.097,1.398,0.29c0.407,0.194,0.754,0.477,1.042,0.848v-4.939h1.635v12.949h-1.253l-0.249-1.137
					c-0.293,0.432-0.656,0.758-1.087,0.979c-0.432,0.222-0.933,0.332-1.502,0.332c-1.096,0-1.954-0.396-2.573-1.19
					s-0.93-1.839-0.93-3.134V298.128z M247.72,298.302c0,0.907,0.186,1.634,0.556,2.179s0.946,0.817,1.727,0.817
					c0.487,0,0.896-0.11,1.229-0.332c0.332-0.221,0.603-0.531,0.813-0.93v-4.191c-0.21-0.371-0.483-0.665-0.817-0.884
					c-0.335-0.219-0.738-0.328-1.208-0.328c-0.786,0-1.365,0.323-1.739,0.972c-0.373,0.646-0.56,1.488-0.56,2.523V298.302z"/>
			</g>
		</g>
	</g>
	<g>
		<g>
			<g>
				<path fill="#0074A8" d="M155.794,246.537h-1.577v-11.595h1.577V246.537z"/>
			</g>
			<g>
				<path fill="#0074A8" d="M167.11,246.537h-1.568l-5.583-8.855l-0.048,0.016v8.839h-1.569v-11.595h1.569l5.583,8.847l0.048-0.016
					v-8.832h1.568V246.537z"/>
			</g>
			<g>
				<path fill="#0074A8" d="M180.267,246.537h-7.199v-1.075l3.639-4.34c0.647-0.786,1.087-1.411,1.318-1.875
					s0.346-0.933,0.346-1.406c0-0.536-0.156-0.976-0.47-1.318c-0.313-0.342-0.746-0.514-1.298-0.514
					c-0.685,0-1.206,0.21-1.564,0.629s-0.538,0.942-0.538,1.569h-1.513l-0.016-0.048c-0.027-0.945,0.29-1.746,0.948-2.401
					c0.658-0.655,1.553-0.983,2.684-0.983c1.035,0,1.85,0.287,2.445,0.86c0.594,0.573,0.892,1.314,0.892,2.222
					c0,0.61-0.169,1.208-0.506,1.792s-0.851,1.316-1.541,2.198l-2.923,3.424l0.017,0.04h5.279V246.537z"/>
			</g>
			<g>
				<path fill="#0074A8" d="M189.011,242.443c0,1.312-0.333,2.349-1,3.114s-1.562,1.146-2.688,1.146
					c-1.121,0-2.016-0.382-2.688-1.146c-0.671-0.765-1.007-1.802-1.007-3.114v-3.408c0-1.301,0.333-2.336,0.999-3.106
					c0.666-0.77,1.56-1.155,2.68-1.155c1.125,0,2.024,0.385,2.696,1.155c0.671,0.77,1.007,1.805,1.007,3.106V242.443z
					 M187.442,238.708c0-0.833-0.186-1.492-0.557-1.975c-0.372-0.483-0.897-0.725-1.577-0.725c-0.674,0-1.194,0.242-1.561,0.725
					c-0.366,0.483-0.55,1.142-0.55,1.975v4.053c0,0.834,0.188,1.495,0.562,1.983c0.374,0.489,0.896,0.733,1.565,0.733
					c0.679,0,1.203-0.243,1.569-0.729c0.366-0.486,0.549-1.148,0.549-1.987V238.708z"/>
			</g>
			<g>
				<path fill="#0074A8" d="M195.238,246.537h-1.577v-10.146l-2.524,0.024v-1.21l4.101-0.43V246.537z"/>
			</g>
			<g>
				<path fill="#0074A8" d="M199.833,241.384l0.669-6.442h5.805v1.394h-4.483l-0.374,3.336c0.25-0.186,0.525-0.338,0.828-0.458
					c0.303-0.12,0.647-0.182,1.035-0.188c1.072-0.01,1.913,0.326,2.521,1.008s0.912,1.618,0.912,2.807
					c0,1.163-0.313,2.097-0.936,2.803c-0.624,0.707-1.533,1.059-2.728,1.059c-0.982,0-1.799-0.268-2.453-0.804
					c-0.653-0.536-0.966-1.324-0.939-2.365l0.016-0.047h1.417c0,0.632,0.182,1.122,0.545,1.469c0.364,0.348,0.835,0.521,1.414,0.521
					c0.664,0,1.179-0.233,1.545-0.701c0.367-0.467,0.549-1.107,0.549-1.919c0-0.738-0.185-1.335-0.553-1.792
					c-0.369-0.457-0.883-0.685-1.541-0.685c-0.616,0-1.062,0.093-1.337,0.279c-0.276,0.186-0.481,0.473-0.613,0.86L199.833,241.384z
					"/>
			</g>
		</g>
		<g>
			<g>
				<path fill="#0074A8" d="M113.455,184.833h3.655c1.387,0,2.405-0.487,3.055-1.461c0.648-0.974,0.974-2.274,0.974-3.902
					c0-1.555-0.333-2.767-1-3.634c-0.667-0.867-1.561-1.3-2.681-1.3c-1.05,0-1.907,0.415-2.574,1.243s-1,1.872-1,3.132h-7.549
					c0-2.027,0.467-3.846,1.4-5.456c0.934-1.609,2.241-2.868,3.922-3.775c1.68-0.907,3.543-1.36,5.588-1.36
					c3.575,0,6.375,0.987,8.403,2.961c2.027,1.974,3.041,4.677,3.041,8.11c0,1.76-0.458,3.393-1.374,4.895
					c-0.917,1.503-2.121,2.654-3.615,3.455c1.832,0.783,3.197,1.957,4.095,3.521c0.898,1.565,1.347,3.415,1.347,5.549
					c0,3.451-1.099,6.216-3.295,8.296c-2.196,2.081-5.082,3.122-8.656,3.122c-3.326,0-6.025-1.027-8.097-3.082
					c-2.072-2.054-3.107-4.752-3.107-8.096h7.549c0,1.402,0.364,2.58,1.094,3.533c0.729,0.953,1.654,1.429,2.774,1.429
					c1.298,0,2.325-0.482,3.081-1.447c0.756-0.965,1.134-2.252,1.134-3.86c0-3.842-1.485-5.772-4.455-5.79h-3.708V184.833z"/>
			</g>
			<g>
				<path fill="#0074A8" d="M156.938,191.635c0,5.371-0.974,9.479-2.921,12.325c-1.947,2.846-4.727,4.269-8.336,4.269
					c-3.575,0-6.335-1.383-8.283-4.148c-1.947-2.765-2.957-6.727-3.028-11.885v-7.336c0-5.353,0.969-9.448,2.908-12.285
					c1.938-2.836,4.722-4.255,8.35-4.255s6.411,1.405,8.35,4.215c1.938,2.811,2.926,6.821,2.961,12.032V191.635z M149.361,183.748
					c0-3.071-0.302-5.374-0.907-6.91c-0.605-1.536-1.547-2.303-2.828-2.303c-2.401,0-3.646,2.813-3.735,8.436v9.722
					c0,3.142,0.307,5.481,0.92,7.017s1.569,2.303,2.868,2.303c1.227,0,2.138-0.719,2.734-2.156c0.596-1.438,0.912-3.638,0.947-6.602
					V183.748z"/>
			</g>
			<g>
				<path fill="#0074A8" d="M164.461,217.485l-4.028-2.107l1.014-1.894c1.138-2.099,1.725-4.215,1.761-6.349v-6.002h6.563
					l-0.027,5.362c-0.018,1.885-0.498,3.842-1.44,5.869C167.359,214.391,166.079,216.098,164.461,217.485z"/>
			</g>
			<g>
				<path fill="#0074A8" d="M197.994,191.635c0,5.371-0.974,9.479-2.921,12.325c-1.947,2.846-4.727,4.269-8.336,4.269
					c-3.575,0-6.335-1.383-8.283-4.148c-1.947-2.765-2.957-6.727-3.028-11.885v-7.336c0-5.353,0.969-9.448,2.908-12.285
					c1.938-2.836,4.722-4.255,8.35-4.255s6.411,1.405,8.35,4.215c1.938,2.811,2.926,6.821,2.961,12.032V191.635z M190.417,183.748
					c0-3.071-0.302-5.374-0.907-6.91c-0.605-1.536-1.547-2.303-2.828-2.303c-2.401,0-3.646,2.813-3.735,8.436v9.722
					c0,3.142,0.307,5.481,0.92,7.017s1.569,2.303,2.868,2.303c1.227,0,2.138-0.719,2.734-2.156c0.596-1.438,0.912-3.638,0.947-6.602
					V183.748z"/>
			</g>
			<g>
				<path fill="#0074A8" d="M225.631,191.635c0,5.371-0.974,9.479-2.921,12.325c-1.948,2.846-4.727,4.269-8.337,4.269
					c-3.575,0-6.336-1.383-8.283-4.148c-1.947-2.765-2.957-6.727-3.028-11.885v-7.336c0-5.353,0.969-9.448,2.908-12.285
					c1.938-2.836,4.722-4.255,8.35-4.255c3.628,0,6.411,1.405,8.35,4.215c1.938,2.811,2.925,6.821,2.961,12.032V191.635z
					 M218.055,183.748c0-3.071-0.303-5.374-0.907-6.91s-1.547-2.303-2.828-2.303c-2.401,0-3.646,2.813-3.735,8.436v9.722
					c0,3.142,0.307,5.481,0.92,7.017s1.569,2.303,2.868,2.303c1.228,0,2.139-0.719,2.734-2.156c0.596-1.438,0.911-3.638,0.947-6.602
					V183.748z"/>
			</g>
			<g>
				<path fill="#0074A8" d="M253.268,191.635c0,5.371-0.974,9.479-2.921,12.325c-1.947,2.846-4.727,4.269-8.336,4.269
					c-3.575,0-6.335-1.383-8.283-4.148c-1.947-2.765-2.957-6.727-3.028-11.885v-7.336c0-5.353,0.969-9.448,2.908-12.285
					c1.938-2.836,4.722-4.255,8.35-4.255s6.411,1.405,8.35,4.215c1.938,2.811,2.926,6.821,2.961,12.032V191.635z M245.691,183.748
					c0-3.071-0.302-5.374-0.907-6.91c-0.605-1.536-1.547-2.303-2.828-2.303c-2.401,0-3.646,2.813-3.735,8.436v9.722
					c0,3.142,0.307,5.481,0.92,7.017s1.569,2.303,2.868,2.303c1.227,0,2.138-0.719,2.734-2.156c0.596-1.438,0.912-3.638,0.947-6.602
					V183.748z"/>
			</g>
		</g>
		<g opacity="0.6">
			<g>
				<rect x="104.835" y="220.232" fill="#66ABCB" width="150.33" height="3"/>
			</g>
		</g>
	</g>
</g>
</svg>
