<?xml version="1.0" encoding="utf-8"?>
<!-- Generator: Adobe Illustrator 16.0.0, SVG Export Plug-In . SVG Version: 6.00 Build 0)  -->
<!DOCTYPE svg PUBLIC "-//W3C//DTD SVG 1.1//EN" "http://www.w3.org/Graphics/SVG/1.1/DTD/svg11.dtd">
<svg version="1.1" id="Layer_1" xmlns="http://www.w3.org/2000/svg" xmlns:xlink="http://www.w3.org/1999/xlink" x="0px" y="0px"
	 width="190px" height="190px" viewBox="0 0 190 190" enable-background="new 0 0 190 190" xml:space="preserve">
<path id="roof" fill-rule="evenodd" clip-rule="evenodd" fill="#C0C2C2" d="M98.086,5L9,47.638V61h65.046l0.002,5.984l-0.015-0.004
	l13.982,13.609L82.134,149h32.322L108.8,80.591L123,66.979V61h61.643l-0.097-14.576L98.086,5z M114.218,63.635L98.104,79.371
	L82,63.633V40.992l32,0.002v22.639L114.218,63.635z"/>
<polygon id="baseTwo" fill-rule="evenodd" clip-rule="evenodd" fill="#C0C2C2" points="5.353,185 184.644,185 184.647,176.993 5.354,176.993 "/>
<polygon id="baseOne" fill-rule="evenodd" clip-rule="evenodd" fill="#C0C2C2" points="13.797,172.995 182.773,172.995 182.771,156.997
	13.793,156.997 "/>
<polygon id="columnRight" fill-rule="evenodd" clip-rule="evenodd" fill="#C0C2C2" points="145.578,68.999 138.702,149 171.018,148.998
	164.141,69.003 "/>
<polygon id="columnLeft" fill-rule="evenodd" clip-rule="evenodd" fill="#C0C2C2" points="32.439,68.999 25.553,149 57.873,148.998 51.002,68.999
	"/>
</svg>
