<?xml version="1.0" encoding="utf-8"?>
<!-- Generator: Adobe Illustrator 16.0.0, SVG Export Plug-In . SVG Version: 6.00 Build 0)  -->
<!DOCTYPE svg PUBLIC "-//W3C//DTD SVG 1.1//EN" "http://www.w3.org/Graphics/SVG/1.1/DTD/svg11.dtd">
<svg version="1.1" id="Layer_1" xmlns="http://www.w3.org/2000/svg" xmlns:xlink="http://www.w3.org/1999/xlink" x="0px" y="0px"
	 width="200px" height="190px" viewBox="0 0 200 190" enable-background="new 0 0 200 190" xml:space="preserve">
<g id="bullet1">
	<g>
		<path fill="#EBD1BC" d="M29.467,40.739l-3.76-8.281l-3.761,8.281c-0.243,0.523-5.283,11.8-6.352,28.305h20.222
			C34.746,52.539,29.708,41.262,29.467,40.739z"/>
	</g>
	<g>
		<polygon fill="#EBD1BC" points="13.884,77.073 13.884,85.104 15.851,85.104 37.013,85.104 37.528,85.104 37.528,77.073 		"/>
	</g>
	<g>
		<polygon fill="#EBD1BC" points="38.805,93.134 14.062,93.134 11.471,93.134 11.471,157.542 39.944,157.542 39.944,93.134 		"/>
	</g>
</g>
<g id="bullet2">
	<g>
		<path fill="#EBD1BC" d="M66.161,40.739l-3.76-8.281l-3.766,8.281c-0.236,0.523-5.279,11.8-6.347,28.305h20.224
			C71.439,52.539,66.399,41.262,66.161,40.739z"/>
	</g>
	<g>
		<polygon fill="#EBD1BC" points="50.58,77.073 50.58,85.104 54.248,85.104 74.221,85.104 74.221,77.073 		"/>
	</g>
	<g>
		<polygon fill="#EBD1BC" points="52.457,93.134 48.171,93.134 48.171,157.542 76.629,157.542 76.629,93.134 		"/>
	</g>
</g>
<g id="bullet3">
	<g>
		<path fill="#EBD1BC" d="M102.847,40.739l-3.76-8.281l-3.763,8.281c-0.239,0.523-5.281,11.8-6.35,28.305h20.224
			C108.125,52.539,103.085,41.262,102.847,40.739z"/>
	</g>
	<g>
		<polygon fill="#EBD1BC" points="87.26,77.073 87.26,85.104 92.631,85.104 110.907,85.104 110.907,77.073 		"/>
	</g>
	<g>
		<polygon fill="#EBD1BC" points="90.84,93.134 84.857,93.134 84.857,157.542 113.31,157.542 113.31,93.134 		"/>
	</g>
</g>
<g id="bullet4">
	<g>
		<path fill="#EBD1BC" d="M139.53,40.739l-3.761-8.281l-3.761,8.281c-0.243,0.523-5.278,11.8-6.351,28.305h20.221
			C144.811,52.539,139.77,41.262,139.53,40.739z"/>
	</g>
	<g>
		<polygon fill="#EBD1BC" points="123.946,77.073 123.946,85.104 131.021,85.104 147.59,85.104 147.59,77.073 		"/>
	</g>
	<g>
		<polygon fill="#EBD1BC" points="129.229,93.134 121.541,93.134 121.541,157.542 149.996,157.542 149.996,93.134 		"/>
	</g>
</g>
<g id="bullet5">
	<path fill="#EBD1BC" d="M178.063,40.739l-3.761-8.281l-3.76,8.281c-0.243,0.523-5.278,11.8-6.351,28.305h20.221
		C183.344,52.539,178.303,41.262,178.063,40.739z"/>
	<polygon fill="#EBD1BC" points="162.479,77.073 162.479,85.104 169.553,85.104 186.123,85.104 186.123,77.073 	"/>
	<polygon fill="#EBD1BC" points="167.762,93.134 160.074,93.134 160.074,157.542 188.529,157.542 188.529,93.134 	"/>
</g>
</svg>
