<?xml version="1.0" encoding="utf-8"?>
<!-- Generator: Adobe Illustrator 16.0.0, SVG Export Plug-In . SVG Version: 6.00 Build 0)  -->
<!DOCTYPE svg PUBLIC "-//W3C//DTD SVG 1.1//EN" "http://www.w3.org/Graphics/SVG/1.1/DTD/svg11.dtd">
<svg version="1.1" id="Layer_1" xmlns="http://www.w3.org/2000/svg" xmlns:xlink="http://www.w3.org/1999/xlink" x="0px" y="0px"
	 width="360px" height="190px" viewBox="0 0 360 190" enable-background="new 0 0 360 190" xml:space="preserve">
<rect fill="#F2F3F3" width="360" height="190"/>
<g>
	<g id="document-back">
		<path fill="#A6A8AB" d="M171.976,70.131H151.46c-1.397,0-2.519,1.37-2.519,2.759c0,1.397,1.122,2.768,2.519,2.768h20.515
			c1.393,0,2.521-1.371,2.521-2.768C174.497,71.501,173.369,70.131,171.976,70.131z"/>
		<path fill="#A6A8AB" d="M140.532,105.131H125.35c-1.395,0-2.527,0.913-2.527,2.302c0,1.395,1.132,2.303,2.527,2.303h15.182
			c1.396,0,2.524-0.908,2.524-2.303C143.057,106.044,141.929,105.131,140.532,105.131z"/>
		<path fill="#A6A8AB" d="M171.976,79.342H125.35c-1.395,0-2.525,0.913-2.525,2.304c0,1.396,1.13,2.302,2.525,2.302h46.625
			c1.393,0,2.521-0.906,2.521-2.302C174.497,80.255,173.369,79.342,171.976,79.342z"/>
		<path fill="#A6A8AB" d="M171.976,87.631H125.35c-1.395,0-2.525,0.911-2.525,2.298c0,1.396,1.13,2.308,2.525,2.308h46.625
			c1.393,0,2.521-0.912,2.521-2.308C174.497,88.542,173.369,87.631,171.976,87.631z"/>
		<path fill="#A6A8AB" d="M171.976,95.921H125.35c-1.395,0-2.527,1.37-2.527,2.765c0,1.392,1.132,2.762,2.527,2.762h46.625
			c1.393,0,2.521-1.37,2.521-2.762C174.497,97.291,173.369,95.921,171.976,95.921z"/>
		<path fill="#A6A8AB" d="M177.227,45.263h-45.153c-0.396,0-0.774,0.218-1.116,0.387l-19.199,18.848
			c-0.269,0.409-0.708,0.945-0.708,1.443v68.604c0,4.08,3.899,7.428,7.984,7.428h25.313h7.57h25.312
			c4.084,0,7.505-3.348,7.505-7.428v-32.654v-2.439V52.907C184.733,48.828,181.303,45.263,177.227,45.263z M130.392,53.369v7.781
			c0,1.549-1.361,2.534-2.907,2.534h-7.782L130.392,53.369z M179.207,134.546c0,1.299-0.68,2.823-1.979,2.823h-25.371h-7.453
			h-25.371c-1.298,0-2.458-1.524-2.458-2.823V68.874c0.921,0.044,1.941,0.336,2.908,0.336h8.001c4.33,0,8.434-3.733,8.434-8.06v-8
			c0-0.894-0.592-1.44-0.531-2.361h41.84c1.3,0,1.98,0.818,1.98,2.117v49.686l0,0V134.546z"/>
	</g>
	<g id="document-front">
		<g>
			<path fill="#F2F3F3" d="M232.503,31.908H174.57c-0.508,0-0.993,0.115-1.433,0.332l-24.715,24.099
				c-0.345,0.525-0.992,1.131-0.992,1.77v88.02c0,5.235,5.169,10.122,10.409,10.122h32.477h9.712h32.477
				c5.24,0,8.873-4.887,8.873-10.122v-41.896v-3.129V41.385C241.378,36.15,237.733,31.908,232.503,31.908z"/>
		</g>
		<g>
			<path fill="#808184" d="M157.84,158.25c-6.379,0-12.409-5.891-12.409-12.122v-88.02c0-1.157,0.66-2.006,1.097-2.568
				c0.081-0.104,0.161-0.204,0.225-0.301l0.119-0.181l25.098-24.472l0.285-0.14c0.724-0.357,1.503-0.538,2.316-0.538h57.933
				c6.2,0,10.875,4.934,10.875,11.477v104.744c0,6.684-4.878,12.122-10.873,12.122H157.84z M155.878,146.128
				c0,0.798,0.73,1.674,1.041,1.674h75.586c0.105-0.096,0.426-0.783,0.426-1.674c0,0,0-104.808-0.001-104.836
				c-0.104-0.009-0.244-0.016-0.427-0.016h-51.756c0,0.083,0,10.685,0,10.685c0,6.69-5.525,12.342-12.064,12.342h-10.266
				c-0.704,0-1.634-0.094-2.539-0.199V146.128z M168.683,53.855c0.688,0,0.695-1.817,0.695-1.895v-4.83l-6.144,6.724H168.683z
				 M165.943,116.803c-2.89,0-5.241-2.343-5.241-5.224s2.352-5.224,5.241-5.224h19.48c2.889,0,5.239,2.343,5.239,5.224
				s-2.35,5.224-5.239,5.224H165.943z M165.943,105.75c-2.89,0-5.241-2.342-5.241-5.221c0-2.882,2.352-5.226,5.241-5.226h59.823
				c2.886,0,5.235,2.344,5.235,5.226c0,2.879-2.349,5.221-5.235,5.221H165.943z M165.943,94.697c-2.889,0-5.239-2.346-5.239-5.23
				c0-2.877,2.35-5.217,5.239-5.217h59.823c2.886,0,5.235,2.34,5.235,5.217c0,2.884-2.349,5.23-5.235,5.23H165.943z M165.943,83.645
				c-2.889,0-5.239-2.342-5.239-5.222c0-2.881,2.35-5.226,5.239-5.226h59.823c2.886,0,5.235,2.344,5.235,5.226
				c0,2.879-2.349,5.222-5.235,5.222H165.943z M199.444,72.592c-2.885,0-5.231-2.346-5.231-5.229c0-2.877,2.347-5.219,5.231-5.219
				h26.322c2.886,0,5.235,2.341,5.235,5.219c0,2.883-2.349,5.229-5.235,5.229H199.444z"/>
			<path fill="#F2F3F3" d="M232.503,31.908c5.23,0,8.875,4.242,8.875,9.477v59.719v3.129v41.896c0,5.235-3.633,10.122-8.873,10.122
				h-32.477h-9.712H157.84c-5.24,0-10.409-4.887-10.409-10.122v-88.02c0-0.639,0.647-1.245,0.992-1.77l24.715-24.099
				c0.44-0.217,0.925-0.332,1.433-0.332H232.503 M158.417,62.303c-1.239,0-3.618-0.376-4.539-0.433v84.259
				c0,1.667,1.375,3.674,3.041,3.674h33.473h9.562h32.552c1.666,0,2.426-2.007,2.426-3.674v-40.997V41.385
				c0-1.666-0.76-2.108-2.428-2.108h-53.681c-0.079,0.921-0.075,1.274-0.075,2.421v10.263c0,5.553-4.509,10.342-10.064,10.342
				H158.417 M158.697,55.855h9.985c1.983,0,2.695-1.906,2.695-3.895v-9.983L158.697,55.855 M225.766,64.145
				c1.788,0,3.235,1.436,3.235,3.219c0,1.792-1.447,3.229-3.235,3.229h-26.322c-1.792,0-3.231-1.437-3.231-3.229
				c0-1.783,1.439-3.219,3.231-3.219H225.766 M225.766,75.197c1.788,0,3.235,1.44,3.235,3.226c0,1.789-1.447,3.222-3.235,3.222
				h-59.823c-1.79,0-3.239-1.433-3.239-3.222c0-1.786,1.449-3.226,3.239-3.226H225.766 M225.766,86.25
				c1.788,0,3.235,1.437,3.235,3.217c0,1.792-1.447,3.23-3.235,3.23h-59.823c-1.79,0-3.239-1.438-3.239-3.23
				c0-1.781,1.449-3.217,3.239-3.217H225.766 M225.766,97.303c1.788,0,3.235,1.436,3.235,3.226c0,1.785-1.447,3.221-3.235,3.221
				h-59.823c-1.79,0-3.241-1.437-3.241-3.221c0-1.79,1.452-3.226,3.241-3.226H225.766 M185.423,108.355
				c1.792,0,3.239,1.439,3.239,3.224c0,1.789-1.447,3.224-3.239,3.224h-19.48c-1.79,0-3.241-1.435-3.241-3.224
				c0-1.785,1.452-3.224,3.241-3.224H185.423 M232.503,27.908H174.57c-1.123,0-2.2,0.25-3.201,0.744l-0.57,0.281l-0.455,0.443
				L145.63,53.475l-0.311,0.303l-0.239,0.363c-0.032,0.045-0.083,0.107-0.133,0.173c-0.53,0.682-1.517,1.953-1.517,3.795v88.02
				c0,7.391,6.868,14.122,14.409,14.122h32.477h9.712h32.477c7.098,0,12.873-6.335,12.873-14.122v-41.896v-3.129V41.385
				C245.378,33.702,239.843,27.908,232.503,27.908L232.503,27.908z M182.747,43.276h48.183l0,19.036
				c-1.314-1.337-3.144-2.167-5.164-2.167h-26.322c-3.987,0-7.231,3.238-7.231,7.219c0,1.407,0.404,2.722,1.103,3.834h-27.373
				c-3.992,0-7.239,3.241-7.239,7.226c0,2.214,1.003,4.198,2.581,5.524c-1.578,1.325-2.581,3.308-2.581,5.521
				c0,2.217,1.004,4.205,2.583,5.532c-1.58,1.326-2.585,3.313-2.585,5.53c0,2.214,1.004,4.199,2.583,5.524
				c-1.578,1.326-2.583,3.312-2.583,5.526c0,3.983,3.249,7.224,7.241,7.224h19.48c3.992,0,7.239-3.24,7.239-7.224
				c0-1.405-0.404-2.718-1.103-3.829h34.207c2.021,0,3.851-0.831,5.165-2.169v40.222h-30.978h-9.562h-32.513V66.29
				c0.187,0.008,0.368,0.013,0.539,0.013h10.266c7.624,0,14.064-6.568,14.064-14.342V43.276L182.747,43.276z M230.419,72.895
				c0.178-0.15,0.348-0.308,0.511-0.474v0.946C230.768,73.201,230.597,73.044,230.419,72.895L230.419,72.895z M230.421,83.947
				c0.177-0.149,0.347-0.306,0.509-0.471v0.942C230.769,84.253,230.599,84.096,230.421,83.947L230.421,83.947z M230.419,95
				c0.178-0.15,0.349-0.308,0.512-0.474v0.947C230.768,95.307,230.597,95.149,230.419,95L230.419,95z"/>
		</g>
	</g>
	<g id="monkey">
		<path fill="#0074A7" d="M222.269,159.088c-7.337,0-13.203-2.021-17.434-6.008c-4.289-4.034-6.465-9.625-6.465-16.615
			c0-4.751,1.067-9.145,3.173-13.06c2.151-3.987,5.24-7.146,9.183-9.392c3.902-2.23,8.435-3.363,13.467-3.363
			c4.271,0,8.167,0.899,11.579,2.673c3.504,1.822,6.247,4.456,8.155,7.829c1.877,3.319,2.829,7.16,2.829,11.417
			c0,2.851-0.467,5.514-1.389,7.916c-0.984,2.551-2.425,4.608-4.284,6.121c-1.069,0.864-2.233,1.5-3.485,1.906v7.201l-1.827,0.776
			C231.711,158.214,227.168,159.088,222.269,159.088z M228.063,146.883c-0.438,0.313-0.894,0.591-1.363,0.836
			c0.284-0.046,0.571-0.096,0.862-0.15c0.367-0.068,0.733-0.142,1.098-0.222C228.453,147.2,228.254,147.045,228.063,146.883z
			 M223.852,131.266c-1.579,0.039-2.259,0.596-2.635,1.018c-0.694,0.781-1.033,1.937-1.033,3.532c0,2.476,0.611,2.476,1.458,2.476
			c0.824,0,1.018-0.261,1.146-0.434c0.209-0.282,0.717-1.218,0.901-3.786L223.852,131.266z"/>
		<path fill="#F2F3F3" d="M224.192,113.65c3.799,0,7.199,0.777,10.195,2.335c2.997,1.559,5.304,3.773,6.928,6.644
			c1.626,2.875,2.44,6.184,2.44,9.94c0,2.497-0.396,4.771-1.189,6.841c-0.798,2.067-1.928,3.689-3.376,4.867
			c-1.456,1.178-3.145,1.764-5.06,1.764c-1.278,0-2.418-0.307-3.407-0.922c-0.98-0.613-1.694-1.421-2.127-2.422h-0.41
			c-1.871,2.228-4.243,3.344-7.142,3.344c-3.063,0-5.472-0.922-7.241-2.761c-1.766-1.846-2.65-4.369-2.65-7.568
			c0-3.652,1.162-6.594,3.474-8.828c2.327-2.23,5.354-3.351,9.086-3.351c1.491,0,3.128,0.144,4.928,0.43
			c1.782,0.288,3.258,0.629,4.416,1.026l-0.592,12.693c0,2.407,0.662,3.605,1.977,3.605c1.103,0,1.988-0.807,2.646-2.427
			c0.654-1.617,0.979-3.733,0.979-6.345c0-2.785-0.579-5.249-1.734-7.386c-1.155-2.136-2.792-3.766-4.895-4.891
			c-2.099-1.125-4.498-1.688-7.199-1.688c-3.499,0-6.534,0.716-9.118,2.153c-2.577,1.437-4.55,3.511-5.923,6.219
			c-1.375,2.707-2.067,5.833-2.067,9.382c0,4.773,1.274,8.438,3.83,10.991c2.549,2.555,6.245,3.827,11.093,3.827
			c1.834,0,3.853-0.202,6.053-0.609c2.192-0.408,4.358-0.997,6.49-1.777v4.984c-3.707,1.575-7.815,2.361-12.329,2.361
			c-6.583,0-11.704-1.731-15.377-5.192c-3.68-3.461-5.522-8.272-5.522-14.432c0-4.275,0.941-8.154,2.815-11.639
			c1.883-3.49,4.55-6.226,8.025-8.206C215.678,114.638,219.668,113.65,224.192,113.65 M221.641,141.291
			c1.556,0,2.742-0.55,3.556-1.646c0.813-1.098,1.307-2.887,1.484-5.358l0.333-5.739c-0.883-0.19-1.879-0.284-2.985-0.284
			c-2.163,0-3.847,0.672-5.052,2.023c-1.202,1.351-1.794,3.193-1.794,5.529C217.183,139.469,218.665,141.291,221.641,141.291
			 M224.192,107.65c-5.561,0-10.594,1.265-14.959,3.761c-4.431,2.523-7.909,6.08-10.329,10.566
			c-2.346,4.363-3.534,9.235-3.534,14.488c0,7.851,2.494,14.177,7.411,18.802c4.803,4.525,11.361,6.821,19.488,6.821
			c5.305,0,10.243-0.955,14.676-2.838l3.653-1.553v-3.97v-3.235c0.832-0.431,1.623-0.948,2.366-1.55
			c2.282-1.855,4.027-4.332,5.2-7.371c1.058-2.757,1.592-5.782,1.592-9.001c0-4.781-1.083-9.12-3.218-12.895
			c-2.198-3.886-5.354-6.918-9.381-9.013C233.312,108.664,228.95,107.65,224.192,107.65L224.192,107.65z"/>
	</g>
</g>
</svg>
