<?xml version="1.0" encoding="utf-8"?>
<!-- Generator: Adobe Illustrator 16.0.0, SVG Export Plug-In . SVG Version: 6.00 Build 0)  -->
<!DOCTYPE svg PUBLIC "-//W3C//DTD SVG 1.1//EN" "http://www.w3.org/Graphics/SVG/1.1/DTD/svg11.dtd">
<svg version="1.1" id="Layer_1" xmlns="http://www.w3.org/2000/svg" xmlns:xlink="http://www.w3.org/1999/xlink" x="0px" y="0px"
	 width="360px" height="190px" viewBox="0 0 360 190" enable-background="new 0 0 360 190" xml:space="preserve">
<g>
	<rect fill="#404041" width="360" height="190"/>
</g>
<g>
	<g id="document-3">
		<g>
			<path fill="#404041" d="M131.492,110c-2.315,0-4.492-2.251-4.492-4.475v-56.05c0-0.006,0.023-0.148,0.071-0.213l15.301-14.963
				l36.986-0.005c2.139,0,3.642,1.715,3.642,4.077v67.154c0,2.159-1.359,4.475-3.638,4.475H131.492z"/>
		</g>
		<g>
			<g>
				<path fill="#808184" d="M177.115,55.025c0,1.149-0.927,2.069-2.073,2.069h-16.876c-1.148,0-2.071-0.92-2.071-2.069
					c0-1.144,0.923-2.063,2.071-2.063h16.876C176.188,52.962,177.115,53.882,177.115,55.025z M149.176,81.308h-12.489
					c-1.148,0-2.079,0.922-2.079,2.066c0,1.147,0.931,2.066,2.079,2.066h12.489c1.148,0,2.077-0.919,2.077-2.066
					C151.253,82.23,150.324,81.308,149.176,81.308z M175.042,60.049h-38.354c-1.148,0-2.078,0.922-2.078,2.067
					c0,1.147,0.93,2.065,2.078,2.065h38.354c1.146,0,2.073-0.918,2.073-2.065C177.115,60.971,176.188,60.049,175.042,60.049z
					 M175.042,67.135h-38.354c-1.148,0-2.078,0.921-2.078,2.063c0,1.148,0.93,2.071,2.078,2.071h38.354
					c1.146,0,2.073-0.923,2.073-2.071C177.115,68.056,176.188,67.135,175.042,67.135z M175.042,74.222h-38.354
					c-1.148,0-2.079,0.92-2.079,2.068c0,1.144,0.931,2.066,2.079,2.066h38.354c1.146,0,2.073-0.922,2.073-2.066
					C177.115,75.142,176.188,74.222,175.042,74.222z M185.052,38.371v38.288v2.005v26.861c0,3.356-2.33,6.489-5.69,6.489h-20.821
					h-6.227h-20.822c-3.36,0-6.674-3.133-6.674-6.489V49.092c0-0.41,0.415-0.798,0.636-1.135l15.846-15.45
					c0.282-0.14,0.593-0.213,0.919-0.213h37.142C182.715,32.294,185.052,35.014,185.052,38.371z M132.042,47.647h6.401
					c1.272,0,1.729-1.223,1.729-2.497V38.75L132.042,47.647z M180.917,79.24L180.917,79.24V38.371c0-1.07-0.487-1.353-1.557-1.353
					h-34.417c-0.051,0.59-0.048,0.815-0.048,1.552v6.581c0,3.559-2.891,6.63-6.453,6.63h-6.581c-0.795,0-1.729-0.242-2.32-0.277
					v54.021c0,1.069,0.881,2.356,1.95,2.356h20.869h6.131h20.87c1.069,0,1.556-1.287,1.556-2.356V79.24z"/>
			</g>
		</g>
	</g>
	<g id="document-2">
		<g>
			<path fill="#404041" d="M140.492,118c-2.315,0-4.492-2.251-4.492-4.475v-56.05c0-0.006,0.023-0.148,0.071-0.213l15.301-14.963
				l36.986-0.005c2.139,0,3.642,1.715,3.642,4.077v67.154c0,2.159-1.359,4.475-3.638,4.475H140.492z"/>
		</g>
		<g>
			<g>
				<path fill="#A6A8AB" d="M186.115,63.025c0,1.149-0.927,2.069-2.073,2.069h-16.876c-1.148,0-2.071-0.92-2.071-2.069
					c0-1.144,0.923-2.063,2.071-2.063h16.876C185.188,60.962,186.115,61.882,186.115,63.025z M158.176,89.308h-12.489
					c-1.148,0-2.079,0.922-2.079,2.066c0,1.147,0.931,2.066,2.079,2.066h12.489c1.148,0,2.077-0.919,2.077-2.066
					C160.253,90.23,159.324,89.308,158.176,89.308z M184.042,68.049h-38.354c-1.148,0-2.078,0.922-2.078,2.067
					c0,1.147,0.93,2.065,2.078,2.065h38.354c1.146,0,2.073-0.918,2.073-2.065C186.115,68.971,185.188,68.049,184.042,68.049z
					 M184.042,75.135h-38.354c-1.148,0-2.078,0.921-2.078,2.063c0,1.148,0.93,2.071,2.078,2.071h38.354
					c1.146,0,2.073-0.923,2.073-2.071C186.115,76.056,185.188,75.135,184.042,75.135z M184.042,82.222h-38.354
					c-1.148,0-2.079,0.92-2.079,2.068c0,1.144,0.931,2.066,2.079,2.066h38.354c1.146,0,2.073-0.922,2.073-2.066
					C186.115,83.142,185.188,82.222,184.042,82.222z M194.052,46.371v38.288v2.005v26.861c0,3.356-2.33,6.489-5.69,6.489h-20.821
					h-6.227h-20.822c-3.36,0-6.674-3.133-6.674-6.489V57.092c0-0.41,0.415-0.798,0.636-1.135l15.846-15.45
					c0.282-0.14,0.593-0.213,0.919-0.213h37.142C191.715,40.294,194.052,43.014,194.052,46.371z M141.042,55.647h6.401
					c1.272,0,1.729-1.223,1.729-2.497V46.75L141.042,55.647z M189.917,87.24L189.917,87.24V46.371c0-1.07-0.487-1.353-1.557-1.353
					h-34.417c-0.051,0.59-0.048,0.815-0.048,1.552v6.581c0,3.559-2.891,6.63-6.453,6.63h-6.581c-0.795,0-1.729-0.242-2.32-0.277
					v54.021c0,1.069,0.881,2.356,1.95,2.356h20.869h6.131h20.87c1.069,0,1.556-1.287,1.556-2.356V87.24z"/>
			</g>
		</g>
	</g>
	<g id="document-1">
		<g>
			<path fill="#404041" d="M149.492,126c-2.315,0-4.492-2.251-4.492-4.475v-56.05c0-0.006,0.023-0.148,0.071-0.213l15.301-14.963
				l36.986-0.005c2.139,0,3.642,1.715,3.642,4.077v67.154c0,2.159-1.359,4.475-3.638,4.475H149.492z"/>
		</g>
		<g>
			<g>
				<path fill="#F4777C" d="M195.115,71.025c0,1.149-0.927,2.069-2.073,2.069h-16.876c-1.148,0-2.071-0.92-2.071-2.069
					c0-1.144,0.923-2.063,2.071-2.063h16.876C194.188,68.962,195.115,69.882,195.115,71.025z M167.176,97.308h-12.489
					c-1.148,0-2.079,0.922-2.079,2.066c0,1.147,0.931,2.066,2.079,2.066h12.489c1.148,0,2.077-0.919,2.077-2.066
					C169.253,98.23,168.324,97.308,167.176,97.308z M193.042,76.049h-38.354c-1.148,0-2.078,0.922-2.078,2.067
					c0,1.147,0.93,2.065,2.078,2.065h38.354c1.146,0,2.073-0.918,2.073-2.065C195.115,76.971,194.188,76.049,193.042,76.049z
					 M193.042,83.135h-38.354c-1.148,0-2.078,0.921-2.078,2.063c0,1.148,0.93,2.071,2.078,2.071h38.354
					c1.146,0,2.073-0.923,2.073-2.071C195.115,84.056,194.188,83.135,193.042,83.135z M193.042,90.222h-38.354
					c-1.148,0-2.079,0.92-2.079,2.068c0,1.144,0.931,2.066,2.079,2.066h38.354c1.146,0,2.073-0.922,2.073-2.066
					C195.115,91.142,194.188,90.222,193.042,90.222z M203.052,54.371v38.288v2.005v26.861c0,3.356-2.33,6.489-5.69,6.489h-20.821
					h-6.227h-20.822c-3.36,0-6.674-3.133-6.674-6.489V65.092c0-0.41,0.415-0.798,0.636-1.135l15.846-15.45
					c0.282-0.14,0.593-0.213,0.919-0.213h37.142C200.715,48.294,203.052,51.014,203.052,54.371z M150.042,63.647h6.401
					c1.272,0,1.729-1.223,1.729-2.497V54.75L150.042,63.647z M198.917,95.24L198.917,95.24V54.371c0-1.07-0.487-1.353-1.557-1.353
					h-34.417c-0.051,0.59-0.048,0.815-0.048,1.552v6.581c0,3.559-2.891,6.63-6.453,6.63h-6.581c-0.795,0-1.729-0.242-2.32-0.277
					v54.021c0,1.069,0.881,2.356,1.95,2.356h20.869h6.131h20.87c1.069,0,1.556-1.287,1.556-2.356V95.24z"/>
			</g>
		</g>
	</g>
	<g id="magnify">
		<g>
			<path fill="#F4777C" d="M231.335,159.206c-1.124,0-2.185-0.5-2.91-1.371l-13.948-16.813c-0.328-0.396-0.531-0.806-0.607-1.227
				c-3.465,2.132-7.401,3.25-11.509,3.25c-6.61,0-12.822-2.915-17.042-7.997c-3.292-3.968-5.105-8.985-5.105-14.127
				c0.009-6.616,2.928-12.825,8.008-17.035c3.962-3.29,8.977-5.103,14.12-5.103c6.606,0,12.816,2.917,17.038,8.004
				c3.292,3.964,5.104,8.981,5.104,14.126c-0.006,4.689-1.512,9.25-4.274,13.026c0.466,0.049,1.074,0.27,1.646,0.953l13.951,16.816
				c1.319,1.586,1.122,3.941-0.44,5.249l-1.692,1.407C233.021,158.908,232.19,159.206,231.335,159.206L231.335,159.206z
				 M202.342,105.341c-3.616,0-7.146,1.274-9.939,3.589c-3.571,2.963-5.622,7.333-5.628,11.989c0,3.62,1.274,7.151,3.587,9.941
				c2.97,3.581,7.342,5.634,11.995,5.634c3.619,0,7.148-1.276,9.937-3.595c3.581-2.966,5.633-7.334,5.633-11.985
				c0.005-3.618-1.27-7.149-3.59-9.945C211.367,107.392,206.995,105.341,202.342,105.341z"/>
		</g>
		<g>
			<path fill="#404041" d="M202.342,100.283c5.926,0,11.801,2.543,15.884,7.462c3.197,3.85,4.759,8.524,4.759,13.168
				c-0.006,4.839-1.729,9.633-5.032,13.458l1.212,1.47c0.291-0.242,0.555-0.413,0.826-0.413c0.228,0,0.46,0.122,0.716,0.427
				l13.947,16.811c0.795,0.956,0.682,2.362-0.248,3.141l-1.689,1.404c-0.401,0.333-0.89,0.495-1.381,0.495
				c-0.649,0-1.302-0.284-1.757-0.83l-13.946-16.811c-0.55-0.664-0.263-1.07,0.276-1.515l-1.046-1.256
				c-3.713,2.844-8.117,4.251-12.5,4.251c-5.923,0-11.807-2.54-15.889-7.455c-3.197-3.854-4.759-8.528-4.759-13.169
				c0.008-5.927,2.548-11.805,7.465-15.88C193.027,101.845,197.698,100.283,202.342,100.283 M202.356,137.994
				c3.84,0,7.708-1.291,10.896-3.941c4.068-3.371,6.174-8.236,6.174-13.139c0.005-3.847-1.289-7.713-3.936-10.903
				c-3.377-4.068-8.244-6.17-13.149-6.17c-3.84,0-7.708,1.292-10.896,3.934c-4.068,3.375-6.165,8.236-6.171,13.142
				c0,3.844,1.291,7.715,3.933,10.9C192.584,135.89,197.45,137.994,202.356,137.994 M202.342,97.283
				c-5.492,0-10.848,1.936-15.08,5.449c-5.422,4.494-8.539,11.123-8.548,18.185c0,5.495,1.936,10.852,5.45,15.088
				c4.508,5.427,11.14,8.54,18.198,8.54c3.838,0,7.536-0.913,10.879-2.666c0.026,0.033,0.053,0.066,0.081,0.099l13.948,16.813
				c1.014,1.218,2.495,1.915,4.066,1.915c1.204,0,2.375-0.421,3.297-1.186l1.69-1.405c2.203-1.843,2.485-5.145,0.637-7.366
				l-13.944-16.808c-0.194-0.232-0.393-0.43-0.593-0.599c2.31-3.717,3.557-8.018,3.562-12.424c0-5.499-1.936-10.856-5.451-15.089
				C216.027,100.398,209.396,97.283,202.342,97.283L202.342,97.283z M202.356,134.994c-4.205,0-8.156-1.856-10.84-5.092
				c-2.09-2.521-3.242-5.712-3.242-8.985c0.005-4.205,1.859-8.155,5.086-10.833c2.523-2.09,5.713-3.243,8.981-3.243
				c4.206,0,8.157,1.854,10.841,5.086c2.096,2.526,3.248,5.717,3.244,8.983c0,4.207-1.854,8.154-5.088,10.833
				C208.814,133.841,205.625,134.994,202.356,134.994L202.356,134.994z"/>
		</g>
	</g>
</g>
</svg>
