<?xml version="1.0" encoding="utf-8"?>
<!-- Generator: Adobe Illustrator 16.0.0, SVG Export Plug-In . SVG Version: 6.00 Build 0)  -->
<!DOCTYPE svg PUBLIC "-//W3C//DTD SVG 1.1//EN" "http://www.w3.org/Graphics/SVG/1.1/DTD/svg11.dtd">
<svg version="1.1" xmlns="http://www.w3.org/2000/svg" xmlns:xlink="http://www.w3.org/1999/xlink" x="0px" y="0px" width="360px"
	 height="360px" viewBox="0 0 360 360" enable-background="new 0 0 360 360" xml:space="preserve">
<g id="Layer_1">
	<g>
		<rect fill="#F6F6F6" width="360" height="360"/>
	</g>
	<g id="building">
		<path fill="#808184" d="M199.372,64.646V53.241l-16.033-9.333v-9.305h15.735V22.367h-14.216h-5.011v21.594l-15.44,9.28v11.404
			h-27.974v48.916h90.917V64.646H199.372z M150.352,107.368h-6.218v-9.333h6.218V107.368z M150.352,90.778h-6.218V81.45h6.218
			V90.778z M163.83,107.368h-6.218v-9.333h6.218V107.368z M163.83,90.778h-6.218V81.45h6.218V90.778z M206.172,107.368h-6.216
			v-9.333h6.216V107.368z M206.172,90.778h-6.216V81.45h6.216V90.778z M219.65,107.368h-6.22v-9.333h6.22V107.368z M219.65,90.778
			h-6.22V81.45h6.22V90.778z"/>
	</g>
	<g id="person">
		<path fill="#F2F3F3" d="M195.735,87.695c0,1.028-0.481,1.63-1.407,1.896l-0.473,0.13c-1.013,0-1.65-0.464-1.903-1.418
			c-0.073-0.317-0.36-1.23-0.736-2.679c-0.443-1.462-0.9-2.983-1.411-4.596c-0.511-1.602-1.11-3.644-1.839-6.171h-1.158
			l6.674,22.537h-6.32v17.116c0,0.671-0.19,1.228-0.697,1.631c-0.451,0.421-0.99,0.623-1.663,0.623c-0.697,0-1.21-0.202-1.652-0.623
			c-0.418-0.403-0.601-0.96-0.601-1.631V97.395h-1.161v17.116c0,0.671-0.225,1.228-0.64,1.631c-0.417,0.421-0.961,0.623-1.626,0.623
			c-0.673,0-1.248-0.202-1.695-0.623c-0.477-0.403-0.695-0.96-0.695-1.631V97.395h-6.418l6.67-22.534h-1.143
			c-0.733,2.524-1.348,4.562-1.831,6.167c-0.436,1.612-0.92,3.134-1.333,4.596c-0.48,1.448-0.798,2.361-0.828,2.679
			c-0.296,0.954-0.922,1.418-1.912,1.418l-0.516-0.119c-0.921-0.345-1.375-0.946-1.375-1.798c0-0.231,0.033-0.425,0.133-0.618
			c0.063-0.162,0.253-0.731,0.48-1.691c0.258-0.954,0.603-2.136,1.02-3.514c0.414-1.402,0.865-2.913,1.339-4.541
			c0.482-1.637,0.921-3.206,1.467-4.723c0.32-1.161,1.015-2.223,2.104-3.133c1.078-0.947,2.209-1.38,3.38-1.38h7.849
			c1.216,0,2.395,0.433,3.447,1.38c1.024,0.921,1.761,1.972,2.168,3.133c0.444,1.517,0.896,3.085,1.337,4.723
			c0.458,1.628,0.93,3.139,1.318,4.541c0.405,1.378,0.765,2.561,1.018,3.514c0.247,0.96,0.414,1.529,0.506,1.691L195.735,87.695z
			 M182.021,66.793c1.343,0,2.495-0.438,3.391-1.357c0.92-0.945,1.397-2.117,1.397-3.523c0-1.344-0.477-2.496-1.397-3.453
			c-0.886-0.979-2.048-1.46-3.391-1.46c-1.431,0-2.618,0.48-3.604,1.46c-0.96,0.949-1.433,2.109-1.433,3.453
			c0,1.406,0.473,2.578,1.434,3.523C179.411,66.355,180.595,66.793,182.021,66.793"/>
	</g>
	<g id="left-number-group">
		<g>
			<path fill="#404041" d="M22.646,154.461l0.017,0.048c0.021,1.107-0.368,2.034-1.167,2.779c-0.8,0.745-1.855,1.118-3.168,1.118
				c-1.334,0-2.421-0.472-3.261-1.417c-0.84-0.945-1.26-2.145-1.26-3.598v-2.098c0-1.453,0.42-2.654,1.26-3.602
				c0.84-0.948,1.927-1.422,3.261-1.422s2.396,0.355,3.184,1.065s1.172,1.651,1.151,2.824l-0.017,0.048h-1.531
				c0-0.826-0.243-1.48-0.729-1.961c-0.486-0.48-1.172-0.721-2.058-0.721c-0.891,0-1.602,0.359-2.131,1.078
				s-0.794,1.609-0.794,2.673v2.115c0,1.075,0.265,1.972,0.794,2.69c0.529,0.719,1.24,1.078,2.131,1.078
				c0.886,0,1.572-0.239,2.058-0.717c0.486-0.478,0.729-1.139,0.729-1.981H22.646z"/>
			<path fill="#404041" d="M33.414,153.392c0,1.442-0.447,2.639-1.341,3.589c-0.895,0.951-2.054,1.426-3.48,1.426
				c-1.377,0-2.497-0.475-3.358-1.426c-0.861-0.951-1.292-2.147-1.292-3.589v-2.098c0-1.437,0.431-2.633,1.292-3.589
				c0.862-0.956,1.981-1.434,3.358-1.434c1.426,0,2.586,0.477,3.48,1.43c0.894,0.954,1.341,2.151,1.341,3.594V153.392z
				 M31.817,151.277c0-1.08-0.291-1.966-0.875-2.657c-0.583-0.691-1.366-1.037-2.35-1.037c-0.929,0-1.67,0.346-2.224,1.037
				s-0.831,1.577-0.831,2.657v2.115c0,1.091,0.277,1.982,0.831,2.674s1.295,1.037,2.224,1.037c0.989,0,1.773-0.344,2.354-1.033
				c0.581-0.688,0.871-1.581,0.871-2.678V151.277z"/>
			<path fill="#404041" d="M41.232,156.025h0.049l3.768-9.585h1.985v11.797h-1.597v-8.839l-0.048-0.008l-3.573,8.848h-1.11
				l-3.678-9.139l-0.049,0.008v9.131h-1.596V146.44h2.099L41.232,156.025z"/>
			<path fill="#404041" d="M55.314,156.025h0.049l3.768-9.585h1.985v11.797H59.52v-8.839l-0.049-0.008l-3.573,8.848h-1.11
				l-3.679-9.139l-0.049,0.008v9.131h-1.596V146.44h2.099L55.314,156.025z"/>
			<path fill="#404041" d="M72.249,146.44v7.835c0,1.296-0.421,2.309-1.264,3.038c-0.842,0.729-1.928,1.094-3.257,1.094
				c-1.28,0-2.328-0.366-3.144-1.098s-1.224-1.743-1.224-3.034v-7.835h1.596v7.835c0,0.902,0.258,1.608,0.774,2.119
				c0.516,0.51,1.182,0.766,1.997,0.766c0.864,0,1.568-0.255,2.11-0.766c0.543-0.51,0.814-1.217,0.814-2.119v-7.835H72.249z"/>
			<path fill="#404041" d="M83.365,158.237h-1.597l-5.679-9.01l-0.049,0.016v8.994h-1.596V146.44h1.596l5.68,9.001l0.048-0.016
				v-8.985h1.597V158.237z"/>
			<path fill="#404041" d="M87.563,158.237h-1.604V146.44h1.604V158.237z"/>
			<path fill="#404041" d="M98.168,147.696h-3.889v10.541h-1.596v-10.541h-3.84v-1.256h9.326V147.696z"/>
			<path fill="#404041" d="M101.28,158.237h-1.604V146.44h1.604V158.237z"/>
			<path fill="#404041" d="M110.314,152.768h-4.846v4.221h5.672v1.248h-7.268V146.44h7.179v1.256h-5.583v3.816h4.846V152.768z"/>
			<path fill="#404041" d="M118.983,155.263c0-0.535-0.191-0.983-0.575-1.345c-0.383-0.362-1.059-0.67-2.025-0.924
				c-1.199-0.297-2.135-0.734-2.808-1.313c-0.672-0.578-1.008-1.304-1.008-2.18c0-0.923,0.362-1.693,1.085-2.309
				s1.664-0.923,2.82-0.923c1.242,0,2.232,0.353,2.969,1.057c0.737,0.705,1.095,1.527,1.074,2.467l-0.024,0.048h-1.523
				c0-0.669-0.234-1.223-0.701-1.661c-0.467-0.438-1.065-0.656-1.794-0.656c-0.746,0-1.317,0.181-1.713,0.542
				c-0.397,0.362-0.596,0.832-0.596,1.41c0,0.513,0.217,0.941,0.652,1.284c0.435,0.343,1.141,0.644,2.118,0.903
				c1.188,0.308,2.093,0.762,2.715,1.361c0.621,0.599,0.932,1.339,0.932,2.22c0,0.951-0.374,1.715-1.122,2.293
				c-0.749,0.578-1.725,0.867-2.929,0.867c-1.14,0-2.146-0.318-3.018-0.956c-0.872-0.637-1.295-1.491-1.268-2.56l0.016-0.049h1.523
				c0,0.74,0.281,1.312,0.843,1.714c0.562,0.402,1.196,0.604,1.904,0.604c0.756,0,1.354-0.17,1.794-0.51
				S118.983,155.847,118.983,155.263z"/>
		</g>
		<g>
			<path fill="#0074A8" d="M50.293,87.02h4.053c1.538,0,2.666-0.54,3.386-1.62c0.72-1.08,1.08-2.522,1.08-4.326
				c0-1.725-0.37-3.067-1.109-4.029c-0.739-0.961-1.73-1.442-2.973-1.442c-1.163,0-2.114,0.459-2.854,1.378
				c-0.739,0.918-1.109,2.076-1.109,3.473h-8.371c0-2.248,0.518-4.264,1.553-6.049c1.035-1.785,2.484-3.18,4.348-4.186
				c1.863-1.005,3.929-1.508,6.196-1.508c3.964,0,7.069,1.094,9.317,3.283c2.248,2.188,3.372,5.186,3.372,8.992
				c0,1.952-0.508,3.761-1.523,5.428c-1.016,1.667-2.352,2.943-4.008,3.83c2.03,0.868,3.544,2.169,4.54,3.904
				c0.995,1.735,1.494,3.786,1.494,6.152c0,3.826-1.218,6.892-3.653,9.199c-2.436,2.307-5.635,3.461-9.598,3.461
				c-3.688,0-6.68-1.139-8.977-3.417c-2.297-2.277-3.446-5.27-3.446-8.977h8.371c0,1.555,0.404,2.86,1.213,3.917
				c0.808,1.056,1.834,1.584,3.076,1.584c1.439,0,2.578-0.535,3.416-1.604c0.838-1.07,1.257-2.497,1.257-4.28
				c0-4.26-1.646-6.4-4.939-6.42h-4.111V87.02z"/>
			<path fill="#0074A8" d="M95.713,74.083l-13.605,38.286h-8.844l13.665-36.174H69.655v-6.892h26.058V74.083z"/>
		</g>
		<g opacity="0.6">
			<g>
				<rect x="40.998" y="129.817" fill="#66ABCB" width="53.008" height="3"/>
			</g>
		</g>
	</g>
	<g id="right-number-group">
		<g>
			<path fill="#404041" d="M261.912,154.464l0.016,0.048c0.021,1.107-0.368,2.034-1.167,2.779c-0.8,0.745-1.855,1.118-3.168,1.118
				c-1.334,0-2.421-0.472-3.261-1.417c-0.84-0.945-1.26-2.145-1.26-3.598v-2.098c0-1.453,0.42-2.654,1.26-3.602
				c0.84-0.948,1.927-1.422,3.261-1.422c1.334,0,2.396,0.355,3.184,1.065c0.789,0.71,1.172,1.651,1.151,2.824l-0.016,0.048h-1.531
				c0-0.826-0.243-1.48-0.729-1.961c-0.486-0.48-1.172-0.721-2.058-0.721c-0.892,0-1.602,0.359-2.131,1.078
				s-0.794,1.609-0.794,2.673v2.115c0,1.075,0.265,1.972,0.794,2.69c0.529,0.719,1.239,1.078,2.131,1.078
				c0.886,0,1.571-0.239,2.058-0.717s0.729-1.139,0.729-1.981H261.912z"/>
			<path fill="#404041" d="M269.764,155.201h-4.44l-1.053,3.038h-1.629l4.254-11.797h1.369l4.164,11.797h-1.628L269.764,155.201z
				 M265.785,153.864h3.524l-1.718-5.064h-0.048L265.785,153.864z"/>
			<path fill="#404041" d="M282.751,158.239h-1.596l-5.68-9.01l-0.049,0.016v8.994h-1.596v-11.797h1.596l5.68,9.001l0.049-0.016
				v-8.985h1.596V158.239z"/>
			<path fill="#404041" d="M285.183,158.239v-11.797h3.711c1.539,0,2.777,0.474,3.715,1.422c0.937,0.948,1.405,2.173,1.405,3.674
				v1.612c0,1.507-0.469,2.732-1.405,3.674c-0.938,0.943-2.176,1.414-3.715,1.414H285.183z M286.778,147.698v9.293h2.115
				c1.091,0,1.951-0.359,2.58-1.078c0.629-0.718,0.944-1.64,0.944-2.763v-1.628c0-1.113-0.315-2.028-0.944-2.747
				c-0.629-0.718-1.489-1.078-2.58-1.078H286.778z"/>
			<path fill="#404041" d="M297.854,158.239h-1.604v-11.797h1.604V158.239z"/>
			<path fill="#404041" d="M300.448,158.239v-11.797h3.71c1.54,0,2.778,0.474,3.715,1.422c0.938,0.948,1.406,2.173,1.406,3.674
				v1.612c0,1.507-0.469,2.732-1.406,3.674c-0.937,0.943-2.175,1.414-3.715,1.414H300.448z M302.044,147.698v9.293h2.114
				c1.091,0,1.951-0.359,2.581-1.078c0.629-0.718,0.943-1.64,0.943-2.763v-1.628c0-1.113-0.314-2.028-0.943-2.747
				c-0.63-0.718-1.49-1.078-2.581-1.078H302.044z"/>
			<path fill="#404041" d="M317.276,155.201h-4.44l-1.053,3.038h-1.629l4.254-11.797h1.369l4.164,11.797h-1.628L317.276,155.201z
				 M313.298,153.864h3.524l-1.718-5.064h-0.048L313.298,153.864z"/>
			<path fill="#404041" d="M328.547,147.698h-3.89v10.541h-1.596v-10.541h-3.841v-1.256h9.326V147.698z"/>
			<path fill="#404041" d="M336.333,152.771h-4.845v4.221h5.671v1.248h-7.268v-11.797h7.178v1.256h-5.582v3.816h4.845V152.771z"/>
			<path fill="#404041" d="M345.003,155.266c0-0.535-0.192-0.983-0.575-1.345c-0.384-0.362-1.059-0.67-2.025-0.924
				c-1.199-0.297-2.135-0.734-2.808-1.313c-0.673-0.578-1.009-1.304-1.009-2.18c0-0.923,0.362-1.693,1.086-2.309
				c0.724-0.616,1.663-0.923,2.819-0.923c1.242,0,2.232,0.353,2.97,1.057c0.737,0.705,1.095,1.527,1.073,2.467l-0.024,0.048h-1.523
				c0-0.669-0.233-1.223-0.701-1.661s-1.065-0.656-1.794-0.656c-0.746,0-1.316,0.181-1.714,0.542
				c-0.396,0.362-0.596,0.832-0.596,1.41c0,0.513,0.218,0.941,0.652,1.284c0.435,0.343,1.142,0.644,2.119,0.903
				c1.188,0.308,2.093,0.762,2.714,1.361c0.621,0.599,0.932,1.339,0.932,2.22c0,0.951-0.374,1.715-1.122,2.293
				s-1.725,0.867-2.929,0.867c-1.14,0-2.146-0.318-3.018-0.956c-0.873-0.637-1.295-1.491-1.268-2.56l0.017-0.049h1.523
				c0,0.74,0.281,1.312,0.842,1.714c0.562,0.402,1.196,0.604,1.904,0.604c0.756,0,1.354-0.17,1.795-0.51
				C344.783,156.311,345.003,155.849,345.003,155.266z"/>
		</g>
		<g>
			<path fill="#0074A8" d="M301.278,112.369H275.9v-5.865l11.654-14.869c1.479-2.058,2.568-3.864,3.269-5.418
				c0.7-1.554,1.05-3.042,1.05-4.468c0-1.92-0.33-3.424-0.991-4.513c-0.661-1.088-1.612-1.633-2.854-1.633
				c-1.361,0-2.44,0.636-3.239,1.909s-1.198,3.062-1.198,5.368h-8.4c0-2.642,0.547-5.058,1.642-7.247
				c1.094-2.189,2.632-3.89,4.614-5.103c1.982-1.212,4.225-1.819,6.729-1.819c3.845,0,6.828,1.06,8.947,3.18s3.18,5.132,3.18,9.036
				c0,2.425-0.587,4.885-1.76,7.379c-1.173,2.495-3.298,5.574-6.374,9.238l-5.531,7.933h14.642V112.369z"/>
			<path fill="#0074A8" d="M328.537,94.563c0,5.956-1.08,10.511-3.239,13.665c-2.159,3.155-5.241,4.733-9.243,4.733
				c-3.963,0-7.025-1.533-9.184-4.6c-2.159-3.066-3.278-7.458-3.357-13.177V87.05c0-5.935,1.075-10.475,3.225-13.621
				c2.148-3.145,5.235-4.718,9.258-4.718s7.108,1.558,9.258,4.673c2.149,3.116,3.243,7.562,3.283,13.34V94.563z M320.137,85.818
				c0-3.405-0.335-5.958-1.005-7.661c-0.67-1.702-1.715-2.554-3.135-2.554c-2.662,0-4.043,3.118-4.141,9.354v10.779
				c0,3.484,0.34,6.077,1.021,7.78s1.74,2.553,3.18,2.553c1.361,0,2.371-0.796,3.032-2.39c0.66-1.594,1.01-4.033,1.05-7.32V85.818z"
				/>
		</g>
		<g opacity="0.6">
			<g>
				<rect x="271.948" y="129.817" fill="#66ABCB" width="57.001" height="3"/>
			</g>
		</g>
	</g>
</g>
<g id="Layer_2">
	<g>
		<g>
			<path fill="#799DC4" d="M140.105,332.285h-7.492l-1.777,5.127h-2.748l7.178-19.906h2.311l7.027,19.906h-2.748L140.105,332.285z
				 M133.393,330.029h5.947l-2.898-8.545h-0.082L133.393,330.029z"/>
			<path fill="#799DC4" d="M154.16,324.998l-1.381-0.082c-0.711,0-1.311,0.169-1.798,0.506c-0.488,0.337-0.864,0.812-1.128,1.422
				v10.568h-2.693v-14.793h2.406l0.26,2.16c0.419-0.766,0.937-1.362,1.552-1.791c0.615-0.428,1.324-0.643,2.126-0.643
				c0.2,0,0.392,0.016,0.574,0.048c0.182,0.032,0.333,0.066,0.451,0.103L154.16,324.998z"/>
			<path fill="#799DC4" d="M159.369,322.619l0.191,1.941c0.483-0.702,1.096-1.246,1.839-1.634c0.743-0.387,1.606-0.581,2.591-0.581
				s1.83,0.228,2.536,0.684c0.706,0.456,1.237,1.14,1.593,2.051c0.474-0.848,1.091-1.515,1.853-2.003
				c0.761-0.487,1.652-0.731,2.673-0.731c1.504,0,2.693,0.518,3.568,1.552c0.875,1.035,1.313,2.591,1.313,4.669v8.846h-2.693v-8.873
				c0-1.458-0.251-2.49-0.752-3.097c-0.501-0.606-1.249-0.909-2.242-0.909c-0.921,0-1.666,0.319-2.235,0.957
				c-0.57,0.638-0.905,1.445-1.005,2.42v0.109v9.393h-2.707v-8.873c0-1.385-0.258-2.399-0.772-3.042
				c-0.515-0.643-1.256-0.964-2.222-0.964c-0.82,0-1.495,0.169-2.023,0.506c-0.529,0.337-0.935,0.812-1.217,1.422v10.951h-2.693
				v-14.793H159.369z"/>
			<path fill="#799DC4" d="M187.561,337.699c-2.124,0-3.78-0.679-4.97-2.037c-1.189-1.358-1.784-3.145-1.784-5.359v-0.602
				c0-2.124,0.613-3.88,1.839-5.271c1.226-1.39,2.723-2.085,4.491-2.085c1.978,0,3.461,0.615,4.45,1.846
				c0.989,1.23,1.483,2.867,1.483,4.908v1.422h-9.461l-0.041,0.068c0,1.486,0.328,2.691,0.984,3.616
				c0.656,0.925,1.659,1.388,3.008,1.388c0.911,0,1.711-0.13,2.399-0.39c0.688-0.26,1.278-0.617,1.771-1.073l1.053,1.75
				c-0.529,0.511-1.226,0.941-2.092,1.292C189.825,337.523,188.782,337.699,187.561,337.699z M187.137,324.464
				c-0.939,0-1.716,0.362-2.331,1.087s-0.991,1.652-1.128,2.782l0.027,0.068h6.672v-0.219c0-1.075-0.265-1.964-0.793-2.666
				C189.055,324.815,188.239,324.464,187.137,324.464z"/>
			<path fill="#799DC4" d="M198.498,322.619l0.191,2.201c0.492-0.784,1.109-1.392,1.853-1.825c0.743-0.433,1.588-0.649,2.536-0.649
				c1.595,0,2.83,0.467,3.705,1.401c0.875,0.935,1.313,2.377,1.313,4.327v9.338h-2.693v-9.283c0-1.303-0.258-2.229-0.772-2.775
				c-0.515-0.547-1.301-0.82-2.358-0.82c-0.83,0-1.534,0.167-2.112,0.499c-0.579,0.333-1.037,0.8-1.374,1.401v10.979h-2.693v-14.793
				H198.498z"/>
			<path fill="#799DC4" d="M214.918,318.832h-2.693v-2.748h2.693V318.832z M214.918,337.412h-2.693v-14.793h2.693V337.412z"/>
			<path fill="#799DC4" d="M228.152,337.412c-0.091-0.446-0.162-0.841-0.212-1.183c-0.05-0.342-0.08-0.686-0.089-1.032
				c-0.501,0.711-1.155,1.306-1.962,1.784s-1.675,0.718-2.604,0.718c-1.541,0-2.714-0.394-3.521-1.183
				c-0.807-0.788-1.21-1.875-1.21-3.261c0-1.413,0.572-2.518,1.716-3.315c1.144-0.797,2.695-1.196,4.655-1.196h2.926v-1.463
				c0-0.866-0.265-1.552-0.793-2.058c-0.529-0.506-1.276-0.759-2.242-0.759c-0.875,0-1.582,0.219-2.119,0.656
				c-0.538,0.438-0.807,0.962-0.807,1.572l-2.557,0.027l-0.027-0.082c-0.064-1.075,0.439-2.06,1.511-2.953
				c1.071-0.893,2.454-1.34,4.149-1.34c1.677,0,3.026,0.426,4.047,1.278c1.021,0.853,1.531,2.081,1.531,3.685v7.123
				c0,0.529,0.027,1.039,0.082,1.531s0.155,0.976,0.301,1.449H228.152z M223.682,335.443c0.975,0,1.854-0.25,2.639-0.752
				c0.784-0.501,1.294-1.075,1.531-1.723v-2.406h-3.021c-1.085,0-1.953,0.273-2.604,0.82c-0.652,0.547-0.978,1.189-0.978,1.928
				c0,0.656,0.205,1.176,0.615,1.559S222.879,335.443,223.682,335.443z"/>
		</g>
		<g>
			<path fill="#A7A9AC" d="M103.723,277.604v4.848h-1.635v-12.086h4.624c1.29,0,2.292,0.332,3.009,0.996
				c0.716,0.664,1.075,1.538,1.075,2.623c0,1.096-0.358,1.973-1.075,2.631c-0.717,0.659-1.72,0.988-3.009,0.988H103.723z
				 M103.723,276.326h2.988c0.819,0,1.431-0.22,1.834-0.66c0.404-0.439,0.606-0.994,0.606-1.664s-0.204-1.229-0.61-1.677
				c-0.407-0.448-1.017-0.672-1.831-0.672h-2.988V276.326z"/>
			<path fill="#A7A9AC" d="M117.25,282.452c-0.055-0.271-0.098-0.511-0.129-0.718c-0.03-0.208-0.048-0.417-0.054-0.627
				c-0.304,0.432-0.701,0.793-1.191,1.083c-0.489,0.291-1.017,0.436-1.581,0.436c-0.935,0-1.647-0.239-2.138-0.718
				c-0.489-0.479-0.734-1.139-0.734-1.979c0-0.857,0.347-1.528,1.042-2.013c0.694-0.484,1.636-0.727,2.826-0.727h1.776v-0.888
				c0-0.526-0.161-0.942-0.481-1.25c-0.321-0.307-0.775-0.461-1.361-0.461c-0.531,0-0.96,0.133-1.287,0.398s-0.49,0.584-0.49,0.955
				l-1.552,0.017l-0.017-0.05c-0.039-0.653,0.267-1.251,0.917-1.793c0.65-0.542,1.49-0.813,2.519-0.813
				c1.018,0,1.837,0.259,2.457,0.776s0.93,1.263,0.93,2.236v4.325c0,0.321,0.017,0.631,0.05,0.93s0.094,0.592,0.183,0.88H117.25z
				 M114.536,281.257c0.592,0,1.126-0.152,1.602-0.457c0.476-0.304,0.786-0.652,0.93-1.045v-1.461h-1.834
				c-0.659,0-1.186,0.166-1.582,0.498c-0.396,0.332-0.593,0.722-0.593,1.17c0,0.398,0.125,0.714,0.374,0.946
				S114.049,281.257,114.536,281.257z"/>
			<path fill="#A7A9AC" d="M124.477,274.915l-0.838-0.05c-0.432,0-0.795,0.103-1.092,0.308c-0.296,0.204-0.524,0.492-0.685,0.863
				v6.416h-1.635v-8.981h1.461l0.158,1.312c0.254-0.465,0.568-0.827,0.942-1.088c0.373-0.26,0.804-0.39,1.291-0.39
				c0.122,0,0.238,0.01,0.349,0.029s0.202,0.04,0.274,0.062L124.477,274.915z"/>
			<path fill="#A7A9AC" d="M127.744,271.304v2.167h1.702v1.212h-1.702v5.453c0,0.421,0.087,0.717,0.261,0.889
				c0.175,0.172,0.406,0.258,0.693,0.258c0.094,0,0.199-0.013,0.315-0.038c0.116-0.024,0.213-0.051,0.291-0.079l0.224,1.121
				c-0.122,0.1-0.302,0.182-0.54,0.245s-0.473,0.095-0.706,0.095c-0.664,0-1.192-0.2-1.585-0.602s-0.589-1.03-0.589-1.889v-5.453
				h-1.428v-1.212h1.428v-2.167H127.744z"/>
			<path fill="#A7A9AC" d="M132.115,271.171h-1.635v-1.668h1.635V271.171z M132.115,282.452h-1.635v-8.981h1.635V282.452z"/>
			<path fill="#A7A9AC" d="M137.35,281.349c0.503,0,0.943-0.168,1.32-0.503s0.564-0.745,0.564-1.232h1.478l0.025,0.05
				c0.022,0.774-0.31,1.462-0.996,2.063s-1.483,0.9-2.391,0.9c-1.262,0-2.236-0.429-2.922-1.286s-1.029-1.926-1.029-3.204v-0.349
				c0-1.268,0.344-2.331,1.034-3.191c0.688-0.86,1.661-1.291,2.917-1.291c1.001,0,1.822,0.31,2.461,0.93
				c0.639,0.62,0.947,1.381,0.925,2.282l-0.017,0.051h-1.486c0-0.549-0.179-1.015-0.535-1.399c-0.357-0.385-0.807-0.577-1.349-0.577
				c-0.802,0-1.388,0.312-1.755,0.935c-0.368,0.622-0.552,1.376-0.552,2.262v0.349c0,0.902,0.181,1.663,0.543,2.283
				C135.948,281.038,136.536,281.349,137.35,281.349z"/>
			<path fill="#A7A9AC" d="M143.597,271.171h-1.635v-1.668h1.635V271.171z M143.597,282.452h-1.635v-8.981h1.635V282.452z"/>
			<path fill="#A7A9AC" d="M152.915,278.302c0,1.295-0.31,2.34-0.93,3.134s-1.475,1.19-2.565,1.19c-0.553,0-1.039-0.092-1.457-0.277
				c-0.417-0.186-0.773-0.464-1.066-0.834v4.391h-1.635v-12.435h1.253l0.257,1.162c0.293-0.432,0.659-0.761,1.096-0.987
				c0.437-0.228,0.946-0.341,1.527-0.341c1.112,0,1.977,0.441,2.594,1.324c0.617,0.883,0.925,2.049,0.925,3.499V278.302z
				 M151.28,278.128c0-1.019-0.201-1.855-0.602-2.512c-0.401-0.655-0.992-0.983-1.772-0.983c-0.47,0-0.872,0.106-1.204,0.319
				s-0.601,0.505-0.805,0.876v4.341c0.205,0.371,0.473,0.66,0.805,0.868c0.332,0.207,0.739,0.312,1.22,0.312
				c0.775,0,1.361-0.284,1.76-0.852s0.598-1.299,0.598-2.195V278.128z"/>
			<path fill="#A7A9AC" d="M159.594,282.452c-0.055-0.271-0.098-0.511-0.129-0.718c-0.03-0.208-0.048-0.417-0.054-0.627
				c-0.304,0.432-0.701,0.793-1.191,1.083c-0.489,0.291-1.017,0.436-1.581,0.436c-0.935,0-1.647-0.239-2.138-0.718
				c-0.489-0.479-0.734-1.139-0.734-1.979c0-0.857,0.347-1.528,1.042-2.013c0.694-0.484,1.636-0.727,2.826-0.727h1.776v-0.888
				c0-0.526-0.161-0.942-0.481-1.25c-0.321-0.307-0.775-0.461-1.361-0.461c-0.531,0-0.96,0.133-1.287,0.398s-0.49,0.584-0.49,0.955
				l-1.552,0.017l-0.017-0.05c-0.039-0.653,0.267-1.251,0.917-1.793c0.65-0.542,1.49-0.813,2.519-0.813
				c1.018,0,1.837,0.259,2.457,0.776s0.93,1.263,0.93,2.236v4.325c0,0.321,0.017,0.631,0.05,0.93s0.094,0.592,0.183,0.88H159.594z
				 M156.88,281.257c0.592,0,1.126-0.152,1.602-0.457c0.476-0.304,0.786-0.652,0.93-1.045v-1.461h-1.834
				c-0.659,0-1.186,0.166-1.582,0.498c-0.396,0.332-0.593,0.722-0.593,1.17c0,0.398,0.125,0.714,0.374,0.946
				S156.393,281.257,156.88,281.257z"/>
			<path fill="#A7A9AC" d="M164.845,271.304v2.167h1.702v1.212h-1.702v5.453c0,0.421,0.087,0.717,0.261,0.889
				c0.175,0.172,0.406,0.258,0.693,0.258c0.094,0,0.199-0.013,0.315-0.038c0.116-0.024,0.213-0.051,0.291-0.079l0.224,1.121
				c-0.122,0.1-0.302,0.182-0.54,0.245s-0.473,0.095-0.706,0.095c-0.664,0-1.192-0.2-1.585-0.602s-0.589-1.03-0.589-1.889v-5.453
				h-1.428v-1.212h1.428v-2.167H164.845z"/>
			<path fill="#A7A9AC" d="M169.216,271.171h-1.635v-1.668h1.635V271.171z M169.216,282.452h-1.635v-8.981h1.635V282.452z"/>
			<path fill="#A7A9AC" d="M170.5,277.878c0-1.328,0.36-2.422,1.079-3.282s1.696-1.291,2.93-1.291c1.245,0,2.229,0.429,2.951,1.286
				c0.722,0.858,1.083,1.954,1.083,3.287v0.184c0,1.339-0.36,2.435-1.079,3.287c-0.719,0.852-1.699,1.277-2.938,1.277
				s-2.221-0.427-2.942-1.282c-0.723-0.854-1.083-1.949-1.083-3.282V277.878z M172.135,278.062c0,0.951,0.201,1.737,0.602,2.357
				c0.401,0.619,0.998,0.93,1.789,0.93c0.78,0,1.373-0.311,1.776-0.93c0.404-0.62,0.606-1.406,0.606-2.357v-0.184
				c0-0.94-0.204-1.724-0.61-2.349c-0.407-0.625-1.003-0.938-1.789-0.938c-0.78,0-1.371,0.313-1.772,0.938
				c-0.401,0.625-0.602,1.408-0.602,2.349V278.062z"/>
			<path fill="#A7A9AC" d="M181.154,273.471l0.116,1.337c0.299-0.477,0.674-0.846,1.125-1.108c0.451-0.263,0.964-0.395,1.54-0.395
				c0.968,0,1.718,0.283,2.25,0.851s0.797,1.443,0.797,2.627v5.67h-1.635v-5.637c0-0.791-0.156-1.353-0.469-1.685
				c-0.313-0.332-0.79-0.498-1.432-0.498c-0.503,0-0.931,0.101-1.283,0.303c-0.351,0.202-0.629,0.485-0.834,0.851v6.666h-1.635
				v-8.981H181.154z"/>
			<path fill="#A7A9AC" d="M191.499,277.878c0-1.328,0.36-2.422,1.079-3.282s1.696-1.291,2.93-1.291
				c1.245,0,2.229,0.429,2.951,1.286c0.722,0.858,1.083,1.954,1.083,3.287v0.184c0,1.339-0.36,2.435-1.079,3.287
				c-0.719,0.852-1.699,1.277-2.938,1.277s-2.221-0.427-2.942-1.282c-0.723-0.854-1.083-1.949-1.083-3.282V277.878z
				 M193.134,278.062c0,0.951,0.201,1.737,0.602,2.357c0.401,0.619,0.998,0.93,1.789,0.93c0.78,0,1.373-0.311,1.776-0.93
				c0.404-0.62,0.606-1.406,0.606-2.357v-0.184c0-0.94-0.204-1.724-0.61-2.349c-0.407-0.625-1.003-0.938-1.789-0.938
				c-0.78,0-1.371,0.313-1.772,0.938c-0.401,0.625-0.602,1.408-0.602,2.349V278.062z"/>
			<path fill="#A7A9AC" d="M201.374,282.452v-7.77h-1.403v-1.212h1.403v-1.138c0-0.957,0.25-1.697,0.751-2.22
				c0.5-0.523,1.199-0.784,2.096-0.784c0.188,0,0.378,0.015,0.568,0.045c0.191,0.03,0.403,0.073,0.635,0.129l-0.199,1.245
				c-0.1-0.022-0.22-0.042-0.361-0.058c-0.142-0.018-0.29-0.025-0.444-0.025c-0.476,0-0.83,0.143-1.063,0.428
				s-0.349,0.698-0.349,1.24v1.138h1.627v1.212h-1.627v7.77H201.374z"/>
			<path fill="#A7A9AC" d="M211.112,279.182l0.208,1.153h0.05l0.216-1.153l1.793-5.711h1.312l1.801,5.711l0.232,1.286h0.05
				l0.266-1.286l1.328-5.711h1.71l-2.606,8.981h-1.32l-1.776-5.471l-0.34-1.428h-0.05l-0.315,1.428l-1.743,5.471h-1.32l-2.606-8.981
				h1.702L211.112,279.182z"/>
			<path fill="#A7A9AC" d="M220.447,277.878c0-1.328,0.36-2.422,1.079-3.282s1.696-1.291,2.93-1.291
				c1.245,0,2.229,0.429,2.951,1.286c0.722,0.858,1.083,1.954,1.083,3.287v0.184c0,1.339-0.36,2.435-1.079,3.287
				c-0.719,0.852-1.699,1.277-2.938,1.277s-2.221-0.427-2.942-1.282c-0.723-0.854-1.083-1.949-1.083-3.282V277.878z
				 M222.083,278.062c0,0.951,0.201,1.737,0.602,2.357c0.401,0.619,0.998,0.93,1.789,0.93c0.78,0,1.373-0.311,1.776-0.93
				c0.404-0.62,0.606-1.406,0.606-2.357v-0.184c0-0.94-0.204-1.724-0.61-2.349c-0.407-0.625-1.003-0.938-1.789-0.938
				c-0.78,0-1.371,0.313-1.772,0.938c-0.401,0.625-0.602,1.408-0.602,2.349V278.062z"/>
			<path fill="#A7A9AC" d="M231.102,273.471l0.116,1.179c0.293-0.426,0.666-0.757,1.117-0.992c0.451-0.235,0.975-0.353,1.573-0.353
				s1.111,0.139,1.54,0.415c0.429,0.276,0.751,0.691,0.967,1.245c0.288-0.515,0.663-0.92,1.125-1.216
				c0.462-0.296,1.003-0.444,1.623-0.444c0.913,0,1.635,0.314,2.167,0.942s0.797,1.572,0.797,2.834v5.371h-1.635v-5.387
				c0-0.886-0.152-1.513-0.457-1.881s-0.758-0.552-1.361-0.552c-0.559,0-1.011,0.193-1.357,0.581
				c-0.346,0.388-0.549,0.877-0.61,1.469v0.066v5.703h-1.644v-5.387c0-0.842-0.156-1.457-0.469-1.848
				c-0.313-0.39-0.763-0.585-1.349-0.585c-0.498,0-0.908,0.103-1.229,0.308c-0.321,0.204-0.567,0.492-0.739,0.863v6.648h-1.635
				v-8.981H231.102z"/>
			<path fill="#A7A9AC" d="M247.368,282.626c-1.29,0-2.295-0.412-3.017-1.236c-0.723-0.824-1.083-1.909-1.083-3.254v-0.365
				c0-1.289,0.372-2.356,1.117-3.2c0.744-0.844,1.653-1.266,2.727-1.266c1.201,0,2.102,0.374,2.702,1.12
				c0.6,0.748,0.9,1.741,0.9,2.98v0.863h-5.744l-0.025,0.041c0,0.902,0.199,1.635,0.598,2.196s1.007,0.843,1.826,0.843
				c0.553,0,1.039-0.079,1.457-0.237c0.418-0.157,0.776-0.375,1.075-0.651l0.639,1.063c-0.321,0.31-0.744,0.571-1.27,0.784
				S248.11,282.626,247.368,282.626z M247.111,274.591c-0.57,0-1.042,0.221-1.415,0.66c-0.374,0.44-0.602,1.003-0.685,1.689
				l0.017,0.041h4.051v-0.133c0-0.652-0.161-1.192-0.481-1.618S247.78,274.591,247.111,274.591z"/>
			<path fill="#A7A9AC" d="M253.159,273.471l0.116,1.337c0.299-0.477,0.674-0.846,1.125-1.108c0.451-0.263,0.964-0.395,1.54-0.395
				c0.968,0,1.718,0.283,2.25,0.851s0.797,1.443,0.797,2.627v5.67h-1.635v-5.637c0-0.791-0.156-1.353-0.469-1.685
				c-0.313-0.332-0.79-0.498-1.432-0.498c-0.503,0-0.931,0.101-1.283,0.303c-0.351,0.202-0.629,0.485-0.834,0.851v6.666h-1.635
				v-8.981H253.159z"/>
			<path fill="#A7A9AC" d="M112.488,291.571h-1.635v-1.668h1.635V291.571z M112.488,302.853h-1.635v-8.981h1.635V302.853z"/>
			<path fill="#A7A9AC" d="M115.614,293.871l0.116,1.337c0.299-0.477,0.674-0.846,1.125-1.108c0.451-0.263,0.964-0.395,1.54-0.395
				c0.968,0,1.718,0.283,2.25,0.851s0.797,1.443,0.797,2.627v5.67h-1.635v-5.637c0-0.791-0.156-1.353-0.469-1.685
				c-0.313-0.332-0.79-0.498-1.432-0.498c-0.503,0-0.931,0.101-1.283,0.303c-0.351,0.202-0.629,0.485-0.834,0.851v6.666h-1.635
				v-8.981H115.614z"/>
			<path fill="#A7A9AC" d="M128.2,301.574h5.894v1.278h-7.529v-12.086h1.635V301.574z"/>
			<path fill="#A7A9AC" d="M134.455,298.278c0-1.328,0.36-2.422,1.079-3.282s1.696-1.291,2.93-1.291
				c1.245,0,2.229,0.429,2.951,1.286c0.722,0.858,1.083,1.954,1.083,3.287v0.184c0,1.339-0.36,2.435-1.079,3.287
				c-0.719,0.852-1.699,1.277-2.938,1.277s-2.221-0.427-2.942-1.282c-0.723-0.854-1.083-1.949-1.083-3.282V298.278z M136.09,298.462
				c0,0.951,0.201,1.737,0.602,2.357c0.401,0.619,0.998,0.93,1.789,0.93c0.78,0,1.373-0.311,1.776-0.93
				c0.404-0.62,0.606-1.406,0.606-2.357v-0.184c0-0.94-0.204-1.724-0.61-2.349c-0.407-0.625-1.003-0.938-1.789-0.938
				c-0.78,0-1.371,0.313-1.772,0.938c-0.401,0.625-0.602,1.408-0.602,2.349V298.462z"/>
			<path fill="#A7A9AC" d="M147.218,301.749c0.503,0,0.943-0.168,1.32-0.503s0.564-0.745,0.564-1.232h1.478l0.025,0.05
				c0.022,0.774-0.31,1.462-0.996,2.063s-1.483,0.9-2.391,0.9c-1.262,0-2.236-0.429-2.922-1.286s-1.029-1.926-1.029-3.204v-0.349
				c0-1.268,0.344-2.331,1.034-3.191c0.688-0.86,1.661-1.291,2.917-1.291c1.001,0,1.822,0.31,2.461,0.93
				c0.639,0.62,0.947,1.381,0.925,2.282l-0.017,0.051h-1.486c0-0.549-0.179-1.015-0.535-1.399c-0.357-0.385-0.807-0.577-1.349-0.577
				c-0.802,0-1.388,0.312-1.755,0.935c-0.368,0.622-0.552,1.376-0.552,2.262v0.349c0,0.902,0.181,1.663,0.543,2.283
				C145.817,301.438,146.405,301.749,147.218,301.749z"/>
			<path fill="#A7A9AC" d="M157.217,302.853c-0.055-0.271-0.098-0.511-0.129-0.718c-0.03-0.208-0.048-0.417-0.054-0.627
				c-0.304,0.432-0.701,0.793-1.191,1.083c-0.489,0.291-1.017,0.436-1.581,0.436c-0.935,0-1.647-0.239-2.138-0.718
				c-0.489-0.479-0.734-1.139-0.734-1.979c0-0.857,0.347-1.528,1.042-2.013c0.694-0.484,1.636-0.727,2.826-0.727h1.776v-0.888
				c0-0.526-0.161-0.942-0.481-1.25c-0.321-0.307-0.775-0.461-1.361-0.461c-0.531,0-0.96,0.133-1.287,0.398s-0.49,0.584-0.49,0.955
				l-1.552,0.017l-0.017-0.05c-0.039-0.653,0.267-1.251,0.917-1.793c0.65-0.542,1.49-0.813,2.519-0.813
				c1.018,0,1.837,0.259,2.457,0.776s0.93,1.263,0.93,2.236v4.325c0,0.321,0.017,0.631,0.05,0.93s0.094,0.592,0.183,0.88H157.217z
				 M154.503,301.657c0.592,0,1.126-0.152,1.602-0.457c0.476-0.304,0.786-0.652,0.93-1.045v-1.461H155.2
				c-0.659,0-1.186,0.166-1.582,0.498c-0.396,0.332-0.593,0.722-0.593,1.17c0,0.398,0.125,0.714,0.374,0.946
				S154.016,301.657,154.503,301.657z"/>
			<path fill="#A7A9AC" d="M161.962,302.853h-1.635v-12.949h1.635V302.853z"/>
			<path fill="#A7A9AC" d="M175.917,301.226c-0.288,0.448-0.787,0.86-1.499,1.236c-0.711,0.377-1.634,0.564-2.768,0.564
				c-1.395,0-2.548-0.462-3.461-1.386s-1.37-2.119-1.37-3.586v-2.49c0-1.467,0.44-2.662,1.32-3.586s2.014-1.386,3.403-1.386
				c1.345,0,2.407,0.357,3.188,1.074s1.159,1.629,1.137,2.735l-0.017,0.05h-1.569c0-0.736-0.238-1.349-0.714-1.839
				c-0.476-0.489-1.151-0.734-2.025-0.734c-0.924,0-1.668,0.346-2.233,1.038c-0.564,0.691-0.847,1.568-0.847,2.631v2.507
				c0,1.073,0.299,1.958,0.896,2.652s1.361,1.042,2.291,1.042c0.714,0,1.28-0.093,1.698-0.278c0.417-0.186,0.729-0.405,0.934-0.66
				v-2.723h-2.739v-1.278h4.375V301.226z"/>
			<path fill="#A7A9AC" d="M177.284,298.278c0-1.328,0.36-2.422,1.079-3.282s1.696-1.291,2.93-1.291
				c1.245,0,2.229,0.429,2.951,1.286c0.722,0.858,1.083,1.954,1.083,3.287v0.184c0,1.339-0.36,2.435-1.079,3.287
				c-0.719,0.852-1.699,1.277-2.938,1.277s-2.221-0.427-2.942-1.282c-0.723-0.854-1.083-1.949-1.083-3.282V298.278z
				 M178.919,298.462c0,0.951,0.201,1.737,0.602,2.357c0.401,0.619,0.998,0.93,1.789,0.93c0.78,0,1.373-0.311,1.776-0.93
				c0.404-0.62,0.606-1.406,0.606-2.357v-0.184c0-0.94-0.204-1.724-0.61-2.349c-0.407-0.625-1.003-0.938-1.789-0.938
				c-0.78,0-1.371,0.313-1.772,0.938c-0.401,0.625-0.602,1.408-0.602,2.349V298.462z"/>
			<path fill="#A7A9AC" d="M189.35,300.204l0.141,0.631h0.05l0.158-0.631l2.067-6.333h1.668l-3.304,8.981h-1.237l-3.345-8.981h1.677
				L189.35,300.204z"/>
			<path fill="#A7A9AC" d="M197.664,303.026c-1.29,0-2.295-0.412-3.017-1.236c-0.723-0.824-1.083-1.909-1.083-3.254v-0.365
				c0-1.289,0.372-2.356,1.117-3.2c0.744-0.844,1.653-1.266,2.727-1.266c1.201,0,2.102,0.374,2.702,1.12
				c0.6,0.748,0.9,1.741,0.9,2.98v0.863h-5.744l-0.025,0.041c0,0.902,0.199,1.635,0.598,2.196s1.007,0.843,1.826,0.843
				c0.553,0,1.039-0.079,1.457-0.237c0.418-0.157,0.776-0.375,1.075-0.651l0.639,1.063c-0.321,0.31-0.744,0.571-1.27,0.784
				S198.405,303.026,197.664,303.026z M197.406,294.991c-0.57,0-1.042,0.221-1.415,0.66c-0.374,0.44-0.602,1.003-0.685,1.689
				l0.017,0.041h4.051v-0.133c0-0.652-0.161-1.192-0.481-1.618S198.076,294.991,197.406,294.991z"/>
			<path fill="#A7A9AC" d="M206.244,295.315l-0.838-0.05c-0.432,0-0.795,0.103-1.092,0.308c-0.296,0.204-0.524,0.492-0.685,0.863
				v6.416h-1.635v-8.981h1.461l0.158,1.312c0.254-0.465,0.568-0.827,0.942-1.088c0.373-0.26,0.804-0.39,1.291-0.39
				c0.122,0,0.238,0.01,0.349,0.029s0.202,0.04,0.274,0.062L206.244,295.315z"/>
			<path fill="#A7A9AC" d="M208.556,293.871l0.116,1.337c0.299-0.477,0.674-0.846,1.125-1.108c0.451-0.263,0.964-0.395,1.54-0.395
				c0.968,0,1.718,0.283,2.25,0.851s0.797,1.443,0.797,2.627v5.67h-1.635v-5.637c0-0.791-0.156-1.353-0.469-1.685
				c-0.313-0.332-0.79-0.498-1.432-0.498c-0.503,0-0.931,0.101-1.283,0.303c-0.351,0.202-0.629,0.485-0.834,0.851v6.666h-1.635
				v-8.981H208.556z"/>
			<path fill="#A7A9AC" d="M217.368,293.871l0.116,1.179c0.293-0.426,0.666-0.757,1.117-0.992c0.451-0.235,0.975-0.353,1.573-0.353
				s1.111,0.139,1.54,0.415c0.429,0.276,0.751,0.691,0.967,1.245c0.288-0.515,0.663-0.92,1.125-1.216
				c0.462-0.296,1.003-0.444,1.623-0.444c0.913,0,1.635,0.314,2.167,0.942s0.797,1.572,0.797,2.834v5.371h-1.635v-5.387
				c0-0.886-0.152-1.513-0.457-1.881s-0.758-0.552-1.361-0.552c-0.559,0-1.011,0.193-1.357,0.581
				c-0.346,0.388-0.549,0.877-0.61,1.469v0.066v5.703h-1.644v-5.387c0-0.842-0.156-1.457-0.469-1.848
				c-0.313-0.39-0.763-0.585-1.349-0.585c-0.498,0-0.908,0.103-1.229,0.308c-0.321,0.204-0.567,0.492-0.739,0.863v6.648h-1.635
				v-8.981H217.368z"/>
			<path fill="#A7A9AC" d="M233.634,303.026c-1.29,0-2.295-0.412-3.017-1.236c-0.723-0.824-1.083-1.909-1.083-3.254v-0.365
				c0-1.289,0.372-2.356,1.117-3.2c0.744-0.844,1.653-1.266,2.727-1.266c1.201,0,2.102,0.374,2.702,1.12
				c0.6,0.748,0.9,1.741,0.9,2.98v0.863h-5.744l-0.025,0.041c0,0.902,0.199,1.635,0.598,2.196s1.007,0.843,1.826,0.843
				c0.553,0,1.039-0.079,1.457-0.237c0.418-0.157,0.776-0.375,1.075-0.651l0.639,1.063c-0.321,0.31-0.744,0.571-1.27,0.784
				S234.376,303.026,233.634,303.026z M233.377,294.991c-0.57,0-1.042,0.221-1.415,0.66c-0.374,0.44-0.602,1.003-0.685,1.689
				l0.017,0.041h4.051v-0.133c0-0.652-0.161-1.192-0.481-1.618S234.046,294.991,233.377,294.991z"/>
			<path fill="#A7A9AC" d="M239.425,293.871l0.116,1.337c0.299-0.477,0.674-0.846,1.125-1.108c0.451-0.263,0.964-0.395,1.54-0.395
				c0.968,0,1.718,0.283,2.25,0.851s0.797,1.443,0.797,2.627v5.67h-1.635v-5.637c0-0.791-0.156-1.353-0.469-1.685
				c-0.313-0.332-0.79-0.498-1.432-0.498c-0.503,0-0.931,0.101-1.283,0.303c-0.351,0.202-0.629,0.485-0.834,0.851v6.666h-1.635
				v-8.981H239.425z"/>
			<path fill="#A7A9AC" d="M249.051,291.704v2.167h1.702v1.212h-1.702v5.453c0,0.421,0.087,0.717,0.261,0.889
				c0.175,0.172,0.406,0.258,0.693,0.258c0.094,0,0.199-0.013,0.315-0.038c0.116-0.024,0.213-0.051,0.291-0.079l0.224,1.121
				c-0.122,0.1-0.302,0.182-0.54,0.245s-0.473,0.095-0.706,0.095c-0.664,0-1.192-0.2-1.585-0.602s-0.589-1.03-0.589-1.889v-5.453
				h-1.428v-1.212h1.428v-2.167H249.051z"/>
		</g>
	</g>
	<g>
		<g>
			<path fill="#0074A8" d="M152.845,244.673h-5.256v4.579h6.152v1.354h-7.884v-12.797h7.787v1.362h-6.056v4.14h5.256V244.673z"/>
			<path fill="#0074A8" d="M157.16,249.252h6.24v1.354h-7.972v-12.797h1.731V249.252z"/>
			<path fill="#0074A8" d="M171.953,244.673h-5.256v4.579h6.152v1.354h-7.884v-12.797h7.787v1.362h-6.056v4.14h5.256V244.673z"/>
			<path fill="#0074A8" d="M183.669,246.51l0.018,0.053c0.023,1.201-0.398,2.206-1.266,3.015s-2.013,1.213-3.437,1.213
				c-1.447,0-2.626-0.513-3.538-1.538s-1.367-2.326-1.367-3.902v-2.276c0-1.576,0.456-2.878,1.367-3.907s2.09-1.542,3.538-1.542
				s2.599,0.385,3.454,1.156s1.271,1.792,1.248,3.063l-0.018,0.053h-1.661c0-0.896-0.264-1.605-0.791-2.127
				s-1.271-0.782-2.232-0.782c-0.967,0-1.737,0.39-2.312,1.169s-0.861,1.746-0.861,2.9v2.294c0,1.166,0.287,2.139,0.861,2.918
				s1.345,1.169,2.312,1.169c0.961,0,1.705-0.259,2.232-0.778s0.791-1.235,0.791-2.149H183.669z"/>
			<path fill="#0074A8" d="M194.269,239.171h-4.219v11.435h-1.731v-11.435h-4.166v-1.362h10.116V239.171z"/>
			<path fill="#0074A8" d="M202.716,244.673h-5.256v4.579h6.152v1.354h-7.884v-12.797h7.787v1.362h-6.056v4.14h5.256V244.673z"/>
			<path fill="#0074A8" d="M205.3,250.605v-12.797h4.025c1.67,0,3.014,0.514,4.03,1.542s1.524,2.357,1.524,3.986v1.749
				c0,1.635-0.508,2.963-1.524,3.986s-2.36,1.534-4.03,1.534H205.3z M207.031,239.171v10.081h2.294c1.184,0,2.117-0.39,2.8-1.169
				s1.023-1.778,1.023-2.997v-1.767c0-1.207-0.341-2.2-1.023-2.979s-1.616-1.169-2.8-1.169H207.031z"/>
		</g>
		<g>
			<path fill="#0074A8" d="M172.209,214.969h-10.262v-40.18l-10.009,3.866v-8.527l19.187-7.841h1.084V214.969z"/>
			<path fill="#0074A8" d="M203.27,194.626c-2.168,2.216-4.541,3.324-7.118,3.324c-3.999,0-7.149-1.608-9.449-4.824
				s-3.45-7.509-3.45-12.881c0-3.469,0.65-6.642,1.951-9.521c1.301-2.878,3.113-5.113,5.438-6.703s4.92-2.385,7.787-2.385
				c2.963,0,5.601,0.879,7.913,2.638c2.313,1.759,4.106,4.282,5.384,7.57c1.276,3.288,1.915,7.028,1.915,11.219v3.722
				c0,8.961-1.97,15.965-5.908,21.011c-3.938,5.047-9.521,7.618-16.747,7.714h-1.048v-8.816h0.687
				c3.998-0.024,7.003-1.06,9.015-3.107C201.649,201.54,202.859,198.553,203.27,194.626z M198.753,189.929
				c1.975,0,3.528-1.354,4.661-4.062v-4.715c0-3.457-0.47-6.171-1.409-8.141s-2.156-2.956-3.649-2.956
				c-1.47,0-2.656,0.973-3.56,2.919c-0.903,1.947-1.354,4.322-1.354,7.126c0,3.046,0.47,5.446,1.409,7.198
				C195.79,189.053,197.091,189.929,198.753,189.929z"/>
		</g>
		<g opacity="0.6">
			<g>
				<rect x="144" y="222.955" fill="#66ABCB" width="72" height="3"/>
			</g>
		</g>
	</g>
</g>
</svg>
