<?xml version="1.0" encoding="utf-8"?>
<!-- Generator: Adobe Illustrator 16.0.0, SVG Export Plug-In . SVG Version: 6.00 Build 0)  -->
<!DOCTYPE svg PUBLIC "-//W3C//DTD SVG 1.1//EN" "http://www.w3.org/Graphics/SVG/1.1/DTD/svg11.dtd">
<svg version="1.1" xmlns="http://www.w3.org/2000/svg" xmlns:xlink="http://www.w3.org/1999/xlink" x="0px" y="0px" width="100%"
	 height="100%" viewBox="0 0 360 360" enable-background="new 0 0 360 360" xml:space="preserve" class="c-infographic-svg">
<g id="Layer_1">
	<g>
		<rect fill="#FEF1E1" width="360" height="360"/>
	</g>
	<g id="bullets">
		<g id="bullet-1">
			<path class="element-to-color" fill="#FDD1A7" d="M205.231,82.021h-14.423c0.771-12.063,4.363-20.306,4.53-20.691l2.682-6.052l2.683,6.052
				C200.876,61.716,204.472,69.958,205.231,82.021z M189.594,87.892v5.868h1.396h15.1h0.363v-5.868H189.594z M207.366,99.631
				h-17.645h-1.849v47.08h20.302v-47.08H207.366z"/>
		</g>
		<g id="bullet-2">
			<path class="element-to-color" fill="#FDD1A7" d="M231.405,82.021h-14.422c0.761-12.063,4.356-20.306,4.53-20.691l2.683-6.052l2.681,6.052
				C227.049,61.716,230.645,69.958,231.405,82.021z M215.763,87.892v5.868h2.616h14.251v-5.868H215.763z M217.101,99.631h-3.055
				v47.08h20.296v-47.08H217.101z"/>
		</g>
		<g id="bullet-3">
			<path class="element-to-color" fill="#FDD1A7" d="M257.574,82.021h-14.425c0.761-12.063,4.354-20.306,4.53-20.691l2.683-6.052l2.679,6.052
				C253.216,61.716,256.811,69.958,257.574,82.021z M241.927,87.892v5.868h3.833h13.034v-5.868H241.927z M244.482,99.631h-4.27
				v47.08h20.295v-47.08H244.482z"/>
		</g>
		<g id="bullet-4">
			<path class="element-to-color" fill="#FDD1A7" d="M283.738,82.021h-14.424c0.76-12.063,4.356-20.306,4.53-20.691l2.683-6.052l2.682,6.052
				C279.382,61.716,282.978,69.958,283.738,82.021z M268.093,87.892v5.868h5.046h11.813v-5.868H268.093z M271.861,99.631h-5.482
				v47.08h20.296v-47.08H271.861z"/>
		</g>
		<g id="bullet-5">
			<path fill="#FDD1A7" d="M311.221,82.021h-14.423c0.76-12.063,4.355-20.306,4.53-20.691l2.682-6.052l2.681,6.052
				C306.858,61.716,310.452,69.958,311.221,82.021z M295.576,87.892v5.868h5.045h11.814v-5.868H295.576z M299.345,99.631h-5.482
				v47.08h20.296v-47.08H299.345z"/>
		</g>
	</g>
	<g>
		<g>
			<path id="rifle" fill="#F48466" d="M30.21,127.314l7.047,11.229c0.806,1.285,1.722,2.501,2.734,3.632c0.139,0.15,0.323,0.256,0.522,0.294
				l0.604,0.117c0.792-0.127,1.543-0.439,2.195-0.911c0.293-0.21,0.567-0.442,0.827-0.693l0.13-0.126l19.95-22.758l1.404-1.424
				l3.382-3.083l1.569-1.317l2.28-1.833l1.655-1.081c0.871-0.57,1.855-0.949,2.887-1.082c0.1-0.012,0.19-0.024,0.272-0.027
				c1.167,0.307,2.196,0.998,2.928,1.955c0.102,0.139,0.489,2.35,0.489,2.35l-0.033,0.121l-2.47,13.202l-0.02,0.224
				c-0.033,0.337,0.073,0.679,0.289,0.94l0.752,0.07l0.74-0.125l7.16-1.447c0.331-0.068,0.632-0.234,0.868-0.476l0.311-0.319
				c0.232-0.239,0.307-0.588,0.194-0.901l-0.018-0.045c-0.082-0.228-0.204-0.439-0.362-0.624c-0.201-0.235-0.467-0.567-0.516-0.748
				c-0.157-0.569-0.232-1.157-0.227-1.748l0.063-8.426l10.693-6.376l1.604,2.33c2.292,3.332,4.902,6.43,7.793,9.256l3.707,3.627
				l9.65-7.203l-6.088-6.509c-2.853-3.049-5.314-6.444-7.325-10.104l-2.904-5.283l0.36-1.122l0.943-0.649l-0.017-0.902l3.702-2.357
				l0.176,0.304l0.087,0.152c0.436,0.405,0.985,0.672,1.575,0.762l0.93-0.292l45.826-26.938l-0.213-0.765
				c-0.037-0.125,0.018-0.256,0.128-0.32l0.273-0.16c0.439-0.257,0.599-0.814,0.361-1.265l-0.062-0.119
				c-0.15-0.287-0.047-0.64,0.235-0.801l3.756-2.133l1.082,1.844c0.163,0.278,0.513,0.382,0.8,0.237l0.453-0.228
				c0.327-0.16,0.448-0.562,0.268-0.879l-1.082-1.891l19.237-10.706l0.283,0.501l0.482-0.274l-0.283-0.496l0.451-0.25l0.279,0.491
				l0.483-0.273l-0.278-0.489l0.453-0.25l0.274,0.483l0.482-0.273l-0.272-0.482l4.992-2.777l-1.555-2.851l-5.016,2.849l-0.282-0.495
				l-0.481,0.272l0.281,0.497l-0.449,0.255l-0.283-0.497l-0.482,0.274l0.283,0.496l-0.452,0.256l-0.281-0.497l-0.481,0.273
				l0.282,0.498l-19.111,10.849l-4.749-8.345l-0.745-0.583l-0.922,0.333l-0.29,0.373l-0.603,1.059l-1.318,7.376l-48.393,25.274
				l-0.593,0.546l-0.146,0.796l0.113,0.544l-4.164,1.815l-0.599-1.28l-0.617-1.063l-0.592-0.67l-0.536-0.399l-1.287-0.468
				l-1.416,0.01l-21.929,9.399c-1.389,1.881-2.141,4.154-2.146,6.488l-0.149,3.876l-1.594,0.928l0.648,2.159l-41.042,23.651
				l-0.333,0.296l-0.267,0.763l0.025,0.394l0.257,0.967L30.21,127.314z M84.028,90.553l-2.485-4.441l13.751-7.586l0.531-0.308
				l0.576-0.232l0.468-0.069l0.509,0.005l0.361,0.097l0.448,0.248l0.327,0.215l0.373,0.291l0.222,0.378l0.264,0.456l0.069,0.467
				l0.025,0.39l0.024,0.392l-0.126,0.481l-0.218,0.327l-0.366,0.418L98.37,82.42L84.028,90.553z M87.644,106.549
				c-0.049-0.194-0.044-0.399,0.017-0.593l0.067-0.221l0.023-0.03l1.2-0.8l-0.062,0.476l0.101,0.348l0.125,0.74L89.423,107
				l0.372,0.291l0.416,0.367l1.146,0.045l-0.167-0.106l-0.295-0.334l-0.989-1.354l-0.101-0.346l-0.1-0.349l0.02-0.313l0.02-0.318
				l0.215-0.328l2.988-1.838c0.483-0.214,1.739-0.504,1.739-0.504c0.313,0.083,0.599,0.252,0.825,0.486l0.552,0.567
				c0.352,0.441,0.572,0.974,0.632,1.532l0.026,0.392l-0.269,0.764l-0.549,0.626l-0.759,0.439l-2.427,1.41l-1.135,0.662
				l-0.957,0.452c-0.209-0.012-0.413-0.061-0.604-0.146l-1.206-0.525l-0.372-0.292C88.072,107.758,87.802,107.171,87.644,106.549z"
				/>
		</g>
	</g>
</g>
<g id="Layer_2">
	<g>
		<g>
			<g>
				<path fill="#F48466" d="M140.023,328.416h-1.75v8.996h-2.693v-19.906h2.693v8.805h1.477l7.383-8.805h3.035l0.027,0.068
					l-8.066,9.42l8.641,10.35l-0.027,0.068h-3.268L140.023,328.416z"/>
			</g>
			<g>
				<path fill="#F48466" d="M152.014,329.878c0-2.188,0.592-3.99,1.777-5.407c1.185-1.417,2.793-2.126,4.826-2.126
					c2.051,0,3.671,0.707,4.86,2.119c1.189,1.413,1.784,3.218,1.784,5.414v0.301c0,2.206-0.593,4.011-1.777,5.414
					c-1.185,1.404-2.798,2.105-4.84,2.105c-2.042,0-3.657-0.704-4.847-2.112s-1.784-3.21-1.784-5.407V329.878z M154.707,330.179
					c0,1.568,0.33,2.862,0.991,3.883c0.661,1.021,1.643,1.531,2.946,1.531c1.285,0,2.26-0.51,2.926-1.531
					c0.665-1.021,0.998-2.315,0.998-3.883v-0.301c0-1.549-0.335-2.839-1.005-3.869c-0.67-1.03-1.652-1.545-2.946-1.545
					c-1.285,0-2.258,0.515-2.919,1.545c-0.661,1.03-0.991,2.32-0.991,3.869V330.179z"/>
			</g>
			<g>
				<path fill="#F48466" d="M177.156,333.433c0-0.592-0.226-1.075-0.677-1.449c-0.451-0.374-1.306-0.702-2.563-0.984
					c-1.741-0.374-3.079-0.897-4.013-1.572c-0.935-0.674-1.401-1.577-1.401-2.707c0-1.203,0.513-2.233,1.538-3.09
					c1.025-0.856,2.354-1.285,3.985-1.285c1.677,0,3.035,0.456,4.074,1.367c1.039,0.912,1.536,1.974,1.49,3.186l-0.027,0.082h-2.57
					c0-0.638-0.28-1.217-0.841-1.736s-1.27-0.779-2.126-0.779c-0.948,0-1.657,0.214-2.126,0.643
					c-0.47,0.429-0.704,0.939-0.704,1.531c0,0.583,0.203,1.035,0.608,1.354c0.405,0.319,1.242,0.611,2.509,0.875
					c1.813,0.383,3.19,0.925,4.129,1.627c0.938,0.702,1.408,1.618,1.408,2.748c0,1.313-0.531,2.384-1.593,3.213
					c-1.062,0.83-2.45,1.244-4.163,1.244c-1.887,0-3.373-0.479-4.457-1.436c-1.085-0.957-1.6-2.073-1.545-3.35l0.027-0.082h2.57
					c0.045,0.957,0.401,1.657,1.066,2.099c0.665,0.442,1.444,0.663,2.338,0.663c0.957,0,1.707-0.203,2.249-0.608
					C176.885,334.58,177.156,334.062,177.156,333.433z"/>
			</g>
			<g>
				<path fill="#F48466" d="M182.57,329.878c0-2.188,0.592-3.99,1.777-5.407c1.185-1.417,2.793-2.126,4.826-2.126
					c2.051,0,3.671,0.707,4.86,2.119c1.189,1.413,1.784,3.218,1.784,5.414v0.301c0,2.206-0.593,4.011-1.777,5.414
					c-1.185,1.404-2.798,2.105-4.84,2.105c-2.042,0-3.657-0.704-4.847-2.112s-1.784-3.21-1.784-5.407V329.878z M185.264,330.179
					c0,1.568,0.33,2.862,0.991,3.883c0.661,1.021,1.643,1.531,2.946,1.531c1.285,0,2.26-0.51,2.926-1.531
					c0.665-1.021,0.998-2.315,0.998-3.883v-0.301c0-1.549-0.335-2.839-1.005-3.869c-0.67-1.03-1.652-1.545-2.946-1.545
					c-1.285,0-2.258,0.515-2.919,1.545c-0.661,1.03-0.991,2.32-0.991,3.869V330.179z"/>
			</g>
			<g>
				<path fill="#F48466" d="M203.844,333.05l0.232,1.039h0.082l0.26-1.039l3.404-10.432h2.748l-5.441,14.793h-2.037l-5.51-14.793
					h2.762L203.844,333.05z"/>
			</g>
			<g>
				<path fill="#F48466" d="M212.156,329.878c0-2.188,0.592-3.99,1.777-5.407c1.185-1.417,2.793-2.126,4.826-2.126
					c2.051,0,3.671,0.707,4.86,2.119c1.189,1.413,1.784,3.218,1.784,5.414v0.301c0,2.206-0.593,4.011-1.777,5.414
					c-1.185,1.404-2.798,2.105-4.84,2.105c-2.042,0-3.657-0.704-4.847-2.112s-1.784-3.21-1.784-5.407V329.878z M214.85,330.179
					c0,1.568,0.33,2.862,0.991,3.883c0.661,1.021,1.643,1.531,2.946,1.531c1.285,0,2.26-0.51,2.926-1.531
					c0.665-1.021,0.998-2.315,0.998-3.883v-0.301c0-1.549-0.335-2.839-1.005-3.869c-0.67-1.03-1.652-1.545-2.946-1.545
					c-1.285,0-2.258,0.515-2.919,1.545c-0.661,1.03-0.991,2.32-0.991,3.869V330.179z"/>
			</g>
		</g>
		<g>
			<g>
				<path fill="#58585A" d="M90.375,300.187h0.05l3.86-9.82h2.034v12.086h-1.635v-9.057l-0.05-0.008l-3.661,9.064h-1.137
					l-3.769-9.363l-0.05,0.008v9.355h-1.635v-12.086h2.15L90.375,300.187z"/>
			</g>
			<g>
				<path fill="#58585A" d="M103.778,301.124c-0.282,0.481-0.645,0.853-1.087,1.112s-0.955,0.39-1.536,0.39
					c-0.979,0-1.743-0.313-2.291-0.938s-0.822-1.6-0.822-2.922v-5.296h1.635v5.313c0,0.957,0.141,1.616,0.423,1.976
					s0.722,0.539,1.32,0.539c0.581,0,1.061-0.117,1.44-0.353c0.379-0.235,0.665-0.568,0.859-1v-6.475h1.635v8.981h-1.469
					L103.778,301.124z"/>
			</g>
			<g>
				<path fill="#58585A" d="M108.348,293.471l0.116,1.337c0.299-0.477,0.674-0.846,1.125-1.108c0.451-0.263,0.964-0.395,1.54-0.395
					c0.968,0,1.718,0.283,2.25,0.851s0.797,1.443,0.797,2.627v5.67h-1.635v-5.637c0-0.791-0.156-1.353-0.469-1.685
					c-0.313-0.332-0.79-0.498-1.432-0.498c-0.503,0-0.931,0.101-1.283,0.303c-0.351,0.202-0.629,0.485-0.834,0.851v6.666h-1.635
					v-8.981H108.348z"/>
			</g>
			<g>
				<path fill="#58585A" d="M117.468,291.171h-1.635v-1.668h1.635V291.171z M117.468,302.452h-1.635v-8.981h1.635V302.452z"/>
			</g>
			<g>
				<path fill="#58585A" d="M121.407,291.304v2.167h1.702v1.212h-1.702v5.453c0,0.421,0.087,0.717,0.261,0.889
					c0.175,0.172,0.406,0.258,0.693,0.258c0.094,0,0.199-0.013,0.315-0.038c0.116-0.024,0.213-0.051,0.291-0.079l0.224,1.121
					c-0.122,0.1-0.302,0.182-0.54,0.245s-0.473,0.095-0.706,0.095c-0.664,0-1.192-0.2-1.585-0.602s-0.589-1.03-0.589-1.889v-5.453
					h-1.428v-1.212h1.428v-2.167H121.407z"/>
			</g>
			<g>
				<path fill="#58585A" d="M125.778,291.171h-1.635v-1.668h1.635V291.171z M125.778,302.452h-1.635v-8.981h1.635V302.452z"/>
			</g>
			<g>
				<path fill="#58585A" d="M127.062,297.878c0-1.328,0.36-2.422,1.079-3.282s1.696-1.291,2.93-1.291
					c1.245,0,2.229,0.429,2.951,1.286c0.722,0.858,1.083,1.954,1.083,3.287v0.184c0,1.339-0.36,2.435-1.079,3.287
					c-0.719,0.852-1.699,1.277-2.938,1.277s-2.221-0.427-2.942-1.282c-0.723-0.854-1.083-1.949-1.083-3.282V297.878z
					 M128.697,298.062c0,0.951,0.201,1.737,0.602,2.357c0.401,0.619,0.998,0.93,1.789,0.93c0.78,0,1.373-0.311,1.776-0.93
					c0.404-0.62,0.606-1.406,0.606-2.357v-0.184c0-0.94-0.204-1.724-0.61-2.349c-0.407-0.625-1.003-0.938-1.789-0.938
					c-0.78,0-1.371,0.313-1.772,0.938c-0.401,0.625-0.602,1.408-0.602,2.349V298.062z"/>
			</g>
			<g>
				<path fill="#58585A" d="M137.716,293.471l0.116,1.337c0.299-0.477,0.674-0.846,1.125-1.108c0.451-0.263,0.964-0.395,1.54-0.395
					c0.968,0,1.718,0.283,2.25,0.851s0.797,1.443,0.797,2.627v5.67h-1.635v-5.637c0-0.791-0.156-1.353-0.469-1.685
					c-0.313-0.332-0.79-0.498-1.432-0.498c-0.503,0-0.931,0.101-1.283,0.303c-0.351,0.202-0.629,0.485-0.834,0.851v6.666h-1.635
					v-8.981H137.716z"/>
			</g>
			<g>
				<path fill="#58585A" d="M150.289,300.036c0-0.359-0.137-0.652-0.411-0.879c-0.273-0.228-0.792-0.427-1.556-0.598
					c-1.057-0.228-1.869-0.546-2.436-0.955c-0.567-0.409-0.851-0.957-0.851-1.644c0-0.73,0.311-1.355,0.934-1.876
					c0.622-0.521,1.429-0.78,2.419-0.78c1.018,0,1.843,0.276,2.474,0.83s0.933,1.198,0.905,1.935l-0.017,0.049h-1.561
					c0-0.387-0.17-0.738-0.511-1.054c-0.34-0.315-0.771-0.474-1.291-0.474c-0.576,0-1.006,0.131-1.291,0.391
					c-0.285,0.26-0.428,0.57-0.428,0.93c0,0.354,0.123,0.628,0.369,0.822c0.247,0.193,0.754,0.37,1.523,0.531
					c1.101,0.232,1.937,0.562,2.507,0.987s0.855,0.982,0.855,1.669c0,0.797-0.322,1.446-0.967,1.95
					c-0.645,0.504-1.487,0.755-2.527,0.755c-1.146,0-2.047-0.29-2.706-0.871s-0.971-1.259-0.938-2.033l0.017-0.051h1.561
					c0.028,0.582,0.244,1.006,0.647,1.274s0.877,0.403,1.419,0.403c0.581,0,1.036-0.124,1.365-0.37
					C150.125,300.732,150.289,300.419,150.289,300.036z"/>
			</g>
			<g>
				<path fill="#58585A" d="M156.109,298.128c0-1.445,0.309-2.609,0.926-3.495c0.617-0.886,1.481-1.328,2.594-1.328
					c0.526,0,0.992,0.097,1.398,0.29c0.407,0.194,0.754,0.477,1.042,0.848v-4.939h1.635v12.949h-1.253l-0.249-1.137
					c-0.293,0.432-0.656,0.758-1.087,0.979c-0.432,0.222-0.933,0.332-1.502,0.332c-1.096,0-1.954-0.396-2.573-1.19
					s-0.93-1.839-0.93-3.134V298.128z M157.745,298.302c0,0.907,0.186,1.634,0.556,2.179s0.946,0.817,1.727,0.817
					c0.487,0,0.896-0.11,1.229-0.332c0.332-0.221,0.603-0.531,0.813-0.93v-4.191c-0.21-0.371-0.483-0.665-0.817-0.884
					c-0.335-0.219-0.738-0.328-1.208-0.328c-0.786,0-1.365,0.323-1.739,0.972c-0.373,0.646-0.56,1.488-0.56,2.523V298.302z"/>
			</g>
			<g>
				<path fill="#58585A" d="M169.014,302.626c-1.29,0-2.295-0.412-3.017-1.236c-0.723-0.824-1.083-1.909-1.083-3.254v-0.365
					c0-1.289,0.372-2.356,1.117-3.2c0.744-0.844,1.653-1.266,2.727-1.266c1.201,0,2.102,0.374,2.702,1.12
					c0.6,0.748,0.9,1.741,0.9,2.98v0.863h-5.744l-0.025,0.041c0,0.902,0.199,1.635,0.598,2.196s1.007,0.843,1.826,0.843
					c0.553,0,1.039-0.079,1.457-0.237c0.418-0.157,0.776-0.375,1.075-0.651l0.639,1.063c-0.321,0.31-0.744,0.571-1.27,0.784
					S169.755,302.626,169.014,302.626z M168.756,294.591c-0.57,0-1.042,0.221-1.415,0.66c-0.374,0.44-0.602,1.003-0.685,1.689
					l0.017,0.041h4.051v-0.133c0-0.652-0.161-1.192-0.481-1.618S169.426,294.591,168.756,294.591z"/>
			</g>
			<g>
				<path fill="#58585A" d="M178.564,300.036c0-0.359-0.137-0.652-0.411-0.879c-0.273-0.228-0.792-0.427-1.556-0.598
					c-1.057-0.228-1.869-0.546-2.436-0.955c-0.567-0.409-0.851-0.957-0.851-1.644c0-0.73,0.311-1.355,0.934-1.876
					c0.622-0.521,1.429-0.78,2.419-0.78c1.018,0,1.843,0.276,2.474,0.83s0.933,1.198,0.905,1.935l-0.017,0.049h-1.561
					c0-0.387-0.17-0.738-0.511-1.054c-0.34-0.315-0.771-0.474-1.291-0.474c-0.576,0-1.006,0.131-1.291,0.391
					c-0.285,0.26-0.428,0.57-0.428,0.93c0,0.354,0.123,0.628,0.369,0.822c0.247,0.193,0.754,0.37,1.523,0.531
					c1.101,0.232,1.937,0.562,2.507,0.987s0.855,0.982,0.855,1.669c0,0.797-0.322,1.446-0.967,1.95
					c-0.645,0.504-1.487,0.755-2.527,0.755c-1.146,0-2.047-0.29-2.706-0.871s-0.971-1.259-0.938-2.033l0.017-0.051h1.561
					c0.028,0.582,0.244,1.006,0.647,1.274s0.877,0.403,1.419,0.403c0.581,0,1.036-0.124,1.365-0.37
					C178.4,300.732,178.564,300.419,178.564,300.036z"/>
			</g>
			<g>
				<path fill="#58585A" d="M183.658,291.304v2.167h1.702v1.212h-1.702v5.453c0,0.421,0.087,0.717,0.261,0.889
					c0.175,0.172,0.406,0.258,0.693,0.258c0.094,0,0.199-0.013,0.315-0.038c0.116-0.024,0.213-0.051,0.291-0.079l0.224,1.121
					c-0.122,0.1-0.302,0.182-0.54,0.245s-0.473,0.095-0.706,0.095c-0.664,0-1.192-0.2-1.585-0.602s-0.589-1.03-0.589-1.889v-5.453
					h-1.428v-1.212h1.428v-2.167H183.658z"/>
			</g>
			<g>
				<path fill="#58585A" d="M190.511,294.915l-0.838-0.05c-0.432,0-0.795,0.103-1.092,0.308c-0.296,0.204-0.524,0.492-0.685,0.863
					v6.416h-1.635v-8.981h1.461l0.158,1.312c0.254-0.465,0.568-0.827,0.942-1.088c0.373-0.26,0.804-0.39,1.291-0.39
					c0.122,0,0.238,0.01,0.349,0.029s0.202,0.04,0.274,0.062L190.511,294.915z"/>
			</g>
			<g>
				<path fill="#58585A" d="M190.815,297.878c0-1.328,0.36-2.422,1.079-3.282s1.696-1.291,2.93-1.291
					c1.245,0,2.229,0.429,2.951,1.286c0.722,0.858,1.083,1.954,1.083,3.287v0.184c0,1.339-0.36,2.435-1.079,3.287
					c-0.719,0.852-1.699,1.277-2.938,1.277s-2.221-0.427-2.942-1.282c-0.723-0.854-1.083-1.949-1.083-3.282V297.878z
					 M192.45,298.062c0,0.951,0.201,1.737,0.602,2.357c0.401,0.619,0.998,0.93,1.789,0.93c0.78,0,1.373-0.311,1.776-0.93
					c0.404-0.62,0.606-1.406,0.606-2.357v-0.184c0-0.94-0.204-1.724-0.61-2.349c-0.407-0.625-1.003-0.938-1.789-0.938
					c-0.78,0-1.371,0.313-1.772,0.938c-0.401,0.625-0.602,1.408-0.602,2.349V298.062z"/>
			</g>
			<g>
				<path fill="#58585A" d="M202.632,299.124l0.291,1.129h0.05l2.208-6.782h1.818l-3.777,10.359
					c-0.227,0.604-0.552,1.129-0.975,1.577c-0.424,0.448-0.995,0.672-1.714,0.672c-0.133,0-0.302-0.015-0.506-0.045
					s-0.362-0.06-0.473-0.088l0.166-1.286c-0.033-0.006,0.065,0,0.294,0.017c0.23,0.017,0.375,0.025,0.436,0.025
					c0.349,0,0.634-0.155,0.855-0.465c0.221-0.311,0.407-0.653,0.556-1.029l0.39-0.938l-3.337-8.799h1.826L202.632,299.124z"/>
			</g>
			<g>
				<path fill="#58585A" d="M211.195,302.626c-1.29,0-2.295-0.412-3.017-1.236c-0.723-0.824-1.083-1.909-1.083-3.254v-0.365
					c0-1.289,0.372-2.356,1.117-3.2c0.744-0.844,1.653-1.266,2.727-1.266c1.201,0,2.102,0.374,2.702,1.12
					c0.6,0.748,0.9,1.741,0.9,2.98v0.863h-5.744l-0.025,0.041c0,0.902,0.199,1.635,0.598,2.196s1.007,0.843,1.826,0.843
					c0.553,0,1.039-0.079,1.457-0.237c0.418-0.157,0.776-0.375,1.075-0.651l0.639,1.063c-0.321,0.31-0.744,0.571-1.27,0.784
					S211.937,302.626,211.195,302.626z M210.938,294.591c-0.57,0-1.042,0.221-1.415,0.66c-0.374,0.44-0.602,1.003-0.685,1.689
					l0.017,0.041h4.051v-0.133c0-0.652-0.161-1.192-0.481-1.618S211.607,294.591,210.938,294.591z"/>
			</g>
			<g>
				<path fill="#58585A" d="M215.151,298.128c0-1.445,0.309-2.609,0.926-3.495c0.617-0.886,1.481-1.328,2.594-1.328
					c0.526,0,0.992,0.097,1.398,0.29c0.407,0.194,0.754,0.477,1.042,0.848v-4.939h1.635v12.949h-1.253l-0.249-1.137
					c-0.293,0.432-0.656,0.758-1.087,0.979c-0.432,0.222-0.933,0.332-1.502,0.332c-1.096,0-1.954-0.396-2.573-1.19
					s-0.93-1.839-0.93-3.134V298.128z M216.787,298.302c0,0.907,0.186,1.634,0.556,2.179s0.946,0.817,1.727,0.817
					c0.487,0,0.896-0.11,1.229-0.332c0.332-0.221,0.603-0.531,0.813-0.93v-4.191c-0.21-0.371-0.483-0.665-0.817-0.884
					c-0.335-0.219-0.738-0.328-1.208-0.328c-0.786,0-1.365,0.323-1.739,0.972c-0.373,0.646-0.56,1.488-0.56,2.523V298.302z"/>
			</g>
			<g>
				<path fill="#58585A" d="M229.48,291.171h-1.635v-1.668h1.635V291.171z M229.48,302.452h-1.635v-8.981h1.635V302.452z"/>
			</g>
			<g>
				<path fill="#58585A" d="M232.606,293.471l0.116,1.337c0.299-0.477,0.674-0.846,1.125-1.108c0.451-0.263,0.964-0.395,1.54-0.395
					c0.968,0,1.718,0.283,2.25,0.851s0.797,1.443,0.797,2.627v5.67h-1.635v-5.637c0-0.791-0.156-1.353-0.469-1.685
					c-0.313-0.332-0.79-0.498-1.432-0.498c-0.503,0-0.931,0.101-1.283,0.303c-0.351,0.202-0.629,0.485-0.834,0.851v6.666h-1.635
					v-8.981H232.606z"/>
			</g>
			<g>
				<path fill="#58585A" d="M250.895,302.452h-7.504v-1.121l3.793-4.523c0.675-0.819,1.133-1.471,1.374-1.955
					c0.241-0.484,0.361-0.973,0.361-1.465c0-0.559-0.163-1.017-0.49-1.374c-0.327-0.356-0.777-0.535-1.353-0.535
					c-0.714,0-1.258,0.219-1.631,0.655c-0.374,0.438-0.561,0.982-0.561,1.636h-1.577l-0.017-0.05
					c-0.028-0.985,0.302-1.819,0.988-2.503s1.619-1.024,2.797-1.024c1.079,0,1.929,0.299,2.548,0.896s0.93,1.369,0.93,2.315
					c0,0.637-0.176,1.259-0.527,1.868c-0.352,0.608-0.887,1.372-1.606,2.291l-3.046,3.568l0.017,0.042h5.503V302.452z"/>
			</g>
			<g>
				<path fill="#58585A" d="M259.499,298.186c0,1.367-0.347,2.448-1.042,3.245c-0.694,0.797-1.628,1.195-2.801,1.195
					c-1.167,0-2.102-0.398-2.801-1.195c-0.7-0.797-1.05-1.878-1.05-3.245v-3.553c0-1.355,0.347-2.435,1.042-3.237
					c0.695-0.803,1.626-1.203,2.793-1.203c1.173,0,2.11,0.4,2.81,1.203c0.7,0.803,1.05,1.882,1.05,3.237V298.186z M257.864,294.292
					c0-0.868-0.194-1.555-0.581-2.059c-0.387-0.503-0.935-0.755-1.644-0.755c-0.703,0-1.245,0.252-1.627,0.755
					c-0.382,0.504-0.573,1.19-0.573,2.059v4.226c0,0.869,0.195,1.558,0.585,2.067c0.391,0.509,0.934,0.764,1.631,0.764
					c0.708,0,1.253-0.254,1.635-0.76c0.382-0.507,0.573-1.197,0.573-2.071V294.292z"/>
			</g>
			<g>
				<path fill="#58585A" d="M265.48,302.452h-1.644v-10.575l-2.631,0.024v-1.262l4.275-0.447V302.452z"/>
			</g>
			<g>
				<path fill="#58585A" d="M269.76,297.081l0.697-6.715h6.051v1.453h-4.673l-0.39,3.478c0.26-0.193,0.548-0.353,0.863-0.478
					c0.315-0.124,0.675-0.189,1.079-0.195c1.118-0.011,1.994,0.34,2.627,1.051c0.634,0.711,0.951,1.687,0.951,2.926
					c0,1.212-0.325,2.186-0.975,2.922c-0.65,0.736-1.598,1.104-2.843,1.104c-1.024,0-1.876-0.279-2.557-0.838
					s-1.007-1.381-0.979-2.465l0.017-0.051h1.478c0,0.659,0.189,1.17,0.569,1.532c0.379,0.362,0.87,0.544,1.473,0.544
					c0.692,0,1.229-0.244,1.61-0.73c0.382-0.487,0.573-1.154,0.573-2.001c0-0.77-0.192-1.392-0.577-1.868
					c-0.384-0.476-0.92-0.713-1.606-0.713c-0.642,0-1.107,0.097-1.395,0.29s-0.501,0.492-0.639,0.896L269.76,297.081z"/>
			</g>
		</g>
	</g>
	<g>
		<g>
			<g>
				<path fill="#F48466" d="M60.34,245.351l0.203,1.547l0.048,0.008l0.275-1.555l2.089-7.701h1.563l2.105,7.701l0.275,1.579h0.049
					l0.218-1.579l1.684-7.701h1.733l-2.851,11.79h-1.425l-2.356-8.178l-0.179-1.061h-0.048l-0.17,1.061l-2.389,8.178h-1.425
					l-2.842-11.79h1.725L60.34,245.351z"/>
			</g>
			<g>
				<path fill="#F48466" d="M78.357,243.975h-4.842v4.219h5.668v1.247H71.92v-11.79h7.175v1.255h-5.58v3.814h4.842V243.975z"/>
			</g>
			<g>
				<path fill="#F48466" d="M86.828,246.404h-4.438l-1.053,3.037H79.71l4.251-11.79h1.369l4.162,11.79h-1.628L86.828,246.404z
					 M82.852,245.068h3.522l-1.717-5.061h-0.048L82.852,245.068z"/>
			</g>
			<g>
				<path fill="#F48466" d="M92.488,244.711v4.729h-1.595v-11.79h4.51c1.258,0,2.236,0.324,2.936,0.972
					c0.699,0.648,1.049,1.501,1.049,2.559c0,1.069-0.35,1.924-1.049,2.567s-1.678,0.963-2.936,0.963H92.488z M92.488,243.464h2.915
					c0.799,0,1.396-0.214,1.79-0.644c0.394-0.429,0.591-0.97,0.591-1.624s-0.198-1.199-0.595-1.636
					c-0.397-0.438-0.992-0.656-1.786-0.656h-2.915V243.464z"/>
			</g>
			<g>
				<path fill="#F48466" d="M110.108,244.598c0,1.441-0.446,2.637-1.34,3.587s-2.053,1.425-3.478,1.425
					c-1.377,0-2.496-0.475-3.356-1.425c-0.861-0.95-1.292-2.146-1.292-3.587v-2.097c0-1.436,0.431-2.632,1.292-3.587
					c0.861-0.956,1.979-1.433,3.356-1.433c1.425,0,2.584,0.477,3.478,1.429s1.34,2.15,1.34,3.591V244.598z M108.514,242.485
					c0-1.08-0.292-1.965-0.875-2.656c-0.583-0.691-1.365-1.036-2.348-1.036c-0.929,0-1.67,0.345-2.223,1.036
					c-0.553,0.691-0.83,1.577-0.83,2.656v2.113c0,1.09,0.276,1.981,0.83,2.672s1.294,1.036,2.223,1.036
					c0.987,0,1.771-0.344,2.352-1.032c0.581-0.688,0.871-1.581,0.871-2.676V242.485z"/>
			</g>
			<g>
				<path fill="#F48466" d="M120.992,249.44h-1.595l-5.676-9.004l-0.049,0.016v8.988h-1.595v-11.79h1.595l5.677,8.997l0.048-0.017
					v-8.98h1.595V249.44z"/>
			</g>
			<g>
				<path fill="#F48466" d="M129.705,246.469c0-0.535-0.191-0.982-0.575-1.344c-0.383-0.362-1.058-0.669-2.024-0.923
					c-1.199-0.296-2.134-0.734-2.806-1.312c-0.672-0.578-1.008-1.304-1.008-2.178c0-0.923,0.361-1.692,1.085-2.308
					c0.724-0.616,1.663-0.923,2.818-0.923c1.242,0,2.231,0.352,2.968,1.057s1.094,1.526,1.073,2.466l-0.024,0.048h-1.522
					c0-0.669-0.234-1.223-0.701-1.66c-0.467-0.438-1.064-0.656-1.793-0.656c-0.745,0-1.316,0.181-1.712,0.543
					c-0.397,0.361-0.595,0.831-0.595,1.409c0,0.513,0.217,0.941,0.652,1.284s1.141,0.644,2.117,0.903
					c1.188,0.308,2.092,0.761,2.713,1.36c0.621,0.599,0.931,1.339,0.931,2.219c0,0.95-0.374,1.714-1.122,2.292
					c-0.748,0.578-1.724,0.866-2.927,0.866c-1.14,0-2.145-0.318-3.017-0.956c-0.872-0.637-1.294-1.49-1.268-2.559l0.017-0.049h1.522
					c0,0.74,0.28,1.311,0.842,1.713s1.196,0.603,1.903,0.603c0.755,0,1.354-0.17,1.793-0.51
					C129.485,247.513,129.705,247.052,129.705,246.469z"/>
			</g>
		</g>
		<g>
			<g>
				<path fill="#FCD0A6" d="M153.767,227.531c0-0.658,0.19-1.235,0.571-1.729c0.38-0.494,0.948-0.989,1.704-1.486
					c-0.421-0.535-0.734-1.011-0.939-1.429c-0.205-0.418-0.308-0.849-0.308-1.292c0-0.912,0.264-1.615,0.79-2.109
					c0.526-0.494,1.251-0.741,2.174-0.741c0.853,0,1.547,0.246,2.081,0.737s0.802,1.083,0.802,1.773
					c0,0.529-0.142,0.987-0.425,1.373c-0.283,0.386-0.703,0.781-1.259,1.186l-0.882,0.648l2.753,3.312
					c0.221-0.351,0.394-0.74,0.518-1.166c0.125-0.427,0.187-0.877,0.187-1.353h1.425c0,0.713-0.105,1.372-0.316,1.976
					s-0.516,1.147-0.915,1.627l1.498,1.806l-0.016,0.041h-1.854l-0.688-0.826c-0.432,0.324-0.91,0.571-1.434,0.741
					s-1.066,0.255-1.627,0.255c-1.171,0-2.104-0.31-2.797-0.931C154.113,229.323,153.767,228.519,153.767,227.531z M157.605,229.628
					c0.389,0,0.772-0.066,1.15-0.198s0.734-0.322,1.069-0.571l-2.923-3.522l-0.324,0.235c-0.492,0.367-0.817,0.718-0.976,1.053
					c-0.159,0.334-0.238,0.637-0.238,0.907c0,0.61,0.191,1.112,0.575,1.506S156.876,229.628,157.605,229.628z M156.391,221.579
					c0,0.286,0.072,0.584,0.218,0.895s0.365,0.649,0.656,1.016l1.118-0.769c0.308-0.205,0.517-0.428,0.627-0.668
					c0.11-0.24,0.166-0.506,0.166-0.797c0-0.329-0.131-0.621-0.393-0.875S158.18,220,157.759,220c-0.438,0-0.774,0.153-1.012,0.458
					C156.509,220.763,156.391,221.137,156.391,221.579z"/>
			</g>
		</g>
		<g>
			<g>
				<path fill="#F48466" d="M171.217,246.494v3.958h-1.235v-9.126h3.124c0.999,0,1.762,0.222,2.289,0.665
					c0.527,0.443,0.791,1.087,0.791,1.932c0,0.468-0.123,0.876-0.367,1.223c-0.245,0.347-0.602,0.623-1.07,0.828
					c0.502,0.163,0.863,0.427,1.082,0.793c0.219,0.366,0.33,0.818,0.33,1.358v0.859c0,0.284,0.031,0.54,0.094,0.765
					c0.063,0.226,0.172,0.41,0.326,0.552v0.15h-1.273c-0.163-0.142-0.268-0.351-0.313-0.627c-0.046-0.276-0.069-0.56-0.069-0.853
					v-0.834c0-0.494-0.144-0.891-0.433-1.192c-0.288-0.301-0.675-0.452-1.16-0.452H171.217z M171.217,245.522h1.763
					c0.698,0,1.201-0.133,1.509-0.398s0.461-0.67,0.461-1.214c0-0.514-0.149-0.913-0.448-1.195
					c-0.299-0.282-0.765-0.423-1.396-0.423h-1.889V245.522z"/>
			</g>
			<g>
				<path fill="#F48466" d="M184.873,246.701c0,1.117-0.347,2.043-1.038,2.779c-0.692,0.736-1.59,1.104-2.694,1.104
					c-1.066,0-1.933-0.368-2.6-1.104s-1-1.662-1-2.779v-1.625c0-1.112,0.333-2.039,1-2.779s1.534-1.11,2.6-1.11
					c1.104,0,2.002,0.369,2.694,1.107c0.691,0.738,1.038,1.666,1.038,2.782V246.701z M183.637,245.064
					c0-0.836-0.226-1.522-0.677-2.058c-0.452-0.535-1.059-0.803-1.819-0.803c-0.719,0-1.293,0.268-1.722,0.803
					c-0.429,0.536-0.643,1.221-0.643,2.058v1.637c0,0.845,0.214,1.535,0.643,2.07c0.429,0.536,1.002,0.803,1.722,0.803
					c0.765,0,1.373-0.267,1.822-0.8c0.449-0.533,0.674-1.224,0.674-2.073V245.064z"/>
			</g>
			<g>
				<path fill="#F48466" d="M193.134,241.319v6.065c0,1.004-0.326,1.788-0.979,2.353c-0.652,0.564-1.493,0.847-2.522,0.847
					c-0.991,0-1.802-0.283-2.434-0.85c-0.631-0.566-0.947-1.35-0.947-2.349v-6.065h1.236v6.065c0,0.699,0.2,1.245,0.599,1.64
					c0.399,0.396,0.915,0.593,1.546,0.593c0.669,0,1.214-0.197,1.634-0.593c0.42-0.395,0.63-0.941,0.63-1.64v-6.065H193.134z"/>
			</g>
			<g>
				<path fill="#F48466" d="M201.74,250.452h-1.235l-4.397-6.975l-0.038,0.013v6.962h-1.236v-9.133h1.236l4.397,6.969l0.038-0.013
					v-6.956h1.235V250.452z"/>
			</g>
			<g>
				<path fill="#F48466" d="M203.623,250.452v-9.133h2.873c1.192,0,2.15,0.367,2.876,1.101s1.089,1.682,1.089,2.845v1.249
					c0,1.167-0.363,2.115-1.089,2.844c-0.726,0.73-1.684,1.095-2.876,1.095H203.623z M204.858,242.292v7.195h1.637
					c0.845,0,1.511-0.278,1.998-0.834s0.73-1.269,0.73-2.139v-1.261c0-0.861-0.243-1.57-0.73-2.126
					c-0.487-0.556-1.153-0.834-1.998-0.834H204.858z"/>
			</g>
			<g>
				<path fill="#F48466" d="M216.933,248.15c0-0.414-0.148-0.761-0.445-1.041s-0.82-0.519-1.568-0.715
					c-0.929-0.229-1.653-0.568-2.174-1.016c-0.521-0.447-0.781-1.01-0.781-1.687c0-0.715,0.28-1.311,0.84-1.788
					c0.561-0.477,1.288-0.715,2.183-0.715c0.961,0,1.728,0.273,2.299,0.818c0.571,0.546,0.848,1.183,0.831,1.91l-0.019,0.038h-1.179
					c0-0.519-0.181-0.947-0.543-1.286c-0.361-0.339-0.825-0.508-1.389-0.508c-0.577,0-1.02,0.14-1.327,0.42
					c-0.308,0.28-0.461,0.644-0.461,1.091c0,0.397,0.168,0.729,0.505,0.994c0.336,0.266,0.883,0.499,1.64,0.7
					c0.92,0.238,1.621,0.589,2.101,1.054c0.481,0.464,0.722,1.037,0.722,1.719c0,0.736-0.29,1.328-0.869,1.775
					c-0.579,0.448-1.335,0.671-2.268,0.671c-0.882,0-1.661-0.247-2.336-0.74c-0.676-0.494-1.003-1.154-0.982-1.982l0.012-0.038h1.18
					c0,0.573,0.217,1.015,0.652,1.327c0.435,0.312,0.926,0.467,1.474,0.467c0.586,0,1.049-0.131,1.39-0.395
					C216.763,248.959,216.933,248.602,216.933,248.15z"/>
			</g>
			<g>
				<path fill="#F48466" d="M229.573,246.701c0,1.117-0.347,2.043-1.038,2.779c-0.692,0.736-1.59,1.104-2.694,1.104
					c-1.066,0-1.933-0.368-2.6-1.104s-1-1.662-1-2.779v-1.625c0-1.112,0.333-2.039,1-2.779s1.534-1.11,2.6-1.11
					c1.104,0,2.002,0.369,2.694,1.107c0.691,0.738,1.038,1.666,1.038,2.782V246.701z M228.337,245.064
					c0-0.836-0.226-1.522-0.677-2.058c-0.452-0.535-1.059-0.803-1.819-0.803c-0.719,0-1.293,0.268-1.722,0.803
					c-0.429,0.536-0.643,1.221-0.643,2.058v1.637c0,0.845,0.214,1.535,0.643,2.07c0.429,0.536,1.002,0.803,1.722,0.803
					c0.765,0,1.373-0.267,1.822-0.8c0.449-0.533,0.674-1.224,0.674-2.073V245.064z"/>
			</g>
			<g>
				<path fill="#F48466" d="M236.185,246.413h-3.852v4.04h-1.235v-9.133h5.727v0.972h-4.491v3.149h3.852V246.413z"/>
			</g>
			<g>
				<path fill="#F48466" d="M245.582,248.1h-3.438l-0.815,2.352h-1.261l3.293-9.133h1.06l3.225,9.133h-1.261L245.582,248.1z
					 M242.502,247.065h2.729l-1.33-3.92h-0.038L242.502,247.065z"/>
			</g>
			<g>
				<path fill="#F48466" d="M253.26,248.74h0.037l2.917-7.42h1.537v9.133h-1.236v-6.843l-0.037-0.006l-2.767,6.85h-0.859
					l-2.848-7.076l-0.038,0.006v7.069h-1.236v-9.133h1.625L253.26,248.74z"/>
			</g>
			<g>
				<path fill="#F48466" d="M264.162,248.74h0.038l2.917-7.42h1.537v9.133h-1.236v-6.843l-0.038-0.006l-2.766,6.85h-0.859
					l-2.848-7.076l-0.038,0.006v7.069h-1.235v-9.133h1.625L264.162,248.74z"/>
			</g>
			<g>
				<path fill="#F48466" d="M277.271,241.319v6.065c0,1.004-0.326,1.788-0.979,2.353c-0.652,0.564-1.493,0.847-2.521,0.847
					c-0.991,0-1.803-0.283-2.434-0.85c-0.631-0.566-0.947-1.35-0.947-2.349v-6.065h1.235v6.065c0,0.699,0.2,1.245,0.599,1.64
					c0.399,0.396,0.915,0.593,1.546,0.593c0.669,0,1.214-0.197,1.634-0.593c0.42-0.395,0.63-0.941,0.63-1.64v-6.065H277.271z"/>
			</g>
			<g>
				<path fill="#F48466" d="M285.878,250.452h-1.236l-4.397-6.975l-0.038,0.013v6.962h-1.235v-9.133h1.235l4.397,6.969l0.038-0.013
					v-6.956h1.236V250.452z"/>
			</g>
			<g>
				<path fill="#F48466" d="M293.963,242.292h-3.011v8.161h-1.235v-8.161h-2.973v-0.972h7.22V242.292z"/>
			</g>
			<g>
				<path fill="#F48466" d="M296.372,250.452h-1.242v-9.133h1.242V250.452z"/>
			</g>
			<g>
				<path fill="#F48466" d="M305.355,246.701c0,1.117-0.346,2.043-1.038,2.779s-1.59,1.104-2.694,1.104
					c-1.066,0-1.934-0.368-2.601-1.104s-1-1.662-1-2.779v-1.625c0-1.112,0.333-2.039,1-2.779s1.534-1.11,2.601-1.11
					c1.104,0,2.002,0.369,2.694,1.107c0.692,0.738,1.038,1.666,1.038,2.782V246.701z M304.119,245.064
					c0-0.836-0.226-1.522-0.677-2.058c-0.452-0.535-1.058-0.803-1.819-0.803c-0.72,0-1.293,0.268-1.722,0.803
					c-0.429,0.536-0.643,1.221-0.643,2.058v1.637c0,0.845,0.214,1.535,0.643,2.07c0.429,0.536,1.002,0.803,1.722,0.803
					c0.765,0,1.372-0.267,1.822-0.8c0.449-0.533,0.674-1.224,0.674-2.073V245.064z"/>
			</g>
			<g>
				<path fill="#F48466" d="M313.786,250.452h-1.236l-4.397-6.975l-0.038,0.013v6.962h-1.235v-9.133h1.235l4.397,6.969l0.037-0.013
					v-6.956h1.236V250.452z"/>
			</g>
		</g>
		<g>
			<g>
				<path fill="#F48466" d="M64.068,203.797h2.761v5.188h-2.761v7.058h-6.301v-7.058H47.035l-0.29-4.04l11-21.321h6.323V203.797z
					 M52.869,203.797h4.898v-10.844l-0.133,0.245L52.869,203.797z"/>
			</g>
			<g>
				<path fill="#F48466" d="M71.434,224.214l-3.362-1.759l0.846-1.581c0.95-1.751,1.439-3.518,1.47-5.299v-5.01h5.478l-0.022,4.476
					c-0.015,1.573-0.416,3.206-1.202,4.898C73.854,221.632,72.784,223.057,71.434,224.214z"/>
			</g>
			<g>
				<path fill="#F48466" d="M98.282,202.639c0,4.483-0.813,7.912-2.438,10.287c-1.625,2.375-3.945,3.563-6.958,3.563
					c-2.983,0-5.288-1.154-6.914-3.462c-1.625-2.308-2.468-5.614-2.527-9.919v-6.123c0-4.468,0.809-7.886,2.427-10.253
					c1.618-2.368,3.941-3.551,6.969-3.551s5.351,1.173,6.969,3.518c1.618,2.345,2.441,5.692,2.472,10.042V202.639z M91.958,196.056
					c0-2.563-0.252-4.485-0.757-5.767s-1.291-1.922-2.36-1.922c-2.004,0-3.043,2.347-3.117,7.041v8.114
					c0,2.623,0.256,4.575,0.768,5.856c0.512,1.282,1.31,1.922,2.394,1.922c1.024,0,1.785-0.6,2.282-1.799s0.761-3.036,0.791-5.51
					V196.056z"/>
			</g>
			<g>
				<path fill="#F48466" d="M120.209,202.639c0,4.483-0.813,7.912-2.438,10.287c-1.625,2.375-3.945,3.563-6.958,3.563
					c-2.984,0-5.288-1.154-6.914-3.462c-1.625-2.308-2.468-5.614-2.527-9.919v-6.123c0-4.468,0.809-7.886,2.427-10.253
					c1.617-2.368,3.941-3.551,6.969-3.551c3.028,0,5.352,1.173,6.97,3.518c1.617,2.345,2.441,5.692,2.471,10.042V202.639z
					 M113.886,196.056c0-2.563-0.252-4.485-0.757-5.767c-0.505-1.282-1.291-1.922-2.36-1.922c-2.004,0-3.043,2.347-3.117,7.041
					v8.114c0,2.623,0.256,4.575,0.769,5.856c0.512,1.282,1.31,1.922,2.394,1.922c1.024,0,1.785-0.6,2.282-1.799
					c0.497-1.2,0.76-3.036,0.79-5.51V196.056z"/>
			</g>
			<g>
				<path fill="#F48466" d="M142.137,202.639c0,4.483-0.813,7.912-2.438,10.287s-3.945,3.563-6.958,3.563
					c-2.983,0-5.288-1.154-6.913-3.462c-1.625-2.308-2.468-5.614-2.527-9.919v-6.123c0-4.468,0.809-7.886,2.427-10.253
					s3.941-3.551,6.97-3.551c3.028,0,5.351,1.173,6.969,3.518s2.442,5.692,2.472,10.042V202.639z M135.813,196.056
					c0-2.563-0.253-4.485-0.757-5.767c-0.505-1.282-1.292-1.922-2.36-1.922c-2.004,0-3.043,2.347-3.117,7.041v8.114
					c0,2.623,0.256,4.575,0.768,5.856c0.513,1.282,1.31,1.922,2.394,1.922c1.024,0,1.785-0.6,2.282-1.799
					c0.498-1.2,0.761-3.036,0.791-5.51V196.056z"/>
			</g>
		</g>
		<g>
			<g>
				<path fill="#F48466" d="M185.317,215.681h-6.51v-25.489l-6.349,2.453v-5.41l12.171-4.974h0.688V215.681z"/>
			</g>
			<g>
				<path fill="#F48466" d="M209.083,181.962v5.501h-0.367c-2.43,0.015-4.359,0.745-5.788,2.189
					c-1.429,1.444-2.296,3.465-2.602,6.063c1.39-1.589,3.132-2.384,5.226-2.384c2.415,0,4.344,1.032,5.788,3.095
					s2.166,4.813,2.166,8.252c0,2.186-0.412,4.157-1.237,5.914c-0.825,1.758-1.983,3.122-3.473,4.092
					c-1.49,0.971-3.175,1.456-5.055,1.456c-3.025,0-5.452-1.215-7.277-3.645c-1.827-2.43-2.739-5.7-2.739-9.811v-2.407
					c0-3.682,0.576-6.907,1.73-9.673c1.153-2.766,2.819-4.894,4.997-6.384s4.718-2.242,7.621-2.258H209.083z M203.513,198.672
					c-0.825,0-1.517,0.262-2.074,0.784s-0.974,1.168-1.249,1.936v2.352c0,2.367,0.313,4.134,0.939,5.302
					c0.627,1.168,1.452,1.752,2.476,1.752c1.039,0,1.872-0.565,2.499-1.694c0.626-1.13,0.939-2.578,0.939-4.346
					c0-1.798-0.325-3.262-0.974-4.391C205.419,199.237,204.567,198.672,203.513,198.672z"/>
			</g>
			<g>
				<path fill="#F48466" d="M235.576,201.882c0,4.615-0.836,8.145-2.51,10.59s-4.061,3.667-7.163,3.667
					c-3.071,0-5.444-1.188-7.117-3.564c-1.673-2.376-2.541-5.78-2.602-10.212v-6.303c0-4.6,0.833-8.118,2.498-10.556
					c1.666-2.438,4.058-3.656,7.175-3.656s5.509,1.208,7.175,3.622c1.665,2.415,2.514,5.861,2.544,10.338V201.882z M229.066,195.104
					c0-2.639-0.26-4.617-0.779-5.937c-0.52-1.32-1.329-1.979-2.43-1.979c-2.063,0-3.133,2.417-3.209,7.249v8.353
					c0,2.7,0.264,4.71,0.791,6.029s1.348,1.979,2.464,1.979c1.055,0,1.837-0.618,2.35-1.853c0.512-1.235,0.783-3.125,0.813-5.672
					V195.104z"/>
			</g>
			<g>
				<path fill="#F48466" d="M240.867,224.093l-3.461-1.811l0.871-1.627c0.978-1.803,1.482-3.622,1.513-5.456v-5.157h5.639
					l-0.023,4.607c-0.016,1.619-0.428,3.3-1.238,5.042S242.257,222.901,240.867,224.093z"/>
			</g>
			<g>
				<path fill="#F48466" d="M268.506,201.882c0,4.615-0.836,8.145-2.51,10.59s-4.061,3.667-7.163,3.667
					c-3.071,0-5.444-1.188-7.117-3.564c-1.673-2.376-2.541-5.78-2.602-10.212v-6.303c0-4.6,0.833-8.118,2.498-10.556
					c1.666-2.438,4.058-3.656,7.175-3.656s5.509,1.208,7.175,3.622c1.665,2.415,2.514,5.861,2.544,10.338V201.882z M261.996,195.104
					c0-2.639-0.26-4.617-0.779-5.937c-0.52-1.32-1.329-1.979-2.43-1.979c-2.063,0-3.133,2.417-3.209,7.249v8.353
					c0,2.7,0.264,4.71,0.791,6.029s1.348,1.979,2.464,1.979c1.055,0,1.837-0.618,2.35-1.853c0.512-1.235,0.783-3.125,0.813-5.672
					V195.104z"/>
			</g>
			<g>
				<path fill="#F48466" d="M291.08,201.882c0,4.615-0.836,8.145-2.51,10.59c-1.673,2.445-4.061,3.667-7.163,3.667
					c-3.071,0-5.443-1.188-7.117-3.564c-1.673-2.376-2.541-5.78-2.602-10.212v-6.303c0-4.6,0.833-8.118,2.499-10.556
					s4.057-3.656,7.174-3.656c3.118,0,5.509,1.208,7.175,3.622c1.666,2.415,2.514,5.861,2.544,10.338V201.882z M284.57,195.104
					c0-2.639-0.26-4.617-0.779-5.937c-0.52-1.32-1.33-1.979-2.43-1.979c-2.063,0-3.133,2.417-3.209,7.249v8.353
					c0,2.7,0.264,4.71,0.791,6.029s1.349,1.979,2.464,1.979c1.055,0,1.838-0.618,2.35-1.853s0.783-3.125,0.814-5.672V195.104z"/>
			</g>
			<g>
				<path fill="#F48466" d="M313.653,201.882c0,4.615-0.837,8.145-2.51,10.59c-1.674,2.445-4.062,3.667-7.163,3.667
					c-3.072,0-5.444-1.188-7.117-3.564c-1.674-2.376-2.541-5.78-2.602-10.212v-6.303c0-4.6,0.833-8.118,2.499-10.556
					c1.666-2.438,4.058-3.656,7.175-3.656s5.509,1.208,7.174,3.622c1.666,2.415,2.514,5.861,2.544,10.338V201.882z M307.144,195.104
					c0-2.639-0.26-4.617-0.779-5.937c-0.52-1.32-1.33-1.979-2.43-1.979c-2.063,0-3.133,2.417-3.209,7.249v8.353
					c0,2.7,0.264,4.71,0.791,6.029c0.527,1.319,1.348,1.979,2.464,1.979c1.054,0,1.837-0.618,2.35-1.853
					c0.512-1.235,0.783-3.125,0.813-5.672V195.104z"/>
			</g>
		</g>
		<g opacity="0.6">
			<g>
				<rect x="173.393" y="226.157" fill="#FCD6D7" width="136.729" height="3"/>
			</g>
		</g>
		<g opacity="0.6">
			<g>
				<rect x="45.388" y="226.157" fill="#FCD6D7" width="97.674" height="3"/>
			</g>
		</g>
	</g>
</g>
</svg>
