<?xml version="1.0" encoding="utf-8"?>
<!-- Generator: Adobe Illustrator 16.0.0, SVG Export Plug-In . SVG Version: 6.00 Build 0)  -->
<!DOCTYPE svg PUBLIC "-//W3C//DTD SVG 1.1//EN" "http://www.w3.org/Graphics/SVG/1.1/DTD/svg11.dtd">
<svg version="1.1" xmlns="http://www.w3.org/2000/svg" xmlns:xlink="http://www.w3.org/1999/xlink" x="0px" y="0px" width="100%"
	 height="100%" viewBox="0 0 360 360" enable-background="new 0 0 360 360" xml:space="preserve" class="c-infographic-svg">
    <g id="Layer_1">
<g>
<rect fill="#FEF1E1" width="360" height="360" />







	</g>
<g id="bullets">
<g id="bullet-1">
<path class="element-to-color" fill="#FDD1A7" d="M205.231,82.021h-14.423c0.771-12.063,4.363-20.306,4.53-20.691l2.682-6.052l2.683,6.052
				C200.876,61.716,204.472,69.958,205.231,82.021z M189.594,87.892v5.868h1.396h15.1h0.363v-5.868H189.594z M207.366,99.631
				h-17.645h-1.849v47.08h20.302v-47.08H207.366z" />







		</g>
<g id="bullet-2">
<path class="element-to-color" fill="#FDD1A7" d="M231.405,82.021h-14.422c0.761-12.063,4.356-20.306,4.53-20.691l2.683-6.052l2.681,6.052
				C227.049,61.716,230.645,69.958,231.405,82.021z M215.763,87.892v5.868h2.616h14.251v-5.868H215.763z M217.101,99.631h-3.055
				v47.08h20.296v-47.08H217.101z" />







		</g>
<g id="bullet-3">
<path class="element-to-color" fill="#FDD1A7" d="M257.574,82.021h-14.425c0.761-12.063,4.354-20.306,4.53-20.691l2.683-6.052l2.679,6.052
				C253.216,61.716,256.811,69.958,257.574,82.021z M241.927,87.892v5.868h3.833h13.034v-5.868H241.927z M244.482,99.631h-4.27
				v47.08h20.295v-47.08H244.482z" />







		</g>
<g id="bullet-4">
<path class="element-to-color" fill="#FDD1A7" d="M283.738,82.021h-14.424c0.76-12.063,4.356-20.306,4.53-20.691l2.683-6.052l2.682,6.052
				C279.382,61.716,282.978,69.958,283.738,82.021z M268.093,87.892v5.868h5.046h11.813v-5.868H268.093z M271.861,99.631h-5.482
				v47.08h20.296v-47.08H271.861z" />







		</g>
<g id="bullet-5">
<path fill="#FDD1A7" d="M311.221,82.021h-14.423c0.76-12.063,4.355-20.306,4.53-20.691l2.682-6.052l2.681,6.052
				C306.858,61.716,310.452,69.958,311.221,82.021z M295.576,87.892v5.868h5.045h11.814v-5.868H295.576z M299.345,99.631h-5.482
				v47.08h20.296v-47.08H299.345z" />







		</g>
	</g>
<g>
<g>
<path id="rifle" fill="#F48466" d="M30.21,127.314l7.047,11.229c0.806,1.285,1.722,2.501,2.734,3.632c0.139,0.15,0.323,0.256,0.522,0.294
				l0.604,0.117c0.792-0.127,1.543-0.439,2.195-0.911c0.293-0.21,0.567-0.442,0.827-0.693l0.13-0.126l19.95-22.758l1.404-1.424
				l3.382-3.083l1.569-1.317l2.28-1.833l1.655-1.081c0.871-0.57,1.855-0.949,2.887-1.082c0.1-0.012,0.19-0.024,0.272-0.027
				c1.167,0.307,2.196,0.998,2.928,1.955c0.102,0.139,0.489,2.35,0.489,2.35l-0.033,0.121l-2.47,13.202l-0.02,0.224
				c-0.033,0.337,0.073,0.679,0.289,0.94l0.752,0.07l0.74-0.125l7.16-1.447c0.331-0.068,0.632-0.234,0.868-0.476l0.311-0.319
				c0.232-0.239,0.307-0.588,0.194-0.901l-0.018-0.045c-0.082-0.228-0.204-0.439-0.362-0.624c-0.201-0.235-0.467-0.567-0.516-0.748
				c-0.157-0.569-0.232-1.157-0.227-1.748l0.063-8.426l10.693-6.376l1.604,2.33c2.292,3.332,4.902,6.43,7.793,9.256l3.707,3.627
				l9.65-7.203l-6.088-6.509c-2.853-3.049-5.314-6.444-7.325-10.104l-2.904-5.283l0.36-1.122l0.943-0.649l-0.017-0.902l3.702-2.357
				l0.176,0.304l0.087,0.152c0.436,0.405,0.985,0.672,1.575,0.762l0.93-0.292l45.826-26.938l-0.213-0.765
				c-0.037-0.125,0.018-0.256,0.128-0.32l0.273-0.16c0.439-0.257,0.599-0.814,0.361-1.265l-0.062-0.119
				c-0.15-0.287-0.047-0.64,0.235-0.801l3.756-2.133l1.082,1.844c0.163,0.278,0.513,0.382,0.8,0.237l0.453-0.228
				c0.327-0.16,0.448-0.562,0.268-0.879l-1.082-1.891l19.237-10.706l0.283,0.501l0.482-0.274l-0.283-0.496l0.451-0.25l0.279,0.491
				l0.483-0.273l-0.278-0.489l0.453-0.25l0.274,0.483l0.482-0.273l-0.272-0.482l4.992-2.777l-1.555-2.851l-5.016,2.849l-0.282-0.495
				l-0.481,0.272l0.281,0.497l-0.449,0.255l-0.283-0.497l-0.482,0.274l0.283,0.496l-0.452,0.256l-0.281-0.497l-0.481,0.273
				l0.282,0.498l-19.111,10.849l-4.749-8.345l-0.745-0.583l-0.922,0.333l-0.29,0.373l-0.603,1.059l-1.318,7.376l-48.393,25.274
				l-0.593,0.546l-0.146,0.796l0.113,0.544l-4.164,1.815l-0.599-1.28l-0.617-1.063l-0.592-0.67l-0.536-0.399l-1.287-0.468
				l-1.416,0.01l-21.929,9.399c-1.389,1.881-2.141,4.154-2.146,6.488l-0.149,3.876l-1.594,0.928l0.648,2.159l-41.042,23.651
				l-0.333,0.296l-0.267,0.763l0.025,0.394l0.257,0.967L30.21,127.314z M84.028,90.553l-2.485-4.441l13.751-7.586l0.531-0.308
				l0.576-0.232l0.468-0.069l0.509,0.005l0.361,0.097l0.448,0.248l0.327,0.215l0.373,0.291l0.222,0.378l0.264,0.456l0.069,0.467
				l0.025,0.39l0.024,0.392l-0.126,0.481l-0.218,0.327l-0.366,0.418L98.37,82.42L84.028,90.553z M87.644,106.549
				c-0.049-0.194-0.044-0.399,0.017-0.593l0.067-0.221l0.023-0.03l1.2-0.8l-0.062,0.476l0.101,0.348l0.125,0.74L89.423,107
				l0.372,0.291l0.416,0.367l1.146,0.045l-0.167-0.106l-0.295-0.334l-0.989-1.354l-0.101-0.346l-0.1-0.349l0.02-0.313l0.02-0.318
				l0.215-0.328l2.988-1.838c0.483-0.214,1.739-0.504,1.739-0.504c0.313,0.083,0.599,0.252,0.825,0.486l0.552,0.567
				c0.352,0.441,0.572,0.974,0.632,1.532l0.026,0.392l-0.269,0.764l-0.549,0.626l-0.759,0.439l-2.427,1.41l-1.135,0.662
				l-0.957,0.452c-0.209-0.012-0.413-0.061-0.604-0.146l-1.206-0.525l-0.372-0.292C88.072,107.758,87.802,107.171,87.644,106.549z" />







		</g>
	</g>
</g>
<g id="Layer_2">
	<g>
		<g>
			<g>
				<path fill="#58585A" d="M87.86,290.366l3.951,9.861l3.951-9.861h2.067v12.086h-1.594v-4.707l0.149-5.08l-3.968,9.787h-1.22
					l-3.959-9.762l0.158,5.055v4.707h-1.594v-12.086H87.86z"/>
				<path fill="#58585A" d="M105.098,301.563c-0.598,0.703-1.475,1.055-2.631,1.055c-0.958,0-1.687-0.278-2.187-0.834
					c-0.501-0.557-0.754-1.38-0.76-2.47v-5.844h1.536v5.802c0,1.361,0.553,2.043,1.66,2.043c1.173,0,1.954-0.438,2.341-1.313v-6.532
					h1.536v8.981h-1.461L105.098,301.563z"/>
				<path fill="#58585A" d="M109.527,293.471l0.05,1.129c0.686-0.863,1.583-1.295,2.689-1.295c1.898,0,2.855,1.071,2.872,3.212
					v5.936h-1.536v-5.943c-0.005-0.647-0.153-1.126-0.444-1.436c-0.29-0.311-0.743-0.465-1.357-0.465
					c-0.498,0-0.935,0.133-1.312,0.398s-0.669,0.613-0.88,1.045v6.4h-1.536v-8.981H109.527z"/>
				<path fill="#58585A" d="M116.613,291.089c0-0.25,0.076-0.46,0.228-0.631c0.152-0.172,0.378-0.258,0.677-0.258
					s0.526,0.086,0.681,0.258c0.154,0.171,0.232,0.381,0.232,0.631c0,0.248-0.078,0.456-0.232,0.622
					c-0.155,0.166-0.382,0.249-0.681,0.249s-0.524-0.083-0.677-0.249C116.689,291.545,116.613,291.337,116.613,291.089z
					 M118.273,302.452h-1.536v-8.981h1.536V302.452z"/>
				<path fill="#58585A" d="M121.963,291.296v2.175h1.677v1.187h-1.677v5.577c0,0.36,0.075,0.631,0.224,0.811
					s0.404,0.271,0.764,0.271c0.177,0,0.42-0.033,0.73-0.1v1.237c-0.404,0.11-0.797,0.165-1.179,0.165
					c-0.686,0-1.204-0.207-1.552-0.623c-0.349-0.414-0.523-1.004-0.523-1.768v-5.57h-1.635v-1.187h1.635v-2.175H121.963z"/>
				<path fill="#58585A" d="M124.591,291.089c0-0.25,0.076-0.46,0.228-0.631c0.152-0.172,0.378-0.258,0.677-0.258
					s0.526,0.086,0.681,0.258c0.155,0.171,0.232,0.381,0.232,0.631c0,0.248-0.078,0.456-0.232,0.622s-0.382,0.249-0.681,0.249
					s-0.524-0.083-0.677-0.249C124.667,291.545,124.591,291.337,124.591,291.089z M126.251,302.452h-1.536v-8.981h1.536V302.452z"/>
				<path fill="#58585A" d="M127.452,297.878c0-0.879,0.173-1.671,0.519-2.373c0.346-0.703,0.827-1.246,1.444-1.627
					c0.617-0.383,1.321-0.573,2.113-0.573c1.223,0,2.212,0.423,2.968,1.271c0.755,0.846,1.133,1.973,1.133,3.378v0.108
					c0,0.874-0.167,1.658-0.502,2.353c-0.335,0.694-0.813,1.235-1.437,1.623c-0.622,0.388-1.337,0.581-2.146,0.581
					c-1.217,0-2.204-0.424-2.959-1.27c-0.756-0.848-1.133-1.968-1.133-3.362V297.878z M128.996,298.062
					c0,0.996,0.231,1.795,0.693,2.398c0.462,0.604,1.08,0.904,1.855,0.904c0.78,0,1.4-0.306,1.859-0.917s0.689-1.468,0.689-2.569
					c0-0.984-0.234-1.783-0.702-2.395c-0.467-0.611-1.088-0.917-1.863-0.917c-0.759,0-1.37,0.302-1.834,0.905
					C129.228,296.074,128.996,296.938,128.996,298.062z"/>
				<path fill="#58585A" d="M138.156,293.471l0.05,1.129c0.686-0.863,1.583-1.295,2.689-1.295c1.898,0,2.855,1.071,2.872,3.212
					v5.936h-1.536v-5.943c-0.005-0.647-0.153-1.126-0.444-1.436c-0.29-0.311-0.743-0.465-1.357-0.465
					c-0.498,0-0.935,0.133-1.312,0.398s-0.669,0.613-0.88,1.045v6.4h-1.536v-8.981H138.156z"/>
				<path fill="#58585A" d="M150.463,300.069c0-0.414-0.156-0.737-0.469-0.967c-0.313-0.229-0.858-0.428-1.636-0.594
					c-0.777-0.166-1.395-0.365-1.851-0.598c-0.457-0.232-0.794-0.509-1.013-0.83c-0.219-0.32-0.328-0.702-0.328-1.145
					c0-0.736,0.312-1.359,0.934-1.868c0.623-0.509,1.418-0.764,2.387-0.764c1.018,0,1.844,0.263,2.478,0.788
					c0.634,0.526,0.95,1.198,0.95,2.018h-1.543c0-0.421-0.178-0.783-0.536-1.088c-0.356-0.304-0.806-0.456-1.349-0.456
					c-0.559,0-0.996,0.122-1.312,0.365s-0.473,0.562-0.473,0.954c0,0.371,0.146,0.65,0.44,0.839s0.823,0.368,1.59,0.54
					c0.766,0.171,1.387,0.376,1.863,0.613c0.476,0.238,0.829,0.524,1.059,0.859c0.229,0.335,0.344,0.743,0.344,1.225
					c0,0.803-0.32,1.445-0.962,1.93c-0.643,0.484-1.475,0.727-2.499,0.727c-0.719,0-1.356-0.127-1.909-0.382
					s-0.986-0.61-1.299-1.066c-0.313-0.457-0.469-0.95-0.469-1.481h1.536c0.028,0.514,0.234,0.922,0.618,1.224
					c0.385,0.302,0.893,0.452,1.523,0.452c0.581,0,1.047-0.117,1.398-0.353C150.288,300.776,150.463,300.463,150.463,300.069z"/>
				<path fill="#58585A" d="M156.134,297.887c0-1.378,0.327-2.486,0.979-3.324c0.653-0.839,1.508-1.258,2.565-1.258
					c1.051,0,1.884,0.359,2.499,1.079v-4.682h1.536v12.75h-1.411l-0.075-0.963c-0.614,0.753-1.469,1.129-2.565,1.129
					c-1.041,0-1.889-0.426-2.544-1.278c-0.656-0.853-0.984-1.965-0.984-3.337V297.887z M157.67,298.062
					c0,1.018,0.21,1.814,0.631,2.391c0.42,0.575,1.001,0.863,1.743,0.863c0.974,0,1.685-0.438,2.133-1.313v-4.125
					c-0.459-0.847-1.165-1.27-2.117-1.27c-0.752,0-1.339,0.29-1.76,0.871S157.67,296.921,157.67,298.062z"/>
				<path fill="#58585A" d="M168.972,302.618c-1.217,0-2.208-0.399-2.972-1.199s-1.146-1.869-1.146-3.209v-0.281
					c0-0.892,0.17-1.687,0.51-2.387c0.341-0.7,0.816-1.248,1.428-1.644c0.612-0.396,1.274-0.594,1.988-0.594
					c1.167,0,2.075,0.385,2.723,1.153c0.647,0.77,0.971,1.871,0.971,3.305v0.639h-6.084c0.022,0.886,0.281,1.601,0.776,2.146
					c0.495,0.545,1.125,0.817,1.888,0.817c0.542,0,1.001-0.11,1.378-0.332c0.376-0.221,0.706-0.514,0.988-0.879l0.938,0.73
					C171.606,302.04,170.478,302.618,168.972,302.618z M168.781,294.566c-0.62,0-1.14,0.226-1.561,0.677s-0.681,1.083-0.78,1.896
					h4.499v-0.116c-0.045-0.78-0.254-1.385-0.631-1.813S169.423,294.566,168.781,294.566z"/>
				<path fill="#58585A" d="M178.631,300.069c0-0.414-0.156-0.737-0.469-0.967c-0.313-0.229-0.858-0.428-1.636-0.594
					s-1.395-0.365-1.851-0.598c-0.457-0.232-0.794-0.509-1.013-0.83c-0.219-0.32-0.328-0.702-0.328-1.145
					c0-0.736,0.312-1.359,0.934-1.868c0.623-0.509,1.418-0.764,2.387-0.764c1.018,0,1.844,0.263,2.478,0.788
					c0.634,0.526,0.951,1.198,0.951,2.018h-1.544c0-0.421-0.178-0.783-0.536-1.088c-0.356-0.304-0.806-0.456-1.349-0.456
					c-0.559,0-0.996,0.122-1.312,0.365s-0.473,0.562-0.473,0.954c0,0.371,0.146,0.65,0.44,0.839s0.823,0.368,1.59,0.54
					c0.766,0.171,1.387,0.376,1.863,0.613c0.476,0.238,0.829,0.524,1.059,0.859c0.229,0.335,0.344,0.743,0.344,1.225
					c0,0.803-0.321,1.445-0.963,1.93s-1.475,0.727-2.499,0.727c-0.719,0-1.356-0.127-1.909-0.382s-0.986-0.61-1.299-1.066
					c-0.313-0.457-0.469-0.95-0.469-1.481h1.536c0.028,0.514,0.234,0.922,0.618,1.224c0.385,0.302,0.893,0.452,1.523,0.452
					c0.581,0,1.047-0.117,1.398-0.353C178.455,300.776,178.631,300.463,178.631,300.069z"/>
				<path fill="#58585A" d="M183.401,291.296v2.175h1.677v1.187h-1.677v5.577c0,0.36,0.075,0.631,0.224,0.811
					s0.404,0.271,0.764,0.271c0.177,0,0.42-0.033,0.73-0.1v1.237c-0.404,0.11-0.797,0.165-1.179,0.165
					c-0.686,0-1.204-0.207-1.552-0.623c-0.349-0.414-0.523-1.004-0.523-1.768v-5.57h-1.635v-1.187h1.635v-2.175H183.401z"/>
				<path fill="#58585A" d="M190.362,294.849c-0.232-0.039-0.484-0.059-0.755-0.059c-1.007,0-1.69,0.43-2.05,1.287v6.375h-1.536
					v-8.981h1.494l0.025,1.038c0.503-0.803,1.217-1.204,2.142-1.204c0.299,0,0.525,0.039,0.681,0.116V294.849z"/>
				<path fill="#58585A" d="M190.35,297.878c0-0.879,0.173-1.671,0.519-2.373c0.346-0.703,0.827-1.246,1.444-1.627
					c0.617-0.383,1.321-0.573,2.112-0.573c1.223,0,2.212,0.423,2.968,1.271c0.755,0.846,1.133,1.973,1.133,3.378v0.108
					c0,0.874-0.167,1.658-0.502,2.353c-0.335,0.694-0.813,1.235-1.437,1.623c-0.622,0.388-1.337,0.581-2.146,0.581
					c-1.217,0-2.204-0.424-2.959-1.27c-0.756-0.848-1.133-1.968-1.133-3.362V297.878z M191.894,298.062
					c0,0.996,0.231,1.795,0.693,2.398c0.462,0.604,1.081,0.904,1.855,0.904c0.78,0,1.4-0.306,1.859-0.917s0.689-1.468,0.689-2.569
					c0-0.984-0.234-1.783-0.702-2.395c-0.467-0.611-1.088-0.917-1.863-0.917c-0.758,0-1.37,0.302-1.834,0.905
					C192.126,296.074,191.894,296.938,191.894,298.062z"/>
				<path fill="#58585A" d="M202.416,300.202l2.092-6.731h1.644l-3.611,10.368c-0.559,1.494-1.447,2.24-2.665,2.24l-0.291-0.024
					l-0.573-0.108v-1.244l0.415,0.033c0.52,0,0.926-0.105,1.216-0.316c0.291-0.21,0.53-0.595,0.718-1.153l0.34-0.913l-3.205-8.882
					h1.677L202.416,300.202z"/>
				<path fill="#58585A" d="M210.29,302.618c-1.217,0-2.208-0.399-2.972-1.199c-0.764-0.8-1.146-1.869-1.146-3.209v-0.281
					c0-0.892,0.17-1.687,0.51-2.387c0.341-0.7,0.816-1.248,1.428-1.644c0.612-0.396,1.274-0.594,1.988-0.594
					c1.167,0,2.075,0.385,2.723,1.153c0.647,0.77,0.971,1.871,0.971,3.305v0.639h-6.084c0.022,0.886,0.281,1.601,0.776,2.146
					c0.495,0.545,1.125,0.817,1.888,0.817c0.543,0,1.002-0.11,1.378-0.332c0.376-0.221,0.706-0.514,0.988-0.879l0.938,0.73
					C212.924,302.04,211.795,302.618,210.29,302.618z M210.099,294.566c-0.62,0-1.14,0.226-1.561,0.677s-0.681,1.083-0.78,1.896
					h4.499v-0.116c-0.044-0.78-0.254-1.385-0.631-1.813S210.741,294.566,210.099,294.566z"/>
				<path fill="#58585A" d="M214.346,297.887c0-1.378,0.327-2.486,0.979-3.324c0.653-0.839,1.508-1.258,2.565-1.258
					c1.051,0,1.884,0.359,2.499,1.079v-4.682h1.536v12.75h-1.411l-0.075-0.963c-0.614,0.753-1.469,1.129-2.565,1.129
					c-1.04,0-1.888-0.426-2.543-1.278c-0.656-0.853-0.984-1.965-0.984-3.337V297.887z M215.882,298.062
					c0,1.018,0.21,1.814,0.631,2.391c0.42,0.575,1.001,0.863,1.743,0.863c0.974,0,1.685-0.438,2.133-1.313v-4.125
					c-0.459-0.847-1.165-1.27-2.117-1.27c-0.752,0-1.339,0.29-1.76,0.871S215.882,296.921,215.882,298.062z"/>
				<path fill="#58585A" d="M226.824,291.089c0-0.25,0.076-0.46,0.228-0.631c0.152-0.172,0.378-0.258,0.677-0.258
					s0.526,0.086,0.681,0.258c0.155,0.171,0.232,0.381,0.232,0.631c0,0.248-0.078,0.456-0.232,0.622s-0.382,0.249-0.681,0.249
					s-0.524-0.083-0.677-0.249C226.9,291.545,226.824,291.337,226.824,291.089z M228.484,302.452h-1.536v-8.981h1.536V302.452z"/>
				<path fill="#58585A" d="M231.543,293.471l0.05,1.129c0.686-0.863,1.583-1.295,2.689-1.295c1.898,0,2.855,1.071,2.872,3.212
					v5.936h-1.536v-5.943c-0.005-0.647-0.153-1.126-0.444-1.436c-0.29-0.311-0.743-0.465-1.357-0.465
					c-0.498,0-0.935,0.133-1.312,0.398s-0.669,0.613-0.88,1.045v6.4h-1.536v-8.981H231.543z"/>
				<path fill="#58585A" d="M249.741,302.452h-7.919v-1.104l4.184-4.648c0.62-0.703,1.047-1.274,1.283-1.715
					c0.235-0.439,0.353-0.895,0.353-1.365c0-0.631-0.191-1.148-0.573-1.553c-0.382-0.403-0.891-0.605-1.527-0.605
					c-0.764,0-1.357,0.217-1.781,0.651c-0.423,0.435-0.635,1.039-0.635,1.813h-1.536c0-1.111,0.358-2.011,1.075-2.697
					c0.717-0.687,1.676-1.029,2.876-1.029c1.124,0,2.012,0.295,2.665,0.884c0.653,0.59,0.979,1.374,0.979,2.354
					c0,1.189-0.758,2.606-2.274,4.25l-3.237,3.511h6.068V302.452z"/>
				<path fill="#58585A" d="M258.096,297.298c0,1.798-0.307,3.135-0.921,4.009s-1.574,1.312-2.88,1.312
					c-1.29,0-2.244-0.428-2.864-1.282c-0.62-0.855-0.941-2.132-0.963-3.831v-2.051c0-1.775,0.307-3.096,0.921-3.959
					s1.577-1.295,2.889-1.295c1.3,0,2.258,0.416,2.872,1.249s0.93,2.118,0.946,3.856V297.298z M256.561,295.197
					c0-1.301-0.183-2.248-0.548-2.843s-0.943-0.893-1.735-0.893c-0.786,0-1.358,0.296-1.718,0.889
					c-0.36,0.592-0.545,1.502-0.556,2.73v2.457c0,1.306,0.189,2.271,0.568,2.893c0.379,0.623,0.954,0.934,1.723,0.934
					c0.758,0,1.321-0.293,1.689-0.879c0.368-0.587,0.56-1.512,0.577-2.773V295.197z"/>
				<path fill="#58585A" d="M264.26,302.452h-1.544v-10.234l-3.096,1.137v-1.395l4.399-1.652h0.241V302.452z"/>
				<path fill="#58585A" d="M268.615,296.393l0.614-6.026h6.192v1.42h-4.889l-0.365,3.295c0.592-0.349,1.265-0.523,2.017-0.523
					c1.101,0,1.976,0.364,2.623,1.092s0.971,1.712,0.971,2.951c0,1.245-0.336,2.226-1.008,2.942
					c-0.673,0.717-1.612,1.075-2.818,1.075c-1.068,0-1.939-0.296-2.615-0.889c-0.675-0.592-1.06-1.41-1.154-2.457h1.453
					c0.094,0.692,0.34,1.214,0.739,1.565s0.924,0.526,1.577,0.526c0.714,0,1.274-0.243,1.681-0.73
					c0.407-0.486,0.61-1.159,0.61-2.017c0-0.808-0.22-1.457-0.66-1.946c-0.439-0.49-1.025-0.734-1.755-0.734
					c-0.669,0-1.195,0.146-1.577,0.439l-0.407,0.332L268.615,296.393z"/>
			</g>
		</g>
		<g>
			<g>
				<g>
					<path fill="#F48466" d="M141.028,328.156l-2.434,2.53v6.726h-2.625v-19.906h2.625v9.844l8.846-9.844h3.172l-7.834,8.791
						l8.449,11.115h-3.145L141.028,328.156z"/>
					<path fill="#F48466" d="M152.089,329.878c0-1.449,0.285-2.752,0.854-3.91c0.569-1.158,1.362-2.051,2.379-2.68
						c1.016-0.629,2.175-0.943,3.479-0.943c2.014,0,3.644,0.697,4.888,2.092s1.866,3.25,1.866,5.565v0.177
						c0,1.44-0.276,2.732-0.827,3.876c-0.552,1.144-1.34,2.036-2.365,2.672c-1.025,0.639-2.204,0.958-3.534,0.958
						c-2.005,0-3.63-0.698-4.874-2.092c-1.244-1.394-1.866-3.241-1.866-5.537V329.878z M154.632,330.179
						c0,1.641,0.38,2.958,1.142,3.951c0.761,0.994,1.779,1.49,3.056,1.49c1.285,0,2.306-0.503,3.063-1.51
						c0.756-1.008,1.135-2.418,1.135-4.232c0-1.622-0.385-2.937-1.155-3.944c-0.771-1.007-1.793-1.511-3.069-1.511
						c-1.249,0-2.256,0.497-3.021,1.49C155.015,326.907,154.632,328.329,154.632,330.179z"/>
					<path fill="#F48466" d="M177.341,333.488c0-0.684-0.258-1.214-0.772-1.593c-0.515-0.377-1.413-0.704-2.693-0.977
						c-1.281-0.274-2.297-0.602-3.049-0.984s-1.308-0.839-1.668-1.367c-0.36-0.529-0.54-1.157-0.54-1.887
						c0-1.212,0.513-2.237,1.538-3.077c1.025-0.838,2.335-1.257,3.931-1.257c1.677,0,3.037,0.433,4.081,1.298
						c1.043,0.867,1.565,1.974,1.565,3.323h-2.543c0-0.692-0.294-1.29-0.882-1.792c-0.588-0.5-1.329-0.752-2.222-0.752
						c-0.921,0-1.641,0.201-2.16,0.602c-0.52,0.402-0.779,0.925-0.779,1.572c0,0.611,0.241,1.071,0.725,1.38
						c0.483,0.311,1.355,0.607,2.618,0.89c1.262,0.282,2.285,0.62,3.069,1.011c0.784,0.392,1.365,0.864,1.743,1.416
						c0.378,0.551,0.567,1.224,0.567,2.016c0,1.322-0.529,2.381-1.586,3.179c-1.058,0.798-2.429,1.197-4.115,1.197
						c-1.185,0-2.233-0.21-3.145-0.629c-0.912-0.419-1.625-1.005-2.14-1.757c-0.515-0.752-0.772-1.565-0.772-2.44h2.529
						c0.045,0.848,0.385,1.52,1.019,2.017c0.633,0.497,1.47,0.745,2.509,0.745c0.957,0,1.725-0.193,2.304-0.581
						C177.051,334.652,177.341,334.135,177.341,333.488z"/>
					<path fill="#F48466" d="M182.495,329.878c0-1.449,0.285-2.752,0.854-3.91c0.569-1.158,1.362-2.051,2.379-2.68
						c1.016-0.629,2.176-0.943,3.479-0.943c2.014,0,3.644,0.697,4.888,2.092s1.866,3.25,1.866,5.565v0.177
						c0,1.44-0.276,2.732-0.827,3.876c-0.552,1.144-1.34,2.036-2.365,2.672c-1.025,0.639-2.204,0.958-3.534,0.958
						c-2.005,0-3.63-0.698-4.874-2.092c-1.244-1.394-1.866-3.241-1.866-5.537V329.878z M185.038,330.179
						c0,1.641,0.38,2.958,1.142,3.951c0.761,0.994,1.779,1.49,3.056,1.49c1.285,0,2.306-0.503,3.063-1.51
						c0.756-1.008,1.135-2.418,1.135-4.232c0-1.622-0.385-2.937-1.155-3.944c-0.771-1.007-1.793-1.511-3.069-1.511
						c-1.249,0-2.256,0.497-3.021,1.49C185.421,326.907,185.038,328.329,185.038,330.179z"/>
					<path fill="#F48466" d="M203.81,333.98l3.664-11.361h2.584l-5.305,14.792h-1.928l-5.359-14.792h2.584L203.81,333.98z"/>
					<path fill="#F48466" d="M211.616,329.878c0-1.449,0.285-2.752,0.854-3.91c0.569-1.158,1.362-2.051,2.379-2.68
						c1.016-0.629,2.176-0.943,3.479-0.943c2.014,0,3.644,0.697,4.888,2.092s1.866,3.25,1.866,5.565v0.177
						c0,1.44-0.276,2.732-0.827,3.876c-0.552,1.144-1.34,2.036-2.365,2.672c-1.025,0.639-2.204,0.958-3.534,0.958
						c-2.005,0-3.63-0.698-4.874-2.092c-1.244-1.394-1.866-3.241-1.866-5.537V329.878z M214.159,330.179
						c0,1.641,0.38,2.958,1.142,3.951c0.761,0.994,1.779,1.49,3.056,1.49c1.285,0,2.306-0.503,3.063-1.51
						c0.756-1.008,1.135-2.418,1.135-4.232c0-1.622-0.385-2.937-1.155-3.944c-0.771-1.007-1.793-1.511-3.069-1.511
						c-1.249,0-2.256,0.497-3.021,1.49C214.542,326.907,214.159,328.329,214.159,330.179z"/>
				</g>
			</g>
			<g>
				<g>
					<path fill="#F48466" d="M231.022,328.087h-1.482v-9.828l-2.973,1.092v-1.339l4.225-1.585h0.231V328.087z"/>
				</g>
			</g>
		</g>
	</g>
	<g>
		<g>
			<g>
				<path fill="#F48466" d="M60.057,245.724l0.227,1.555l0.332-1.401l2.332-8.227h1.313l2.275,8.227l0.323,1.425l0.251-1.587
					l1.83-8.065h1.563l-2.859,11.79h-1.417l-2.429-8.591l-0.187-0.899l-0.186,0.899l-2.518,8.591H59.49l-2.851-11.79h1.555
					L60.057,245.724z"/>
				<path fill="#F48466" d="M78.56,243.991H73.45v4.178h5.936v1.271h-7.49v-11.79h7.409v1.271H73.45v3.798h5.109V243.991z"/>
				<path fill="#F48466" d="M87.5,246.355h-4.939l-1.109,3.085h-1.604l4.502-11.79h1.36l4.511,11.79h-1.596L87.5,246.355z
					 M83.03,245.084h4.008l-2.008-5.514L83.03,245.084z"/>
				<path fill="#F48466" d="M93.03,244.825v4.615h-1.555v-11.79h4.349c1.29,0,2.301,0.33,3.032,0.988
					c0.731,0.659,1.098,1.531,1.098,2.616c0,1.145-0.358,2.026-1.073,2.644s-1.739,0.927-3.073,0.927H93.03z M93.03,243.554h2.794
					c0.831,0,1.468-0.196,1.911-0.588c0.442-0.392,0.664-0.958,0.664-1.699c0-0.703-0.222-1.266-0.664-1.688
					c-0.443-0.421-1.05-0.641-1.822-0.657H93.03V243.554z"/>
				<path fill="#F48466" d="M110.676,243.927c0,1.155-0.194,2.163-0.583,3.024c-0.389,0.86-0.939,1.518-1.652,1.971
					s-1.544,0.68-2.494,0.68c-0.928,0-1.752-0.228-2.47-0.685c-0.718-0.456-1.275-1.106-1.672-1.951s-0.601-1.823-0.611-2.936v-0.85
					c0-1.134,0.197-2.135,0.591-3.004c0.395-0.869,0.952-1.534,1.672-1.996c0.721-0.461,1.545-0.692,2.474-0.692
					c0.944,0,1.777,0.228,2.498,0.684s1.275,1.117,1.664,1.984c0.389,0.866,0.583,1.875,0.583,3.024V243.927z M109.129,243.165
					c0-1.398-0.281-2.471-0.842-3.219c-0.562-0.747-1.347-1.121-2.356-1.121c-0.983,0-1.756,0.374-2.32,1.121
					c-0.564,0.748-0.854,1.785-0.87,3.113v0.867c0,1.354,0.284,2.419,0.854,3.194c0.569,0.774,1.354,1.163,2.352,1.163
					c1.004,0,1.781-0.366,2.332-1.098c0.551-0.732,0.834-1.78,0.851-3.146V243.165z"/>
				<path fill="#F48466" d="M121.737,249.44h-1.563l-5.935-9.085v9.085h-1.563v-11.79h1.563l5.952,9.126v-9.126h1.546V249.44z"/>
				<path fill="#F48466" d="M127.64,244.186c-1.333-0.384-2.304-0.854-2.911-1.414c-0.607-0.559-0.911-1.248-0.911-2.069
					c0-0.928,0.371-1.696,1.113-2.304s1.707-0.911,2.895-0.911c0.81,0,1.532,0.156,2.166,0.469c0.635,0.313,1.126,0.745,1.474,1.296
					c0.348,0.55,0.522,1.152,0.522,1.806h-1.563c0-0.715-0.227-1.277-0.681-1.686c-0.453-0.41-1.093-0.614-1.919-0.614
					c-0.767,0-1.364,0.169-1.793,0.508c-0.429,0.337-0.644,0.807-0.644,1.407c0,0.481,0.204,0.888,0.611,1.22
					c0.408,0.333,1.101,0.638,2.081,0.913c0.98,0.276,1.746,0.58,2.299,0.912c0.554,0.332,0.964,0.719,1.231,1.162
					c0.267,0.443,0.4,0.964,0.4,1.563c0,0.956-0.372,1.721-1.117,2.296c-0.745,0.575-1.741,0.862-2.988,0.862
					c-0.81,0-1.565-0.155-2.267-0.466s-1.243-0.735-1.624-1.275c-0.381-0.54-0.571-1.152-0.571-1.838h1.563
					c0,0.712,0.263,1.275,0.789,1.688c0.526,0.413,1.229,0.62,2.109,0.62c0.82,0,1.449-0.167,1.887-0.502
					c0.438-0.335,0.656-0.791,0.656-1.369s-0.203-1.025-0.607-1.34C129.438,244.805,128.704,244.493,127.64,244.186z"/>
			</g>
		</g>
		<g>
			<g>
				<path fill="#FCD0A6" d="M154.066,227.539c0-0.567,0.158-1.088,0.474-1.563c0.316-0.475,0.919-1.028,1.81-1.66
					c-0.523-0.637-0.874-1.15-1.053-1.539c-0.178-0.389-0.267-0.775-0.267-1.158c0-0.896,0.264-1.598,0.793-2.105
					c0.529-0.507,1.247-0.761,2.154-0.761c0.81,0,1.479,0.236,2.008,0.708c0.529,0.472,0.794,1.067,0.794,1.785
					c0,0.475-0.12,0.914-0.36,1.316c-0.24,0.402-0.66,0.825-1.259,1.268l-0.867,0.64l2.624,3.133
					c0.367-0.701,0.551-1.481,0.551-2.34h1.352c0,1.376-0.332,2.518-0.996,3.425l1.684,2.016h-1.797l-0.786-0.931
					c-0.399,0.356-0.868,0.627-1.405,0.813s-1.083,0.279-1.64,0.279c-1.15,0-2.073-0.306-2.77-0.915
					C154.415,229.343,154.066,228.538,154.066,227.539z M157.88,229.645c0.793,0,1.52-0.302,2.178-0.907l-2.875-3.441l-0.267,0.194
					c-0.902,0.664-1.353,1.347-1.353,2.049c0,0.637,0.207,1.146,0.619,1.53C156.597,229.453,157.162,229.645,157.88,229.645z
					 M156.528,221.571c0,0.518,0.318,1.166,0.955,1.943l0.956-0.672c0.367-0.259,0.618-0.506,0.753-0.741
					c0.135-0.234,0.202-0.52,0.202-0.854c0-0.361-0.135-0.663-0.405-0.903s-0.61-0.36-1.02-0.36c-0.443,0-0.794,0.149-1.053,0.449
					C156.657,220.733,156.528,221.112,156.528,221.571z"/>
			</g>
		</g>
		<g>
			<g>
				<path fill="#F48466" d="M173.691,246.758h-2.145v3.694h-1.21v-9.133h3.023c1.028,0,1.82,0.234,2.374,0.703
					c0.554,0.468,0.831,1.15,0.831,2.044c0,0.569-0.153,1.064-0.461,1.487s-0.735,0.739-1.283,0.947l2.145,3.876v0.075h-1.292
					L173.691,246.758z M171.546,245.773h1.85c0.599,0,1.074-0.155,1.427-0.465c0.354-0.31,0.53-0.725,0.53-1.244
					c0-0.565-0.168-0.999-0.505-1.301c-0.336-0.302-0.822-0.455-1.458-0.458h-1.844V245.773z"/>
				<path fill="#F48466" d="M185.021,246.181c0,0.895-0.151,1.676-0.452,2.343c-0.301,0.667-0.728,1.176-1.279,1.527
					s-1.196,0.527-1.932,0.527c-0.719,0-1.357-0.177-1.913-0.53c-0.556-0.353-0.988-0.857-1.295-1.512
					c-0.307-0.654-0.465-1.412-0.474-2.273v-0.659c0-0.878,0.153-1.654,0.458-2.327c0.305-0.674,0.737-1.189,1.295-1.546
					s1.197-0.536,1.917-0.536c0.731,0,1.376,0.177,1.935,0.53c0.559,0.354,0.988,0.866,1.289,1.537
					c0.301,0.671,0.452,1.452,0.452,2.343V246.181z M183.822,245.591c0-1.083-0.218-1.914-0.652-2.493
					c-0.435-0.579-1.043-0.869-1.825-0.869c-0.762,0-1.36,0.29-1.797,0.869s-0.662,1.383-0.675,2.412v0.671
					c0,1.049,0.221,1.875,0.663,2.475c0.441,0.6,1.048,0.9,1.822,0.9c0.778,0,1.38-0.283,1.807-0.85
					c0.426-0.566,0.646-1.379,0.659-2.437V245.591z"/>
				<path fill="#F48466" d="M192.999,241.319v6.21c-0.003,0.861-0.274,1.566-0.812,2.114c-0.538,0.547-1.266,0.854-2.186,0.921
					l-0.32,0.013c-1,0-1.796-0.27-2.39-0.809s-0.895-1.282-0.903-2.227v-6.223h1.192v6.185c0,0.661,0.182,1.174,0.545,1.54
					c0.364,0.366,0.882,0.549,1.556,0.549c0.681,0,1.203-0.182,1.565-0.546c0.361-0.363,0.542-0.876,0.542-1.536v-6.191H192.999z"/>
				<path fill="#F48466" d="M201.662,250.452h-1.211l-4.598-7.038v7.038h-1.211v-9.133h1.211l4.61,7.069v-7.069h1.198V250.452z"/>
				<path fill="#F48466" d="M203.544,250.452v-9.133h2.578c0.794,0,1.497,0.175,2.107,0.527c0.61,0.351,1.082,0.851,1.414,1.499
					c0.333,0.648,0.501,1.393,0.505,2.233v0.583c0,0.861-0.166,1.616-0.499,2.265c-0.333,0.647-0.807,1.145-1.424,1.492
					c-0.617,0.347-1.335,0.525-2.155,0.533H203.544z M204.748,242.304v7.163h1.268c0.928,0,1.65-0.289,2.167-0.866
					c0.517-0.578,0.774-1.4,0.774-2.468V245.6c0-1.039-0.243-1.845-0.73-2.42c-0.487-0.575-1.179-0.867-2.073-0.875H204.748z"/>
				<path fill="#F48466" d="M214.402,246.381c-1.033-0.297-1.785-0.662-2.255-1.095c-0.471-0.433-0.706-0.967-0.706-1.603
					c0-0.719,0.288-1.314,0.862-1.785c0.575-0.47,1.323-0.706,2.243-0.706c0.627,0,1.187,0.121,1.678,0.364
					c0.491,0.243,0.872,0.577,1.142,1.003c0.27,0.427,0.404,0.894,0.404,1.399h-1.211c0-0.554-0.175-0.989-0.526-1.306
					c-0.352-0.317-0.847-0.475-1.487-0.475c-0.594,0-1.057,0.131-1.389,0.393c-0.333,0.263-0.499,0.625-0.499,1.09
					c0,0.374,0.158,0.688,0.474,0.946c0.316,0.258,0.854,0.493,1.612,0.707c0.759,0.213,1.353,0.449,1.781,0.706
					s0.747,0.557,0.953,0.9c0.207,0.343,0.311,0.746,0.311,1.21c0,0.74-0.288,1.333-0.865,1.778s-1.349,0.668-2.314,0.668
					c-0.627,0-1.213-0.12-1.757-0.361c-0.543-0.24-0.963-0.57-1.257-0.988c-0.295-0.418-0.442-0.893-0.442-1.424h1.21
					c0,0.552,0.204,0.988,0.612,1.308s0.953,0.48,1.634,0.48c0.635,0,1.123-0.129,1.461-0.389c0.339-0.259,0.509-0.613,0.509-1.061
					c0-0.447-0.157-0.793-0.471-1.038S215.226,246.62,214.402,246.381z"/>
				<path fill="#F48466" d="M229.024,246.181c0,0.895-0.151,1.676-0.452,2.343c-0.301,0.667-0.728,1.176-1.279,1.527
					s-1.196,0.527-1.932,0.527c-0.719,0-1.357-0.177-1.913-0.53c-0.556-0.353-0.988-0.857-1.295-1.512
					c-0.307-0.654-0.465-1.412-0.474-2.273v-0.659c0-0.878,0.153-1.654,0.458-2.327c0.305-0.674,0.737-1.189,1.295-1.546
					c0.558-0.357,1.197-0.536,1.917-0.536c0.731,0,1.376,0.177,1.935,0.53c0.559,0.354,0.988,0.866,1.289,1.537
					c0.301,0.671,0.452,1.452,0.452,2.343V246.181z M227.826,245.591c0-1.083-0.218-1.914-0.652-2.493
					c-0.435-0.579-1.043-0.869-1.825-0.869c-0.762,0-1.36,0.29-1.797,0.869s-0.662,1.383-0.674,2.412v0.671
					c0,1.049,0.221,1.875,0.662,2.475c0.441,0.6,1.048,0.9,1.822,0.9c0.778,0,1.38-0.283,1.807-0.85
					c0.426-0.566,0.646-1.379,0.659-2.437V245.591z"/>
				<path fill="#F48466" d="M235.61,246.419h-3.832v4.033h-1.205v-9.133h5.658v0.985h-4.453v3.13h3.832V246.419z"/>
				<path fill="#F48466" d="M245.384,248.063h-3.826l-0.859,2.39h-1.242l3.488-9.133h1.054l3.494,9.133h-1.235L245.384,248.063z
					 M241.921,247.078h3.105l-1.556-4.272L241.921,247.078z"/>
				<path fill="#F48466" d="M250.02,241.319l2.986,7.452l2.986-7.452h1.562v9.133h-1.204v-3.557l0.113-3.839l-2.999,7.396h-0.922
					l-2.992-7.376l0.119,3.82v3.557h-1.204v-9.133H250.02z"/>
				<path fill="#F48466" d="M260.978,241.319l2.986,7.452l2.985-7.452h1.563v9.133h-1.205v-3.557l0.113-3.839l-2.998,7.396H263.5
					l-2.992-7.376l0.119,3.82v3.557h-1.205v-9.133H260.978z"/>
				<path fill="#F48466" d="M276.811,241.319v6.21c-0.004,0.861-0.275,1.566-0.813,2.114c-0.537,0.547-1.266,0.854-2.186,0.921
					l-0.32,0.013c-1,0-1.796-0.27-2.39-0.809c-0.594-0.54-0.896-1.282-0.903-2.227v-6.223h1.191v6.185
					c0,0.661,0.182,1.174,0.546,1.54c0.364,0.366,0.882,0.549,1.556,0.549c0.682,0,1.203-0.182,1.565-0.546
					c0.362-0.363,0.542-0.876,0.542-1.536v-6.191H276.811z"/>
				<path fill="#F48466" d="M285.473,250.452h-1.21l-4.598-7.038v7.038h-1.21v-9.133h1.21l4.611,7.069v-7.069h1.198V250.452z"/>
				<path fill="#F48466" d="M293.483,242.304h-2.936v8.148h-1.198v-8.148h-2.929v-0.985h7.063V242.304z"/>
				<path fill="#F48466" d="M295.874,250.452h-1.204v-9.133h1.204V250.452z"/>
				<path fill="#F48466" d="M304.844,246.181c0,0.895-0.15,1.676-0.452,2.343s-0.728,1.176-1.28,1.527
					c-0.552,0.352-1.196,0.527-1.932,0.527c-0.72,0-1.357-0.177-1.913-0.53c-0.557-0.353-0.988-0.857-1.295-1.512
					c-0.308-0.654-0.465-1.412-0.474-2.273v-0.659c0-0.878,0.153-1.654,0.458-2.327c0.306-0.674,0.737-1.189,1.296-1.546
					c0.558-0.357,1.197-0.536,1.916-0.536c0.731,0,1.377,0.177,1.935,0.53c0.559,0.354,0.988,0.866,1.29,1.537
					c0.301,0.671,0.452,1.452,0.452,2.343V246.181z M303.646,245.591c0-1.083-0.217-1.914-0.652-2.493
					c-0.435-0.579-1.043-0.869-1.825-0.869c-0.761,0-1.36,0.29-1.797,0.869c-0.438,0.579-0.662,1.383-0.675,2.412v0.671
					c0,1.049,0.221,1.875,0.662,2.475s1.048,0.9,1.822,0.9c0.777,0,1.38-0.283,1.807-0.85c0.426-0.566,0.646-1.379,0.658-2.437
					V245.591z"/>
				<path fill="#F48466" d="M313.412,250.452h-1.21l-4.598-7.038v7.038h-1.21v-9.133h1.21l4.61,7.069v-7.069h1.198V250.452z"/>
			</g>
		</g>
		<g>
			<g>
				<path fill="#F48466" d="M64.068,203.797h2.761v5.232h-2.761v7.014h-6.301v-7.014H47.035l-0.29-4.075l11-21.331h6.323V203.797z
					 M52.869,203.797h4.898v-10.844l-0.133,0.245L52.869,203.797z"/>
				<path fill="#F48466" d="M71.434,224.214l-3.362-1.759l0.846-1.581c0.95-1.751,1.439-3.518,1.47-5.299v-5.01h5.478l-0.022,4.476
					c-0.015,1.573-0.416,3.206-1.202,4.898C73.854,221.632,72.784,223.057,71.434,224.214z"/>
				<path fill="#F48466" d="M98.282,202.639c0,4.483-0.813,7.912-2.438,10.287c-1.625,2.375-3.945,3.563-6.958,3.563
					c-2.983,0-5.288-1.154-6.914-3.462c-1.625-2.309-2.468-5.615-2.527-9.92v-6.123c0-4.468,0.809-7.886,2.427-10.253
					c1.618-2.368,3.941-3.551,6.969-3.551s5.351,1.173,6.969,3.518c1.618,2.345,2.441,5.692,2.472,10.042V202.639z M91.958,196.07
					c0-2.553-0.252-4.468-0.757-5.745c-0.505-1.276-1.291-1.915-2.36-1.915c-2.004,0-3.043,2.338-3.117,7.014v8.083
					c0,2.613,0.256,4.557,0.768,5.833c0.512,1.277,1.31,1.915,2.394,1.915c1.024,0,1.785-0.597,2.282-1.792
					c0.497-1.195,0.761-3.024,0.791-5.488V196.07z"/>
				<path fill="#F48466" d="M120.209,202.639c0,4.483-0.813,7.912-2.438,10.287c-1.625,2.375-3.945,3.563-6.958,3.563
					c-2.984,0-5.288-1.154-6.914-3.462c-1.625-2.309-2.468-5.615-2.527-9.92v-6.123c0-4.468,0.809-7.886,2.427-10.253
					c1.617-2.368,3.941-3.551,6.969-3.551c3.028,0,5.352,1.173,6.97,3.518c1.617,2.345,2.441,5.692,2.471,10.042V202.639z
					 M113.886,196.07c0-2.553-0.252-4.468-0.757-5.745c-0.505-1.276-1.291-1.915-2.36-1.915c-2.004,0-3.043,2.338-3.117,7.014v8.083
					c0,2.613,0.256,4.557,0.769,5.833c0.512,1.277,1.31,1.915,2.394,1.915c1.024,0,1.785-0.597,2.282-1.792
					c0.497-1.195,0.76-3.024,0.79-5.488V196.07z"/>
				<path fill="#F48466" d="M142.137,202.639c0,4.483-0.813,7.912-2.438,10.287s-3.945,3.563-6.958,3.563
					c-2.983,0-5.288-1.154-6.913-3.462c-1.625-2.309-2.468-5.615-2.527-9.92v-6.123c0-4.468,0.809-7.886,2.427-10.253
					s3.941-3.551,6.97-3.551c3.028,0,5.351,1.173,6.968,3.518c1.619,2.345,2.442,5.692,2.472,10.042V202.639z M135.813,196.07
					c0-2.553-0.253-4.468-0.757-5.745c-0.505-1.276-1.292-1.915-2.36-1.915c-2.004,0-3.043,2.338-3.117,7.014v8.083
					c0,2.613,0.256,4.557,0.768,5.833c0.513,1.277,1.31,1.915,2.394,1.915c1.024,0,1.785-0.597,2.282-1.792
					c0.498-1.195,0.761-3.024,0.791-5.488V196.07z"/>
			</g>
		</g>
		<g>
			<g>
				<path fill="#F48466" d="M185.317,215.681h-6.51v-25.489l-6.349,2.452v-5.409l12.171-4.974h0.688V215.681z"/>
				<path fill="#F48466" d="M209.083,181.962v5.501h-0.367c-2.43,0.015-4.359,0.745-5.788,2.189
					c-1.429,1.444-2.296,3.465-2.602,6.063c1.39-1.589,3.132-2.384,5.226-2.384c2.415,0,4.344,1.032,5.788,3.095
					c1.444,2.063,2.166,4.813,2.166,8.251c0,2.186-0.412,4.157-1.237,5.914c-0.825,1.758-1.983,3.122-3.473,4.092
					c-1.49,0.971-3.175,1.456-5.055,1.456c-3.025,0-5.452-1.214-7.277-3.645c-1.827-2.43-2.739-5.7-2.739-9.811v-2.407
					c0-3.682,0.576-6.907,1.73-9.673c1.153-2.766,2.819-4.894,4.997-6.384s4.718-2.243,7.621-2.258H209.083z M203.513,198.672
					c-0.825,0-1.517,0.261-2.074,0.781c-0.558,0.521-0.974,1.164-1.249,1.93v2.343c0,2.357,0.313,4.118,0.939,5.282
					c0.627,1.164,1.452,1.745,2.476,1.745c1.039,0,1.872-0.563,2.499-1.688c0.626-1.125,0.939-2.568,0.939-4.329
					c0-1.791-0.325-3.25-0.974-4.375C205.419,199.235,204.567,198.672,203.513,198.672z"/>
				<path fill="#F48466" d="M235.576,201.882c0,4.615-0.836,8.145-2.51,10.59s-4.061,3.667-7.163,3.667
					c-3.072,0-5.444-1.188-7.117-3.564s-2.541-5.78-2.602-10.212v-6.303c0-4.6,0.833-8.118,2.498-10.556
					c1.666-2.438,4.058-3.656,7.175-3.656s5.509,1.208,7.175,3.622c1.665,2.416,2.514,5.861,2.544,10.338V201.882z M229.066,195.12
					c0-2.628-0.26-4.6-0.779-5.914c-0.52-1.314-1.329-1.971-2.43-1.971c-2.063,0-3.133,2.407-3.209,7.221v8.32
					c0,2.69,0.264,4.692,0.791,6.006c0.527,1.314,1.348,1.971,2.464,1.971c1.055,0,1.837-0.615,2.35-1.845
					c0.512-1.23,0.783-3.113,0.813-5.65V195.12z"/>
				<path fill="#F48466" d="M240.867,224.093l-3.461-1.811l0.871-1.627c0.978-1.803,1.482-3.622,1.513-5.456v-5.157h5.639
					l-0.023,4.607c-0.016,1.619-0.428,3.3-1.238,5.043C243.357,221.434,242.257,222.901,240.867,224.093z"/>
				<path fill="#F48466" d="M268.506,201.882c0,4.615-0.836,8.145-2.51,10.59s-4.061,3.667-7.163,3.667
					c-3.071,0-5.444-1.188-7.117-3.564s-2.541-5.78-2.602-10.212v-6.303c0-4.6,0.833-8.118,2.498-10.556
					c1.666-2.438,4.058-3.656,7.175-3.656s5.509,1.208,7.175,3.622c1.665,2.416,2.514,5.861,2.544,10.338V201.882z M261.996,195.12
					c0-2.628-0.26-4.6-0.779-5.914c-0.52-1.314-1.329-1.971-2.43-1.971c-2.063,0-3.133,2.407-3.209,7.221v8.32
					c0,2.69,0.264,4.692,0.791,6.006c0.527,1.314,1.348,1.971,2.464,1.971c1.055,0,1.837-0.615,2.35-1.845
					c0.512-1.23,0.783-3.113,0.813-5.65V195.12z"/>
				<path fill="#F48466" d="M291.08,201.882c0,4.615-0.836,8.145-2.51,10.59c-1.673,2.445-4.061,3.667-7.163,3.667
					c-3.071,0-5.443-1.188-7.117-3.564c-1.673-2.376-2.541-5.78-2.602-10.212v-6.303c0-4.6,0.833-8.118,2.498-10.556
					c1.666-2.438,4.058-3.656,7.175-3.656s5.509,1.208,7.175,3.622c1.666,2.416,2.514,5.861,2.544,10.338V201.882z M284.57,195.12
					c0-2.628-0.26-4.6-0.779-5.914c-0.52-1.314-1.33-1.971-2.43-1.971c-2.063,0-3.133,2.407-3.209,7.221v8.32
					c0,2.69,0.263,4.692,0.791,6.006c0.527,1.314,1.349,1.971,2.464,1.971c1.055,0,1.838-0.615,2.35-1.845
					c0.512-1.23,0.783-3.113,0.814-5.65V195.12z"/>
				<path fill="#F48466" d="M313.653,201.882c0,4.615-0.837,8.145-2.51,10.59c-1.674,2.445-4.062,3.667-7.163,3.667
					c-3.072,0-5.444-1.188-7.117-3.564c-1.674-2.376-2.541-5.78-2.602-10.212v-6.303c0-4.6,0.833-8.118,2.499-10.556
					c1.666-2.438,4.058-3.656,7.175-3.656s5.509,1.208,7.174,3.622c1.666,2.416,2.514,5.861,2.544,10.338V201.882z M307.144,195.12
					c0-2.628-0.26-4.6-0.779-5.914c-0.52-1.314-1.33-1.971-2.43-1.971c-2.063,0-3.133,2.407-3.209,7.221v8.32
					c0,2.69,0.264,4.692,0.791,6.006c0.527,1.314,1.348,1.971,2.464,1.971c1.054,0,1.837-0.615,2.35-1.845
					c0.512-1.23,0.783-3.113,0.813-5.65V195.12z"/>
			</g>
		</g>
		
			<line opacity="0.6" fill="none" stroke="#FCD6D7" stroke-width="3" stroke-miterlimit="10" x1="173.394" y1="227.657" x2="310.123" y2="227.657"/>
		
			<line opacity="0.6" fill="none" stroke="#FCD6D7" stroke-width="3" stroke-miterlimit="10" x1="45.388" y1="227.657" x2="143.062" y2="227.657"/>
	</g>
</g>
<g id="Layer_3">
</g>
</svg>
