<?xml version="1.0" encoding="utf-8"?>
<!-- Generator: Adobe Illustrator 16.0.0, SVG Export Plug-In . SVG Version: 6.00 Build 0)  -->
<!DOCTYPE svg PUBLIC "-//W3C//DTD SVG 1.1//EN" "http://www.w3.org/Graphics/SVG/1.1/DTD/svg11.dtd">
<svg version="1.1" id="Layer_1" xmlns="http://www.w3.org/2000/svg" xmlns:xlink="http://www.w3.org/1999/xlink" x="0px" y="0px"
	 width="360px" height="190px" viewBox="0 0 360 190" enable-background="new 0 0 360 190" xml:space="preserve">
<g>
	<rect fill="#FABBBD" width="360" height="190"/>
</g>
<g id="document-back">
	<g>
		<path fill="#F79EA1" d="M172.835,70.131h-20.516c-1.397,0-2.519,1.37-2.519,2.759c0,1.397,1.122,2.768,2.519,2.768h20.516
			c1.393,0,2.521-1.371,2.521-2.768C175.355,71.501,174.228,70.131,172.835,70.131z"/>
	</g>
	<g>
		<path fill="#F79EA1" d="M141.392,105.131h-15.183c-1.396,0-2.527,0.913-2.527,2.302c0,1.395,1.131,2.303,2.527,2.303h15.183
			c1.396,0,2.524-0.908,2.524-2.303C143.916,106.044,142.788,105.131,141.392,105.131z"/>
	</g>
	<g>
		<path fill="#F79EA1" d="M172.835,79.342h-46.626c-1.396,0-2.525,0.913-2.525,2.304c0,1.395,1.129,2.301,2.525,2.301h46.626
			c1.393,0,2.521-0.906,2.521-2.301C175.355,80.255,174.228,79.342,172.835,79.342z"/>
	</g>
	<g>
		<path fill="#F79EA1" d="M172.835,87.631h-46.626c-1.396,0-2.525,0.911-2.525,2.298c0,1.396,1.129,2.308,2.525,2.308h46.626
			c1.393,0,2.521-0.912,2.521-2.308C175.355,88.542,174.228,87.631,172.835,87.631z"/>
	</g>
	<g>
		<path fill="#F79EA1" d="M172.835,95.921h-46.626c-1.396,0-2.527,1.37-2.527,2.765c0,1.392,1.131,2.762,2.527,2.762h46.626
			c1.393,0,2.521-1.37,2.521-2.762C175.355,97.291,174.228,95.921,172.835,95.921z"/>
	</g>
	<g>
		<path fill="#F79EA1" d="M178.085,45.263h-45.153c-0.396,0-0.774,0.218-1.116,0.387l-19.199,18.847
			c-0.27,0.41-0.709,0.946-0.709,1.444v68.604c0,4.08,3.899,7.428,7.984,7.428h25.312h7.57h25.313c4.085,0,7.505-3.348,7.505-7.428
			v-32.654v-2.439V52.907C185.592,48.828,182.162,45.263,178.085,45.263z M131.25,53.369v7.781c0,1.549-1.361,2.534-2.907,2.534
			h-7.783L131.25,53.369z M180.066,134.546c0,1.299-0.68,2.823-1.979,2.823h-25.371h-7.453h-25.37c-1.299,0-2.458-1.524-2.458-2.823
			V68.874c0.921,0.044,1.941,0.336,2.907,0.336h8.001c4.331,0,8.433-3.733,8.433-8.06v-8c0-0.895-0.592-1.44-0.53-2.361h41.839
			c1.301,0,1.981,0.819,1.981,2.118v49.686l0,0V134.546z"/>
	</g>
</g>
<g id="document-front">
	<g>
		<path fill="#FABBBD" d="M233.361,31.908h-57.932c-0.508,0-0.993,0.115-1.432,0.332l-24.715,24.099
			c-0.345,0.525-0.992,1.131-0.992,1.77v88.02c0,5.235,5.168,10.122,10.409,10.122h32.476h9.713h32.476
			c5.241,0,8.874-4.887,8.874-10.122v-41.896v-3.129V41.385C242.237,36.151,238.592,31.908,233.361,31.908z"/>
	</g>
	<g>
		<g>
			<path fill="#F15157" d="M158.699,158C152.32,158,146,152.359,146,146.128v-88.02c0-1.156,0.805-2.005,1.24-2.567
				c0.081-0.104,0.233-0.204,0.298-0.301l0.155-0.182l25.117-24.472l0.293-0.094c0.724-0.357,1.512-0.492,2.326-0.492h57.932
				c6.2,0,10.639,4.842,10.639,11.385v104.744c0,6.684-4.641,11.872-10.637,11.872H158.699z M158,146.128
				c0,0.798,0.389,1.872,0.699,1.872h74.665c0.105,0,0.426-0.882,0.426-1.773c0,0,0-104.995-0.001-105.023
				c-0.104-0.009-0.243-0.204-0.427-0.204H182v10.961C182,58.651,176.081,64,169.541,64h-10.265c-0.545,0-1.276,0.249-1.276,0.176
				V146.128z M169.541,54c0.688,0,0.459-1.962,0.459-2.039v-4.83L164.093,54H169.541z M166.803,117c-2.891,0-5.242-2.62-5.242-5.5
				s2.352-5.5,5.242-5.5h19.479c2.889,0,5.239,2.62,5.239,5.5s-2.351,5.5-5.239,5.5H166.803z M166.803,106
				c-2.891,0-5.242-2.619-5.242-5.498c0-2.882,2.352-5.502,5.242-5.502h59.822c2.886,0,5.234,2.621,5.234,5.502
				c0,2.879-2.348,5.498-5.234,5.498H166.803z M166.803,95c-2.889,0-5.239-2.623-5.239-5.506c0-2.877,2.351-5.494,5.239-5.494
				h59.822c2.886,0,5.234,2.617,5.234,5.494c0,2.884-2.348,5.506-5.234,5.506H166.803z M166.803,84
				c-2.889,0-5.239-2.619-5.239-5.498c0-2.881,2.351-5.502,5.239-5.502h59.822c2.886,0,5.234,2.621,5.234,5.502
				c0,2.879-2.348,5.498-5.234,5.498H166.803z M200.303,73c-2.885,0-5.231-2.622-5.231-5.505c0-2.877,2.347-5.495,5.231-5.495
				h26.322c2.886,0,5.234,2.618,5.234,5.495c0,2.883-2.348,5.505-5.234,5.505H200.303z"/>
		</g>
		<g>
			<path fill="#FABBBD" d="M233.361,32c5.23,0,8.639,4.151,8.639,9.385v59.719v3.129v41.896c0,5.235-3.396,9.872-8.637,9.872
				h-32.476h-9.713h-32.476c-5.241,0-10.699-4.637-10.699-9.872v-88.02c0-0.639,0.792-1.245,1.137-1.77l24.788-24.053
				c0.439-0.217,0.996-0.286,1.504-0.286H233 M159.276,62c-1.24,0-2.276-0.073-3.276-0.13v84.259c0,1.667,1.032,3.872,2.699,3.872
				h32.551h9.563h32.551c1.666,0,2.637-2.204,2.637-3.872v-40.997V41.385c0-1.666-0.971-2.385-2.639-2.385h-53.68
				c-0.079,1,0.319,1.551,0.319,2.698v10.263C180,57.514,175.098,62,169.541,62H159 M160,56h9.541c1.983,0,2.459-2.051,2.459-4.039
				v-9.983L159.557,56 M226.625,64c1.787,0,3.234,1.712,3.234,3.495c0,1.792-1.447,3.505-3.234,3.505h-26.322
				c-1.791,0-3.231-1.713-3.231-3.505c0-1.783,1.44-3.495,3.231-3.495H227 M226.625,75c1.787,0,3.234,1.716,3.234,3.502
				c0,1.789-1.447,3.498-3.234,3.498h-59.822c-1.79,0-3.239-1.709-3.239-3.498c0-1.786,1.449-3.502,3.239-3.502H227 M226.625,86
				c1.787,0,3.234,1.713,3.234,3.494c0,1.792-1.447,3.506-3.234,3.506h-59.822c-1.79,0-3.239-1.715-3.239-3.506
				c0-1.781,1.449-3.494,3.239-3.494H227 M226.625,97c1.787,0,3.234,1.712,3.234,3.502c0,1.785-1.447,3.498-3.234,3.498h-59.822
				c-1.79,0-3.242-1.713-3.242-3.498c0-1.79,1.452-3.502,3.242-3.502H227 M186.282,108c1.791,0,3.239,1.715,3.239,3.5
				c0,1.789-1.448,3.5-3.239,3.5h-19.479c-1.79,0-3.242-1.711-3.242-3.5c0-1.785,1.452-3.5,3.242-3.5H186 M233.361,28h-57.932
				c-1.124,0-2.201,0.205-3.202,0.698l-0.569,0.258l-0.454,0.432L146.489,53.48l-0.312,0.301l-0.239,0.362
				c-0.032,0.045-0.228,0.107-0.278,0.172c-0.53,0.682-1.661,1.951-1.661,3.793v88.02c0,7.391,7.158,13.872,14.699,13.872h32.476
				h9.713h32.476c7.099,0,12.637-6.085,12.637-13.872v-41.896v-3.129V41.385C246,33.702,240.702,28,233.361,28L233.361,28z M184,43
				h48v19.313c-2-1.337-3.354-2.313-5.375-2.313h-26.322c-3.987,0-7.231,3.212-7.231,7.192c0,1.407,0.404,2.808,1.103,3.808h-27.372
				C163.21,71,160,73.823,160,77.254V66h9.541C177.296,66,184,59.869,184,51.961V43L184,43z M231.278,72.895
				c0.178-0.15,0.349-0.308,0.511-0.474v0.946C231.626,73.202,231.456,73.044,231.278,72.895L231.278,72.895z M160,88.299v-8.708
				c0,1.736,1.192,3.268,2.486,4.355C161.192,85.034,160,86.563,160,88.299L160,88.299z M231.28,83.947
				c0.177-0.149,0.347-0.306,0.509-0.471v0.942C231.627,84.253,231.458,84.096,231.28,83.947L231.28,83.947z M160,99.342v-8.705
				c0,1.74,1.193,3.273,2.488,4.362C161.196,96.083,160,97.609,160,99.342L160,99.342z M231.278,95
				c0.178-0.15,0.349-0.308,0.512-0.474v0.948C231.626,95.308,231.456,95.149,231.278,95L231.278,95z M160,110.393v-8.678
				c0,1.73,1.195,3.254,2.485,4.338C161.195,107.137,160,108.662,160,110.393L160,110.393z M192.418,108h34.207
				c2.021,0,3.375-1.081,5.375-2.419V146h-31.188h-9.563H160v-33.234c0,3.42,3.214,6.234,6.803,6.234h19.479
				c3.992,0,7.239-3.214,7.239-7.197C193.521,110.397,193.117,109,192.418,108L192.418,108z"/>
		</g>
	</g>
</g>
<g id="checkmark">
    <g>
	    <g>
		    <path fill="#FABBBD" d="M264.841,142.562c0,16.174-13.5,29.291-30.15,29.291c-16.647,0-30.144-13.117-30.144-29.291
			    c0-16.178,13.496-29.289,30.144-29.289C251.341,113.272,264.841,126.383,264.841,142.562z"/>
	    </g>
	    <g>
		    <path fill="#FFFFFF" d="M234.69,174.853c-18.275,0-33.144-14.486-33.144-32.291c0-17.804,14.868-32.289,33.144-32.289
			    c18.279,0,33.15,14.485,33.15,32.289C267.841,160.367,252.97,174.853,234.69,174.853z M234.69,116.272
			    c-14.967,0-27.144,11.793-27.144,26.289c0,14.497,12.177,26.291,27.144,26.291c14.971,0,27.15-11.794,27.15-26.291
			    C261.841,128.066,249.661,116.272,234.69,116.272z"/>
	    </g>
    </g>
    <g>
	    <g>
		    <path fill="#FFFFFF" d="M229.327,158.341c-1.023,0-2.047-0.39-2.828-1.171l-9.737-9.732c-1.563-1.562-1.563-4.094-0.001-5.657
			    c1.562-1.563,4.094-1.563,5.657-0.001l6.915,6.911l17.643-17.572c1.565-1.559,4.098-1.554,5.657,0.011s1.554,4.098-0.011,5.657
			    l-20.47,20.388C231.369,157.953,230.348,158.341,229.327,158.341z"/>
	    </g>
    </g>
</g>
</svg>
