<?xml version="1.0" encoding="utf-8"?>
<!-- Generator: Adobe Illustrator 16.0.0, SVG Export Plug-In . SVG Version: 6.00 Build 0)  -->
<!DOCTYPE svg PUBLIC "-//W3C//DTD SVG 1.1//EN" "http://www.w3.org/Graphics/SVG/1.1/DTD/svg11.dtd">
<svg version="1.1" id="Layer_1" xmlns="http://www.w3.org/2000/svg" xmlns:xlink="http://www.w3.org/1999/xlink" x="0px" y="0px"
	 width="360px" height="190px" viewBox="0 0 360 190" enable-background="new 0 0 360 190" xml:space="preserve">
<g>
	<rect fill="#FFF1E5" width="360" height="190"/>
</g>
<g>
	<g id="building">
		<g>
			<path fill="#FCD0A6" d="M211,118h-66v-5h3v-3h61v3h2V118z M143,120v4h71v-4H143z"/>
		</g>
		<g>
			<g>
				<rect x="150.579" y="84.651" fill="#FCD0A6" width="4.333" height="26.032"/>
			</g>
			<g>
				<rect x="160.122" y="84.651" fill="#FCD0A6" width="3.471" height="26.032"/>
			</g>
			<g>
				<rect x="167.933" y="84.651" fill="#FCD0A6" width="4.339" height="26.032"/>
			</g>
			<g>
				<rect x="176.608" y="84.651" fill="#FCD0A6" width="4.339" height="26.032"/>
			</g>
			<g>
				<rect x="186.16" y="84.651" fill="#FCD0A6" width="4.334" height="26.032"/>
			</g>
			<g>
				<rect x="193.965" y="84.651" fill="#FCD0A6" width="4.339" height="26.032"/>
			</g>
			<g>
				<rect x="203.511" y="84.651" fill="#FCD0A6" width="3.472" height="26.032"/>
			</g>
		</g>
		<g>
			<path fill="#FCD0A6" d="M179.086,68.308c-2.082,0-3.773,1.688-3.773,3.774c0,2.084,1.692,3.772,3.773,3.772
				c2.084,0,3.773-1.688,3.773-3.772C182.859,69.996,181.17,68.308,179.086,68.308 M212.344,84.651H179.13h-33.336l-1.787-4.514
				l35.123-17.573l35.025,17.542L212.344,84.651z"/>
		</g>
	</g>
	<g id="person-left">
		<g>
			<path fill="#FCD0A6" d="M107.737,98.035c0,2.219-1.038,3.518-3.025,4.094l-1.028,0.277c-2.192,0-3.575-0.997-4.114-3.061
				c-0.16-0.685-0.778-2.655-1.592-5.782c-0.951-3.164-1.941-6.448-3.043-9.93c-1.109-3.46-2.411-7.865-3.978-13.324h-2.495
				l14.402,48.669H89.219v36.966c0,1.454-0.407,2.653-1.505,3.52c-0.977,0.912-2.139,1.344-3.579,1.344
				c-1.511,0-2.618-0.432-3.575-1.344c-0.9-0.866-1.307-2.065-1.307-3.52v-36.966h-2.495v36.966c0,1.454-0.487,2.653-1.384,3.52
				c-0.899,0.912-2.074,1.344-3.512,1.344c-1.455,0-2.698-0.432-3.664-1.344c-1.024-0.866-1.506-2.065-1.506-3.52v-36.966H52.837
				l14.411-48.661h-2.48c-1.572,5.451-2.908,9.848-3.938,13.316c-0.949,3.482-1.989,6.766-2.888,9.93
				c-1.029,3.127-1.725,5.097-1.792,5.782c-0.625,2.064-1.993,3.061-4.133,3.061l-1.094-0.255c-2.003-0.742-2.973-2.048-2.973-3.883
				c0-0.502,0.071-0.923,0.275-1.337c0.142-0.351,0.559-1.573,1.042-3.643c0.56-2.068,1.301-4.618,2.207-7.595
				c0.89-3.023,1.864-6.291,2.878-9.808c1.051-3.533,1.999-6.925,3.173-10.202c0.69-2.504,2.201-4.793,4.55-6.763
				c2.333-2.046,4.767-2.977,7.301-2.977h16.949c2.629,0,5.177,0.931,7.445,2.977c2.201,1.99,3.802,4.259,4.682,6.763
				c0.958,3.277,1.932,6.668,2.888,10.202c0.977,3.517,2.013,6.784,2.841,9.808c0.876,2.978,1.648,5.527,2.203,7.595
				c0.535,2.07,0.89,3.292,1.083,3.643L107.737,98.035z M78.116,52.894c2.902,0,5.393-0.945,7.316-2.931
				c1.988-2.042,3.031-4.573,3.031-7.611c0-2.905-1.043-5.392-3.031-7.451c-1.909-2.124-4.414-3.157-7.316-3.157
				c-3.081,0-5.648,1.034-7.784,3.157c-2.059,2.051-3.083,4.546-3.083,7.451c0,3.038,1.024,5.569,3.088,7.611
				C72.477,51.948,75.039,52.894,78.116,52.894"/>
		</g>
		<g>
			<path fill="#F4777C" d="M91.922,82l10.943,37H88v36.944c0,1.454,0.17,2.653-0.927,3.52c-0.977,0.912-1.811,1.344-3.251,1.344
				c-1.511,0-3.056-0.432-4.013-1.344c-0.9-0.866-1.808-2.065-1.808-3.52V119h-2v36.944c0,1.454-0.069,2.653-0.966,3.52
				c-0.9,0.912-1.907,1.344-3.345,1.344c-1.455,0-2.996-0.432-3.961-1.344c-1.024-0.866-1.727-2.065-1.727-3.52V119H52.837
				l10.952-37H91.922z M56.151,99.346c0.066-0.685,0.763-2.655,1.792-5.782c0.899-3.164,1.939-6.448,2.888-9.93
				c0.155-0.521,0.319-1.07,0.487-1.633h-8.753c-0.374,1.266-0.74,2.503-1.09,3.693c-0.906,2.978-1.647,5.527-2.207,7.595
				c-0.483,2.07-0.9,3.292-1.042,3.643c-0.204,0.414-0.275,0.835-0.275,1.337c0,1.835,0.97,3.141,2.973,3.883l1.094,0.255
				C54.158,102.406,55.526,101.41,56.151,99.346z M106.384,93.288c-0.555-2.068-1.327-4.618-2.203-7.595
				c-0.326-1.189-0.688-2.427-1.063-3.693H94.42c0.176,0.563,0.348,1.113,0.515,1.633c1.102,3.482,2.092,6.766,3.043,9.93
				c0.814,3.127,1.432,5.097,1.592,5.782c0.539,2.064,1.922,3.061,4.114,3.061l1.028-0.277c1.987-0.576,3.025-1.875,3.025-4.094
				l-0.271-1.104C107.274,96.581,106.918,95.358,106.384,93.288z"/>
		</g>
	</g>
	<g id="person-right">
		<g>
			<path fill="#FCD0A6" d="M312.049,96.613c0,2.398-1.115,3.796-3.269,4.417l-1.11,0.303c-2.362,0-3.849-1.073-4.444-3.306
				c-0.168-0.742-0.833-2.868-1.713-6.248c-1.033-3.417-2.107-6.966-3.294-10.725c-1.197-3.744-2.598-8.498-4.296-14.395h-2.69
				l15.553,52.576h-14.734v39.935c0,1.565-0.45,2.859-1.627,3.798c-1.053,0.985-2.312,1.448-3.871,1.448
				c-1.631,0-2.829-0.463-3.863-1.448c-0.972-0.939-1.405-2.233-1.405-3.798v-39.935h-2.697v39.935c0,1.565-0.532,2.859-1.494,3.798
				c-0.976,0.985-2.24,1.448-3.795,1.448c-1.575,0-2.914-0.463-3.958-1.448c-1.104-0.939-1.626-2.233-1.626-3.798v-39.935h-14.967
				l15.57-52.567h-2.68c-1.703,5.888-3.146,10.642-4.261,14.386c-1.018,3.759-2.143,7.309-3.119,10.725
				c-1.11,3.38-1.863,5.506-1.929,6.248c-0.675,2.232-2.159,3.306-4.469,3.306l-1.178-0.276c-2.168-0.797-3.217-2.212-3.217-4.197
				c0-0.535,0.078-0.995,0.302-1.439c0.155-0.377,0.604-1.703,1.122-3.94c0.608-2.227,1.406-4.982,2.389-8.199
				c0.96-3.269,2.016-6.803,3.109-10.595c1.14-3.818,2.152-7.488,3.428-11.019c0.745-2.705,2.372-5.186,4.91-7.307
				c2.526-2.218,5.155-3.222,7.885-3.222h18.312c2.843,0,5.589,1.004,8.04,3.222c2.384,2.149,4.113,4.602,5.063,7.307
				c1.033,3.531,2.087,7.201,3.12,11.019c1.052,3.792,2.174,7.326,3.064,10.595c0.951,3.217,1.784,5.972,2.378,8.199
				c0.577,2.238,0.965,3.563,1.176,3.94L312.049,96.613z M280.052,47.843c3.14,0,5.83-1.013,7.907-3.16
				c2.149-2.205,3.273-4.937,3.273-8.223c0-3.138-1.125-5.824-3.273-8.051c-2.066-2.29-4.767-3.409-7.907-3.409
				c-3.329,0-6.096,1.12-8.409,3.409c-2.22,2.218-3.324,4.913-3.324,8.051c0,3.286,1.104,6.018,3.335,8.223
				C273.964,46.83,276.727,47.843,280.052,47.843"/>
		</g>
		<g>
			<path fill="#F4777C" d="M251.861,101.334l-1.178-0.276c-2.168-0.797-3.217-2.212-3.217-4.197c0-0.535,0.078-0.995,0.302-1.439
				c0.155-0.377,0.604-1.703,1.122-3.94c0.285-1.043,0.615-2.213,0.983-3.481h9.499c-0.381,1.277-0.757,2.542-1.111,3.78
				c-1.11,3.38-1.863,5.506-1.929,6.248C255.655,100.261,254.171,101.334,251.861,101.334z M262,88l-9.252,31H267v40.171
				c0,1.565,0.88,2.859,1.983,3.798c1.045,0.985,2.563,1.448,4.138,1.448c1.555,0,2.614-0.463,3.59-1.448
				c0.962-0.939,1.289-2.233,1.289-3.798V119h2v40.171c0,1.565,1.076,2.859,2.047,3.798c1.034,0.985,2.553,1.448,4.184,1.448
				c1.559,0,2.453-0.463,3.506-1.448c1.177-0.939,1.263-2.233,1.263-3.798V119h15.785l-9.24-31H262z M310.587,91.481
				c-0.278-1.043-0.613-2.213-0.983-3.481h-9.237c0.389,1.277,0.772,2.542,1.146,3.78c0.88,3.38,1.545,5.506,1.713,6.248
				c0.595,2.232,2.082,3.306,4.444,3.306l1.11-0.303c2.153-0.622,3.269-2.019,3.269-4.417l-0.286-1.192
				C311.552,95.044,311.164,93.719,310.587,91.481z"/>
		</g>
	</g>
</g>
</svg>
