<?xml version="1.0" encoding="utf-8"?>
<!-- Generator: Adobe Illustrator 16.0.0, SVG Export Plug-In . SVG Version: 6.00 Build 0)  -->
<!DOCTYPE svg PUBLIC "-//W3C//DTD SVG 1.1//EN" "http://www.w3.org/Graphics/SVG/1.1/DTD/svg11.dtd">
<svg version="1.1" xmlns="http://www.w3.org/2000/svg" xmlns:xlink="http://www.w3.org/1999/xlink" x="0px" y="0px" width="100%"
	 height="100%" viewBox="0 0 360 360" enable-background="new 0 0 360 360" xml:space="preserve" class="c-infographic-svg">
<g id="Layer_1">
	<g>
		<rect fill="#F6F6F6" width="360" height="360"/>
	</g>
	<g>
		<g id="document-back">
			<g>
				<path fill="#A6A8AB" d="M172.165,68.797h-19.798c-1.348,0-2.431,1.322-2.431,2.663c0,1.348,1.083,2.67,2.431,2.67h19.798
					c1.345,0,2.434-1.323,2.434-2.67C174.598,70.119,173.51,68.797,172.165,68.797z"/>
			</g>
			<g>
				<path fill="#A6A8AB" d="M141.819,102.575h-14.651c-1.347,0-2.439,0.88-2.439,2.221c0,1.346,1.092,2.222,2.439,2.222h14.651
					c1.348,0,2.437-0.876,2.437-2.222C144.256,103.455,143.167,102.575,141.819,102.575z"/>
			</g>
			<g>
				<path fill="#A6A8AB" d="M172.165,77.686h-44.997c-1.347,0-2.437,0.881-2.437,2.224c0,1.346,1.09,2.221,2.437,2.221h44.997
					c1.345,0,2.434-0.875,2.434-2.221C174.598,78.567,173.51,77.686,172.165,77.686z"/>
			</g>
			<g>
				<path fill="#A6A8AB" d="M172.165,85.686h-44.997c-1.347,0-2.437,0.879-2.437,2.218c0,1.347,1.09,2.227,2.437,2.227h44.997
					c1.345,0,2.434-0.88,2.434-2.227C174.598,86.564,173.51,85.686,172.165,85.686z"/>
			</g>
			<g>
				<path fill="#A6A8AB" d="M172.165,93.686h-44.997c-1.347,0-2.439,1.322-2.439,2.668c0,1.344,1.092,2.665,2.439,2.665h44.997
					c1.345,0,2.434-1.321,2.434-2.665C174.598,95.008,173.51,93.686,172.165,93.686z"/>
			</g>
			<g>
				<path fill="#A6A8AB" d="M177.232,44.797h-43.576c-0.382,0-0.747,0.21-1.077,0.374L114.05,63.36
					c-0.259,0.395-0.684,0.912-0.684,1.393v66.209c0,3.938,3.763,7.168,7.705,7.168H145.5h7.306h24.429
					c3.941,0,7.243-3.231,7.243-7.168V99.448v-2.354v-44.92C184.478,48.237,181.167,44.797,177.232,44.797z M132.033,52.62v7.51
					c0,1.495-1.314,2.446-2.806,2.446h-7.511L132.033,52.62z M179.144,130.962c0,1.253-0.656,2.725-1.909,2.725H152.75h-7.193
					h-24.485c-1.252,0-2.372-1.471-2.372-2.725V67.583c0.889,0.043,1.874,0.325,2.806,0.325h7.722c4.179,0,8.139-3.603,8.139-7.778
					v-7.72c0-0.863-0.571-1.391-0.513-2.278h40.379c1.255,0,1.911,0.79,1.911,2.043v47.951l0,0V130.962z"/>
			</g>
		</g>
		<g id="document-front">
			<g>
				<path fill="#F2F3F3" d="M230.579,31.908h-55.91c-0.49,0-0.958,0.11-1.382,0.319l-23.852,23.258
					c-0.333,0.506-0.957,1.092-0.957,1.708v84.947c0,5.052,4.988,9.768,10.045,9.768h31.342h9.373h31.343
					c5.057,0,8.563-4.716,8.563-9.768v-40.432v-3.021V41.054C239.144,36.002,235.627,31.908,230.579,31.908z"/>
			</g>
			<g>
				<g>
					<path fill="#808184" d="M158.523,153.908c-6.192,0-12.045-5.719-12.045-11.768V57.193c0-1.14,0.646-1.972,1.072-2.521
						c0.077-0.099,0.153-0.193,0.214-0.286l0.119-0.181l24.235-23.631l0.285-0.141c0.707-0.348,1.47-0.525,2.266-0.525h55.91
						c6.022,0,10.564,4.792,10.564,11.146V142.14c0,6.489-4.738,11.768-10.563,11.768H158.523z M156.699,142.14
						c0,0.76,0.694,1.545,0.935,1.545h72.88c0.163-0.181,0.408-0.78,0.408-1.545c0,0,0-101.103,0-101.111
						c-0.09-0.006-0.203-0.011-0.343-0.011H180.7c0,0.058,0,10.242,0,10.242c0,6.494-5.364,11.98-11.713,11.98h-9.907
						c-0.663,0-1.53-0.085-2.381-0.184V142.14z M168.987,53.019c0.594,0,0.601-1.74,0.601-1.758V46.78l-5.701,6.239H168.987z
						 M166.344,113.908c-2.828,0-5.128-2.292-5.128-5.111c0-2.819,2.3-5.112,5.128-5.112h18.8c2.826,0,5.125,2.293,5.125,5.112
						c0,2.818-2.299,5.111-5.125,5.111H166.344z M166.344,103.241c-2.828,0-5.128-2.292-5.128-5.108c0-2.82,2.3-5.114,5.128-5.114
						h57.733c2.824,0,5.122,2.294,5.122,5.114c0,2.817-2.298,5.108-5.122,5.108H166.344z M166.344,92.575
						c-2.826,0-5.126-2.295-5.126-5.117c0-2.815,2.3-5.105,5.126-5.105h57.733c2.824,0,5.122,2.291,5.122,5.105
						c0,2.822-2.298,5.117-5.122,5.117H166.344z M166.344,81.908c-2.826,0-5.126-2.292-5.126-5.109c0-2.819,2.3-5.113,5.126-5.113
						h57.733c2.824,0,5.122,2.294,5.122,5.113c0,2.817-2.298,5.109-5.122,5.109H166.344z M198.675,71.241
						c-2.822,0-5.119-2.295-5.119-5.116c0-2.816,2.296-5.106,5.119-5.106h25.402c2.824,0,5.122,2.291,5.122,5.106
						c0,2.821-2.298,5.116-5.122,5.116H198.675z"/>
				</g>
				<g>
					<path fill="#F2F3F3" d="M230.579,31.908c5.048,0,8.564,4.094,8.564,9.146v57.634v3.021v40.432c0,5.052-3.505,9.768-8.563,9.768
						h-31.343h-9.373h-31.342c-5.057,0-10.045-4.716-10.045-9.768V57.193c0-0.616,0.624-1.202,0.957-1.708l23.852-23.258
						c0.424-0.209,0.893-0.319,1.382-0.319H230.579 M159.08,61.241c-1.196,0-3.492-0.363-4.381-0.418v81.317
						c0,1.61,1.327,3.545,2.935,3.545h32.304h9.229h31.415c1.607,0,2.341-1.936,2.341-3.545v-39.565V41.054
						c0-1.608-0.733-2.035-2.343-2.035h-51.807c-0.076,0.889-0.072,1.23-0.072,2.337v9.905c0,5.359-4.352,9.98-9.713,9.98H159.08
						 M159.351,55.019h9.637c1.914,0,2.601-1.839,2.601-3.758v-9.635L159.351,55.019 M224.077,63.019
						c1.726,0,3.122,1.386,3.122,3.106c0,1.729-1.396,3.116-3.122,3.116h-25.402c-1.729,0-3.119-1.387-3.119-3.116
						c0-1.721,1.389-3.106,3.119-3.106H224.077 M224.077,73.686c1.726,0,3.122,1.39,3.122,3.113c0,1.727-1.396,3.109-3.122,3.109
						h-57.733c-1.728,0-3.126-1.382-3.126-3.109c0-1.724,1.398-3.113,3.126-3.113H224.077 M224.077,84.353
						c1.726,0,3.122,1.386,3.122,3.105c0,1.729-1.396,3.117-3.122,3.117h-57.733c-1.728,0-3.126-1.389-3.126-3.117
						c0-1.719,1.398-3.105,3.126-3.105H224.077 M224.077,95.019c1.726,0,3.122,1.387,3.122,3.114c0,1.722-1.396,3.108-3.122,3.108
						h-57.733c-1.728,0-3.128-1.387-3.128-3.108c0-1.728,1.401-3.114,3.128-3.114H224.077 M185.144,105.686
						c1.729,0,3.125,1.39,3.125,3.112c0,1.726-1.396,3.111-3.125,3.111h-18.8c-1.728,0-3.128-1.385-3.128-3.111
						c0-1.722,1.401-3.112,3.128-3.112H185.144 M230.579,27.908h-55.91c-1.105,0-2.165,0.246-3.149,0.731l-0.57,0.281l-0.455,0.444
						l-23.852,23.258l-0.311,0.303l-0.239,0.362c-0.027,0.039-0.075,0.097-0.122,0.158c-0.521,0.672-1.493,1.923-1.493,3.748v84.947
						c0,7.206,6.694,13.768,14.045,13.768h31.342h9.373h31.343c6.927,0,12.563-6.176,12.563-13.768v-40.432v-3.021V41.054
						C243.144,33.56,237.742,27.908,230.579,27.908L230.579,27.908z M182.7,43.019h46.221V60.92
						c-1.272-1.179-2.975-1.901-4.844-1.901h-25.402c-3.925,0-7.119,3.188-7.119,7.106c0,1.296,0.349,2.513,0.957,3.561h-26.169
						c-3.929,0-7.126,3.191-7.126,7.113c0,2.12,0.936,4.027,2.417,5.331c-1.481,1.303-2.417,3.209-2.417,5.328
						c0,2.123,0.936,4.033,2.417,5.338c-1.483,1.305-2.42,3.214-2.42,5.337c0,2.121,0.936,4.027,2.418,5.331
						c-1.482,1.304-2.418,3.212-2.418,5.333c0,3.921,3.198,7.111,7.128,7.111h18.8c3.929,0,7.125-3.19,7.125-7.111
						c0-1.294-0.348-2.509-0.957-3.556h32.765c1.869,0,3.573-0.723,4.845-1.902v38.347h-29.756h-9.229h-31.238V65.234
						c0.131,0.004,0.258,0.007,0.381,0.007h9.907c7.562,0,13.713-6.271,13.713-13.98V43.019L182.7,43.019z"/>
				</g>
			</g>
		</g>
		<g id="monkey">
			<g>
				<path fill="#0074A7" d="M220.702,154.752c-7.108,0-12.793-1.96-16.897-5.827c-4.161-3.914-6.272-9.335-6.272-16.111
					c0-4.603,1.035-8.86,3.075-12.654c2.085-3.866,5.08-6.928,8.902-9.105c3.784-2.162,8.176-3.259,13.049-3.259
					c4.139,0,7.915,0.872,11.223,2.591c3.4,1.77,6.063,4.325,7.914,7.597c1.82,3.22,2.744,6.945,2.744,11.071
					c0,2.764-0.453,5.347-1.347,7.677c-0.957,2.479-2.358,4.479-4.167,5.951c-1.021,0.826-2.132,1.438-3.324,1.834v6.942
					l-1.827,0.776C229.843,153.905,225.445,154.752,220.702,154.752z M226.289,143.001c-0.236,0.166-0.478,0.322-0.724,0.468
					c0.075-0.013,0.151-0.027,0.227-0.041c0.276-0.051,0.553-0.106,0.828-0.165C226.507,143.179,226.396,143.091,226.289,143.001z
					 M222.118,127.905c-1.402,0.06-2.012,0.561-2.353,0.943c-0.653,0.734-0.972,1.827-0.972,3.339c0,2.285,0.546,2.285,1.302,2.285
					c0.743,0,0.911-0.227,1.022-0.376c0.153-0.206,0.669-1.08,0.85-3.598L222.118,127.905z"/>
			</g>
			<g>
				<path fill="#F2F3F3" d="M222.559,110.796c3.667,0,6.948,0.75,9.839,2.253c2.892,1.505,5.119,3.642,6.686,6.412
					c1.569,2.774,2.355,5.968,2.355,9.593c0,2.41-0.382,4.605-1.148,6.603c-0.77,1.995-1.86,3.56-3.259,4.697
					c-1.404,1.137-3.035,1.703-4.883,1.703c-1.233,0-2.334-0.297-3.288-0.89c-0.946-0.592-1.635-1.372-2.053-2.338h-0.396
					c-1.805,2.15-4.095,3.228-6.892,3.228c-2.956,0-5.281-0.89-6.988-2.665c-1.705-1.782-2.558-4.216-2.558-7.303
					c0-3.525,1.122-6.364,3.353-8.52c2.246-2.153,5.167-3.234,8.769-3.234c1.439,0,3.019,0.14,4.756,0.416
					c1.72,0.277,3.144,0.607,4.262,0.99l-0.571,12.25c0,2.323,0.639,3.479,1.908,3.479c1.064,0,1.919-0.779,2.554-2.342
					c0.631-1.561,0.945-3.603,0.945-6.123c0-2.688-0.559-5.066-1.674-7.128c-1.115-2.061-2.694-3.634-4.724-4.719
					c-2.025-1.087-4.341-1.629-6.948-1.629c-3.377,0-6.306,0.69-8.8,2.078c-2.486,1.386-4.391,3.389-5.716,6.002
					c-1.327,2.612-1.995,5.629-1.995,9.055c0,4.606,1.229,8.144,3.696,10.607c2.46,2.465,6.027,3.693,10.706,3.693
					c1.77,0,3.718-0.195,5.841-0.587c2.116-0.394,4.206-0.962,6.264-1.715v4.81c-3.578,1.521-7.542,2.279-11.898,2.279
					c-6.354,0-11.296-1.671-14.84-5.011c-3.551-3.34-5.329-7.983-5.329-13.928c0-4.126,0.908-7.87,2.717-11.233
					c1.817-3.368,4.391-6.009,7.745-7.919C214.341,111.75,218.192,110.796,222.559,110.796 M220.096,137.472
					c1.501,0,2.646-0.531,3.432-1.589c0.785-1.06,1.262-2.787,1.433-5.171l0.322-5.539c-0.852-0.184-1.814-0.274-2.88-0.274
					c-2.088,0-3.713,0.648-4.875,1.953c-1.16,1.304-1.732,3.081-1.732,5.335C215.794,135.713,217.224,137.472,220.096,137.472
					 M222.559,104.796c-5.402,0-10.294,1.23-14.541,3.656c-4.312,2.456-7.695,5.916-10.049,10.28
					c-2.281,4.242-3.436,8.978-3.436,14.082c0,7.637,2.429,13.793,7.218,18.298c4.676,4.405,11.053,6.64,18.951,6.64
					c5.148,0,9.941-0.927,14.245-2.757l3.653-1.552v-3.97v-2.996c0.773-0.41,1.512-0.897,2.207-1.46
					c2.23-1.813,3.936-4.233,5.082-7.201c1.03-2.686,1.55-5.63,1.55-8.763c0-4.65-1.054-8.871-3.132-12.547
					c-2.143-3.786-5.217-6.74-9.139-8.781C231.425,105.781,227.184,104.796,222.559,104.796L222.559,104.796z"/>
			</g>
		</g>
	</g>
</g>
    <g id="Layer_2">
    <g>
    <g>
    <g>
    <path fill="#799DC4" d="M127.555,332.203h-8.34l-1.873,5.209h-2.707l7.602-19.906h2.297l7.615,19.906h-2.693L127.555,332.203z
					 M120.008,330.056h6.768l-3.391-9.311L120.008,330.056z" />

    <path fill="#799DC4" d="M136.975,335.347h8.654v2.064h-11.744v-1.859l8.162-10.842h-8.039v-2.092h11.211v1.791L136.975,335.347z
					" />

    <path fill="#799DC4" d="M154.393,337.685c-2.005,0-3.637-0.658-4.895-1.976c-1.258-1.317-1.887-3.078-1.887-5.284v-0.465
					c0-1.467,0.28-2.777,0.841-3.931c0.561-1.153,1.344-2.055,2.352-2.707c1.007-0.651,2.099-0.978,3.274-0.978
					c1.923,0,3.418,0.634,4.484,1.9c1.066,1.267,1.6,3.081,1.6,5.441v1.053h-10.021c0.036,1.458,0.462,2.637,1.278,3.534
					c0.815,0.898,1.853,1.347,3.11,1.347c0.893,0,1.649-0.182,2.27-0.547c0.62-0.364,1.162-0.848,1.627-1.449l1.545,1.203
					C158.731,336.733,156.872,337.685,154.393,337.685z M154.078,324.423c-1.021,0-1.878,0.372-2.57,1.114
					c-0.693,0.743-1.121,1.784-1.285,3.124h7.41v-0.191c-0.073-1.285-0.419-2.281-1.039-2.987
					C155.974,324.777,155.135,324.423,154.078,324.423z" />

    <path fill="#799DC4" d="M170.238,324.888c-0.383-0.063-0.798-0.096-1.244-0.096c-1.659,0-2.785,0.707-3.377,2.119v10.5h-2.529
					v-14.793h2.461l0.041,1.709c0.829-1.321,2.005-1.982,3.527-1.982c0.492,0,0.866,0.064,1.121,0.191V324.888z" />

    <path fill="#799DC4" d="M185.086,330.179c0,2.261-0.52,4.077-1.559,5.448c-1.039,1.372-2.434,2.058-4.184,2.058
					c-1.869,0-3.313-0.661-4.334-1.982l-0.123,1.709h-2.324v-21h2.529v7.834c1.021-1.267,2.429-1.9,4.225-1.9
					c1.795,0,3.206,0.679,4.231,2.037c1.025,1.358,1.538,3.218,1.538,5.578V330.179z M182.557,329.892
					c0-1.723-0.333-3.053-0.998-3.992c-0.666-0.938-1.623-1.408-2.871-1.408c-1.668,0-2.867,0.775-3.596,2.324v6.398
					c0.774,1.55,1.982,2.324,3.623,2.324c1.212,0,2.155-0.469,2.83-1.408C182.219,333.192,182.557,331.779,182.557,329.892z" />

    <path fill="#799DC4" d="M197.404,337.412c-0.146-0.292-0.265-0.811-0.355-1.559c-1.176,1.222-2.58,1.832-4.211,1.832
					c-1.458,0-2.655-0.412-3.589-1.237c-0.935-0.825-1.401-1.871-1.401-3.138c0-1.54,0.585-2.736,1.757-3.589
					c1.171-0.852,2.818-1.278,4.942-1.278h2.461v-1.162c0-0.884-0.265-1.588-0.793-2.112c-0.529-0.524-1.308-0.786-2.338-0.786
					c-0.902,0-1.659,0.228-2.27,0.684c-0.611,0.456-0.916,1.007-0.916,1.654h-2.543c0-0.738,0.262-1.451,0.786-2.14
					c0.524-0.688,1.235-1.232,2.133-1.634c0.897-0.401,1.884-0.602,2.96-0.602c1.704,0,3.04,0.426,4.006,1.278
					c0.966,0.853,1.467,2.026,1.504,3.521v6.809c0,1.358,0.173,2.438,0.52,3.24v0.219H197.404z M193.207,335.484
					c0.793,0,1.545-0.205,2.256-0.615s1.226-0.943,1.545-1.6v-3.035h-1.982c-3.099,0-4.648,0.907-4.648,2.721
					c0,0.793,0.264,1.413,0.793,1.859C191.698,335.261,192.377,335.484,193.207,335.484z" />

    <path fill="#799DC4" d="M203.516,318.695c0-0.41,0.125-0.756,0.376-1.039c0.25-0.282,0.622-0.424,1.114-0.424
					s0.866,0.142,1.121,0.424c0.255,0.283,0.383,0.629,0.383,1.039s-0.128,0.752-0.383,1.025c-0.255,0.273-0.629,0.41-1.121,0.41
					s-0.864-0.137-1.114-0.41C203.641,319.447,203.516,319.105,203.516,318.695z M206.25,337.412h-2.529v-14.793h2.529V337.412z" />

    <path fill="#799DC4" d="M212.908,322.619v16.502c0,2.844-1.29,4.266-3.869,4.266c-0.556,0-1.071-0.082-1.545-0.245v-2.011
					c0.292,0.073,0.675,0.109,1.148,0.109c0.565,0,0.996-0.153,1.292-0.458c0.296-0.306,0.444-0.837,0.444-1.594v-16.569H212.908z
					 M210.119,318.695c0-0.401,0.125-0.745,0.376-1.032c0.25-0.287,0.617-0.431,1.101-0.431c0.492,0,0.866,0.142,1.121,0.424
					c0.255,0.283,0.383,0.629,0.383,1.039s-0.128,0.752-0.383,1.025c-0.255,0.273-0.629,0.41-1.121,0.41s-0.861-0.137-1.107-0.41
					S210.119,319.105,210.119,318.695z" />

    <path fill="#799DC4" d="M226.115,337.412c-0.146-0.292-0.265-0.811-0.355-1.559c-1.176,1.222-2.58,1.832-4.211,1.832
					c-1.458,0-2.655-0.412-3.589-1.237c-0.935-0.825-1.401-1.871-1.401-3.138c0-1.54,0.585-2.736,1.757-3.589
					c1.171-0.852,2.818-1.278,4.942-1.278h2.461v-1.162c0-0.884-0.265-1.588-0.793-2.112c-0.529-0.524-1.308-0.786-2.338-0.786
					c-0.902,0-1.659,0.228-2.27,0.684c-0.611,0.456-0.916,1.007-0.916,1.654h-2.543c0-0.738,0.262-1.451,0.786-2.14
					c0.524-0.688,1.235-1.232,2.133-1.634c0.897-0.401,1.884-0.602,2.96-0.602c1.704,0,3.04,0.426,4.006,1.278
					c0.966,0.853,1.467,2.026,1.504,3.521v6.809c0,1.358,0.173,2.438,0.52,3.24v0.219H226.115z M221.918,335.484
					c0.793,0,1.545-0.205,2.256-0.615s1.226-0.943,1.545-1.6v-3.035h-1.982c-3.099,0-4.648,0.907-4.648,2.721
					c0,0.793,0.264,1.413,0.793,1.859C220.409,335.261,221.088,335.484,221.918,335.484z" />

    <path fill="#799DC4" d="M234.605,322.619l0.082,1.859c1.13-1.422,2.606-2.133,4.43-2.133c3.126,0,4.703,1.764,4.73,5.291v9.775
					h-2.529v-9.789c-0.009-1.066-0.253-1.854-0.731-2.365c-0.479-0.51-1.224-0.766-2.235-0.766c-0.82,0-1.541,0.219-2.16,0.656
					c-0.62,0.438-1.103,1.012-1.449,1.723v10.541h-2.529v-14.793H234.605z" />

			</g>
		</g>
    <g>
    <g>
    <path fill="#A7A9AC" d="M116.022,282.452h-1.594v-12.086h1.594V282.452z" />

    <path fill="#A7A9AC" d="M119.298,273.471l0.05,1.129c0.686-0.863,1.583-1.295,2.689-1.295c1.898,0,2.855,1.071,2.872,3.212
					v5.936h-1.536v-5.943c-0.005-0.647-0.153-1.126-0.444-1.436c-0.29-0.311-0.743-0.465-1.357-0.465
					c-0.498,0-0.935,0.133-1.312,0.398s-0.669,0.613-0.88,1.045v6.4h-1.536v-8.981H119.298z" />

    <path fill="#A7A9AC" d="M129.978,281.364c0.548,0,1.026-0.166,1.436-0.498s0.636-0.746,0.681-1.244h1.453
					c-0.028,0.514-0.205,1.004-0.531,1.469s-0.762,0.836-1.308,1.112c-0.545,0.276-1.122,0.415-1.73,0.415
					c-1.223,0-2.195-0.408-2.918-1.225c-0.722-0.816-1.083-1.933-1.083-3.35v-0.257c0-0.874,0.161-1.651,0.481-2.333
					c0.321-0.68,0.782-1.209,1.382-1.585c0.601-0.376,1.311-0.564,2.129-0.564c1.007,0,1.844,0.302,2.511,0.905
					c0.667,0.603,1.022,1.386,1.066,2.349h-1.453c-0.044-0.581-0.264-1.059-0.66-1.432c-0.396-0.374-0.884-0.561-1.465-0.561
					c-0.78,0-1.385,0.281-1.814,0.843c-0.429,0.562-0.643,1.373-0.643,2.436v0.291c0,1.035,0.213,1.832,0.639,2.391
					S129.186,281.364,129.978,281.364z" />

    <path fill="#A7A9AC" d="M138.765,274.849c-0.232-0.039-0.484-0.059-0.755-0.059c-1.007,0-1.69,0.43-2.05,1.287v6.375h-1.536
					v-8.981h1.494l0.025,1.038c0.503-0.803,1.217-1.204,2.142-1.204c0.299,0,0.526,0.039,0.681,0.116V274.849z" />

    <path fill="#A7A9AC" d="M142.896,282.618c-1.217,0-2.208-0.399-2.972-1.199s-1.146-1.869-1.146-3.209v-0.281
					c0-0.892,0.17-1.687,0.51-2.387c0.341-0.7,0.816-1.248,1.428-1.644c0.612-0.396,1.274-0.594,1.988-0.594
					c1.167,0,2.075,0.385,2.723,1.153c0.647,0.77,0.971,1.871,0.971,3.305v0.639h-6.084c0.022,0.886,0.281,1.601,0.776,2.146
					c0.495,0.545,1.125,0.817,1.888,0.817c0.542,0,1.001-0.11,1.378-0.332c0.376-0.221,0.706-0.514,0.988-0.879l0.938,0.73
					C145.53,282.04,144.401,282.618,142.896,282.618z M142.705,274.566c-0.62,0-1.14,0.226-1.561,0.677s-0.681,1.083-0.78,1.896
					h4.499v-0.116c-0.044-0.78-0.254-1.385-0.631-1.813S143.347,274.566,142.705,274.566z" />

    <path fill="#A7A9AC" d="M152.87,282.452c-0.088-0.177-0.161-0.492-0.216-0.946c-0.714,0.741-1.566,1.112-2.557,1.112
					c-0.885,0-1.612-0.25-2.179-0.751c-0.567-0.501-0.851-1.136-0.851-1.905c0-0.936,0.355-1.661,1.067-2.179
					c0.711-0.518,1.711-0.776,3-0.776h1.494v-0.705c0-0.537-0.161-0.965-0.481-1.283s-0.794-0.477-1.419-0.477
					c-0.548,0-1.007,0.138-1.378,0.414c-0.371,0.277-0.556,0.612-0.556,1.005h-1.544c0-0.448,0.159-0.881,0.477-1.299
					c0.318-0.418,0.75-0.749,1.295-0.992c0.545-0.243,1.145-0.365,1.797-0.365c1.035,0,1.846,0.259,2.432,0.776
					s0.891,1.229,0.913,2.137v4.135c0,0.824,0.105,1.479,0.315,1.967v0.133H152.87z M150.321,281.282
					c0.481,0,0.938-0.125,1.37-0.374s0.744-0.573,0.938-0.972v-1.842h-1.204c-1.881,0-2.822,0.55-2.822,1.651
					c0,0.481,0.161,0.857,0.481,1.129S149.818,281.282,150.321,281.282z" />

    <path fill="#A7A9AC" d="M160.951,280.069c0-0.414-0.156-0.737-0.469-0.967c-0.313-0.229-0.858-0.428-1.636-0.594
					c-0.777-0.166-1.395-0.365-1.851-0.598c-0.457-0.232-0.794-0.509-1.013-0.83c-0.219-0.32-0.328-0.702-0.328-1.145
					c0-0.736,0.312-1.359,0.934-1.868c0.623-0.509,1.418-0.764,2.387-0.764c1.018,0,1.844,0.263,2.478,0.788
					c0.634,0.526,0.951,1.198,0.951,2.018h-1.544c0-0.421-0.178-0.783-0.536-1.088c-0.356-0.304-0.806-0.456-1.349-0.456
					c-0.559,0-0.996,0.122-1.312,0.365s-0.473,0.562-0.473,0.954c0,0.371,0.146,0.65,0.44,0.839s0.823,0.368,1.59,0.54
					c0.766,0.171,1.387,0.376,1.863,0.613c0.476,0.238,0.829,0.524,1.059,0.859c0.229,0.335,0.344,0.743,0.344,1.225
					c0,0.803-0.321,1.445-0.963,1.93s-1.475,0.727-2.499,0.727c-0.719,0-1.356-0.127-1.909-0.382s-0.986-0.61-1.299-1.066
					c-0.313-0.457-0.469-0.95-0.469-1.481h1.536c0.028,0.514,0.234,0.922,0.618,1.224c0.385,0.302,0.893,0.452,1.523,0.452
					c0.581,0,1.047-0.117,1.398-0.353C160.775,280.776,160.951,280.463,160.951,280.069z" />

    <path fill="#A7A9AC" d="M163.646,271.089c0-0.25,0.076-0.46,0.228-0.631c0.152-0.172,0.378-0.258,0.677-0.258
					s0.526,0.086,0.681,0.258c0.155,0.171,0.232,0.381,0.232,0.631c0,0.248-0.078,0.456-0.232,0.622s-0.382,0.249-0.681,0.249
					s-0.524-0.083-0.677-0.249C163.722,271.545,163.646,271.337,163.646,271.089z M165.306,282.452h-1.536v-8.981h1.536V282.452z" />

    <path fill="#A7A9AC" d="M168.366,273.471l0.05,1.129c0.686-0.863,1.583-1.295,2.689-1.295c1.898,0,2.855,1.071,2.872,3.212
					v5.936h-1.536v-5.943c-0.005-0.647-0.153-1.126-0.444-1.436c-0.29-0.311-0.743-0.465-1.357-0.465
					c-0.498,0-0.935,0.133-1.312,0.398s-0.669,0.613-0.88,1.045v6.4h-1.536v-8.981H168.366z" />

    <path fill="#A7A9AC" d="M175.078,277.887c0-1.4,0.324-2.514,0.971-3.341s1.505-1.241,2.573-1.241
					c1.096,0,1.951,0.388,2.565,1.162l0.075-0.996h1.403v8.766c0,1.162-0.345,2.078-1.033,2.747
					c-0.689,0.67-1.615,1.005-2.777,1.005c-0.647,0-1.281-0.139-1.901-0.415s-1.093-0.656-1.419-1.137l0.797-0.922
					c0.659,0.813,1.464,1.221,2.416,1.221c0.747,0,1.33-0.211,1.747-0.631c0.418-0.421,0.627-1.014,0.627-1.777v-0.771
					c-0.614,0.708-1.453,1.063-2.515,1.063c-1.051,0-1.902-0.424-2.552-1.27C175.403,280.501,175.078,279.348,175.078,277.887z
					 M176.622,278.062c0,1.012,0.208,1.808,0.623,2.386s0.996,0.868,1.743,0.868c0.968,0,1.68-0.44,2.133-1.32v-4.101
					c-0.47-0.857-1.176-1.286-2.117-1.286c-0.747,0-1.331,0.29-1.751,0.871S176.622,276.921,176.622,278.062z" />

    <path fill="#A7A9AC" d="M188.941,273.471l0.05,1.129c0.686-0.863,1.583-1.295,2.689-1.295c1.898,0,2.855,1.071,2.872,3.212
					v5.936h-1.536v-5.943c-0.005-0.647-0.153-1.126-0.444-1.436c-0.29-0.311-0.743-0.465-1.357-0.465
					c-0.498,0-0.935,0.133-1.312,0.398s-0.669,0.613-0.88,1.045v6.4h-1.536v-8.981H188.941z" />

    <path fill="#A7A9AC" d="M201.563,281.563c-0.598,0.703-1.475,1.055-2.631,1.055c-0.958,0-1.687-0.278-2.187-0.834
					c-0.501-0.557-0.754-1.38-0.76-2.47v-5.844h1.536v5.802c0,1.361,0.553,2.043,1.66,2.043c1.173,0,1.954-0.438,2.341-1.313v-6.532
					h1.536v8.981h-1.461L201.563,281.563z" />

    <path fill="#A7A9AC" d="M205.985,273.471l0.042,0.996c0.659-0.774,1.547-1.162,2.665-1.162c1.256,0,2.111,0.481,2.565,1.444
					c0.299-0.432,0.688-0.78,1.167-1.046c0.479-0.266,1.044-0.398,1.697-0.398c1.97,0,2.972,1.043,3.005,3.13v6.018h-1.536v-5.927
					c0-0.642-0.146-1.122-0.44-1.44s-0.786-0.477-1.478-0.477c-0.57,0-1.043,0.17-1.419,0.51c-0.376,0.341-0.595,0.799-0.656,1.374
					v5.96h-1.544v-5.885c0-1.307-0.639-1.959-1.917-1.959c-1.007,0-1.696,0.429-2.067,1.286v6.558h-1.536v-8.981H205.985z" />

    <path fill="#A7A9AC" d="M226.194,278.062c0,1.372-0.315,2.475-0.946,3.308s-1.478,1.249-2.54,1.249
					c-1.134,0-2.012-0.401-2.631-1.203l-0.075,1.037h-1.411v-12.75h1.536v4.756c0.62-0.769,1.475-1.153,2.565-1.153
					s1.946,0.412,2.569,1.237c0.622,0.824,0.934,1.953,0.934,3.387V278.062z M224.658,277.887c0-1.046-0.202-1.854-0.606-2.424
					s-0.985-0.854-1.743-0.854c-1.013,0-1.74,0.47-2.183,1.41v3.885c0.47,0.941,1.204,1.412,2.2,1.412
					c0.736,0,1.309-0.285,1.718-0.855S224.658,279.032,224.658,277.887z" />

    <path fill="#A7A9AC" d="M231.005,282.618c-1.217,0-2.208-0.399-2.972-1.199s-1.146-1.869-1.146-3.209v-0.281
					c0-0.892,0.17-1.687,0.51-2.387c0.341-0.7,0.816-1.248,1.428-1.644c0.612-0.396,1.274-0.594,1.988-0.594
					c1.167,0,2.075,0.385,2.723,1.153c0.647,0.77,0.971,1.871,0.971,3.305v0.639h-6.084c0.022,0.886,0.281,1.601,0.776,2.146
					c0.495,0.545,1.125,0.817,1.888,0.817c0.542,0,1.001-0.11,1.378-0.332c0.376-0.221,0.706-0.514,0.988-0.879l0.938,0.73
					C233.639,282.04,232.51,282.618,231.005,282.618z M230.814,274.566c-0.62,0-1.14,0.226-1.561,0.677s-0.681,1.083-0.78,1.896
					h4.499v-0.116c-0.044-0.78-0.254-1.385-0.631-1.813S231.456,274.566,230.814,274.566z" />

    <path fill="#A7A9AC" d="M239.775,274.849c-0.232-0.039-0.484-0.059-0.755-0.059c-1.007,0-1.69,0.43-2.05,1.287v6.375h-1.536
					v-8.981h1.494l0.025,1.038c0.503-0.803,1.217-1.204,2.142-1.204c0.299,0,0.526,0.039,0.681,0.116V274.849z" />

    <path fill="#A7A9AC" d="M245.566,280.069c0-0.414-0.156-0.737-0.469-0.967c-0.313-0.229-0.858-0.428-1.636-0.594
					c-0.777-0.166-1.395-0.365-1.851-0.598c-0.457-0.232-0.794-0.509-1.013-0.83c-0.219-0.32-0.328-0.702-0.328-1.145
					c0-0.736,0.312-1.359,0.934-1.868c0.623-0.509,1.418-0.764,2.387-0.764c1.018,0,1.844,0.263,2.478,0.788
					c0.634,0.526,0.951,1.198,0.951,2.018h-1.544c0-0.421-0.178-0.783-0.536-1.088c-0.356-0.304-0.806-0.456-1.349-0.456
					c-0.559,0-0.996,0.122-1.312,0.365s-0.473,0.562-0.473,0.954c0,0.371,0.146,0.65,0.44,0.839s0.823,0.368,1.59,0.54
					c0.766,0.171,1.387,0.376,1.863,0.613c0.476,0.238,0.829,0.524,1.059,0.859c0.229,0.335,0.344,0.743,0.344,1.225
					c0,0.803-0.321,1.445-0.963,1.93s-1.475,0.727-2.499,0.727c-0.719,0-1.356-0.127-1.909-0.382s-0.986-0.61-1.299-1.066
					c-0.313-0.457-0.469-0.95-0.469-1.481h1.536c0.028,0.514,0.234,0.922,0.618,1.224c0.385,0.302,0.893,0.452,1.523,0.452
					c0.581,0,1.047-0.117,1.398-0.353C245.39,280.776,245.566,280.463,245.566,280.069z" />

    <path fill="#A7A9AC" d="M78.193,298.278c0-0.879,0.173-1.671,0.519-2.373c0.346-0.703,0.827-1.246,1.444-1.627
					c0.617-0.383,1.321-0.573,2.112-0.573c1.223,0,2.212,0.423,2.968,1.271c0.755,0.846,1.133,1.973,1.133,3.378v0.108
					c0,0.874-0.167,1.658-0.502,2.353c-0.335,0.694-0.813,1.235-1.437,1.623c-0.622,0.388-1.337,0.581-2.146,0.581
					c-1.217,0-2.204-0.424-2.959-1.27c-0.756-0.848-1.133-1.968-1.133-3.362V298.278z M79.737,298.462
					c0,0.996,0.231,1.795,0.693,2.398c0.462,0.604,1.081,0.904,1.855,0.904c0.78,0,1.4-0.306,1.859-0.917s0.689-1.468,0.689-2.569
					c0-0.984-0.234-1.783-0.702-2.395c-0.467-0.611-1.088-0.917-1.863-0.917c-0.758,0-1.37,0.302-1.834,0.905
					C79.97,296.475,79.737,297.338,79.737,298.462z" />

    <path fill="#A7A9AC" d="M88.201,302.853v-7.795h-1.419v-1.187h1.419v-0.921c0-0.963,0.257-1.708,0.772-2.233
					s1.242-0.788,2.183-0.788c0.354,0,0.706,0.046,1.054,0.14l-0.083,1.237c-0.26-0.049-0.537-0.074-0.83-0.074
					c-0.498,0-0.883,0.146-1.154,0.438c-0.271,0.291-0.407,0.709-0.407,1.253v0.949h1.917v1.187h-1.917v7.795H88.201z" />

    <path fill="#A7A9AC" d="M99.583,303.019c-1.217,0-2.208-0.399-2.972-1.199s-1.146-1.869-1.146-3.209v-0.281
					c0-0.892,0.17-1.687,0.51-2.387c0.341-0.7,0.816-1.248,1.428-1.644c0.612-0.396,1.274-0.594,1.988-0.594
					c1.167,0,2.075,0.385,2.723,1.153c0.647,0.77,0.971,1.871,0.971,3.305v0.639h-6.084c0.022,0.886,0.281,1.601,0.776,2.146
					c0.495,0.545,1.125,0.817,1.888,0.817c0.542,0,1.001-0.11,1.378-0.332c0.376-0.221,0.706-0.514,0.988-0.879l0.938,0.73
					C102.217,302.44,101.088,303.019,99.583,303.019z M99.392,294.967c-0.62,0-1.14,0.226-1.561,0.677s-0.681,1.083-0.78,1.896
					h4.499v-0.116c-0.044-0.78-0.254-1.385-0.631-1.813S100.034,294.967,99.392,294.967z" />

    <path fill="#A7A9AC" d="M107.208,298.345h-4.051v-1.253h4.051V298.345z" />

    <path fill="#A7A9AC" d="M117.016,301.267c-0.41,0.587-0.981,1.025-1.714,1.316c-0.733,0.29-1.587,0.436-2.561,0.436
					c-0.985,0-1.859-0.231-2.623-0.693s-1.354-1.119-1.772-1.971c-0.418-0.853-0.632-1.841-0.644-2.964v-1.054
					c0-1.821,0.425-3.232,1.274-4.234c0.849-1.001,2.043-1.502,3.582-1.502c1.262,0,2.277,0.322,3.046,0.967s1.24,1.56,1.411,2.744
					h-1.594c-0.299-1.605-1.25-2.408-2.855-2.408c-1.068,0-1.877,0.376-2.428,1.126c-0.551,0.751-0.829,1.838-0.834,3.261v0.989
					c0,1.356,0.31,2.436,0.93,3.235c0.62,0.801,1.458,1.201,2.515,1.201c0.598,0,1.121-0.066,1.569-0.199s0.819-0.356,1.112-0.671
					v-2.708h-2.797v-1.303h4.383V301.267z" />

    <path fill="#A7A9AC" d="M118.175,298.278c0-0.879,0.173-1.671,0.519-2.373c0.346-0.703,0.827-1.246,1.444-1.627
					c0.617-0.383,1.321-0.573,2.112-0.573c1.223,0,2.212,0.423,2.968,1.271c0.755,0.846,1.133,1.973,1.133,3.378v0.108
					c0,0.874-0.167,1.658-0.502,2.353c-0.335,0.694-0.813,1.235-1.437,1.623c-0.622,0.388-1.337,0.581-2.146,0.581
					c-1.217,0-2.204-0.424-2.959-1.27c-0.756-0.848-1.133-1.968-1.133-3.362V298.278z M119.719,298.462
					c0,0.996,0.231,1.795,0.693,2.398c0.462,0.604,1.081,0.904,1.855,0.904c0.78,0,1.4-0.306,1.859-0.917s0.689-1.468,0.689-2.569
					c0-0.984-0.234-1.783-0.702-2.395c-0.467-0.611-1.088-0.917-1.863-0.917c-0.758,0-1.37,0.302-1.834,0.905
					C119.951,296.475,119.719,297.338,119.719,298.462z" />

    <path fill="#A7A9AC" d="M130.266,300.769l2.225-6.897h1.569l-3.221,8.981h-1.17l-3.254-8.981h1.569L130.266,300.769z" />

    <path fill="#A7A9AC" d="M138.306,303.019c-1.217,0-2.208-0.399-2.972-1.199s-1.146-1.869-1.146-3.209v-0.281
					c0-0.892,0.17-1.687,0.51-2.387c0.341-0.7,0.816-1.248,1.428-1.644c0.612-0.396,1.274-0.594,1.988-0.594
					c1.167,0,2.075,0.385,2.723,1.153c0.647,0.77,0.971,1.871,0.971,3.305v0.639h-6.084c0.022,0.886,0.281,1.601,0.776,2.146
					c0.495,0.545,1.125,0.817,1.888,0.817c0.542,0,1.001-0.11,1.378-0.332c0.376-0.221,0.706-0.514,0.988-0.879l0.938,0.73
					C140.94,302.44,139.812,303.019,138.306,303.019z M138.115,294.967c-0.62,0-1.14,0.226-1.561,0.677s-0.681,1.083-0.78,1.896
					h4.499v-0.116c-0.044-0.78-0.254-1.385-0.631-1.813S138.757,294.967,138.115,294.967z" />

    <path fill="#A7A9AC" d="M147.077,295.249c-0.232-0.039-0.484-0.059-0.755-0.059c-1.007,0-1.69,0.43-2.05,1.287v6.375h-1.536
					v-8.981h1.494l0.025,1.038c0.503-0.803,1.217-1.204,2.142-1.204c0.299,0,0.526,0.039,0.681,0.116V295.249z" />

    <path fill="#A7A9AC" d="M149.09,293.871l0.05,1.129c0.686-0.863,1.583-1.295,2.689-1.295c1.898,0,2.855,1.071,2.872,3.212v5.936
					h-1.536v-5.943c-0.005-0.647-0.153-1.126-0.444-1.436c-0.29-0.311-0.743-0.465-1.357-0.465c-0.498,0-0.935,0.133-1.312,0.398
					s-0.669,0.613-0.88,1.045v6.4h-1.536v-8.981H149.09z" />

    <path fill="#A7A9AC" d="M157.612,293.871l0.042,0.996c0.659-0.774,1.547-1.162,2.665-1.162c1.256,0,2.111,0.481,2.565,1.444
					c0.299-0.432,0.688-0.78,1.167-1.046c0.479-0.266,1.044-0.398,1.697-0.398c1.97,0,2.972,1.043,3.005,3.13v6.018h-1.536v-5.927
					c0-0.642-0.146-1.122-0.44-1.44s-0.786-0.477-1.478-0.477c-0.57,0-1.043,0.17-1.419,0.51c-0.376,0.341-0.595,0.799-0.656,1.374
					v5.96h-1.544v-5.885c0-1.307-0.639-1.959-1.917-1.959c-1.007,0-1.696,0.429-2.067,1.286v6.558h-1.536v-8.981H157.612z" />

    <path fill="#A7A9AC" d="M173.944,303.019c-1.217,0-2.208-0.399-2.972-1.199s-1.146-1.869-1.146-3.209v-0.281
					c0-0.892,0.17-1.687,0.51-2.387c0.341-0.7,0.816-1.248,1.428-1.644c0.612-0.396,1.274-0.594,1.988-0.594
					c1.167,0,2.075,0.385,2.723,1.153c0.647,0.77,0.971,1.871,0.971,3.305v0.639h-6.084c0.022,0.886,0.281,1.601,0.776,2.146
					c0.495,0.545,1.125,0.817,1.888,0.817c0.542,0,1.001-0.11,1.378-0.332c0.376-0.221,0.706-0.514,0.988-0.879l0.938,0.73
					C176.579,302.44,175.45,303.019,173.944,303.019z M173.753,294.967c-0.62,0-1.14,0.226-1.561,0.677s-0.681,1.083-0.78,1.896
					h4.499v-0.116c-0.044-0.78-0.254-1.385-0.631-1.813S174.396,294.967,173.753,294.967z" />

    <path fill="#A7A9AC" d="M179.827,293.871l0.05,1.129c0.686-0.863,1.583-1.295,2.689-1.295c1.898,0,2.855,1.071,2.872,3.212
					v5.936h-1.536v-5.943c-0.005-0.647-0.153-1.126-0.444-1.436c-0.29-0.311-0.743-0.465-1.357-0.465
					c-0.498,0-0.935,0.133-1.312,0.398s-0.669,0.613-0.88,1.045v6.4h-1.536v-8.981H179.827z" />

    <path fill="#A7A9AC" d="M188.987,291.696v2.175h1.677v1.187h-1.677v5.577c0,0.36,0.075,0.631,0.224,0.811
					s0.404,0.271,0.764,0.271c0.177,0,0.42-0.033,0.73-0.1v1.237c-0.404,0.11-0.797,0.165-1.179,0.165
					c-0.686,0-1.204-0.207-1.552-0.623c-0.349-0.414-0.523-1.004-0.523-1.768v-5.57h-1.635v-1.187h1.635v-2.175H188.987z" />

    <path fill="#A7A9AC" d="M200.195,300.47c0-0.414-0.156-0.737-0.469-0.967c-0.313-0.229-0.858-0.428-1.636-0.594
					c-0.777-0.166-1.395-0.365-1.851-0.598c-0.457-0.232-0.794-0.509-1.013-0.83c-0.219-0.32-0.328-0.702-0.328-1.145
					c0-0.736,0.312-1.359,0.934-1.868c0.623-0.509,1.418-0.764,2.387-0.764c1.018,0,1.844,0.263,2.478,0.788
					c0.634,0.526,0.951,1.198,0.951,2.018h-1.544c0-0.421-0.178-0.783-0.536-1.088c-0.356-0.304-0.806-0.456-1.349-0.456
					c-0.559,0-0.996,0.122-1.312,0.365s-0.473,0.562-0.473,0.954c0,0.371,0.146,0.65,0.44,0.839s0.823,0.368,1.59,0.54
					c0.766,0.171,1.387,0.376,1.863,0.613c0.476,0.238,0.829,0.524,1.059,0.859c0.229,0.335,0.344,0.743,0.344,1.225
					c0,0.803-0.321,1.445-0.963,1.93s-1.475,0.727-2.499,0.727c-0.719,0-1.356-0.127-1.909-0.382s-0.986-0.61-1.299-1.066
					c-0.313-0.457-0.469-0.95-0.469-1.481h1.536c0.028,0.514,0.234,0.922,0.618,1.224c0.385,0.302,0.893,0.452,1.523,0.452
					c0.581,0,1.047-0.117,1.398-0.353C200.019,301.177,200.195,300.863,200.195,300.47z" />

    <path fill="#A7A9AC" d="M206.608,303.019c-1.217,0-2.208-0.399-2.972-1.199s-1.146-1.869-1.146-3.209v-0.281
					c0-0.892,0.17-1.687,0.51-2.387c0.341-0.7,0.816-1.248,1.428-1.644c0.612-0.396,1.274-0.594,1.988-0.594
					c1.167,0,2.075,0.385,2.723,1.153c0.647,0.77,0.971,1.871,0.971,3.305v0.639h-6.084c0.022,0.886,0.281,1.601,0.776,2.146
					c0.495,0.545,1.125,0.817,1.888,0.817c0.542,0,1.001-0.11,1.378-0.332c0.376-0.221,0.706-0.514,0.988-0.879l0.938,0.73
					C209.242,302.44,208.113,303.019,206.608,303.019z M206.417,294.967c-0.62,0-1.14,0.226-1.561,0.677s-0.681,1.083-0.78,1.896
					h4.499v-0.116c-0.044-0.78-0.254-1.385-0.631-1.813S207.059,294.967,206.417,294.967z" />

    <path fill="#A7A9AC" d="M215.379,295.249c-0.232-0.039-0.484-0.059-0.755-0.059c-1.007,0-1.69,0.43-2.05,1.287v6.375h-1.536
					v-8.981h1.494l0.025,1.038c0.503-0.803,1.217-1.204,2.142-1.204c0.299,0,0.526,0.039,0.681,0.116V295.249z" />

    <path fill="#A7A9AC" d="M219.053,300.769l2.225-6.897h1.569l-3.221,8.981h-1.17l-3.254-8.981h1.569L219.053,300.769z" />

    <path fill="#A7A9AC" d="M223.482,291.489c0-0.25,0.076-0.46,0.228-0.631c0.152-0.172,0.378-0.258,0.677-0.258
					s0.526,0.086,0.681,0.258c0.155,0.171,0.232,0.381,0.232,0.631c0,0.248-0.078,0.456-0.232,0.622s-0.382,0.249-0.681,0.249
					s-0.524-0.083-0.677-0.249C223.558,291.945,223.482,291.737,223.482,291.489z M225.142,302.853h-1.536v-8.981h1.536V302.853z" />

    <path fill="#A7A9AC" d="M230.352,301.765c0.548,0,1.026-0.166,1.436-0.498s0.636-0.746,0.681-1.244h1.453
					c-0.028,0.514-0.205,1.004-0.531,1.469s-0.762,0.836-1.308,1.112c-0.545,0.276-1.122,0.415-1.73,0.415
					c-1.223,0-2.195-0.408-2.918-1.225c-0.722-0.816-1.083-1.933-1.083-3.35v-0.257c0-0.874,0.161-1.651,0.481-2.333
					c0.321-0.68,0.782-1.209,1.382-1.585c0.601-0.376,1.311-0.564,2.129-0.564c1.007,0,1.844,0.302,2.511,0.905
					c0.667,0.603,1.022,1.386,1.066,2.349h-1.453c-0.044-0.581-0.264-1.059-0.66-1.432c-0.396-0.374-0.884-0.561-1.465-0.561
					c-0.78,0-1.385,0.281-1.814,0.843c-0.429,0.562-0.643,1.373-0.643,2.436v0.291c0,1.035,0.213,1.832,0.639,2.391
					S229.56,301.765,230.352,301.765z" />

    <path fill="#A7A9AC" d="M238.524,303.019c-1.217,0-2.208-0.399-2.972-1.199s-1.146-1.869-1.146-3.209v-0.281
					c0-0.892,0.17-1.687,0.51-2.387c0.341-0.7,0.816-1.248,1.428-1.644c0.612-0.396,1.274-0.594,1.988-0.594
					c1.167,0,2.075,0.385,2.723,1.153c0.647,0.77,0.971,1.871,0.971,3.305v0.639h-6.084c0.022,0.886,0.281,1.601,0.776,2.146
					c0.495,0.545,1.125,0.817,1.888,0.817c0.542,0,1.001-0.11,1.378-0.332c0.376-0.221,0.706-0.514,0.988-0.879l0.938,0.73
					C241.159,302.44,240.03,303.019,238.524,303.019z M238.333,294.967c-0.62,0-1.14,0.226-1.561,0.677s-0.681,1.083-0.78,1.896
					h4.499v-0.116c-0.044-0.78-0.254-1.385-0.631-1.813S238.976,294.967,238.333,294.967z" />

    <path fill="#A7A9AC" d="M251.857,301.964c-0.598,0.703-1.475,1.055-2.631,1.055c-0.958,0-1.687-0.278-2.187-0.834
					c-0.501-0.557-0.754-1.38-0.76-2.47v-5.844h1.536v5.802c0,1.361,0.553,2.043,1.66,2.043c1.173,0,1.954-0.438,2.341-1.313v-6.532
					h1.536v8.981h-1.461L251.857,301.964z" />

    <path fill="#A7A9AC" d="M260.063,300.47c0-0.414-0.156-0.737-0.469-0.967c-0.313-0.229-0.858-0.428-1.636-0.594
					c-0.777-0.166-1.395-0.365-1.851-0.598c-0.457-0.232-0.794-0.509-1.013-0.83c-0.219-0.32-0.328-0.702-0.328-1.145
					c0-0.736,0.312-1.359,0.934-1.868c0.623-0.509,1.418-0.764,2.387-0.764c1.018,0,1.844,0.263,2.478,0.788
					c0.634,0.526,0.951,1.198,0.951,2.018h-1.544c0-0.421-0.178-0.783-0.536-1.088c-0.356-0.304-0.806-0.456-1.349-0.456
					c-0.559,0-0.996,0.122-1.312,0.365s-0.473,0.562-0.473,0.954c0,0.371,0.146,0.65,0.44,0.839s0.823,0.368,1.59,0.54
					c0.766,0.171,1.387,0.376,1.863,0.613c0.476,0.238,0.829,0.524,1.059,0.859c0.229,0.335,0.344,0.743,0.344,1.225
					c0,0.803-0.321,1.445-0.963,1.93s-1.475,0.727-2.499,0.727c-0.719,0-1.356-0.127-1.909-0.382s-0.986-0.61-1.299-1.066
					c-0.313-0.457-0.469-0.95-0.469-1.481h1.536c0.028,0.514,0.234,0.922,0.618,1.224c0.385,0.302,0.893,0.452,1.523,0.452
					c0.581,0,1.047-0.117,1.398-0.353C259.888,301.177,260.063,300.863,260.063,300.47z" />

    <path fill="#A7A9AC" d="M266.477,303.019c-1.217,0-2.208-0.399-2.972-1.199s-1.146-1.869-1.146-3.209v-0.281
					c0-0.892,0.17-1.687,0.51-2.387c0.341-0.7,0.816-1.248,1.428-1.644c0.612-0.396,1.274-0.594,1.988-0.594
					c1.167,0,2.075,0.385,2.723,1.153c0.647,0.77,0.971,1.871,0.971,3.305v0.639h-6.084c0.022,0.886,0.281,1.601,0.776,2.146
					c0.495,0.545,1.125,0.817,1.888,0.817c0.542,0,1.001-0.11,1.378-0.332c0.376-0.221,0.706-0.514,0.988-0.879l0.938,0.73
					C269.111,302.44,267.982,303.019,266.477,303.019z M266.286,294.967c-0.62,0-1.14,0.226-1.561,0.677s-0.681,1.083-0.78,1.896
					h4.499v-0.116c-0.044-0.78-0.254-1.385-0.631-1.813S266.928,294.967,266.286,294.967z" />

    <path fill="#A7A9AC" d="M275.247,295.249c-0.232-0.039-0.484-0.059-0.755-0.059c-1.007,0-1.69,0.43-2.05,1.287v6.375h-1.536
					v-8.981h1.494l0.025,1.038c0.503-0.803,1.217-1.204,2.142-1.204c0.299,0,0.526,0.039,0.681,0.116V295.249z" />

    <path fill="#A7A9AC" d="M281.038,300.47c0-0.414-0.156-0.737-0.469-0.967c-0.313-0.229-0.858-0.428-1.636-0.594
					c-0.777-0.166-1.395-0.365-1.851-0.598c-0.457-0.232-0.794-0.509-1.013-0.83c-0.219-0.32-0.328-0.702-0.328-1.145
					c0-0.736,0.312-1.359,0.934-1.868c0.623-0.509,1.418-0.764,2.387-0.764c1.018,0,1.844,0.263,2.478,0.788
					c0.634,0.526,0.951,1.198,0.951,2.018h-1.544c0-0.421-0.178-0.783-0.536-1.088c-0.356-0.304-0.806-0.456-1.349-0.456
					c-0.559,0-0.996,0.122-1.312,0.365s-0.473,0.562-0.473,0.954c0,0.371,0.146,0.65,0.44,0.839s0.823,0.368,1.59,0.54
					c0.766,0.171,1.387,0.376,1.863,0.613c0.476,0.238,0.829,0.524,1.059,0.859c0.229,0.335,0.344,0.743,0.344,1.225
					c0,0.803-0.321,1.445-0.963,1.93s-1.475,0.727-2.499,0.727c-0.719,0-1.356-0.127-1.909-0.382s-0.986-0.61-1.299-1.066
					c-0.313-0.457-0.469-0.95-0.469-1.481h1.536c0.028,0.514,0.234,0.922,0.618,1.224c0.385,0.302,0.893,0.452,1.523,0.452
					c0.581,0,1.047-0.117,1.398-0.353C280.862,301.177,281.038,300.863,281.038,300.47z" />

			</g>
		</g>
	</g>
    <g>
    <g opacity="0.6">
    <g>
    <g>
    <polygon fill="#66ABCB" points="155.905,225.385 147.229,218.274 147.229,219.89 153.936,225.385 147.229,230.883
						147.229,232.502 155.675,225.579 155.675,225.576 					" />

				</g>
    <rect x="142.257" y="224.6" fill="#66ABCB" width="12.024" height="1.407" />

			</g>
		</g>
    <g>
    <g>
    <path fill="#0074A8" d="M75.815,216.054h-4.081v-15.98l-3.98,1.538v-3.392l7.63-3.119h0.431V216.054z" />

    <path fill="#0074A8" d="M92.47,200.505l0.115,1.437c0.91-1.15,2.112-1.725,3.606-1.725c1.552,0,2.649,0.699,3.291,2.098
					c0.891-1.399,2.16-2.098,3.808-2.098c2.72,0,4.114,1.882,4.181,5.647v10.189h-4.066v-9.93c0-0.9-0.125-1.542-0.374-1.926
					c-0.25-0.383-0.67-0.575-1.265-0.575c-0.757,0-1.322,0.465-1.696,1.394l0.029,0.489v10.548h-4.067v-9.901
					c0-0.891-0.12-1.535-0.359-1.933c-0.24-0.397-0.666-0.596-1.279-0.596c-0.699,0-1.255,0.378-1.667,1.135v11.295h-4.066v-15.549
					H92.47z" />

    <path fill="#0074A8" d="M110.475,196.481c0-0.632,0.201-1.15,0.604-1.552c0.402-0.402,0.938-0.604,1.609-0.604
					c0.67,0,1.207,0.201,1.609,0.604s0.604,0.92,0.604,1.552c0,0.623-0.199,1.14-0.597,1.552c-0.397,0.412-0.937,0.618-1.616,0.618
					c-0.681,0-1.22-0.206-1.617-0.618C110.674,197.621,110.475,197.104,110.475,196.481z M114.743,216.054h-4.081v-15.549h4.081
					V216.054z" />

    <path fill="#0074A8" d="M122.158,216.054h-4.081V193.98h4.081V216.054z" />

    <path fill="#0074A8" d="M125.635,213.984c0-0.651,0.218-1.188,0.654-1.609c0.436-0.422,1.003-0.632,1.703-0.632
					c0.68,0,1.245,0.208,1.695,0.625c0.45,0.417,0.676,0.956,0.676,1.617c0,0.671-0.228,1.209-0.683,1.617
					c-0.455,0.407-1.019,0.611-1.688,0.611c-0.681,0-1.243-0.206-1.688-0.618C125.858,215.182,125.635,214.646,125.635,213.984z" />

			</g>
		</g>
    <g>
    <g>
    <path fill="#404041" d="M79.498,242.098h-1.164v-8.823h1.164V242.098z" />

    <path fill="#404041" d="M88.157,242.098h-1.169l-4.442-6.799v6.799h-1.169v-8.823h1.169l4.454,6.83v-6.83h1.157V242.098z" />

    <path fill="#404041" d="M98.289,242.098h-5.781v-0.806l3.054-3.394c0.452-0.513,0.764-0.93,0.936-1.251
					c0.171-0.321,0.257-0.654,0.257-0.997c0-0.46-0.139-0.838-0.418-1.133c-0.278-0.295-0.65-0.442-1.115-0.442
					c-0.557,0-0.99,0.159-1.299,0.476c-0.309,0.317-0.463,0.758-0.463,1.324h-1.121c0-0.812,0.261-1.468,0.784-1.969
					c0.523-0.501,1.224-0.751,2.1-0.751c0.82,0,1.469,0.215,1.945,0.646s0.715,1.003,0.715,1.718c0,0.869-0.553,1.903-1.66,3.103
					l-2.363,2.563h4.43V242.098z" />

    <path fill="#404041" d="M104.761,238.335c0,1.313-0.224,2.289-0.672,2.927c-0.449,0.639-1.149,0.958-2.103,0.958
					c-0.941,0-1.638-0.312-2.09-0.936c-0.453-0.625-0.687-1.557-0.703-2.797v-1.497c0-1.297,0.224-2.26,0.672-2.891
					c0.449-0.63,1.151-0.945,2.109-0.945c0.949,0,1.648,0.304,2.097,0.912c0.448,0.608,0.679,1.546,0.69,2.814V238.335z
					 M103.64,236.802c0-0.949-0.133-1.641-0.399-2.075c-0.267-0.435-0.689-0.652-1.267-0.652c-0.574,0-0.992,0.216-1.254,0.648
					c-0.263,0.433-0.398,1.097-0.406,1.994v1.794c0,0.954,0.138,1.657,0.415,2.112c0.276,0.455,0.695,0.682,1.257,0.682
					c0.554,0,0.965-0.214,1.233-0.642s0.409-1.103,0.421-2.024V236.802z" />

    <path fill="#404041" d="M109.633,242.098h-1.127v-7.472l-2.26,0.83v-1.018l3.211-1.206h0.176V242.098z" />

    <path fill="#404041" d="M117.401,239.135h1.224v0.915h-1.224v2.048h-1.127v-2.048h-4.018v-0.661l3.951-6.114h1.193V239.135z
					 M113.529,239.135h2.745v-4.327l-0.133,0.242L113.529,239.135z" />

			</g>
		</g>
    <g>
    <g>
    <path fill="#404041" d="M210.43,242.101h-1.164v-8.823h1.164V242.101z" />

    <path fill="#404041" d="M219.089,242.101h-1.169l-4.442-6.799v6.799h-1.169v-8.823h1.169l4.454,6.83v-6.83h1.157V242.101z" />

    <path fill="#404041" d="M229.221,242.101h-5.781v-0.806l3.054-3.394c0.452-0.513,0.764-0.93,0.936-1.251
					c0.171-0.321,0.257-0.654,0.257-0.997c0-0.46-0.139-0.838-0.418-1.133c-0.278-0.295-0.65-0.442-1.115-0.442
					c-0.557,0-0.99,0.159-1.299,0.476c-0.309,0.317-0.463,0.758-0.463,1.324h-1.121c0-0.812,0.261-1.468,0.784-1.969
					c0.523-0.501,1.224-0.751,2.1-0.751c0.82,0,1.469,0.215,1.945,0.646s0.715,1.003,0.715,1.718c0,0.869-0.553,1.903-1.66,3.103
					l-2.363,2.563h4.43V242.101z" />

    <path fill="#404041" d="M235.692,238.338c0,1.313-0.224,2.289-0.672,2.927c-0.449,0.639-1.149,0.958-2.103,0.958
					c-0.941,0-1.638-0.312-2.09-0.936c-0.453-0.625-0.687-1.557-0.703-2.797v-1.497c0-1.297,0.224-2.26,0.672-2.891
					c0.449-0.63,1.151-0.945,2.109-0.945c0.949,0,1.648,0.304,2.097,0.912c0.448,0.608,0.679,1.546,0.69,2.814V238.338z
					 M234.571,236.805c0-0.949-0.133-1.641-0.399-2.075c-0.267-0.435-0.689-0.652-1.267-0.652c-0.574,0-0.992,0.216-1.254,0.648
					c-0.263,0.433-0.398,1.097-0.406,1.994v1.794c0,0.954,0.138,1.657,0.415,2.112c0.276,0.455,0.695,0.682,1.257,0.682
					c0.554,0,0.965-0.214,1.233-0.642s0.409-1.103,0.421-2.024V236.805z" />

    <path fill="#404041" d="M240.564,242.101h-1.127v-7.472l-2.26,0.83v-1.018l3.211-1.206h0.176V242.101z" />

    <path fill="#404041" d="M244.116,237.677l0.449-4.399h4.52v1.036h-3.569l-0.267,2.406c0.432-0.254,0.923-0.381,1.472-0.381
					c0.804,0,1.442,0.266,1.915,0.797s0.709,1.249,0.709,2.154c0,0.909-0.245,1.625-0.736,2.148
					c-0.491,0.523-1.177,0.785-2.057,0.785c-0.78,0-1.416-0.216-1.909-0.648c-0.493-0.432-0.773-1.03-0.842-1.793h1.061
					c0.068,0.505,0.248,0.886,0.539,1.142c0.291,0.257,0.675,0.385,1.151,0.385c0.521,0,0.93-0.178,1.227-0.533
					c0.297-0.355,0.446-0.846,0.446-1.473c0-0.59-0.161-1.063-0.482-1.421s-0.748-0.536-1.281-0.536
					c-0.489,0-0.873,0.107-1.151,0.321l-0.297,0.243L244.116,237.677z" />

			</g>
		</g>
		
    <line opacity="0.6" fill="none" stroke="#66ABCB" stroke-width="3" stroke-miterlimit="10" x1="66.364" y1="225.388" x2="126.489" y2="225.388" />

    <g>
    <g>
    <path fill="#0074A8" d="M185.072,211.188h-20.796v-4.848l9.55-12.144c1.212-1.681,2.105-3.155,2.678-4.424
					s0.86-2.484,0.86-3.648c0-1.567-0.271-2.795-0.812-3.685c-0.542-0.889-1.321-1.333-2.339-1.333c-1.115,0-2,0.517-2.654,1.551
					s-0.981,2.489-0.981,4.363h-6.884c0-2.166,0.448-4.145,1.345-5.939c0.897-1.793,2.157-3.188,3.781-4.181
					c1.624-0.994,3.462-1.491,5.515-1.491c3.15,0,5.595,0.869,7.332,2.605c1.736,1.737,2.605,4.206,2.605,7.405
					c0,1.988-0.481,4.004-1.442,6.048c-0.961,2.044-2.702,4.561-5.223,7.551l-4.533,6.472h11.998V211.188z" />

    <path fill="#0074A8" d="M187.656,207.697c0-1.099,0.367-2.003,1.103-2.714s1.692-1.067,2.872-1.067
					c1.147,0,2.101,0.352,2.86,1.055c0.759,0.703,1.139,1.612,1.139,2.727c0,1.131-0.384,2.041-1.151,2.727
					c-0.768,0.687-1.717,1.03-2.848,1.03c-1.147,0-2.097-0.347-2.848-1.042C188.032,209.718,187.656,208.813,187.656,207.697z" />

    <path fill="#0074A8" d="M199.571,193.833l1.745-17.937h17.088v5.866h-11.465l-0.63,7.563c1.325-0.889,2.69-1.333,4.096-1.333
					c2.909,0,5.151,1.035,6.726,3.103c1.575,2.069,2.363,4.994,2.363,8.775c0,3.539-0.938,6.391-2.812,8.557
					c-1.875,2.166-4.379,3.248-7.514,3.248c-1.858,0-3.58-0.44-5.163-1.321c-1.584-0.88-2.832-2.104-3.745-3.672
					c-0.913-1.567-1.377-3.345-1.394-5.333h6.787c0.113,1.471,0.477,2.61,1.091,3.418c0.614,0.808,1.405,1.212,2.375,1.212
					c1.131,0,2.003-0.545,2.618-1.636c0.613-1.091,0.921-2.719,0.921-4.884c0-2.036-0.368-3.571-1.103-4.605
					c-0.736-1.034-1.766-1.551-3.09-1.551c-1.293,0-2.295,0.445-3.006,1.333l-0.436,0.606L199.571,193.833z" />

    <path fill="#0074A8" d="M237.097,184.961l0.194,2.424c1.535-1.939,3.563-2.909,6.083-2.909c2.618,0,4.468,1.18,5.551,3.539
					c1.503-2.359,3.644-3.539,6.423-3.539c4.589,0,6.94,3.175,7.054,9.526v17.186h-6.859v-16.75c0-1.519-0.21-2.602-0.63-3.248
					c-0.42-0.646-1.131-0.97-2.133-0.97c-1.276,0-2.229,0.784-2.86,2.352l0.048,0.824v17.792h-6.859v-16.701
					c0-1.502-0.202-2.589-0.605-3.26c-0.404-0.67-1.124-1.006-2.157-1.006c-1.18,0-2.117,0.639-2.812,1.915v19.052h-6.859v-26.227
					H237.097z" />

    <path fill="#0074A8" d="M264.985,178.174c0-1.066,0.339-1.939,1.018-2.618s1.583-1.018,2.715-1.018
					c1.131,0,2.036,0.339,2.714,1.018s1.018,1.551,1.018,2.618c0,1.051-0.336,1.923-1.006,2.618
					c-0.671,0.695-1.58,1.042-2.727,1.042c-1.148,0-2.057-0.347-2.727-1.042C265.32,180.097,264.985,179.225,264.985,178.174z
					 M272.184,211.188H265.3v-26.227h6.884V211.188z" />

    <path fill="#0074A8" d="M282.208,211.188h-6.884v-37.232h6.884V211.188z" />

    <path fill="#0074A8" d="M285.592,207.697c0-1.099,0.368-2.003,1.103-2.714c0.735-0.711,1.693-1.067,2.873-1.067
					c1.147,0,2.1,0.352,2.86,1.055c0.759,0.703,1.139,1.612,1.139,2.727c0,1.131-0.384,2.041-1.151,2.727
					c-0.768,0.687-1.717,1.03-2.848,1.03c-1.147,0-2.097-0.347-2.848-1.042C285.968,209.718,285.592,208.813,285.592,207.697z" />

			</g>
		</g>
		
    <line opacity="0.6" fill="none" stroke="#66ABCB" stroke-width="3" stroke-miterlimit="10" x1="163.344" y1="225.056" x2="288.323" y2="225.056" />

	</g>
</g>
</svg>
