<?xml version="1.0" encoding="utf-8"?>
<!-- Generator: Adobe Illustrator 16.0.0, SVG Export Plug-In . SVG Version: 6.00 Build 0)  -->
<!DOCTYPE svg PUBLIC "-//W3C//DTD SVG 1.1//EN" "http://www.w3.org/Graphics/SVG/1.1/DTD/svg11.dtd">
<svg version="1.1" xmlns="http://www.w3.org/2000/svg" xmlns:xlink="http://www.w3.org/1999/xlink" x="0px" y="0px" width="360px"
	 height="360px" viewBox="0 0 360 360" enable-background="new 0 0 360 360" xml:space="preserve">
<g id="Layer_1">
	<g>
		<rect fill="#FABEA7" width="360" height="360"/>
	</g>
	<g>
		<g>
			<path fill="#EF353C" d="M155.082,66.375c0.001,0.023,0.004,0.048,0.004,0.078c-0.004-0.011-0.01-0.025-0.015-0.038
				C155.074,66.402,155.079,66.388,155.082,66.375"/>
		</g>
		<g id="phone">
			<g>
				<path fill="#EF4331" d="M156.27,36.007c0.054-0.022,0.108-0.045,0.164-0.059c0.06-0.021,0.118-0.034,0.177-0.041
					c0.949-0.099,1.89-0.197,2.838-0.294c1.971-0.205,3.943-0.41,5.915-0.613c0.106,0.136,0.211,0.279,0.318,0.413
					c0.594,0.31,1.234,0.587,1.612,1.141c0.564,0.833,1.238,1.65,1.716,2.533c0.446,0.818,0.749,1.749,1.114,2.606
					c0.28,0.659,0.662,1.333,0.84,2.03c0.431,1.712,1.005,3.427,1.183,5.188c0.182,1.848,0.406,3.669,0.406,5.519v3.454
					c0,0.745-0.238,1.527-0.367,2.263c-0.053,0.317-0.158,2.169-0.464,2.282c-0.894,0.328-1.786,0.65-2.675,0.974
					c-1.84,0.672-3.664,1.371-5.528,1.954c-0.105,0.031-0.205,0.069-0.301,0.117c-0.043,0.021-0.086,0.043-0.127,0.067
					c-0.048,0.028-0.096,0.052-0.144,0.082c-0.057,0.034-0.112,0.073-0.167,0.109c-0.024,0.018-0.05,0.036-0.078,0.056
					c-0.068,0.048-0.131,0.098-0.195,0.153l-6.24-29.931L156.27,36.007 M184.532,107.272c-0.265,0.177-0.528,0.355-0.792,0.533
					l15.084,25.566c0.081-0.009,0.17-0.015,0.26-0.027c0.006-0.001,0.012-0.001,0.019-0.001c0.046-0.007,0.09-0.019,0.137-0.03
					c0.014-0.004,0.027-0.007,0.039-0.01c0.051-0.018,0.102-0.039,0.143-0.07c1.676-1.304,3.355-2.603,5.031-3.902
					c0.386-0.3,0.634-0.71,0.925-1.105c0.76-1.026,1.524-2.047,2.285-3.075c0.528-0.71,1.057-1.42,1.585-2.133
					c0.192-0.26-0.342-1.694-0.406-1.995c-0.392-1.775-0.523-3.745-1.517-5.29c-0.564-0.886-1.132-1.771-1.698-2.657
					c-0.5-0.778-1.312-1.467-1.931-2.158c-1.204-1.345-2.567-2.521-3.907-3.74c-0.856-0.783-2.09-1.337-3.074-1.958
					c-1.021-0.649-1.921-1.06-3.059-1.498c-0.411-0.161-0.95-0.492-1.394-0.516c-0.359-0.02-0.718-0.042-1.079-0.061
					c-0.158-0.008-0.682-0.129-0.825-0.042c-0.483,0.318-0.971,0.63-1.458,0.941c-0.485,0.271-0.968,0.539-1.45,0.808
					c-0.697,0.39-1.339,0.998-1.964,1.573c-0.237-0.034-0.906,0.659-1.11,0.813C184.427,107.249,184.482,107.261,184.532,107.272
					 M148.255,85.783c1.753,3.966,3.506,7.927,5.262,11.894c0.598,1.357,1.552,2.635,2.309,3.908
					c1.112,1.884,2.226,3.764,3.344,5.646c0.531,0.892,1.186,1.726,1.782,2.582c1.466,2.115,2.938,4.231,4.405,6.34
					c1.487,2.143,2.908,4.298,4.524,6.322c0.346,0.535,0.717,1.058,1.157,1.468c0.141,0.135,0.287,0.273,0.43,0.408
					c1.378,1.55,2.757,3.101,4.136,4.649c1.089,1.222,2.446,2.269,3.649,3.378c0.865,0.797,2.771,2.554,2.842,2.621l13.778-0.157
					c0.025-0.002,0.053-0.005,0.076-0.006l-15.09-25.566c-0.072,0.048-0.146,0.097-0.218,0.146
					c-0.623-0.189-1.289-0.381-1.781-0.742c-0.872-0.636-1.744-1.273-2.616-1.91c-0.448-0.328-0.794-1.239-1.084-1.702
					c-0.944-1.499-2.042-2.973-2.852-4.551c-0.806-1.569-1.61-3.135-2.417-4.705c-3.698-7.196-7.335-14.417-10.956-21.657
					c-0.505-1.013-1.011-2.026-1.519-3.038c0.012-0.038,0.025-0.076,0.039-0.116c0.244-0.794,0.342-1.87,0.961-2.441
					c0.405-0.368,0.788-0.8,1.214-1.151L153.39,37.47c-0.409,0.184-0.806,0.56-1.133,0.779c-1.449,0.957-2.935,1.818-4.196,3.007
					c-0.937,0.881-1.865,1.767-2.801,2.651c-0.443,0.417-1.098,0.854-1.432,1.367c-1.156,1.784-2.313,3.567-3.469,5.354
					c-0.396,0.615-0.31,1.424-0.374,2.146c-0.047,0.494-0.153,0.974-0.047,1.461c0.922,4.319,1.842,8.638,2.761,12.952
					c0.628,2.941,1.179,5.837,2.118,8.692C145.899,79.199,146.842,82.584,148.255,85.783"/>
			</g>
		</g>
		<g id="sos">
			<g>
				<path fill="#EF4331" d="M188.36,74.872l-2.635,0.685c0-3.33-1.042-4.997-3.129-4.997c-1.279,0-1.92,0.78-1.92,2.342
					c0,1.153,1.101,2.391,3.304,3.716c3.376,2.051,5.067,4.654,5.067,7.809c0,5.029-2.152,7.544-6.451,7.544
					c-4.548,0-6.824-2.515-6.824-7.544l2.799-0.841c-0.038,0.488-0.056,0.945-0.056,1.373c0,1.295,0.362,2.426,1.094,3.386
					c0.728,0.957,1.589,1.435,2.582,1.435c1.311,0,1.97-0.827,1.97-2.476c0-1.108-1.06-2.331-3.176-3.672
					c-3.188-2.038-4.782-4.646-4.782-7.83c0-2.108,0.611-3.838,1.833-5.188c1.221-1.35,2.792-2.023,4.709-2.023
					C186.153,68.591,188.024,70.684,188.36,74.872 M197.94,70.536c1.211,0,1.818,3.238,1.818,9.71c0,6.475-0.606,9.709-1.818,9.709
					c-1.201,0-1.803-3.234-1.803-9.709C196.138,73.774,196.739,70.536,197.94,70.536 M197.955,68.564
					c-4.975,0-7.463,3.894-7.463,11.682c0,7.785,2.489,11.679,7.463,11.679c4.966,0,7.449-3.894,7.449-11.679
					C205.404,72.458,202.921,68.564,197.955,68.564 M219.424,74.872c-0.337-4.188-2.211-6.281-5.617-6.281
					c-1.917,0-3.485,0.673-4.705,2.023c-1.225,1.35-1.835,3.08-1.835,5.188c0,3.184,1.593,5.792,4.78,7.83
					c2.118,1.341,3.174,2.563,3.174,3.672c0,1.649-0.656,2.476-1.968,2.476c-0.991,0-1.853-0.478-2.58-1.435
					c-0.731-0.96-1.098-2.091-1.098-3.386c0-0.427,0.022-0.885,0.062-1.373l-2.804,0.841c0,5.029,2.278,7.544,6.827,7.544
					c4.298,0,6.448-2.515,6.448-7.544c0-3.155-1.686-5.758-5.064-7.809c-2.203-1.325-3.305-2.563-3.305-3.716
					c0-1.562,0.637-2.342,1.922-2.342c2.084,0,3.127,1.667,3.127,4.997L219.424,74.872"/>
			</g>
		</g>
	</g>
</g>
<g id="Layer_2">
	<g>
		<path fill="#F4777C" d="M116.111,333.679h0.082l6.357-16.174h3.35v19.906h-2.693v-14.916l-0.082-0.014l-6.029,14.93h-1.873
			l-6.207-15.422l-0.082,0.014v15.408h-2.693v-19.906h3.541L116.111,333.679z"/>
		<path fill="#F4777C" d="M129.564,329.878c0-2.188,0.592-3.99,1.777-5.407c1.185-1.417,2.793-2.126,4.826-2.126
			c2.051,0,3.671,0.707,4.86,2.119c1.189,1.413,1.784,3.218,1.784,5.414v0.301c0,2.206-0.593,4.011-1.777,5.414
			c-1.185,1.404-2.798,2.105-4.84,2.105c-2.042,0-3.657-0.704-4.847-2.112s-1.784-3.21-1.784-5.407V329.878z M132.258,330.179
			c0,1.568,0.33,2.862,0.991,3.883c0.661,1.021,1.643,1.531,2.946,1.531c1.285,0,2.26-0.51,2.926-1.531
			c0.665-1.021,0.998-2.315,0.998-3.883v-0.301c0-1.549-0.335-2.839-1.005-3.869c-0.67-1.03-1.652-1.545-2.946-1.545
			c-1.285,0-2.258,0.515-2.919,1.545c-0.661,1.03-0.991,2.32-0.991,3.869V330.179z"/>
		<path fill="#F4777C" d="M148.514,322.619l0.191,2.201c0.492-0.784,1.109-1.392,1.853-1.825c0.743-0.433,1.588-0.649,2.536-0.649
			c1.595,0,2.83,0.467,3.705,1.401c0.875,0.935,1.313,2.377,1.313,4.327v9.338h-2.693v-9.283c0-1.303-0.258-2.229-0.772-2.775
			c-0.515-0.547-1.301-0.82-2.358-0.82c-0.83,0-1.534,0.167-2.112,0.499c-0.579,0.333-1.037,0.8-1.374,1.401v10.979h-2.693v-14.793
			H148.514z"/>
		<path fill="#F4777C" d="M165.768,319.05v3.568h2.803v1.996h-2.803v8.982c0,0.693,0.144,1.181,0.431,1.463
			c0.287,0.283,0.667,0.424,1.142,0.424c0.155,0,0.328-0.021,0.52-0.062s0.351-0.084,0.479-0.13l0.369,1.846
			c-0.201,0.164-0.497,0.298-0.889,0.403c-0.392,0.104-0.779,0.157-1.162,0.157c-1.094,0-1.964-0.33-2.611-0.991
			c-0.647-0.661-0.971-1.697-0.971-3.11v-8.982h-2.352v-1.996h2.352v-3.568H165.768z"/>
		<path fill="#F4777C" d="M177.58,337.699c-2.124,0-3.78-0.679-4.97-2.037c-1.189-1.358-1.784-3.145-1.784-5.359v-0.602
			c0-2.124,0.613-3.88,1.839-5.271c1.226-1.39,2.723-2.085,4.491-2.085c1.978,0,3.461,0.615,4.45,1.846
			c0.989,1.23,1.483,2.867,1.483,4.908v1.422h-9.461l-0.041,0.068c0,1.486,0.328,2.691,0.984,3.616
			c0.656,0.925,1.659,1.388,3.008,1.388c0.911,0,1.711-0.13,2.399-0.39c0.688-0.26,1.278-0.617,1.771-1.073l1.053,1.75
			c-0.529,0.511-1.226,0.941-2.092,1.292C179.845,337.523,178.801,337.699,177.58,337.699z M177.156,324.464
			c-0.939,0-1.716,0.362-2.331,1.087s-0.991,1.652-1.128,2.782l0.027,0.068h6.672v-0.219c0-1.075-0.265-1.964-0.793-2.666
			C179.075,324.815,178.259,324.464,177.156,324.464z"/>
		<path fill="#F4777C" d="M188.518,322.619l0.191,2.201c0.492-0.784,1.109-1.392,1.853-1.825c0.743-0.433,1.588-0.649,2.536-0.649
			c1.595,0,2.83,0.467,3.705,1.401c0.875,0.935,1.313,2.377,1.313,4.327v9.338h-2.693v-9.283c0-1.303-0.258-2.229-0.772-2.775
			c-0.515-0.547-1.301-0.82-2.358-0.82c-0.83,0-1.534,0.167-2.112,0.499c-0.579,0.333-1.037,0.8-1.374,1.401v10.979h-2.693v-14.793
			H188.518z"/>
		<path fill="#F4777C" d="M208.15,337.699c-2.124,0-3.78-0.679-4.97-2.037c-1.189-1.358-1.784-3.145-1.784-5.359v-0.602
			c0-2.124,0.613-3.88,1.839-5.271c1.226-1.39,2.723-2.085,4.491-2.085c1.978,0,3.461,0.615,4.45,1.846
			c0.989,1.23,1.483,2.867,1.483,4.908v1.422h-9.461l-0.041,0.068c0,1.486,0.328,2.691,0.984,3.616
			c0.656,0.925,1.659,1.388,3.008,1.388c0.911,0,1.711-0.13,2.399-0.39c0.688-0.26,1.278-0.617,1.771-1.073l1.053,1.75
			c-0.529,0.511-1.226,0.941-2.092,1.292C210.415,337.523,209.372,337.699,208.15,337.699z M207.727,324.464
			c-0.939,0-1.716,0.362-2.331,1.087s-0.991,1.652-1.128,2.782l0.027,0.068h6.672v-0.219c0-1.075-0.265-1.964-0.793-2.666
			C209.645,324.815,208.829,324.464,207.727,324.464z"/>
		<path fill="#F4777C" d="M216.203,330.289c0-2.379,0.508-4.297,1.524-5.756c1.016-1.458,2.436-2.188,4.259-2.188
			c0.938,0,1.764,0.189,2.475,0.567c0.711,0.378,1.308,0.923,1.791,1.634l0.328-1.928h2.146v14.875c0,1.896-0.552,3.352-1.654,4.368
			c-1.103,1.016-2.693,1.524-4.771,1.524c-0.711,0-1.479-0.098-2.304-0.294c-0.825-0.196-1.552-0.463-2.181-0.8l0.41-2.092
			c0.52,0.273,1.146,0.494,1.88,0.663c0.733,0.168,1.456,0.253,2.167,0.253c1.313,0,2.267-0.299,2.864-0.896
			c0.597-0.597,0.896-1.506,0.896-2.728v-1.682c-0.483,0.62-1.062,1.089-1.736,1.408c-0.675,0.319-1.454,0.479-2.338,0.479
			c-1.805,0-3.215-0.654-4.231-1.962c-1.017-1.308-1.524-3.028-1.524-5.161V330.289z M218.896,330.576
			c0,1.486,0.305,2.68,0.916,3.582c0.61,0.902,1.554,1.354,2.83,1.354c0.811,0,1.49-0.185,2.037-0.554s0.998-0.891,1.354-1.565
			v-6.809c-0.347-0.629-0.798-1.128-1.354-1.497c-0.556-0.369-1.226-0.554-2.01-0.554c-1.285,0-2.235,0.533-2.851,1.6
			s-0.923,2.452-0.923,4.156V330.576z"/>
		<path fill="#F4777C" d="M239.596,324.998l-1.381-0.082c-0.711,0-1.311,0.169-1.798,0.506c-0.488,0.337-0.864,0.812-1.128,1.422
			v10.568h-2.693v-14.793h2.406l0.26,2.16c0.419-0.766,0.937-1.362,1.552-1.791c0.615-0.428,1.324-0.643,2.126-0.643
			c0.2,0,0.392,0.016,0.574,0.048c0.182,0.032,0.333,0.066,0.451,0.103L239.596,324.998z"/>
		<path fill="#F4777C" d="M241.496,329.878c0-2.188,0.592-3.99,1.777-5.407c1.185-1.417,2.793-2.126,4.826-2.126
			c2.051,0,3.671,0.707,4.86,2.119c1.189,1.413,1.784,3.218,1.784,5.414v0.301c0,2.206-0.593,4.011-1.777,5.414
			c-1.185,1.404-2.798,2.105-4.84,2.105c-2.042,0-3.657-0.704-4.847-2.112s-1.784-3.21-1.784-5.407V329.878z M244.189,330.179
			c0,1.568,0.33,2.862,0.991,3.883c0.661,1.021,1.643,1.531,2.946,1.531c1.285,0,2.26-0.51,2.926-1.531
			c0.665-1.021,0.998-2.315,0.998-3.883v-0.301c0-1.549-0.335-2.839-1.005-3.869c-0.67-1.03-1.652-1.545-2.946-1.545
			c-1.285,0-2.258,0.515-2.919,1.545c-0.661,1.03-0.991,2.32-0.991,3.869V330.179z"/>
	</g>
	<g>
		<path fill="#555658" d="M94.458,277.214v5.238h-1.635v-12.078h4.134c1.323,0,2.333,0.294,3.03,0.881
			c0.697,0.586,1.046,1.438,1.046,2.557c0,0.619-0.162,1.159-0.486,1.618c-0.323,0.459-0.795,0.824-1.415,1.096
			c0.664,0.216,1.142,0.565,1.432,1.05c0.291,0.484,0.436,1.084,0.436,1.797v1.138c0,0.376,0.042,0.714,0.125,1.013
			s0.227,0.542,0.432,0.73v0.199h-1.685c-0.216-0.188-0.354-0.465-0.415-0.83s-0.091-0.741-0.091-1.129v-1.104
			c0-0.653-0.191-1.18-0.573-1.578s-0.894-0.598-1.536-0.598H94.458z M94.458,275.928h2.333c0.924,0,1.59-0.176,1.996-0.527
			c0.407-0.352,0.61-0.887,0.61-1.606c0-0.68-0.198-1.207-0.594-1.581c-0.396-0.373-1.011-0.56-1.847-0.56h-2.499V275.928z"/>
		<path fill="#555658" d="M106.284,282.626c-1.29,0-2.295-0.412-3.017-1.236c-0.723-0.824-1.083-1.909-1.083-3.254v-0.365
			c0-1.289,0.372-2.356,1.117-3.2c0.744-0.844,1.653-1.266,2.727-1.266c1.201,0,2.102,0.374,2.702,1.12
			c0.6,0.748,0.9,1.741,0.9,2.98v0.863h-5.744l-0.025,0.041c0,0.902,0.199,1.635,0.598,2.196s1.007,0.843,1.826,0.843
			c0.553,0,1.039-0.079,1.457-0.237c0.418-0.157,0.776-0.375,1.075-0.651l0.639,1.063c-0.321,0.31-0.744,0.571-1.27,0.784
			S107.025,282.626,106.284,282.626z M106.026,274.591c-0.57,0-1.042,0.221-1.415,0.66c-0.374,0.44-0.602,1.003-0.685,1.689
			l0.017,0.041h4.051v-0.133c0-0.652-0.161-1.192-0.481-1.618S106.696,274.591,106.026,274.591z"/>
		<path fill="#555658" d="M118.267,278.302c0,1.295-0.31,2.34-0.93,3.134s-1.475,1.19-2.565,1.19c-0.553,0-1.039-0.092-1.457-0.277
			c-0.417-0.186-0.773-0.464-1.066-0.834v4.391h-1.635v-12.435h1.253l0.257,1.162c0.293-0.432,0.659-0.761,1.096-0.987
			c0.437-0.228,0.946-0.341,1.527-0.341c1.112,0,1.977,0.441,2.594,1.324c0.617,0.883,0.925,2.049,0.925,3.499V278.302z
			 M116.631,278.128c0-1.019-0.201-1.855-0.602-2.512c-0.401-0.655-0.992-0.983-1.772-0.983c-0.47,0-0.872,0.106-1.204,0.319
			s-0.601,0.505-0.805,0.876v4.341c0.205,0.371,0.473,0.66,0.805,0.868c0.332,0.207,0.739,0.312,1.22,0.312
			c0.775,0,1.361-0.284,1.76-0.852s0.598-1.299,0.598-2.195V278.128z"/>
		<path fill="#555658" d="M119.044,277.878c0-1.328,0.36-2.422,1.079-3.282s1.696-1.291,2.93-1.291c1.245,0,2.229,0.429,2.951,1.286
			c0.722,0.858,1.083,1.954,1.083,3.287v0.184c0,1.339-0.36,2.435-1.079,3.287c-0.719,0.852-1.699,1.277-2.938,1.277
			s-2.221-0.427-2.942-1.282c-0.723-0.854-1.083-1.949-1.083-3.282V277.878z M120.679,278.062c0,0.951,0.201,1.737,0.602,2.357
			c0.401,0.619,0.998,0.93,1.789,0.93c0.78,0,1.373-0.311,1.776-0.93c0.404-0.62,0.606-1.406,0.606-2.357v-0.184
			c0-0.94-0.204-1.724-0.61-2.349c-0.407-0.625-1.003-0.938-1.789-0.938c-0.78,0-1.371,0.313-1.772,0.938
			c-0.401,0.625-0.602,1.408-0.602,2.349V278.062z"/>
		<path fill="#555658" d="M132.488,274.915l-0.838-0.05c-0.432,0-0.795,0.103-1.092,0.308c-0.296,0.204-0.524,0.492-0.685,0.863
			v6.416h-1.635v-8.981h1.461l0.158,1.312c0.254-0.465,0.568-0.827,0.942-1.088c0.373-0.26,0.804-0.39,1.291-0.39
			c0.122,0,0.238,0.01,0.349,0.029s0.202,0.04,0.274,0.062L132.488,274.915z"/>
		<path fill="#555658" d="M135.755,271.304v2.167h1.702v1.212h-1.702v5.453c0,0.421,0.087,0.717,0.261,0.889
			c0.175,0.172,0.406,0.258,0.693,0.258c0.094,0,0.199-0.013,0.315-0.038c0.116-0.024,0.213-0.051,0.291-0.079l0.224,1.121
			c-0.122,0.1-0.302,0.182-0.54,0.245s-0.473,0.095-0.706,0.095c-0.664,0-1.192-0.2-1.585-0.602s-0.589-1.03-0.589-1.889v-5.453
			h-1.428v-1.212h1.428v-2.167H135.755z"/>
		<path fill="#555658" d="M140.126,271.171h-1.635v-1.668h1.635V271.171z M140.126,282.452h-1.635v-8.981h1.635V282.452z"/>
		<path fill="#555658" d="M143.252,273.471l0.116,1.337c0.299-0.477,0.674-0.846,1.125-1.108c0.451-0.263,0.964-0.395,1.54-0.395
			c0.968,0,1.718,0.283,2.25,0.851s0.797,1.443,0.797,2.627v5.67h-1.635v-5.637c0-0.791-0.156-1.353-0.469-1.685
			c-0.313-0.332-0.79-0.498-1.432-0.498c-0.503,0-0.931,0.101-1.283,0.303c-0.351,0.202-0.629,0.485-0.834,0.851v6.666h-1.635
			v-8.981H143.252z"/>
		<path fill="#555658" d="M150.313,278.128c0-1.445,0.309-2.609,0.926-3.495c0.617-0.886,1.479-1.328,2.585-1.328
			c0.57,0,1.071,0.115,1.502,0.345s0.794,0.561,1.087,0.992l0.199-1.171h1.303v9.031c0,1.151-0.335,2.035-1.004,2.652
			s-1.635,0.925-2.897,0.925c-0.432,0-0.898-0.059-1.398-0.178c-0.501-0.119-0.942-0.281-1.324-0.486l0.249-1.27
			c0.315,0.166,0.696,0.3,1.142,0.402c0.445,0.103,0.884,0.154,1.315,0.154c0.797,0,1.376-0.182,1.739-0.544
			c0.362-0.362,0.543-0.915,0.543-1.656v-1.021c-0.293,0.376-0.645,0.661-1.054,0.854s-0.883,0.29-1.419,0.29
			c-1.096,0-1.952-0.396-2.569-1.19c-0.617-0.794-0.926-1.839-0.926-3.134V278.128z M151.948,278.302
			c0,0.902,0.186,1.627,0.556,2.175s0.943,0.821,1.718,0.821c0.493,0,0.905-0.111,1.237-0.336c0.332-0.224,0.606-0.541,0.822-0.95
			v-4.134c-0.21-0.382-0.484-0.685-0.822-0.909c-0.337-0.224-0.744-0.336-1.22-0.336c-0.78,0-1.357,0.323-1.731,0.972
			c-0.373,0.646-0.56,1.488-0.56,2.523V278.302z"/>
		<path fill="#555658" d="M168.311,282.452c-0.055-0.271-0.098-0.511-0.129-0.718c-0.03-0.208-0.048-0.417-0.054-0.627
			c-0.304,0.432-0.701,0.793-1.191,1.083c-0.489,0.291-1.017,0.436-1.581,0.436c-0.935,0-1.647-0.239-2.138-0.718
			c-0.489-0.479-0.734-1.139-0.734-1.979c0-0.857,0.347-1.528,1.042-2.013c0.694-0.484,1.636-0.727,2.826-0.727h1.776v-0.888
			c0-0.526-0.161-0.942-0.481-1.25c-0.321-0.307-0.775-0.461-1.361-0.461c-0.531,0-0.96,0.133-1.287,0.398s-0.49,0.584-0.49,0.955
			l-1.552,0.017l-0.017-0.05c-0.039-0.653,0.267-1.251,0.917-1.793c0.65-0.542,1.49-0.813,2.519-0.813
			c1.018,0,1.837,0.259,2.457,0.776s0.93,1.263,0.93,2.236v4.325c0,0.321,0.017,0.631,0.05,0.93s0.094,0.592,0.183,0.88H168.311z
			 M165.596,281.257c0.592,0,1.126-0.152,1.602-0.457c0.476-0.304,0.786-0.652,0.93-1.045v-1.461h-1.834
			c-0.659,0-1.186,0.166-1.582,0.498c-0.396,0.332-0.593,0.722-0.593,1.17c0,0.398,0.125,0.714,0.374,0.946
			S165.109,281.257,165.596,281.257z"/>
		<path fill="#555658" d="M172.748,273.471l0.116,1.337c0.299-0.477,0.674-0.846,1.125-1.108c0.451-0.263,0.964-0.395,1.54-0.395
			c0.968,0,1.718,0.283,2.25,0.851s0.797,1.443,0.797,2.627v5.67h-1.635v-5.637c0-0.791-0.156-1.353-0.469-1.685
			c-0.313-0.332-0.79-0.498-1.432-0.498c-0.503,0-0.931,0.101-1.283,0.303c-0.351,0.202-0.629,0.485-0.834,0.851v6.666h-1.635
			v-8.981H172.748z"/>
		<path fill="#555658" d="M179.726,278.128c0-1.445,0.309-2.609,0.926-3.495c0.617-0.886,1.481-1.328,2.594-1.328
			c0.526,0,0.992,0.097,1.398,0.29c0.407,0.194,0.754,0.477,1.042,0.848v-4.939h1.635v12.949h-1.253l-0.249-1.137
			c-0.293,0.432-0.656,0.758-1.087,0.979c-0.432,0.222-0.933,0.332-1.502,0.332c-1.096,0-1.954-0.396-2.573-1.19
			s-0.93-1.839-0.93-3.134V278.128z M181.361,278.302c0,0.907,0.186,1.634,0.556,2.179s0.946,0.817,1.727,0.817
			c0.487,0,0.896-0.11,1.229-0.332c0.332-0.221,0.603-0.531,0.813-0.93v-4.191c-0.21-0.371-0.483-0.665-0.817-0.884
			c-0.335-0.219-0.738-0.328-1.208-0.328c-0.786,0-1.365,0.323-1.739,0.972c-0.373,0.646-0.56,1.488-0.56,2.523V278.302z"/>
		<path fill="#555658" d="M195.856,281.349c0.503,0,0.943-0.168,1.32-0.503s0.564-0.745,0.564-1.232h1.478l0.025,0.05
			c0.022,0.774-0.31,1.462-0.996,2.063s-1.483,0.9-2.391,0.9c-1.262,0-2.236-0.429-2.922-1.286s-1.029-1.926-1.029-3.204v-0.349
			c0-1.268,0.344-2.331,1.034-3.191c0.688-0.86,1.661-1.291,2.917-1.291c1.001,0,1.822,0.31,2.461,0.93
			c0.639,0.62,0.947,1.381,0.925,2.282l-0.017,0.051h-1.486c0-0.549-0.179-1.015-0.535-1.399c-0.357-0.385-0.807-0.577-1.349-0.577
			c-0.802,0-1.388,0.312-1.755,0.935c-0.368,0.622-0.552,1.376-0.552,2.262v0.349c0,0.902,0.181,1.663,0.543,2.283
			C194.455,281.038,195.042,281.349,195.856,281.349z"/>
		<path fill="#555658" d="M199.953,277.878c0-1.328,0.36-2.422,1.079-3.282s1.696-1.291,2.93-1.291c1.245,0,2.229,0.429,2.951,1.286
			c0.722,0.858,1.083,1.954,1.083,3.287v0.184c0,1.339-0.36,2.435-1.079,3.287c-0.719,0.852-1.699,1.277-2.938,1.277
			s-2.221-0.427-2.942-1.282c-0.723-0.854-1.083-1.949-1.083-3.282V277.878z M201.588,278.062c0,0.951,0.201,1.737,0.602,2.357
			c0.401,0.619,0.998,0.93,1.789,0.93c0.78,0,1.373-0.311,1.776-0.93c0.404-0.62,0.606-1.406,0.606-2.357v-0.184
			c0-0.94-0.204-1.724-0.61-2.349c-0.407-0.625-1.003-0.938-1.789-0.938c-0.78,0-1.371,0.313-1.772,0.938
			c-0.401,0.625-0.602,1.408-0.602,2.349V278.062z"/>
		<path fill="#555658" d="M210.608,273.471l0.116,1.179c0.293-0.426,0.666-0.757,1.117-0.992c0.451-0.235,0.975-0.353,1.573-0.353
			s1.111,0.139,1.54,0.415c0.429,0.276,0.751,0.691,0.967,1.245c0.288-0.515,0.663-0.92,1.125-1.216
			c0.462-0.296,1.003-0.444,1.623-0.444c0.913,0,1.635,0.314,2.167,0.942s0.797,1.572,0.797,2.834v5.371h-1.635v-5.387
			c0-0.886-0.152-1.513-0.457-1.881s-0.758-0.552-1.361-0.552c-0.559,0-1.011,0.193-1.357,0.581
			c-0.346,0.388-0.549,0.877-0.61,1.469v0.066v5.703h-1.644v-5.387c0-0.842-0.156-1.457-0.469-1.848
			c-0.313-0.39-0.763-0.585-1.349-0.585c-0.498,0-0.908,0.103-1.229,0.308c-0.321,0.204-0.567,0.492-0.739,0.863v6.648h-1.635
			v-8.981H210.608z"/>
		<path fill="#555658" d="M230.825,278.302c0,1.295-0.311,2.34-0.934,3.134c-0.622,0.794-1.479,1.19-2.569,1.19
			c-0.598,0-1.117-0.117-1.556-0.353c-0.44-0.235-0.804-0.582-1.092-1.042l-0.266,1.221h-1.253v-12.949h1.635v5.03
			c0.282-0.398,0.632-0.703,1.05-0.913c0.418-0.21,0.906-0.315,1.465-0.315c1.107,0,1.97,0.442,2.59,1.328s0.93,2.05,0.93,3.495
			V278.302z M229.19,278.128c0-1.029-0.189-1.869-0.568-2.52c-0.379-0.65-0.956-0.976-1.731-0.976c-0.503,0-0.928,0.123-1.274,0.369
			c-0.346,0.246-0.622,0.577-0.826,0.992v3.894c0.21,0.442,0.485,0.788,0.826,1.037c0.34,0.249,0.771,0.373,1.291,0.373
			c0.769,0,1.342-0.273,1.718-0.821s0.564-1.272,0.564-2.175V278.128z"/>
		<path fill="#555658" d="M237.488,282.452c-0.055-0.271-0.098-0.511-0.129-0.718c-0.03-0.208-0.048-0.417-0.054-0.627
			c-0.304,0.432-0.701,0.793-1.191,1.083c-0.489,0.291-1.017,0.436-1.581,0.436c-0.935,0-1.647-0.239-2.138-0.718
			c-0.489-0.479-0.734-1.139-0.734-1.979c0-0.857,0.347-1.528,1.042-2.013c0.694-0.484,1.636-0.727,2.826-0.727h1.776v-0.888
			c0-0.526-0.161-0.942-0.481-1.25c-0.321-0.307-0.775-0.461-1.361-0.461c-0.531,0-0.96,0.133-1.287,0.398s-0.49,0.584-0.49,0.955
			l-1.552,0.017l-0.017-0.05c-0.039-0.653,0.267-1.251,0.917-1.793c0.65-0.542,1.49-0.813,2.519-0.813
			c1.018,0,1.837,0.259,2.457,0.776s0.93,1.263,0.93,2.236v4.325c0,0.321,0.017,0.631,0.05,0.93s0.094,0.592,0.183,0.88H237.488z
			 M234.773,281.257c0.592,0,1.126-0.152,1.602-0.457c0.476-0.304,0.786-0.652,0.93-1.045v-1.461h-1.834
			c-0.659,0-1.186,0.166-1.582,0.498c-0.396,0.332-0.593,0.722-0.593,1.17c0,0.398,0.125,0.714,0.374,0.946
			S234.287,281.257,234.773,281.257z"/>
		<path fill="#555658" d="M242.739,271.304v2.167h1.702v1.212h-1.702v5.453c0,0.421,0.087,0.717,0.261,0.889
			c0.175,0.172,0.406,0.258,0.693,0.258c0.094,0,0.199-0.013,0.315-0.038c0.116-0.024,0.213-0.051,0.291-0.079l0.224,1.121
			c-0.122,0.1-0.302,0.182-0.54,0.245s-0.473,0.095-0.706,0.095c-0.664,0-1.192-0.2-1.585-0.602s-0.589-1.03-0.589-1.889v-5.453
			h-1.428v-1.212h1.428v-2.167H242.739z"/>
		<path fill="#555658" d="M247.11,271.171h-1.635v-1.668h1.635V271.171z M247.11,282.452h-1.635v-8.981h1.635V282.452z"/>
		<path fill="#555658" d="M250.236,273.471l0.116,1.337c0.299-0.477,0.674-0.846,1.125-1.108c0.451-0.263,0.964-0.395,1.54-0.395
			c0.968,0,1.718,0.283,2.25,0.851s0.797,1.443,0.797,2.627v5.67h-1.635v-5.637c0-0.791-0.156-1.353-0.469-1.685
			c-0.313-0.332-0.79-0.498-1.432-0.498c-0.503,0-0.931,0.101-1.283,0.303c-0.351,0.202-0.629,0.485-0.834,0.851v6.666h-1.635
			v-8.981H250.236z"/>
		<path fill="#555658" d="M257.296,278.128c0-1.445,0.309-2.609,0.926-3.495c0.617-0.886,1.479-1.328,2.585-1.328
			c0.57,0,1.071,0.115,1.502,0.345s0.794,0.561,1.087,0.992l0.199-1.171h1.303v9.031c0,1.151-0.335,2.035-1.004,2.652
			s-1.635,0.925-2.897,0.925c-0.432,0-0.898-0.059-1.398-0.178c-0.501-0.119-0.942-0.281-1.324-0.486l0.249-1.27
			c0.315,0.166,0.696,0.3,1.142,0.402c0.445,0.103,0.884,0.154,1.315,0.154c0.797,0,1.376-0.182,1.739-0.544
			c0.362-0.362,0.543-0.915,0.543-1.656v-1.021c-0.293,0.376-0.645,0.661-1.054,0.854s-0.883,0.29-1.419,0.29
			c-1.096,0-1.952-0.396-2.569-1.19c-0.617-0.794-0.926-1.839-0.926-3.134V278.128z M258.932,278.302
			c0,0.902,0.186,1.627,0.556,2.175s0.943,0.821,1.718,0.821c0.493,0,0.905-0.111,1.237-0.336c0.332-0.224,0.606-0.541,0.822-0.95
			v-4.134c-0.21-0.382-0.484-0.685-0.822-0.909c-0.337-0.224-0.744-0.336-1.22-0.336c-0.78,0-1.357,0.323-1.731,0.972
			c-0.373,0.646-0.56,1.488-0.56,2.523V278.302z"/>
		<path fill="#555658" d="M118.917,298.528c0-1.445,0.309-2.609,0.926-3.495c0.617-0.886,1.481-1.328,2.594-1.328
			c0.526,0,0.992,0.097,1.398,0.29c0.407,0.194,0.754,0.477,1.042,0.848v-4.939h1.635v12.949h-1.253l-0.249-1.137
			c-0.293,0.432-0.656,0.758-1.087,0.979c-0.432,0.222-0.933,0.332-1.502,0.332c-1.096,0-1.954-0.396-2.573-1.19
			s-0.93-1.839-0.93-3.134V298.528z M120.553,298.702c0,0.907,0.186,1.634,0.556,2.179s0.946,0.817,1.727,0.817
			c0.487,0,0.896-0.11,1.229-0.332c0.332-0.221,0.603-0.531,0.813-0.93v-4.191c-0.21-0.371-0.483-0.665-0.817-0.884
			c-0.335-0.219-0.738-0.328-1.208-0.328c-0.786,0-1.365,0.323-1.739,0.972c-0.373,0.646-0.56,1.488-0.56,2.523V298.702z"/>
		<path fill="#555658" d="M127.721,298.278c0-1.328,0.36-2.422,1.079-3.282s1.696-1.291,2.93-1.291c1.245,0,2.229,0.429,2.951,1.286
			c0.722,0.858,1.083,1.954,1.083,3.287v0.184c0,1.339-0.36,2.435-1.079,3.287c-0.719,0.852-1.699,1.277-2.938,1.277
			s-2.221-0.427-2.942-1.282c-0.723-0.854-1.083-1.949-1.083-3.282V298.278z M129.356,298.462c0,0.951,0.201,1.737,0.602,2.357
			c0.401,0.619,0.998,0.93,1.789,0.93c0.78,0,1.373-0.311,1.776-0.93c0.404-0.62,0.606-1.406,0.606-2.357v-0.184
			c0-0.94-0.204-1.724-0.61-2.349c-0.407-0.625-1.003-0.938-1.789-0.938c-0.78,0-1.371,0.313-1.772,0.938
			c-0.401,0.625-0.602,1.408-0.602,2.349V298.462z"/>
		<path fill="#555658" d="M138.376,293.871l0.116,1.179c0.293-0.426,0.666-0.757,1.117-0.992c0.451-0.235,0.975-0.353,1.573-0.353
			s1.111,0.139,1.54,0.415c0.429,0.276,0.751,0.691,0.967,1.245c0.288-0.515,0.663-0.92,1.125-1.216
			c0.462-0.296,1.003-0.444,1.623-0.444c0.913,0,1.635,0.314,2.167,0.942s0.797,1.572,0.797,2.834v5.371h-1.635v-5.387
			c0-0.886-0.152-1.513-0.457-1.881s-0.758-0.552-1.361-0.552c-0.559,0-1.011,0.193-1.357,0.581
			c-0.346,0.388-0.549,0.877-0.61,1.469v0.066v5.703h-1.644v-5.387c0-0.842-0.156-1.457-0.469-1.848
			c-0.313-0.39-0.763-0.585-1.349-0.585c-0.498,0-0.908,0.103-1.229,0.308c-0.321,0.204-0.567,0.492-0.739,0.863v6.648h-1.635
			v-8.981H138.376z"/>
		<path fill="#555658" d="M154.643,303.026c-1.29,0-2.295-0.412-3.017-1.236c-0.723-0.824-1.083-1.909-1.083-3.254v-0.365
			c0-1.289,0.372-2.356,1.117-3.2c0.744-0.844,1.653-1.266,2.727-1.266c1.201,0,2.102,0.374,2.702,1.12
			c0.6,0.748,0.9,1.741,0.9,2.98v0.863h-5.744l-0.025,0.041c0,0.902,0.199,1.635,0.598,2.196s1.007,0.843,1.826,0.843
			c0.553,0,1.039-0.079,1.457-0.237c0.418-0.157,0.776-0.375,1.075-0.651l0.639,1.063c-0.321,0.31-0.744,0.571-1.27,0.784
			S155.384,303.026,154.643,303.026z M154.385,294.991c-0.57,0-1.042,0.221-1.415,0.66c-0.374,0.44-0.602,1.003-0.685,1.689
			l0.017,0.041h4.051v-0.133c0-0.652-0.161-1.192-0.481-1.618S155.055,294.991,154.385,294.991z"/>
		<path fill="#555658" d="M164.193,300.437c0-0.359-0.137-0.652-0.411-0.879c-0.273-0.228-0.792-0.427-1.556-0.598
			c-1.057-0.228-1.869-0.546-2.436-0.955c-0.567-0.409-0.851-0.957-0.851-1.644c0-0.73,0.311-1.355,0.934-1.876
			c0.622-0.521,1.429-0.78,2.419-0.78c1.018,0,1.843,0.276,2.474,0.83s0.933,1.198,0.905,1.935l-0.017,0.049h-1.561
			c0-0.387-0.17-0.738-0.511-1.054c-0.34-0.315-0.771-0.474-1.291-0.474c-0.576,0-1.006,0.131-1.291,0.391
			c-0.285,0.26-0.428,0.57-0.428,0.93c0,0.354,0.123,0.628,0.369,0.822c0.247,0.193,0.754,0.37,1.523,0.531
			c1.101,0.232,1.937,0.562,2.507,0.987s0.855,0.982,0.855,1.669c0,0.797-0.322,1.446-0.967,1.95
			c-0.645,0.504-1.487,0.755-2.527,0.755c-1.146,0-2.047-0.29-2.706-0.871s-0.971-1.259-0.938-2.033l0.017-0.051h1.561
			c0.028,0.582,0.244,1.006,0.647,1.274s0.877,0.403,1.419,0.403c0.581,0,1.036-0.124,1.365-0.37
			C164.029,301.133,164.193,300.819,164.193,300.437z"/>
		<path fill="#555658" d="M169.287,291.704v2.167h1.702v1.212h-1.702v5.453c0,0.421,0.087,0.717,0.261,0.889
			c0.175,0.172,0.406,0.258,0.693,0.258c0.094,0,0.199-0.013,0.315-0.038c0.116-0.024,0.213-0.051,0.291-0.079l0.224,1.121
			c-0.122,0.1-0.302,0.182-0.54,0.245s-0.473,0.095-0.706,0.095c-0.664,0-1.192-0.2-1.585-0.602s-0.589-1.03-0.589-1.889v-5.453
			h-1.428v-1.212h1.428v-2.167H169.287z"/>
		<path fill="#555658" d="M173.658,291.571h-1.635v-1.668h1.635V291.571z M173.658,302.853h-1.635v-8.981h1.635V302.853z"/>
		<path fill="#555658" d="M178.892,301.749c0.503,0,0.943-0.168,1.32-0.503s0.564-0.745,0.564-1.232h1.478l0.025,0.05
			c0.022,0.774-0.31,1.462-0.996,2.063s-1.483,0.9-2.391,0.9c-1.262,0-2.236-0.429-2.922-1.286s-1.029-1.926-1.029-3.204v-0.349
			c0-1.268,0.344-2.331,1.034-3.191c0.688-0.86,1.661-1.291,2.917-1.291c1.001,0,1.822,0.31,2.461,0.93
			c0.639,0.62,0.947,1.381,0.925,2.282l-0.017,0.051h-1.486c0-0.549-0.179-1.015-0.535-1.399c-0.357-0.385-0.807-0.577-1.349-0.577
			c-0.802,0-1.388,0.312-1.755,0.935c-0.368,0.622-0.552,1.376-0.552,2.262v0.349c0,0.902,0.181,1.663,0.543,2.283
			C177.491,301.438,178.079,301.749,178.892,301.749z"/>
		<path fill="#555658" d="M189.743,300.204l0.141,0.631h0.05l0.158-0.631l2.067-6.333h1.668l-3.304,8.981h-1.237l-3.345-8.981h1.677
			L189.743,300.204z"/>
		<path fill="#555658" d="M196.214,291.571h-1.635v-1.668h1.635V291.571z M196.214,302.853h-1.635v-8.981h1.635V302.853z"/>
		<path fill="#555658" d="M197.498,298.278c0-1.328,0.36-2.422,1.079-3.282s1.696-1.291,2.93-1.291c1.245,0,2.229,0.429,2.951,1.286
			c0.722,0.858,1.083,1.954,1.083,3.287v0.184c0,1.339-0.36,2.435-1.079,3.287c-0.719,0.852-1.699,1.277-2.938,1.277
			s-2.221-0.427-2.942-1.282c-0.723-0.854-1.083-1.949-1.083-3.282V298.278z M199.133,298.462c0,0.951,0.201,1.737,0.602,2.357
			c0.401,0.619,0.998,0.93,1.789,0.93c0.78,0,1.373-0.311,1.776-0.93c0.404-0.62,0.606-1.406,0.606-2.357v-0.184
			c0-0.94-0.204-1.724-0.61-2.349c-0.407-0.625-1.003-0.938-1.789-0.938c-0.78,0-1.371,0.313-1.772,0.938
			c-0.401,0.625-0.602,1.408-0.602,2.349V298.462z"/>
		<path fill="#555658" d="M208.459,302.853h-1.635v-12.949h1.635V302.853z"/>
		<path fill="#555658" d="M213.844,303.026c-1.29,0-2.295-0.412-3.017-1.236c-0.723-0.824-1.083-1.909-1.083-3.254v-0.365
			c0-1.289,0.372-2.356,1.117-3.2c0.744-0.844,1.653-1.266,2.727-1.266c1.201,0,2.102,0.374,2.702,1.12
			c0.6,0.748,0.9,1.741,0.9,2.98v0.863h-5.744l-0.025,0.041c0,0.902,0.199,1.635,0.598,2.196s1.007,0.843,1.826,0.843
			c0.553,0,1.039-0.079,1.457-0.237c0.418-0.157,0.776-0.375,1.075-0.651l0.639,1.063c-0.321,0.31-0.744,0.571-1.27,0.784
			S214.585,303.026,213.844,303.026z M213.586,294.991c-0.57,0-1.042,0.221-1.415,0.66c-0.374,0.44-0.602,1.003-0.685,1.689
			l0.017,0.041h4.051v-0.133c0-0.652-0.161-1.192-0.481-1.618S214.256,294.991,213.586,294.991z"/>
		<path fill="#555658" d="M219.634,293.871l0.116,1.337c0.299-0.477,0.674-0.846,1.125-1.108c0.451-0.263,0.964-0.395,1.54-0.395
			c0.968,0,1.718,0.283,2.25,0.851s0.797,1.443,0.797,2.627v5.67h-1.635v-5.637c0-0.791-0.156-1.353-0.469-1.685
			c-0.313-0.332-0.79-0.498-1.432-0.498c-0.503,0-0.931,0.101-1.283,0.303c-0.351,0.202-0.629,0.485-0.834,0.851v6.666h-1.635
			v-8.981H219.634z"/>
		<path fill="#555658" d="M230.555,301.749c0.503,0,0.943-0.168,1.32-0.503s0.564-0.745,0.564-1.232h1.478l0.025,0.05
			c0.022,0.774-0.31,1.462-0.996,2.063s-1.483,0.9-2.391,0.9c-1.262,0-2.236-0.429-2.922-1.286s-1.029-1.926-1.029-3.204v-0.349
			c0-1.268,0.344-2.331,1.034-3.191c0.688-0.86,1.661-1.291,2.917-1.291c1.001,0,1.822,0.31,2.461,0.93
			c0.639,0.62,0.947,1.381,0.925,2.282l-0.017,0.051h-1.486c0-0.549-0.179-1.015-0.535-1.399c-0.357-0.385-0.807-0.577-1.349-0.577
			c-0.802,0-1.388,0.312-1.755,0.935c-0.368,0.622-0.552,1.376-0.552,2.262v0.349c0,0.902,0.181,1.663,0.543,2.283
			C229.153,301.438,229.741,301.749,230.555,301.749z"/>
		<path fill="#555658" d="M238.752,303.026c-1.29,0-2.295-0.412-3.017-1.236c-0.723-0.824-1.083-1.909-1.083-3.254v-0.365
			c0-1.289,0.372-2.356,1.117-3.2c0.744-0.844,1.653-1.266,2.727-1.266c1.201,0,2.102,0.374,2.702,1.12
			c0.6,0.748,0.9,1.741,0.9,2.98v0.863h-5.744l-0.025,0.041c0,0.902,0.199,1.635,0.598,2.196s1.007,0.843,1.826,0.843
			c0.553,0,1.039-0.079,1.457-0.237c0.418-0.157,0.776-0.375,1.075-0.651l0.639,1.063c-0.321,0.31-0.744,0.571-1.27,0.784
			S239.494,303.026,238.752,303.026z M238.495,294.991c-0.57,0-1.042,0.221-1.415,0.66c-0.374,0.44-0.602,1.003-0.685,1.689
			l0.017,0.041h4.051v-0.133c0-0.652-0.161-1.192-0.481-1.618S239.165,294.991,238.495,294.991z"/>
	</g>
	<g>
		<path fill="#F1F1F2" d="M191.56,208.958h-1.232v-1.739h1.232V208.958z M191.56,223.368h-1.232v-11.201h1.232V223.368z"/>
		<path fill="#F1F1F2" d="M195.659,212.167l0.114,1.946c0.366-0.684,0.852-1.213,1.459-1.589c0.607-0.376,1.329-0.564,2.164-0.564
			c1.214,0,2.139,0.371,2.774,1.113s0.953,1.899,0.953,3.473v6.822h-1.242v-6.812c0-1.284-0.24-2.191-0.72-2.723
			c-0.479-0.531-1.161-0.797-2.044-0.797s-1.596,0.217-2.138,0.652c-0.542,0.435-0.933,1.018-1.175,1.75v7.93h-1.243v-11.201
			H195.659z"/>
	</g>
	<g>
		<path fill="#EE282F" d="M228.631,238.433h0.042l3.214-8.178h1.694v10.065h-1.362v-7.542l-0.042-0.007l-3.048,7.549h-0.947
			l-3.139-7.798l-0.041,0.007v7.791h-1.362v-10.065h1.791L228.631,238.433z"/>
		<path fill="#EE282F" d="M243.342,236.186c0,1.23-0.382,2.251-1.145,3.063s-1.752,1.216-2.969,1.216
			c-1.175,0-2.13-0.405-2.865-1.216c-0.735-0.811-1.103-1.832-1.103-3.063v-1.791c0-1.226,0.367-2.247,1.103-3.063
			c0.735-0.815,1.69-1.223,2.865-1.223c1.217,0,2.206,0.407,2.969,1.22c0.763,0.813,1.145,1.835,1.145,3.066V236.186z
			 M241.98,234.382c0-0.922-0.249-1.678-0.747-2.268c-0.498-0.59-1.166-0.885-2.005-0.885c-0.793,0-1.425,0.295-1.897,0.885
			s-0.708,1.346-0.708,2.268v1.804c0,0.931,0.236,1.691,0.708,2.281s1.104,0.885,1.897,0.885c0.844,0,1.513-0.294,2.008-0.881
			s0.743-1.349,0.743-2.285V234.382z"/>
		<path fill="#EE282F" d="M252.633,240.32h-1.362l-4.846-7.687l-0.041,0.014v7.673h-1.362v-10.065h1.362l4.846,7.68l0.042-0.014
			v-7.666h1.362V240.32z"/>
		<path fill="#EE282F" d="M261.544,231.326h-3.318v8.994h-1.362v-8.994h-3.277v-1.071h7.957V231.326z"/>
		<path fill="#EE282F" d="M270.303,240.32h-1.362v-4.445h-4.887v4.445h-1.362v-10.065h1.362v4.548h4.887v-4.548h1.362V240.32z"/>
		<path fill="#EE282F" d="M277.734,237.783c0-0.456-0.164-0.838-0.491-1.147c-0.327-0.309-0.903-0.571-1.729-0.788
			c-1.023-0.253-1.821-0.626-2.395-1.12s-0.861-1.113-0.861-1.86c0-0.788,0.309-1.445,0.927-1.97
			c0.617-0.525,1.419-0.788,2.405-0.788c1.06,0,1.904,0.3,2.534,0.902c0.629,0.602,0.934,1.303,0.916,2.105l-0.021,0.042h-1.3
			c0-0.571-0.199-1.044-0.598-1.417c-0.398-0.374-0.909-0.56-1.531-0.56c-0.636,0-1.123,0.154-1.462,0.463
			c-0.339,0.309-0.508,0.71-0.508,1.203c0,0.438,0.186,0.803,0.557,1.096c0.371,0.292,0.973,0.549,1.808,0.771
			c1.014,0.263,1.786,0.65,2.316,1.162c0.53,0.511,0.795,1.143,0.795,1.894c0,0.811-0.319,1.463-0.958,1.956
			c-0.638,0.494-1.471,0.74-2.499,0.74c-0.972,0-1.831-0.271-2.575-0.815c-0.745-0.544-1.105-1.272-1.082-2.185l0.014-0.042h1.3
			c0,0.631,0.239,1.119,0.719,1.462c0.479,0.344,1.021,0.515,1.625,0.515c0.645,0,1.156-0.145,1.531-0.436
			C277.546,238.675,277.734,238.281,277.734,237.783z"/>
	</g>
	<g>
		<path fill="#EE282F" d="M65.648,235.71v4.108h-1.282v-9.474h3.242c1.038,0,1.83,0.23,2.377,0.69c0.547,0.46,0.82,1.129,0.82,2.005
			c0,0.486-0.127,0.91-0.381,1.27s-0.624,0.646-1.11,0.859c0.521,0.169,0.896,0.444,1.123,0.824c0.228,0.38,0.342,0.85,0.342,1.41
			v0.892c0,0.295,0.033,0.56,0.098,0.794c0.065,0.235,0.178,0.426,0.339,0.573v0.156h-1.322c-0.169-0.147-0.278-0.365-0.326-0.651
			c-0.048-0.287-0.071-0.582-0.071-0.886v-0.866c0-0.512-0.15-0.924-0.449-1.237c-0.3-0.313-0.701-0.469-1.205-0.469H65.648z
			 M65.648,234.701h1.83c0.725,0,1.247-0.138,1.565-0.414c0.319-0.276,0.479-0.696,0.479-1.26c0-0.534-0.155-0.948-0.465-1.241
			c-0.311-0.293-0.794-0.439-1.449-0.439h-1.96V234.701z"/>
		<path fill="#EE282F" d="M77.76,235.424h-3.894v3.392h4.558v1.003h-5.84v-9.48h5.769v1.009h-4.486v3.067h3.894V235.424z"/>
		<path fill="#EE282F" d="M80.957,236.016v3.803h-1.283v-9.48h3.626c1.012,0,1.798,0.261,2.36,0.781
			c0.563,0.521,0.844,1.207,0.844,2.058c0,0.86-0.281,1.548-0.844,2.064c-0.562,0.517-1.349,0.774-2.36,0.774H80.957z
			 M80.957,235.014h2.344c0.643,0,1.122-0.173,1.439-0.518c0.316-0.345,0.475-0.78,0.475-1.306s-0.16-0.964-0.479-1.315
			s-0.797-0.527-1.436-0.527h-2.344V235.014z"/>
		<path fill="#EE282F" d="M95.126,235.925c0,1.159-0.359,2.121-1.078,2.884c-0.718,0.764-1.65,1.146-2.796,1.146
			c-1.107,0-2.006-0.382-2.699-1.146c-0.692-0.764-1.039-1.726-1.039-2.884v-1.687c0-1.155,0.346-2.116,1.039-2.884
			c0.692-0.769,1.592-1.153,2.699-1.153c1.146,0,2.078,0.383,2.796,1.149c0.719,0.766,1.078,1.729,1.078,2.888V235.925z
			 M93.843,234.226c0-0.868-0.234-1.58-0.703-2.136c-0.469-0.555-1.098-0.833-1.888-0.833c-0.747,0-1.342,0.278-1.788,0.833
			c-0.444,0.556-0.667,1.268-0.667,2.136v1.7c0,0.877,0.223,1.593,0.667,2.148c0.445,0.556,1.041,0.833,1.788,0.833
			c0.794,0,1.425-0.277,1.892-0.83c0.466-0.554,0.7-1.271,0.7-2.152V234.226z"/>
		<path fill="#EE282F" d="M97.991,235.71v4.108h-1.283v-9.474h3.243c1.037,0,1.829,0.23,2.376,0.69
			c0.547,0.46,0.82,1.129,0.82,2.005c0,0.486-0.127,0.91-0.381,1.27s-0.624,0.646-1.11,0.859c0.521,0.169,0.895,0.444,1.124,0.824
			c0.228,0.38,0.342,0.85,0.342,1.41v0.892c0,0.295,0.032,0.56,0.098,0.794c0.065,0.235,0.178,0.426,0.338,0.573v0.156h-1.322
			c-0.169-0.147-0.278-0.365-0.326-0.651c-0.048-0.287-0.072-0.582-0.072-0.886v-0.866c0-0.512-0.149-0.924-0.449-1.237
			c-0.299-0.313-0.701-0.469-1.204-0.469H97.991z M97.991,234.701h1.829c0.725,0,1.247-0.138,1.566-0.414
			c0.319-0.276,0.479-0.696,0.479-1.26c0-0.534-0.155-0.948-0.466-1.241s-0.793-0.439-1.448-0.439h-1.96V234.701z"/>
		<path fill="#EE282F" d="M111.033,231.348h-3.125v8.471h-1.283v-8.471h-3.086v-1.009h7.494V231.348z"/>
		<path fill="#EE282F" d="M117.291,235.424h-3.894v3.392h4.558v1.003h-5.841v-9.48h5.769v1.009h-4.486v3.067h3.894V235.424z"/>
		<path fill="#EE282F" d="M119.205,239.819v-9.48h2.982c1.237,0,2.232,0.381,2.985,1.143c0.753,0.762,1.13,1.746,1.13,2.953v1.296
			c0,1.211-0.377,2.195-1.13,2.953s-1.748,1.136-2.985,1.136H119.205z M120.488,231.348v7.468h1.699
			c0.877,0,1.568-0.289,2.074-0.866s0.758-1.317,0.758-2.22v-1.309c0-0.894-0.253-1.63-0.758-2.207s-1.197-0.866-2.074-0.866
			H120.488z"/>
		<path fill="#EE282F" d="M137.782,236.785l0.013,0.039c0.018,0.89-0.295,1.634-0.938,2.233s-1.491,0.898-2.546,0.898
			c-1.072,0-1.945-0.38-2.621-1.14c-0.675-0.759-1.012-1.723-1.012-2.891v-1.687c0-1.167,0.337-2.132,1.012-2.894
			c0.675-0.762,1.548-1.143,2.621-1.143s1.925,0.286,2.559,0.856s0.942,1.327,0.924,2.269l-0.013,0.039h-1.23
			c0-0.664-0.195-1.189-0.586-1.576s-0.942-0.58-1.654-0.58c-0.716,0-1.287,0.289-1.712,0.866c-0.426,0.577-0.639,1.293-0.639,2.148
			v1.7c0,0.864,0.213,1.584,0.639,2.162c0.425,0.577,0.996,0.866,1.712,0.866c0.712,0,1.264-0.192,1.654-0.576
			c0.391-0.384,0.586-0.915,0.586-1.592H137.782z"/>
		<path fill="#EE282F" d="M144.092,237.377h-3.568l-0.847,2.442h-1.309l3.418-9.48h1.101l3.347,9.48h-1.309L144.092,237.377z
			 M140.895,236.303h2.833l-1.381-4.069h-0.039L140.895,236.303z"/>
		<path fill="#EE282F" d="M152.414,237.429c0-0.43-0.154-0.79-0.462-1.081c-0.308-0.291-0.851-0.538-1.628-0.742
			c-0.963-0.239-1.716-0.59-2.256-1.055c-0.541-0.464-0.811-1.048-0.811-1.751c0-0.742,0.291-1.361,0.872-1.856
			c0.582-0.495,1.337-0.742,2.266-0.742c0.999,0,1.794,0.283,2.386,0.85c0.593,0.567,0.88,1.228,0.863,1.983l-0.02,0.039H152.4
			c0-0.538-0.188-0.983-0.563-1.335c-0.375-0.352-0.856-0.527-1.442-0.527c-0.599,0-1.058,0.146-1.377,0.437
			c-0.318,0.291-0.479,0.668-0.479,1.133c0,0.413,0.175,0.756,0.524,1.032c0.35,0.276,0.917,0.518,1.703,0.726
			c0.955,0.248,1.682,0.612,2.181,1.094c0.499,0.481,0.749,1.076,0.749,1.784c0,0.764-0.301,1.378-0.902,1.843
			c-0.601,0.465-1.386,0.697-2.354,0.697c-0.916,0-1.725-0.256-2.425-0.768s-1.041-1.198-1.019-2.058l0.013-0.039h1.224
			c0,0.595,0.226,1.054,0.677,1.377c0.452,0.323,0.962,0.485,1.53,0.485c0.608,0,1.089-0.137,1.442-0.41
			S152.414,237.898,152.414,237.429z"/>
		<path fill="#EE282F" d="M160.423,235.424h-3.894v3.392h4.558v1.003h-5.841v-9.48h5.769v1.009h-4.486v3.067h3.894V235.424z"/>
		<path fill="#EE282F" d="M167.39,237.429c0-0.43-0.154-0.79-0.462-1.081c-0.309-0.291-0.851-0.538-1.628-0.742
			c-0.964-0.239-1.716-0.59-2.256-1.055c-0.541-0.464-0.811-1.048-0.811-1.751c0-0.742,0.291-1.361,0.873-1.856
			c0.582-0.495,1.337-0.742,2.266-0.742c0.999,0,1.794,0.283,2.387,0.85c0.593,0.567,0.88,1.228,0.862,1.983l-0.02,0.039h-1.224
			c0-0.538-0.188-0.983-0.563-1.335s-0.856-0.527-1.442-0.527c-0.599,0-1.058,0.146-1.377,0.437
			c-0.319,0.291-0.479,0.668-0.479,1.133c0,0.413,0.175,0.756,0.524,1.032c0.349,0.276,0.917,0.518,1.702,0.726
			c0.955,0.248,1.683,0.612,2.182,1.094c0.499,0.481,0.749,1.076,0.749,1.784c0,0.764-0.301,1.378-0.902,1.843
			c-0.601,0.465-1.386,0.697-2.354,0.697c-0.916,0-1.725-0.256-2.426-0.768c-0.701-0.512-1.041-1.198-1.019-2.058l0.013-0.039h1.225
			c0,0.595,0.226,1.054,0.677,1.377s0.961,0.485,1.53,0.485c0.607,0,1.088-0.137,1.442-0.41
			C167.213,238.269,167.39,237.898,167.39,237.429z"/>
	</g>
	<g>
		<path fill="#EF353C" d="M95.575,165.4l-15.672,44.099H69.717l15.74-41.667H65.561v-7.938h30.015V165.4z"/>
		<path fill="#EF353C" d="M102.764,185.105l2.453-25.211h24.019v8.245h-16.114l-0.886,10.629c1.862-1.249,3.781-1.874,5.757-1.874
			c4.088,0,7.24,1.454,9.454,4.361c2.214,2.908,3.322,7.018,3.322,12.333c0,4.974-1.317,8.983-3.952,12.026
			c-2.635,3.044-6.155,4.565-10.562,4.565c-2.612,0-5.031-0.619-7.256-1.856c-2.226-1.238-3.981-2.958-5.264-5.162
			c-1.284-2.203-1.937-4.702-1.959-7.495h9.54c0.158,2.089,0.669,3.707,1.533,4.854c0.862,1.147,1.976,1.721,3.338,1.721
			c1.589,0,2.816-0.769,3.679-2.308s1.295-3.836,1.295-6.892c0-2.872-0.517-5.039-1.55-6.498c-1.034-1.459-2.482-2.189-4.344-2.189
			c-1.817,0-3.225,0.625-4.224,1.874l-0.613,0.852L102.764,185.105z"/>
		<path fill="#EF353C" d="M165.894,188.989c0,6.86-1.243,12.106-3.73,15.74c-2.487,3.634-6.036,5.451-10.646,5.451
			c-4.565,0-8.091-1.766-10.578-5.297c-2.487-3.532-3.776-8.591-3.867-15.178v-9.369c0-6.836,1.238-12.066,3.714-15.689
			c2.475-3.623,6.03-5.434,10.664-5.434s8.188,1.794,10.664,5.383c2.476,3.589,3.736,8.71,3.781,15.365V188.989z M156.218,178.917
			c0-3.922-0.386-6.863-1.158-8.824c-0.772-1.961-1.976-2.941-3.611-2.941c-3.066,0-4.656,3.591-4.77,10.773v12.415
			c0,4.013,0.392,7,1.176,8.961c0.783,1.961,2.004,2.941,3.662,2.941c1.567,0,2.731-0.917,3.492-2.753
			c0.761-1.835,1.164-4.646,1.209-8.431V178.917z"/>
	</g>
	<g opacity="0.6">
		<g>
			<rect x="66.147" y="218.902" fill="#F7979A" width="100.081" height="3"/>
		</g>
	</g>
	<g>
		<path fill="#EF353C" d="M265.835,210.716h-29.231v-6.756l13.423-17.126c1.703-2.371,2.958-4.451,3.765-6.241
			c0.806-1.79,1.209-3.505,1.209-5.146c0-2.211-0.38-3.943-1.141-5.198c-0.761-1.253-1.857-1.88-3.288-1.88
			c-1.567,0-2.811,0.733-3.73,2.198c-0.92,1.466-1.38,3.526-1.38,6.183h-9.676c0-3.043,0.63-5.826,1.891-8.347
			c1.26-2.521,3.032-4.48,5.315-5.876c2.282-1.397,4.866-2.095,7.75-2.095c4.429,0,7.864,1.221,10.306,3.662
			c2.441,2.442,3.662,5.911,3.662,10.408c0,2.793-0.676,5.627-2.027,8.5c-1.352,2.874-3.799,6.42-7.342,10.64l-6.371,9.137h16.864
			V210.716z"/>
	</g>
	<g opacity="0.6">
		<g>
			<rect x="230.725" y="218.55" fill="#F7979A" width="40.581" height="3"/>
		</g>
	</g>
</g>
</svg>
