<?xml version="1.0" encoding="utf-8"?>
<!-- Generator: Adobe Illustrator 16.0.0, SVG Export Plug-In . SVG Version: 6.00 Build 0)  -->
<!DOCTYPE svg PUBLIC "-//W3C//DTD SVG 1.1//EN" "http://www.w3.org/Graphics/SVG/1.1/DTD/svg11.dtd">
<svg version="1.1" xmlns="http://www.w3.org/2000/svg" xmlns:xlink="http://www.w3.org/1999/xlink" x="0px" y="0px" width="100%"
	 height="100%" viewBox="0 0 360 360" enable-background="new 0 0 360 360" xml:space="preserve" class="c-infographic-svg">
<g id="Layer_1">
	<g>
		<rect fill="#ECEDED" width="360" height="360"/>
	</g>
	<g id="left-group">
		<g>
			<g>
				<path fill="#404041" d="M44.001,131.417l0.015,0.044c0.02,1.055-0.325,1.898-1.035,2.529c-0.709,0.631-1.641,0.946-2.795,0.946
					c-1.197,0-2.164-0.433-2.898-1.298c-0.734-0.865-1.102-1.985-1.102-3.36v-1.752c0-1.37,0.367-2.49,1.102-3.36
					s1.701-1.305,2.898-1.305c1.168,0,2.104,0.308,2.806,0.924s1.043,1.464,1.024,2.543l-0.015,0.044h-0.828
					c0-0.868-0.265-1.544-0.795-2.03c-0.53-0.485-1.261-0.728-2.192-0.728c-0.941,0-1.696,0.365-2.266,1.094
					s-0.854,1.664-0.854,2.802v1.767c0,1.153,0.285,2.094,0.854,2.821s1.324,1.091,2.266,1.091c0.932,0,1.663-0.237,2.192-0.71
					c0.53-0.473,0.795-1.161,0.795-2.063H44.001z"/>
			</g>
			<g>
				<path fill="#404041" d="M47.107,134.781H46.22v-10.766h0.887V134.781z"/>
			</g>
			<g>
				<path fill="#404041" d="M56.89,124.77h-3.668v10.011h-0.88V124.77h-3.793v-0.754h8.341V124.77z"/>
			</g>
			<g>
				<path fill="#404041" d="M59.433,134.781h-0.887v-10.766h0.887V134.781z"/>
			</g>
			<g>
				<path fill="#404041" d="M67.825,129.568h-4.828v4.466h5.583v0.747h-6.47v-10.766h6.433v0.754h-5.545v4.044h4.828V129.568z"/>
			</g>
			<g>
				<path fill="#404041" d="M76.225,132.164c0-0.552-0.219-1.008-0.658-1.368c-0.439-0.36-1.184-0.697-2.233-1.013
					c-1.148-0.315-2.022-0.709-2.621-1.18c-0.599-0.471-0.898-1.11-0.898-1.918c0-0.823,0.335-1.5,1.006-2.03
					c0.67-0.53,1.525-0.795,2.565-0.795c1.095,0,1.975,0.299,2.64,0.898c0.666,0.599,0.988,1.359,0.969,2.281l-0.015,0.044h-0.828
					c0-0.709-0.258-1.298-0.772-1.767c-0.516-0.468-1.18-0.702-1.993-0.702c-0.838,0-1.495,0.198-1.97,0.595
					c-0.476,0.396-0.713,0.883-0.713,1.46c0,0.547,0.215,0.997,0.646,1.35c0.432,0.353,1.192,0.682,2.281,0.987
					c1.134,0.33,1.999,0.737,2.595,1.22c0.596,0.483,0.895,1.124,0.895,1.922c0,0.838-0.349,1.512-1.046,2.022
					c-0.698,0.51-1.576,0.765-2.636,0.765c-1.06,0-1.984-0.27-2.772-0.81c-0.789-0.54-1.171-1.327-1.146-2.362l0.015-0.044h0.821
					c0,0.833,0.313,1.453,0.939,1.859s1.341,0.61,2.144,0.61c0.823,0,1.494-0.189,2.011-0.566
					C75.966,133.247,76.225,132.76,76.225,132.164z"/>
			</g>
		</g>
		<g>
			<g>
				<path fill="#0074A8" d="M65.681,74.298l-9.704,27.304h-6.307l9.745-25.798H47.097v-4.915h18.584V74.298z"/>
			</g>
		</g>
		<g opacity="0.6">
			<g>
				<rect x="12.282" y="113.805" fill="#66ABCB" width="88.262" height="3"/>
			</g>
		</g>
	</g>
	<g id="right-group">
		<g>
			<g>
				<path fill="#404041" d="M283.949,129.568h-4.829v4.466h5.583v0.747h-6.47v-10.766h6.433v0.754h-5.545v4.044h4.829V129.568z"/>
			</g>
			<g>
				<path fill="#404041" d="M289.31,132.896l0.215,0.754h0.044l0.215-0.754l3.238-8.88h0.954l-4.008,10.766h-0.843l-4.008-10.766
					h0.961L289.31,132.896z"/>
			</g>
			<g>
				<path fill="#404041" d="M300.978,129.568h-4.828v4.466h5.583v0.747h-6.47v-10.766h6.433v0.754h-5.545v4.044h4.828V129.568z"/>
			</g>
			<g>
				<path fill="#404041" d="M311.241,134.781h-0.887l-6.115-9.213l-0.044,0.007v9.206h-0.887v-10.766h0.887l6.115,9.191l0.044-0.008
					v-9.183h0.887V134.781z"/>
			</g>
			<g>
				<path fill="#404041" d="M320.794,124.77h-3.667v10.011h-0.88V124.77h-3.793v-0.754h8.34V124.77z"/>
			</g>
			<g>
				<path fill="#404041" d="M328.173,132.164c0-0.552-0.219-1.008-0.658-1.368s-1.183-0.697-2.233-1.013
					c-1.148-0.315-2.022-0.709-2.621-1.18s-0.898-1.11-0.898-1.918c0-0.823,0.335-1.5,1.006-2.03c0.67-0.53,1.525-0.795,2.565-0.795
					c1.094,0,1.974,0.299,2.64,0.898c0.665,0.599,0.988,1.359,0.969,2.281l-0.015,0.044H328.1c0-0.709-0.258-1.298-0.773-1.767
					c-0.515-0.468-1.179-0.702-1.993-0.702c-0.838,0-1.495,0.198-1.971,0.595c-0.476,0.396-0.713,0.883-0.713,1.46
					c0,0.547,0.215,0.997,0.647,1.35s1.191,0.682,2.281,0.987c1.134,0.33,1.999,0.737,2.595,1.22
					c0.597,0.483,0.895,1.124,0.895,1.922c0,0.838-0.349,1.512-1.046,2.022s-1.576,0.765-2.636,0.765s-1.984-0.27-2.772-0.81
					c-0.789-0.54-1.171-1.327-1.146-2.362l0.015-0.044h0.821c0,0.833,0.313,1.453,0.938,1.859s1.341,0.61,2.145,0.61
					c0.823,0,1.494-0.189,2.011-0.566C327.914,133.247,328.173,132.76,328.173,132.164z"/>
			</g>
		</g>
		<g>
			<g>
				<path fill="#0074A8" d="M291.5,101.603h-18.099v-4.183l8.311-10.604c1.055-1.468,1.832-2.756,2.331-3.864
					c0.499-1.108,0.749-2.17,0.749-3.187c0-1.369-0.236-2.441-0.707-3.218c-0.471-0.776-1.149-1.165-2.035-1.165
					c-0.971,0-1.74,0.454-2.31,1.361c-0.57,0.907-0.854,2.183-0.854,3.828h-5.991c0-1.884,0.391-3.607,1.171-5.168
					s1.877-2.774,3.291-3.639c1.413-0.865,3.013-1.297,4.799-1.297c2.742,0,4.869,0.756,6.381,2.268s2.268,3.66,2.268,6.444
					c0,1.729-0.418,3.484-1.255,5.263c-0.837,1.779-2.352,3.975-4.546,6.588l-3.945,5.657H291.5V101.603z"/>
			</g>
			<g>
				<path fill="#0074A8" d="M295.866,86.499l1.519-15.61h14.872v5.105h-9.978l-0.549,6.581c1.153-0.773,2.342-1.16,3.565-1.16
					c2.531,0,4.482,0.9,5.854,2.7c1.371,1.8,2.057,4.346,2.057,7.636c0,3.08-0.815,5.562-2.447,7.446
					c-1.631,1.885-3.811,2.827-6.539,2.827c-1.617,0-3.115-0.383-4.493-1.149c-1.378-0.767-2.465-1.832-3.259-3.196
					c-0.795-1.364-1.199-2.911-1.213-4.641h5.906c0.098,1.293,0.415,2.295,0.949,3.006c0.534,0.71,1.224,1.065,2.067,1.065
					c0.984,0,1.743-0.476,2.278-1.429c0.534-0.953,0.801-2.375,0.801-4.267c0-1.778-0.32-3.12-0.959-4.023
					c-0.641-0.903-1.537-1.355-2.689-1.355c-1.125,0-1.997,0.387-2.616,1.16l-0.379,0.528L295.866,86.499z"/>
			</g>
			<g>
				<path fill="#0074A8" d="M334.954,88.904c0,4.247-0.77,7.496-2.31,9.746s-3.737,3.375-6.592,3.375c-2.827,0-5.01-1.093-6.55-3.28
					c-1.54-2.187-2.338-5.319-2.395-9.397v-5.801c0-4.233,0.767-7.471,2.299-9.714c1.533-2.243,3.734-3.364,6.603-3.364
					s5.07,1.111,6.603,3.333s2.313,5.393,2.341,9.513V88.904z M328.964,82.667c0-2.428-0.24-4.249-0.718-5.463
					s-1.223-1.821-2.236-1.821c-1.898,0-2.883,2.224-2.953,6.67v7.687c0,2.485,0.243,4.334,0.728,5.549
					c0.485,1.214,1.241,1.821,2.268,1.821c0.97,0,1.69-0.568,2.162-1.705c0.471-1.137,0.72-2.876,0.749-5.22V82.667z"/>
			</g>
		</g>
		<g opacity="0.6">
			<g>
				<rect x="259.458" y="113.805" fill="#66ABCB" width="88.26" height="3"/>
			</g>
		</g>
	</g>
	<g id="calendar">
		<g>
			<path fill="#808184" d="M224.001,52H212V41.207c0-1.899-1.603-3.438-3.5-3.438c-1.9,0-3.5,1.539-3.5,3.438V52h-64V41.207
				c0-1.899-1.602-3.438-3.5-3.438c-1.896,0-3.5,1.539-3.5,3.438V52h-7.406C121.87,52,118,55.5,118,60.227v78.721
				c0,4.727,3.87,9.052,8.594,9.052h97.407c4.724,0,8.999-4.325,8.999-9.052V60.227C233,55.5,228.725,52,224.001,52z M226,138.948
				c0,1.226-0.775,3.052-1.999,3.052h-97.407c-1.223,0-2.594-1.826-2.594-3.052V60.227C124,59,125.372,59,126.594,59h97.407
				c1.224,0,1.999,0,1.999,1.227V138.948z"/>
		</g>
		<g>
			<g>
				<g>
					<rect x="142.61" y="70.095" fill="#808184" width="11.734" height="11.733"/>
				</g>
				<g>
					<rect x="142.61" y="87.1" fill="#808184" width="11.734" height="11.734"/>
				</g>
				<g>
					<rect x="142.61" y="104.106" fill="#808184" width="11.734" height="11.734"/>
				</g>
				<g>
					<rect x="142.61" y="121.113" fill="#808184" width="11.734" height="11.734"/>
				</g>
				<g>
					<rect x="160.594" y="70.095" fill="#808184" width="11.734" height="11.733"/>
				</g>
				<g>
					<rect x="160.594" y="87.1" fill="#808184" width="11.734" height="11.734"/>
				</g>
				<g>
					<rect x="160.594" y="104.106" fill="#808184" width="11.734" height="11.734"/>
				</g>
				<g>
					<rect x="160.594" y="121.113" fill="#808184" width="11.734" height="11.734"/>
				</g>
				<g>
					<rect x="178.578" y="70.095" fill="#808184" width="11.734" height="11.733"/>
				</g>
				<g>
					<rect x="178.578" y="87.1" fill="#808184" width="11.734" height="11.734"/>
				</g>
				<g>
					<rect x="178.578" y="104.106" fill="#808184" width="11.734" height="11.734"/>
				</g>
				<g>
					<rect x="178.578" y="121.113" fill="#808184" width="11.734" height="11.734"/>
				</g>
				<g>
					<rect x="196.562" y="70.095" fill="#808184" width="11.734" height="11.733"/>
				</g>
				<g>
					<rect x="196.562" y="87.1" fill="#808184" width="11.734" height="11.734"/>
				</g>
				<g>
					<rect x="196.562" y="104.106" fill="#808184" width="11.734" height="11.734"/>
				</g>
				<g>
					<rect x="196.562" y="121.113" fill="#808184" width="11.734" height="11.734"/>
				</g>
			</g>
			<g>
				<rect class="colored-square" x="178.578" y="104.106" fill="#808184" width="11.734" height="11.734"/>
			</g>
		</g>
	</g>
</g>
<g id="Layer_2">
	<g>
		<g>
			<g>
				<path fill="#799DC4" d="M134.691,337.412v-19.906h6.494c2.078,0,3.705,0.449,4.881,1.347c1.176,0.898,1.764,2.245,1.764,4.04
					c0,0.857-0.265,1.625-0.793,2.304c-0.529,0.679-1.23,1.196-2.105,1.552c1.303,0.183,2.335,0.748,3.097,1.695
					c0.761,0.948,1.142,2.064,1.142,3.35c0,1.823-0.593,3.215-1.777,4.177c-1.185,0.962-2.789,1.442-4.813,1.442H134.691z
					 M137.385,325.969h4.361c1.002,0,1.818-0.275,2.447-0.827c0.629-0.551,0.943-1.319,0.943-2.304c0-1.075-0.34-1.88-1.019-2.413
					c-0.679-0.533-1.657-0.8-2.933-0.8h-3.801V325.969z M137.385,328.074v7.232h5.195c1.23,0,2.185-0.303,2.864-0.909
					c0.679-0.606,1.019-1.465,1.019-2.577c0-1.103-0.347-1.991-1.039-2.666c-0.693-0.674-1.627-1.034-2.803-1.08h-0.178H137.385z"/>
			</g>
			<g>
				<path fill="#799DC4" d="M158.248,337.699c-2.124,0-3.78-0.679-4.97-2.037c-1.189-1.358-1.784-3.145-1.784-5.359v-0.602
					c0-2.124,0.613-3.88,1.839-5.271c1.226-1.39,2.723-2.085,4.491-2.085c1.978,0,3.461,0.615,4.45,1.846
					c0.989,1.23,1.483,2.867,1.483,4.908v1.422h-9.461l-0.041,0.068c0,1.486,0.328,2.691,0.984,3.616
					c0.656,0.925,1.659,1.388,3.008,1.388c0.911,0,1.711-0.13,2.399-0.39c0.688-0.26,1.278-0.617,1.771-1.073l1.053,1.75
					c-0.529,0.511-1.226,0.941-2.092,1.292C160.513,337.523,159.469,337.699,158.248,337.699z M157.824,324.465
					c-0.939,0-1.716,0.362-2.331,1.087s-0.991,1.652-1.128,2.782l0.027,0.068h6.672v-0.219c0-1.075-0.265-1.964-0.793-2.666
					C159.743,324.816,158.927,324.465,157.824,324.465z"/>
			</g>
			<g>
				<path fill="#799DC4" d="M169.691,337.412h-2.693v-21.328h2.693V337.412z"/>
			</g>
			<g>
				<path fill="#799DC4" d="M182.926,337.412c-0.091-0.446-0.162-0.841-0.212-1.183c-0.05-0.342-0.08-0.686-0.089-1.032
					c-0.501,0.711-1.155,1.306-1.962,1.784s-1.675,0.718-2.604,0.718c-1.541,0-2.714-0.394-3.521-1.183
					c-0.807-0.788-1.21-1.875-1.21-3.261c0-1.413,0.572-2.518,1.716-3.315c1.144-0.797,2.695-1.196,4.655-1.196h2.926v-1.463
					c0-0.866-0.265-1.552-0.793-2.058c-0.529-0.506-1.276-0.759-2.242-0.759c-0.875,0-1.582,0.219-2.119,0.656
					c-0.538,0.438-0.807,0.962-0.807,1.572l-2.557,0.027l-0.027-0.082c-0.064-1.075,0.439-2.06,1.511-2.953
					c1.071-0.893,2.454-1.34,4.149-1.34c1.677,0,3.026,0.426,4.047,1.278c1.021,0.853,1.531,2.081,1.531,3.685v7.123
					c0,0.529,0.027,1.039,0.082,1.531s0.155,0.976,0.301,1.449H182.926z M178.455,335.443c0.975,0,1.854-0.25,2.639-0.752
					c0.784-0.501,1.294-1.075,1.531-1.723v-2.406h-3.021c-1.085,0-1.953,0.273-2.604,0.82c-0.652,0.547-0.978,1.189-0.978,1.928
					c0,0.656,0.205,1.176,0.615,1.559S177.653,335.443,178.455,335.443z"/>
			</g>
			<g>
				<path fill="#799DC4" d="M196.229,324.998l-1.381-0.082c-0.711,0-1.311,0.169-1.798,0.506c-0.488,0.337-0.864,0.812-1.128,1.422
					v10.568h-2.693v-14.793h2.406l0.26,2.16c0.419-0.766,0.937-1.362,1.552-1.791c0.615-0.428,1.324-0.643,2.126-0.643
					c0.2,0,0.392,0.016,0.574,0.048c0.182,0.032,0.333,0.066,0.451,0.103L196.229,324.998z"/>
			</g>
			<g>
				<path fill="#799DC4" d="M208.424,335.225c-0.465,0.793-1.062,1.404-1.791,1.832c-0.729,0.428-1.572,0.643-2.529,0.643
					c-1.613,0-2.871-0.515-3.773-1.545c-0.902-1.03-1.354-2.634-1.354-4.813v-8.723h2.693v8.75c0,1.577,0.232,2.662,0.697,3.254
					c0.465,0.593,1.189,0.889,2.174,0.889c0.957,0,1.748-0.193,2.372-0.581c0.624-0.387,1.096-0.937,1.415-1.647v-10.664h2.693
					v14.793h-2.42L208.424,335.225z"/>
			</g>
			<g>
				<path fill="#799DC4" d="M223.545,333.434c0-0.592-0.226-1.075-0.677-1.449c-0.451-0.374-1.306-0.702-2.563-0.984
					c-1.741-0.374-3.079-0.897-4.013-1.572c-0.935-0.674-1.401-1.577-1.401-2.707c0-1.203,0.513-2.233,1.538-3.09
					c1.025-0.856,2.354-1.285,3.985-1.285c1.677,0,3.035,0.456,4.074,1.367c1.039,0.912,1.536,1.974,1.49,3.186l-0.027,0.082h-2.57
					c0-0.638-0.28-1.217-0.841-1.736s-1.27-0.779-2.126-0.779c-0.948,0-1.657,0.214-2.126,0.643
					c-0.47,0.429-0.704,0.939-0.704,1.531c0,0.583,0.203,1.035,0.608,1.354c0.405,0.319,1.242,0.611,2.509,0.875
					c1.813,0.383,3.19,0.925,4.129,1.627c0.938,0.702,1.408,1.618,1.408,2.748c0,1.313-0.531,2.384-1.593,3.213
					c-1.062,0.83-2.45,1.244-4.163,1.244c-1.887,0-3.373-0.479-4.457-1.436c-1.085-0.957-1.6-2.073-1.545-3.35l0.027-0.082h2.57
					c0.045,0.957,0.401,1.657,1.066,2.099c0.665,0.442,1.444,0.663,2.338,0.663c0.957,0,1.707-0.203,2.249-0.608
					C223.273,334.58,223.545,334.063,223.545,333.434z"/>
			</g>
		</g>
		<g>
			<g>
				<path fill="#A7A9AC" d="M51.358,290.308v8.027c0,1.328-0.432,2.365-1.295,3.112s-1.976,1.12-3.337,1.12
					c-1.312,0-2.385-0.374-3.221-1.124s-1.253-1.786-1.253-3.108v-8.027h1.635v8.027c0,0.924,0.264,1.647,0.793,2.17
					c0.528,0.523,1.21,0.785,2.046,0.785c0.885,0,1.606-0.262,2.162-0.785c0.557-0.522,0.834-1.246,0.834-2.17v-8.027H51.358z"/>
			</g>
			<g>
				<path fill="#A7A9AC" d="M62.237,302.394h-1.635l-5.819-9.23l-0.05,0.017v9.214h-1.635v-12.086h1.635l5.819,9.223l0.05-0.018
					v-9.205h1.635V302.394z"/>
			</g>
			<g>
				<path fill="#A7A9AC" d="M71.63,291.595c-1.527,1.814-2.56,3.417-3.096,4.806s-0.805,2.946-0.805,4.673v1.32h-1.635v-1.32
					c0-1.826,0.336-3.471,1.009-4.935c0.672-1.464,1.645-2.979,2.917-4.544h-6.408v-1.287h8.019V291.595z"/>
			</g>
			<g>
				<path fill="#A7A9AC" d="M80.161,298.127c0,1.367-0.347,2.448-1.042,3.245c-0.694,0.797-1.628,1.195-2.801,1.195
					c-1.167,0-2.102-0.398-2.801-1.195c-0.7-0.797-1.05-1.878-1.05-3.245v-3.553c0-1.355,0.347-2.435,1.042-3.237
					c0.695-0.803,1.626-1.203,2.793-1.203c1.173,0,2.11,0.4,2.81,1.203c0.7,0.803,1.05,1.882,1.05,3.237V298.127z M78.525,294.233
					c0-0.868-0.194-1.555-0.581-2.059c-0.387-0.503-0.935-0.755-1.644-0.755c-0.703,0-1.245,0.252-1.627,0.755
					c-0.382,0.504-0.573,1.19-0.573,2.059v4.226c0,0.869,0.195,1.558,0.585,2.067c0.391,0.509,0.934,0.764,1.631,0.764
					c0.708,0,1.253-0.254,1.635-0.76c0.382-0.507,0.573-1.197,0.573-2.071V294.233z"/>
			</g>
			<g>
				<path fill="#A7A9AC" d="M91.634,296.79H86.67v4.325h5.811v1.278h-7.446v-12.086h7.354v1.287H86.67v3.909h4.964V296.79z"/>
			</g>
			<g>
				<path fill="#A7A9AC" d="M96.387,296.724l1.909-3.312h1.909l-2.914,4.44l2.997,4.541h-1.876l-1.992-3.395l-1.992,3.395h-1.893
					l2.997-4.541l-2.914-4.44h1.884L96.387,296.724z"/>
			</g>
			<g>
				<path fill="#A7A9AC" d="M108.693,298.243c0,1.295-0.31,2.34-0.93,3.134s-1.475,1.19-2.565,1.19
					c-0.553,0-1.039-0.092-1.457-0.277c-0.417-0.186-0.773-0.464-1.066-0.834v4.391h-1.635v-12.435h1.253l0.257,1.162
					c0.293-0.432,0.659-0.761,1.096-0.987c0.437-0.228,0.946-0.341,1.527-0.341c1.112,0,1.977,0.441,2.594,1.324
					c0.617,0.883,0.925,2.049,0.925,3.499V298.243z M107.058,298.069c0-1.019-0.201-1.855-0.602-2.512
					c-0.401-0.655-0.992-0.983-1.772-0.983c-0.47,0-0.872,0.106-1.204,0.319s-0.601,0.505-0.805,0.876v4.341
					c0.205,0.371,0.473,0.66,0.805,0.868c0.332,0.207,0.739,0.312,1.22,0.312c0.775,0,1.361-0.284,1.76-0.852
					s0.598-1.299,0.598-2.195V298.069z"/>
			</g>
			<g>
				<path fill="#A7A9AC" d="M114.103,294.856l-0.838-0.05c-0.432,0-0.795,0.103-1.092,0.308c-0.296,0.204-0.524,0.492-0.685,0.863
					v6.416h-1.635v-8.981h1.461l0.158,1.312c0.254-0.465,0.568-0.827,0.942-1.088c0.373-0.26,0.804-0.39,1.291-0.39
					c0.122,0,0.238,0.01,0.349,0.029s0.202,0.04,0.274,0.062L114.103,294.856z"/>
			</g>
			<g>
				<path fill="#A7A9AC" d="M118.515,302.567c-1.29,0-2.295-0.412-3.017-1.236c-0.723-0.824-1.083-1.909-1.083-3.254v-0.365
					c0-1.289,0.372-2.356,1.117-3.2c0.744-0.844,1.653-1.266,2.727-1.266c1.201,0,2.102,0.374,2.702,1.12
					c0.6,0.748,0.9,1.741,0.9,2.98v0.863h-5.744l-0.025,0.041c0,0.902,0.199,1.635,0.598,2.196s1.007,0.843,1.826,0.843
					c0.553,0,1.039-0.079,1.457-0.237c0.418-0.157,0.776-0.375,1.075-0.651l0.639,1.063c-0.321,0.31-0.744,0.571-1.27,0.784
					S119.257,302.567,118.515,302.567z M118.258,294.532c-0.57,0-1.042,0.221-1.415,0.66c-0.374,0.44-0.602,1.003-0.685,1.689
					l0.017,0.041h4.051v-0.133c0-0.652-0.161-1.192-0.481-1.618S118.927,294.532,118.258,294.532z"/>
			</g>
			<g>
				<path fill="#A7A9AC" d="M128.066,299.978c0-0.359-0.137-0.652-0.411-0.879c-0.273-0.228-0.792-0.427-1.556-0.598
					c-1.057-0.228-1.869-0.546-2.436-0.955c-0.567-0.409-0.851-0.957-0.851-1.644c0-0.73,0.311-1.355,0.934-1.876
					c0.622-0.521,1.429-0.78,2.419-0.78c1.018,0,1.843,0.276,2.474,0.83s0.933,1.198,0.905,1.935l-0.017,0.049h-1.561
					c0-0.387-0.17-0.738-0.511-1.054c-0.34-0.315-0.771-0.474-1.291-0.474c-0.576,0-1.006,0.131-1.291,0.391
					c-0.285,0.26-0.428,0.57-0.428,0.93c0,0.354,0.123,0.628,0.369,0.822c0.247,0.193,0.754,0.37,1.523,0.531
					c1.101,0.232,1.937,0.562,2.507,0.987s0.855,0.982,0.855,1.669c0,0.797-0.322,1.446-0.967,1.95
					c-0.645,0.504-1.487,0.755-2.527,0.755c-1.146,0-2.047-0.29-2.706-0.871s-0.971-1.259-0.938-2.033l0.017-0.051h1.561
					c0.028,0.582,0.244,1.006,0.647,1.274s0.877,0.403,1.419,0.403c0.581,0,1.036-0.124,1.365-0.37
					C127.901,300.674,128.066,300.36,128.066,299.978z"/>
			</g>
			<g>
				<path fill="#A7A9AC" d="M136.106,299.978c0-0.359-0.137-0.652-0.411-0.879c-0.273-0.228-0.792-0.427-1.556-0.598
					c-1.057-0.228-1.869-0.546-2.436-0.955c-0.567-0.409-0.851-0.957-0.851-1.644c0-0.73,0.311-1.355,0.934-1.876
					c0.622-0.521,1.429-0.78,2.419-0.78c1.018,0,1.843,0.276,2.474,0.83s0.933,1.198,0.905,1.935l-0.017,0.049h-1.561
					c0-0.387-0.17-0.738-0.511-1.054c-0.34-0.315-0.771-0.474-1.291-0.474c-0.576,0-1.006,0.131-1.291,0.391
					c-0.285,0.26-0.428,0.57-0.428,0.93c0,0.354,0.123,0.628,0.369,0.822c0.247,0.193,0.754,0.37,1.523,0.531
					c1.101,0.232,1.937,0.562,2.507,0.987s0.855,0.982,0.855,1.669c0,0.797-0.322,1.446-0.967,1.95
					c-0.645,0.504-1.487,0.755-2.527,0.755c-1.146,0-2.047-0.29-2.706-0.871s-0.971-1.259-0.938-2.033l0.017-0.051h1.561
					c0.028,0.582,0.244,1.006,0.647,1.274s0.877,0.403,1.419,0.403c0.581,0,1.036-0.124,1.365-0.37
					C135.941,300.674,136.106,300.36,136.106,299.978z"/>
			</g>
			<g>
				<path fill="#A7A9AC" d="M148.966,299.347c0-0.547-0.196-1.007-0.589-1.377c-0.393-0.371-1.084-0.687-2.075-0.947
					c-1.229-0.304-2.187-0.752-2.876-1.344c-0.688-0.593-1.033-1.337-1.033-2.233c0-0.946,0.371-1.735,1.112-2.366
					s1.705-0.945,2.889-0.945c1.273,0,2.287,0.36,3.042,1.083c0.756,0.722,1.122,1.564,1.1,2.527l-0.025,0.05h-1.561
					c0-0.687-0.239-1.254-0.718-1.701c-0.479-0.449-1.092-0.673-1.839-0.673c-0.764,0-1.349,0.186-1.756,0.556
					c-0.406,0.371-0.61,0.853-0.61,1.445c0,0.525,0.223,0.964,0.668,1.315c0.445,0.352,1.169,0.659,2.17,0.925
					c1.217,0.316,2.145,0.781,2.781,1.395c0.636,0.615,0.955,1.373,0.955,2.275c0,0.974-0.383,1.757-1.15,2.349
					c-0.766,0.592-1.767,0.888-3,0.888c-1.167,0-2.198-0.326-3.092-0.979c-0.894-0.653-1.327-1.527-1.299-2.623l0.017-0.051h1.561
					c0,0.759,0.288,1.344,0.863,1.756s1.226,0.619,1.951,0.619c0.775,0,1.388-0.175,1.838-0.523
					C148.74,300.418,148.966,299.944,148.966,299.347z"/>
			</g>
			<g>
				<path fill="#A7A9AC" d="M152.067,302.394v-12.086h3.802c1.577,0,2.846,0.485,3.806,1.457c0.96,0.971,1.44,2.226,1.44,3.764
					v1.652c0,1.544-0.48,2.799-1.44,3.765c-0.96,0.966-2.229,1.448-3.806,1.448H152.067z M153.702,291.595v9.521h2.167
					c1.118,0,1.999-0.368,2.644-1.104c0.645-0.735,0.967-1.679,0.967-2.83v-1.668c0-1.141-0.322-2.078-0.967-2.814
					c-0.645-0.736-1.526-1.104-2.644-1.104H153.702z"/>
			</g>
			<g>
				<path fill="#A7A9AC" d="M171.421,300.767c-0.288,0.448-0.787,0.86-1.499,1.236c-0.711,0.377-1.634,0.564-2.768,0.564
					c-1.395,0-2.548-0.462-3.461-1.386s-1.37-2.119-1.37-3.586v-2.49c0-1.467,0.44-2.662,1.32-3.586s2.014-1.386,3.403-1.386
					c1.345,0,2.407,0.357,3.188,1.074s1.159,1.629,1.137,2.735l-0.017,0.05h-1.569c0-0.736-0.238-1.349-0.714-1.839
					c-0.476-0.489-1.151-0.734-2.025-0.734c-0.924,0-1.668,0.346-2.233,1.038c-0.564,0.691-0.847,1.568-0.847,2.631v2.507
					c0,1.073,0.299,1.958,0.896,2.652s1.361,1.042,2.291,1.042c0.714,0,1.28-0.093,1.698-0.278c0.417-0.186,0.729-0.405,0.934-0.66
					v-2.723h-2.739v-1.278h4.375V300.767z"/>
			</g>
			<g>
				<path fill="#A7A9AC" d="M184.197,298.243c0,1.295-0.31,2.34-0.93,3.134s-1.475,1.19-2.565,1.19
					c-0.553,0-1.039-0.092-1.457-0.277c-0.417-0.186-0.773-0.464-1.066-0.834v4.391h-1.635v-12.435h1.253l0.257,1.162
					c0.293-0.432,0.659-0.761,1.096-0.987c0.437-0.228,0.946-0.341,1.527-0.341c1.112,0,1.977,0.441,2.594,1.324
					c0.617,0.883,0.925,2.049,0.925,3.499V298.243z M182.562,298.069c0-1.019-0.201-1.855-0.602-2.512
					c-0.401-0.655-0.992-0.983-1.772-0.983c-0.47,0-0.872,0.106-1.204,0.319s-0.601,0.505-0.805,0.876v4.341
					c0.205,0.371,0.473,0.66,0.805,0.868c0.332,0.207,0.739,0.312,1.22,0.312c0.775,0,1.361-0.284,1.76-0.852
					s0.598-1.299,0.598-2.195V298.069z"/>
			</g>
			<g>
				<path fill="#A7A9AC" d="M189.606,294.856l-0.838-0.05c-0.432,0-0.795,0.103-1.092,0.308c-0.296,0.204-0.524,0.492-0.685,0.863
					v6.416h-1.635v-8.981h1.461l0.158,1.312c0.254-0.465,0.568-0.827,0.942-1.088c0.373-0.26,0.804-0.39,1.291-0.39
					c0.122,0,0.238,0.01,0.349,0.029s0.202,0.04,0.274,0.062L189.606,294.856z"/>
			</g>
			<g>
				<path fill="#A7A9AC" d="M189.91,297.819c0-1.328,0.36-2.422,1.079-3.282s1.696-1.291,2.93-1.291
					c1.245,0,2.229,0.429,2.951,1.286c0.722,0.858,1.083,1.954,1.083,3.287v0.184c0,1.339-0.36,2.435-1.079,3.287
					c-0.719,0.852-1.699,1.277-2.938,1.277s-2.221-0.427-2.942-1.282c-0.723-0.854-1.083-1.949-1.083-3.282V297.819z
					 M191.545,298.003c0,0.951,0.201,1.737,0.602,2.357c0.401,0.619,0.998,0.93,1.789,0.93c0.78,0,1.373-0.311,1.776-0.93
					c0.404-0.62,0.606-1.406,0.606-2.357v-0.184c0-0.94-0.204-1.724-0.61-2.349c-0.407-0.625-1.003-0.938-1.789-0.938
					c-0.78,0-1.371,0.313-1.772,0.938c-0.401,0.625-0.602,1.408-0.602,2.349V298.003z"/>
			</g>
			<g>
				<path fill="#A7A9AC" d="M200.565,293.412l0.116,1.179c0.293-0.426,0.666-0.757,1.117-0.992c0.451-0.235,0.975-0.353,1.573-0.353
					s1.111,0.139,1.54,0.415c0.429,0.276,0.751,0.691,0.967,1.245c0.288-0.515,0.663-0.92,1.125-1.216
					c0.462-0.296,1.003-0.444,1.623-0.444c0.913,0,1.635,0.314,2.167,0.942s0.797,1.572,0.797,2.834v5.371h-1.635v-5.387
					c0-0.886-0.152-1.513-0.457-1.881s-0.758-0.552-1.361-0.552c-0.559,0-1.011,0.193-1.357,0.581
					c-0.346,0.388-0.549,0.877-0.61,1.469v0.066v5.703h-1.644v-5.387c0-0.842-0.156-1.457-0.469-1.848
					c-0.313-0.39-0.763-0.585-1.349-0.585c-0.498,0-0.908,0.103-1.229,0.308c-0.321,0.204-0.567,0.492-0.739,0.863v6.648h-1.635
					v-8.981H200.565z"/>
			</g>
			<g>
				<path fill="#A7A9AC" d="M212.73,297.819c0-1.328,0.36-2.422,1.079-3.282s1.696-1.291,2.93-1.291
					c1.245,0,2.229,0.429,2.951,1.286c0.722,0.858,1.083,1.954,1.083,3.287v0.184c0,1.339-0.36,2.435-1.079,3.287
					c-0.719,0.852-1.699,1.277-2.938,1.277s-2.221-0.427-2.942-1.282c-0.723-0.854-1.083-1.949-1.083-3.282V297.819z
					 M214.366,298.003c0,0.951,0.201,1.737,0.602,2.357c0.401,0.619,0.998,0.93,1.789,0.93c0.78,0,1.373-0.311,1.776-0.93
					c0.404-0.62,0.606-1.406,0.606-2.357v-0.184c0-0.94-0.204-1.724-0.61-2.349c-0.407-0.625-1.003-0.938-1.789-0.938
					c-0.78,0-1.371,0.313-1.772,0.938c-0.401,0.625-0.602,1.408-0.602,2.349V298.003z"/>
			</g>
			<g>
				<path fill="#A7A9AC" d="M224.199,291.245v2.167h1.702v1.212h-1.702v5.453c0,0.421,0.087,0.717,0.261,0.889
					c0.175,0.172,0.406,0.258,0.693,0.258c0.094,0,0.199-0.013,0.315-0.038c0.116-0.024,0.213-0.051,0.291-0.079l0.224,1.121
					c-0.122,0.1-0.302,0.182-0.54,0.245s-0.473,0.095-0.706,0.095c-0.664,0-1.192-0.2-1.585-0.602s-0.589-1.03-0.589-1.889v-5.453
					h-1.428v-1.212h1.428v-2.167H224.199z"/>
			</g>
			<g>
				<path fill="#A7A9AC" d="M228.57,291.112h-1.635v-1.668h1.635V291.112z M228.57,302.394h-1.635v-8.981h1.635V302.394z"/>
			</g>
			<g>
				<path fill="#A7A9AC" d="M229.854,297.819c0-1.328,0.36-2.422,1.079-3.282s1.696-1.291,2.93-1.291
					c1.245,0,2.229,0.429,2.951,1.286c0.722,0.858,1.083,1.954,1.083,3.287v0.184c0,1.339-0.36,2.435-1.079,3.287
					c-0.719,0.852-1.699,1.277-2.938,1.277s-2.221-0.427-2.942-1.282c-0.723-0.854-1.083-1.949-1.083-3.282V297.819z
					 M231.489,298.003c0,0.951,0.201,1.737,0.602,2.357c0.401,0.619,0.998,0.93,1.789,0.93c0.78,0,1.373-0.311,1.776-0.93
					c0.404-0.62,0.606-1.406,0.606-2.357v-0.184c0-0.94-0.204-1.724-0.61-2.349c-0.407-0.625-1.003-0.938-1.789-0.938
					c-0.78,0-1.371,0.313-1.772,0.938c-0.401,0.625-0.602,1.408-0.602,2.349V298.003z"/>
			</g>
			<g>
				<path fill="#A7A9AC" d="M240.508,293.412l0.116,1.337c0.299-0.477,0.674-0.846,1.125-1.108c0.451-0.263,0.964-0.395,1.54-0.395
					c0.968,0,1.718,0.283,2.25,0.851s0.797,1.443,0.797,2.627v5.67H244.7v-5.637c0-0.791-0.156-1.353-0.469-1.685
					c-0.313-0.332-0.79-0.498-1.432-0.498c-0.503,0-0.931,0.101-1.283,0.303c-0.351,0.202-0.629,0.485-0.834,0.851v6.666h-1.635
					v-8.981H240.508z"/>
			</g>
			<g>
				<path fill="#A7A9AC" d="M254.804,301.29c0.503,0,0.943-0.168,1.32-0.503s0.564-0.745,0.564-1.232h1.478l0.025,0.05
					c0.022,0.774-0.31,1.462-0.996,2.063s-1.483,0.9-2.391,0.9c-1.262,0-2.236-0.429-2.922-1.286s-1.029-1.926-1.029-3.204v-0.349
					c0-1.268,0.344-2.331,1.034-3.191c0.688-0.86,1.661-1.291,2.917-1.291c1.001,0,1.822,0.31,2.461,0.93
					c0.639,0.62,0.947,1.381,0.925,2.282l-0.017,0.051h-1.486c0-0.549-0.179-1.015-0.535-1.399
					c-0.357-0.385-0.807-0.577-1.349-0.577c-0.802,0-1.388,0.312-1.755,0.935c-0.368,0.622-0.552,1.376-0.552,2.262v0.349
					c0,0.902,0.181,1.663,0.543,2.283C253.402,300.979,253.99,301.29,254.804,301.29z"/>
			</g>
			<g>
				<path fill="#A7A9AC" d="M264.803,302.394c-0.055-0.271-0.098-0.511-0.129-0.718c-0.03-0.208-0.048-0.417-0.054-0.627
					c-0.304,0.432-0.701,0.793-1.191,1.083c-0.489,0.291-1.017,0.436-1.581,0.436c-0.935,0-1.647-0.239-2.138-0.718
					c-0.489-0.479-0.734-1.139-0.734-1.979c0-0.857,0.347-1.528,1.042-2.013c0.694-0.484,1.636-0.727,2.826-0.727h1.776v-0.888
					c0-0.526-0.161-0.942-0.481-1.25c-0.321-0.307-0.775-0.461-1.361-0.461c-0.531,0-0.96,0.133-1.287,0.398s-0.49,0.584-0.49,0.955
					l-1.552,0.017l-0.017-0.05c-0.039-0.653,0.267-1.251,0.917-1.793c0.65-0.542,1.49-0.813,2.519-0.813
					c1.018,0,1.837,0.259,2.457,0.776s0.93,1.263,0.93,2.236v4.325c0,0.321,0.017,0.631,0.05,0.93s0.094,0.592,0.183,0.88H264.803z
					 M262.089,301.198c0.592,0,1.126-0.152,1.602-0.457c0.476-0.304,0.786-0.652,0.93-1.045v-1.461h-1.834
					c-0.659,0-1.186,0.166-1.582,0.498c-0.396,0.332-0.593,0.722-0.593,1.17c0,0.398,0.125,0.714,0.374,0.946
					S261.602,301.198,262.089,301.198z"/>
			</g>
			<g>
				<path fill="#A7A9AC" d="M269.241,293.412l0.116,1.179c0.293-0.426,0.666-0.757,1.117-0.992c0.451-0.235,0.975-0.353,1.573-0.353
					s1.111,0.139,1.54,0.415c0.429,0.276,0.751,0.691,0.967,1.245c0.288-0.515,0.663-0.92,1.125-1.216
					c0.462-0.296,1.003-0.444,1.623-0.444c0.913,0,1.635,0.314,2.167,0.942s0.797,1.572,0.797,2.834v5.371h-1.635v-5.387
					c0-0.886-0.152-1.513-0.457-1.881s-0.758-0.552-1.361-0.552c-0.559,0-1.011,0.193-1.357,0.581
					c-0.346,0.388-0.549,0.877-0.61,1.469v0.066v5.703H273.2v-5.387c0-0.842-0.156-1.457-0.469-1.848
					c-0.313-0.39-0.763-0.585-1.349-0.585c-0.498,0-0.908,0.103-1.229,0.308c-0.321,0.204-0.567,0.492-0.739,0.863v6.648h-1.635
					v-8.981H269.241z"/>
			</g>
			<g>
				<path fill="#A7A9AC" d="M289.441,298.243c0,1.295-0.31,2.34-0.93,3.134s-1.475,1.19-2.565,1.19
					c-0.553,0-1.039-0.092-1.457-0.277c-0.417-0.186-0.773-0.464-1.066-0.834v4.391h-1.635v-12.435h1.253l0.257,1.162
					c0.293-0.432,0.659-0.761,1.096-0.987c0.437-0.228,0.946-0.341,1.527-0.341c1.112,0,1.977,0.441,2.594,1.324
					c0.617,0.883,0.925,2.049,0.925,3.499V298.243z M287.806,298.069c0-1.019-0.201-1.855-0.602-2.512
					c-0.401-0.655-0.992-0.983-1.772-0.983c-0.47,0-0.872,0.106-1.204,0.319s-0.601,0.505-0.805,0.876v4.341
					c0.205,0.371,0.473,0.66,0.805,0.868c0.332,0.207,0.739,0.312,1.22,0.312c0.775,0,1.361-0.284,1.76-0.852
					s0.598-1.299,0.598-2.195V298.069z"/>
			</g>
			<g>
				<path fill="#A7A9AC" d="M296.12,302.394c-0.055-0.271-0.098-0.511-0.129-0.718c-0.03-0.208-0.048-0.417-0.054-0.627
					c-0.304,0.432-0.701,0.793-1.191,1.083c-0.489,0.291-1.017,0.436-1.581,0.436c-0.935,0-1.647-0.239-2.138-0.718
					c-0.489-0.479-0.734-1.139-0.734-1.979c0-0.857,0.347-1.528,1.042-2.013c0.694-0.484,1.636-0.727,2.826-0.727h1.776v-0.888
					c0-0.526-0.161-0.942-0.481-1.25c-0.321-0.307-0.775-0.461-1.361-0.461c-0.531,0-0.96,0.133-1.287,0.398s-0.49,0.584-0.49,0.955
					l-1.552,0.017l-0.017-0.05c-0.039-0.653,0.267-1.251,0.917-1.793c0.65-0.542,1.49-0.813,2.519-0.813
					c1.018,0,1.837,0.259,2.457,0.776s0.93,1.263,0.93,2.236v4.325c0,0.321,0.017,0.631,0.05,0.93s0.094,0.592,0.183,0.88H296.12z
					 M293.406,301.198c0.592,0,1.126-0.152,1.602-0.457c0.476-0.304,0.786-0.652,0.93-1.045v-1.461h-1.834
					c-0.659,0-1.186,0.166-1.582,0.498c-0.396,0.332-0.593,0.722-0.593,1.17c0,0.398,0.125,0.714,0.374,0.946
					S292.919,301.198,293.406,301.198z"/>
			</g>
			<g>
				<path fill="#A7A9AC" d="M300.865,291.112h-1.635v-1.668h1.635V291.112z M300.865,302.394h-1.635v-8.981h1.635V302.394z"/>
			</g>
			<g>
				<path fill="#A7A9AC" d="M302.24,298.069c0-1.445,0.309-2.609,0.926-3.495c0.617-0.886,1.479-1.328,2.585-1.328
					c0.57,0,1.071,0.115,1.502,0.345s0.794,0.561,1.087,0.992l0.199-1.171h1.303v9.031c0,1.151-0.335,2.035-1.004,2.652
					s-1.635,0.925-2.897,0.925c-0.432,0-0.898-0.059-1.398-0.178c-0.501-0.119-0.942-0.281-1.324-0.486l0.249-1.27
					c0.315,0.166,0.696,0.3,1.142,0.402c0.445,0.103,0.884,0.154,1.315,0.154c0.797,0,1.376-0.182,1.739-0.544
					c0.362-0.362,0.543-0.915,0.543-1.656v-1.021c-0.293,0.376-0.645,0.661-1.054,0.854s-0.883,0.29-1.419,0.29
					c-1.096,0-1.952-0.396-2.569-1.19c-0.617-0.794-0.926-1.839-0.926-3.134V298.069z M303.875,298.243
					c0,0.902,0.186,1.627,0.556,2.175s0.943,0.821,1.718,0.821c0.493,0,0.905-0.111,1.237-0.336c0.332-0.224,0.606-0.541,0.822-0.95
					v-4.134c-0.21-0.382-0.484-0.685-0.822-0.909c-0.337-0.224-0.744-0.336-1.22-0.336c-0.78,0-1.357,0.323-1.731,0.972
					c-0.373,0.646-0.56,1.488-0.56,2.523V298.243z"/>
			</g>
			<g>
				<path fill="#A7A9AC" d="M312.803,293.412l0.116,1.337c0.299-0.477,0.674-0.846,1.125-1.108c0.451-0.263,0.964-0.395,1.54-0.395
					c0.968,0,1.718,0.283,2.25,0.851s0.797,1.443,0.797,2.627v5.67h-1.635v-5.637c0-0.791-0.156-1.353-0.469-1.685
					c-0.313-0.332-0.79-0.498-1.432-0.498c-0.503,0-0.931,0.101-1.283,0.303c-0.351,0.202-0.629,0.485-0.834,0.851v6.666h-1.635
					v-8.981H312.803z"/>
			</g>
		</g>
	</g>
	<g>
		<g>
			<g>
				<path fill="#0074A8" d="M125.001,253.722v5.152h-1.738V246.03h4.914c1.37,0,2.436,0.353,3.198,1.059
					c0.761,0.706,1.142,1.635,1.142,2.787c0,1.165-0.381,2.097-1.142,2.796c-0.762,0.7-1.828,1.05-3.198,1.05H125.001z
					 M125.001,252.364h3.176c0.87,0,1.52-0.234,1.949-0.701c0.43-0.468,0.644-1.057,0.644-1.769c0-0.712-0.216-1.306-0.648-1.782
					c-0.433-0.476-1.081-0.714-1.945-0.714h-3.176V252.364z"/>
			</g>
			<g>
				<path fill="#0074A8" d="M139.804,255.566h-4.834l-1.147,3.308h-1.773l4.631-12.844h1.491l4.534,12.844h-1.773L139.804,255.566z
					 M135.472,254.11h3.837l-1.87-5.513h-0.053L135.472,254.11z"/>
			</g>
			<g>
				<path fill="#0074A8" d="M145.97,253.308v5.566h-1.738v-12.835h4.393c1.405,0,2.479,0.312,3.22,0.935
					c0.741,0.623,1.111,1.529,1.111,2.717c0,0.659-0.172,1.232-0.516,1.72c-0.344,0.488-0.845,0.876-1.504,1.165
					c0.706,0.229,1.213,0.601,1.521,1.116c0.309,0.515,0.463,1.151,0.463,1.91v1.209c0,0.4,0.044,0.758,0.132,1.076
					c0.088,0.317,0.241,0.576,0.459,0.776v0.212h-1.791c-0.229-0.2-0.376-0.494-0.441-0.882c-0.065-0.388-0.097-0.788-0.097-1.2
					v-1.173c0-0.694-0.203-1.253-0.609-1.676s-0.95-0.635-1.632-0.635H145.97z M145.97,251.94h2.479c0.982,0,1.689-0.187,2.121-0.56
					c0.433-0.374,0.648-0.942,0.648-1.707c0-0.723-0.21-1.284-0.631-1.681c-0.42-0.397-1.075-0.595-1.962-0.595h-2.655V251.94z"/>
			</g>
			<g>
				<path fill="#0074A8" d="M163.64,247.397h-4.234v11.477h-1.738v-11.477h-4.181v-1.367h10.153V247.397z"/>
			</g>
			<g>
				<path fill="#0074A8" d="M167.027,258.874h-1.747V246.03h1.747V258.874z"/>
			</g>
			<g>
				<path fill="#0074A8" d="M179.016,254.763l0.018,0.053c0.023,1.206-0.4,2.214-1.27,3.025c-0.871,0.812-2.021,1.217-3.449,1.217
					c-1.453,0-2.636-0.514-3.551-1.543s-1.372-2.335-1.372-3.917v-2.285c0-1.582,0.457-2.889,1.372-3.921s2.098-1.548,3.551-1.548
					c1.452,0,2.608,0.387,3.467,1.16c0.858,0.773,1.276,1.798,1.252,3.074l-0.018,0.053h-1.667c0-0.899-0.265-1.611-0.794-2.135
					c-0.529-0.523-1.276-0.785-2.24-0.785c-0.971,0-1.744,0.392-2.32,1.173c-0.576,0.782-0.864,1.753-0.864,2.911v2.302
					c0,1.17,0.288,2.147,0.864,2.929c0.576,0.782,1.35,1.173,2.32,1.173c0.964,0,1.711-0.26,2.24-0.781s0.794-1.239,0.794-2.157
					H179.016z"/>
			</g>
			<g>
				<path fill="#0074A8" d="M182.854,258.874h-1.747V246.03h1.747V258.874z"/>
			</g>
			<g>
				<path fill="#0074A8" d="M187.415,253.722v5.152h-1.738V246.03h4.914c1.37,0,2.436,0.353,3.198,1.059
					c0.762,0.706,1.143,1.635,1.143,2.787c0,1.165-0.381,2.097-1.143,2.796c-0.762,0.7-1.828,1.05-3.198,1.05H187.415z
					 M187.415,252.364h3.176c0.871,0,1.52-0.234,1.95-0.701c0.429-0.468,0.644-1.057,0.644-1.769c0-0.712-0.216-1.306-0.648-1.782
					c-0.432-0.476-1.081-0.714-1.945-0.714h-3.176V252.364z"/>
			</g>
			<g>
				<path fill="#0074A8" d="M202.217,255.566h-4.834l-1.147,3.308h-1.773l4.631-12.844h1.491l4.534,12.844h-1.773L202.217,255.566z
					 M197.886,254.11h3.837l-1.87-5.513H199.8L197.886,254.11z"/>
			</g>
			<g>
				<path fill="#0074A8" d="M216.358,258.874h-1.738l-6.184-9.81l-0.053,0.018v9.792h-1.738V246.03h1.738l6.184,9.8l0.053-0.018
					v-9.783h1.738V258.874z"/>
			</g>
			<g>
				<path fill="#0074A8" d="M227.729,247.397h-4.234v11.477h-1.738v-11.477h-4.181v-1.367h10.153V247.397z"/>
			</g>
			<g>
				<path fill="#0074A8" d="M235.898,255.637c0-0.583-0.209-1.07-0.626-1.464c-0.418-0.394-1.153-0.729-2.206-1.006
					c-1.306-0.323-2.325-0.8-3.057-1.429c-0.732-0.629-1.098-1.42-1.098-2.373c0-1.006,0.394-1.844,1.182-2.514
					s1.812-1.006,3.07-1.006c1.353,0,2.43,0.384,3.233,1.151s1.192,1.663,1.169,2.686l-0.027,0.053h-1.658
					c0-0.729-0.254-1.332-0.763-1.808c-0.509-0.477-1.16-0.715-1.954-0.715c-0.812,0-1.434,0.197-1.866,0.591
					c-0.432,0.394-0.648,0.906-0.648,1.535c0,0.559,0.237,1.025,0.71,1.398s1.242,0.701,2.307,0.983
					c1.293,0.335,2.278,0.83,2.955,1.482c0.676,0.653,1.014,1.459,1.014,2.417c0,1.035-0.407,1.867-1.222,2.496
					c-0.814,0.629-1.877,0.944-3.189,0.944c-1.241,0-2.336-0.347-3.286-1.041s-1.41-1.624-1.38-2.788l0.018-0.053h1.659
					c0,0.806,0.306,1.428,0.917,1.866c0.612,0.438,1.303,0.657,2.073,0.657c0.823,0,1.475-0.185,1.954-0.556
					C235.659,256.774,235.898,256.271,235.898,255.637z"/>
			</g>
		</g>
		<g>
			<g>
				<path fill="#0074A8" d="M116.997,198.01h3.46c1.313,0,2.277-0.461,2.892-1.384c0.615-0.922,0.922-2.153,0.922-3.694
					c0-1.472-0.315-2.619-0.947-3.44s-1.478-1.231-2.539-1.231c-0.994,0-1.806,0.392-2.437,1.176s-0.947,1.772-0.947,2.966h-7.148
					c0-1.92,0.442-3.641,1.326-5.165s2.122-2.715,3.713-3.574c1.591-0.858,3.354-1.288,5.291-1.288c3.385,0,6.037,0.935,7.956,2.804
					c1.92,1.869,2.879,4.429,2.879,7.678c0,1.667-0.434,3.212-1.301,4.634c-0.867,1.423-2.008,2.513-3.422,3.271
					c1.734,0.741,3.026,1.853,3.877,3.334c0.85,1.482,1.275,3.233,1.275,5.253c0,3.267-1.04,5.885-3.119,7.855
					c-2.08,1.97-4.812,2.955-8.196,2.955c-3.149,0-5.704-0.973-7.666-2.917c-1.962-1.945-2.942-4.5-2.942-7.666h7.147
					c0,1.328,0.345,2.442,1.036,3.345c0.69,0.902,1.565,1.353,2.626,1.353c1.229,0,2.201-0.457,2.917-1.37
					c0.715-0.914,1.074-2.132,1.074-3.655c0-3.638-1.406-5.465-4.218-5.482h-3.51V198.01z"/>
			</g>
			<g>
				<path fill="#0074A8" d="M158.166,204.451c0,5.085-0.922,8.975-2.766,11.668c-1.844,2.694-4.475,4.042-7.893,4.042
					c-3.384,0-5.998-1.309-7.842-3.928c-1.844-2.618-2.8-6.369-2.867-11.252v-6.946c0-5.068,0.917-8.945,2.753-11.63
					c1.835-2.686,4.47-4.029,7.905-4.029s6.07,1.331,7.906,3.991c1.835,2.661,2.77,6.458,2.803,11.391V204.451z M150.993,196.983
					c0-2.907-0.287-5.088-0.859-6.542c-0.573-1.454-1.465-2.181-2.677-2.181c-2.273,0-3.452,2.663-3.536,7.987v9.204
					c0,2.976,0.29,5.189,0.871,6.644c0.581,1.454,1.486,2.18,2.715,2.18c1.162,0,2.025-0.68,2.589-2.041
					c0.564-1.361,0.863-3.444,0.897-6.25V196.983z"/>
			</g>
			<g>
				<path fill="#0074A8" d="M165.288,228.924l-3.814-1.995l0.96-1.793c1.077-1.987,1.633-3.991,1.667-6.011v-5.683h6.213
					l-0.025,5.077c-0.017,1.785-0.472,3.637-1.364,5.557S166.82,227.611,165.288,228.924z"/>
			</g>
			<g>
				<path fill="#0074A8" d="M197.036,204.451c0,5.085-0.922,8.975-2.766,11.668c-1.844,2.694-4.475,4.042-7.893,4.042
					c-3.384,0-5.999-1.309-7.842-3.928c-1.844-2.618-2.8-6.369-2.867-11.252v-6.946c0-5.068,0.917-8.945,2.753-11.63
					c1.835-2.686,4.471-4.029,7.905-4.029c3.435,0,6.07,1.331,7.906,3.991c1.835,2.661,2.77,6.458,2.803,11.391V204.451z
					 M189.863,196.983c0-2.907-0.287-5.088-0.859-6.542c-0.572-1.454-1.465-2.181-2.677-2.181c-2.273,0-3.452,2.663-3.536,7.987
					v9.204c0,2.976,0.29,5.189,0.871,6.644c0.581,1.454,1.486,2.18,2.715,2.18c1.162,0,2.024-0.68,2.589-2.041
					c0.564-1.361,0.863-3.444,0.896-6.25V196.983z"/>
			</g>
			<g>
				<path fill="#0074A8" d="M223.202,204.451c0,5.085-0.922,8.975-2.766,11.668c-1.844,2.694-4.475,4.042-7.893,4.042
					c-3.384,0-5.999-1.309-7.842-3.928c-1.844-2.618-2.8-6.369-2.867-11.252v-6.946c0-5.068,0.917-8.945,2.753-11.63
					s4.471-4.029,7.906-4.029c3.435,0,6.07,1.331,7.905,3.991c1.835,2.661,2.77,6.458,2.804,11.391V204.451z M216.029,196.983
					c0-2.907-0.287-5.088-0.859-6.542c-0.572-1.454-1.465-2.181-2.677-2.181c-2.273,0-3.452,2.663-3.536,7.987v9.204
					c0,2.976,0.291,5.189,0.871,6.644c0.581,1.454,1.486,2.18,2.715,2.18c1.162,0,2.024-0.68,2.589-2.041
					c0.564-1.361,0.863-3.444,0.896-6.25V196.983z"/>
			</g>
			<g>
				<path fill="#0074A8" d="M249.368,204.451c0,5.085-0.922,8.975-2.766,11.668c-1.844,2.694-4.475,4.042-7.893,4.042
					c-3.384,0-5.999-1.309-7.842-3.928c-1.844-2.618-2.799-6.369-2.866-11.252v-6.946c0-5.068,0.917-8.945,2.753-11.63
					c1.835-2.686,4.47-4.029,7.905-4.029c3.435,0,6.07,1.331,7.905,3.991c1.835,2.661,2.77,6.458,2.804,11.391V204.451z
					 M242.195,196.983c0-2.907-0.287-5.088-0.859-6.542c-0.573-1.454-1.465-2.181-2.677-2.181c-2.273,0-3.452,2.663-3.536,7.987
					v9.204c0,2.976,0.291,5.189,0.872,6.644c0.581,1.454,1.486,2.18,2.715,2.18c1.162,0,2.025-0.68,2.589-2.041
					s0.863-3.444,0.897-6.25V196.983z"/>
			</g>
		</g>
		<g opacity="0.6">
			<g>
				<rect x="106.87" y="231.445" fill="#66ABCB" width="142.327" height="3"/>
			</g>
		</g>
	</g>
</g>
</svg>
