<?xml version="1.0" encoding="utf-8"?>
<!-- Generator: Adobe Illustrator 16.0.0, SVG Export Plug-In . SVG Version: 6.00 Build 0)  -->
<!DOCTYPE svg PUBLIC "-//W3C//DTD SVG 1.1//EN" "http://www.w3.org/Graphics/SVG/1.1/DTD/svg11.dtd">
<svg version="1.1" id="Layer_1" xmlns="http://www.w3.org/2000/svg" xmlns:xlink="http://www.w3.org/1999/xlink" x="0px" y="0px"
	 width="360px" height="190px" viewBox="0 0 360 190" enable-background="new 0 0 360 190" xml:space="preserve">
<g>
	<rect fill="#EAEBEC" width="360" height="190"/>
</g>
<g>
	<g id="person-9">
		<g>
			<path fill="#808184" d="M290.359,99.514c3.171,0,5.758-2.585,5.758-5.758c0.003-3.175-2.587-5.757-5.758-5.757
				c-3.172,0-5.754,2.584-5.754,5.757S287.187,99.514,290.359,99.514z"/>
		</g>
		<g>
			<path fill="#808184" d="M289.999,101.044c-4.982,0-8.999,4.049-8.999,9.026V126h18v-15.93
				C299,105.093,294.976,101.044,289.999,101.044z"/>
		</g>
	</g>
	<g id="person-8">
		<g>
			<path fill="#808184" d="M259,134v-24.254c0-6.462,4.546-11.93,10.466-13.64c-3.385-1.512-5.646-4.911-5.646-8.853
				c0-5.342,4.396-9.688,9.735-9.688c2.583,0,5.04,1.008,6.873,2.839c1.834,1.833,2.856,4.266,2.854,6.85
				c0,3.941-2.26,7.34-5.647,8.851c5.919,1.71,10.365,7.178,10.365,13.64V134H259z"/>
		</g>
		<g>
			<path fill="#EAEBEC" d="M273.606,79.316c4.372,0,7.942,3.56,7.938,7.938c0,4.374-3.567,7.938-7.938,7.938
				c-4.375,0-7.934-3.564-7.934-7.938C265.672,82.879,269.231,79.316,273.606,79.316 M273.499,97.302
				c6.86,0,12.501,5.581,12.501,12.444V132h-25v-22.254C261,102.883,266.63,97.302,273.499,97.302 M273.606,75.816
				c-6.305,0-11.434,5.131-11.434,11.438c0,3.371,1.635,6.406,3.961,8.501c-4.943,2.711-8.133,7.966-8.133,13.991v22.081V135h3.162
				h24.89H290v-3.173v-22.081c0-6.024-3.583-11.278-8.526-13.99c2.328-2.095,3.682-5.13,3.682-8.502
				c0.003-3.05-1.245-5.923-3.411-8.087C279.582,77.006,276.656,75.816,273.606,75.816L273.606,75.816z"/>
		</g>
	</g>
	<g id="person-7">
		<g>
			<path fill="#808184" d="M233,144v-32.039c0-9.277,6.848-17.008,15.661-18.542c-5.582-1.307-9.689-6.328-9.689-12.305
				c0-6.968,5.698-12.637,12.663-12.637c3.369,0,6.556,1.315,8.947,3.704c2.393,2.391,3.717,5.563,3.714,8.935
				c0,5.881-3.911,10.837-9.363,12.238C263.943,94.72,271,102.544,271,111.961V144H233z"/>
		</g>
		<g>
			<path fill="#EAEBEC" d="M251.666,70.229c5.996,0,10.893,4.882,10.887,10.887c0,5.998-4.891,10.886-10.887,10.886
				c-6,0-10.881-4.888-10.881-10.886C240.784,75.114,245.666,70.229,251.666,70.229 M251.999,94.894
				c9.409,0,17.001,7.655,17.001,17.068V142h-34v-30.039C235,102.549,242.577,94.894,251.999,94.894 M251.666,66.729
				c-7.93,0-14.381,6.454-14.381,14.387c0,5.014,2.328,9.437,6.227,12.013C236.298,96.316,231,103.559,231,111.961V142v4h4h34h3v-4
				v-30.039c0-8.56-4.988-15.915-12.418-19.008c3.756-2.598,6.346-6.936,6.346-11.838c0.003-3.836-1.433-7.449-4.157-10.171
				C259.05,68.226,255.501,66.729,251.666,66.729L251.666,66.729z"/>
		</g>
	</g>
	<g id="person-6">
		<g>
			<g>
				<path fill="#0074A8" d="M222.05,84.859c-9.576,0-17.366-7.793-17.366-17.373s7.791-17.373,17.366-17.373
					c4.631,0,8.992,1.809,12.279,5.092c3.29,3.287,5.099,7.649,5.095,12.283C239.424,77.065,231.63,84.859,222.05,84.859z"/>
			</g>
			<g>
				<path fill="#EAEBEC" d="M222.05,52.113c8.467,0,15.382,6.894,15.374,15.373c0,8.471-6.907,15.373-15.374,15.373
					c-8.472,0-15.366-6.902-15.366-15.373C206.684,59.012,213.578,52.113,222.05,52.113 M222.05,48.113
					c-10.679,0-19.366,8.691-19.366,19.373s8.688,19.373,19.366,19.373c10.683,0,19.374-8.691,19.374-19.373
					c0.005-5.166-2.013-10.031-5.682-13.696C232.078,50.129,227.215,48.113,222.05,48.113L222.05,48.113z"/>
			</g>
		</g>
		<g>
			<g>
				<path fill="#0074A8" d="M196,156v-44.954c0-14.393,11.607-26.102,25.999-26.102c14.394,0,26.001,11.709,26.001,26.102V156H196z"
					/>
			</g>
			<g>
				<path fill="#EAEBEC" d="M221.999,86.944c13.286,0,24.001,10.81,24.001,24.102V154h-48v-42.954
					C198,97.754,208.694,86.944,221.999,86.944 M221.999,82.944c-15.495,0-27.999,12.606-27.999,28.102v42.764V158h3.949h48.204H250
					v-4.19v-42.764C250,95.551,237.495,82.944,221.999,82.944L221.999,82.944z"/>
			</g>
		</g>
	</g>
	<g id="person-1">
		<g>
			<path fill="#808184" d="M69.641,99.514c-3.171,0-5.758-2.585-5.758-5.758c-0.003-3.175,2.587-5.757,5.758-5.757
				c3.172,0,5.754,2.584,5.754,5.757S72.813,99.514,69.641,99.514z"/>
		</g>
		<g>
			<path fill="#808184" d="M70.001,101.044c4.982,0,8.999,4.049,8.999,9.026V126H61v-15.93
				C61,105.093,65.024,101.044,70.001,101.044z"/>
		</g>
	</g>
	<g id="person-2">
		<g>
			<path fill="#808184" d="M72,134v-24.254c0-6.462,4.44-11.929,10.359-13.64c-3.387-1.511-5.703-4.911-5.703-8.853
				c-0.003-2.583,1.031-5.016,2.866-6.849c1.832-1.831,4.276-2.839,6.859-2.839c5.34,0,9.691,4.346,9.691,9.688
				c0,3.941-2.156,7.341-5.541,8.853c5.92,1.71,10.469,7.177,10.469,13.64V134H72z"/>
		</g>
		<g>
			<path fill="#EAEBEC" d="M86.394,79.316c4.375,0,7.935,3.563,7.935,7.938c0,4.374-3.56,7.938-7.935,7.938
				c-4.372,0-7.938-3.564-7.938-7.938C78.452,82.876,82.022,79.316,86.394,79.316 M86.5,97.302c6.87,0,12.5,5.581,12.5,12.444V132
				H74v-22.254C74,102.883,79.641,97.302,86.5,97.302 M86.394,75.816c-3.05,0-5.92,1.19-8.083,3.351
				c-2.166,2.164-3.357,5.037-3.354,8.09c0,3.37,1.242,6.404,3.57,8.499C73.583,98.468,70,103.722,70,109.746v22.081V135h3.948
				h24.89H102v-3.173v-22.081c0-6.024-3.19-11.279-8.134-13.991c2.327-2.095,3.877-5.13,3.877-8.501
				C97.743,80.947,92.699,75.816,86.394,75.816L86.394,75.816z"/>
		</g>
	</g>
	<g id="person-3">
		<g>
			<path fill="#808184" d="M89,144v-32.039c0-9.417,7.054-17.241,16.063-18.606c-5.451-1.402-9.429-6.358-9.429-12.24
				c-0.003-3.37,1.345-6.542,3.737-8.933c2.391-2.388,5.578-3.704,8.947-3.704c6.965,0,12.639,5.669,12.639,12.637
				c0,5.977-4.041,10.998-9.624,12.305c8.813,1.533,15.666,9.264,15.666,18.542V144H89z"/>
		</g>
		<g>
			<path fill="#EAEBEC" d="M108.334,70.229c6,0,10.881,4.885,10.881,10.887c0,5.998-4.882,10.886-10.881,10.886
				c-5.996,0-10.887-4.888-10.887-10.886C97.442,75.11,102.338,70.229,108.334,70.229 M108.001,94.894
				c9.422,0,16.999,7.655,16.999,17.068V142H91v-30.039C91,102.549,98.593,94.894,108.001,94.894 M108.334,66.729
				c-3.836,0-7.447,1.497-10.168,4.216c-2.724,2.722-4.223,6.335-4.219,10.174c0,4.901,2.215,9.237,5.971,11.835
				C92.488,96.046,87,103.401,87,111.961V142v4h4h34h3v-4v-30.039c0-8.403-4.798-15.645-12.011-18.833
				c3.899-2.576,6.602-6.999,6.602-12.013C122.591,73.183,116.264,66.729,108.334,66.729L108.334,66.729z"/>
		</g>
	</g>
	<g id="person-4">
		<g>
			<g>
				<path fill="#0074A8" d="M137.95,84.859c-9.58,0-17.374-7.793-17.374-17.373c-0.004-4.632,1.805-8.994,5.095-12.281
					c3.287-3.283,7.647-5.092,12.279-5.092c9.576,0,17.366,7.793,17.366,17.373S147.526,84.859,137.95,84.859z"/>
			</g>
			<g>
				<path fill="#EAEBEC" d="M137.95,52.113c8.472,0,15.366,6.899,15.366,15.373c0,8.471-6.894,15.373-15.366,15.373
					c-8.467,0-15.374-6.902-15.374-15.373C122.568,59.007,129.483,52.113,137.95,52.113 M137.95,48.113
					c-5.165,0-10.028,2.016-13.692,5.677c-3.668,3.665-5.687,8.53-5.682,13.699c0,10.679,8.691,19.37,19.374,19.37
					c10.679,0,19.366-8.691,19.366-19.373S148.629,48.113,137.95,48.113L137.95,48.113z"/>
			</g>
		</g>
		<g>
			<g>
				<path fill="#0074A8" d="M112,156v-44.954c0-14.393,11.608-26.102,26.001-26.102c14.392,0,25.999,11.709,25.999,26.102V156H112z"
					/>
			</g>
			<g>
				<path fill="#EAEBEC" d="M138.001,86.944c13.305,0,23.999,10.81,23.999,24.102V154h-48v-42.954
					C114,97.754,124.715,86.944,138.001,86.944 M138.001,82.944c-15.496,0-28.001,12.606-28.001,28.102v42.764V158h3.847h48.204H166
					v-4.19v-42.764C166,95.551,153.496,82.944,138.001,82.944L138.001,82.944z"/>
			</g>
		</g>
	</g>
	<g id="person-5">
		<g>
			<g>
				<path fill="#0074A8" d="M180.063,68.838c-13.458,0-24.407-10.956-24.407-24.422c0-13.463,10.949-24.417,24.407-24.417
					c6.511,0,12.641,2.542,17.261,7.157c4.624,4.62,7.168,10.75,7.162,17.261C204.485,57.883,193.529,68.838,180.063,68.838z"/>
			</g>
			<g>
				<path fill="#EAEBEC" d="M180.063,22.5c12.076,0,21.933,9.831,21.923,21.917c0,12.08-9.847,21.922-21.923,21.922
					c-12.078,0-21.907-9.842-21.907-21.922C158.156,32.338,167.984,22.5,180.063,22.5 M180.063,17.5
					c-14.836,0-26.907,12.075-26.907,26.917c0,14.845,12.07,26.922,26.907,26.922c14.845,0,26.923-12.077,26.923-26.922
					c0.006-7.176-2.798-13.936-7.896-19.028C193.998,20.302,187.24,17.5,180.063,17.5L180.063,17.5z"/>
			</g>
		</g>
		<g>
			<g>
				<path fill="#0074A8" d="M143,170v-63.474c0-20.327,16.671-36.864,36.996-36.864C200.325,69.663,217,86.2,217,106.526V170H143z"
					/>
			</g>
			<g>
				<path fill="#EAEBEC" d="M179.996,72.163c18.944,0,34.004,15.413,34.004,34.364V168h-68v-61.474
					C146,87.576,161.028,72.163,179.996,72.163 M179.996,67.163c-21.703,0-38.996,17.659-38.996,39.364V167.5v5.5h4.703h68.728H219
					v-5.5v-60.974C219,84.821,201.703,67.163,179.996,67.163L179.996,67.163z"/>
			</g>
		</g>
	</g>
</g>
</svg>
