<?xml version="1.0" encoding="utf-8"?>
<!-- Generator: Adobe Illustrator 16.0.0, SVG Export Plug-In . SVG Version: 6.00 Build 0)  -->
<!DOCTYPE svg PUBLIC "-//W3C//DTD SVG 1.1//EN" "http://www.w3.org/Graphics/SVG/1.1/DTD/svg11.dtd">
<svg version="1.1" id="Layer_1" xmlns="http://www.w3.org/2000/svg" xmlns:xlink="http://www.w3.org/1999/xlink" x="0px" y="0px"
	 width="100px" height="90px" viewBox="0 0 100 90" enable-background="new 0 0 100 90" xml:space="preserve">
<g>
	<g>
		<path fill="#00699D" d="M34.775,8.581l21.144,13.103c0.588,0.358,1.338,0.145,1.67-0.482L58.2,20.07
			c0.339-0.624,0.14-1.426-0.443-1.792L36.606,5.176c-0.585-0.362-1.332-0.147-1.668,0.478L34.33,6.788
			C33.989,7.417,34.19,8.219,34.775,8.581"/>
		<path fill="#00699D" d="M16.462,42.628l21.145,13.106c0.584,0.354,1.334,0.141,1.667-0.482l0.613-1.13
			c0.335-0.625,0.135-1.433-0.446-1.793L18.293,39.228c-0.584-0.364-1.332-0.147-1.668,0.477l-0.609,1.135
			C15.675,41.463,15.871,42.26,16.462,42.628"/>
		<path fill="#00699D" d="M91.037,58.64L48.71,35.095l5.689-10.577c0.34-0.624,0.134-1.428-0.445-1.79L34.917,10.935
			c-0.581-0.362-1.33-0.145-1.668,0.482L19.818,36.381c-0.332,0.623-0.132,1.428,0.447,1.788l19.036,11.797
			c0.584,0.362,1.334,0.147,1.665-0.482l5.696-10.575l40.16,27.571c0.564,0.387,1.306,0.193,1.636-0.434l3.052-5.672
			C91.844,59.75,91.628,58.968,91.037,58.64"/>
		<path fill="#00699D" d="M97.713,61.952l-2.117-1.309c-0.58-0.362-1.332-0.145-1.664,0.482l-3.669,6.805
			c-0.336,0.624-0.13,1.432,0.448,1.79l2.115,1.306c0.581,0.367,1.332,0.147,1.669-0.478l3.667-6.808
			C98.493,63.116,98.296,62.311,97.713,61.952"/>
	</g>
	<path fill="#00699D" d="M49.153,80.022H6.741c-1.164,0-2.119-1.026-2.119-2.275v-2.275c0.002-1.25,0.956-2.277,2.119-2.273h42.413
		c1.167,0,2.123,1.023,2.119,2.268l0.004,2.28C51.272,79,50.32,80.022,49.153,80.022 M52.019,70.033h-2.551
		c0.323-0.387,0.536-0.885,0.536-1.442v-2.155c0-1.188-0.904-2.163-2.011-2.163H7.718c-1.111,0-2.013,0.975-2.013,2.163v2.155
		c0,0.557,0.214,1.055,0.535,1.442H3.692c-1.113,0-2.015,0.975-2.015,2.157v8.651C1.677,82.027,2.583,83,3.692,83h48.327
		c1.113,0,2.015-0.973,2.015-2.159V72.19C54.034,71.008,53.128,70.033,52.019,70.033"/>
</g>
</svg>
