<?xml version="1.0" encoding="utf-8"?>
<!-- Generator: Adobe Illustrator 16.0.0, SVG Export Plug-In . SVG Version: 6.00 Build 0)  -->
<!DOCTYPE svg PUBLIC "-//W3C//DTD SVG 1.1//EN" "http://www.w3.org/Graphics/SVG/1.1/DTD/svg11.dtd">
<svg version="1.1" id="Layer_1" xmlns="http://www.w3.org/2000/svg" xmlns:xlink="http://www.w3.org/1999/xlink" x="0px" y="0px"
	 width="90px" height="90px" viewBox="0 0 90 90" enable-background="new 0 0 90 90" xml:space="preserve">
<path fill="#00699D" d="M18.588,25.088l-3.597-2.141c-0.872-0.484-1.942-0.197-2.429,0.684c-0.484,0.873-0.197,1.941,0.685,2.427
	l3.596,2.139c0.288,0.198,0.583,0.198,0.873,0.198c0.584,0,1.257-0.287,1.554-0.872C19.748,26.643,19.459,25.572,18.588,25.088"/>
<path fill="#00699D" d="M77.431,23.631c-0.486-0.872-1.557-1.168-2.429-0.684l-3.597,2.141c-0.872,0.484-1.169,1.555-0.685,2.427
	c0.29,0.585,0.971,0.872,1.558,0.872c0.286,0,0.584-0.098,0.871-0.197l3.597-2.139C77.628,25.572,77.916,24.503,77.431,23.631"/>
<path fill="#00699D" d="M80.641,40.526h-4.173c-0.971,0-1.745,0.775-1.745,1.746c0,0.97,0.774,1.744,1.745,1.744h4.173
	c0.97,0,1.742-0.774,1.742-1.744C82.383,41.3,81.61,40.526,80.641,40.526"/>
<path fill="#00699D" d="M13.534,40.526h-4.17c-0.971,0-1.746,0.775-1.746,1.746c0,0.97,0.775,1.744,1.746,1.744h4.17
	c0.972,0,1.744-0.774,1.744-1.744C15.278,41.3,14.506,40.526,13.534,40.526"/>
<path fill="#00699D" d="M44.997,12.661c0.97,0,1.744-0.773,1.744-1.745V6.744C46.741,5.773,45.967,5,44.997,5
	c-0.972,0-1.745,0.773-1.745,1.744v4.172C43.154,11.879,43.926,12.661,44.997,12.661"/>
<path fill="#00699D" d="M27.715,15.961c0.287,0.585,0.971,0.873,1.555,0.873c0.289,0,0.585-0.099,0.872-0.198
	c0.874-0.486,1.17-1.555,0.685-2.427l-2.14-3.597c-0.486-0.872-1.557-1.168-2.428-0.682c-0.872,0.484-1.169,1.555-0.683,2.427
	L27.715,15.961z"/>
<path fill="#00699D" d="M59.177,14.208l2.139-3.597c0.486-0.872,1.558-1.168,2.43-0.684c0.872,0.486,1.168,1.556,0.682,2.428
	l-2.139,3.597c-0.29,0.585-0.973,0.872-1.557,0.872c-0.287,0-0.583-0.1-0.871-0.198C58.979,16.149,58.691,15.089,59.177,14.208"/>
<path fill="#00699D" d="M44.808,19.072c-12.715,0-23.109,10.386-23.109,23.109c0,3.975,1.07,7.957,3.111,11.455
	c0.089,0.198,0.189,0.289,0.289,0.486c0.772,1.457,1.91,2.717,2.979,3.885C31.279,62.664,33,66.649,33,69.174v9.225
	C33,81.989,35.78,85,39.467,85h10.771C53.827,85,57,82.086,57,78.399v-8.352c0-0.286,0-0.576,0-0.772v-0.1
	c0-2.618,1.526-6.698,4.924-11.456c0.971-0.969,1.688-2.13,2.463-3.298l0.164-0.289c0.19-0.197,0.272-0.395,0.371-0.683
	c1.941-3.499,3.004-7.383,3.004-11.366C67.925,29.358,57.522,18.973,44.808,19.072z M53,78.597C53,80.154,51.794,81,50.248,81
	H39.467C37.911,81,37,80.154,36,78.597V78h17V78.597z M53,74H36v-3h17V74z M61.702,51.892c0,0.099-0.099,0.099-0.099,0.198
	c0,0.097-0.098,0.097-0.098,0.197c-0.576,1.071-1.357,2.14-2.23,3.011c-0.099,0.1-0.198-0.12-0.198-0.021
	C56.65,58.678,53.935,63,53.35,67H36.354c-0.485-3-2.336-6.866-5.538-11.435l-0.193-0.087C29.652,54.407,29,53.349,28,52.091v-0.1
	c-2-3.011-2.719-6.41-2.719-9.909c0-10.78,8.739-19.521,19.52-19.521c10.78,0,19.521,8.741,19.521,19.521
	C64.322,45.58,63.447,48.979,61.702,51.892z"/>
</svg>
