<?xml version="1.0" encoding="utf-8"?>
<!-- Generator: Adobe Illustrator 16.0.0, SVG Export Plug-In . SVG Version: 6.00 Build 0)  -->
<!DOCTYPE svg PUBLIC "-//W3C//DTD SVG 1.1//EN" "http://www.w3.org/Graphics/SVG/1.1/DTD/svg11.dtd">
<svg version="1.1" id="Layer_1" xmlns="http://www.w3.org/2000/svg" xmlns:xlink="http://www.w3.org/1999/xlink" x="0px" y="0px"
	 width="90px" height="90px" viewBox="0 0 90 90" enable-background="new 0 0 90 90" xml:space="preserve">
<g>
	<path fill="#00699D" d="M42.948,72.247h-1.159v10.846c0,0.812-0.443,1.494-1.075,1.907h4.472c-0.632-0.413-1.073-1.095-1.073-1.907
		V72.247H42.948z"/>
	<g>
		<path fill="#00699D" d="M58.885,16.882c0,3.947-3.201,7.147-7.147,7.147c-3.949,0-7.149-3.201-7.149-7.147
			c0-3.95,3.2-7.149,7.149-7.149C55.685,9.733,58.885,12.932,58.885,16.882"/>
		<path fill="#00699D" d="M41.397,12.598c0,4.197-3.401,7.598-7.599,7.598c-4.195,0-7.596-3.401-7.596-7.598
			C26.202,8.401,29.603,5,33.798,5C37.996,5,41.397,8.401,41.397,12.598"/>
		<path fill="#00699D" d="M42.948,53.268c-3.847,0-6.971-3.122-6.971-6.973c0-3.851,3.124-6.971,6.971-6.971
			c3.853,0,6.971,3.12,6.971,6.971C49.919,50.146,46.801,53.268,42.948,53.268 M71.075,51.903l-9.94-23.791
			c-0.116-0.274-0.275-0.511-0.456-0.724l0.009-0.013l-0.028-0.015c-0.551-0.641-1.349-1.022-2.187-1.022l-0.003-0.002l-6.732,0.066
			l-4.579-0.042c-1.611-2.201-4.195-3.646-7.125-3.646H27.565c-4.888,0-8.864,3.974-8.864,8.86v20.108
			c0,1.507,1.222,2.725,2.729,2.725c1.505,0,2.727-1.218,2.727-2.725V31.576c0-1.108,0.541-2.087,1.362-2.71v53.067
			c0,1.694,1.374,3.065,3.068,3.065h9.628c-0.632-0.413-1.077-1.093-1.077-1.907V72.247V59.798c-1.69,2.585-2.612,6.649-2.855,8.432
			c-0.125,0.904-0.9,1.563-1.79,1.563c-0.081,0-0.162-0.007-0.244-0.018c-0.987-0.132-1.682-1.042-1.549-2.032
			c0.176-1.314,1.935-12.884,8.914-13.815c0.123-0.015,0.242-0.019,0.363-0.011l0.068-0.027h2.903h2.907l0.07,0.027
			c0.118-0.007,0.239-0.004,0.362,0.011c6.977,0.931,8.733,12.501,8.912,13.815c0.134,0.99-0.559,1.9-1.549,2.032
			c-0.083,0.011-0.164,0.02-0.245,0.02c-0.891,0-1.665-0.662-1.79-1.565c-0.243-1.782-1.163-5.847-2.854-8.432v12.448H48.76v10.844
			c0,0.814-0.445,1.494-1.077,1.907h9.63v-0.213c1.055-0.43,1.799-1.462,1.799-2.67V63.277h6.095l-7.894-27.458l-0.946-3.293
			l0.239-0.281L65.75,54.13c0.459,1.106,1.532,1.773,2.66,1.773c0.371,0,0.75-0.072,1.114-0.224
			C70.994,55.065,71.688,53.375,71.075,51.903"/>
	</g>
</g>
</svg>
