<?xml version="1.0" encoding="utf-8"?>
<!-- Generator: Adobe Illustrator 16.0.0, SVG Export Plug-In . SVG Version: 6.00 Build 0)  -->
<!DOCTYPE svg PUBLIC "-//W3C//DTD SVG 1.1//EN" "http://www.w3.org/Graphics/SVG/1.1/DTD/svg11.dtd">
<svg version="1.1" id="Layer_1" xmlns="http://www.w3.org/2000/svg" xmlns:xlink="http://www.w3.org/1999/xlink" x="0px" y="0px"
	 width="160px" height="160px" viewBox="0 0 160 160" enable-background="new 0 0 160 160" xml:space="preserve">
<g id="cid-svg-wrapper">
	<polygon id="cid-gender-equality-back" fill="#EE3F2B" points="160,160.008 0,160.008 0,0 160,0 160,160.008 	"/>
	<path fill="#FFFFFF" d="M25.512,23.624c-2.14,0-3.711,0.76-4.567,2.236h-0.049v-8.042h9.327v-4.424H15.949v18.178h4.946v-0.717
		c0-1.903,0.858-2.95,2.379-2.95c1.666,0,2.334,1.143,2.334,2.905v7.803c0,1.713-0.619,2.901-2.285,2.901
		c-1.857,0-2.521-1.237-2.521-3.139v-4.045H15.85v3.663c0,4.901,1.952,8.042,7.473,8.042c5.472,0,7.707-2.903,7.707-7.376v-7.898
		C31.03,25.669,28.415,23.624,25.512,23.624"/>
	<path fill="#FFFFFF" d="M79.723,116.108c-10.57,0-19.169-8.601-19.169-19.171c0-10.572,8.599-19.172,19.169-19.172
		c10.572,0,19.171,8.6,19.171,19.172C98.895,107.508,90.295,116.108,79.723,116.108 M116.541,60.544H96.655
		c-0.136,0-0.252,0.112-0.252,0.253v6.608c0,0.142,0.117,0.254,0.252,0.254h7.919l-8.793,8.794
		c-4.43-3.48-10.001-5.562-16.058-5.562c-14.361,0-26.045,11.684-26.045,26.045c0,13.223,9.906,24.165,22.684,25.82v7.616h-7.844
		c-0.146,0-0.256,0.111-0.256,0.251v7.082c0,0.142,0.111,0.253,0.256,0.253h7.844v7.494c0,0.14,0.113,0.252,0.252,0.252h7.08
		c0.14,0,0.257-0.112,0.257-0.252v-7.494h7.841c0.14,0,0.252-0.111,0.252-0.253v-7.082c0-0.14-0.112-0.251-0.252-0.251h-7.841
		v-7.739c12.356-2.027,21.815-12.774,21.815-25.697c0-5.574-1.763-10.74-4.756-14.981l8.667-8.668v7.396
		c0,0.14,0.117,0.252,0.257,0.252h6.606c0.142,0,0.258-0.112,0.258-0.252V60.797C116.799,60.656,116.683,60.544,116.541,60.544"/>
	<path fill="#FFFFFF" d="M91.434,89.069H68.18c-0.14,0-0.252,0.104-0.252,0.227v5.629c0,0.132,0.113,0.231,0.252,0.231h23.253
		c0.146,0,0.258-0.1,0.258-0.231v-5.629C91.691,89.172,91.579,89.069,91.434,89.069"/>
	<path fill="#FFFFFF" d="M91.434,99.12H68.18c-0.14,0-0.252,0.106-0.252,0.235v5.628c0,0.126,0.113,0.228,0.252,0.228h23.253
		c0.146,0,0.258-0.101,0.258-0.228v-5.628C91.691,99.226,91.579,99.12,91.434,99.12"/>
	<polygon fill="#FFFFFF" points="45.688,32.575 50.936,32.575 50.936,34.368 47.887,34.368 47.887,38.109 50.067,38.109 
		50.067,39.883 47.887,39.883 47.887,43.855 50.936,43.855 50.936,45.649 45.688,45.649 45.688,32.575 	"/>
	<path fill="#FFFFFF" d="M56.742,42.736v-7.134c0-0.791-0.348-1.35-1.14-1.35c-0.77,0-1.119,0.56-1.119,1.35v7.134
		c0,0.772,0.35,1.35,1.119,1.35C56.395,44.086,56.742,43.508,56.742,42.736L56.742,42.736z M54.794,46.536v-0.887
		c-1.755-0.308-2.509-1.601-2.509-3.375v-6.325c0-2.044,1.004-3.528,3.317-3.528c2.334,0,3.336,1.485,3.336,3.528v6.325
		c0,1.427-0.499,2.546-1.618,3.085l1.618,0.309v1.638L54.794,46.536L54.794,46.536z"/>
	<path fill="#FFFFFF" d="M66.751,32.575v9.892c0,2.025-0.868,3.336-3.104,3.336c-2.314,0-3.28-1.31-3.28-3.336v-9.892h2.199v10.104
		c0,0.772,0.309,1.293,1.081,1.293c0.77,0,1.08-0.521,1.08-1.293V32.575H66.751L66.751,32.575z"/>
	<path fill="#FFFFFF" d="M70.611,41.503h1.754l-0.868-5.245h-0.018L70.611,41.503L70.611,41.503z M67.852,45.649l2.47-13.074h2.505
		l2.488,13.074h-2.254l-0.406-2.392h-2.332l-0.387,2.392H67.852L67.852,45.649z"/>
	<polygon fill="#FFFFFF" points="76.396,32.575 78.595,32.575 78.595,43.855 81.219,43.855 81.219,45.649 76.396,45.649 
		76.396,32.575 	"/>
	<polygon fill="#FFFFFF" points="82.396,32.575 84.594,32.575 84.594,45.649 82.396,45.649 82.396,32.575 	"/>
	<polygon fill="#FFFFFF" points="85.772,32.575 91.616,32.575 91.616,34.368 89.802,34.368 89.802,45.649 87.584,45.649 
		87.584,34.368 85.772,34.368 85.772,32.575 	"/>
	<polygon fill="#FFFFFF" points="97.073,40.674 97.073,45.649 94.875,45.649 94.875,40.674 92.426,32.575 94.721,32.575 
		96.051,37.53 96.071,37.53 97.401,32.575 99.502,32.575 97.073,40.674 	"/>
	<path fill="#FFFFFF" d="M49.007,19.487h3.125v6.98h-1.581V25.04c-0.29,0.983-0.907,1.581-2.103,1.581
		c-1.89,0-2.758-1.503-2.758-3.529v-6.325c0-2.044,0.984-3.529,3.297-3.529c2.431,0,3.144,1.349,3.144,3.278v1.156h-2.006v-1.33
		c0-0.809-0.309-1.273-1.1-1.273c-0.79,0-1.138,0.56-1.138,1.351v7.019c0,0.791,0.328,1.35,1.08,1.35
		c0.714,0,1.079-0.406,1.079-1.254v-2.313h-1.041V19.487L49.007,19.487z"/>
	<polygon fill="#FFFFFF" points="53.581,13.393 58.824,13.393 58.824,15.187 55.779,15.187 55.779,18.927 57.958,18.927 
		57.958,20.701 55.779,20.701 55.779,24.673 58.824,24.673 58.824,26.467 53.581,26.467 53.581,13.393 	"/>
	<polygon fill="#FFFFFF" points="62.052,18.252 62.052,26.467 60.199,26.467 60.199,13.393 62.36,13.393 64.731,20.894 
		64.731,13.393 66.563,13.393 66.563,26.467 64.636,26.467 62.052,18.252 	"/>
	<path fill="#FFFFFF" d="M71.136,24.673c0.905,0,1.255-0.54,1.255-1.329v-6.846c0-0.771-0.35-1.311-1.255-1.311H70.21v9.487H71.136
		L71.136,24.673z M74.589,16.903v6.054c0,2.006-0.829,3.51-3.183,3.51h-3.395V13.393h3.395
		C73.76,13.393,74.589,14.877,74.589,16.903L74.589,16.903z"/>
	<polygon fill="#FFFFFF" points="76.055,13.393 81.3,13.393 81.3,15.187 78.253,15.187 78.253,18.927 80.434,18.927 80.434,20.701 
		78.253,20.701 78.253,24.673 81.3,24.673 81.3,26.467 76.055,26.467 76.055,13.393 	"/>
	<path fill="#FFFFFF" d="M84.85,15.187v4.069h0.732c0.754,0,1.08-0.386,1.08-1.08v-1.929c0-0.713-0.326-1.06-1.08-1.06H84.85
		L84.85,15.187z M84.85,20.469v5.998h-2.198V13.393h3.202c2.216,0,3.028,1.1,3.028,2.931v1.677c0,1.408-0.501,2.237-1.756,2.527
		l2.102,5.939h-2.315L84.85,20.469L84.85,20.469z"/>
</g>
</svg>
