<?xml version="1.0" encoding="utf-8"?>
<!-- Generator: Adobe Illustrator 16.0.0, SVG Export Plug-In . SVG Version: 6.00 Build 0)  -->
<!DOCTYPE svg PUBLIC "-//W3C//DTD SVG 1.1//EN" "http://www.w3.org/Graphics/SVG/1.1/DTD/svg11.dtd">
<svg version="1.1" id="Layer_1" xmlns="http://www.w3.org/2000/svg" xmlns:xlink="http://www.w3.org/1999/xlink" x="0px" y="0px"
	 width="160px" height="160px" viewBox="0 0 160 160" enable-background="new 0 0 160 160" xml:space="preserve">


<g id="cid-svg-wrapper">
	<polygon fill="#FFFFFF" points="12.31,19.271 12.31,24.932 12.358,24.932 16.165,20.983 16.213,20.983 16.213,45.678 
		21.637,45.678 21.637,13.416 17.309,13.416 12.31,19.271 	"/>
	<path fill="#FFFFFF" d="M35.246,38.399c0,2.046-0.761,3.235-2.616,3.235c-1.808,0-2.521-1.236-2.521-3.235v-5.901
		c0.093-1.807,0.854-2.95,2.569-2.95c1.853,0,2.567,1.143,2.567,3.236V38.399L35.246,38.399z M40.624,37.924v-4.759
		c0-5.28-2.094-7.948-5.995-7.948c-2.286,0-3.664,1.047-4.472,2.618H30.11v-6.946c0-1.952,0.615-3.332,2.569-3.332
		c1.949,0,2.521,1.143,2.521,3.14v2.145h4.948v-1.716c0-4.758-1.569-8.088-7.566-8.088c-5.709,0-7.851,3.665-7.851,8.708v15.703
		c0,4.995,2.19,8.613,7.9,8.613C38.386,46.06,40.624,42.92,40.624,37.924"/>
	<path fill="#FFFFFF" d="M111.984,54.552c0,0-1.843,2.449-1.307,4.834c0.54,2.388,3.26,3.807,3.26,3.807s1.845-2.449,1.307-4.835
		C114.707,55.97,111.984,54.552,111.984,54.552"/>
	<path fill="#FFFFFF" d="M108.979,68.538c0,0,1.845-2.45,1.307-4.837c-0.54-2.386-3.259-3.802-3.259-3.802s-1.847,2.445-1.311,4.833
		C106.257,67.118,108.979,68.538,108.979,68.538"/>
	<path fill="#FFFFFF" d="M116.559,65.915c0,0,1.947,1.965,4.165,1.767c2.218-0.196,3.863-2.478,3.863-2.478
		s-1.946-1.965-4.166-1.768C118.204,63.633,116.559,65.915,116.559,65.915"/>
	<path fill="#FFFFFF" d="M119.75,55.424c-1.804,1.831-1.55,5.071-1.55,5.071s3.181,0.275,4.989-1.552
		c1.804-1.829,1.549-5.071,1.549-5.071S121.556,53.597,119.75,55.424"/>
	<path fill="#FFFFFF" d="M115.769,73.197c2.21,0.261,4.288-1.636,4.288-1.636s-1.505-2.322-3.713-2.582
		c-2.212-0.26-4.29,1.637-4.29,1.637S113.559,72.937,115.769,73.197"/>
	<path fill="#FFFFFF" d="M117.742,111.588h-16.517c-1.293,0-2.342,1.044-2.342,2.335c0,1.291,1.049,2.339,2.342,2.339h16.517
		c1.291,0,2.338-1.048,2.338-2.339C120.08,112.632,119.033,111.588,117.742,111.588"/>
	<path fill="#FFFFFF" d="M117.742,137.347h-16.517c-1.293,0-2.342,1.043-2.342,2.336c0,1.29,1.049,2.337,2.342,2.337h16.517
		c1.291,0,2.338-1.047,2.338-2.337C120.08,138.39,119.033,137.347,117.742,137.347"/>
	<path fill="#FFFFFF" d="M43.455,105.917c-0.388-0.12-0.773-0.226-1.146-0.297C42.309,105.619,42.732,105.751,43.455,105.917"/>
	<path fill="#FFFFFF" d="M70.226,116.026c1.09,0.018,2.181-0.015,3.276-0.089v8.63l-3.276-0.074V116.026L70.226,116.026z
		 M117.134,117.895h-15.306c-0.734,0-1.331,0.596-1.331,1.328v4.635l-9.991,1.099l-14.598-0.334v-8.917
		c1.938-0.249,3.88-0.633,5.809-1.178c14.05-3.965,17.116-15.582,16.809-23.621c-0.307-8.185,2.313-11.366,6.079-12.78
		c1.078-0.404,2.144-0.66,3.121-0.825c0.041,2.01,0.448,4.348,1.348,7.134c0.334-0.018,0.666-0.048,0.996-0.083
		c-0.949-2.85-1.354-5.193-1.377-7.192c1.946-0.23,3.333-0.1,3.333-0.1s-1.315-0.707-3.171-2.259c0.631-3.876,2.94-6.257,5.319-8.69
		c1.309-1.341,2.66-2.724,3.725-4.372l-0.829-0.535c-1.006,1.566-2.329,2.913-3.603,4.217c-2.32,2.373-4.663,4.799-5.455,8.648
		c-0.755-0.682-1.571-1.486-2.406-2.424c-3.464-3.884-7.927-1.031-14.287,4.892c-6.364,5.92-14.367,6.123-22.183-1.874
		c-10.312-10.557-19.307-10.496-25.476-9.897c4.22,1.797,5.697,5.739,7.832,15.762c2.239,10.517,7.884,15.275,15.607,15.931
		c-4.297,1.518-4.509,3.942-10.263,7.916c-4.493,3.102-10.816,2.121-13.38,1.54c4.706,1.466,10.279,6.402,15.266,8.119
		c2.903,1,5.966,1.618,9.1,1.866v8.535l-26.152-0.596v5.954l48.838-1.116l9.991,1.099v4.631c0,0.734,0.596,1.332,1.331,1.332h15.306
		c0.736,0,1.332-0.598,1.332-1.332v-15.186C118.466,118.491,117.87,117.895,117.134,117.895L117.134,117.895z"/>
	<path fill="#FFFFFF" d="M40.239,128.811c0,1.254-0.876,2.274-1.956,2.274h-1.177c-1.078,0-1.956-1.02-1.956-2.274v-4.116
		c0-1.259,0.878-2.274,1.956-2.274h1.177c1.08,0,1.956,1.016,1.956,2.274V128.811L40.239,128.811z"/>
	<polygon id="cid-peace-justice-back" fill="#00699D" points="160,160.004 0,160.004 0,-0.004 160,-0.004 160,160.004 	"/>
	<polygon fill="#FFFFFF" points="12.31,19.271 12.31,24.932 12.358,24.932 16.165,20.983 16.213,20.983 16.213,45.678 
		21.637,45.678 21.637,13.416 17.309,13.416 12.31,19.271 	"/>
	<path fill="#FFFFFF" d="M35.246,38.399c0,2.046-0.761,3.235-2.616,3.235c-1.808,0-2.521-1.236-2.521-3.235v-5.901
		c0.093-1.807,0.854-2.95,2.569-2.95c1.853,0,2.567,1.143,2.567,3.236V38.399L35.246,38.399z M40.624,37.924v-4.759
		c0-5.28-2.094-7.948-5.995-7.948c-2.286,0-3.664,1.047-4.472,2.618H30.11v-6.946c0-1.952,0.615-3.332,2.569-3.332
		c1.949,0,2.521,1.143,2.521,3.14v2.145h4.948v-1.716c0-4.758-1.569-8.088-7.566-8.088c-5.709,0-7.851,3.665-7.851,8.708v15.703
		c0,4.995,2.19,8.613,7.9,8.613C38.386,46.06,40.624,42.92,40.624,37.924"/>
	<path fill="#FFFFFF" d="M111.984,54.552c0,0-1.843,2.449-1.307,4.834c0.54,2.388,3.26,3.807,3.26,3.807s1.845-2.449,1.307-4.835
		C114.707,55.97,111.984,54.552,111.984,54.552"/>
	<path fill="#FFFFFF" d="M108.979,68.538c0,0,1.845-2.45,1.307-4.837c-0.54-2.386-3.259-3.802-3.259-3.802s-1.847,2.447-1.311,4.833
		C106.257,67.118,108.979,68.538,108.979,68.538"/>
	<path fill="#FFFFFF" d="M116.559,65.915c0,0,1.947,1.965,4.165,1.767c2.218-0.196,3.863-2.478,3.863-2.478
		s-1.946-1.965-4.166-1.768C118.204,63.633,116.559,65.915,116.559,65.915"/>
	<path fill="#FFFFFF" d="M119.75,55.424c-1.804,1.831-1.55,5.071-1.55,5.071s3.181,0.275,4.989-1.552
		c1.804-1.829,1.549-5.071,1.549-5.071S121.556,53.597,119.75,55.424"/>
	<path fill="#FFFFFF" d="M115.769,73.197c2.21,0.261,4.288-1.636,4.288-1.636s-1.505-2.321-3.713-2.582
		c-2.212-0.26-4.29,1.637-4.29,1.637S113.559,72.937,115.769,73.197"/>
	<path fill="#FFFFFF" d="M117.742,111.588h-16.517c-1.293,0-2.342,1.044-2.342,2.335c0,1.291,1.049,2.339,2.342,2.339h16.517
		c1.291,0,2.338-1.048,2.338-2.339C120.08,112.632,119.033,111.588,117.742,111.588"/>
	<path fill="#FFFFFF" d="M117.742,137.347h-16.517c-1.293,0-2.342,1.043-2.342,2.336c0,1.29,1.049,2.337,2.342,2.337h16.517
		c1.291,0,2.338-1.047,2.338-2.337C120.08,138.39,119.033,137.347,117.742,137.347"/>
	<path fill="#FFFFFF" d="M43.455,105.917c-0.388-0.12-0.773-0.226-1.146-0.297C42.309,105.619,42.732,105.751,43.455,105.917"/>
	<path fill="#FFFFFF" d="M70.226,116.026c1.09,0.018,2.181-0.015,3.276-0.089v8.63l-3.276-0.074V116.026L70.226,116.026z
		 M117.134,117.895h-15.306c-0.734,0-1.331,0.596-1.331,1.328v4.635l-9.991,1.099l-14.598-0.334v-8.917
		c1.938-0.249,3.88-0.633,5.809-1.178c14.052-3.965,17.116-15.582,16.809-23.621c-0.307-8.185,2.313-11.366,6.079-12.778
		c1.078-0.406,2.144-0.662,3.121-0.827c0.041,2.01,0.448,4.348,1.348,7.134c0.334-0.018,0.666-0.048,0.996-0.083
		c-0.949-2.85-1.354-5.193-1.377-7.192c1.946-0.23,3.333-0.1,3.333-0.1s-1.315-0.707-3.171-2.259c0.631-3.876,2.94-6.257,5.319-8.69
		c1.309-1.341,2.66-2.724,3.725-4.372l-0.829-0.535c-1.006,1.566-2.329,2.913-3.603,4.217c-2.32,2.373-4.663,4.799-5.455,8.648
		c-0.755-0.682-1.571-1.486-2.406-2.424c-3.464-3.884-7.927-1.031-14.287,4.892c-6.364,5.92-14.367,6.123-22.183-1.874
		c-10.312-10.557-19.307-10.496-25.476-9.897c4.22,1.797,5.697,5.739,7.832,15.762c2.239,10.517,7.884,15.275,15.607,15.931
		c-4.297,1.518-4.509,3.942-10.263,7.916c-4.493,3.102-10.816,2.121-13.38,1.54c4.706,1.466,10.279,6.402,15.266,8.119
		c2.903,1,5.966,1.618,9.1,1.866v8.535l-26.152-0.596v5.954l48.838-1.116l9.991,1.099v4.631c0,0.734,0.596,1.332,1.331,1.332h15.306
		c0.736,0,1.332-0.598,1.332-1.332v-15.186C118.466,118.491,117.87,117.895,117.134,117.895L117.134,117.895z"/>
	<path fill="#FFFFFF" d="M40.239,128.811c0,1.254-0.876,2.274-1.956,2.274h-1.177c-1.078,0-1.956-1.02-1.956-2.274v-4.116
		c0-1.259,0.878-2.274,1.956-2.274h1.177c1.08,0,1.956,1.016,1.956,2.274V128.811L40.239,128.811z"/>
	<path fill="#FFFFFF" d="M52.714,14.81v4.059h0.637c0.592,0,0.853-0.288,0.853-0.852v-2.371c0-0.562-0.261-0.836-0.853-0.836H52.714
		L52.714,14.81z M50.98,13.396h2.569c1.748,0,2.387,0.866,2.387,2.311v2.173c0,1.445-0.639,2.327-2.387,2.327h-0.835v3.495H50.98
		V13.396L50.98,13.396z"/>
	<polygon fill="#FFFFFF" points="56.695,13.396 60.831,13.396 60.831,14.81 58.429,14.81 58.429,17.758 60.146,17.758 
		60.146,19.158 58.429,19.158 58.429,22.289 60.831,22.289 60.831,23.703 56.695,23.703 56.695,13.396 	"/>
	<path fill="#FFFFFF" d="M63.672,20.435h1.384l-0.685-4.135h-0.014L63.672,20.435L63.672,20.435z M61.499,23.703l1.946-10.307h1.975
		l1.963,10.307h-1.779l-0.32-1.885h-1.839l-0.305,1.885H61.499L61.499,23.703z"/>
	<path fill="#FFFFFF" d="M67.96,21.042v-4.986c0-1.611,0.759-2.782,2.583-2.782c1.917,0,2.449,1.064,2.449,2.585v1.216h-1.583
		v-1.354c0-0.638-0.211-1.003-0.835-1.003c-0.623,0-0.881,0.44-0.881,1.063v5.534c0,0.623,0.258,1.064,0.881,1.064
		c0.624,0,0.835-0.394,0.835-1.004v-1.899h1.583v1.779c0,1.474-0.608,2.569-2.449,2.569C68.719,23.825,67.96,22.639,67.96,21.042
		L67.96,21.042z"/>
	<polygon fill="#FFFFFF" points="73.933,13.396 78.068,13.396 78.068,14.81 75.666,14.81 75.666,17.758 77.382,17.758 
		77.382,19.158 75.666,19.158 75.666,22.289 78.068,22.289 78.068,23.703 73.933,23.703 73.933,13.396 	"/>
	<path fill="#FFFFFF" d="M83.645,20.435h1.385l-0.684-4.135h-0.016L83.645,20.435L83.645,20.435z M81.474,23.703l1.946-10.307h1.975
		l1.961,10.307h-1.779l-0.32-1.885H83.42l-0.305,1.885H81.474L81.474,23.703z"/>
	<polygon fill="#FFFFFF" points="89.407,17.227 89.407,23.703 87.946,23.703 87.946,13.396 89.649,13.396 91.52,19.31 91.52,13.396 
		92.964,13.396 92.964,23.703 91.444,23.703 89.407,17.227 	"/>
	<path fill="#FFFFFF" d="M96.567,22.289c0.714,0,0.986-0.425,0.986-1.049v-5.397c0-0.607-0.272-1.033-0.986-1.033h-0.73v7.479
		H96.567L96.567,22.289z M99.288,16.163v4.772c0,1.582-0.655,2.767-2.509,2.767h-2.674V13.396h2.674
		C98.633,13.396,99.288,14.566,99.288,16.163L99.288,16.163z"/>
	<path fill="#FFFFFF" d="M106.614,13.396v7.967c0,1.489-0.654,2.462-2.389,2.462c-1.792,0-2.28-0.989-2.28-2.295v-2.053h1.643v2.082
		c0,0.517,0.182,0.822,0.637,0.822c0.474,0,0.655-0.305,0.655-0.837v-8.147H106.614L106.614,13.396z"/>
	<path fill="#FFFFFF" d="M112.754,13.396v7.798c0,1.597-0.684,2.631-2.446,2.631c-1.824,0-2.585-1.034-2.585-2.631v-7.798h1.732
		v7.967c0,0.607,0.244,1.018,0.853,1.018c0.607,0,0.852-0.411,0.852-1.018v-7.967H112.754L112.754,13.396z"/>
	<path fill="#FFFFFF" d="M113.634,21.483v-1.383h1.612v1.413c0,0.579,0.258,0.913,0.853,0.913c0.547,0,0.791-0.365,0.791-0.913
		v-0.395c0-0.592-0.243-0.958-0.777-1.459l-1.018-1.019c-0.987-0.973-1.443-1.565-1.443-2.752V15.54
		c0-1.278,0.744-2.265,2.431-2.265c1.732,0,2.418,0.851,2.418,2.34v0.837h-1.581v-0.897c0-0.592-0.274-0.881-0.821-0.881
		c-0.487,0-0.821,0.274-0.821,0.853v0.211c0,0.577,0.32,0.913,0.821,1.398l1.111,1.095c0.94,0.957,1.396,1.535,1.396,2.676v0.501
		c0,1.414-0.76,2.418-2.523,2.418S113.634,22.837,113.634,21.483L113.634,21.483z"/>
	<polygon fill="#FFFFFF" points="119.048,13.396 123.653,13.396 123.653,14.81 122.226,14.81 122.226,23.703 120.476,23.703 
		120.476,14.81 119.048,14.81 119.048,13.396 	"/>
	<polygon fill="#FFFFFF" points="124.581,13.396 126.313,13.396 126.313,23.703 124.581,23.703 124.581,13.396 	"/>
	<path fill="#FFFFFF" d="M127.467,21.042v-4.986c0-1.611,0.761-2.782,2.586-2.782c1.915,0,2.447,1.064,2.447,2.585v1.216h-1.581
		v-1.354c0-0.638-0.213-1.003-0.837-1.003c-0.623,0-0.882,0.44-0.882,1.063v5.534c0,0.623,0.259,1.064,0.882,1.064
		c0.624,0,0.837-0.394,0.837-1.004v-1.899h1.581v1.779c0,1.474-0.608,2.569-2.447,2.569
		C128.228,23.825,127.467,22.639,127.467,21.042L127.467,21.042z"/>
	<polygon fill="#FFFFFF" points="133.563,13.396 137.699,13.396 137.699,14.81 135.296,14.81 135.296,17.758 137.015,17.758 
		137.015,19.158 135.296,19.158 135.296,22.289 137.699,22.289 137.699,23.703 133.563,23.703 133.563,13.396 	"/>
	<path fill="#FFFFFF" d="M50.888,40.581v-1.383H52.5v1.413c0,0.579,0.258,0.913,0.851,0.913c0.547,0,0.79-0.365,0.79-0.913v-0.395
		c0-0.593-0.243-0.957-0.775-1.46l-1.018-1.018c-0.988-0.974-1.445-1.566-1.445-2.753v-0.349c0-1.278,0.744-2.265,2.434-2.265
		c1.732,0,2.416,0.852,2.416,2.341v0.836h-1.581v-0.897c0-0.592-0.274-0.882-0.821-0.882c-0.486,0-0.822,0.273-0.822,0.851v0.212
		c0,0.579,0.321,0.913,0.822,1.4l1.11,1.094c0.942,0.958,1.398,1.536,1.398,2.676v0.503c0,1.412-0.761,2.417-2.522,2.417
		C51.572,42.923,50.888,41.935,50.888,40.581L50.888,40.581z"/>
	<polygon fill="#FFFFFF" points="56.65,32.494 61.256,32.494 61.256,33.908 59.827,33.908 59.827,42.801 58.08,42.801 58.08,33.908 
		56.65,33.908 56.65,32.494 	"/>
	<path fill="#FFFFFF" d="M63.87,33.908v3.208h0.577c0.595,0,0.853-0.305,0.853-0.852v-1.52c0-0.563-0.258-0.837-0.853-0.837H63.87
		L63.87,33.908z M63.87,38.073v4.728h-1.734V32.494h2.524c1.748,0,2.387,0.866,2.387,2.311v1.323c0,1.109-0.396,1.763-1.383,1.991
		l1.656,4.682h-1.825L63.87,38.073L63.87,38.073z"/>
	<path fill="#FFFFFF" d="M71.576,40.414V34.88c0-0.623-0.271-1.064-0.897-1.064c-0.606,0-0.881,0.441-0.881,1.064v5.534
		c0,0.624,0.275,1.064,0.881,1.064C71.304,41.478,71.576,41.038,71.576,40.414L71.576,40.414z M68.065,40.139v-4.985
		c0-1.612,0.79-2.782,2.614-2.782c1.841,0,2.631,1.17,2.631,2.782v4.985c0,1.597-0.791,2.784-2.631,2.784
		C68.855,42.923,68.065,41.737,68.065,40.139L68.065,40.139z"/>
	<polygon fill="#FFFFFF" points="75.833,36.325 75.833,42.801 74.375,42.801 74.375,32.494 76.077,32.494 77.947,38.408 
		77.947,32.494 79.39,32.494 79.39,42.801 77.87,42.801 75.833,36.325 	"/>
	<path fill="#FFFFFF" d="M83.068,37.297h2.464v5.503h-1.247v-1.125c-0.229,0.777-0.714,1.248-1.658,1.248
		c-1.489,0-2.175-1.187-2.175-2.784v-4.985c0-1.612,0.776-2.782,2.6-2.782c1.915,0,2.48,1.064,2.48,2.584v0.913H83.95v-1.05
		c0-0.638-0.243-1.003-0.866-1.003c-0.623,0-0.897,0.441-0.897,1.064v5.534c0,0.624,0.258,1.064,0.853,1.064
		c0.561,0,0.851-0.32,0.851-0.989v-1.824h-0.821V37.297L83.068,37.297z"/>
	<polygon fill="#FFFFFF" points="88.267,32.494 89.999,32.494 89.999,42.801 88.267,42.801 88.267,32.494 	"/>
	<polygon fill="#FFFFFF" points="92.537,36.325 92.537,42.801 91.079,42.801 91.079,32.494 92.782,32.494 94.652,38.408 
		94.652,32.494 96.097,32.494 96.097,42.801 94.574,42.801 92.537,36.325 	"/>
	<path fill="#FFFFFF" d="M97.066,40.581v-1.383h1.611v1.413c0,0.579,0.259,0.913,0.853,0.913c0.546,0,0.791-0.365,0.791-0.913
		v-0.395c0-0.593-0.245-0.957-0.777-1.46l-1.018-1.018c-0.986-0.974-1.442-1.566-1.442-2.753v-0.349
		c0-1.278,0.744-2.265,2.431-2.265c1.732,0,2.417,0.852,2.417,2.341v0.836h-1.581v-0.897c0-0.592-0.276-0.882-0.822-0.882
		c-0.487,0-0.821,0.273-0.821,0.851v0.212c0,0.579,0.32,0.913,0.821,1.4l1.111,1.094c0.939,0.958,1.396,1.536,1.396,2.676v0.503
		c0,1.412-0.759,2.417-2.522,2.417S97.066,41.935,97.066,40.581L97.066,40.581z"/>
	<polygon fill="#FFFFFF" points="102.828,32.494 107.436,32.494 107.436,33.908 106.004,33.908 106.004,42.801 104.259,42.801 
		104.259,33.908 102.828,33.908 102.828,32.494 	"/>
	<polygon fill="#FFFFFF" points="108.315,32.494 110.049,32.494 110.049,42.801 108.315,42.801 108.315,32.494 	"/>
	<polygon fill="#FFFFFF" points="110.929,32.494 115.536,32.494 115.536,33.908 114.108,33.908 114.108,42.801 112.36,42.801 
		112.36,33.908 110.929,33.908 110.929,32.494 	"/>
	<path fill="#FFFFFF" d="M121.451,32.494v7.798c0,1.597-0.686,2.631-2.449,2.631c-1.824,0-2.585-1.034-2.585-2.631v-7.798h1.732
		v7.966c0,0.608,0.245,1.019,0.853,1.019s0.851-0.411,0.851-1.019v-7.966H121.451L121.451,32.494z"/>
	<polygon fill="#FFFFFF" points="122.317,32.494 126.921,32.494 126.921,33.908 125.494,33.908 125.494,42.801 123.744,42.801 
		123.744,33.908 122.317,33.908 122.317,32.494 	"/>
	<polygon fill="#FFFFFF" points="127.803,32.494 129.535,32.494 129.535,42.801 127.803,42.801 127.803,32.494 	"/>
	<path fill="#FFFFFF" d="M134.127,40.414V34.88c0-0.623-0.275-1.064-0.899-1.064c-0.606,0-0.88,0.441-0.88,1.064v5.534
		c0,0.624,0.274,1.064,0.88,1.064C133.852,41.478,134.127,41.038,134.127,40.414L134.127,40.414z M130.615,40.139v-4.985
		c0-1.612,0.79-2.782,2.614-2.782c1.841,0,2.631,1.17,2.631,2.782v4.985c0,1.597-0.791,2.784-2.631,2.784
		C131.405,42.923,130.615,41.737,130.615,40.139L130.615,40.139z"/>
	<polygon fill="#FFFFFF" points="138.382,36.325 138.382,42.801 136.922,42.801 136.922,32.494 138.627,32.494 140.497,38.408 
		140.497,32.494 141.94,32.494 141.94,42.801 140.419,42.801 138.382,36.325 	"/>
	<path fill="#FFFFFF" d="M142.913,40.581v-1.383h1.612v1.413c0,0.579,0.256,0.913,0.851,0.913c0.547,0,0.79-0.365,0.79-0.913v-0.395
		c0-0.593-0.243-0.957-0.774-1.46l-1.02-1.018c-0.989-0.974-1.445-1.566-1.445-2.753v-0.349c0-1.278,0.746-2.265,2.434-2.265
		c1.734,0,2.416,0.852,2.416,2.341v0.836h-1.581v-0.897c0-0.592-0.272-0.882-0.819-0.882c-0.486,0-0.822,0.273-0.822,0.851v0.212
		c0,0.579,0.319,0.913,0.822,1.4l1.108,1.094c0.944,0.958,1.4,1.536,1.4,2.676v0.503c0,1.412-0.761,2.417-2.524,2.417
		C143.596,42.923,142.913,41.935,142.913,40.581L142.913,40.581z"/>
</g>
</svg>
