<?xml version="1.0" encoding="utf-8"?>
<!-- Generator: Adobe Illustrator 16.0.0, SVG Export Plug-In . SVG Version: 6.00 Build 0)  -->
<!DOCTYPE svg PUBLIC "-//W3C//DTD SVG 1.1//EN" "http://www.w3.org/Graphics/SVG/1.1/DTD/svg11.dtd">
<svg version="1.1" xmlns="http://www.w3.org/2000/svg" xmlns:xlink="http://www.w3.org/1999/xlink" x="0px" y="0px" width="40px"
	 height="75px" viewBox="0 0 40 75" enable-background="new 0 0 40 75" xml:space="preserve">
<g id="Layer_1">
	<g>
		<rect x="6.775" y="29.516" fill="#006BB5" width="12.826" height="12.827"/>
		<path fill="#FFFFFF" d="M10.028,31.617v5.045c0,2.668,1.32,3.66,3.076,3.66c1.854,0,3.24-1.07,3.24-3.699v-5.006h-1.119V36.7
			c0,1.883-0.826,2.721-2.084,2.721c-1.144,0-1.993-0.814-1.993-2.721v-5.083H10.028z"/>
		<rect x="20.392" y="29.516" fill="#006BB5" width="12.825" height="12.827"/>
		<path fill="#FFFFFF" d="M24.634,40.213v-3.659c0-1.425-0.013-2.453-0.078-3.533l0.04-0.012c0.421,0.926,0.993,1.905,1.589,2.857
			l2.718,4.347h1.117v-8.565h-1.04v3.595c0,1.325,0.025,2.365,0.127,3.51l-0.04,0.01c-0.395-0.887-0.9-1.779-1.524-2.781
			l-2.732-4.334h-1.22v8.565H24.634z"/>
		<rect x="20.392" y="43.13" fill="#006BB5" width="12.825" height="12.825"/>
		<path fill="#FFFFFF" d="M28.972,45.885c-0.51-0.459-1.309-0.714-2.403-0.714c-0.888,0-1.588,0.078-2.121,0.18v8.45h1.106v-3.43
			c0.255,0.063,0.56,0.076,0.89,0.076c1.08,0,2.032-0.322,2.616-0.941c0.445-0.446,0.674-1.057,0.674-1.83
			C29.733,46.911,29.44,46.29,28.972,45.885"/>
		<path fill="#006BB5" d="M26.468,49.606c-0.357,0-0.673-0.026-0.915-0.088V46.19c0.191-0.038,0.558-0.089,1.041-0.089
			c1.221,0,2.023,0.544,2.023,1.69C28.617,48.946,27.814,49.606,26.468,49.606"/>
		<rect x="6.762" y="43.141" fill="#006BB5" width="12.826" height="12.826"/>
		<path fill="#FFFFFF" d="M15.78,46.216c-0.75-0.7-1.879-1.057-3.469-1.057c-0.877,0-1.675,0.077-2.364,0.18v8.425
			c0.573,0.075,1.22,0.097,2.021,0.097c1.664,0,2.985-0.427,3.8-1.229c0.785-0.785,1.229-1.932,1.229-3.328
			C16.999,47.917,16.555,46.914,15.78,46.216"/>
		<path fill="#006BB5" d="M12.186,52.976c-0.435,0-0.84,0-1.119-0.052v-6.772c0.293-0.063,0.726-0.113,1.296-0.113
			c2.338,0,3.483,1.259,3.47,3.302C15.832,51.653,14.547,52.987,12.186,52.976"/>
		<rect x="6.775" y="2.251" fill="#006BB5" width="26.455" height="26.46"/>
		<path fill="#FFFFFF" d="M29.469,16.028c-0.37,0.525-0.817,1.015-1.161,1.551c0.039-0.424,0.088-0.944-0.077-1.346
			c-0.286-0.865-0.536-1.741-0.615-2.69l0.007-0.363c0.216,0.97,1.168,1.637,1.108,2.722c0.021,0.264-0.061,0.486-0.107,0.719
			l0.016,0.017l0.043-0.049c0.14-0.533,0.21-1.094,0.429-1.591c0.314-0.714,0.702-1.437,0.543-2.301
			C30.13,13.716,29.989,15.076,29.469,16.028"/>
		<path fill="#FFFFFF" d="M28.882,10.538c0.627,0.846,0.764,2.193,0.308,3.162c-0.167,0.413-0.289,0.85-0.354,1.304
			c-0.033-0.077-0.039-0.183-0.067-0.271c-0.248-0.948-1.147-1.625-1.517-2.521c-0.116-0.292-0.215-0.595-0.271-0.914
			c0.394,0.73,1.367,1.108,1.632,1.912c0.108,0.205,0.102,0.458,0.168,0.678c0.016,0,0.029-0.011,0.029-0.026
			c-0.116-0.829-0.08-1.696,0.032-2.513c-0.006-0.445-0.048-0.874-0.295-1.217C28.703,10.225,28.775,10.4,28.882,10.538"/>
		<path fill="#FFFFFF" d="M28.444,10.377c0.164,0.74-0.074,1.462,0.077,2.209l-0.008,0.007c-0.402-0.792-1.258-1.166-1.847-1.801
			c-0.342-0.377-0.49-0.835-0.574-1.322c0.339,0.814,1.248,0.994,1.77,1.678c0.175,0.158,0.232,0.377,0.345,0.558l0.018-0.018
			c-0.301-0.642-0.402-1.365-0.609-2.048c-0.108-0.297-0.315-0.589-0.595-0.776C27.707,9.005,28.302,9.72,28.444,10.377"/>
		<path fill="#FFFFFF" d="M26.61,8.677c0.518,0.462,0.75,1.062,0.904,1.683l0.083,0.196c-0.75-0.539-1.432-1.265-1.91-2.03
			L25.1,7.933C25.615,8.151,26.17,8.282,26.61,8.677"/>
		<path fill="#FFFFFF" d="M16.803,8.103c0.977-0.482,2.045-0.74,3.207-0.76c2.658,0.004,5.197,1.564,6.353,4.025
			c0.734,1.413,0.942,3.36,0.467,4.957c-0.484,1.885-2.069,3.793-3.917,4.569c-2.08,1.018-5.035,0.765-6.889-0.566
			c-2.577-1.765-3.631-4.808-2.853-7.812C13.644,10.733,15.064,8.931,16.803,8.103"/>
		<path fill="#FFFFFF" d="M14.764,8.033c-0.518,0.454-0.878,1.029-1.261,1.565c-0.346,0.427-0.786,0.708-1.179,1.075
			c0.212-0.438,0.22-0.959,0.52-1.361C13.271,8.568,14.061,8.307,14.764,8.033"/>
		<path fill="#FFFFFF" d="M11.931,9.615c0.25-0.313,0.57-0.532,0.93-0.623c-0.697,0.478-0.652,1.338-0.875,2.055
			c-0.071,0.265-0.193,0.508-0.254,0.778l0.019,0.015c0.116-0.308,0.32-0.596,0.573-0.847c0.498-0.457,1.231-0.743,1.475-1.419
			c-0.01,0.94-0.797,1.68-1.548,2.21c-0.312,0.271-0.611,0.582-0.78,0.93c-0.018-0.235,0.036-0.475,0.019-0.729
			C11.408,11.162,11.349,10.225,11.931,9.615"/>
		<path fill="#FFFFFF" d="M10.518,12.426c-0.021-0.833,0.323-1.514,0.812-2.134c0.012-0.007,0.023-0.02,0.041-0.018
			c-0.535,0.815-0.094,1.841-0.117,2.767l-0.071,0.949c0.009,0.007,0.009,0.035,0.035,0.025c0.031-0.105,0.039-0.219,0.059-0.327
			c0.128-0.766,0.791-1.309,1.373-1.838c0.124-0.136,0.231-0.278,0.297-0.439c-0.047,0.379-0.167,0.764-0.325,1.118
			c-0.451,0.88-1.287,1.603-1.438,2.611C11.109,14.174,10.448,13.45,10.518,12.426"/>
		<path fill="#FFFFFF" d="M10.109,13.609c0.061-0.26,0.108-0.529,0.22-0.767c-0.215,1.1,0.525,1.893,0.768,2.849
			c0.103,0.355,0.128,0.739,0.272,1.074c0.014,0.007,0.026-0.007,0.035-0.017c-0.363-1.015,0.159-1.956,0.684-2.751
			c0.126-0.215,0.203-0.454,0.265-0.7c0.057,0.457-0.058,0.987-0.126,1.462c-0.127,0.607-0.318,1.181-0.483,1.77
			c-0.109,0.365-0.081,0.782-0.024,1.167l-0.052-0.042c-0.386-0.708-1.146-1.261-1.371-2.036
			C10.106,14.998,9.984,14.283,10.109,13.609"/>
		<path fill="#FFFFFF" d="M10.075,15.76c0.085,1.167,1.341,1.784,1.923,2.749c0.137,0.198,0.257,0.416,0.44,0.582
			c-0.03-0.123-0.145-0.229-0.187-0.356c-0.206-0.405-0.279-0.888-0.23-1.378c0.057-0.596,0.307-1.15,0.213-1.777
			c0.51,1.103,0.355,2.479,0.641,3.674c0.073,0.26,0.226,0.494,0.324,0.744c-1.051-0.716-2.482-1.397-2.948-2.708
			C10.055,16.838,10.033,16.278,10.075,15.76"/>
		<path fill="#FFFFFF" d="M10.703,18.439c0.585,1.324,2.051,1.434,3.036,2.241c0.18,0.159,0.372,0.296,0.575,0.392l0.009-0.011
			c-0.226-0.204-0.484-0.437-0.644-0.7c-0.575-0.802-0.373-1.922-0.803-2.783c0.391,0.469,0.747,0.954,0.983,1.486
			c0.354,0.868,0.487,1.848,1.302,2.506c-0.883-0.291-1.914-0.208-2.691-0.753C11.621,20.297,10.862,19.412,10.703,18.439"/>
		<path fill="#FFFFFF" d="M12.209,20.911c0.937,1.068,2.472,0.712,3.723,0.99c0.175,0.025,0.338,0.095,0.526,0.066
			c-0.149-0.094-0.357-0.084-0.52-0.169c-0.979-0.346-1.124-1.406-1.656-2.121c0.681,0.45,1.251,1.06,1.879,1.649
			c0.452,0.394,0.993,0.578,1.565,0.695c-0.137,0.049-0.317,0.035-0.465,0.074c-1.024,0.254-2.168,0.666-3.257,0.296
			C13.294,22.168,12.563,21.609,12.209,20.911"/>
		<path fill="#FFFFFF" d="M24.95,23.398c-1.058,0.396-2.162-0.017-2.988-0.643c-0.333-0.213-0.629-0.52-1.063-0.49
			c-0.154-0.004-0.308,0.004-0.44,0.042c0.802,0.374,1.549,0.888,2.231,1.548c-0.116,0.13-0.264,0.253-0.404,0.366
			c-0.656-0.707-1.387-1.389-2.201-1.788c-0.158,0.022-0.312,0.117-0.454,0.194c-0.664,0.419-1.32,0.959-1.813,1.618l-0.424-0.348
			c0.677-0.684,1.426-1.216,2.242-1.597c-0.802-0.253-1.328,0.42-1.938,0.762c-0.712,0.496-1.733,0.729-2.595,0.387
			c-0.463-0.177-0.909-0.435-1.244-0.854c0.678,0.466,1.685,0.515,2.454,0.212c1.032-0.448,2.104-1.015,3.348-0.745
			c0.195,0.004,0.385,0.198,0.568,0.032c0.924-0.239,1.971-0.073,2.767,0.35l0.822,0.327c0.762,0.281,1.749,0.205,2.401-0.261
			C25.884,22.929,25.426,23.23,24.95,23.398"/>
		<path fill="#FFFFFF" d="M26.085,22.306c-1.19,0.448-2.384-0.102-3.522-0.285l-0.219-0.028v-0.007
			c0.544-0.124,1.072-0.286,1.505-0.679c0.638-0.613,1.206-1.242,1.915-1.727c-0.525,0.674-0.58,1.632-1.449,2.065
			c-0.216,0.14-0.485,0.165-0.709,0.273c0.318,0.006,0.607-0.108,0.921-0.139c1.164-0.182,2.495,0.005,3.31-0.987
			C27.533,21.484,26.777,22.063,26.085,22.306"/>
		<path fill="#FFFFFF" d="M26.742,21.097c-0.604,0.163-1.252,0.216-1.843,0.415c0.998-0.855,0.942-2.182,1.608-3.189
			c0.21-0.287,0.387-0.586,0.634-0.856c-0.403,0.813-0.229,1.867-0.693,2.656c-0.18,0.313-0.438,0.617-0.721,0.864
			c0.093-0.004,0.175-0.083,0.255-0.137c0.758-0.755,1.746-0.966,2.563-1.58c0.327-0.26,0.628-0.602,0.772-0.972
			C29.162,19.549,27.918,20.723,26.742,21.097"/>
		<path fill="#FFFFFF" d="M28.242,18.965c-0.469,0.305-0.944,0.591-1.396,0.939v-0.041c0.692-1.149,0.354-2.726,0.777-3.988
			l0.16-0.422c-0.088,0.785,0.254,1.452,0.231,2.241c-0.026,0.476-0.181,0.9-0.432,1.28h0.042c0.34-0.444,0.605-0.916,1-1.34
			c0.612-0.593,1.236-1.198,1.318-2.02C30.149,16.986,29.381,18.188,28.242,18.965"/>
		<path fill="#006BB5" d="M22.936,18.873l0.05-0.068c0.212-0.165,0.44-0.321,0.628-0.525h0.025
			c-0.043-0.013-0.097,0.029-0.145,0.008c-0.102-0.046-0.116-0.134-0.116-0.237l-0.434-0.448l-0.024-0.067
			c-0.032,0.085-0.096,0.137-0.159,0.199c0.004,0.057-0.018,0.143,0.05,0.181c0.141,0.047,0.324,0.139,0.356,0.303
			c-0.058,0.155-0.354,0.296-0.172,0.466C23.056,18.77,22.912,18.801,22.936,18.873"/>
		<path fill="#006BB5" d="M20.416,13.151c0.081,0.046,0.125-0.038,0.194-0.056c0.099,0.01,0.175,0.096,0.235,0.158
			c0.063,0.029,0.124-0.01,0.18-0.031c0.039-0.293,0.406-0.251,0.514-0.525l-0.065,0.025c-0.029-0.039-0.098-0.022-0.096-0.085
			c0.061-0.057,0.138-0.144,0.212-0.169c-0.316-0.198-0.645-0.367-1.005-0.458c-0.14-0.033-0.29-0.036-0.423-0.084
			c0.066,0.2,0.008,0.497,0.05,0.729l0.252,0.083c0.076-0.122,0.237-0.147,0.307-0.263c0.046-0.039,0.098,0,0.135,0.042
			c0.011,0.095-0.015,0.189-0.042,0.281C20.767,12.989,20.542,13.012,20.416,13.151"/>
		<path fill="#006BB5" d="M24.172,15.52c-0.149,0.473-0.322,0.934-0.618,1.346c-0.116,0.148-0.23,0.354-0.38,0.431l0.32,0.282
			c0.017-0.018,0.007-0.046,0.011-0.071c0-0.042,0.02-0.092,0.073-0.085c0.154-0.003,0.158,0.163,0.247,0.247
			c-0.02,0.135,0.099,0.24,0.059,0.363c0.89-0.938,1.334-2.086,1.416-3.36l0.047-0.056c-0.316,0.031-0.651,0.009-0.979,0.014
			l-0.078-0.025c0.022,0.215-0.035,0.422-0.048,0.635l0.114,0.125c0.035,0.05,0.022,0.124-0.023,0.163
			C24.283,15.563,24.221,15.559,24.172,15.52"/>
		<path fill="#006BB5" d="M23.323,12.399c-0.119-0.225-0.309-0.427-0.472-0.627l-0.017,0.043c-0.325,0.337-0.682,0.687-0.99,1.033
			c0.02,0.042,0.054,0.081,0.095,0.101c0.013-0.084,0.06-0.159,0.067-0.246c0.083-0.117,0.211-0.042,0.32-0.018
			c0.169-0.039,0.327,0.039,0.5,0.036c0.127,0.063,0.138,0.225,0.255,0.288c0.03,0.046,0.005,0.099-0.037,0.134
			c0.037,0.265,0.162-0.071,0.296-0.007c0.056,0.022,0.127,0.014,0.169,0.074c0.021,0.109,0.155,0.089,0.163,0.194
			c-0.011,0.053-0.067,0.067-0.104,0.096c0.033,0.105-0.107,0.172-0.059,0.285c0.204,0.039,0.212-0.199,0.307-0.303
			c-0.053-0.183-0.091-0.37-0.196-0.533c-0.116-0.023-0.187-0.162-0.304-0.187C23.092,12.674,23.353,12.534,23.323,12.399"/>
		<path fill="#006BB5" d="M20.179,19.761c0.262-0.088,0.565-0.073,0.847-0.12c-0.056-0.022-0.113-0.035-0.156-0.093
			c-0.165-0.01-0.242-0.181-0.294-0.314c-0.026-0.094,0.04-0.171,0.079-0.253c-0.071-0.145-0.291-0.039-0.417-0.091
			c-0.035-0.029-0.061-0.072-0.109-0.08l0.052,0.08C20.179,19.18,20.213,19.476,20.179,19.761"/>
		<path fill="#006BB5" d="M20.405,17.011c0.092,0.017,0.027,0.116,0.095,0.152c0.145-0.047,0.255,0.122,0.369,0.017
			c-0.005-0.166,0.182-0.152,0.283-0.194c0.16-0.095,0.338-0.221,0.322-0.434l-0.027-0.031c-0.109,0-0.165,0.083-0.244,0.152
			c-0.1,0.057-0.15-0.106-0.231-0.068c0.004,0.019,0.021,0.026,0.037,0.033c0.02,0.025,0.027,0.077,0,0.102
			c-0.12,0.108-0.177-0.054-0.29-0.043v0.043c0.004,0.025-0.007,0.063-0.042,0.049c-0.071-0.116-0.215-0.074-0.286-0.176
			c-0.045-0.025-0.087,0.007-0.119,0.035c-0.025,0.052-0.138-0.006-0.11,0.086c-0.087,0.031-0.098,0.125-0.161,0.183
			c-0.111-0.02-0.159,0.104-0.261,0.103c0.01,0.021,0,0.056,0.03,0.059c0.064,0.028,0.127,0.035,0.205,0.024
			C20.081,16.933,20.257,17.075,20.405,17.011"/>
		<path fill="#006BB5" d="M21.447,15.634c0.005,0.052,0.012,0.122,0.058,0.167c0.138-0.02,0.079,0.169,0.204,0.153
			c0.072-0.021,0.005-0.081,0.024-0.126c-0.02-0.107-0.123-0.118-0.193-0.18c-0.007-0.021,0.007-0.039,0.018-0.056
			C21.505,15.563,21.48,15.594,21.447,15.634"/>
		<path fill="#006BB5" d="M21.287,10.768c-0.357-0.127-0.747-0.18-1.136-0.238l0.036,0.076l-0.008,0.955l0.093-0.018
			c0.585,0.081,1.12,0.268,1.582,0.645l0.025,0.075c0.157-0.223,0.397-0.414,0.584-0.624l0.178-0.102l-0.086-0.035
			C22.167,11.176,21.746,10.93,21.287,10.768"/>
		<path fill="#006BB5" d="M14.73,14.702l0.077,0.649c0.032,0.25,0.141,0.49,0.133,0.737c0.039-0.053,0.016-0.158,0.111-0.17
			c-0.041-0.077,0.073-0.144,0.01-0.21c0.031-0.169,0.052-0.343,0.201-0.466c0.18-0.007,0.194-0.244,0.373-0.255
			c0.092-0.004,0.148,0.12,0.189,0.162c-0.114-0.136-0.108-0.361-0.08-0.517l-0.078,0.036c-0.328-0.007-0.669,0.02-0.98-0.025
			L14.73,14.702z"/>
		<path fill="#006BB5" d="M21.051,16.352c0.083-0.088,0.263-0.085,0.27-0.21c-0.123-0.019-0.186,0.048-0.27,0.116
			C21.04,16.284,21.002,16.333,21.051,16.352"/>
		<path fill="#006BB5" d="M23.294,14.583l0.107,0.108c0.109,0.075,0.036,0.233,0.152,0.297c0.135,0.07,0.186,0.229,0.248,0.348
			c0.021-0.031,0.021-0.07,0.031-0.102c0.048-0.195,0.041-0.412,0.101-0.604C23.722,14.642,23.479,14.663,23.294,14.583"/>
		<path fill="#006BB5" d="M21.872,17.053c0.119,0.031,0.201,0.18,0.351,0.134c0.129-0.071,0.339,0.042,0.424-0.092
			c-0.014-0.131,0.099-0.226,0.156-0.338l0.042-0.01c0.071,0.073,0.068,0.184,0.1,0.264c0.098-0.106,0.175-0.223,0.264-0.331
			c0.232-0.339,0.431-0.702,0.515-1.089c-0.095,0.003-0.19,0.02-0.277,0.048c-0.104-0.006-0.228,0.054-0.314-0.018
			c-0.031-0.028-0.054,0.014-0.048,0.043c-0.037,0.053-0.072,0.119-0.153,0.095c-0.064-0.028-0.064-0.095-0.085-0.144
			c0.004,0.038-0.01,0.074-0.017,0.108c-0.075,0.078-0.099,0.152-0.151,0.236c-0.074,0.082-0.193,0.053-0.272,0.12
			c-0.014,0.169-0.201,0.134-0.306,0.187c-0.008,0.021,0.018,0.024,0.026,0.042c0.051,0.014,0.117,0.014,0.152-0.036
			c0.149,0.041,0.116-0.147,0.204-0.211c0.074-0.011,0.143-0.073,0.219-0.024c0.078,0.094,0.097,0.232,0.085,0.356
			c-0.085,0.083-0.041,0.222-0.101,0.321c0.013,0.116-0.128,0.168-0.109,0.286c-0.045,0.052-0.124,0.061-0.196,0.061
			c-0.277-0.107-0.57-0.174-0.881-0.203c-0.027,0.011-0.045,0.035-0.041,0.068C21.584,16.994,21.738,16.997,21.872,17.053"/>
		<path fill="#006BB5" d="M19.77,20.142l0.037-0.054l-0.11,0.029c-1.374-0.095-2.591-0.581-3.595-1.552l-0.011,0.042l-0.727,0.73
			c1.1,0.952,2.342,1.565,3.759,1.759c0.226,0.039,0.484,0.018,0.701,0.084l-0.053-0.084V20.142z"/>
		<path fill="#006BB5" d="M18.349,16.341c0.378,0.311,0.801,0.504,1.271,0.586c0.024-0.095-0.014-0.215,0.035-0.296
			c0.035-0.078,0.129-0.075,0.201-0.061c0.041-0.004,0.067-0.055,0.041-0.092c-0.101-0.02-0.055-0.134-0.091-0.198
			c0.005-0.035,0.065-0.028,0.05-0.074c-0.072-0.056,0.035-0.119-0.025-0.179c0.017-0.012,0.03-0.032,0.047-0.046
			c-0.213,0.09-0.44-0.04-0.629-0.124c-0.093-0.054-0.225-0.106-0.246-0.219C18.851,15.886,18.56,16.111,18.349,16.341"/>
		<path fill="#006BB5" d="M17.986,15.241c-0.034-0.018-0.038-0.014-0.066,0.017c-0.018,0-0.039,0.004-0.053-0.007
			c0-0.2-0.224-0.08-0.31-0.186c0.099,0.182,0.151,0.39,0.253,0.573c0.063,0.161,0.203,0.29,0.269,0.448
			c0.066-0.127,0.201-0.229,0.296-0.345c0.007-0.053-0.004-0.099-0.034-0.138c-0.031-0.075-0.001-0.18-0.059-0.242
			c-0.091,0.032,0.032,0.123-0.007,0.176c-0.039,0.024-0.081-0.009-0.084-0.043c-0.081-0.014-0.145-0.084-0.17-0.159
			C18.088,15.294,18.004,15.276,17.986,15.241"/>
		<path fill="#006BB5" d="M18.664,15.344c-0.022,0.088-0.082,0.165-0.146,0.229l0.013,0.007c0.083-0.061,0.145-0.169,0.253-0.176
			L18.664,15.344z"/>
		<path fill="#006BB5" d="M19.687,18.77c-0.858-0.043-1.607-0.356-2.274-0.854c0.021,0.084,0.133,0.139,0.102,0.244
			c-0.06,0.096-0.184,0.098-0.282,0.096c-0.202-0.033-0.35,0.119-0.539,0.139c-0.174,0.054-0.233-0.158-0.392-0.139
			c0.98,0.855,2.1,1.391,3.414,1.462l0.098,0.067l-0.043-0.119v-0.931L19.687,18.77z"/>
		<path fill="#006BB5" d="M15.879,18.312c-0.12-0.084-0.227-0.221-0.328-0.338c-0.117-0.032-0.237-0.113-0.297-0.225
			c-0.035-0.04-0.003-0.109-0.041-0.138l-0.044,0.054c-0.123,0.06-0.168-0.068-0.252-0.121c-0.11-0.06-0.056-0.268-0.206-0.229
			c-0.056-0.004-0.073-0.067-0.109-0.102c-0.136,0.013-0.172-0.138-0.247-0.212c-0.013,0.032,0,0.074-0.041,0.094
			c-0.141,0.033-0.19-0.139-0.286-0.212c-0.024,0.01-0.043,0.041-0.078,0.033c-0.083-0.074-0.14-0.179-0.145-0.297
			c-0.116-0.131-0.063-0.338-0.042-0.498c0.021-0.042,0.082-0.065,0.07-0.119c0.033-0.073,0.111-0.081,0.185-0.085
			c0.028,0.014,0.056,0.042,0.07,0.067c0.045-0.028,0.148,0.004,0.109-0.099c0.06-0.052,0.148-0.071,0.229-0.085
			c0.057,0.072,0.083,0.153,0.159,0.219l-0.049-0.076c-0.084-0.346-0.151-0.699-0.17-1.072c0.004-0.022-0.045-0.032-0.017-0.052
			l0.005,0.01c0.006-0.078-0.002-0.145,0.012-0.198l-0.095,0.035l-0.98-0.006c0.057,1.126,0.357,2.152,0.863,3.095
			c0.251,0.465,0.617,0.884,0.938,1.318l0.702-0.727L15.879,18.312z"/>
		<path fill="#006BB5" d="M17.006,10.08c-0.218,0.152-0.419,0.349-0.646,0.483c0.263,0.166,0.478,0.441,0.713,0.659l0.025,0.068
			c0.6-0.574,1.328-0.909,2.115-1.072c0.187-0.017,0.375-0.081,0.556-0.042c-0.013-0.334-0.043-0.684-0.008-1.016
			C18.741,9.22,17.826,9.531,17.006,10.08"/>
		<path fill="#006BB5" d="M16.167,13.761c-0.039,0.168-0.017,0.366-0.085,0.525c0.125-0.057,0.305-0.035,0.441-0.019
			c-0.079-0.042-0.012-0.144-0.06-0.2c-0.01-0.087-0.025-0.197,0.06-0.254c-0.009-0.145,0.144-0.219,0.16-0.348
			c0.039-0.148,0.207-0.049,0.289-0.128c0.053-0.028,0.008-0.077,0.008-0.116c0.069-0.096,0.18-0.092,0.263-0.145
			c0.061-0.092,0.138-0.19,0.236-0.246c0.213,0.007,0.216-0.29,0.417-0.296c-0.274-0.209-0.537-0.486-0.779-0.727
			C16.631,12.39,16.298,13.031,16.167,13.761"/>
		<path fill="#006BB5" d="M16.302,15.191c0.01-0.064-0.084-0.081-0.075-0.144c0.067-0.131,0.003-0.342,0.177-0.398
			c-0.123,0.021-0.232,0.045-0.338-0.032l0.051,0.085c0.008,0.233,0.101,0.455,0.05,0.691
			C16.207,15.326,16.218,15.234,16.302,15.191"/>
		<polygon fill="#006BB5" points="17.274,17.756 17.274,17.737 17.26,17.712 		"/>
		<path fill="#006BB5" d="M16.101,10.859l-0.382,0.485c-0.622,0.855-0.92,1.846-1.008,2.924l0.967-0.017l0.092,0.035
			c-0.04-0.026-0.03-0.068-0.043-0.102c0.078-1.005,0.431-1.899,1.124-2.648c-0.267-0.232-0.518-0.478-0.744-0.743L16.101,10.859z"
			/>
		<path fill="#006BB5" d="M19.078,17.452c0.078-0.083,0.169-0.138,0.266-0.173c-0.313,0.063-0.589-0.163-0.857-0.286
			c-0.152-0.113-0.349-0.205-0.44-0.375c-0.209,0.255-0.455,0.518-0.702,0.72c0.109,0.006,0.169,0.127,0.262,0.18
			c0.529,0.441,1.188,0.652,1.8,0.804l-0.167-0.079c-0.128-0.143-0.309-0.313-0.315-0.513
			C19.051,17.688,19.037,17.548,19.078,17.452"/>
		<path fill="#006BB5" d="M16.667,14.649l-0.027,0.186c-0.042,0.111-0.18,0.029-0.242,0.103c-0.046,0.07,0.002,0.145,0.04,0.2
			c-0.098,0.227,0.224,0.298,0.22,0.501c0.1,0.126-0.013,0.311,0.127,0.423c0.031,0.23-0.032,0.539,0.17,0.719l0.036,0.219
			c0.041,0.151-0.181,0.112-0.152,0.247c0.042-0.022,0.052,0.035,0.056,0.049V17.29c0.271-0.313,0.585-0.645,0.905-0.923
			l-0.133-0.135c-0.25-0.373-0.448-0.772-0.543-1.209l-0.102-0.051c-0.004,0.112-0.058,0.201-0.05,0.313l-0.036,0.042
			c-0.073-0.003-0.12-0.064-0.183-0.102c-0.014-0.038-0.053-0.103,0.007-0.134c0.035-0.001,0.06,0.009,0.086,0.025
			c0.031-0.038,0.017-0.095,0.035-0.143c0.01-0.086-0.065-0.163-0.012-0.238c0.067-0.007,0.118,0.074,0.144,0.12
			c0.068,0.021,0.12-0.034,0.177-0.06c0-0.06,0.084-0.142-0.006-0.177c0.05-0.137,0.013-0.281-0.008-0.415
			c-0.038-0.117-0.169-0.096-0.264-0.085c-0.286,0.091,0.047,0.307-0.024,0.483C16.848,14.702,16.742,14.607,16.667,14.649"/>
		<path fill="#006BB5" d="M25.702,14.632l-0.059-0.043l0.034,0.095c-0.055,1.174-0.445,2.209-1.118,3.133
			c-0.129,0.154-0.251,0.344-0.414,0.453c0.269,0.211,0.564,0.529,0.785,0.772l0.028-0.052c1.08-1.231,1.693-2.656,1.759-4.305
			l0.043-0.084l-0.052,0.026L25.702,14.632z"/>
		<path fill="#006BB5" d="M16.15,10.316l0.017-0.049c1.03-0.938,2.228-1.452,3.603-1.515l-0.03-0.084L19.727,7.82l0.03-0.097
			c-1.418,0.055-2.676,0.538-3.792,1.342c-0.215,0.149-0.406,0.374-0.625,0.501h0.031C15.649,9.769,15.915,10.063,16.15,10.316"/>
		<path fill="#006BB5" d="M19.721,10.556c-0.896,0.064-1.672,0.438-2.352,0.999c0.269,0.185,0.508,0.485,0.751,0.7
			c0.017-0.024,0.036-0.049,0.052-0.077c0.335-0.238,0.682-0.457,1.077-0.556c0.174-0.019,0.348-0.102,0.531-0.061
			c-0.037-0.331-0.037-0.697,0-1.04L19.721,10.556z"/>
		<path fill="#006BB5" d="M19.77,11.951c-0.566,0.075-1.089,0.269-1.503,0.709h0.075c0.086,0.086,0.224,0.067,0.287,0.181
			c0.032,0.063-0.06,0.056-0.057,0.108c0.019,0.015,0.042,0.018,0.057,0.043c0.067,0.023,0.053-0.039,0.079-0.068
			c0.087-0.086,0.101,0.085,0.186,0.085c0.061-0.039,0.145-0.043,0.186,0.024c0.058-0.05,0.178-0.004,0.195-0.094
			c0.11-0.117,0.05-0.297,0.212-0.37c0.056,0.031-0.004,0.084,0.018,0.133c0.108,0.047,0.232-0.091,0.32,0.019
			C19.743,12.491,19.762,12.206,19.77,11.951"/>
		<path fill="#006BB5" d="M19.805,13.532c-0.104,0.175-0.282,0.215-0.448,0.264c-0.046,0.057-0.034,0.18-0.144,0.168
			c-0.035,0.079-0.155,0.125-0.108,0.238c-0.058,0.12-0.03,0.274-0.06,0.405c-0.208,0.131-0.15-0.173-0.253-0.237l-0.038,0.061
			c-0.041,0.01-0.069-0.015-0.098-0.043c-0.032-0.012-0.085-0.022-0.113,0.007c-0.046,0.078-0.117,0.142-0.1,0.247
			c-0.02,0.063-0.125,0.042-0.112,0.109c0.117-0.003,0.243-0.025,0.355-0.049c0.082,0.02,0.149-0.039,0.23-0.042
			c0.026,0.014,0.062,0.042,0.048,0.085h0.029c0.056-0.042,0.08-0.107,0.056-0.169c0.007-0.075,0.088-0.075,0.136-0.096
			c0.047,0.021,0.019,0.066,0.026,0.103c0.158,0.06-0.038,0.176-0.061,0.26c-0.042,0.068,0,0.22-0.134,0.198
			c-0.024-0.007-0.04-0.032-0.034-0.061h-0.019c-0.002,0.058,0.04,0.134,0.096,0.159c0.097-0.081,0.102-0.218,0.243-0.237
			c0.073-0.077-0.032-0.197,0.079-0.26c0.182-0.004,0.377-0.081,0.523,0.067c-0.012,0.064-0.035,0.093,0.019,0.145
			c-0.037,0.082-0.061,0.169-0.128,0.236c0.019,0.047,0.004,0.102-0.037,0.134c-0.048,0.216-0.295,0.113-0.438,0.187
			c0.222,0.169,0.489,0.233,0.778,0.211c0.151-0.007,0.085-0.195,0.163-0.278c0.048-0.246,0.276-0.078,0.413-0.145
			c0.053-0.104,0.105-0.208,0.119-0.327c-0.087-0.056-0.122-0.163-0.094-0.264c-0.06-0.081-0.054-0.229-0.185-0.245
			c-0.02-0.027-0.003-0.064,0.016-0.083c-0.003-0.077,0.073-0.102,0.095-0.162c-0.08-0.052-0.06-0.169-0.053-0.237
			c-0.138,0.04-0.151-0.141-0.254-0.178c-0.025-0.082-0.113-0.096-0.184-0.109c-0.169,0.081-0.196-0.129-0.324-0.177
			c-0.014-0.039-0.043-0.096,0-0.126c0.064-0.053,0.148-0.007,0.223-0.012l-0.06-0.031c-0.056-0.063-0.18-0.023-0.253,0
			C19.792,13.317,19.762,13.443,19.805,13.532"/>
		<path fill="#006BB5" d="M14.373,14.279l-0.024-0.138c0.067-1.125,0.426-2.125,1.057-3.021c0.157-0.18,0.274-0.405,0.473-0.54
			c-0.23-0.215-0.468-0.465-0.709-0.701l-0.024-0.096c-1.006,1.118-1.624,2.394-1.806,3.85c-0.04,0.211-0.013,0.43-0.056,0.645
			C13.637,14.251,14.021,14.251,14.373,14.279"/>
		<path fill="#006BB5" d="M23.91,18.492c-0.101,0.193-0.318,0.316-0.484,0.465c-0.228,0.229-0.603,0.278-0.718,0.61
			c-0.123,0.113-0.166,0.289-0.338,0.352c-0.064,0.169-0.244,0.16-0.346,0.282c-0.297,0.265-0.487-0.169-0.755-0.221l-0.539,0.094
			c-0.188,0-0.374,0.067-0.551,0.007c0.026,0.358,0.026,0.747,0,1.107l0.067-0.042c1.699-0.074,3.165-0.72,4.424-1.863l-0.743-0.708
			L23.91,18.492z"/>
		<path fill="#006BB5" d="M20.162,8.659c0-0.031,0.013-0.06,0.032-0.083c0.049-0.029,0.09,0.014,0.11,0.048
			c0.004,0.049,0.026,0.134-0.016,0.163c0.042,0.007,0.064-0.025,0.102-0.025c0.807,0.061,1.555,0.296,2.226,0.677V9.421
			c0.136-0.067,0.313-0.155,0.454-0.035c0.17-0.064,0.201,0.145,0.338,0.169c0.167,0.098,0.354,0.283,0.374,0.477
			c0.03,0.063,0.131,0.108,0.145,0.176c0.113-0.24,0.338-0.409,0.533-0.618l0.119-0.049c-1.064-1.016-2.33-1.577-3.741-1.771
			c-0.224-0.038-0.473-0.017-0.688-0.084C20.194,7.965,20.182,8.346,20.162,8.659"/>
		<path fill="#006BB5" d="M20.162,10.176c0.134-0.046,0.27,0.01,0.405,0.014c0.691,0.113,1.345,0.334,1.896,0.761
			c-0.065-0.071-0.147-0.152-0.162-0.254c0.012-0.014,0.025-0.018,0.043-0.014c0.008-0.11-0.109-0.167-0.126-0.265
			c0.017-0.021,0.042-0.041,0.077-0.032c0.119,0.113,0.221,0.237,0.31,0.362c0.079-0.03,0.142,0.019,0.198,0.06
			c0.102,0.061,0.039,0.192,0.117,0.263c0.013,0.208,0.268,0.324,0.254,0.533c0.001,0.049,0.063,0.01,0.084,0.035l0.211,0.26
			c-0.039,0.051-0.007,0.111,0.037,0.144c0.094,0.044,0.148-0.077,0.242-0.06c0.137,0.078-0.021,0.17-0.007,0.255
			c0.053,0.002,0.121-0.042,0.164,0.01c0.017,0.078-0.064,0.126-0.098,0.177c0,0.077,0.064,0.059,0.122,0.077
			c0.063-0.004,0.102,0.075,0.085,0.126c0.176,0.184-0.054,0.382,0.031,0.575c0.055,0.125-0.015,0.249-0.093,0.345
			c0.004,0.156-0.139,0.25-0.192,0.381l-0.181,0.035c-0.096,0.096,0.083,0.213-0.015,0.273l0.396,0.007l-0.044-0.043
			c-0.055-0.154-0.042-0.364,0.055-0.501c0.059-0.126,0.074-0.279,0.188-0.387c0.023-0.007,0.069-0.054,0.092,0
			c0.006,0.119-0.005,0.256-0.061,0.362c0.113,0.162,0.098,0.374,0.108,0.575c0.348-0.022,0.69-0.029,1.033-0.025l-0.031-0.067
			c-0.053-0.652-0.188-1.269-0.459-1.825c-0.074,0.004-0.127,0.063-0.211,0.041c-0.028-0.009-0.046-0.038-0.043-0.069
			c-0.141-0.134-0.23-0.311-0.387-0.432c-0.182,0.017-0.263-0.19-0.424-0.211c-0.144-0.059-0.045-0.292-0.253-0.228
			c-0.103-0.043-0.202-0.121-0.222-0.237c0-0.183-0.036-0.38-0.201-0.5c-0.127-0.046-0.179,0.123-0.307,0.095
			c-0.071-0.035-0.039-0.127-0.061-0.186c-0.023-0.054-0.083-0.092-0.073-0.163c0.166-0.219-0.201-0.214-0.121-0.43
			c-0.021-0.156-0.179-0.216-0.261-0.338c-0.546-0.247-1.093-0.415-1.709-0.49c-0.151-0.021-0.292,0.011-0.423-0.059l0.034,0.065
			C20.171,9.519,20.194,9.868,20.162,10.176"/>
		<path fill="#006BB5" d="M24.017,10.538c0.076,0.017,0.097,0.106,0.146,0.158c0.256,0.138,0.323,0.414,0.549,0.568
			c0.127,0.266,0.42,0.469,0.431,0.774c0.306,0.676,0.514,1.392,0.535,2.188l-0.027,0.042c0.03,0,0.059-0.013,0.083-0.031
			l1.017-0.018c-0.067-0.098-0.04-0.243-0.057-0.363c-0.135-1.568-0.804-2.913-1.854-4.096c-0.194,0.261-0.458,0.504-0.702,0.754
			L24.017,10.538z"/>
		<path fill="#FFFFFF" d="M20.305,8.491c0.031-0.056,0.111-0.036,0.153-0.018l0.508-0.218c0.204,0.017,0.429,0.041,0.55,0.212v0.024
			c-0.127,0.105-0.289,0.189-0.458,0.119c-0.233,0.047-0.558,0.18-0.746-0.06C20.305,8.532,20.284,8.508,20.305,8.491"/>
		<path fill="#FFFFFF" d="M23.334,9.132c0.071,0.022,0.135,0.053,0.16,0.128c-0.02,0.079,0.074,0.147,0.016,0.21
			c-0.19,0.049-0.207-0.165-0.355-0.218c-0.021-0.029-0.028-0.064-0.024-0.103C23.197,9.068,23.26,9.203,23.334,9.132"/>
		<polygon fill="#231F20" points="4.271,64.735 2.986,64.735 2.745,66.025 4.191,66.025 4.118,66.398 2.236,66.398 2.908,62.864 
			4.71,62.864 4.638,63.235 3.274,63.235 3.06,64.368 4.343,64.368 		"/>
		<path fill="#231F20" d="M4.675,66.397l0.341-1.798c0.053-0.283,0.089-0.53,0.116-0.739h0.382l-0.068,0.478h0.015
			c0.236-0.357,0.556-0.535,0.892-0.535c0.388,0,0.572,0.247,0.592,0.568c0.226-0.367,0.551-0.562,0.928-0.568
			c0.294,0,0.619,0.188,0.619,0.666c0,0.116-0.016,0.289-0.042,0.43l-0.283,1.499H7.742l0.273-1.463
			c0.02-0.093,0.037-0.225,0.037-0.33c0-0.267-0.1-0.441-0.383-0.441c-0.315,0-0.692,0.367-0.797,0.933l-0.241,1.301H6.211
			l0.283-1.49c0.021-0.115,0.032-0.209,0.032-0.309c0-0.215-0.058-0.436-0.377-0.436c-0.321,0-0.714,0.421-0.814,0.961L5.1,66.397
			H4.675z"/>
		<path fill="#231F20" d="M9.4,65.972c0.115,0.09,0.278,0.142,0.488,0.142c0.561,0,1.027-0.698,1.027-1.363
			c0-0.267-0.115-0.588-0.487-0.588c-0.341,0-0.766,0.389-0.896,1.102L9.4,65.972z M8.687,67.436l0.508-2.675
			c0.058-0.303,0.11-0.65,0.143-0.906h0.398l-0.069,0.482h0.011c0.225-0.335,0.56-0.535,0.912-0.535
			c0.546,0,0.776,0.451,0.776,0.917c0,0.897-0.639,1.736-1.484,1.736c-0.267,0-0.445-0.058-0.544-0.116H9.327l-0.204,1.097H8.687z"
			/>
		<path fill="#231F20" d="M12.767,66.11c0.514,0,0.901-0.66,0.901-1.254c0-0.293-0.136-0.707-0.592-0.707
			c-0.545,0-0.907,0.665-0.907,1.247c0,0.415,0.23,0.714,0.592,0.714H12.767z M12.714,66.455c-0.635,0-0.992-0.472-0.992-1.044
			c0-0.839,0.582-1.608,1.405-1.608c0.687,0,0.997,0.518,0.997,1.052c0,0.787-0.556,1.6-1.405,1.6H12.714z"/>
		<path fill="#231F20" d="M14.996,63.86l0.089,1.427c0.02,0.313,0.015,0.476,0.01,0.681h0.016c0.057-0.163,0.152-0.382,0.278-0.634
			l0.75-1.473h0.382l0.158,1.448c0.026,0.278,0.042,0.492,0.042,0.66h0.01c0.068-0.205,0.137-0.398,0.242-0.645l0.687-1.463h0.441
			l-1.253,2.539h-0.403l-0.168-1.38c-0.027-0.235-0.037-0.45-0.037-0.677h-0.01c-0.105,0.247-0.179,0.436-0.294,0.662l-0.729,1.395
			h-0.403l-0.236-2.539H14.996z"/>
		<path fill="#231F20" d="M19.812,64.462c0-0.203-0.157-0.319-0.39-0.319c-0.413,0-0.723,0.403-0.828,0.803
			c0.682,0.01,1.218-0.084,1.218-0.478V64.462z M19.906,66.256c-0.189,0.104-0.499,0.199-0.839,0.199
			c-0.671,0-0.965-0.462-0.965-1.022c0-0.767,0.567-1.632,1.385-1.632c0.482,0,0.744,0.289,0.744,0.656
			c0,0.665-0.75,0.839-1.688,0.823c-0.022,0.11-0.006,0.345,0.051,0.482c0.101,0.231,0.305,0.341,0.567,0.341
			c0.298,0,0.524-0.089,0.682-0.173L19.906,66.256z"/>
		<path fill="#231F20" d="M20.451,66.397l0.309-1.636c0.063-0.329,0.101-0.665,0.125-0.901h0.384
			c-0.016,0.178-0.036,0.351-0.067,0.55h0.015c0.168-0.345,0.435-0.608,0.776-0.608c0.043,0,0.089,0.006,0.126,0.012l-0.083,0.429
			c-0.032-0.006-0.074-0.012-0.122-0.012c-0.373,0-0.708,0.457-0.818,1.044l-0.211,1.122H20.451z"/>
		<path fill="#231F20" d="M23.828,64.462c0-0.203-0.156-0.319-0.388-0.319c-0.414,0-0.723,0.403-0.828,0.803
			c0.682,0.01,1.216-0.084,1.216-0.478V64.462z M23.923,66.256c-0.188,0.104-0.498,0.199-0.839,0.199
			c-0.672,0-0.965-0.462-0.965-1.022c0-0.767,0.566-1.632,1.384-1.632c0.482,0,0.745,0.289,0.745,0.656
			c0,0.665-0.75,0.839-1.688,0.823c-0.021,0.11-0.005,0.345,0.053,0.482c0.099,0.231,0.303,0.341,0.566,0.341
			c0.298,0,0.524-0.089,0.682-0.173L23.923,66.256z"/>
		<path fill="#231F20" d="M26.435,64.259c-0.084-0.062-0.23-0.11-0.414-0.11c-0.608,0-1.081,0.649-1.081,1.327
			c0,0.303,0.106,0.624,0.479,0.624c0.335,0,0.739-0.383,0.85-0.955L26.435,64.259z M27.168,62.675l-0.561,2.921
			c-0.046,0.261-0.089,0.556-0.104,0.801h-0.398l0.068-0.504h-0.011c-0.231,0.363-0.55,0.562-0.917,0.562
			c-0.487,0-0.755-0.404-0.755-0.923c0-0.901,0.671-1.73,1.568-1.73c0.162,0,0.341,0.036,0.451,0.09l0.225-1.216H27.168z"/>
		<polygon fill="#231F20" points="28.182,66.397 28.89,62.675 29.325,62.675 28.617,66.397 		"/>
		<path fill="#231F20" d="M30.189,63.392c-0.152,0-0.257-0.12-0.257-0.283c0.005-0.173,0.137-0.309,0.3-0.309
			c0.162,0,0.272,0.121,0.272,0.283c-0.006,0.185-0.137,0.309-0.31,0.309H30.189z M29.377,66.397l0.483-2.537h0.434l-0.483,2.537
			H29.377z"/>
		<path fill="#231F20" d="M31.145,63.86l0.22,1.448c0.037,0.289,0.073,0.488,0.078,0.624h0.017c0.058-0.136,0.126-0.305,0.272-0.592
			l0.771-1.479h0.478l-1.411,2.539h-0.424l-0.44-2.539H31.145z"/>
		<path fill="#231F20" d="M34.632,64.462c0-0.203-0.157-0.319-0.389-0.319c-0.414,0-0.723,0.403-0.828,0.803
			c0.681,0.01,1.216-0.084,1.216-0.478V64.462z M34.726,66.256c-0.188,0.104-0.498,0.199-0.839,0.199
			c-0.671,0-0.965-0.462-0.965-1.022c0-0.767,0.566-1.632,1.384-1.632c0.482,0,0.745,0.289,0.745,0.656
			c0,0.665-0.75,0.839-1.688,0.823c-0.021,0.11-0.005,0.345,0.053,0.482c0.1,0.231,0.304,0.341,0.566,0.341
			c0.298,0,0.524-0.089,0.682-0.173L34.726,66.256z"/>
		<path fill="#231F20" d="M35.298,65.962c0.116,0.074,0.336,0.158,0.546,0.158c0.293,0,0.482-0.189,0.482-0.414
			c0-0.2-0.089-0.325-0.356-0.473c-0.294-0.161-0.457-0.382-0.457-0.645c0-0.446,0.384-0.785,0.923-0.785
			c0.226,0,0.43,0.063,0.525,0.125l-0.12,0.329c-0.089-0.051-0.248-0.115-0.436-0.115c-0.269,0-0.457,0.168-0.457,0.383
			c0,0.183,0.121,0.299,0.351,0.426c0.283,0.161,0.473,0.382,0.473,0.669c0,0.536-0.431,0.835-0.972,0.835
			c-0.272-0.006-0.513-0.083-0.628-0.173L35.298,65.962z"/>
		<path fill="#231F20" d="M37.429,66.455c-0.173,0-0.289-0.136-0.289-0.309c0-0.195,0.137-0.351,0.33-0.351
			c0.179,0,0.293,0.136,0.293,0.315c0,0.195-0.136,0.345-0.33,0.345H37.429z"/>
		<path fill="#231F20" d="M3.377,70.814h0.388c0.551,0,0.908-0.363,0.908-0.782c0-0.382-0.283-0.55-0.682-0.55
			c-0.173,0-0.283,0.016-0.367,0.036L3.377,70.814z M3.252,69.209c0.215-0.047,0.509-0.073,0.771-0.073
			c0.352,0,0.655,0.083,0.845,0.257c0.162,0.135,0.262,0.339,0.262,0.582c0,0.514-0.394,0.896-0.839,1.022l-0.005,0.01
			c0.251,0.084,0.367,0.345,0.393,0.708c0.037,0.492,0.064,0.833,0.11,0.975H4.337c-0.021-0.074-0.057-0.445-0.084-0.855
			c-0.026-0.488-0.205-0.687-0.556-0.687H3.309l-0.288,1.542H2.586L3.252,69.209z"/>
		<path fill="#231F20" d="M7.033,70.756c0-0.205-0.158-0.319-0.388-0.319c-0.415,0-0.725,0.404-0.829,0.801
			c0.682,0.012,1.217-0.083,1.217-0.478V70.756z M7.127,72.549c-0.188,0.105-0.498,0.199-0.839,0.199
			c-0.67,0-0.964-0.461-0.964-1.022c0-0.766,0.566-1.63,1.385-1.63c0.482,0,0.744,0.287,0.744,0.655c0,0.667-0.75,0.839-1.689,0.823
			c-0.021,0.111-0.005,0.346,0.053,0.484c0.1,0.229,0.304,0.341,0.566,0.341c0.299,0,0.525-0.09,0.681-0.174L7.127,72.549z"/>
		<path fill="#231F20" d="M7.699,72.256c0.116,0.074,0.335,0.157,0.546,0.157c0.293,0,0.481-0.189,0.481-0.414
			c0-0.2-0.089-0.325-0.356-0.472c-0.294-0.163-0.457-0.383-0.457-0.644c0-0.447,0.383-0.787,0.923-0.787
			c0.226,0,0.431,0.063,0.525,0.125l-0.121,0.331c-0.089-0.052-0.246-0.116-0.435-0.116c-0.268,0-0.457,0.168-0.457,0.383
			c0,0.185,0.12,0.299,0.352,0.424c0.283,0.164,0.472,0.385,0.472,0.672c0,0.534-0.43,0.833-0.971,0.833
			c-0.272-0.004-0.513-0.083-0.628-0.173L7.699,72.256z"/>
		<path fill="#231F20" d="M10.442,69.686c-0.152,0-0.257-0.121-0.257-0.283c0.005-0.174,0.136-0.309,0.299-0.309
			c0.163,0,0.273,0.121,0.273,0.283c-0.005,0.183-0.136,0.309-0.309,0.309H10.442z M9.629,72.691l0.482-2.539h0.436l-0.482,2.539
			H9.629z"/>
		<polygon fill="#231F20" points="10.835,72.691 11.543,68.968 11.979,68.968 11.271,72.691 		"/>
		<path fill="#231F20" d="M12.844,69.686c-0.151,0-0.257-0.121-0.257-0.283c0.006-0.174,0.136-0.309,0.299-0.309
			c0.162,0,0.273,0.121,0.273,0.283c-0.005,0.183-0.137,0.309-0.309,0.309H12.844z M12.031,72.691l0.482-2.539h0.436l-0.482,2.539
			H12.031z"/>
		<path fill="#231F20" d="M14.968,70.756c0-0.205-0.157-0.319-0.388-0.319c-0.415,0-0.725,0.404-0.829,0.801
			c0.682,0.012,1.217-0.083,1.217-0.478V70.756z M15.062,72.549c-0.188,0.105-0.498,0.199-0.839,0.199
			c-0.671,0-0.965-0.461-0.965-1.022c0-0.766,0.566-1.63,1.385-1.63c0.482,0,0.744,0.287,0.744,0.655
			c0,0.667-0.75,0.839-1.688,0.823c-0.021,0.111-0.005,0.346,0.052,0.484c0.1,0.229,0.304,0.341,0.566,0.341
			c0.299,0,0.525-0.09,0.682-0.174L15.062,72.549z"/>
		<path fill="#231F20" d="M15.612,72.691l0.336-1.798c0.058-0.283,0.095-0.53,0.121-0.74h0.394l-0.068,0.498h0.01
			c0.231-0.356,0.571-0.555,0.943-0.555c0.299,0,0.641,0.173,0.641,0.703c0,0.115-0.021,0.277-0.048,0.408l-0.283,1.485h-0.43
			l0.277-1.469c0.017-0.093,0.032-0.215,0.032-0.325c0-0.251-0.099-0.44-0.398-0.44c-0.309,0-0.75,0.372-0.865,1.002l-0.23,1.232
			H15.612z"/>
		<path fill="#231F20" d="M19.53,69.544l-0.115,0.61h0.608l-0.068,0.34h-0.608l-0.23,1.238c-0.032,0.141-0.053,0.273-0.053,0.403
			c0,0.153,0.073,0.247,0.241,0.247c0.078,0,0.146-0.006,0.204-0.022l-0.021,0.341c-0.078,0.032-0.21,0.048-0.336,0.048
			c-0.383,0-0.534-0.232-0.534-0.493c0-0.146,0.021-0.293,0.057-0.478l0.247-1.285H18.56l0.062-0.34h0.362l0.089-0.468L19.53,69.544
			z"/>
		<path fill="#231F20" d="M21.009,72.691l0.335-1.798c0.059-0.283,0.095-0.53,0.121-0.74h0.394l-0.068,0.498h0.01
			c0.23-0.356,0.571-0.555,0.943-0.555c0.299,0,0.641,0.173,0.641,0.703c0,0.115-0.021,0.277-0.048,0.408l-0.284,1.485h-0.429
			l0.278-1.469c0.015-0.093,0.031-0.215,0.031-0.325c0-0.251-0.101-0.44-0.398-0.44c-0.309,0-0.75,0.372-0.865,1.002l-0.231,1.232
			H21.009z"/>
		<path fill="#231F20" d="M25.771,70.478c-0.063-0.021-0.152-0.037-0.299-0.037c-0.655,0-1.195,0.682-1.195,1.389
			c0,0.283,0.1,0.562,0.43,0.562c0.367,0,0.797-0.472,0.917-1.15L25.771,70.478z M25.493,72.691c0-0.152,0.026-0.393,0.057-0.656
			h-0.01c-0.277,0.53-0.63,0.713-0.985,0.713c-0.452,0-0.729-0.355-0.729-0.837c0-0.887,0.65-1.815,1.752-1.815
			c0.242,0,0.508,0.042,0.681,0.093l-0.256,1.328c-0.085,0.44-0.116,0.891-0.105,1.174H25.493z"/>
		<path fill="#231F20" d="M27.664,69.544l-0.115,0.61h0.608l-0.069,0.34H27.48l-0.231,1.238c-0.032,0.141-0.052,0.273-0.052,0.403
			c0,0.153,0.073,0.247,0.24,0.247c0.079,0,0.147-0.006,0.205-0.022l-0.021,0.341c-0.079,0.032-0.21,0.048-0.336,0.048
			c-0.382,0-0.535-0.232-0.535-0.493c0-0.146,0.021-0.293,0.057-0.478l0.248-1.285h-0.363l0.063-0.34h0.362l0.089-0.468
			L27.664,69.544z"/>
		<path fill="#231F20" d="M28.995,69.686c-0.151,0-0.256-0.121-0.256-0.283c0.005-0.174,0.136-0.309,0.298-0.309
			c0.164,0,0.273,0.121,0.273,0.283c-0.005,0.183-0.137,0.309-0.311,0.309H28.995z M28.184,72.691l0.481-2.539h0.437l-0.482,2.539
			H28.184z"/>
		<path fill="#231F20" d="M30.459,72.402c0.514,0,0.902-0.66,0.902-1.253c0-0.295-0.136-0.708-0.592-0.708
			c-0.545,0-0.907,0.667-0.907,1.249c0,0.414,0.23,0.713,0.592,0.713H30.459z M30.406,72.748c-0.634,0-0.99-0.472-0.99-1.042
			c0-0.839,0.582-1.61,1.405-1.61c0.687,0,0.997,0.519,0.997,1.054c0,0.785-0.556,1.598-1.405,1.598H30.406z"/>
		<path fill="#231F20" d="M32.126,72.691l0.336-1.798c0.057-0.283,0.093-0.53,0.12-0.74h0.394l-0.068,0.498h0.011
			c0.23-0.356,0.57-0.555,0.943-0.555c0.299,0,0.64,0.173,0.64,0.703c0,0.115-0.021,0.277-0.047,0.408l-0.284,1.485h-0.429
			l0.277-1.469c0.016-0.093,0.032-0.215,0.032-0.325c0-0.251-0.1-0.44-0.398-0.44c-0.309,0-0.75,0.372-0.865,1.002l-0.231,1.232
			H32.126z"/>
		<path fill="#231F20" d="M34.948,72.256c0.115,0.074,0.335,0.157,0.546,0.157c0.293,0,0.481-0.189,0.481-0.414
			c0-0.2-0.089-0.325-0.356-0.472c-0.294-0.163-0.457-0.383-0.457-0.644c0-0.447,0.383-0.787,0.923-0.787
			c0.225,0,0.429,0.063,0.525,0.125l-0.122,0.331c-0.089-0.052-0.246-0.116-0.435-0.116c-0.268,0-0.456,0.168-0.456,0.383
			c0,0.185,0.12,0.299,0.351,0.424c0.283,0.164,0.472,0.385,0.472,0.672c0,0.534-0.429,0.833-0.97,0.833
			c-0.272-0.004-0.513-0.083-0.629-0.173L34.948,72.256z"/>
		<path fill="#231F20" d="M37.078,72.748c-0.172,0-0.289-0.136-0.289-0.309c0-0.193,0.137-0.351,0.331-0.351
			c0.177,0,0.294,0.136,0.294,0.315c0,0.195-0.137,0.345-0.331,0.345H37.078z"/>
	</g>
</g>
<g id="Layer_2">
</g>
</svg>
