<?xml version="1.0" encoding="utf-8"?>
<!-- Generator: Adobe Illustrator 16.0.0, SVG Export Plug-In . SVG Version: 6.00 Build 0)  -->
<!DOCTYPE svg PUBLIC "-//W3C//DTD SVG 1.1//EN" "http://www.w3.org/Graphics/SVG/1.1/DTD/svg11.dtd">
<svg version="1.1" id="Layer_1" xmlns="http://www.w3.org/2000/svg" xmlns:xlink="http://www.w3.org/1999/xlink" x="0px" y="0px"
	 width="84px" height="76px" viewBox="0 0 84 76" enable-background="new 0 0 84 76" xml:space="preserve">
<symbol  id="New_Symbol_3" viewBox="-40 -35.718 80 71.437">
	<polygon fill="#0968B0" points="-26.242,-7.022 -39.52,-7.022 -39.52,6.653 -26.242,6.653 	"/>
	<path fill="#FFFFFF" d="M-36.152,4.411v-5.377c0-2.843,1.366-3.897,3.185-3.897c1.916,0,3.354,1.137,3.354,3.94v5.334h-1.158
		v-5.418c0-2.006-0.855-2.897-2.158-2.897c-1.185,0-2.064,0.869-2.064,2.897v5.418H-36.152z"/>
	<polygon fill="#0968B0" points="-12.146,-7.022 -25.425,-7.022 -25.425,6.653 -12.146,6.653 	"/>
	<path fill="#FFFFFF" d="M-21.034-4.752v3.901c0,1.519-0.012,2.613-0.082,3.767l0.043,0.016c0.437-0.989,1.026-2.032,1.645-3.05
		l2.815-4.634h1.157v9.13h-1.077V0.547c0-1.413,0.025-2.52,0.131-3.741l-0.041-0.016c-0.408,0.949-0.931,1.9-1.579,2.969
		l-2.825,4.619h-1.266v-9.13H-21.034z"/>
	<polygon fill="#0968B0" points="-12.146,-21.533 -25.425,-21.533 -25.425,-7.857 -12.146,-7.857 	"/>
	<path fill="#FFFFFF" d="M-16.543-10.799c-0.529,0.49-1.354,0.763-2.489,0.763c-0.918,0-1.642-0.084-2.197-0.192v-9.008h1.146v3.656
		c0.267-0.067,0.581-0.078,0.925-0.078c1.116,0,2.103,0.343,2.706,1c0.462,0.48,0.698,1.128,0.698,1.954
		C-15.755-11.891-16.058-11.228-16.543-10.799"/>
	<path fill="#0F6CB5" d="M-19.136-14.765c-0.367,0-0.697,0.029-0.948,0.095v3.549c0.2,0.038,0.581,0.093,1.08,0.093
		c1.261,0,2.092-0.579,2.092-1.799C-16.912-14.062-17.743-14.765-19.136-14.765"/>
	<polygon fill="#0968B0" points="-26.256,-21.547 -39.535,-21.547 -39.535,-7.876 -26.256,-7.876 	"/>
	<path fill="#FFFFFF" d="M-30.199-11.15c-0.776,0.744-1.943,1.128-3.59,1.128c-0.909,0-1.735-0.085-2.447-0.192v-8.981
		c0.594-0.083,1.261-0.105,2.094-0.105c1.721,0,3.089,0.453,3.934,1.31c0.813,0.837,1.274,2.059,1.274,3.546
		C-28.935-12.963-29.396-11.896-30.199-11.15"/>
	<path fill="#0F6CB5" d="M-33.92-18.355c-0.451,0-0.87,0-1.157,0.055v7.218c0.303,0.068,0.751,0.123,1.339,0.123
		c2.423,0,3.607-1.343,3.592-3.523C-30.146-16.946-31.474-18.37-33.92-18.355"/>
	<polygon fill="#0968B0" points="-39.521,7.509 -12.136,7.509 -12.136,35.717 -39.521,35.717 	"/>
	<path fill="#FFFFFF" d="M-16.028,21.031c-0.384-0.557-0.849-1.083-1.203-1.653c0.041,0.451,0.092,1.009-0.08,1.435
		c-0.295,0.923-0.553,1.859-0.635,2.87l0.008,0.387c0.223-1.032,1.21-1.748,1.146-2.904c0.025-0.279-0.059-0.518-0.109-0.765
		l0.016-0.018l0.045,0.051c0.145,0.564,0.219,1.167,0.445,1.697c0.322,0.763,0.726,1.532,0.562,2.454
		C-15.343,23.497-15.491,22.046-16.028,21.031"/>
	<path fill="#FFFFFF" d="M-16.635,26.882c0.647-0.9,0.79-2.336,0.316-3.371c-0.172-0.439-0.297-0.907-0.365-1.39l-0.072,0.289
		c-0.254,1.011-1.185,1.732-1.568,2.688c-0.119,0.313-0.223,0.634-0.277,0.974c0.404-0.779,1.411-1.179,1.688-2.038
		c0.113-0.216,0.105-0.488,0.174-0.72l0.029,0.025c-0.119,0.884-0.082,1.808,0.035,2.679c-0.008,0.471-0.053,0.932-0.307,1.297
		C-16.82,27.219-16.748,27.029-16.635,26.882"/>
	<path fill="#FFFFFF" d="M-17.089,27.055c0.169-0.787-0.078-1.559,0.081-2.355l-0.01-0.008c-0.417,0.845-1.303,1.243-1.912,1.921
		c-0.356,0.401-0.507,0.889-0.593,1.41c0.35-0.868,1.29-1.059,1.832-1.787c0.18-0.172,0.238-0.404,0.355-0.595l0.018,0.021
		c-0.311,0.681-0.414,1.453-0.629,2.182c-0.112,0.316-0.327,0.627-0.614,0.827C-17.853,28.521-17.237,27.755-17.089,27.055"/>
	<path fill="#FFFFFF" d="M-18.986,28.868c0.535-0.491,0.775-1.13,0.934-1.791l0.087-0.211c-0.778,0.573-1.482,1.349-1.979,2.164
		l-0.606,0.629C-20.018,29.426-19.444,29.289-18.986,28.868"/>
	<path fill="#FFFFFF" d="M-29.14,29.479c1.011,0.517,2.115,0.788,3.322,0.813c2.748-0.006,5.376-1.667,6.574-4.292
		c0.759-1.506,0.974-3.582,0.481-5.287c-0.499-2.008-2.143-4.043-4.055-4.868c-2.153-1.087-5.211-0.818-7.131,0.602
		c-2.668,1.881-3.76,5.125-2.952,8.33C-32.412,26.677-30.94,28.596-29.14,29.479"/>
	<path fill="#FFFFFF" d="M-31.251,29.556c-0.536-0.484-0.907-1.097-1.306-1.67c-0.358-0.457-0.813-0.751-1.219-1.145
		c0.22,0.464,0.228,1.021,0.536,1.45C-32.798,28.982-31.977,29.263-31.251,29.556"/>
	<path fill="#FFFFFF" d="M-34.184,27.868c0.258,0.333,0.591,0.568,0.962,0.666c-0.72-0.509-0.675-1.429-0.903-2.191
		c-0.074-0.28-0.201-0.543-0.264-0.83l0.018-0.016c0.121,0.33,0.334,0.638,0.596,0.902c0.515,0.488,1.273,0.793,1.525,1.513
		c-0.012-1.003-0.825-1.791-1.602-2.356c-0.324-0.288-0.633-0.62-0.808-0.992c-0.02,0.253,0.038,0.509,0.018,0.779
		C-34.724,26.218-34.786,27.22-34.184,27.868"/>
	<path fill="#FFFFFF" d="M-35.646,24.873c-0.021,0.886,0.333,1.612,0.839,2.275l0.043,0.019c-0.555-0.87-0.096-1.963-0.119-2.947
		l-0.074-1.016l0.037-0.023l0.061,0.347c0.133,0.821,0.819,1.395,1.424,1.959c0.125,0.145,0.234,0.298,0.305,0.472
		c-0.049-0.409-0.172-0.818-0.338-1.192c-0.466-0.942-1.332-1.71-1.488-2.786C-35.032,23.008-35.717,23.779-35.646,24.873"/>
	<path fill="#FFFFFF" d="M-36.068,23.61c0.061,0.276,0.111,0.564,0.227,0.819c-0.223-1.173,0.544-2.02,0.796-3.037
		c0.105-0.378,0.133-0.788,0.281-1.147l0.037,0.019c-0.375,1.084,0.167,2.088,0.708,2.935c0.129,0.229,0.207,0.485,0.271,0.747
		c0.061-0.488-0.061-1.052-0.131-1.558c-0.131-0.649-0.328-1.259-0.498-1.89c-0.115-0.388-0.086-0.834-0.025-1.244l-0.057,0.047
		c-0.399,0.755-1.188,1.345-1.418,2.171C-36.07,22.13-36.197,22.893-36.068,23.61"/>
	<path fill="#FFFFFF" d="M-36.105,21.317c0.088-1.245,1.388-1.901,1.992-2.931c0.141-0.213,0.264-0.442,0.455-0.619l-0.193,0.377
		c-0.213,0.433-0.289,0.948-0.236,1.47c0.059,0.635,0.316,1.225,0.219,1.894c0.528-1.175,0.368-2.644,0.663-3.915
		c0.078-0.278,0.234-0.527,0.336-0.795c-1.087,0.764-2.57,1.489-3.056,2.887C-36.125,20.167-36.148,20.764-36.105,21.317"/>
	<path fill="#FFFFFF" d="M-35.454,18.462c0.605-1.412,2.121-1.529,3.144-2.392c0.186-0.168,0.383-0.314,0.594-0.416l0.006,0.012
		c-0.229,0.217-0.498,0.465-0.664,0.747c-0.595,0.855-0.388,2.049-0.831,2.965c0.406-0.498,0.774-1.017,1.019-1.584
		c0.365-0.924,0.502-1.972,1.347-2.668c-0.915,0.308-1.984,0.221-2.785,0.799C-34.504,16.48-35.292,17.425-35.454,18.462"/>
	<path fill="#FFFFFF" d="M-33.896,15.826c0.968-1.14,2.562-0.759,3.855-1.056c0.18-0.026,0.349-0.102,0.544-0.069
		c-0.152,0.1-0.372,0.09-0.536,0.177c-1.017,0.369-1.167,1.5-1.719,2.264c0.706-0.481,1.297-1.13,1.945-1.757
		c0.468-0.422,1.031-0.618,1.619-0.742c-0.139-0.053-0.326-0.038-0.477-0.078c-1.062-0.271-2.249-0.71-3.375-0.314
		C-32.772,14.485-33.528,15.082-33.896,15.826"/>
	<path fill="#FFFFFF" d="M-20.707,13.175c-1.093-0.422-2.237,0.021-3.091,0.685c-0.347,0.227-0.653,0.553-1.104,0.523
		c-0.16,0.004-0.318-0.003-0.453-0.046c0.831-0.398,1.602-0.945,2.309-1.651c-0.119-0.137-0.275-0.267-0.42-0.389
		c-0.679,0.756-1.436,1.482-2.277,1.906c-0.165-0.021-0.323-0.125-0.47-0.207c-0.688-0.447-1.368-1.022-1.875-1.723l-0.441,0.37
		c0.703,0.729,1.476,1.295,2.322,1.703c-0.831,0.27-1.374-0.448-2.006-0.812c-0.737-0.529-1.793-0.776-2.69-0.416
		c-0.477,0.188-0.938,0.464-1.286,0.91c0.702-0.495,1.748-0.549,2.542-0.227c1.069,0.479,2.178,1.084,3.466,0.796
		c0.201-0.005,0.399-0.211,0.589-0.034c0.952,0.256,2.041,0.078,2.864-0.373l0.851-0.349c0.787-0.299,1.812-0.218,2.486,0.28
		C-19.739,13.674-20.211,13.351-20.707,13.175"/>
	<path fill="#FFFFFF" d="M-19.532,14.337c-1.229-0.477-2.468,0.111-3.645,0.305l-0.229,0.033v0.005
		c0.563,0.13,1.108,0.307,1.561,0.721c0.66,0.654,1.247,1.325,1.982,1.843c-0.546-0.718-0.603-1.742-1.502-2.201
		c-0.223-0.151-0.502-0.177-0.733-0.293c0.327-0.006,0.628,0.116,0.952,0.149c1.205,0.193,2.583-0.006,3.43,1.052
		C-18.031,15.215-18.814,14.599-19.532,14.337"/>
	<path fill="#FFFFFF" d="M-18.85,15.628c-0.626-0.174-1.299-0.229-1.908-0.445c1.032,0.918,0.976,2.326,1.665,3.402
		c0.216,0.307,0.399,0.627,0.655,0.912c-0.418-0.866-0.236-1.991-0.718-2.831c-0.186-0.334-0.453-0.657-0.744-0.923l0.262,0.147
		c0.786,0.804,1.809,1.032,2.655,1.683c0.338,0.279,0.65,0.645,0.799,1.037C-16.346,17.279-17.634,16.027-18.85,15.628"/>
	<path fill="#FFFFFF" d="M-17.298,17.902c-0.486-0.329-0.978-0.631-1.446-1.003v0.043c0.719,1.224,0.367,2.908,0.806,4.254
		l0.166,0.449c-0.092-0.84,0.262-1.55,0.238-2.393c-0.025-0.506-0.188-0.956-0.447-1.363h0.043c0.354,0.473,0.625,0.977,1.036,1.43
		c0.633,0.63,1.278,1.275,1.364,2.15C-15.325,20.011-16.121,18.729-17.298,17.902"/>
	<path fill="#0F6CB5" d="M-22.791,17.998l0.053,0.072c0.217,0.177,0.455,0.342,0.648,0.561h0.025l-0.15-0.009l-0.119,0.253
		l-0.449,0.476l-0.025,0.073l-0.163-0.216l0.052-0.191c0.145-0.049,0.334-0.147,0.367-0.323c-0.061-0.165-0.363-0.316-0.176-0.497
		L-22.791,17.998z"/>
	<path fill="#0F6CB5" d="M-25.399,24.099l0.199,0.061l0.246-0.169l0.187,0.032c0.039,0.312,0.42,0.267,0.531,0.561l-0.066-0.028
		l-0.1,0.093l0.215,0.179c-0.324,0.21-0.664,0.393-1.036,0.49c-0.146,0.034-0.301,0.037-0.438,0.09
		c0.068-0.216,0.008-0.533,0.049-0.779l0.264-0.088l0.316,0.28l0.139-0.043l-0.043-0.3C-25.034,24.272-25.269,24.247-25.399,24.099"
		/>
	<path fill="#0F6CB5" d="M-21.511,21.572c-0.156-0.502-0.334-0.993-0.642-1.436c-0.119-0.156-0.238-0.375-0.393-0.455l0.334-0.304
		l0.01,0.076l0.074,0.09c0.16,0.006,0.164-0.17,0.257-0.266c-0.02-0.141,0.102-0.254,0.061-0.386c0.923,1,1.38,2.228,1.466,3.581
		l0.047,0.063c-0.326-0.036-0.672-0.011-1.011-0.017l-0.08,0.026c0.021-0.229-0.037-0.45-0.051-0.677l0.117-0.133l-0.023-0.171
		L-21.511,21.572z"/>
	<path fill="#0F6CB5" d="M-22.391,24.898c-0.123,0.242-0.32,0.457-0.486,0.668l-0.018-0.043c-0.339-0.361-0.708-0.733-1.027-1.103
		l0.099-0.106l0.072,0.261l0.328,0.02c0.176,0.041,0.34-0.038,0.519-0.037l0.264-0.308l-0.037-0.143
		c0.037-0.282,0.17,0.073,0.307,0.006l0.174-0.079l0.168-0.207l-0.105-0.102l-0.063-0.305c0.211-0.04,0.221,0.212,0.319,0.327
		c-0.056,0.191-0.095,0.392-0.206,0.567l-0.311,0.196C-22.629,24.607-22.359,24.755-22.391,24.898"/>
	<path fill="#0F6CB5" d="M-25.646,17.052c0.27,0.093,0.584,0.079,0.878,0.128l-0.165,0.099c-0.168,0.01-0.252,0.195-0.303,0.334
		l0.08,0.268c-0.072,0.156-0.297,0.043-0.43,0.099l-0.113,0.084l0.053-0.084C-25.646,17.672-25.608,17.355-25.646,17.052"/>
	<path fill="#0F6CB5" d="M-25.409,19.983l0.098-0.159c0.148,0.046,0.264-0.131,0.379-0.021c-0.004,0.177,0.19,0.162,0.292,0.206
		c0.17,0.101,0.355,0.239,0.334,0.464l-0.023,0.032l-0.256-0.16l-0.24,0.07l0.041-0.032v-0.11l-0.3,0.046v-0.046l-0.049-0.052
		l-0.293,0.186l-0.121-0.035l-0.113-0.093l-0.171-0.196l-0.27-0.106l0.031-0.064l0.215-0.025
		C-25.749,20.067-25.565,19.916-25.409,19.983"/>
	<path fill="#0F6CB5" d="M-24.334,21.454l0.061-0.182c0.143,0.024,0.084-0.179,0.213-0.163l0.023,0.134l-0.201,0.192l0.02,0.06
		L-24.334,21.454z"/>
	<path fill="#0F6CB5" d="M-24.496,26.639c-0.371,0.137-0.774,0.191-1.177,0.256l0.035-0.085l-0.008-1.017l0.098,0.021
		c0.604-0.088,1.157-0.288,1.636-0.689l0.025-0.079c0.165,0.239,0.411,0.439,0.606,0.666l0.182,0.107l-0.086,0.037
		C-23.587,26.203-24.023,26.465-24.496,26.639"/>
	<path fill="#0F6CB5" d="M-31.286,22.444l0.082-0.691c0.031-0.267,0.145-0.524,0.135-0.786l0.117,0.181l0.01,0.227
		c0.029,0.177,0.053,0.363,0.208,0.494c0.186,0.009,0.199,0.259,0.387,0.273l0.193-0.174c-0.115,0.145-0.111,0.388-0.082,0.551
		l-0.08-0.037c-0.338,0.006-0.692-0.02-1.015,0.026L-31.286,22.444z"/>
	<polygon fill="#0F6CB5" points="-24.742,20.788 -24.742,20.687 -24.461,20.91 	"/>
	<path fill="#0F6CB5" d="M-22.422,22.572l0.111-0.116l0.16-0.314c0.139-0.074,0.191-0.244,0.257-0.371l0.031,0.106
		c0.049,0.207,0.043,0.44,0.105,0.642C-21.977,22.509-22.229,22.485-22.422,22.572"/>
	<path fill="#0F6CB5" d="M-23.893,19.938c0.124-0.033,0.208-0.191,0.366-0.142c0.131,0.073,0.346-0.046,0.436,0.096
		c-0.016,0.139,0.102,0.241,0.161,0.361l0.043,0.011l0.104-0.281l0.271,0.355c0.242,0.359,0.445,0.747,0.535,1.158l-0.287-0.049
		l-0.326,0.018l-0.051-0.046l-0.158-0.099l-0.088,0.15l-0.016-0.115l-0.157-0.251l-0.281-0.127
		c-0.018-0.184-0.211-0.143-0.318-0.202l0.029-0.042l0.158,0.039c0.15-0.045,0.119,0.153,0.207,0.223l0.23,0.026l0.086-0.377
		l-0.107-0.343l-0.109-0.306l-0.203-0.063c-0.287,0.112-0.589,0.182-0.913,0.214l-0.041-0.072
		C-24.189,20.003-24.031,19.997-23.893,19.938"/>
	<path fill="#0F6CB5" d="M-26.068,16.646l0.035,0.058l-0.111-0.029c-1.423,0.099-2.685,0.62-3.725,1.652l-0.01-0.044l-0.75-0.779
		c1.138-1.014,2.422-1.669,3.891-1.875c0.232-0.04,0.5-0.021,0.725-0.093l-0.055,0.093V16.646z"/>
	<path fill="#0F6CB5" d="M-27.538,20.697c0.391-0.331,0.827-0.539,1.313-0.625l0.037,0.317l0.207,0.064l0.045,0.098l-0.096,0.21
		l0.051,0.081l-0.025,0.188l0.049,0.048c-0.219-0.094-0.455,0.043-0.65,0.134l-0.255,0.231
		C-27.021,21.183-27.321,20.941-27.538,20.697"/>
	<path fill="#0F6CB5" d="M-27.914,21.869l-0.07-0.017l-0.053,0.009c0,0.212-0.234,0.084-0.32,0.197
		c0.102-0.194,0.156-0.418,0.262-0.611c0.064-0.175,0.207-0.31,0.277-0.48l0.31,0.37l-0.039,0.146l-0.063,0.258l-0.004-0.189
		l-0.088,0.046l-0.177,0.173L-27.914,21.869z"/>
	<polygon fill="#0F6CB5" points="-27.366,21.517 -27.353,21.509 -27.091,21.697 -27.214,21.761 	"/>
	<path fill="#0F6CB5" d="M-26.154,18.108c-0.888,0.046-1.666,0.38-2.354,0.909l0.104-0.259l-0.291-0.104
		c-0.208,0.038-0.364-0.124-0.556-0.147c-0.182-0.056-0.244,0.172-0.408,0.147c1.015-0.909,2.176-1.481,3.532-1.558l0.104-0.068
		l-0.045,0.127v0.991L-26.154,18.108z"/>
	<path fill="#0F6CB5" d="M-30.096,18.596l-0.342,0.364l-0.308,0.238l-0.041,0.145l-0.045-0.056l-0.262,0.129
		c-0.113,0.063-0.057,0.284-0.213,0.243l-0.111,0.107c-0.141-0.011-0.182,0.149-0.256,0.227l-0.044-0.102
		c-0.145-0.031-0.197,0.151-0.295,0.228l-0.084-0.036l-0.148,0.317c-0.119,0.14-0.064,0.362-0.043,0.531l0.074,0.127l0.189,0.09
		l0.074-0.072l0.113,0.107l0.235,0.09l0.166-0.232l-0.053,0.081c-0.086,0.37-0.154,0.745-0.176,1.146l-0.016,0.052l0.006-0.012
		l0.01,0.212l-0.097-0.037l-1.017,0.006c0.059-1.2,0.368-2.293,0.896-3.299c0.259-0.495,0.636-0.942,0.97-1.408l0.726,0.777
		L-30.096,18.596z"/>
	<path fill="#0F6CB5" d="M-28.929,27.371c-0.227-0.163-0.434-0.372-0.668-0.513c0.271-0.178,0.494-0.471,0.736-0.704l0.023-0.07
		c0.626,0.611,1.377,0.968,2.194,1.143c0.193,0.018,0.387,0.084,0.574,0.044c-0.016,0.356-0.045,0.729-0.008,1.084
		C-27.134,28.289-28.082,27.959-28.929,27.371"/>
	<path fill="#0F6CB5" d="M-29.799,23.447c-0.039-0.18-0.016-0.389-0.086-0.561c0.127,0.064,0.317,0.04,0.456,0.021l-0.063,0.215
		l0.063,0.27c-0.01,0.155,0.146,0.233,0.162,0.373c0.043,0.157,0.217,0.053,0.299,0.134l0.01,0.125l0.274,0.155l0.244,0.262
		c0.217-0.007,0.223,0.31,0.43,0.316c-0.283,0.224-0.553,0.52-0.806,0.777C-29.319,24.912-29.663,24.227-29.799,23.447"/>
	<path fill="#0F6CB5" d="M-29.657,21.924l-0.079,0.151c0.069,0.142,0.004,0.366,0.183,0.424l-0.349,0.034l0.051-0.09
		c0.01-0.246,0.104-0.485,0.053-0.74L-29.657,21.924z"/>
	<polygon fill="#0F6CB5" points="-28.652,19.189 -28.652,19.208 -28.664,19.236 	"/>
	<path fill="#0F6CB5" d="M-29.865,26.543l-0.398-0.518c-0.644-0.912-0.95-1.967-1.042-3.118l1.003,0.018l0.09-0.035l-0.041,0.108
		c0.082,1.072,0.445,2.023,1.161,2.824c-0.275,0.245-0.533,0.506-0.769,0.791L-29.865,26.543z"/>
	<path fill="#0F6CB5" d="M-26.785,19.515l0.277,0.182c-0.329-0.066-0.612,0.173-0.888,0.307c-0.158,0.118-0.361,0.218-0.458,0.397
		c-0.215-0.27-0.471-0.55-0.727-0.767l0.271-0.192c0.55-0.467,1.229-0.694,1.863-0.856l-0.172,0.084
		c-0.131,0.152-0.321,0.334-0.327,0.549L-26.785,19.515z"/>
	<path fill="#0F6CB5" d="M-29.28,22.503l-0.025-0.201l-0.254-0.109l0.041-0.213c-0.102-0.241,0.23-0.316,0.227-0.532
		c0.104-0.137-0.014-0.331,0.135-0.454c0.029-0.244-0.035-0.576,0.176-0.767l0.033-0.233c0.045-0.159-0.188-0.118-0.154-0.261
		l0.057-0.051v0.004c0.28,0.334,0.606,0.687,0.938,0.986l-0.139,0.141c-0.26,0.4-0.463,0.824-0.563,1.288l-0.105,0.06l-0.049-0.336
		l-0.039-0.045l-0.189,0.109l0.008,0.143l0.088-0.026l0.037,0.156l-0.014,0.25l0.152-0.125l0.183,0.062l-0.008,0.188
		c0.051,0.146,0.016,0.298-0.008,0.441l-0.272,0.093c-0.297-0.099,0.047-0.329-0.025-0.515L-29.28,22.503z"/>
	<path fill="#0F6CB5" d="M-19.927,22.52l-0.063,0.048l0.038-0.102c-0.06-1.253-0.462-2.358-1.16-3.341
		c-0.131-0.165-0.258-0.367-0.426-0.486c0.277-0.221,0.585-0.559,0.813-0.822l0.027,0.059c1.12,1.311,1.754,2.831,1.822,4.59
		l0.043,0.086l-0.053-0.026L-19.927,22.52z"/>
	<path fill="#0F6CB5" d="M-29.814,27.122l0.016,0.053c1.068,0.998,2.308,1.548,3.729,1.616l-0.031,0.086l-0.012,0.905l0.029,0.106
		c-1.468-0.061-2.771-0.578-3.922-1.435c-0.225-0.155-0.422-0.398-0.648-0.533h0.033C-30.336,27.704-30.059,27.389-29.814,27.122"/>
	<path fill="#0F6CB5" d="M-26.119,26.866c-0.927-0.069-1.732-0.467-2.434-1.063c0.277-0.201,0.523-0.517,0.776-0.748l0.055,0.083
		c0.35,0.252,0.705,0.487,1.114,0.592c0.18,0.021,0.361,0.111,0.551,0.064c-0.041,0.352-0.041,0.744,0,1.11L-26.119,26.866z"/>
	<path fill="#0F6CB5" d="M-26.068,25.377c-0.588-0.078-1.128-0.286-1.556-0.755h0.078l0.295-0.192l-0.057-0.115l0.057-0.047
		l0.082,0.072l0.191-0.09l0.192-0.03l0.203,0.104c0.113,0.124,0.051,0.316,0.219,0.395l0.016-0.143l0.334-0.018
		C-26.094,24.802-26.078,25.107-26.068,25.377"/>
	<path fill="#0F6CB5" d="M-26.031,23.692c-0.109-0.186-0.293-0.23-0.465-0.282l-0.146-0.178l-0.113-0.257
		c-0.059-0.127-0.029-0.29-0.063-0.429c-0.216-0.139-0.157,0.182-0.263,0.252l-0.039-0.063l-0.1,0.044l-0.117-0.01l-0.104-0.261
		l-0.117-0.117l0.367,0.053l0.24,0.047l0.049-0.093h0.027l0.062,0.18l0.143,0.104l0.027-0.11c0.164-0.063-0.043-0.186-0.064-0.279
		c-0.045-0.069,0-0.23-0.138-0.208l-0.035,0.065h-0.021l0.099-0.17c0.104,0.089,0.107,0.233,0.254,0.252l0.08,0.277
		c0.189,0.006,0.391,0.087,0.543-0.07l0.018-0.153l-0.129-0.253l-0.041-0.143c-0.049-0.23-0.305-0.118-0.453-0.201
		c0.229-0.18,0.508-0.246,0.808-0.224c0.154,0.006,0.086,0.207,0.168,0.296c0.049,0.262,0.285,0.081,0.422,0.154l0.125,0.349
		l-0.098,0.281c-0.059,0.088-0.053,0.244-0.188,0.262l0.014,0.087l0.098,0.175l-0.053,0.252c-0.145-0.043-0.158,0.148-0.264,0.189
		l-0.189,0.116c-0.177-0.085-0.204,0.136-0.335,0.189v0.133l0.229,0.015l-0.062,0.033h-0.266L-26.031,23.692z"/>
	<path fill="#0F6CB5" d="M-31.655,22.895l-0.023,0.148c0.068,1.201,0.441,2.264,1.093,3.22c0.164,0.192,0.285,0.431,0.49,0.577
		c-0.24,0.226-0.484,0.494-0.735,0.747l-0.025,0.101c-1.04-1.192-1.679-2.551-1.869-4.104c-0.041-0.226-0.012-0.459-0.057-0.689
		C-32.416,22.926-32.021,22.926-31.655,22.895"/>
	<path fill="#0F6CB5" d="M-21.782,18.404c-0.105-0.207-0.331-0.337-0.501-0.494c-0.238-0.245-0.623-0.297-0.745-0.652
		c-0.127-0.119-0.172-0.307-0.35-0.374c-0.066-0.181-0.252-0.172-0.357-0.3c-0.308-0.281-0.503,0.178-0.78,0.234l-0.558-0.101
		c-0.195,0-0.389-0.072-0.572-0.008c0.027-0.381,0.027-0.796,0-1.181l0.072,0.046c1.756,0.079,3.274,0.766,4.576,1.982l-0.766,0.76
		L-21.782,18.404z"/>
	<path fill="#0F6CB5" d="M-25.665,28.886l0.037,0.09l0.115-0.053l-0.018-0.174l0.104,0.027c0.837-0.063,1.609-0.314,2.305-0.718
		v0.017c0.143,0.072,0.323,0.164,0.47,0.036c0.176,0.068,0.207-0.153,0.35-0.178c0.172-0.107,0.365-0.303,0.388-0.509l0.148-0.186
		c0.119,0.253,0.352,0.436,0.555,0.655l0.121,0.054c-1.101,1.083-2.41,1.68-3.871,1.888c-0.234,0.04-0.49,0.02-0.713,0.088
		C-25.628,29.626-25.64,29.222-25.665,28.886"/>
	<path fill="#0F6CB5" d="M-25.665,27.271c0.141,0.052,0.283-0.012,0.422-0.015c0.718-0.118,1.391-0.359,1.963-0.812l-0.166,0.271
		l0.045,0.014l-0.133,0.282l0.08,0.035l0.32-0.387l0.204-0.063l0.121-0.278c0.018-0.222,0.277-0.347,0.264-0.57l0.086-0.035
		l0.221-0.28l0.037-0.153l0.248,0.063c0.144-0.084-0.02-0.181-0.006-0.27l0.171-0.013l-0.104-0.188l0.125-0.082l0.092-0.136
		c0.178-0.196-0.057-0.405,0.029-0.611l-0.094-0.37c0.004-0.165-0.145-0.264-0.202-0.406l-0.186-0.035l-0.016-0.291l0.411-0.01
		l-0.047,0.048c-0.055,0.163-0.041,0.386,0.057,0.532l0.193,0.413h0.096l-0.064-0.384c0.119-0.174,0.102-0.4,0.115-0.614
		c0.361,0.021,0.716,0.03,1.071,0.026l-0.035,0.069c-0.055,0.699-0.193,1.355-0.475,1.949l-0.218-0.045L-21.083,25
		c-0.146,0.142-0.238,0.331-0.4,0.458c-0.188-0.021-0.27,0.204-0.438,0.227c-0.149,0.062-0.048,0.311-0.267,0.24l-0.227,0.253
		c0,0.195-0.037,0.406-0.209,0.536l-0.317-0.103l-0.064,0.197l-0.076,0.175c0.173,0.234-0.205,0.227-0.123,0.459
		c-0.021,0.165-0.186,0.23-0.268,0.361c-0.567,0.262-1.134,0.444-1.771,0.522c-0.156,0.021-0.305-0.011-0.439,0.063l0.037-0.069
		C-25.653,27.97-25.628,27.598-25.665,27.271"/>
	<path fill="#0F6CB5" d="M-21.671,26.882l0.152-0.167c0.264-0.15,0.334-0.44,0.569-0.603c0.129-0.287,0.432-0.503,0.443-0.824
		c0.316-0.724,0.532-1.487,0.554-2.336l-0.03-0.045l0.091,0.035l1.052,0.02l-0.059,0.383c-0.144,1.672-0.833,3.105-1.922,4.37
		c-0.2-0.279-0.474-0.538-0.726-0.806L-21.671,26.882z"/>
	<path fill="#FFFFFF" d="M-25.513,29.067l0.158,0.018l0.524,0.234c0.211-0.021,0.443-0.043,0.568-0.227v-0.025
		c-0.131-0.113-0.297-0.203-0.475-0.127c-0.241-0.05-0.575-0.193-0.771,0.064L-25.513,29.067z"/>
	<path fill="#FFFFFF" d="M-22.379,28.384l0.164-0.139l0.018-0.223c-0.197-0.052-0.215,0.176-0.365,0.233l-0.027,0.107
		L-22.379,28.384z"/>
	<polygon fill="#A6A8AB" points="-4.212,-21.657 -3.563,-21.657 -3.563,35.718 -4.212,35.718 	"/>
	<path fill="#F9A71B" d="M6.574-21.14v5.47L3.813-8.206h1.511l1.119-3.244c0.316-0.901,0.65-1.918,0.933-2.916h0.035
		c0.264,0.997,0.578,1.978,0.915,2.975L9.39-8.206h1.507l-2.888-7.409v-5.526H6.574z"/>
	<path fill="#F9A71B" d="M6.576-21.134h0.078v5.478L3.937-8.29h1.337l1.098-3.187v-0.002c0.316-0.897,0.648-1.912,0.928-2.906
		l0.016-0.059h0.097h0.063l0.014,0.06c0.26,0.994,0.574,1.97,0.909,2.965L9.438-8.29h1.337l-2.849-7.307v-5.459H6.576V-21.134h0.078
		H6.576v-0.079h1.429h0.08v5.587l2.917,7.494h-1.62H9.325l-1.078-3.236c-0.334-0.999-0.65-1.976-0.911-2.976l0.075-0.021v0.079
		H7.376v-0.079l0.074,0.023c-0.28,0.997-0.614,2.017-0.931,2.916L5.385-8.132H3.827H3.714l2.784-7.551v-5.529h0.078V-21.134z"/>
	<polygon fill="#F9A71B" points="16.672,-15 13.524,-15 13.524,-19.853 17.103,-19.853 17.103,-21.14 12.087,-21.14 12.087,-8.204 
		16.879,-8.204 16.879,-9.49 13.524,-9.49 13.524,-13.751 16.672,-13.751 	"/>
	<polygon fill="#F9A71B" points="16.666,-15 16.666,-14.92 13.45,-14.92 13.45,-19.929 17.016,-19.929 17.016,-21.056 
		12.173,-21.056 12.173,-8.29 16.793,-8.29 16.793,-9.417 13.45,-9.417 13.45,-13.83 16.588,-13.83 16.588,-15 16.666,-15 
		16.666,-14.92 16.666,-15 16.746,-15 16.746,-13.751 16.746,-13.674 13.606,-13.674 13.606,-9.574 16.949,-9.574 16.949,-8.211 
		16.949,-8.132 12.017,-8.132 12.017,-21.213 17.175,-21.213 17.175,-19.85 17.175,-19.771 13.606,-19.771 13.606,-15.077 
		16.746,-15.077 16.746,-15 	"/>
	<path fill="#F9A71B" d="M20.193-17.262l-0.837-3.878h-1.381l2.872,12.935h1.584l2.794-12.935H23.81l-0.838,3.878H20.193z
		 M22.785-16.074l-0.652,3.282c-0.187,0.922-0.353,1.997-0.501,2.957h-0.076c-0.148-0.98-0.334-2.094-0.504-2.957L20.4-16.074
		H22.785z"/>
	<path fill="#F9A71B" d="M20.199-17.259l-0.076,0.016L19.3-21.056h-1.216L20.912-8.29h1.453l2.757-12.767h-1.256l-0.836,3.875
		h-2.896l-0.012-0.063L20.199-17.259v-0.08h2.705l0.837-3.874h1.479h0.096L22.492-8.132H20.85h-0.063L17.89-21.213h1.473h0.063
		l0.851,3.937L20.199-17.259v-0.08V-17.259z M22.783-16.074l0.074,0.015l-0.648,3.282c-0.186,0.917-0.354,1.988-0.503,2.947
		l-0.01,0.067h-0.141h-0.07l-0.01-0.067c-0.145-0.975-0.332-2.085-0.501-2.947l-0.666-3.375h2.57l-0.021,0.093L22.783-16.074v0.078
		h-2.285l0.632,3.189c0.168,0.865,0.354,1.977,0.502,2.954l-0.076,0.011V-9.92h0.074v0.078l-0.078-0.011
		c0.148-0.961,0.318-2.033,0.505-2.954l0.65-3.282L22.783-16.074v0.078V-16.074z"/>
	<path fill="#F9A71B" d="M26.791-8.397c0.614,0.172,1.361,0.247,2.069,0.247c1.249,0,2.182-0.268,2.834-0.918
		c0.612-0.654,0.874-1.518,0.874-2.531c0-1.651-0.744-2.727-2.014-3.322v-0.039c0.931-0.288,1.418-1.209,1.697-2.899
		c0.279-1.784,0.54-2.876,0.708-3.28h-1.453c-0.189,0.383-0.428,1.613-0.672,3.206c-0.28,1.765-0.819,2.438-2.05,2.438h-0.559
		v-5.644h-1.436V-8.397z M28.227-14.365h0.597c1.378,0,2.291,1.035,2.291,2.59c0,1.497-0.597,2.418-2.141,2.436
		c-0.282,0-0.56-0.018-0.747-0.075V-14.365z"/>
	<path fill="#F9A71B" d="M26.797-8.403l0.021-0.073c0.606,0.171,1.342,0.246,2.044,0.245c1.235,0,2.139-0.265,2.77-0.898
		l0.055,0.055L31.63-9.128c0.595-0.633,0.849-1.472,0.849-2.475c-0.002-1.627-0.719-2.66-1.961-3.25l-0.043-0.02v-0.087v-0.058
		l0.053-0.019c0.884-0.27,1.361-1.147,1.641-2.832v-0.006v0.006c0.279-1.786,0.535-2.876,0.71-3.297l0.072,0.031v0.078h-1.451
		v-0.078l0.07,0.033c-0.174,0.359-0.42,1.595-0.66,3.182v0.001c-0.269,1.769-0.856,2.509-2.122,2.5H28.23h-0.078v-5.638h-1.274
		v12.653H26.797l0.021-0.073L26.797-8.403h-0.076v-12.81h1.51h0.078v5.641h0.479c1.186-0.011,1.678-0.612,1.969-2.372l0,0
		c0.241-1.593,0.478-2.815,0.675-3.226l0.021-0.043h1.498h0.117l-0.047,0.109c-0.16,0.387-0.421,1.483-0.7,3.261
		c-0.277,1.693-0.772,2.655-1.744,2.958l-0.023-0.076h0.078v0.039h-0.078l0.033-0.071c1.289,0.603,2.053,1.715,2.051,3.389
		c0,1.025-0.264,1.913-0.893,2.583l-0.002,0.002c-0.671,0.674-1.625,0.944-2.88,0.944c-0.712-0.002-1.463-0.077-2.087-0.254
		l-0.055-0.016v-0.059H26.797z M28.23-14.365v-0.079h0.595c0.707,0,1.302,0.268,1.716,0.739c0.415,0.468,0.646,1.136,0.646,1.93
		c0.014,1.51-0.634,2.5-2.213,2.511c-0.284-0.001-0.563-0.021-0.765-0.078l-0.057-0.018v-5.084h0.078V-14.365h0.078v4.947H28.23
		l0.021-0.073c0.172,0.051,0.447,0.072,0.722,0.07c1.501-0.029,2.045-0.877,2.057-2.354c-0.006-1.526-0.874-2.508-2.205-2.511H28.23
		V-14.365h0.078H28.23z"/>
	<path fill="#F9A71B" d="M34.135-19.432c0.428-0.287,1.173-0.517,1.805-0.517c1.308,0,2.09,0.881,2.09,2.186
		c0,1.191-0.671,1.919-1.662,2.689c-0.985,0.709-2.363,1.919-2.363,3.587c0,1.959,1.321,3.395,3.313,3.395
		c0.786,0,1.475-0.247,1.773-0.477l-0.355-1.267c-0.315,0.229-0.837,0.438-1.488,0.438c-1.231,0-1.811-0.959-1.811-1.84
		c0-1.284,0.651-1.784,1.848-2.667c1.508-1.095,2.18-2.283,2.18-3.722c0-2.227-1.528-3.628-3.524-3.628
		c-0.854,0-1.77,0.288-2.123,0.555L34.135-19.432z"/>
	<path fill="#F9A71B" d="M34.141-19.429l-0.043-0.063c0.443-0.3,1.196-0.533,1.846-0.533c0.671,0,1.212,0.228,1.585,0.628
		c0.374,0.401,0.575,0.967,0.575,1.636c0.002,1.224-0.696,1.979-1.686,2.747v0.002c-0.981,0.707-2.332,1.9-2.328,3.521
		c0.004,1.922,1.28,3.316,3.228,3.318c0.767,0.002,1.445-0.248,1.719-0.465l0.047,0.063l-0.074,0.021l-0.354-1.263l0.076-0.022
		l0.047,0.064c-0.333,0.237-0.866,0.452-1.535,0.454c-1.274-0.002-1.879-1.007-1.881-1.919c-0.002-1.318,0.687-1.855,1.871-2.728
		l0.002-0.003c1.494-1.084,2.141-2.243,2.141-3.656c-0.004-2.186-1.481-3.54-3.433-3.543c-0.835-0.002-1.746,0.286-2.068,0.541
		l-0.049-0.063l0.076-0.019l0.314,1.264L34.141-19.429l-0.043-0.063L34.141-19.429l-0.074,0.019l-0.316-1.264l-0.014-0.05
		l0.043-0.03c0.379-0.289,1.292-0.568,2.164-0.572c1.011,0,1.912,0.356,2.555,0.999c0.647,0.645,1.037,1.572,1.037,2.701
		c0,1.465-0.687,2.684-2.21,3.783l-0.045-0.062l0.047,0.062c-1.192,0.888-1.805,1.353-1.807,2.603
		c0.002,0.85,0.546,1.761,1.723,1.764c0.634,0,1.14-0.209,1.441-0.425l0.092-0.065l0.383,1.371l0.014,0.052l-0.041,0.031
		c-0.318,0.246-1.015,0.496-1.814,0.498c-1.011,0-1.861-0.37-2.455-0.988c-0.593-0.621-0.929-1.49-0.929-2.486
		c0.004-1.716,1.405-2.935,2.389-3.648l0.047,0.064l-0.047-0.063c0.981-0.765,1.623-1.467,1.625-2.623
		c-0.008-1.275-0.743-2.102-2.004-2.107c-0.612-0.002-1.352,0.226-1.758,0.501l-0.094,0.063l-0.025-0.108L34.141-19.429z"/>
	<path fill="#F9A71B" d="M3.63-2.284l1.372,1.086c1.042-1.645,2.521-2.464,4.433-2.464c1.53,0,2.786,0.547,3.764,1.643
		c0.978,1.095,1.468,2.342,1.468,3.744c0,1.575-0.521,2.869-1.563,3.877c-1.042,1.006-2.264,1.509-3.669,1.509
		c-1.701,0-3.063-0.657-4.083-1.971L3.979,5.963v11.134h10.049v-1.807H5.735V7.835C6.861,8.56,8.097,8.92,9.435,8.92
		c1.936,0,3.583-0.702,4.944-2.103c1.36-1.404,2.041-3.102,2.041-5.092c0-1.993-0.69-3.689-2.072-5.092
		c-1.385-1.403-3.021-2.103-4.913-2.103c-1.191,0-2.292,0.283-3.303,0.854C5.123-4.044,4.286-3.269,3.63-2.284"/>
	<path fill="#F9A71B" d="M3.64-2.281l0.049-0.062l1.37,1.083L5.008-1.196L4.941-1.238C5.995-2.9,7.501-3.739,9.437-3.739
		c1.548,0,2.827,0.561,3.818,1.671c0.989,1.104,1.485,2.375,1.485,3.794c0,1.59-0.529,2.908-1.586,3.934
		C12.101,6.677,10.857,7.19,9.437,7.19c-1.719,0.001-3.107-0.67-4.14-2.002l0.061-0.047l0.04,0.067L4.065,6.007v11.008h9.877v-1.648
		H5.663V7.692l0.121,0.076c1.112,0.714,2.326,1.07,3.652,1.07c1.914-0.003,3.534-0.689,4.882-2.078
		c1.345-1.387,2.018-3.059,2.018-5.035c0-1.971-0.681-3.645-2.051-5.033c-1.367-1.388-2.978-2.077-4.849-2.078
		c-1.18,0-2.263,0.281-3.258,0.845c-1.001,0.561-1.824,1.33-2.475,2.303L3.64-2.281l0.049-0.062L3.64-2.281L3.573-2.326
		c0.662-0.992,1.505-1.78,2.527-2.353c1.019-0.576,2.133-0.863,3.336-0.863c1.91-0.003,3.569,0.709,4.96,2.125
		c1.396,1.414,2.098,3.134,2.098,5.142c0,2.011-0.692,3.732-2.064,5.145c-1.373,1.417-3.042,2.127-4.993,2.124
		C8.085,8.994,6.836,8.63,5.7,7.9l0.041-0.065h0.078v7.375h8.281v1.884v0.079H3.909V5.918l1.466-0.881l0.046,0.055
		c1.009,1.296,2.338,1.939,4.016,1.94c1.384,0,2.58-0.493,3.608-1.487c1.026-0.993,1.537-2.261,1.539-3.82
		c0-1.384-0.483-2.608-1.447-3.689c-0.964-1.076-2.189-1.617-3.7-1.617c-1.889,0.002-3.33,0.803-4.362,2.426L5.027-1.082
		L3.532-2.265l0.041-0.061L3.64-2.281z"/>
	<path fill="#F9A71B" d="M28.637,17.558c2.061,0,3.955-0.519,5.68-1.56c1.723-1.041,3.085-2.442,4.098-4.207
		c1.011-1.761,1.516-3.706,1.516-5.828c0-2.126-0.505-4.077-1.516-5.85c-1.013-1.772-2.375-3.179-4.098-4.22
		c-1.725-1.04-3.619-1.559-5.68-1.559c-2.063,0-3.951,0.519-5.659,1.559c-1.715,1.041-3.076,2.448-4.083,4.22
		c-1.013,1.772-1.517,3.724-1.517,5.85c0,1.556,0.285,3.043,0.86,4.468c0.574,1.421,1.388,2.673,2.441,3.761
		c1.052,1.081,2.264,1.916,3.635,2.494C25.687,17.268,27.128,17.558,28.637,17.558 M28.637,15.75c-1.7,0-3.286-0.433-4.755-1.296
		c-1.464-0.867-2.625-2.065-3.476-3.599c-0.849-1.533-1.274-3.163-1.274-4.893c0-1.776,0.426-3.418,1.274-4.928
		c0.851-1.51,2.012-2.706,3.476-3.581c1.469-0.876,3.055-1.314,4.755-1.314c1.723,0,3.318,0.438,4.786,1.314
		c1.467,0.875,2.624,2.07,3.475,3.581c0.853,1.509,1.276,3.152,1.276,4.928c0,1.729-0.424,3.36-1.276,4.893
		c-0.851,1.534-2.008,2.731-3.475,3.599C31.955,15.317,30.359,15.75,28.637,15.75"/>
	<path fill="#F9A71B" d="M28.637,17.553v-0.078c2.047,0,3.924-0.515,5.633-1.55c1.709-1.032,3.065-2.421,4.07-4.171
		c1.001-1.754,1.504-3.681,1.504-5.79c0-2.112-0.503-4.046-1.504-5.808c-1.005-1.761-2.361-3.157-4.07-4.189
		s-3.586-1.548-5.633-1.548s-3.92,0.516-5.616,1.548c-1.703,1.032-3.053,2.428-4.054,4.189c-1.001,1.762-1.503,3.695-1.503,5.808
		c0,1.544,0.281,3.022,0.856,4.436c0.568,1.416,1.376,2.66,2.42,3.734c1.046,1.075,2.249,1.9,3.607,2.476
		c1.36,0.575,2.79,0.865,4.289,0.865V17.553v0.079c-1.519,0-2.97-0.293-4.35-0.88c-1.381-0.583-2.601-1.421-3.658-2.51
		c-1.06-1.09-1.879-2.351-2.455-3.785c-0.579-1.431-0.866-2.93-0.866-4.494c0-2.137,0.508-4.1,1.522-5.885
		c1.015-1.784,2.386-3.2,4.109-4.246c1.719-1.048,3.623-1.573,5.697-1.573c2.072,0,3.98,0.525,5.713,1.573
		c1.734,1.046,3.11,2.462,4.127,4.246C39.491,1.863,40,3.826,40,5.963c0,2.136-0.509,4.09-1.523,5.867
		c-1.017,1.771-2.393,3.183-4.127,4.229c-1.732,1.047-3.641,1.573-5.713,1.573V17.553z M28.637,15.747v0.079
		c-1.712,0-3.312-0.438-4.79-1.311c-1.478-0.871-2.646-2.079-3.501-3.626c-0.856-1.539-1.286-3.187-1.286-4.927
		c0-1.786,0.43-3.442,1.286-4.966c0.856-1.52,2.023-2.723,3.501-3.606c1.479-0.884,3.076-1.326,4.79-1.326
		c1.732,0,3.342,0.442,4.823,1.326c1.477,0.883,2.644,2.086,3.5,3.606c0.858,1.524,1.286,3.18,1.286,4.966
		c0,1.74-0.43,3.388-1.286,4.927c-0.854,1.547-2.023,2.755-3.502,3.626c-1.479,0.873-3.089,1.311-4.821,1.311V15.747v-0.078
		c1.709,0,3.287-0.429,4.741-1.288c1.457-0.856,2.601-2.044,3.445-3.567c0.845-1.517,1.267-3.138,1.267-4.851
		c0-1.76-0.422-3.387-1.267-4.891c-0.845-1.497-1.988-2.677-3.445-3.547c-1.454-0.868-3.032-1.303-4.741-1.303
		c-1.687,0-3.255,0.435-4.709,1.303c-1.457,0.87-2.604,2.051-3.447,3.547c-0.841,1.503-1.265,3.13-1.265,4.891
		c0,1.713,0.422,3.333,1.265,4.851c0.845,1.523,1.99,2.711,3.443,3.567c1.458,0.859,3.026,1.288,4.713,1.288V15.747z"/>
	<polygon fill="#231F20" points="-37.766,-32.664 -39.175,-32.664 -39.44,-34.119 -37.85,-34.119 -37.93,-34.544 -40,-34.544 
		-39.263,-30.544 -37.278,-30.544 -37.36,-30.966 -38.858,-30.966 -39.097,-32.247 -37.684,-32.247 	"/>
	<path fill="#231F20" d="M-37.31-34.544l0.377,2.035c0.055,0.323,0.096,0.603,0.125,0.841h0.423l-0.078-0.542h0.02
		c0.26,0.395,0.611,0.605,0.981,0.605c0.426,0,0.625-0.279,0.65-0.642c0.249,0.416,0.604,0.637,1.024,0.642
		c0.325,0,0.677-0.216,0.677-0.753c0-0.139-0.018-0.329-0.047-0.488l-0.313-1.698h-0.466l0.299,1.658l0.042,0.371
		c0,0.305-0.11,0.5-0.421,0.5c-0.35,0-0.757-0.415-0.87-1.059l-0.271-1.471h-0.462l0.312,1.687l0.033,0.349
		c0,0.245-0.061,0.495-0.413,0.495c-0.352,0-0.787-0.477-0.893-1.088l-0.261-1.442H-37.31z"/>
	<path fill="#231F20" d="M-32.899-35.718l0.56,3.025c0.057,0.346,0.115,0.73,0.154,1.021h0.441l-0.082-0.54h0.012
		c0.253,0.375,0.622,0.607,1.001,0.607c0.608,0,0.86-0.511,0.86-1.04c0-1.01-0.703-1.963-1.632-1.963
		c-0.3,0-0.497,0.063-0.604,0.129h-0.014l-0.225-1.239H-32.899z M-32.115-34.065c0.121-0.099,0.307-0.159,0.53-0.159
		c0.615,0,1.138,0.791,1.138,1.543c0,0.306-0.133,0.667-0.538,0.667c-0.375,0-0.851-0.444-0.991-1.248L-32.115-34.065z"/>
	<path fill="#231F20" d="M-26.935-32.805c0-0.886-0.609-1.807-1.544-1.807c-0.696,0-1.089,0.535-1.089,1.184
		c0,0.946,0.641,1.823,1.544,1.823C-27.267-31.605-26.935-32.191-26.935-32.805 M-29.073-33.411c0-0.467,0.25-0.808,0.659-0.808
		c0.563,0,0.991,0.747,0.991,1.42c0,0.331-0.15,0.8-0.653,0.8C-28.674-31.998-29.079-32.75-29.073-33.411"/>
	<path fill="#231F20" d="M-25.971-31.672l0.098-1.614c0.025-0.357,0.018-0.542,0.012-0.771h0.016
		c0.065,0.184,0.171,0.433,0.308,0.716l0.829,1.668h0.416l0.174-1.637c0.027-0.314,0.051-0.558,0.045-0.747h0.01
		c0.078,0.229,0.156,0.45,0.267,0.722l0.756,1.663h0.483l-1.379-2.872h-0.443l-0.182,1.562c-0.029,0.267-0.043,0.512-0.043,0.759
		h-0.01c-0.115-0.271-0.195-0.492-0.321-0.749l-0.803-1.572h-0.442l-0.262,2.872H-25.971z"/>
	<path fill="#231F20" d="M-20.586-34.379c-0.209-0.123-0.548-0.226-0.923-0.226c-0.737,0-1.062,0.517-1.062,1.153
		c0,0.87,0.623,1.847,1.522,1.847c0.53,0,0.819-0.329,0.819-0.735c0-0.758-0.825-0.958-1.857-0.939
		c-0.021-0.125-0.006-0.393,0.057-0.548c0.112-0.255,0.337-0.385,0.624-0.385c0.33,0,0.577,0.107,0.749,0.203L-20.586-34.379z
		 M-21.116-31.991c-0.457,0-0.795-0.457-0.913-0.907c0.751-0.009,1.34,0.093,1.34,0.537C-20.689-32.123-20.861-31.991-21.116-31.991
		"/>
	<path fill="#231F20" d="M-19.986-34.544l0.339,1.852c0.07,0.375,0.115,0.753,0.146,1.024h0.418
		c-0.023-0.204-0.045-0.408-0.074-0.625h0.018c0.179,0.393,0.478,0.689,0.854,0.689l0.131-0.015l-0.092-0.486l-0.127,0.012
		c-0.416,0-0.784-0.518-0.905-1.186l-0.23-1.265H-19.986z"/>
	<path fill="#231F20" d="M-16.178-34.379c-0.207-0.123-0.547-0.226-0.921-0.226c-0.738,0-1.062,0.517-1.062,1.153
		c0,0.87,0.624,1.847,1.521,1.847c0.531,0,0.821-0.329,0.821-0.735c0-0.758-0.827-0.958-1.857-0.939
		c-0.023-0.125-0.006-0.393,0.057-0.548c0.109-0.255,0.334-0.385,0.624-0.385c0.328,0,0.574,0.107,0.748,0.203L-16.178-34.379z
		 M-16.707-31.991c-0.456,0-0.796-0.457-0.911-0.907c0.751-0.009,1.337,0.093,1.337,0.537
		C-16.281-32.123-16.453-31.991-16.707-31.991"/>
	<path fill="#231F20" d="M-12.607-30.329l-0.612-3.308c-0.057-0.296-0.104-0.625-0.121-0.907h-0.438l0.074,0.57h-0.012
		c-0.252-0.409-0.604-0.637-1.001-0.637c-0.544,0-0.837,0.458-0.837,1.047c0,1.021,0.739,1.96,1.725,1.96
		c0.178,0,0.373-0.04,0.494-0.102l0.247,1.377H-12.607z M-13.409-32.123c-0.1,0.064-0.26,0.12-0.461,0.12
		c-0.671,0-1.187-0.73-1.187-1.498c0-0.344,0.113-0.702,0.523-0.702c0.369,0,0.813,0.43,0.933,1.075L-13.409-32.123z"/>
	<polygon fill="#231F20" points="-10.719,-30.329 -11.495,-34.542 -11.023,-34.542 -10.242,-30.329 	"/>
	<path fill="#231F20" d="M-10.181-34.544l0.533,2.876h0.479l-0.536-2.876H-10.181z M-9.56-30.87c0,0.192,0.143,0.331,0.317,0.331
		c0.174,0,0.283-0.128,0.283-0.307c-0.006-0.196-0.139-0.333-0.325-0.333C-9.45-31.178-9.56-31.047-9.56-30.87"/>
	<path fill="#231F20" d="M-8.237-31.672l0.24-1.637c0.041-0.328,0.076-0.546,0.086-0.707h0.018c0.057,0.155,0.133,0.344,0.293,0.67
		l0.854,1.674h0.522l-1.551-2.872h-0.471l-0.483,2.872H-8.237z"/>
	<path fill="#231F20" d="M-4.271-34.379c-0.204-0.123-0.546-0.226-0.921-0.226c-0.737,0-1.062,0.517-1.062,1.153
		c0,0.87,0.623,1.847,1.524,1.847c0.528,0,0.817-0.329,0.817-0.735c0-0.758-0.825-0.958-1.855-0.939
		c-0.023-0.125-0.006-0.393,0.059-0.548c0.105-0.255,0.33-0.385,0.622-0.385c0.328,0,0.576,0.107,0.749,0.203L-4.271-34.379z
		 M-4.799-31.991c-0.457,0-0.796-0.457-0.909-0.907c0.747-0.009,1.335,0.093,1.335,0.537C-4.373-32.123-4.545-31.991-4.799-31.991"
		/>
	<path fill="#231F20" d="M-3.647-34.048c0.133-0.081,0.376-0.177,0.601-0.177c0.324,0,0.529,0.215,0.529,0.467
		c0,0.227-0.096,0.364-0.383,0.529c-0.324,0.187-0.504,0.444-0.504,0.731c0,0.506,0.422,0.893,1.011,0.893
		c0.252,0,0.477-0.072,0.582-0.143l-0.133-0.375c-0.098,0.059-0.277,0.132-0.485,0.132c-0.289,0-0.496-0.187-0.496-0.433
		c0-0.21,0.133-0.337,0.381-0.48c0.312-0.187,0.522-0.434,0.522-0.757c0-0.602-0.476-0.944-1.063-0.944
		c-0.301,0-0.565,0.096-0.692,0.197L-3.647-34.048z"/>
	<path fill="#231F20" d="M-1.612-34.26c0,0.222,0.151,0.398,0.364,0.398c0.195,0,0.322-0.148,0.322-0.357
		c0-0.215-0.148-0.389-0.369-0.389C-1.485-34.608-1.612-34.458-1.612-34.26"/>
	<path fill="#231F20" d="M1.443-30.602c0.237,0.052,0.56,0.09,0.847,0.09c0.388,0,0.72-0.096,0.927-0.293
		c0.18-0.161,0.29-0.39,0.29-0.663c0-0.582-0.433-1.014-0.923-1.158L2.58-32.64c0.27-0.093,0.402-0.39,0.43-0.806
		c0.043-0.558,0.07-0.938,0.123-1.098H2.637c-0.023,0.081-0.064,0.506-0.092,0.968c-0.029,0.546-0.226,0.778-0.612,0.778H1.507
		l-0.317-1.746H0.711L1.443-30.602z M1.581-32.419h0.428c0.604,0,0.995,0.409,0.995,0.889c0,0.427-0.309,0.62-0.749,0.62
		c-0.189,0-0.316-0.017-0.404-0.041L1.581-32.419z"/>
	<path fill="#231F20" d="M5.72-34.379c-0.207-0.123-0.546-0.226-0.921-0.226c-0.737,0-1.063,0.517-1.063,1.153
		c0,0.87,0.625,1.847,1.522,1.847c0.532,0,0.819-0.329,0.819-0.735c0-0.758-0.825-0.958-1.857-0.939
		c-0.021-0.125-0.004-0.393,0.061-0.548c0.108-0.255,0.333-0.385,0.62-0.385c0.33,0,0.577,0.107,0.751,0.203L5.72-34.379z
		 M5.189-31.991c-0.455,0-0.795-0.457-0.909-0.907c0.747-0.009,1.336,0.093,1.336,0.537C5.616-32.123,5.444-31.991,5.189-31.991"/>
	<path fill="#231F20" d="M6.344-34.048c0.133-0.081,0.375-0.177,0.6-0.177c0.322,0,0.53,0.215,0.53,0.467
		c0,0.227-0.098,0.364-0.388,0.529c-0.32,0.187-0.498,0.444-0.498,0.731c0,0.506,0.42,0.893,1.007,0.893
		c0.252,0,0.477-0.072,0.58-0.143l-0.133-0.375c-0.096,0.059-0.275,0.132-0.484,0.132c-0.286,0-0.493-0.187-0.493-0.433
		c0-0.21,0.131-0.337,0.382-0.48c0.309-0.187,0.521-0.434,0.521-0.757c0-0.602-0.477-0.944-1.063-0.944
		c-0.303,0-0.566,0.096-0.694,0.197L6.344-34.048z"/>
	<path fill="#231F20" d="M8.469-34.544l0.537,2.876h0.479l-0.538-2.876H8.469z M9.092-30.87c0,0.192,0.145,0.331,0.317,0.331
		c0.174,0,0.281-0.128,0.281-0.307c-0.004-0.196-0.137-0.333-0.32-0.333C9.201-31.178,9.092-31.047,9.092-30.87"/>
	<polygon fill="#231F20" points="10.574,-30.329 9.794,-34.542 10.27,-34.542 11.053,-30.329 	"/>
	<path fill="#231F20" d="M11.109-34.544l0.536,2.876h0.479l-0.537-2.876H11.109z M11.733-30.87c0,0.192,0.143,0.331,0.316,0.331
		c0.173,0,0.282-0.128,0.282-0.307c-0.008-0.196-0.139-0.333-0.325-0.333C11.841-31.178,11.733-31.047,11.733-30.87"/>
	<path fill="#231F20" d="M14.441-34.379c-0.205-0.123-0.548-0.226-0.923-0.226c-0.739,0-1.06,0.517-1.06,1.153
		c0,0.87,0.623,1.847,1.521,1.847c0.53,0,0.819-0.329,0.819-0.735c0-0.758-0.823-0.958-1.855-0.939
		c-0.021-0.125-0.006-0.393,0.057-0.548c0.109-0.255,0.335-0.385,0.624-0.385c0.326,0,0.575,0.107,0.747,0.203L14.441-34.379z
		 M13.913-31.991c-0.459,0-0.796-0.457-0.913-0.907c0.751-0.009,1.338,0.093,1.338,0.537C14.338-32.123,14.166-31.991,13.913-31.991
		"/>
	<path fill="#231F20" d="M15.039-34.544l0.376,2.035c0.064,0.323,0.098,0.603,0.135,0.841h0.424l-0.068-0.564h0.014
		c0.247,0.401,0.622,0.627,1.03,0.627c0.337,0,0.708-0.194,0.708-0.802c0-0.125-0.023-0.31-0.051-0.462l-0.311-1.675h-0.479
		l0.306,1.658l0.039,0.365c0,0.294-0.108,0.506-0.435,0.506c-0.344,0-0.827-0.421-0.954-1.135l-0.254-1.395H15.039z"/>
	<path fill="#231F20" d="M19.37-30.898l-0.145-0.774h0.666l-0.072-0.386h-0.67l-0.261-1.394c-0.027-0.163-0.051-0.31-0.051-0.465
		c0-0.171,0.084-0.273,0.267-0.273l0.227,0.018l-0.025-0.383c-0.084-0.035-0.23-0.056-0.37-0.056c-0.426,0-0.586,0.271-0.586,0.558
		c0,0.169,0.018,0.334,0.057,0.542l0.277,1.454h-0.402l0.074,0.386h0.398l0.121,0.648L19.37-30.898z"/>
	<path fill="#231F20" d="M20.971-34.544l0.376,2.035c0.063,0.323,0.098,0.603,0.133,0.841h0.424l-0.066-0.564h0.01
		c0.249,0.401,0.624,0.627,1.032,0.627c0.335,0,0.708-0.194,0.708-0.802c0-0.125-0.021-0.31-0.051-0.462l-0.313-1.675h-0.476
		l0.304,1.658l0.041,0.365c0,0.294-0.109,0.506-0.438,0.506c-0.34,0-0.825-0.421-0.95-1.135l-0.254-1.395H20.971z"/>
	<path fill="#231F20" d="M25.9-34.544c0,0.171,0.027,0.444,0.064,0.744h-0.012c-0.306-0.595-0.687-0.812-1.086-0.812
		c-0.49,0-0.801,0.405-0.801,0.951c0,0.997,0.717,2.056,1.932,2.056c0.266,0,0.557-0.051,0.75-0.112l-0.281-1.499
		c-0.096-0.497-0.135-1.009-0.125-1.329H25.9z M26.211-32.039c-0.068,0.019-0.172,0.041-0.334,0.041
		c-0.72,0-1.313-0.776-1.316-1.573c0-0.32,0.111-0.636,0.479-0.636c0.396,0,0.872,0.535,1.011,1.303L26.211-32.039z"/>
	<path fill="#231F20" d="M28.311-30.898l-0.146-0.774h0.669l-0.075-0.386H28.09l-0.26-1.394c-0.027-0.163-0.052-0.31-0.052-0.465
		c0-0.171,0.083-0.273,0.265-0.273l0.225,0.018l-0.021-0.383c-0.088-0.035-0.23-0.056-0.369-0.056c-0.425,0-0.591,0.271-0.591,0.558
		c0,0.169,0.021,0.334,0.061,0.542l0.277,1.454H27.22l0.074,0.386h0.396l0.124,0.648L28.311-30.898z"/>
	<path fill="#231F20" d="M28.862-34.544l0.535,2.876h0.478l-0.534-2.876H28.862z M29.483-30.87c0,0.192,0.145,0.331,0.317,0.331
		c0.174,0,0.285-0.128,0.285-0.307c-0.008-0.196-0.141-0.333-0.324-0.333C29.595-31.178,29.483-31.047,29.483-30.87"/>
	<path fill="#231F20" d="M32.856-32.805c0-0.886-0.61-1.807-1.545-1.807c-0.7,0-1.089,0.535-1.089,1.184
		c0,0.946,0.64,1.823,1.547,1.823C32.523-31.605,32.856-32.191,32.856-32.805 M30.719-33.411c0-0.467,0.249-0.808,0.655-0.808
		c0.567,0,0.991,0.747,0.991,1.42c0,0.331-0.148,0.8-0.648,0.8C31.116-31.998,30.711-32.75,30.719-33.411"/>
	<path fill="#231F20" d="M33.19-34.544l0.375,2.035c0.063,0.323,0.097,0.603,0.134,0.841h0.424l-0.066-0.564h0.012
		c0.248,0.401,0.622,0.627,1.03,0.627c0.336,0,0.71-0.194,0.71-0.802c0-0.125-0.023-0.31-0.053-0.462l-0.312-1.675h-0.477
		l0.303,1.658l0.043,0.365c0,0.294-0.109,0.506-0.438,0.506c-0.343,0-0.827-0.421-0.954-1.135l-0.252-1.395H33.19z"/>
	<path fill="#231F20" d="M36.293-34.048c0.131-0.081,0.374-0.177,0.601-0.177c0.32,0,0.529,0.215,0.529,0.467
		c0,0.227-0.1,0.364-0.387,0.529c-0.322,0.187-0.501,0.444-0.501,0.731c0,0.506,0.423,0.893,1.009,0.893
		c0.253,0,0.478-0.072,0.583-0.143l-0.135-0.375c-0.098,0.059-0.275,0.132-0.485,0.132c-0.285,0-0.492-0.187-0.492-0.433
		c0-0.21,0.131-0.337,0.379-0.48c0.312-0.187,0.524-0.434,0.524-0.757c0-0.602-0.479-0.944-1.065-0.944
		c-0.302,0-0.567,0.096-0.692,0.197L36.293-34.048z"/>
	<path fill="#231F20" d="M38.32-34.26c0,0.222,0.148,0.398,0.364,0.398c0.195,0,0.322-0.148,0.322-0.357
		c0-0.215-0.148-0.389-0.369-0.389C38.447-34.608,38.32-34.458,38.32-34.26"/>
</symbol>
<use xlink:href="#New_Symbol_3"  width="80" height="71.437" x="-40" y="-35.718" transform="matrix(1 0 0 -1 42 38)" overflow="visible"/>
</svg>
